<svg width="220" height="249" viewBox="0 0 220 249" fill="none" xmlns="http://www.w3.org/2000/svg">
<rect width="220" height="249" fill="white"/>
<path d="M121.439 240.333L119.647 240.724L115.674 242.174L112.056 243V240.52L111.124 234.32L109.573 232.15L107.73 230.308L107.72 229.783L100.438 215.017L98.0111 211.333L92.3262 207.92L90.2469 207.327L88.2816 206.238L87.2454 204.713L86.6537 203.373L85.8717 201.337L84.5606 198.143L81.341 192.76L75.6435 188.52L74.681 187.934L74.8977 183.822L71.2517 180.698L68.1251 178.097V172.892L70.2086 168.209L71.7725 164.045L72.2934 159.883L74.3768 154.678L76.9811 151.035V145.832L74.3768 144.269L72.1003 143.62L71.9767 142.857L69.1668 142.708L65 138.546V133.341V128.137L67.0834 123.973L69.1668 120.331L70.8947 114.004L70.3488 113.173L69.8377 112.049L69.6071 110.319L67.6154 103.563L66.2403 100.32L67.7459 99.7096L68.7432 98.5539L69.7224 93.7586L69.571 90.4564L68.546 87.3581L68.4057 85.8915L68.4307 83.9337L69.178 83.5549L70.2419 82.2451L74.8615 71.4545L75.1907 70.1281L75.3393 68.5879L75.3463 66.4165L75.4546 64.5572L76.2116 61.8058L76.7547 60.675L80.609 55.9408L83.3175 53.1908L83.7216 52.6414L84.5939 50.8473L85.2356 48.8007L86.1926 44.2317L86.5134 40.6325L86.2995 38.6803L86.4634 37.419L87.394 33.7852L87.7565 32.5073L88.7441 31.4597L90.408 30.9033L91.7095 31.0337L92.779 31.9023L93.2818 33.4979L93.1082 37.3372L93.636 37.5092L97.5222 34.7009L98.1653 33.5063L97.5348 31.2183L96.2139 29.9987L95.4874 28.12L96.3944 26.5743L97.8514 25.3866L99.8946 24.2072L101.377 23.1361L104.292 19.5591L106.235 16.0778L112.702 9.23049L116.602 6.04063L119.529 5L121.7 14.4683L121.947 20.4096L122.094 22.2689L122.68 24.0768L124.993 27.8258L126.986 31.8288L127.464 33.3425L129.992 44.6812L129.654 47.1787L129.489 49.5208L129.621 50.9944L129.983 52.2556L130.79 53.861L133.046 56.7594L133.706 57.7418L134.2 58.8393L134.496 60.1672L135.022 68.8418L134.446 70.0296L133.574 80.3526L133.484 83.4495L133.87 84.7607L134.2 86.7282L133.706 90.0873L133.293 91.8092L129.497 99.7929L128.049 102.08L126.936 102.973L125.701 104.284L124.632 105.679L123.559 107.319L122.522 109.859L121.7 112.73L121.371 116.157L121.484 117.961L121.961 120.718L118.137 125.015V129.177L123.868 133.862L124.271 134.063L124.879 137.371L125.455 139.094L129.028 146.792L129.621 147.563L128.879 147.924L127.399 149.155L126.064 150.92L125.372 152.11L125.043 153.835L124.508 166.265L125.322 168.399L126.196 170.289L132.354 182.036L134.809 184.779L136.375 185.456L138.028 185.872L140.716 186.419L143.316 187.024L145.623 187.593L150.937 189.462L153.844 192.502L155.316 194.89L156.044 196.599L157.175 199.345L158.13 203.199L156.854 205.618L154.704 207.377L152.514 208.734L151.113 209.786L149.961 211.184L149.013 213.067L148.52 214.746L147.936 217.073L147.309 218.422L146.79 218.719V221.291L143.665 224.933L140.538 226.494L136.371 223.372L130.119 222.852L126.993 223.372L123.841 226.036L123.066 231.94L122.111 233.99L121.107 236.855L121.008 239.061L121.439 240.333Z" fill="#E9ECF2" stroke="#8F959D" stroke-width="2"/>
</svg>
