<svg width="180" height="249" viewBox="0 0 180 249" fill="none" xmlns="http://www.w3.org/2000/svg">
<mask id="path-1-inside-1_8892_6810" fill="white">
<path d="M118.135 35.7192L122.008 42.7388L128.182 41.3723L127.411 46.2868V53.8363L133.712 57.6994L133.392 69.5398L134.191 70.9659L139.079 79.2519L141.621 82.453L151.845 87.1845L160.912 93.3654L172.843 100.023L180 104.78L179.524 112.387L176.66 115.716L171.888 116.667L165.147 117.131L164.656 117.81L161.085 125.79L155.777 137.769L151.369 138.541L150.414 143.298L148.981 150.907L151.884 150.45L156.617 152.81L162.343 156.139L166.64 163.273L168.069 169.931L168.548 180.867L165.207 185.147L161.39 188.951L163.298 195.134L161.867 200.84L160.436 204.169L157.935 206.087V206.602L154.173 207.762L140.256 213.381L138.509 214.847L137.191 217.723L137.05 220.89L136.482 223.553L135.406 225.734L133.684 227.85L129.62 232.098L113.108 246.32L105.94 248.949L98.0393 249L96.4438 239.354L97.5267 235.335L96.9628 233.256L90.7817 229.099L89.4554 223.314L90.2862 220.336L92.6719 217.01L96.9671 214.156L97.4434 207.975L93.1482 206.072L87.4221 207.021L84.56 210.352L80.7411 213.679L80.7732 213.892L80.2349 214.077L79.7138 219.308L78.7548 227.492L77.17 231.44L70.1303 236.5L70.0812 235.604L68.2187 231.115L65.6984 227.926L59.7586 219.206L54.1884 209.826L44.4105 188.4L38.7398 173.937L37.1935 168.618L38.1824 164.216L38.0692 161.607L29.6156 151.107L26.0765 145.416L23.9235 136.681L23.569 127.899L20.4293 121.954L16.2751 118.953L13.6929 110.444L13.0585 104.55L8.1226 99.4464L2.18924 95.1299L0 85.735H0.674929L3.66938 85.0922L5.95046 79.6392L5.36096 76.436L5.72832 73.0092L8.12047 69.012L10.3503 66.7814L12.1615 66.0833L24.9124 61.935L37.3345 57.5973L39.9936 52.6231L39.9295 50.499L46.5891 32.3478L49.8889 25.1899L55.7839 19.9583L57.1786 18.7684L60.2413 16.8167L62.0654 16.1335L65.3182 13.9795L72.6506 3.39269L90.3033 0L92.3281 0.253322L92.783 2.93723L94.7352 8.7372L95.5425 10.408L97.469 12.3598L102.029 16.64L105.269 18.2598L107.119 19.0217L118.135 35.7192Z"/>
</mask>
<path d="M118.135 35.7192L122.008 42.7388L128.182 41.3723L127.411 46.2868V53.8363L133.712 57.6994L133.392 69.5398L134.191 70.9659L139.079 79.2519L141.621 82.453L151.845 87.1845L160.912 93.3654L172.843 100.023L180 104.78L179.524 112.387L176.66 115.716L171.888 116.667L165.147 117.131L164.656 117.81L161.085 125.79L155.777 137.769L151.369 138.541L150.414 143.298L148.981 150.907L151.884 150.45L156.617 152.81L162.343 156.139L166.64 163.273L168.069 169.931L168.548 180.867L165.207 185.147L161.39 188.951L163.298 195.134L161.867 200.84L160.436 204.169L157.935 206.087V206.602L154.173 207.762L140.256 213.381L138.509 214.847L137.191 217.723L137.05 220.89L136.482 223.553L135.406 225.734L133.684 227.85L129.62 232.098L113.108 246.32L105.94 248.949L98.0393 249L96.4438 239.354L97.5267 235.335L96.9628 233.256L90.7817 229.099L89.4554 223.314L90.2862 220.336L92.6719 217.01L96.9671 214.156L97.4434 207.975L93.1482 206.072L87.4221 207.021L84.56 210.352L80.7411 213.679L80.7732 213.892L80.2349 214.077L79.7138 219.308L78.7548 227.492L77.17 231.44L70.1303 236.5L70.0812 235.604L68.2187 231.115L65.6984 227.926L59.7586 219.206L54.1884 209.826L44.4105 188.4L38.7398 173.937L37.1935 168.618L38.1824 164.216L38.0692 161.607L29.6156 151.107L26.0765 145.416L23.9235 136.681L23.569 127.899L20.4293 121.954L16.2751 118.953L13.6929 110.444L13.0585 104.55L8.1226 99.4464L2.18924 95.1299L0 85.735H0.674929L3.66938 85.0922L5.95046 79.6392L5.36096 76.436L5.72832 73.0092L8.12047 69.012L10.3503 66.7814L12.1615 66.0833L24.9124 61.935L37.3345 57.5973L39.9936 52.6231L39.9295 50.499L46.5891 32.3478L49.8889 25.1899L55.7839 19.9583L57.1786 18.7684L60.2413 16.8167L62.0654 16.1335L65.3182 13.9795L72.6506 3.39269L90.3033 0L92.3281 0.253322L92.783 2.93723L94.7352 8.7372L95.5425 10.408L97.469 12.3598L102.029 16.64L105.269 18.2598L107.119 19.0217L118.135 35.7192Z" fill="#E9ECF2"/>
<path d="M118.135 35.7192L122.008 42.7388L128.182 41.3723L127.411 46.2868V53.8363L133.712 57.6994L133.392 69.5398L134.191 70.9659L139.079 79.2519L141.621 82.453L151.845 87.1845L160.912 93.3654L172.843 100.023L180 104.78L179.524 112.387L176.66 115.716L171.888 116.667L165.147 117.131L164.656 117.81L161.085 125.79L155.777 137.769L151.369 138.541L150.414 143.298L148.981 150.907L151.884 150.45L156.617 152.81L162.343 156.139L166.64 163.273L168.069 169.931L168.548 180.867L165.207 185.147L161.39 188.951L163.298 195.134L161.867 200.84L160.436 204.169L157.935 206.087V206.602L154.173 207.762L140.256 213.381L138.509 214.847L137.191 217.723L137.05 220.89L136.482 223.553L135.406 225.734L133.684 227.85L129.62 232.098L113.108 246.32L105.94 248.949L98.0393 249L96.4438 239.354L97.5267 235.335L96.9628 233.256L90.7817 229.099L89.4554 223.314L90.2862 220.336L92.6719 217.01L96.9671 214.156L97.4434 207.975L93.1482 206.072L87.4221 207.021L84.56 210.352L80.7411 213.679L80.7732 213.892L80.2349 214.077L79.7138 219.308L78.7548 227.492L77.17 231.44L70.1303 236.5L70.0812 235.604L68.2187 231.115L65.6984 227.926L59.7586 219.206L54.1884 209.826L44.4105 188.4L38.7398 173.937L37.1935 168.618L38.1824 164.216L38.0692 161.607L29.6156 151.107L26.0765 145.416L23.9235 136.681L23.569 127.899L20.4293 121.954L16.2751 118.953L13.6929 110.444L13.0585 104.55L8.1226 99.4464L2.18924 95.1299L0 85.735H0.674929L3.66938 85.0922L5.95046 79.6392L5.36096 76.436L5.72832 73.0092L8.12047 69.012L10.3503 66.7814L12.1615 66.0833L24.9124 61.935L37.3345 57.5973L39.9936 52.6231L39.9295 50.499L46.5891 32.3478L49.8889 25.1899L55.7839 19.9583L57.1786 18.7684L60.2413 16.8167L62.0654 16.1335L65.3182 13.9795L72.6506 3.39269L90.3033 0L92.3281 0.253322L92.783 2.93723L94.7352 8.7372L95.5425 10.408L97.469 12.3598L102.029 16.64L105.269 18.2598L107.119 19.0217L118.135 35.7192Z" stroke="#8F959D" stroke-width="4" mask="url(#path-1-inside-1_8892_6810)"/>
<path d="M118.135 35.7192L122.008 42.7388L128.182 41.3723L127.411 46.2868V53.8363L133.712 57.6994L133.392 69.5398L134.191 70.9659L139.079 79.2519L141.621 82.453L151.845 87.1845L160.912 93.3654L172.843 100.023L180 104.78L179.524 112.387L176.66 115.716L171.888 116.667L165.147 117.131L164.656 117.81L161.085 125.79L155.777 137.769L151.369 138.541L150.414 143.298L148.981 150.907L151.884 150.45L156.617 152.81L162.343 156.139L166.64 163.273L168.069 169.931L168.548 180.867L165.207 185.147L161.39 188.951L163.298 195.134L161.867 200.84L160.436 204.169L157.935 206.087V206.602L154.173 207.762L140.256 213.381L138.509 214.847L137.191 217.723L137.05 220.89L136.482 223.553L135.406 225.734L133.684 227.85L129.62 232.098L113.108 246.32L105.94 248.949L98.0393 249L96.4438 239.354L97.5267 235.335L96.9628 233.256L90.7817 229.099L89.4554 223.314L90.2862 220.336L92.6719 217.01L96.9671 214.156L97.4434 207.975L93.1482 206.072L87.4221 207.021L84.56 210.352L80.7411 213.679L80.7732 213.892L80.2349 214.077L79.7138 219.308L78.7548 227.492L77.17 231.44L70.1303 236.5L70.0812 235.604L68.2187 231.115L65.6984 227.926L59.7586 219.206L54.1884 209.826L44.4105 188.4L38.7398 173.937L37.1935 168.618L38.1824 164.216L38.0692 161.607L29.6156 151.107L26.0765 145.416L23.9235 136.681L23.569 127.899L20.4293 121.954L16.2751 118.953L13.6929 110.444L13.0585 104.55L8.1226 99.4464L2.18924 95.1299L0 85.735H0.674929L3.66938 85.0922L5.95046 79.6392L5.36096 76.436L5.72832 73.0092L8.12047 69.012L10.3503 66.7814L12.1615 66.0833L24.9124 61.935L37.3345 57.5973L39.9936 52.6231L39.9295 50.499L46.5891 32.3478L49.8889 25.1899L55.7839 19.9583L57.1786 18.7684L60.2413 16.8167L62.0654 16.1335L65.3182 13.9795L72.6506 3.39269L90.3033 0L92.3281 0.253322L92.783 2.93723L94.7352 8.7372L95.5425 10.408L97.469 12.3598L102.029 16.64L105.269 18.2598L107.119 19.0217L118.135 35.7192Z" stroke="black" stroke-opacity="0.2" stroke-width="4" mask="url(#path-1-inside-1_8892_6810)"/>
<path d="M118.135 35.7192L122.008 42.7388L128.182 41.3723L127.411 46.2868V53.8363L133.712 57.6994L133.392 69.5398L134.191 70.9659L139.079 79.2519L141.621 82.453L151.845 87.1845L160.912 93.3654L172.843 100.023L180 104.78L179.524 112.387L176.66 115.716L171.888 116.667L165.147 117.131L164.656 117.81L161.085 125.79L155.777 137.769L151.369 138.541L150.414 143.298L148.981 150.907L151.884 150.45L156.617 152.81L162.343 156.139L166.64 163.273L168.069 169.931L168.548 180.867L165.207 185.147L161.39 188.951L163.298 195.134L161.867 200.84L160.436 204.169L157.935 206.087V206.602L154.173 207.762L140.256 213.381L138.509 214.847L137.191 217.723L137.05 220.89L136.482 223.553L135.406 225.734L133.684 227.85L129.62 232.098L113.108 246.32L105.94 248.949L98.0393 249L96.4438 239.354L97.5267 235.335L96.9628 233.256L90.7817 229.099L89.4554 223.314L90.2862 220.336L92.6719 217.01L96.9671 214.156L97.4434 207.975L93.1482 206.072L87.4221 207.021L84.56 210.352L80.7411 213.679L80.7732 213.892L80.2349 214.077L79.7138 219.308L78.7548 227.492L77.17 231.44L70.1303 236.5L70.0812 235.604L68.2187 231.115L65.6984 227.926L59.7586 219.206L54.1884 209.826L44.4105 188.4L38.7398 173.937L37.1935 168.618L38.1824 164.216L38.0692 161.607L29.6156 151.107L26.0765 145.416L23.9235 136.681L23.569 127.899L20.4293 121.954L16.2751 118.953L13.6929 110.444L13.0585 104.55L8.1226 99.4464L2.18924 95.1299L0 85.735H0.674929L3.66938 85.0922L5.95046 79.6392L5.36096 76.436L5.72832 73.0092L8.12047 69.012L10.3503 66.7814L12.1615 66.0833L24.9124 61.935L37.3345 57.5973L39.9936 52.6231L39.9295 50.499L46.5891 32.3478L49.8889 25.1899L55.7839 19.9583L57.1786 18.7684L60.2413 16.8167L62.0654 16.1335L65.3182 13.9795L72.6506 3.39269L90.3033 0L92.3281 0.253322L92.783 2.93723L94.7352 8.7372L95.5425 10.408L97.469 12.3598L102.029 16.64L105.269 18.2598L107.119 19.0217L118.135 35.7192Z" stroke="black" stroke-opacity="0.2" stroke-width="4" mask="url(#path-1-inside-1_8892_6810)"/>
<path d="M118.135 35.7192L122.008 42.7388L128.182 41.3723L127.411 46.2868V53.8363L133.712 57.6994L133.392 69.5398L134.191 70.9659L139.079 79.2519L141.621 82.453L151.845 87.1845L160.912 93.3654L172.843 100.023L180 104.78L179.524 112.387L176.66 115.716L171.888 116.667L165.147 117.131L164.656 117.81L161.085 125.79L155.777 137.769L151.369 138.541L150.414 143.298L148.981 150.907L151.884 150.45L156.617 152.81L162.343 156.139L166.64 163.273L168.069 169.931L168.548 180.867L165.207 185.147L161.39 188.951L163.298 195.134L161.867 200.84L160.436 204.169L157.935 206.087V206.602L154.173 207.762L140.256 213.381L138.509 214.847L137.191 217.723L137.05 220.89L136.482 223.553L135.406 225.734L133.684 227.85L129.62 232.098L113.108 246.32L105.94 248.949L98.0393 249L96.4438 239.354L97.5267 235.335L96.9628 233.256L90.7817 229.099L89.4554 223.314L90.2862 220.336L92.6719 217.01L96.9671 214.156L97.4434 207.975L93.1482 206.072L87.4221 207.021L84.56 210.352L80.7411 213.679L80.7732 213.892L80.2349 214.077L79.7138 219.308L78.7548 227.492L77.17 231.44L70.1303 236.5L70.0812 235.604L68.2187 231.115L65.6984 227.926L59.7586 219.206L54.1884 209.826L44.4105 188.4L38.7398 173.937L37.1935 168.618L38.1824 164.216L38.0692 161.607L29.6156 151.107L26.0765 145.416L23.9235 136.681L23.569 127.899L20.4293 121.954L16.2751 118.953L13.6929 110.444L13.0585 104.55L8.1226 99.4464L2.18924 95.1299L0 85.735H0.674929L3.66938 85.0922L5.95046 79.6392L5.36096 76.436L5.72832 73.0092L8.12047 69.012L10.3503 66.7814L12.1615 66.0833L24.9124 61.935L37.3345 57.5973L39.9936 52.6231L39.9295 50.499L46.5891 32.3478L49.8889 25.1899L55.7839 19.9583L57.1786 18.7684L60.2413 16.8167L62.0654 16.1335L65.3182 13.9795L72.6506 3.39269L90.3033 0L92.3281 0.253322L92.783 2.93723L94.7352 8.7372L95.5425 10.408L97.469 12.3598L102.029 16.64L105.269 18.2598L107.119 19.0217L118.135 35.7192Z" stroke="black" stroke-opacity="0.2" stroke-width="4" mask="url(#path-1-inside-1_8892_6810)"/>
<path d="M118.135 35.7192L122.008 42.7388L128.182 41.3723L127.411 46.2868V53.8363L133.712 57.6994L133.392 69.5398L134.191 70.9659L139.079 79.2519L141.621 82.453L151.845 87.1845L160.912 93.3654L172.843 100.023L180 104.78L179.524 112.387L176.66 115.716L171.888 116.667L165.147 117.131L164.656 117.81L161.085 125.79L155.777 137.769L151.369 138.541L150.414 143.298L148.981 150.907L151.884 150.45L156.617 152.81L162.343 156.139L166.64 163.273L168.069 169.931L168.548 180.867L165.207 185.147L161.39 188.951L163.298 195.134L161.867 200.84L160.436 204.169L157.935 206.087V206.602L154.173 207.762L140.256 213.381L138.509 214.847L137.191 217.723L137.05 220.89L136.482 223.553L135.406 225.734L133.684 227.85L129.62 232.098L113.108 246.32L105.94 248.949L98.0393 249L96.4438 239.354L97.5267 235.335L96.9628 233.256L90.7817 229.099L89.4554 223.314L90.2862 220.336L92.6719 217.01L96.9671 214.156L97.4434 207.975L93.1482 206.072L87.4221 207.021L84.56 210.352L80.7411 213.679L80.7732 213.892L80.2349 214.077L79.7138 219.308L78.7548 227.492L77.17 231.44L70.1303 236.5L70.0812 235.604L68.2187 231.115L65.6984 227.926L59.7586 219.206L54.1884 209.826L44.4105 188.4L38.7398 173.937L37.1935 168.618L38.1824 164.216L38.0692 161.607L29.6156 151.107L26.0765 145.416L23.9235 136.681L23.569 127.899L20.4293 121.954L16.2751 118.953L13.6929 110.444L13.0585 104.55L8.1226 99.4464L2.18924 95.1299L0 85.735H0.674929L3.66938 85.0922L5.95046 79.6392L5.36096 76.436L5.72832 73.0092L8.12047 69.012L10.3503 66.7814L12.1615 66.0833L24.9124 61.935L37.3345 57.5973L39.9936 52.6231L39.9295 50.499L46.5891 32.3478L49.8889 25.1899L55.7839 19.9583L57.1786 18.7684L60.2413 16.8167L62.0654 16.1335L65.3182 13.9795L72.6506 3.39269L90.3033 0L92.3281 0.253322L92.783 2.93723L94.7352 8.7372L95.5425 10.408L97.469 12.3598L102.029 16.64L105.269 18.2598L107.119 19.0217L118.135 35.7192Z" stroke="black" stroke-opacity="0.2" stroke-width="4" mask="url(#path-1-inside-1_8892_6810)"/>
<path d="M118.135 35.7192L122.008 42.7388L128.182 41.3723L127.411 46.2868V53.8363L133.712 57.6994L133.392 69.5398L134.191 70.9659L139.079 79.2519L141.621 82.453L151.845 87.1845L160.912 93.3654L172.843 100.023L180 104.78L179.524 112.387L176.66 115.716L171.888 116.667L165.147 117.131L164.656 117.81L161.085 125.79L155.777 137.769L151.369 138.541L150.414 143.298L148.981 150.907L151.884 150.45L156.617 152.81L162.343 156.139L166.64 163.273L168.069 169.931L168.548 180.867L165.207 185.147L161.39 188.951L163.298 195.134L161.867 200.84L160.436 204.169L157.935 206.087V206.602L154.173 207.762L140.256 213.381L138.509 214.847L137.191 217.723L137.05 220.89L136.482 223.553L135.406 225.734L133.684 227.85L129.62 232.098L113.108 246.32L105.94 248.949L98.0393 249L96.4438 239.354L97.5267 235.335L96.9628 233.256L90.7817 229.099L89.4554 223.314L90.2862 220.336L92.6719 217.01L96.9671 214.156L97.4434 207.975L93.1482 206.072L87.4221 207.021L84.56 210.352L80.7411 213.679L80.7732 213.892L80.2349 214.077L79.7138 219.308L78.7548 227.492L77.17 231.44L70.1303 236.5L70.0812 235.604L68.2187 231.115L65.6984 227.926L59.7586 219.206L54.1884 209.826L44.4105 188.4L38.7398 173.937L37.1935 168.618L38.1824 164.216L38.0692 161.607L29.6156 151.107L26.0765 145.416L23.9235 136.681L23.569 127.899L20.4293 121.954L16.2751 118.953L13.6929 110.444L13.0585 104.55L8.1226 99.4464L2.18924 95.1299L0 85.735H0.674929L3.66938 85.0922L5.95046 79.6392L5.36096 76.436L5.72832 73.0092L8.12047 69.012L10.3503 66.7814L12.1615 66.0833L24.9124 61.935L37.3345 57.5973L39.9936 52.6231L39.9295 50.499L46.5891 32.3478L49.8889 25.1899L55.7839 19.9583L57.1786 18.7684L60.2413 16.8167L62.0654 16.1335L65.3182 13.9795L72.6506 3.39269L90.3033 0L92.3281 0.253322L92.783 2.93723L94.7352 8.7372L95.5425 10.408L97.469 12.3598L102.029 16.64L105.269 18.2598L107.119 19.0217L118.135 35.7192Z" stroke="black" stroke-opacity="0.2" stroke-width="4" mask="url(#path-1-inside-1_8892_6810)"/>
</svg>
