<svg width="220" height="249" viewBox="0 0 220 249" fill="none" xmlns="http://www.w3.org/2000/svg">
<rect width="220" height="249" fill="white"/>
<path d="M126.365 204.909L119.737 203.581L110.7 202.794L102.351 197.955L100.557 200.073L97.9692 198.132L90.1069 199.341L77.4083 204.188L67.1265 204.792L53.8243 210.244L48.9851 215.695L42.7171 219L42.1405 218.425L41.0499 216.259L39.315 208.376L36.8955 204.188L38.1025 193.282L36.2892 182.989L31.4501 173.902L36.2892 166.029L39.3124 161.182L42.9417 154.522V149.011L41.2095 146.416L35.9807 139.417L33.9563 134.873L32.6084 130.376L25.6772 110.939L19.0978 97.9619L20.0803 95.1319L24.1698 94.5247L25.7178 92.6758L19.604 82.9518L16.0179 81.5692L13.6444 80.6531L11.6064 76.2153L10.5617 73.0951L7.73889 53.8777L7.35458 51.0204L7 47.3608L9.29513 36.6419L12.3263 29.8511L14.5889 29L17.6878 30.7702L20.1019 35.216L49.2802 56.6048L50.3601 56.8027L57.7568 55.7942L68.0332 52.7635L69.9196 46.0297L71.7302 48.3286L78.001 52.9804L91.3168 53.3708L104.551 53.7286L108.311 52.2025L116.479 51.8093L127.735 55.9516L131.77 58.0796L149.614 69.6767L174.708 82.3691L188.895 87.3272L195.664 91.6645L202.276 98.1436L203.559 100.15L206.674 106.027L210.844 114.067L211.613 116.534L212 119.397L211.724 134.543L210.844 139.021L207.778 149.038L205.837 152.695L203.272 154.21L201.345 155.576L192.984 164.411L191.734 166.507L190.979 169.901L189.277 172.275L183.084 175.114L176.25 178.377L166.967 183.262L163.72 186.99L162.613 189.893L163.365 192.355L165.241 195.754L165.403 200.392L164.824 203.198L158.182 204.616L150.125 206.069L140.036 204.982L135.895 202.455L132.236 201.184L129.716 201.431L126.365 204.909Z" fill="#E9ECF2" stroke="#8F959D" stroke-width="2"/>
</svg>
