<svg width="220" height="204" viewBox="0 0 220 204" fill="none" xmlns="http://www.w3.org/2000/svg">
<path d="M66.462 25.7842L67.9555 20.4501L68.6808 21.3713L68.7634 21.4762L68.8706 21.5558L75.6002 26.5504L75.8526 26.7378L76.1669 26.747L90.457 27.1661L90.4592 27.1661L104.662 27.5504L104.871 27.5561L105.065 27.4772L108.942 25.9028L117.334 25.4986L129.161 29.853L133.393 32.0854L152.504 44.5123L152.549 44.5418L152.597 44.5662L179.528 58.1938L179.587 58.2237L179.649 58.2455L194.764 63.5302L201.842 68.0682L208.783 74.8728L210.076 76.8964L213.396 83.1628L213.4 83.1707L217.831 91.7172L218.605 94.2012L218.999 97.116L218.705 113.213L217.788 117.885L214.541 128.498L212.635 132.091L210.124 133.575L210.088 133.596L210.054 133.62L207.986 135.087L207.906 135.144L207.839 135.216L198.867 144.701L198.791 144.782L198.734 144.876L197.392 147.126L197.31 147.265L197.275 147.422L196.509 150.866L194.956 153.034L188.552 155.971L188.544 155.974L188.537 155.978L181.204 159.482L181.186 159.49L181.169 159.499L171.206 164.744L171.041 164.831L170.918 164.972L167.433 168.974L167.316 169.109L167.252 169.275L166.065 172.393L165.942 172.713L166.043 173.041L166.85 175.684L166.881 175.783L166.931 175.874L168.828 179.315L168.99 183.937L168.525 186.192L162.051 187.575L153.562 189.107L143.1 187.979L138.847 185.383L138.755 185.327L138.654 185.292L134.727 183.927L134.52 183.855L134.302 183.876L131.598 184.141L131.23 184.177L130.975 184.443L127.759 187.782L121.183 186.464L121.128 186.453L121.073 186.448L111.597 185.623L102.829 180.54L102.106 180.12L101.565 180.758L100.248 182.312L98.2258 180.794L97.8893 180.542L97.4735 180.606L89.0359 181.904L88.9306 181.92L88.8311 181.958L75.3474 187.107L64.4673 187.747L64.3008 187.757L64.1466 187.82L49.8711 193.673L49.6565 193.761L49.5025 193.935L44.4299 199.652L38.5221 202.768L37.491 200.72L35.6562 192.378L35.6229 192.227L35.5455 192.093L33.113 187.88L34.3722 176.497L34.388 176.355L34.3632 176.213L32.4172 165.162L32.3897 165.006L32.3151 164.865L27.3909 155.614L32.281 147.655L32.2844 147.65L35.5253 142.451L35.5408 142.426L35.5549 142.4L39.4498 135.249L39.5716 135.025V134.771V128.853V128.55L39.4034 128.298L37.5445 125.513L37.5298 125.491L37.514 125.47L31.9693 118.044L29.8683 113.326L28.4402 108.559L28.4328 108.534L28.4242 108.51L20.9858 87.6409L20.9645 87.5812L20.9358 87.5246L14.067 73.97L14.7835 71.9049L18.573 71.3419L18.949 71.2861L19.193 70.9946L20.8543 69.0095L21.3212 68.4516L20.9341 67.8356L14.3729 57.3951L14.1961 57.1138L13.8861 56.9942L10.038 55.5099L10.0376 55.5098L7.86987 54.6726L5.87475 50.326L4.79882 47.1111L1.78323 26.5716L1.37408 23.5281L1.01028 19.7715L3.41899 8.51672L6.45915 1.70265L8.0563 1.10156L10.7266 2.62773L13.1817 7.15101L13.2886 7.34788L13.4692 7.48036L44.7824 30.4452L44.9676 30.5811L45.1935 30.6225L46.3524 30.8349L46.5096 30.8637L46.6679 30.8422L54.6059 29.7594L54.681 29.7491L54.7537 29.7277L65.782 26.4736L66.3128 26.317L66.462 25.7842Z" fill="#E9ECF2"/>
<path d="M66.462 25.7842L67.9555 20.4501L68.6808 21.3713L68.7634 21.4762L68.8706 21.5558L75.6002 26.5504L75.8526 26.7378L76.1669 26.747L90.457 27.1661L90.4592 27.1661L104.662 27.5504L104.871 27.5561L105.065 27.4772L108.942 25.9028L117.334 25.4986L129.161 29.853L133.393 32.0854L152.504 44.5123L152.549 44.5418L152.597 44.5662L179.528 58.1938L179.587 58.2237L179.649 58.2455L194.764 63.5302L201.842 68.0682L208.783 74.8728L210.076 76.8964L213.396 83.1628L213.4 83.1707L217.831 91.7172L218.605 94.2012L218.999 97.116L218.705 113.213L217.788 117.885L214.541 128.498L212.635 132.091L210.124 133.575L210.088 133.596L210.054 133.62L207.986 135.087L207.906 135.144L207.839 135.216L198.867 144.701L198.791 144.782L198.734 144.876L197.392 147.126L197.31 147.265L197.275 147.422L196.509 150.866L194.956 153.034L188.552 155.971L188.544 155.974L188.537 155.978L181.204 159.482L181.186 159.49L181.169 159.499L171.206 164.744L171.041 164.831L170.918 164.972L167.433 168.974L167.316 169.109L167.252 169.275L166.065 172.393L165.942 172.713L166.043 173.041L166.85 175.684L166.881 175.783L166.931 175.874L168.828 179.315L168.99 183.937L168.525 186.192L162.051 187.575L153.562 189.107L143.1 187.979L138.847 185.383L138.755 185.327L138.654 185.292L134.727 183.927L134.52 183.855L134.302 183.876L131.598 184.141L131.23 184.177L130.975 184.443L127.759 187.782L121.183 186.464L121.128 186.453L121.073 186.448L111.597 185.623L102.829 180.54L102.106 180.12L101.565 180.758L100.248 182.312L98.2258 180.794L97.8893 180.542L97.4735 180.606L89.0359 181.904L88.9306 181.92L88.8311 181.958L75.3474 187.107L64.4673 187.747L64.3008 187.757L64.1466 187.82L49.8711 193.673L49.6565 193.761L49.5025 193.935L44.4299 199.652L38.5221 202.768L37.491 200.72L35.6562 192.378L35.6229 192.227L35.5455 192.093L33.113 187.88L34.3722 176.497L34.388 176.355L34.3632 176.213L32.4172 165.162L32.3897 165.006L32.3151 164.865L27.3909 155.614L32.281 147.655L32.2844 147.65L35.5253 142.451L35.5408 142.426L35.5549 142.4L39.4498 135.249L39.5716 135.025V134.771V128.853V128.55L39.4034 128.298L37.5445 125.513L37.5298 125.491L37.514 125.47L31.9693 118.044L29.8683 113.326L28.4402 108.559L28.4328 108.534L28.4242 108.51L20.9858 87.6409L20.9645 87.5812L20.9358 87.5246L14.067 73.97L14.7835 71.9049L18.573 71.3419L18.949 71.2861L19.193 70.9946L20.8543 69.0095L21.3212 68.4516L20.9341 67.8356L14.3729 57.3951L14.1961 57.1138L13.8861 56.9942L10.038 55.5099L10.0376 55.5098L7.86987 54.6726L5.87475 50.326L4.79882 47.1111L1.78323 26.5716L1.37408 23.5281L1.01028 19.7715L3.41899 8.51672L6.45915 1.70265L8.0563 1.10156L10.7266 2.62773L13.1817 7.15101L13.2886 7.34788L13.4692 7.48036L44.7824 30.4452L44.9676 30.5811L45.1935 30.6225L46.3524 30.8349L46.5096 30.8637L46.6679 30.8422L54.6059 29.7594L54.681 29.7491L54.7537 29.7277L65.782 26.4736L66.3128 26.317L66.462 25.7842Z" stroke="#8F959D" stroke-width="2"/>
<path d="M66.462 25.7842L67.9555 20.4501L68.6808 21.3713L68.7634 21.4762L68.8706 21.5558L75.6002 26.5504L75.8526 26.7378L76.1669 26.747L90.457 27.1661L90.4592 27.1661L104.662 27.5504L104.871 27.5561L105.065 27.4772L108.942 25.9028L117.334 25.4986L129.161 29.853L133.393 32.0854L152.504 44.5123L152.549 44.5418L152.597 44.5662L179.528 58.1938L179.587 58.2237L179.649 58.2455L194.764 63.5302L201.842 68.0682L208.783 74.8728L210.076 76.8964L213.396 83.1628L213.4 83.1707L217.831 91.7172L218.605 94.2012L218.999 97.116L218.705 113.213L217.788 117.885L214.541 128.498L212.635 132.091L210.124 133.575L210.088 133.596L210.054 133.62L207.986 135.087L207.906 135.144L207.839 135.216L198.867 144.701L198.791 144.782L198.734 144.876L197.392 147.126L197.31 147.265L197.275 147.422L196.509 150.866L194.956 153.034L188.552 155.971L188.544 155.974L188.537 155.978L181.204 159.482L181.186 159.49L181.169 159.499L171.206 164.744L171.041 164.831L170.918 164.972L167.433 168.974L167.316 169.109L167.252 169.275L166.065 172.393L165.942 172.713L166.043 173.041L166.85 175.684L166.881 175.783L166.931 175.874L168.828 179.315L168.99 183.937L168.525 186.192L162.051 187.575L153.562 189.107L143.1 187.979L138.847 185.383L138.755 185.327L138.654 185.292L134.727 183.927L134.52 183.855L134.302 183.876L131.598 184.141L131.23 184.177L130.975 184.443L127.759 187.782L121.183 186.464L121.128 186.453L121.073 186.448L111.597 185.623L102.829 180.54L102.106 180.12L101.565 180.758L100.248 182.312L98.2258 180.794L97.8893 180.542L97.4735 180.606L89.0359 181.904L88.9306 181.92L88.8311 181.958L75.3474 187.107L64.4673 187.747L64.3008 187.757L64.1466 187.82L49.8711 193.673L49.6565 193.761L49.5025 193.935L44.4299 199.652L38.5221 202.768L37.491 200.72L35.6562 192.378L35.6229 192.227L35.5455 192.093L33.113 187.88L34.3722 176.497L34.388 176.355L34.3632 176.213L32.4172 165.162L32.3897 165.006L32.3151 164.865L27.3909 155.614L32.281 147.655L32.2844 147.65L35.5253 142.451L35.5408 142.426L35.5549 142.4L39.4498 135.249L39.5716 135.025V134.771V128.853V128.55L39.4034 128.298L37.5445 125.513L37.5298 125.491L37.514 125.47L31.9693 118.044L29.8683 113.326L28.4402 108.559L28.4328 108.534L28.4242 108.51L20.9858 87.6409L20.9645 87.5812L20.9358 87.5246L14.067 73.97L14.7835 71.9049L18.573 71.3419L18.949 71.2861L19.193 70.9946L20.8543 69.0095L21.3212 68.4516L20.9341 67.8356L14.3729 57.3951L14.1961 57.1138L13.8861 56.9942L10.038 55.5099L10.0376 55.5098L7.86987 54.6726L5.87475 50.326L4.79882 47.1111L1.78323 26.5716L1.37408 23.5281L1.01028 19.7715L3.41899 8.51672L6.45915 1.70265L8.0563 1.10156L10.7266 2.62773L13.1817 7.15101L13.2886 7.34788L13.4692 7.48036L44.7824 30.4452L44.9676 30.5811L45.1935 30.6225L46.3524 30.8349L46.5096 30.8637L46.6679 30.8422L54.6059 29.7594L54.681 29.7491L54.7537 29.7277L65.782 26.4736L66.3128 26.317L66.462 25.7842Z" stroke="black" stroke-opacity="0.2" stroke-width="2"/>
<path d="M66.462 25.7842L67.9555 20.4501L68.6808 21.3713L68.7634 21.4762L68.8706 21.5558L75.6002 26.5504L75.8526 26.7378L76.1669 26.747L90.457 27.1661L90.4592 27.1661L104.662 27.5504L104.871 27.5561L105.065 27.4772L108.942 25.9028L117.334 25.4986L129.161 29.853L133.393 32.0854L152.504 44.5123L152.549 44.5418L152.597 44.5662L179.528 58.1938L179.587 58.2237L179.649 58.2455L194.764 63.5302L201.842 68.0682L208.783 74.8728L210.076 76.8964L213.396 83.1628L213.4 83.1707L217.831 91.7172L218.605 94.2012L218.999 97.116L218.705 113.213L217.788 117.885L214.541 128.498L212.635 132.091L210.124 133.575L210.088 133.596L210.054 133.62L207.986 135.087L207.906 135.144L207.839 135.216L198.867 144.701L198.791 144.782L198.734 144.876L197.392 147.126L197.31 147.265L197.275 147.422L196.509 150.866L194.956 153.034L188.552 155.971L188.544 155.974L188.537 155.978L181.204 159.482L181.186 159.49L181.169 159.499L171.206 164.744L171.041 164.831L170.918 164.972L167.433 168.974L167.316 169.109L167.252 169.275L166.065 172.393L165.942 172.713L166.043 173.041L166.85 175.684L166.881 175.783L166.931 175.874L168.828 179.315L168.99 183.937L168.525 186.192L162.051 187.575L153.562 189.107L143.1 187.979L138.847 185.383L138.755 185.327L138.654 185.292L134.727 183.927L134.52 183.855L134.302 183.876L131.598 184.141L131.23 184.177L130.975 184.443L127.759 187.782L121.183 186.464L121.128 186.453L121.073 186.448L111.597 185.623L102.829 180.54L102.106 180.12L101.565 180.758L100.248 182.312L98.2258 180.794L97.8893 180.542L97.4735 180.606L89.0359 181.904L88.9306 181.92L88.8311 181.958L75.3474 187.107L64.4673 187.747L64.3008 187.757L64.1466 187.82L49.8711 193.673L49.6565 193.761L49.5025 193.935L44.4299 199.652L38.5221 202.768L37.491 200.72L35.6562 192.378L35.6229 192.227L35.5455 192.093L33.113 187.88L34.3722 176.497L34.388 176.355L34.3632 176.213L32.4172 165.162L32.3897 165.006L32.3151 164.865L27.3909 155.614L32.281 147.655L32.2844 147.65L35.5253 142.451L35.5408 142.426L35.5549 142.4L39.4498 135.249L39.5716 135.025V134.771V128.853V128.55L39.4034 128.298L37.5445 125.513L37.5298 125.491L37.514 125.47L31.9693 118.044L29.8683 113.326L28.4402 108.559L28.4328 108.534L28.4242 108.51L20.9858 87.6409L20.9645 87.5812L20.9358 87.5246L14.067 73.97L14.7835 71.9049L18.573 71.3419L18.949 71.2861L19.193 70.9946L20.8543 69.0095L21.3212 68.4516L20.9341 67.8356L14.3729 57.3951L14.1961 57.1138L13.8861 56.9942L10.038 55.5099L10.0376 55.5098L7.86987 54.6726L5.87475 50.326L4.79882 47.1111L1.78323 26.5716L1.37408 23.5281L1.01028 19.7715L3.41899 8.51672L6.45915 1.70265L8.0563 1.10156L10.7266 2.62773L13.1817 7.15101L13.2886 7.34788L13.4692 7.48036L44.7824 30.4452L44.9676 30.5811L45.1935 30.6225L46.3524 30.8349L46.5096 30.8637L46.6679 30.8422L54.6059 29.7594L54.681 29.7491L54.7537 29.7277L65.782 26.4736L66.3128 26.317L66.462 25.7842Z" stroke="black" stroke-opacity="0.2" stroke-width="2"/>
<path d="M66.462 25.7842L67.9555 20.4501L68.6808 21.3713L68.7634 21.4762L68.8706 21.5558L75.6002 26.5504L75.8526 26.7378L76.1669 26.747L90.457 27.1661L90.4592 27.1661L104.662 27.5504L104.871 27.5561L105.065 27.4772L108.942 25.9028L117.334 25.4986L129.161 29.853L133.393 32.0854L152.504 44.5123L152.549 44.5418L152.597 44.5662L179.528 58.1938L179.587 58.2237L179.649 58.2455L194.764 63.5302L201.842 68.0682L208.783 74.8728L210.076 76.8964L213.396 83.1628L213.4 83.1707L217.831 91.7172L218.605 94.2012L218.999 97.116L218.705 113.213L217.788 117.885L214.541 128.498L212.635 132.091L210.124 133.575L210.088 133.596L210.054 133.62L207.986 135.087L207.906 135.144L207.839 135.216L198.867 144.701L198.791 144.782L198.734 144.876L197.392 147.126L197.31 147.265L197.275 147.422L196.509 150.866L194.956 153.034L188.552 155.971L188.544 155.974L188.537 155.978L181.204 159.482L181.186 159.49L181.169 159.499L171.206 164.744L171.041 164.831L170.918 164.972L167.433 168.974L167.316 169.109L167.252 169.275L166.065 172.393L165.942 172.713L166.043 173.041L166.85 175.684L166.881 175.783L166.931 175.874L168.828 179.315L168.99 183.937L168.525 186.192L162.051 187.575L153.562 189.107L143.1 187.979L138.847 185.383L138.755 185.327L138.654 185.292L134.727 183.927L134.52 183.855L134.302 183.876L131.598 184.141L131.23 184.177L130.975 184.443L127.759 187.782L121.183 186.464L121.128 186.453L121.073 186.448L111.597 185.623L102.829 180.54L102.106 180.12L101.565 180.758L100.248 182.312L98.2258 180.794L97.8893 180.542L97.4735 180.606L89.0359 181.904L88.9306 181.92L88.8311 181.958L75.3474 187.107L64.4673 187.747L64.3008 187.757L64.1466 187.82L49.8711 193.673L49.6565 193.761L49.5025 193.935L44.4299 199.652L38.5221 202.768L37.491 200.72L35.6562 192.378L35.6229 192.227L35.5455 192.093L33.113 187.88L34.3722 176.497L34.388 176.355L34.3632 176.213L32.4172 165.162L32.3897 165.006L32.3151 164.865L27.3909 155.614L32.281 147.655L32.2844 147.65L35.5253 142.451L35.5408 142.426L35.5549 142.4L39.4498 135.249L39.5716 135.025V134.771V128.853V128.55L39.4034 128.298L37.5445 125.513L37.5298 125.491L37.514 125.47L31.9693 118.044L29.8683 113.326L28.4402 108.559L28.4328 108.534L28.4242 108.51L20.9858 87.6409L20.9645 87.5812L20.9358 87.5246L14.067 73.97L14.7835 71.9049L18.573 71.3419L18.949 71.2861L19.193 70.9946L20.8543 69.0095L21.3212 68.4516L20.9341 67.8356L14.3729 57.3951L14.1961 57.1138L13.8861 56.9942L10.038 55.5099L10.0376 55.5098L7.86987 54.6726L5.87475 50.326L4.79882 47.1111L1.78323 26.5716L1.37408 23.5281L1.01028 19.7715L3.41899 8.51672L6.45915 1.70265L8.0563 1.10156L10.7266 2.62773L13.1817 7.15101L13.2886 7.34788L13.4692 7.48036L44.7824 30.4452L44.9676 30.5811L45.1935 30.6225L46.3524 30.8349L46.5096 30.8637L46.6679 30.8422L54.6059 29.7594L54.681 29.7491L54.7537 29.7277L65.782 26.4736L66.3128 26.317L66.462 25.7842Z" stroke="black" stroke-opacity="0.2" stroke-width="2"/>
<path d="M66.462 25.7842L67.9555 20.4501L68.6808 21.3713L68.7634 21.4762L68.8706 21.5558L75.6002 26.5504L75.8526 26.7378L76.1669 26.747L90.457 27.1661L90.4592 27.1661L104.662 27.5504L104.871 27.5561L105.065 27.4772L108.942 25.9028L117.334 25.4986L129.161 29.853L133.393 32.0854L152.504 44.5123L152.549 44.5418L152.597 44.5662L179.528 58.1938L179.587 58.2237L179.649 58.2455L194.764 63.5302L201.842 68.0682L208.783 74.8728L210.076 76.8964L213.396 83.1628L213.4 83.1707L217.831 91.7172L218.605 94.2012L218.999 97.116L218.705 113.213L217.788 117.885L214.541 128.498L212.635 132.091L210.124 133.575L210.088 133.596L210.054 133.62L207.986 135.087L207.906 135.144L207.839 135.216L198.867 144.701L198.791 144.782L198.734 144.876L197.392 147.126L197.31 147.265L197.275 147.422L196.509 150.866L194.956 153.034L188.552 155.971L188.544 155.974L188.537 155.978L181.204 159.482L181.186 159.49L181.169 159.499L171.206 164.744L171.041 164.831L170.918 164.972L167.433 168.974L167.316 169.109L167.252 169.275L166.065 172.393L165.942 172.713L166.043 173.041L166.85 175.684L166.881 175.783L166.931 175.874L168.828 179.315L168.99 183.937L168.525 186.192L162.051 187.575L153.562 189.107L143.1 187.979L138.847 185.383L138.755 185.327L138.654 185.292L134.727 183.927L134.52 183.855L134.302 183.876L131.598 184.141L131.23 184.177L130.975 184.443L127.759 187.782L121.183 186.464L121.128 186.453L121.073 186.448L111.597 185.623L102.829 180.54L102.106 180.12L101.565 180.758L100.248 182.312L98.2258 180.794L97.8893 180.542L97.4735 180.606L89.0359 181.904L88.9306 181.92L88.8311 181.958L75.3474 187.107L64.4673 187.747L64.3008 187.757L64.1466 187.82L49.8711 193.673L49.6565 193.761L49.5025 193.935L44.4299 199.652L38.5221 202.768L37.491 200.72L35.6562 192.378L35.6229 192.227L35.5455 192.093L33.113 187.88L34.3722 176.497L34.388 176.355L34.3632 176.213L32.4172 165.162L32.3897 165.006L32.3151 164.865L27.3909 155.614L32.281 147.655L32.2844 147.65L35.5253 142.451L35.5408 142.426L35.5549 142.4L39.4498 135.249L39.5716 135.025V134.771V128.853V128.55L39.4034 128.298L37.5445 125.513L37.5298 125.491L37.514 125.47L31.9693 118.044L29.8683 113.326L28.4402 108.559L28.4328 108.534L28.4242 108.51L20.9858 87.6409L20.9645 87.5812L20.9358 87.5246L14.067 73.97L14.7835 71.9049L18.573 71.3419L18.949 71.2861L19.193 70.9946L20.8543 69.0095L21.3212 68.4516L20.9341 67.8356L14.3729 57.3951L14.1961 57.1138L13.8861 56.9942L10.038 55.5099L10.0376 55.5098L7.86987 54.6726L5.87475 50.326L4.79882 47.1111L1.78323 26.5716L1.37408 23.5281L1.01028 19.7715L3.41899 8.51672L6.45915 1.70265L8.0563 1.10156L10.7266 2.62773L13.1817 7.15101L13.2886 7.34788L13.4692 7.48036L44.7824 30.4452L44.9676 30.5811L45.1935 30.6225L46.3524 30.8349L46.5096 30.8637L46.6679 30.8422L54.6059 29.7594L54.681 29.7491L54.7537 29.7277L65.782 26.4736L66.3128 26.317L66.462 25.7842Z" stroke="black" stroke-opacity="0.2" stroke-width="2"/>
<path d="M66.462 25.7842L67.9555 20.4501L68.6808 21.3713L68.7634 21.4762L68.8706 21.5558L75.6002 26.5504L75.8526 26.7378L76.1669 26.747L90.457 27.1661L90.4592 27.1661L104.662 27.5504L104.871 27.5561L105.065 27.4772L108.942 25.9028L117.334 25.4986L129.161 29.853L133.393 32.0854L152.504 44.5123L152.549 44.5418L152.597 44.5662L179.528 58.1938L179.587 58.2237L179.649 58.2455L194.764 63.5302L201.842 68.0682L208.783 74.8728L210.076 76.8964L213.396 83.1628L213.4 83.1707L217.831 91.7172L218.605 94.2012L218.999 97.116L218.705 113.213L217.788 117.885L214.541 128.498L212.635 132.091L210.124 133.575L210.088 133.596L210.054 133.62L207.986 135.087L207.906 135.144L207.839 135.216L198.867 144.701L198.791 144.782L198.734 144.876L197.392 147.126L197.31 147.265L197.275 147.422L196.509 150.866L194.956 153.034L188.552 155.971L188.544 155.974L188.537 155.978L181.204 159.482L181.186 159.49L181.169 159.499L171.206 164.744L171.041 164.831L170.918 164.972L167.433 168.974L167.316 169.109L167.252 169.275L166.065 172.393L165.942 172.713L166.043 173.041L166.85 175.684L166.881 175.783L166.931 175.874L168.828 179.315L168.99 183.937L168.525 186.192L162.051 187.575L153.562 189.107L143.1 187.979L138.847 185.383L138.755 185.327L138.654 185.292L134.727 183.927L134.52 183.855L134.302 183.876L131.598 184.141L131.23 184.177L130.975 184.443L127.759 187.782L121.183 186.464L121.128 186.453L121.073 186.448L111.597 185.623L102.829 180.54L102.106 180.12L101.565 180.758L100.248 182.312L98.2258 180.794L97.8893 180.542L97.4735 180.606L89.0359 181.904L88.9306 181.92L88.8311 181.958L75.3474 187.107L64.4673 187.747L64.3008 187.757L64.1466 187.82L49.8711 193.673L49.6565 193.761L49.5025 193.935L44.4299 199.652L38.5221 202.768L37.491 200.72L35.6562 192.378L35.6229 192.227L35.5455 192.093L33.113 187.88L34.3722 176.497L34.388 176.355L34.3632 176.213L32.4172 165.162L32.3897 165.006L32.3151 164.865L27.3909 155.614L32.281 147.655L32.2844 147.65L35.5253 142.451L35.5408 142.426L35.5549 142.4L39.4498 135.249L39.5716 135.025V134.771V128.853V128.55L39.4034 128.298L37.5445 125.513L37.5298 125.491L37.514 125.47L31.9693 118.044L29.8683 113.326L28.4402 108.559L28.4328 108.534L28.4242 108.51L20.9858 87.6409L20.9645 87.5812L20.9358 87.5246L14.067 73.97L14.7835 71.9049L18.573 71.3419L18.949 71.2861L19.193 70.9946L20.8543 69.0095L21.3212 68.4516L20.9341 67.8356L14.3729 57.3951L14.1961 57.1138L13.8861 56.9942L10.038 55.5099L10.0376 55.5098L7.86987 54.6726L5.87475 50.326L4.79882 47.1111L1.78323 26.5716L1.37408 23.5281L1.01028 19.7715L3.41899 8.51672L6.45915 1.70265L8.0563 1.10156L10.7266 2.62773L13.1817 7.15101L13.2886 7.34788L13.4692 7.48036L44.7824 30.4452L44.9676 30.5811L45.1935 30.6225L46.3524 30.8349L46.5096 30.8637L46.6679 30.8422L54.6059 29.7594L54.681 29.7491L54.7537 29.7277L65.782 26.4736L66.3128 26.317L66.462 25.7842Z" stroke="black" stroke-opacity="0.2" stroke-width="2"/>
</svg>
