<svg width="220" height="249" viewBox="0 0 220 249" fill="none" xmlns="http://www.w3.org/2000/svg">
<rect width="220" height="249" fill="white"/>
<path d="M189.377 186.178L186.921 187.308L183.762 189.527L178.771 191L174.825 189.332L173.722 189.002L170.672 188.454L167.779 187.92L166.282 187.258L163.617 185.276L162.563 183.319L161.775 182.375L159.285 180.634L157.338 179.712L155.812 179.092L151.817 176.574L146.53 172.574L143.29 169.339L141.023 166.219L139.973 165.141L135.33 162.452L133.59 161.642L129.291 160.37L127.543 159.953L125.784 159.896L124.762 159.839L123.161 159.709L121.793 159.543L118.703 158.574L117.496 157.562L115.866 155.896L114.231 154.667L113.106 153.979L111.594 153.505L107.234 151.783L96.7288 147.219L92.7989 143.797L88.1844 141.468L85.8528 140.579L78.3851 138.041L76.6448 137.626L66.8549 134.104L60.4547 128.916L58.7435 127.425L56.4107 124.218L50.1781 120.834L45.9479 119.553L41.607 118.448L39.1147 117.236L37.8866 116.535L36.7411 115.455L36.272 113.903L34.7435 111.722L33.0009 110.785L27.106 108.386L23.9874 106.97L18.6186 104.041L15.8853 102.484L10.1569 99.8413L6.47134 98.4924L5.15943 97.1996L4 95.9768L5.15478 92.9987L6.71579 88.3015L10.6167 83.3438L15.2986 80.7348L17.5523 79.6031L22.1167 78.8977L22.2249 79.2399L22.6091 79.0858L22.9175 80.5515L23.8698 81.5488L25.8231 82.0907L27.106 82.2764L31.15 83.2317L35.3954 84.3506L36.8924 88.9216L38.1659 93.0138L43.842 98.6501L45.2995 99.5412L46.8861 99.9137L48.3843 99.9336L49.4878 99.6276L50.9302 98.6851L52.1036 97.7426L53.2502 97.5254L54.0092 100.641L54.2839 104.397L54.7775 105.78L56.4642 105.741L58.2639 104.707L58.6294 100.435L60.7097 95.999L62.0099 93.1283L66.6919 90.7797L69.5532 89.4752L69.2925 92.3459L70.5927 95.999L72.6951 97.1855L79.3793 96.368L82.1533 95.0576L83.2988 94.4025L85.4232 93.3678L86.5768 93.474L88.5243 94.5706L90.8805 93.5196L92.1807 90.9105L94.261 88.3015L98.6833 87.2574L101.024 83.8647L104.144 79.6895L105.705 76.0364L105.186 72.6449L104.925 68.7302L105.966 65.3387L107.527 62.7296L109.346 61.9472L112.208 61.1635L113.02 57.8993L114.549 58.0324L117.399 58.6047L118.841 57.1063L119.924 57L121.498 57.5477L123.279 58.6362L127.619 59.1045L131.085 58.4785L133.941 57.8677L133.566 60.0937L134.217 61.5244L136.123 63.901L137.233 65.2382L138.069 65.8081L140.989 66.4983L142.278 66.4773L147.587 65.4227L152.686 67.4455L153.56 68.5059L154.868 68.4487L156.109 66.5194L156.985 63.6593L156.896 61.6225L156.226 60.478L155.708 59.3112L156.455 57.7755L157.841 57.6891L158.932 58.3594L162.955 63.4455L165.853 67.4736L165.606 75.1138L164.957 76.2326L165.143 77.4624L166.696 78.4131L167.731 78.7845L174.674 80.6507L179.45 78.4131L182.389 76.6472L182.491 75.4922L187.677 76.9392L189.493 78.4773L191.03 80.096L192.135 80.7511L193.198 80.5304L194.343 79.1967L195.116 78.5415L196.323 78.2355L197.128 78.5287L197.517 82.169L196.997 91.3029L200.118 94.956L203.239 95.7374L206.557 95.3216L206.489 98.1992L207.095 103.413L208.534 105.37L209.54 106.47L210.77 107.369L211.743 108.155L212.404 108.934L212.764 109.987L212.543 111.122L211.248 113.205L210.88 115.229L213.498 119.606L215.427 121.056L216 122.221L215.724 123.703L215.239 125.375L214.903 127.583L214.889 130.103L214.993 132.668L214.924 134.774L214.828 136.149L214.434 138.78L213.681 140.02L212.398 141.568L211.294 142.601L210.204 143.633L209.61 144.845V146.15L210.04 147.441L208.182 148.187L204.799 147.143L200.898 144.272L198.818 143.228H196.477L195.436 145.056L196.477 146.621L198.298 148.447L199.598 149.23L200.164 150.436L197.208 151.847L192.405 158.427L192.887 161.512L192.405 164.224L191.21 164.795L189.512 165.407L186.297 168.089L185.702 168.936L185.391 170.021L185.428 171.324L185.841 173.007L187.511 176.64L188.437 177.525L190.796 180.762L189.377 186.178Z" fill="#E9ECF2" stroke="#8F959D" stroke-width="2"/>
</svg>
