<svg width="220" height="139" viewBox="0 0 220 139" fill="none" xmlns="http://www.w3.org/2000/svg">
<mask id="path-1-inside-1_8895_6824" fill="white">
<path d="M192.373 133.998L189.824 135.171L186.545 137.472L181.366 139L177.271 137.27L176.126 136.927L172.961 136.359L169.959 135.805L168.406 135.119L165.641 133.063L164.546 131.032L163.728 130.053L161.144 128.247L159.125 127.291L157.541 126.648L153.395 124.036L147.908 119.887L144.546 116.531L142.194 113.294L141.105 112.176L136.286 109.387L134.48 108.546L130.019 107.227L128.205 106.795L126.38 106.735L125.319 106.676L123.657 106.542L122.238 106.369L119.032 105.364L117.779 104.315L116.088 102.586L114.391 101.312L113.224 100.598L111.654 100.106L107.129 98.3194L96.228 93.585L92.1497 90.0354L87.3612 87.6198L84.9416 86.6978L77.1921 84.0654L75.3861 83.6341L65.2267 79.9815L58.5851 74.599L56.8093 73.0532L54.3884 69.7266L47.9207 66.2158L43.5308 64.8868L39.0261 63.7407L36.4397 62.4833L35.1653 61.7564L33.9766 60.6358L33.4898 59.0258L31.9037 56.764L30.0953 55.7924L23.9779 53.3029L20.7416 51.8345L15.1702 48.7962L12.3338 47.1813L6.38919 44.4398L2.5646 43.0406L1.20319 41.6996L0 40.4312L1.19836 37.3419L2.81827 32.4694L6.86634 27.3268L11.725 24.6204L14.0637 23.4465L18.8003 22.7148L18.9126 23.0698L19.3113 22.9099L19.6314 24.4302L20.6196 25.4648L22.6466 26.0269L23.9779 26.2195L28.1745 27.2105L32.5802 28.3711L34.1336 33.1127L35.4552 37.3576L41.3455 43.2042L42.8579 44.1285L44.5045 44.5149L46.0592 44.5356L47.2044 44.2181L48.7011 43.2405L49.9188 42.2628L51.1087 42.0375L51.8963 45.2697L52.1814 49.1657L52.6936 50.6001L54.444 50.5601L56.3116 49.4868L56.6909 45.0552L58.8496 40.4542L60.199 37.4764L65.0576 35.0402L68.0269 33.687L67.7563 36.6647L69.1057 40.4542L71.2874 41.685L78.2238 40.8369L81.1025 39.4777L82.2912 38.7981L84.4958 37.7248L85.6929 37.835L87.7139 38.9725L90.159 37.8823L91.5083 35.1758L93.667 32.4694L98.2563 31.3864L100.686 27.8671L103.923 23.5361L105.543 19.7467L105.004 16.2287L104.734 12.1679L105.814 8.64981L107.434 5.94341L109.322 5.13176L112.291 4.31884L113.134 0.932845L114.72 1.07097L117.679 1.66457L119.174 0.110247L120.299 0L121.932 0.568166L123.78 1.69725L128.284 2.18305L131.88 1.53369L134.845 0.900089L134.456 3.20913L135.131 4.69321L137.108 7.15849L138.261 8.54563L139.128 9.13679L142.158 9.85277L143.496 9.83095L149.005 8.73699L154.297 10.8353L155.203 11.9353L156.561 11.8759L157.849 9.87458L158.758 6.90775L158.665 4.79495L157.971 3.60775L157.433 2.39748L158.208 0.804408L159.646 0.714792L160.778 1.41014L164.953 6.686L167.961 10.8644L167.704 18.7897L167.031 19.9503L167.224 21.2259L168.836 22.2121L169.91 22.5973L177.114 24.5332L182.071 22.2121L185.121 20.3803L185.226 19.1822L190.608 20.6832L192.492 22.2787L194.088 23.9578L195.234 24.6374L196.337 24.4084L197.526 23.0249L198.328 22.3453L199.581 22.0279L200.416 22.332L200.819 26.1081L200.28 35.5829L203.519 39.3723L206.758 40.1828L210.201 39.7515L210.131 42.7365L210.759 48.1445L212.252 50.1749L213.297 51.3161L214.572 52.2489L215.582 53.0642L216.268 53.8722L216.642 54.9637L216.412 56.1413L215.069 58.3025L214.687 60.402L217.404 64.9425L219.406 66.446L220 67.655L219.714 69.1923L219.21 70.9259L218.862 73.2168L218.848 75.8311L218.955 78.4915L218.884 80.6757L218.784 82.1028L218.375 84.831L217.594 86.1176L216.262 87.7239L215.116 88.7949L213.985 89.8658L213.369 91.1233V92.4765L213.815 93.8151L211.887 94.5892L208.376 93.5062L204.328 90.5285L202.17 89.4454H199.74L198.66 91.3414L199.74 92.9647L201.63 94.8594L202.979 95.6711L203.566 96.9225L200.499 98.386L195.515 105.211L196.015 108.412L195.515 111.225L194.274 111.817L192.513 112.452L189.176 115.234L188.559 116.113L188.236 117.239L188.274 118.589L188.703 120.335L190.436 124.104L191.397 125.022L193.845 128.38L192.373 133.998Z"/>
</mask>
<path d="M192.373 133.998L189.824 135.171L186.545 137.472L181.366 139L177.271 137.27L176.126 136.927L172.961 136.359L169.959 135.805L168.406 135.119L165.641 133.063L164.546 131.032L163.728 130.053L161.144 128.247L159.125 127.291L157.541 126.648L153.395 124.036L147.908 119.887L144.546 116.531L142.194 113.294L141.105 112.176L136.286 109.387L134.48 108.546L130.019 107.227L128.205 106.795L126.38 106.735L125.319 106.676L123.657 106.542L122.238 106.369L119.032 105.364L117.779 104.315L116.088 102.586L114.391 101.312L113.224 100.598L111.654 100.106L107.129 98.3194L96.228 93.585L92.1497 90.0354L87.3612 87.6198L84.9416 86.6978L77.1921 84.0654L75.3861 83.6341L65.2267 79.9815L58.5851 74.599L56.8093 73.0532L54.3884 69.7266L47.9207 66.2158L43.5308 64.8868L39.0261 63.7407L36.4397 62.4833L35.1653 61.7564L33.9766 60.6358L33.4898 59.0258L31.9037 56.764L30.0953 55.7924L23.9779 53.3029L20.7416 51.8345L15.1702 48.7962L12.3338 47.1813L6.38919 44.4398L2.5646 43.0406L1.20319 41.6996L0 40.4312L1.19836 37.3419L2.81827 32.4694L6.86634 27.3268L11.725 24.6204L14.0637 23.4465L18.8003 22.7148L18.9126 23.0698L19.3113 22.9099L19.6314 24.4302L20.6196 25.4648L22.6466 26.0269L23.9779 26.2195L28.1745 27.2105L32.5802 28.3711L34.1336 33.1127L35.4552 37.3576L41.3455 43.2042L42.8579 44.1285L44.5045 44.5149L46.0592 44.5356L47.2044 44.2181L48.7011 43.2405L49.9188 42.2628L51.1087 42.0375L51.8963 45.2697L52.1814 49.1657L52.6936 50.6001L54.444 50.5601L56.3116 49.4868L56.6909 45.0552L58.8496 40.4542L60.199 37.4764L65.0576 35.0402L68.0269 33.687L67.7563 36.6647L69.1057 40.4542L71.2874 41.685L78.2238 40.8369L81.1025 39.4777L82.2912 38.7981L84.4958 37.7248L85.6929 37.835L87.7139 38.9725L90.159 37.8823L91.5083 35.1758L93.667 32.4694L98.2563 31.3864L100.686 27.8671L103.923 23.5361L105.543 19.7467L105.004 16.2287L104.734 12.1679L105.814 8.64981L107.434 5.94341L109.322 5.13176L112.291 4.31884L113.134 0.932845L114.72 1.07097L117.679 1.66457L119.174 0.110247L120.299 0L121.932 0.568166L123.78 1.69725L128.284 2.18305L131.88 1.53369L134.845 0.900089L134.456 3.20913L135.131 4.69321L137.108 7.15849L138.261 8.54563L139.128 9.13679L142.158 9.85277L143.496 9.83095L149.005 8.73699L154.297 10.8353L155.203 11.9353L156.561 11.8759L157.849 9.87458L158.758 6.90775L158.665 4.79495L157.971 3.60775L157.433 2.39748L158.208 0.804408L159.646 0.714792L160.778 1.41014L164.953 6.686L167.961 10.8644L167.704 18.7897L167.031 19.9503L167.224 21.2259L168.836 22.2121L169.91 22.5973L177.114 24.5332L182.071 22.2121L185.121 20.3803L185.226 19.1822L190.608 20.6832L192.492 22.2787L194.088 23.9578L195.234 24.6374L196.337 24.4084L197.526 23.0249L198.328 22.3453L199.581 22.0279L200.416 22.332L200.819 26.1081L200.28 35.5829L203.519 39.3723L206.758 40.1828L210.201 39.7515L210.131 42.7365L210.759 48.1445L212.252 50.1749L213.297 51.3161L214.572 52.2489L215.582 53.0642L216.268 53.8722L216.642 54.9637L216.412 56.1413L215.069 58.3025L214.687 60.402L217.404 64.9425L219.406 66.446L220 67.655L219.714 69.1923L219.21 70.9259L218.862 73.2168L218.848 75.8311L218.955 78.4915L218.884 80.6757L218.784 82.1028L218.375 84.831L217.594 86.1176L216.262 87.7239L215.116 88.7949L213.985 89.8658L213.369 91.1233V92.4765L213.815 93.8151L211.887 94.5892L208.376 93.5062L204.328 90.5285L202.17 89.4454H199.74L198.66 91.3414L199.74 92.9647L201.63 94.8594L202.979 95.6711L203.566 96.9225L200.499 98.386L195.515 105.211L196.015 108.412L195.515 111.225L194.274 111.817L192.513 112.452L189.176 115.234L188.559 116.113L188.236 117.239L188.274 118.589L188.703 120.335L190.436 124.104L191.397 125.022L193.845 128.38L192.373 133.998Z" fill="#E9ECF2"/>
<path d="M192.373 133.998L189.824 135.171L186.545 137.472L181.366 139L177.271 137.27L176.126 136.927L172.961 136.359L169.959 135.805L168.406 135.119L165.641 133.063L164.546 131.032L163.728 130.053L161.144 128.247L159.125 127.291L157.541 126.648L153.395 124.036L147.908 119.887L144.546 116.531L142.194 113.294L141.105 112.176L136.286 109.387L134.48 108.546L130.019 107.227L128.205 106.795L126.38 106.735L125.319 106.676L123.657 106.542L122.238 106.369L119.032 105.364L117.779 104.315L116.088 102.586L114.391 101.312L113.224 100.598L111.654 100.106L107.129 98.3194L96.228 93.585L92.1497 90.0354L87.3612 87.6198L84.9416 86.6978L77.1921 84.0654L75.3861 83.6341L65.2267 79.9815L58.5851 74.599L56.8093 73.0532L54.3884 69.7266L47.9207 66.2158L43.5308 64.8868L39.0261 63.7407L36.4397 62.4833L35.1653 61.7564L33.9766 60.6358L33.4898 59.0258L31.9037 56.764L30.0953 55.7924L23.9779 53.3029L20.7416 51.8345L15.1702 48.7962L12.3338 47.1813L6.38919 44.4398L2.5646 43.0406L1.20319 41.6996L0 40.4312L1.19836 37.3419L2.81827 32.4694L6.86634 27.3268L11.725 24.6204L14.0637 23.4465L18.8003 22.7148L18.9126 23.0698L19.3113 22.9099L19.6314 24.4302L20.6196 25.4648L22.6466 26.0269L23.9779 26.2195L28.1745 27.2105L32.5802 28.3711L34.1336 33.1127L35.4552 37.3576L41.3455 43.2042L42.8579 44.1285L44.5045 44.5149L46.0592 44.5356L47.2044 44.2181L48.7011 43.2405L49.9188 42.2628L51.1087 42.0375L51.8963 45.2697L52.1814 49.1657L52.6936 50.6001L54.444 50.5601L56.3116 49.4868L56.6909 45.0552L58.8496 40.4542L60.199 37.4764L65.0576 35.0402L68.0269 33.687L67.7563 36.6647L69.1057 40.4542L71.2874 41.685L78.2238 40.8369L81.1025 39.4777L82.2912 38.7981L84.4958 37.7248L85.6929 37.835L87.7139 38.9725L90.159 37.8823L91.5083 35.1758L93.667 32.4694L98.2563 31.3864L100.686 27.8671L103.923 23.5361L105.543 19.7467L105.004 16.2287L104.734 12.1679L105.814 8.64981L107.434 5.94341L109.322 5.13176L112.291 4.31884L113.134 0.932845L114.72 1.07097L117.679 1.66457L119.174 0.110247L120.299 0L121.932 0.568166L123.78 1.69725L128.284 2.18305L131.88 1.53369L134.845 0.900089L134.456 3.20913L135.131 4.69321L137.108 7.15849L138.261 8.54563L139.128 9.13679L142.158 9.85277L143.496 9.83095L149.005 8.73699L154.297 10.8353L155.203 11.9353L156.561 11.8759L157.849 9.87458L158.758 6.90775L158.665 4.79495L157.971 3.60775L157.433 2.39748L158.208 0.804408L159.646 0.714792L160.778 1.41014L164.953 6.686L167.961 10.8644L167.704 18.7897L167.031 19.9503L167.224 21.2259L168.836 22.2121L169.91 22.5973L177.114 24.5332L182.071 22.2121L185.121 20.3803L185.226 19.1822L190.608 20.6832L192.492 22.2787L194.088 23.9578L195.234 24.6374L196.337 24.4084L197.526 23.0249L198.328 22.3453L199.581 22.0279L200.416 22.332L200.819 26.1081L200.28 35.5829L203.519 39.3723L206.758 40.1828L210.201 39.7515L210.131 42.7365L210.759 48.1445L212.252 50.1749L213.297 51.3161L214.572 52.2489L215.582 53.0642L216.268 53.8722L216.642 54.9637L216.412 56.1413L215.069 58.3025L214.687 60.402L217.404 64.9425L219.406 66.446L220 67.655L219.714 69.1923L219.21 70.9259L218.862 73.2168L218.848 75.8311L218.955 78.4915L218.884 80.6757L218.784 82.1028L218.375 84.831L217.594 86.1176L216.262 87.7239L215.116 88.7949L213.985 89.8658L213.369 91.1233V92.4765L213.815 93.8151L211.887 94.5892L208.376 93.5062L204.328 90.5285L202.17 89.4454H199.74L198.66 91.3414L199.74 92.9647L201.63 94.8594L202.979 95.6711L203.566 96.9225L200.499 98.386L195.515 105.211L196.015 108.412L195.515 111.225L194.274 111.817L192.513 112.452L189.176 115.234L188.559 116.113L188.236 117.239L188.274 118.589L188.703 120.335L190.436 124.104L191.397 125.022L193.845 128.38L192.373 133.998Z" stroke="#8F959D" stroke-width="4" mask="url(#path-1-inside-1_8895_6824)"/>
<path d="M192.373 133.998L189.824 135.171L186.545 137.472L181.366 139L177.271 137.27L176.126 136.927L172.961 136.359L169.959 135.805L168.406 135.119L165.641 133.063L164.546 131.032L163.728 130.053L161.144 128.247L159.125 127.291L157.541 126.648L153.395 124.036L147.908 119.887L144.546 116.531L142.194 113.294L141.105 112.176L136.286 109.387L134.48 108.546L130.019 107.227L128.205 106.795L126.38 106.735L125.319 106.676L123.657 106.542L122.238 106.369L119.032 105.364L117.779 104.315L116.088 102.586L114.391 101.312L113.224 100.598L111.654 100.106L107.129 98.3194L96.228 93.585L92.1497 90.0354L87.3612 87.6198L84.9416 86.6978L77.1921 84.0654L75.3861 83.6341L65.2267 79.9815L58.5851 74.599L56.8093 73.0532L54.3884 69.7266L47.9207 66.2158L43.5308 64.8868L39.0261 63.7407L36.4397 62.4833L35.1653 61.7564L33.9766 60.6358L33.4898 59.0258L31.9037 56.764L30.0953 55.7924L23.9779 53.3029L20.7416 51.8345L15.1702 48.7962L12.3338 47.1813L6.38919 44.4398L2.5646 43.0406L1.20319 41.6996L0 40.4312L1.19836 37.3419L2.81827 32.4694L6.86634 27.3268L11.725 24.6204L14.0637 23.4465L18.8003 22.7148L18.9126 23.0698L19.3113 22.9099L19.6314 24.4302L20.6196 25.4648L22.6466 26.0269L23.9779 26.2195L28.1745 27.2105L32.5802 28.3711L34.1336 33.1127L35.4552 37.3576L41.3455 43.2042L42.8579 44.1285L44.5045 44.5149L46.0592 44.5356L47.2044 44.2181L48.7011 43.2405L49.9188 42.2628L51.1087 42.0375L51.8963 45.2697L52.1814 49.1657L52.6936 50.6001L54.444 50.5601L56.3116 49.4868L56.6909 45.0552L58.8496 40.4542L60.199 37.4764L65.0576 35.0402L68.0269 33.687L67.7563 36.6647L69.1057 40.4542L71.2874 41.685L78.2238 40.8369L81.1025 39.4777L82.2912 38.7981L84.4958 37.7248L85.6929 37.835L87.7139 38.9725L90.159 37.8823L91.5083 35.1758L93.667 32.4694L98.2563 31.3864L100.686 27.8671L103.923 23.5361L105.543 19.7467L105.004 16.2287L104.734 12.1679L105.814 8.64981L107.434 5.94341L109.322 5.13176L112.291 4.31884L113.134 0.932845L114.72 1.07097L117.679 1.66457L119.174 0.110247L120.299 0L121.932 0.568166L123.78 1.69725L128.284 2.18305L131.88 1.53369L134.845 0.900089L134.456 3.20913L135.131 4.69321L137.108 7.15849L138.261 8.54563L139.128 9.13679L142.158 9.85277L143.496 9.83095L149.005 8.73699L154.297 10.8353L155.203 11.9353L156.561 11.8759L157.849 9.87458L158.758 6.90775L158.665 4.79495L157.971 3.60775L157.433 2.39748L158.208 0.804408L159.646 0.714792L160.778 1.41014L164.953 6.686L167.961 10.8644L167.704 18.7897L167.031 19.9503L167.224 21.2259L168.836 22.2121L169.91 22.5973L177.114 24.5332L182.071 22.2121L185.121 20.3803L185.226 19.1822L190.608 20.6832L192.492 22.2787L194.088 23.9578L195.234 24.6374L196.337 24.4084L197.526 23.0249L198.328 22.3453L199.581 22.0279L200.416 22.332L200.819 26.1081L200.28 35.5829L203.519 39.3723L206.758 40.1828L210.201 39.7515L210.131 42.7365L210.759 48.1445L212.252 50.1749L213.297 51.3161L214.572 52.2489L215.582 53.0642L216.268 53.8722L216.642 54.9637L216.412 56.1413L215.069 58.3025L214.687 60.402L217.404 64.9425L219.406 66.446L220 67.655L219.714 69.1923L219.21 70.9259L218.862 73.2168L218.848 75.8311L218.955 78.4915L218.884 80.6757L218.784 82.1028L218.375 84.831L217.594 86.1176L216.262 87.7239L215.116 88.7949L213.985 89.8658L213.369 91.1233V92.4765L213.815 93.8151L211.887 94.5892L208.376 93.5062L204.328 90.5285L202.17 89.4454H199.74L198.66 91.3414L199.74 92.9647L201.63 94.8594L202.979 95.6711L203.566 96.9225L200.499 98.386L195.515 105.211L196.015 108.412L195.515 111.225L194.274 111.817L192.513 112.452L189.176 115.234L188.559 116.113L188.236 117.239L188.274 118.589L188.703 120.335L190.436 124.104L191.397 125.022L193.845 128.38L192.373 133.998Z" stroke="black" stroke-opacity="0.2" stroke-width="4" mask="url(#path-1-inside-1_8895_6824)"/>
<path d="M192.373 133.998L189.824 135.171L186.545 137.472L181.366 139L177.271 137.27L176.126 136.927L172.961 136.359L169.959 135.805L168.406 135.119L165.641 133.063L164.546 131.032L163.728 130.053L161.144 128.247L159.125 127.291L157.541 126.648L153.395 124.036L147.908 119.887L144.546 116.531L142.194 113.294L141.105 112.176L136.286 109.387L134.48 108.546L130.019 107.227L128.205 106.795L126.38 106.735L125.319 106.676L123.657 106.542L122.238 106.369L119.032 105.364L117.779 104.315L116.088 102.586L114.391 101.312L113.224 100.598L111.654 100.106L107.129 98.3194L96.228 93.585L92.1497 90.0354L87.3612 87.6198L84.9416 86.6978L77.1921 84.0654L75.3861 83.6341L65.2267 79.9815L58.5851 74.599L56.8093 73.0532L54.3884 69.7266L47.9207 66.2158L43.5308 64.8868L39.0261 63.7407L36.4397 62.4833L35.1653 61.7564L33.9766 60.6358L33.4898 59.0258L31.9037 56.764L30.0953 55.7924L23.9779 53.3029L20.7416 51.8345L15.1702 48.7962L12.3338 47.1813L6.38919 44.4398L2.5646 43.0406L1.20319 41.6996L0 40.4312L1.19836 37.3419L2.81827 32.4694L6.86634 27.3268L11.725 24.6204L14.0637 23.4465L18.8003 22.7148L18.9126 23.0698L19.3113 22.9099L19.6314 24.4302L20.6196 25.4648L22.6466 26.0269L23.9779 26.2195L28.1745 27.2105L32.5802 28.3711L34.1336 33.1127L35.4552 37.3576L41.3455 43.2042L42.8579 44.1285L44.5045 44.5149L46.0592 44.5356L47.2044 44.2181L48.7011 43.2405L49.9188 42.2628L51.1087 42.0375L51.8963 45.2697L52.1814 49.1657L52.6936 50.6001L54.444 50.5601L56.3116 49.4868L56.6909 45.0552L58.8496 40.4542L60.199 37.4764L65.0576 35.0402L68.0269 33.687L67.7563 36.6647L69.1057 40.4542L71.2874 41.685L78.2238 40.8369L81.1025 39.4777L82.2912 38.7981L84.4958 37.7248L85.6929 37.835L87.7139 38.9725L90.159 37.8823L91.5083 35.1758L93.667 32.4694L98.2563 31.3864L100.686 27.8671L103.923 23.5361L105.543 19.7467L105.004 16.2287L104.734 12.1679L105.814 8.64981L107.434 5.94341L109.322 5.13176L112.291 4.31884L113.134 0.932845L114.72 1.07097L117.679 1.66457L119.174 0.110247L120.299 0L121.932 0.568166L123.78 1.69725L128.284 2.18305L131.88 1.53369L134.845 0.900089L134.456 3.20913L135.131 4.69321L137.108 7.15849L138.261 8.54563L139.128 9.13679L142.158 9.85277L143.496 9.83095L149.005 8.73699L154.297 10.8353L155.203 11.9353L156.561 11.8759L157.849 9.87458L158.758 6.90775L158.665 4.79495L157.971 3.60775L157.433 2.39748L158.208 0.804408L159.646 0.714792L160.778 1.41014L164.953 6.686L167.961 10.8644L167.704 18.7897L167.031 19.9503L167.224 21.2259L168.836 22.2121L169.91 22.5973L177.114 24.5332L182.071 22.2121L185.121 20.3803L185.226 19.1822L190.608 20.6832L192.492 22.2787L194.088 23.9578L195.234 24.6374L196.337 24.4084L197.526 23.0249L198.328 22.3453L199.581 22.0279L200.416 22.332L200.819 26.1081L200.28 35.5829L203.519 39.3723L206.758 40.1828L210.201 39.7515L210.131 42.7365L210.759 48.1445L212.252 50.1749L213.297 51.3161L214.572 52.2489L215.582 53.0642L216.268 53.8722L216.642 54.9637L216.412 56.1413L215.069 58.3025L214.687 60.402L217.404 64.9425L219.406 66.446L220 67.655L219.714 69.1923L219.21 70.9259L218.862 73.2168L218.848 75.8311L218.955 78.4915L218.884 80.6757L218.784 82.1028L218.375 84.831L217.594 86.1176L216.262 87.7239L215.116 88.7949L213.985 89.8658L213.369 91.1233V92.4765L213.815 93.8151L211.887 94.5892L208.376 93.5062L204.328 90.5285L202.17 89.4454H199.74L198.66 91.3414L199.74 92.9647L201.63 94.8594L202.979 95.6711L203.566 96.9225L200.499 98.386L195.515 105.211L196.015 108.412L195.515 111.225L194.274 111.817L192.513 112.452L189.176 115.234L188.559 116.113L188.236 117.239L188.274 118.589L188.703 120.335L190.436 124.104L191.397 125.022L193.845 128.38L192.373 133.998Z" stroke="black" stroke-opacity="0.2" stroke-width="4" mask="url(#path-1-inside-1_8895_6824)"/>
<path d="M192.373 133.998L189.824 135.171L186.545 137.472L181.366 139L177.271 137.27L176.126 136.927L172.961 136.359L169.959 135.805L168.406 135.119L165.641 133.063L164.546 131.032L163.728 130.053L161.144 128.247L159.125 127.291L157.541 126.648L153.395 124.036L147.908 119.887L144.546 116.531L142.194 113.294L141.105 112.176L136.286 109.387L134.48 108.546L130.019 107.227L128.205 106.795L126.38 106.735L125.319 106.676L123.657 106.542L122.238 106.369L119.032 105.364L117.779 104.315L116.088 102.586L114.391 101.312L113.224 100.598L111.654 100.106L107.129 98.3194L96.228 93.585L92.1497 90.0354L87.3612 87.6198L84.9416 86.6978L77.1921 84.0654L75.3861 83.6341L65.2267 79.9815L58.5851 74.599L56.8093 73.0532L54.3884 69.7266L47.9207 66.2158L43.5308 64.8868L39.0261 63.7407L36.4397 62.4833L35.1653 61.7564L33.9766 60.6358L33.4898 59.0258L31.9037 56.764L30.0953 55.7924L23.9779 53.3029L20.7416 51.8345L15.1702 48.7962L12.3338 47.1813L6.38919 44.4398L2.5646 43.0406L1.20319 41.6996L0 40.4312L1.19836 37.3419L2.81827 32.4694L6.86634 27.3268L11.725 24.6204L14.0637 23.4465L18.8003 22.7148L18.9126 23.0698L19.3113 22.9099L19.6314 24.4302L20.6196 25.4648L22.6466 26.0269L23.9779 26.2195L28.1745 27.2105L32.5802 28.3711L34.1336 33.1127L35.4552 37.3576L41.3455 43.2042L42.8579 44.1285L44.5045 44.5149L46.0592 44.5356L47.2044 44.2181L48.7011 43.2405L49.9188 42.2628L51.1087 42.0375L51.8963 45.2697L52.1814 49.1657L52.6936 50.6001L54.444 50.5601L56.3116 49.4868L56.6909 45.0552L58.8496 40.4542L60.199 37.4764L65.0576 35.0402L68.0269 33.687L67.7563 36.6647L69.1057 40.4542L71.2874 41.685L78.2238 40.8369L81.1025 39.4777L82.2912 38.7981L84.4958 37.7248L85.6929 37.835L87.7139 38.9725L90.159 37.8823L91.5083 35.1758L93.667 32.4694L98.2563 31.3864L100.686 27.8671L103.923 23.5361L105.543 19.7467L105.004 16.2287L104.734 12.1679L105.814 8.64981L107.434 5.94341L109.322 5.13176L112.291 4.31884L113.134 0.932845L114.72 1.07097L117.679 1.66457L119.174 0.110247L120.299 0L121.932 0.568166L123.78 1.69725L128.284 2.18305L131.88 1.53369L134.845 0.900089L134.456 3.20913L135.131 4.69321L137.108 7.15849L138.261 8.54563L139.128 9.13679L142.158 9.85277L143.496 9.83095L149.005 8.73699L154.297 10.8353L155.203 11.9353L156.561 11.8759L157.849 9.87458L158.758 6.90775L158.665 4.79495L157.971 3.60775L157.433 2.39748L158.208 0.804408L159.646 0.714792L160.778 1.41014L164.953 6.686L167.961 10.8644L167.704 18.7897L167.031 19.9503L167.224 21.2259L168.836 22.2121L169.91 22.5973L177.114 24.5332L182.071 22.2121L185.121 20.3803L185.226 19.1822L190.608 20.6832L192.492 22.2787L194.088 23.9578L195.234 24.6374L196.337 24.4084L197.526 23.0249L198.328 22.3453L199.581 22.0279L200.416 22.332L200.819 26.1081L200.28 35.5829L203.519 39.3723L206.758 40.1828L210.201 39.7515L210.131 42.7365L210.759 48.1445L212.252 50.1749L213.297 51.3161L214.572 52.2489L215.582 53.0642L216.268 53.8722L216.642 54.9637L216.412 56.1413L215.069 58.3025L214.687 60.402L217.404 64.9425L219.406 66.446L220 67.655L219.714 69.1923L219.21 70.9259L218.862 73.2168L218.848 75.8311L218.955 78.4915L218.884 80.6757L218.784 82.1028L218.375 84.831L217.594 86.1176L216.262 87.7239L215.116 88.7949L213.985 89.8658L213.369 91.1233V92.4765L213.815 93.8151L211.887 94.5892L208.376 93.5062L204.328 90.5285L202.17 89.4454H199.74L198.66 91.3414L199.74 92.9647L201.63 94.8594L202.979 95.6711L203.566 96.9225L200.499 98.386L195.515 105.211L196.015 108.412L195.515 111.225L194.274 111.817L192.513 112.452L189.176 115.234L188.559 116.113L188.236 117.239L188.274 118.589L188.703 120.335L190.436 124.104L191.397 125.022L193.845 128.38L192.373 133.998Z" stroke="black" stroke-opacity="0.2" stroke-width="4" mask="url(#path-1-inside-1_8895_6824)"/>
<path d="M192.373 133.998L189.824 135.171L186.545 137.472L181.366 139L177.271 137.27L176.126 136.927L172.961 136.359L169.959 135.805L168.406 135.119L165.641 133.063L164.546 131.032L163.728 130.053L161.144 128.247L159.125 127.291L157.541 126.648L153.395 124.036L147.908 119.887L144.546 116.531L142.194 113.294L141.105 112.176L136.286 109.387L134.48 108.546L130.019 107.227L128.205 106.795L126.38 106.735L125.319 106.676L123.657 106.542L122.238 106.369L119.032 105.364L117.779 104.315L116.088 102.586L114.391 101.312L113.224 100.598L111.654 100.106L107.129 98.3194L96.228 93.585L92.1497 90.0354L87.3612 87.6198L84.9416 86.6978L77.1921 84.0654L75.3861 83.6341L65.2267 79.9815L58.5851 74.599L56.8093 73.0532L54.3884 69.7266L47.9207 66.2158L43.5308 64.8868L39.0261 63.7407L36.4397 62.4833L35.1653 61.7564L33.9766 60.6358L33.4898 59.0258L31.9037 56.764L30.0953 55.7924L23.9779 53.3029L20.7416 51.8345L15.1702 48.7962L12.3338 47.1813L6.38919 44.4398L2.5646 43.0406L1.20319 41.6996L0 40.4312L1.19836 37.3419L2.81827 32.4694L6.86634 27.3268L11.725 24.6204L14.0637 23.4465L18.8003 22.7148L18.9126 23.0698L19.3113 22.9099L19.6314 24.4302L20.6196 25.4648L22.6466 26.0269L23.9779 26.2195L28.1745 27.2105L32.5802 28.3711L34.1336 33.1127L35.4552 37.3576L41.3455 43.2042L42.8579 44.1285L44.5045 44.5149L46.0592 44.5356L47.2044 44.2181L48.7011 43.2405L49.9188 42.2628L51.1087 42.0375L51.8963 45.2697L52.1814 49.1657L52.6936 50.6001L54.444 50.5601L56.3116 49.4868L56.6909 45.0552L58.8496 40.4542L60.199 37.4764L65.0576 35.0402L68.0269 33.687L67.7563 36.6647L69.1057 40.4542L71.2874 41.685L78.2238 40.8369L81.1025 39.4777L82.2912 38.7981L84.4958 37.7248L85.6929 37.835L87.7139 38.9725L90.159 37.8823L91.5083 35.1758L93.667 32.4694L98.2563 31.3864L100.686 27.8671L103.923 23.5361L105.543 19.7467L105.004 16.2287L104.734 12.1679L105.814 8.64981L107.434 5.94341L109.322 5.13176L112.291 4.31884L113.134 0.932845L114.72 1.07097L117.679 1.66457L119.174 0.110247L120.299 0L121.932 0.568166L123.78 1.69725L128.284 2.18305L131.88 1.53369L134.845 0.900089L134.456 3.20913L135.131 4.69321L137.108 7.15849L138.261 8.54563L139.128 9.13679L142.158 9.85277L143.496 9.83095L149.005 8.73699L154.297 10.8353L155.203 11.9353L156.561 11.8759L157.849 9.87458L158.758 6.90775L158.665 4.79495L157.971 3.60775L157.433 2.39748L158.208 0.804408L159.646 0.714792L160.778 1.41014L164.953 6.686L167.961 10.8644L167.704 18.7897L167.031 19.9503L167.224 21.2259L168.836 22.2121L169.91 22.5973L177.114 24.5332L182.071 22.2121L185.121 20.3803L185.226 19.1822L190.608 20.6832L192.492 22.2787L194.088 23.9578L195.234 24.6374L196.337 24.4084L197.526 23.0249L198.328 22.3453L199.581 22.0279L200.416 22.332L200.819 26.1081L200.28 35.5829L203.519 39.3723L206.758 40.1828L210.201 39.7515L210.131 42.7365L210.759 48.1445L212.252 50.1749L213.297 51.3161L214.572 52.2489L215.582 53.0642L216.268 53.8722L216.642 54.9637L216.412 56.1413L215.069 58.3025L214.687 60.402L217.404 64.9425L219.406 66.446L220 67.655L219.714 69.1923L219.21 70.9259L218.862 73.2168L218.848 75.8311L218.955 78.4915L218.884 80.6757L218.784 82.1028L218.375 84.831L217.594 86.1176L216.262 87.7239L215.116 88.7949L213.985 89.8658L213.369 91.1233V92.4765L213.815 93.8151L211.887 94.5892L208.376 93.5062L204.328 90.5285L202.17 89.4454H199.74L198.66 91.3414L199.74 92.9647L201.63 94.8594L202.979 95.6711L203.566 96.9225L200.499 98.386L195.515 105.211L196.015 108.412L195.515 111.225L194.274 111.817L192.513 112.452L189.176 115.234L188.559 116.113L188.236 117.239L188.274 118.589L188.703 120.335L190.436 124.104L191.397 125.022L193.845 128.38L192.373 133.998Z" stroke="black" stroke-opacity="0.2" stroke-width="4" mask="url(#path-1-inside-1_8895_6824)"/>
<path d="M192.373 133.998L189.824 135.171L186.545 137.472L181.366 139L177.271 137.27L176.126 136.927L172.961 136.359L169.959 135.805L168.406 135.119L165.641 133.063L164.546 131.032L163.728 130.053L161.144 128.247L159.125 127.291L157.541 126.648L153.395 124.036L147.908 119.887L144.546 116.531L142.194 113.294L141.105 112.176L136.286 109.387L134.48 108.546L130.019 107.227L128.205 106.795L126.38 106.735L125.319 106.676L123.657 106.542L122.238 106.369L119.032 105.364L117.779 104.315L116.088 102.586L114.391 101.312L113.224 100.598L111.654 100.106L107.129 98.3194L96.228 93.585L92.1497 90.0354L87.3612 87.6198L84.9416 86.6978L77.1921 84.0654L75.3861 83.6341L65.2267 79.9815L58.5851 74.599L56.8093 73.0532L54.3884 69.7266L47.9207 66.2158L43.5308 64.8868L39.0261 63.7407L36.4397 62.4833L35.1653 61.7564L33.9766 60.6358L33.4898 59.0258L31.9037 56.764L30.0953 55.7924L23.9779 53.3029L20.7416 51.8345L15.1702 48.7962L12.3338 47.1813L6.38919 44.4398L2.5646 43.0406L1.20319 41.6996L0 40.4312L1.19836 37.3419L2.81827 32.4694L6.86634 27.3268L11.725 24.6204L14.0637 23.4465L18.8003 22.7148L18.9126 23.0698L19.3113 22.9099L19.6314 24.4302L20.6196 25.4648L22.6466 26.0269L23.9779 26.2195L28.1745 27.2105L32.5802 28.3711L34.1336 33.1127L35.4552 37.3576L41.3455 43.2042L42.8579 44.1285L44.5045 44.5149L46.0592 44.5356L47.2044 44.2181L48.7011 43.2405L49.9188 42.2628L51.1087 42.0375L51.8963 45.2697L52.1814 49.1657L52.6936 50.6001L54.444 50.5601L56.3116 49.4868L56.6909 45.0552L58.8496 40.4542L60.199 37.4764L65.0576 35.0402L68.0269 33.687L67.7563 36.6647L69.1057 40.4542L71.2874 41.685L78.2238 40.8369L81.1025 39.4777L82.2912 38.7981L84.4958 37.7248L85.6929 37.835L87.7139 38.9725L90.159 37.8823L91.5083 35.1758L93.667 32.4694L98.2563 31.3864L100.686 27.8671L103.923 23.5361L105.543 19.7467L105.004 16.2287L104.734 12.1679L105.814 8.64981L107.434 5.94341L109.322 5.13176L112.291 4.31884L113.134 0.932845L114.72 1.07097L117.679 1.66457L119.174 0.110247L120.299 0L121.932 0.568166L123.78 1.69725L128.284 2.18305L131.88 1.53369L134.845 0.900089L134.456 3.20913L135.131 4.69321L137.108 7.15849L138.261 8.54563L139.128 9.13679L142.158 9.85277L143.496 9.83095L149.005 8.73699L154.297 10.8353L155.203 11.9353L156.561 11.8759L157.849 9.87458L158.758 6.90775L158.665 4.79495L157.971 3.60775L157.433 2.39748L158.208 0.804408L159.646 0.714792L160.778 1.41014L164.953 6.686L167.961 10.8644L167.704 18.7897L167.031 19.9503L167.224 21.2259L168.836 22.2121L169.91 22.5973L177.114 24.5332L182.071 22.2121L185.121 20.3803L185.226 19.1822L190.608 20.6832L192.492 22.2787L194.088 23.9578L195.234 24.6374L196.337 24.4084L197.526 23.0249L198.328 22.3453L199.581 22.0279L200.416 22.332L200.819 26.1081L200.28 35.5829L203.519 39.3723L206.758 40.1828L210.201 39.7515L210.131 42.7365L210.759 48.1445L212.252 50.1749L213.297 51.3161L214.572 52.2489L215.582 53.0642L216.268 53.8722L216.642 54.9637L216.412 56.1413L215.069 58.3025L214.687 60.402L217.404 64.9425L219.406 66.446L220 67.655L219.714 69.1923L219.21 70.9259L218.862 73.2168L218.848 75.8311L218.955 78.4915L218.884 80.6757L218.784 82.1028L218.375 84.831L217.594 86.1176L216.262 87.7239L215.116 88.7949L213.985 89.8658L213.369 91.1233V92.4765L213.815 93.8151L211.887 94.5892L208.376 93.5062L204.328 90.5285L202.17 89.4454H199.74L198.66 91.3414L199.74 92.9647L201.63 94.8594L202.979 95.6711L203.566 96.9225L200.499 98.386L195.515 105.211L196.015 108.412L195.515 111.225L194.274 111.817L192.513 112.452L189.176 115.234L188.559 116.113L188.236 117.239L188.274 118.589L188.703 120.335L190.436 124.104L191.397 125.022L193.845 128.38L192.373 133.998Z" stroke="black" stroke-opacity="0.2" stroke-width="4" mask="url(#path-1-inside-1_8895_6824)"/>
</svg>
