<svg width="220" height="249" viewBox="0 0 220 249" fill="none" xmlns="http://www.w3.org/2000/svg">
<rect width="220" height="249" fill="white"/>
<path d="M130.941 233.076L128.018 231.43L126.21 226.362L126.573 222.379L122.594 224.189L116.084 227.448L114.276 231.43L111.383 237.584L110.875 243.511L108.373 244.946L106.027 245L105.341 243.082L104.959 237.871L103.904 233.548L102.309 233.849L100.678 235.157L98.6721 236.464L97.1376 236.889L95.0545 236.861L92.8482 236.345L90.8217 235.108L82.9291 227.289L81.1583 221.611L79.0768 215.27L73.1736 213.717L67.5504 212.392L65.7666 212.134L63.0505 211.383L61.7265 209.999L61.2975 207.966L62.9453 204.78L63.5588 202.387L63.7903 200.627V197.23L63.5313 195.096L63.3548 194.674L58.7627 190.703L54.7841 182.74L50.8071 175.137L48.6365 172.242L46.0142 171.304L45.1774 172.462L43.5604 173.792L38.8485 174.29L38.7563 173.903L35.9786 173.689L33.0861 165.724L32 158.123L33.8097 153.777L34.5316 145.452L35.1418 132.941L35.6274 133.091L35.6177 132.78H38.5102L44.6578 134.59L52.2525 132.421L53.6996 129.523L56.2312 122.282L56.5921 114.68L56.8106 109.646L56.5824 109.178L56.0547 106.54L56.2085 104.213L56.9126 101.532L55.1532 99.1743L51.7362 94.7379L50.5465 93.9132L48.8776 93.1079L47.2833 91.802L49.5284 84.1203L56.6973 81.9929L58.5118 82.8062L58.6915 83.2211L60.9317 82.0998L65.2729 77.3929L68.5264 73.049L72.8677 70.8762L77.9308 67.6195L81.1858 61.1028L86.61 59.293L90.0723 56.8172L88.5669 54.2847L89.1107 52.2594L87.6944 45.174L85.8864 37.933L83.7174 29.9693L81.8268 22.8742L80.9042 21.5293L79.4102 21.3203L78.6543 18.7457L75.7602 15.126L74.3552 13.8201L76.3995 8.08272L76.6731 7.49945L81.1858 7.88672L84.8019 5.35257L86.6779 3.31755L86.6973 3.35157L89.865 3L95.2891 6.98253L101.076 8.06818L105.415 7.34231L108.308 5.53246H113.012L115.181 5.8954L114.98 9.12615L114.399 9.08896L115.801 12.1674L125.009 30.3825L128.619 34.5271L129.795 33.6748L133.536 37.2151L134.438 38.3105L136.71 43.0886L137.243 45.0557L142.304 48.4323L146.644 56.3976L149.899 63.9982L151.707 71.2392L156.408 77.3929L159.664 82.8224L159.297 84.5335L159.344 84.5902L158.216 88.6149L152.07 90.4264L147.646 91.0291L147 90.9108L129.549 78.1269L128.106 75.4697L126.252 74.4117L124.899 74.9204L123.086 78.9792L121.714 85.3858L121.926 87.5731L122.155 89.2809L123.844 100.767L124.469 102.632L125.687 105.284L127.107 105.832L129.252 106.658L132.908 112.47L131.982 113.575L129.536 113.938L128.949 115.63L132.884 123.386L137.029 135.003L137.835 137.691L139.046 140.407L142.173 144.59L143.209 146.141V149.435L141.039 153.416L139.231 156.313L136.336 161.018L139.231 166.449L140.315 172.602L139.593 179.12L141.04 181.623L142.078 186.335L142.73 187.629L143.075 187.973L146.824 185.998L149.718 182.74L157.673 179.481L163.823 179.12L171.417 176.223L176.12 175.5L177.667 176.66L178.74 175.395L183.734 178.287L187.013 178.572L185.883 183.101L181.905 184.188L179.375 185.274L177.204 188.893L175.757 193.599L176.12 199.03L176.841 203.735L174.671 208.803L170.333 214.596L167.078 219.303L160.929 220.751L158.036 224.371L156.228 227.99L152.952 229.449L150.244 227.927L148.64 227.78L145.686 229.215L144.093 230.124L140.236 231.942L130.941 233.076Z" fill="#E9ECF2" stroke="#8F959D" stroke-width="2"/>
</svg>
