<svg width="160" height="249" viewBox="0 0 160 249" fill="none" xmlns="http://www.w3.org/2000/svg">
<mask id="path-1-inside-1_8895_6820" fill="white">
<path d="M102.125 236.732L99.1072 235.038L97.241 229.823L97.6153 225.725L93.5086 227.587L86.789 230.94L84.9228 235.038L81.9372 241.369L81.4126 247.468L78.8297 248.945L76.4088 249L75.7004 247.026L75.3061 241.665L74.2168 237.217L72.5712 237.527L70.8871 238.872L68.817 240.218L67.2332 240.654L65.083 240.626L62.8058 240.094L60.714 238.822L52.5676 230.777L50.7398 224.935L48.5913 218.41L42.4982 216.813L36.6941 215.449L34.8529 215.184L32.0495 214.41L30.6828 212.987L30.2401 210.894L31.9409 207.617L32.5741 205.154L32.813 203.344V199.848L32.5457 197.652L32.3636 197.219L27.6237 193.133L23.5171 184.939L19.4121 177.116L17.1717 174.137L14.4651 173.172L13.6013 174.364L11.9323 175.733L7.06885 176.245L6.97361 175.846L4.10665 175.626L1.12104 167.43L0 159.61L1.86789 155.139L2.613 146.573L3.24289 133.699L3.74408 133.854L3.73409 133.534H6.71965L13.0651 135.396L20.9041 133.164L22.3977 130.183L25.0107 122.733L25.3833 114.911L25.6088 109.731L25.3733 109.249L24.8286 106.535L24.9873 104.141L25.7141 101.382L23.898 98.9562L20.3711 94.3915L19.1431 93.543L17.4206 92.7144L15.775 91.3706L18.0923 83.4668L25.4919 81.2779L27.3647 82.1147L27.5502 82.5415L29.8625 81.3878L34.3434 76.5448L37.7015 72.0752L42.1824 69.8396L47.4084 66.4886L50.7682 59.7835L56.3668 57.9213L59.9405 55.3739L58.3867 52.7681L58.9481 50.6842L57.4862 43.3939L55.62 35.9434L53.3812 27.7494L51.4298 20.4491L50.4775 19.0653L48.9355 18.8502L48.1552 16.2012L45.168 12.4768L43.7178 11.1331L45.8279 5.22974L46.1102 4.6296L50.7682 5.02807L54.5006 2.42062L56.437 0.326732L56.457 0.361735L59.7266 0L65.3252 4.09773L71.298 5.21479L75.7773 4.46791L78.7628 2.60571H83.618L85.8567 2.97915L85.6496 6.30335L85.0498 6.26509L86.4966 9.43259L96.0013 28.1745L99.7271 32.439L100.942 31.5621L104.803 35.2048L105.733 36.3318L108.079 41.2482L108.629 43.2722L113.853 46.7464L118.332 54.9421L121.692 62.7626L123.558 70.213L128.41 76.5448L131.771 82.1314L131.392 83.8919L131.441 83.9502L130.276 88.0914L123.932 89.9552L119.366 90.5754L118.7 90.4537L100.688 77.3L99.1974 74.566L97.2845 73.4773L95.8877 74.0007L94.0165 78.1769L92.5997 84.7688L92.8186 87.0194L93.0559 88.7766L94.7984 100.595L95.4433 102.514L96.7014 105.243L98.1666 105.806L100.38 106.657L104.154 112.637L103.199 113.774L100.674 114.147L100.068 115.888L104.129 123.868L108.408 135.822L109.24 138.587L110.49 141.381L113.718 145.686L114.787 147.281V150.671L112.547 154.767L110.68 157.748L107.693 162.589L110.68 168.177L111.8 174.507L111.055 181.214L112.548 183.79L113.619 188.638L114.292 189.97L114.648 190.324L118.518 188.291L121.505 184.939L129.716 181.586L136.064 181.214L143.903 178.233L148.756 177.49L150.353 178.684L151.461 177.382L156.615 180.357L160 180.651L158.834 185.31L154.727 186.429L152.116 187.546L149.875 191.27L148.382 196.112L148.756 201.7L149.501 206.541L147.261 211.756L142.783 217.716L139.423 222.559L133.076 224.05L130.091 227.774L128.225 231.498L124.843 232.999L122.048 231.433L120.392 231.282L117.343 232.759L115.699 233.694L111.718 235.565L102.125 236.732Z"/>
</mask>
<path d="M102.125 236.732L99.1072 235.038L97.241 229.823L97.6153 225.725L93.5086 227.587L86.789 230.94L84.9228 235.038L81.9372 241.369L81.4126 247.468L78.8297 248.945L76.4088 249L75.7004 247.026L75.3061 241.665L74.2168 237.217L72.5712 237.527L70.8871 238.872L68.817 240.218L67.2332 240.654L65.083 240.626L62.8058 240.094L60.714 238.822L52.5676 230.777L50.7398 224.935L48.5913 218.41L42.4982 216.813L36.6941 215.449L34.8529 215.184L32.0495 214.41L30.6828 212.987L30.2401 210.894L31.9409 207.617L32.5741 205.154L32.813 203.344V199.848L32.5457 197.652L32.3636 197.219L27.6237 193.133L23.5171 184.939L19.4121 177.116L17.1717 174.137L14.4651 173.172L13.6013 174.364L11.9323 175.733L7.06885 176.245L6.97361 175.846L4.10665 175.626L1.12104 167.43L0 159.61L1.86789 155.139L2.613 146.573L3.24289 133.699L3.74408 133.854L3.73409 133.534H6.71965L13.0651 135.396L20.9041 133.164L22.3977 130.183L25.0107 122.733L25.3833 114.911L25.6088 109.731L25.3733 109.249L24.8286 106.535L24.9873 104.141L25.7141 101.382L23.898 98.9562L20.3711 94.3915L19.1431 93.543L17.4206 92.7144L15.775 91.3706L18.0923 83.4668L25.4919 81.2779L27.3647 82.1147L27.5502 82.5415L29.8625 81.3878L34.3434 76.5448L37.7015 72.0752L42.1824 69.8396L47.4084 66.4886L50.7682 59.7835L56.3668 57.9213L59.9405 55.3739L58.3867 52.7681L58.9481 50.6842L57.4862 43.3939L55.62 35.9434L53.3812 27.7494L51.4298 20.4491L50.4775 19.0653L48.9355 18.8502L48.1552 16.2012L45.168 12.4768L43.7178 11.1331L45.8279 5.22974L46.1102 4.6296L50.7682 5.02807L54.5006 2.42062L56.437 0.326732L56.457 0.361735L59.7266 0L65.3252 4.09773L71.298 5.21479L75.7773 4.46791L78.7628 2.60571H83.618L85.8567 2.97915L85.6496 6.30335L85.0498 6.26509L86.4966 9.43259L96.0013 28.1745L99.7271 32.439L100.942 31.5621L104.803 35.2048L105.733 36.3318L108.079 41.2482L108.629 43.2722L113.853 46.7464L118.332 54.9421L121.692 62.7626L123.558 70.213L128.41 76.5448L131.771 82.1314L131.392 83.8919L131.441 83.9502L130.276 88.0914L123.932 89.9552L119.366 90.5754L118.7 90.4537L100.688 77.3L99.1974 74.566L97.2845 73.4773L95.8877 74.0007L94.0165 78.1769L92.5997 84.7688L92.8186 87.0194L93.0559 88.7766L94.7984 100.595L95.4433 102.514L96.7014 105.243L98.1666 105.806L100.38 106.657L104.154 112.637L103.199 113.774L100.674 114.147L100.068 115.888L104.129 123.868L108.408 135.822L109.24 138.587L110.49 141.381L113.718 145.686L114.787 147.281V150.671L112.547 154.767L110.68 157.748L107.693 162.589L110.68 168.177L111.8 174.507L111.055 181.214L112.548 183.79L113.619 188.638L114.292 189.97L114.648 190.324L118.518 188.291L121.505 184.939L129.716 181.586L136.064 181.214L143.903 178.233L148.756 177.49L150.353 178.684L151.461 177.382L156.615 180.357L160 180.651L158.834 185.31L154.727 186.429L152.116 187.546L149.875 191.27L148.382 196.112L148.756 201.7L149.501 206.541L147.261 211.756L142.783 217.716L139.423 222.559L133.076 224.05L130.091 227.774L128.225 231.498L124.843 232.999L122.048 231.433L120.392 231.282L117.343 232.759L115.699 233.694L111.718 235.565L102.125 236.732Z" fill="#E9ECF2"/>
<path d="M102.125 236.732L99.1072 235.038L97.241 229.823L97.6153 225.725L93.5086 227.587L86.789 230.94L84.9228 235.038L81.9372 241.369L81.4126 247.468L78.8297 248.945L76.4088 249L75.7004 247.026L75.3061 241.665L74.2168 237.217L72.5712 237.527L70.8871 238.872L68.817 240.218L67.2332 240.654L65.083 240.626L62.8058 240.094L60.714 238.822L52.5676 230.777L50.7398 224.935L48.5913 218.41L42.4982 216.813L36.6941 215.449L34.8529 215.184L32.0495 214.41L30.6828 212.987L30.2401 210.894L31.9409 207.617L32.5741 205.154L32.813 203.344V199.848L32.5457 197.652L32.3636 197.219L27.6237 193.133L23.5171 184.939L19.4121 177.116L17.1717 174.137L14.4651 173.172L13.6013 174.364L11.9323 175.733L7.06885 176.245L6.97361 175.846L4.10665 175.626L1.12104 167.43L0 159.61L1.86789 155.139L2.613 146.573L3.24289 133.699L3.74408 133.854L3.73409 133.534H6.71965L13.0651 135.396L20.9041 133.164L22.3977 130.183L25.0107 122.733L25.3833 114.911L25.6088 109.731L25.3733 109.249L24.8286 106.535L24.9873 104.141L25.7141 101.382L23.898 98.9562L20.3711 94.3915L19.1431 93.543L17.4206 92.7144L15.775 91.3706L18.0923 83.4668L25.4919 81.2779L27.3647 82.1147L27.5502 82.5415L29.8625 81.3878L34.3434 76.5448L37.7015 72.0752L42.1824 69.8396L47.4084 66.4886L50.7682 59.7835L56.3668 57.9213L59.9405 55.3739L58.3867 52.7681L58.9481 50.6842L57.4862 43.3939L55.62 35.9434L53.3812 27.7494L51.4298 20.4491L50.4775 19.0653L48.9355 18.8502L48.1552 16.2012L45.168 12.4768L43.7178 11.1331L45.8279 5.22974L46.1102 4.6296L50.7682 5.02807L54.5006 2.42062L56.437 0.326732L56.457 0.361735L59.7266 0L65.3252 4.09773L71.298 5.21479L75.7773 4.46791L78.7628 2.60571H83.618L85.8567 2.97915L85.6496 6.30335L85.0498 6.26509L86.4966 9.43259L96.0013 28.1745L99.7271 32.439L100.942 31.5621L104.803 35.2048L105.733 36.3318L108.079 41.2482L108.629 43.2722L113.853 46.7464L118.332 54.9421L121.692 62.7626L123.558 70.213L128.41 76.5448L131.771 82.1314L131.392 83.8919L131.441 83.9502L130.276 88.0914L123.932 89.9552L119.366 90.5754L118.7 90.4537L100.688 77.3L99.1974 74.566L97.2845 73.4773L95.8877 74.0007L94.0165 78.1769L92.5997 84.7688L92.8186 87.0194L93.0559 88.7766L94.7984 100.595L95.4433 102.514L96.7014 105.243L98.1666 105.806L100.38 106.657L104.154 112.637L103.199 113.774L100.674 114.147L100.068 115.888L104.129 123.868L108.408 135.822L109.24 138.587L110.49 141.381L113.718 145.686L114.787 147.281V150.671L112.547 154.767L110.68 157.748L107.693 162.589L110.68 168.177L111.8 174.507L111.055 181.214L112.548 183.79L113.619 188.638L114.292 189.97L114.648 190.324L118.518 188.291L121.505 184.939L129.716 181.586L136.064 181.214L143.903 178.233L148.756 177.49L150.353 178.684L151.461 177.382L156.615 180.357L160 180.651L158.834 185.31L154.727 186.429L152.116 187.546L149.875 191.27L148.382 196.112L148.756 201.7L149.501 206.541L147.261 211.756L142.783 217.716L139.423 222.559L133.076 224.05L130.091 227.774L128.225 231.498L124.843 232.999L122.048 231.433L120.392 231.282L117.343 232.759L115.699 233.694L111.718 235.565L102.125 236.732Z" stroke="#8F959D" stroke-width="4" mask="url(#path-1-inside-1_8895_6820)"/>
<path d="M102.125 236.732L99.1072 235.038L97.241 229.823L97.6153 225.725L93.5086 227.587L86.789 230.94L84.9228 235.038L81.9372 241.369L81.4126 247.468L78.8297 248.945L76.4088 249L75.7004 247.026L75.3061 241.665L74.2168 237.217L72.5712 237.527L70.8871 238.872L68.817 240.218L67.2332 240.654L65.083 240.626L62.8058 240.094L60.714 238.822L52.5676 230.777L50.7398 224.935L48.5913 218.41L42.4982 216.813L36.6941 215.449L34.8529 215.184L32.0495 214.41L30.6828 212.987L30.2401 210.894L31.9409 207.617L32.5741 205.154L32.813 203.344V199.848L32.5457 197.652L32.3636 197.219L27.6237 193.133L23.5171 184.939L19.4121 177.116L17.1717 174.137L14.4651 173.172L13.6013 174.364L11.9323 175.733L7.06885 176.245L6.97361 175.846L4.10665 175.626L1.12104 167.43L0 159.61L1.86789 155.139L2.613 146.573L3.24289 133.699L3.74408 133.854L3.73409 133.534H6.71965L13.0651 135.396L20.9041 133.164L22.3977 130.183L25.0107 122.733L25.3833 114.911L25.6088 109.731L25.3733 109.249L24.8286 106.535L24.9873 104.141L25.7141 101.382L23.898 98.9562L20.3711 94.3915L19.1431 93.543L17.4206 92.7144L15.775 91.3706L18.0923 83.4668L25.4919 81.2779L27.3647 82.1147L27.5502 82.5415L29.8625 81.3878L34.3434 76.5448L37.7015 72.0752L42.1824 69.8396L47.4084 66.4886L50.7682 59.7835L56.3668 57.9213L59.9405 55.3739L58.3867 52.7681L58.9481 50.6842L57.4862 43.3939L55.62 35.9434L53.3812 27.7494L51.4298 20.4491L50.4775 19.0653L48.9355 18.8502L48.1552 16.2012L45.168 12.4768L43.7178 11.1331L45.8279 5.22974L46.1102 4.6296L50.7682 5.02807L54.5006 2.42062L56.437 0.326732L56.457 0.361735L59.7266 0L65.3252 4.09773L71.298 5.21479L75.7773 4.46791L78.7628 2.60571H83.618L85.8567 2.97915L85.6496 6.30335L85.0498 6.26509L86.4966 9.43259L96.0013 28.1745L99.7271 32.439L100.942 31.5621L104.803 35.2048L105.733 36.3318L108.079 41.2482L108.629 43.2722L113.853 46.7464L118.332 54.9421L121.692 62.7626L123.558 70.213L128.41 76.5448L131.771 82.1314L131.392 83.8919L131.441 83.9502L130.276 88.0914L123.932 89.9552L119.366 90.5754L118.7 90.4537L100.688 77.3L99.1974 74.566L97.2845 73.4773L95.8877 74.0007L94.0165 78.1769L92.5997 84.7688L92.8186 87.0194L93.0559 88.7766L94.7984 100.595L95.4433 102.514L96.7014 105.243L98.1666 105.806L100.38 106.657L104.154 112.637L103.199 113.774L100.674 114.147L100.068 115.888L104.129 123.868L108.408 135.822L109.24 138.587L110.49 141.381L113.718 145.686L114.787 147.281V150.671L112.547 154.767L110.68 157.748L107.693 162.589L110.68 168.177L111.8 174.507L111.055 181.214L112.548 183.79L113.619 188.638L114.292 189.97L114.648 190.324L118.518 188.291L121.505 184.939L129.716 181.586L136.064 181.214L143.903 178.233L148.756 177.49L150.353 178.684L151.461 177.382L156.615 180.357L160 180.651L158.834 185.31L154.727 186.429L152.116 187.546L149.875 191.27L148.382 196.112L148.756 201.7L149.501 206.541L147.261 211.756L142.783 217.716L139.423 222.559L133.076 224.05L130.091 227.774L128.225 231.498L124.843 232.999L122.048 231.433L120.392 231.282L117.343 232.759L115.699 233.694L111.718 235.565L102.125 236.732Z" stroke="black" stroke-opacity="0.2" stroke-width="4" mask="url(#path-1-inside-1_8895_6820)"/>
<path d="M102.125 236.732L99.1072 235.038L97.241 229.823L97.6153 225.725L93.5086 227.587L86.789 230.94L84.9228 235.038L81.9372 241.369L81.4126 247.468L78.8297 248.945L76.4088 249L75.7004 247.026L75.3061 241.665L74.2168 237.217L72.5712 237.527L70.8871 238.872L68.817 240.218L67.2332 240.654L65.083 240.626L62.8058 240.094L60.714 238.822L52.5676 230.777L50.7398 224.935L48.5913 218.41L42.4982 216.813L36.6941 215.449L34.8529 215.184L32.0495 214.41L30.6828 212.987L30.2401 210.894L31.9409 207.617L32.5741 205.154L32.813 203.344V199.848L32.5457 197.652L32.3636 197.219L27.6237 193.133L23.5171 184.939L19.4121 177.116L17.1717 174.137L14.4651 173.172L13.6013 174.364L11.9323 175.733L7.06885 176.245L6.97361 175.846L4.10665 175.626L1.12104 167.43L0 159.61L1.86789 155.139L2.613 146.573L3.24289 133.699L3.74408 133.854L3.73409 133.534H6.71965L13.0651 135.396L20.9041 133.164L22.3977 130.183L25.0107 122.733L25.3833 114.911L25.6088 109.731L25.3733 109.249L24.8286 106.535L24.9873 104.141L25.7141 101.382L23.898 98.9562L20.3711 94.3915L19.1431 93.543L17.4206 92.7144L15.775 91.3706L18.0923 83.4668L25.4919 81.2779L27.3647 82.1147L27.5502 82.5415L29.8625 81.3878L34.3434 76.5448L37.7015 72.0752L42.1824 69.8396L47.4084 66.4886L50.7682 59.7835L56.3668 57.9213L59.9405 55.3739L58.3867 52.7681L58.9481 50.6842L57.4862 43.3939L55.62 35.9434L53.3812 27.7494L51.4298 20.4491L50.4775 19.0653L48.9355 18.8502L48.1552 16.2012L45.168 12.4768L43.7178 11.1331L45.8279 5.22974L46.1102 4.6296L50.7682 5.02807L54.5006 2.42062L56.437 0.326732L56.457 0.361735L59.7266 0L65.3252 4.09773L71.298 5.21479L75.7773 4.46791L78.7628 2.60571H83.618L85.8567 2.97915L85.6496 6.30335L85.0498 6.26509L86.4966 9.43259L96.0013 28.1745L99.7271 32.439L100.942 31.5621L104.803 35.2048L105.733 36.3318L108.079 41.2482L108.629 43.2722L113.853 46.7464L118.332 54.9421L121.692 62.7626L123.558 70.213L128.41 76.5448L131.771 82.1314L131.392 83.8919L131.441 83.9502L130.276 88.0914L123.932 89.9552L119.366 90.5754L118.7 90.4537L100.688 77.3L99.1974 74.566L97.2845 73.4773L95.8877 74.0007L94.0165 78.1769L92.5997 84.7688L92.8186 87.0194L93.0559 88.7766L94.7984 100.595L95.4433 102.514L96.7014 105.243L98.1666 105.806L100.38 106.657L104.154 112.637L103.199 113.774L100.674 114.147L100.068 115.888L104.129 123.868L108.408 135.822L109.24 138.587L110.49 141.381L113.718 145.686L114.787 147.281V150.671L112.547 154.767L110.68 157.748L107.693 162.589L110.68 168.177L111.8 174.507L111.055 181.214L112.548 183.79L113.619 188.638L114.292 189.97L114.648 190.324L118.518 188.291L121.505 184.939L129.716 181.586L136.064 181.214L143.903 178.233L148.756 177.49L150.353 178.684L151.461 177.382L156.615 180.357L160 180.651L158.834 185.31L154.727 186.429L152.116 187.546L149.875 191.27L148.382 196.112L148.756 201.7L149.501 206.541L147.261 211.756L142.783 217.716L139.423 222.559L133.076 224.05L130.091 227.774L128.225 231.498L124.843 232.999L122.048 231.433L120.392 231.282L117.343 232.759L115.699 233.694L111.718 235.565L102.125 236.732Z" stroke="black" stroke-opacity="0.2" stroke-width="4" mask="url(#path-1-inside-1_8895_6820)"/>
<path d="M102.125 236.732L99.1072 235.038L97.241 229.823L97.6153 225.725L93.5086 227.587L86.789 230.94L84.9228 235.038L81.9372 241.369L81.4126 247.468L78.8297 248.945L76.4088 249L75.7004 247.026L75.3061 241.665L74.2168 237.217L72.5712 237.527L70.8871 238.872L68.817 240.218L67.2332 240.654L65.083 240.626L62.8058 240.094L60.714 238.822L52.5676 230.777L50.7398 224.935L48.5913 218.41L42.4982 216.813L36.6941 215.449L34.8529 215.184L32.0495 214.41L30.6828 212.987L30.2401 210.894L31.9409 207.617L32.5741 205.154L32.813 203.344V199.848L32.5457 197.652L32.3636 197.219L27.6237 193.133L23.5171 184.939L19.4121 177.116L17.1717 174.137L14.4651 173.172L13.6013 174.364L11.9323 175.733L7.06885 176.245L6.97361 175.846L4.10665 175.626L1.12104 167.43L0 159.61L1.86789 155.139L2.613 146.573L3.24289 133.699L3.74408 133.854L3.73409 133.534H6.71965L13.0651 135.396L20.9041 133.164L22.3977 130.183L25.0107 122.733L25.3833 114.911L25.6088 109.731L25.3733 109.249L24.8286 106.535L24.9873 104.141L25.7141 101.382L23.898 98.9562L20.3711 94.3915L19.1431 93.543L17.4206 92.7144L15.775 91.3706L18.0923 83.4668L25.4919 81.2779L27.3647 82.1147L27.5502 82.5415L29.8625 81.3878L34.3434 76.5448L37.7015 72.0752L42.1824 69.8396L47.4084 66.4886L50.7682 59.7835L56.3668 57.9213L59.9405 55.3739L58.3867 52.7681L58.9481 50.6842L57.4862 43.3939L55.62 35.9434L53.3812 27.7494L51.4298 20.4491L50.4775 19.0653L48.9355 18.8502L48.1552 16.2012L45.168 12.4768L43.7178 11.1331L45.8279 5.22974L46.1102 4.6296L50.7682 5.02807L54.5006 2.42062L56.437 0.326732L56.457 0.361735L59.7266 0L65.3252 4.09773L71.298 5.21479L75.7773 4.46791L78.7628 2.60571H83.618L85.8567 2.97915L85.6496 6.30335L85.0498 6.26509L86.4966 9.43259L96.0013 28.1745L99.7271 32.439L100.942 31.5621L104.803 35.2048L105.733 36.3318L108.079 41.2482L108.629 43.2722L113.853 46.7464L118.332 54.9421L121.692 62.7626L123.558 70.213L128.41 76.5448L131.771 82.1314L131.392 83.8919L131.441 83.9502L130.276 88.0914L123.932 89.9552L119.366 90.5754L118.7 90.4537L100.688 77.3L99.1974 74.566L97.2845 73.4773L95.8877 74.0007L94.0165 78.1769L92.5997 84.7688L92.8186 87.0194L93.0559 88.7766L94.7984 100.595L95.4433 102.514L96.7014 105.243L98.1666 105.806L100.38 106.657L104.154 112.637L103.199 113.774L100.674 114.147L100.068 115.888L104.129 123.868L108.408 135.822L109.24 138.587L110.49 141.381L113.718 145.686L114.787 147.281V150.671L112.547 154.767L110.68 157.748L107.693 162.589L110.68 168.177L111.8 174.507L111.055 181.214L112.548 183.79L113.619 188.638L114.292 189.97L114.648 190.324L118.518 188.291L121.505 184.939L129.716 181.586L136.064 181.214L143.903 178.233L148.756 177.49L150.353 178.684L151.461 177.382L156.615 180.357L160 180.651L158.834 185.31L154.727 186.429L152.116 187.546L149.875 191.27L148.382 196.112L148.756 201.7L149.501 206.541L147.261 211.756L142.783 217.716L139.423 222.559L133.076 224.05L130.091 227.774L128.225 231.498L124.843 232.999L122.048 231.433L120.392 231.282L117.343 232.759L115.699 233.694L111.718 235.565L102.125 236.732Z" stroke="black" stroke-opacity="0.2" stroke-width="4" mask="url(#path-1-inside-1_8895_6820)"/>
<path d="M102.125 236.732L99.1072 235.038L97.241 229.823L97.6153 225.725L93.5086 227.587L86.789 230.94L84.9228 235.038L81.9372 241.369L81.4126 247.468L78.8297 248.945L76.4088 249L75.7004 247.026L75.3061 241.665L74.2168 237.217L72.5712 237.527L70.8871 238.872L68.817 240.218L67.2332 240.654L65.083 240.626L62.8058 240.094L60.714 238.822L52.5676 230.777L50.7398 224.935L48.5913 218.41L42.4982 216.813L36.6941 215.449L34.8529 215.184L32.0495 214.41L30.6828 212.987L30.2401 210.894L31.9409 207.617L32.5741 205.154L32.813 203.344V199.848L32.5457 197.652L32.3636 197.219L27.6237 193.133L23.5171 184.939L19.4121 177.116L17.1717 174.137L14.4651 173.172L13.6013 174.364L11.9323 175.733L7.06885 176.245L6.97361 175.846L4.10665 175.626L1.12104 167.43L0 159.61L1.86789 155.139L2.613 146.573L3.24289 133.699L3.74408 133.854L3.73409 133.534H6.71965L13.0651 135.396L20.9041 133.164L22.3977 130.183L25.0107 122.733L25.3833 114.911L25.6088 109.731L25.3733 109.249L24.8286 106.535L24.9873 104.141L25.7141 101.382L23.898 98.9562L20.3711 94.3915L19.1431 93.543L17.4206 92.7144L15.775 91.3706L18.0923 83.4668L25.4919 81.2779L27.3647 82.1147L27.5502 82.5415L29.8625 81.3878L34.3434 76.5448L37.7015 72.0752L42.1824 69.8396L47.4084 66.4886L50.7682 59.7835L56.3668 57.9213L59.9405 55.3739L58.3867 52.7681L58.9481 50.6842L57.4862 43.3939L55.62 35.9434L53.3812 27.7494L51.4298 20.4491L50.4775 19.0653L48.9355 18.8502L48.1552 16.2012L45.168 12.4768L43.7178 11.1331L45.8279 5.22974L46.1102 4.6296L50.7682 5.02807L54.5006 2.42062L56.437 0.326732L56.457 0.361735L59.7266 0L65.3252 4.09773L71.298 5.21479L75.7773 4.46791L78.7628 2.60571H83.618L85.8567 2.97915L85.6496 6.30335L85.0498 6.26509L86.4966 9.43259L96.0013 28.1745L99.7271 32.439L100.942 31.5621L104.803 35.2048L105.733 36.3318L108.079 41.2482L108.629 43.2722L113.853 46.7464L118.332 54.9421L121.692 62.7626L123.558 70.213L128.41 76.5448L131.771 82.1314L131.392 83.8919L131.441 83.9502L130.276 88.0914L123.932 89.9552L119.366 90.5754L118.7 90.4537L100.688 77.3L99.1974 74.566L97.2845 73.4773L95.8877 74.0007L94.0165 78.1769L92.5997 84.7688L92.8186 87.0194L93.0559 88.7766L94.7984 100.595L95.4433 102.514L96.7014 105.243L98.1666 105.806L100.38 106.657L104.154 112.637L103.199 113.774L100.674 114.147L100.068 115.888L104.129 123.868L108.408 135.822L109.24 138.587L110.49 141.381L113.718 145.686L114.787 147.281V150.671L112.547 154.767L110.68 157.748L107.693 162.589L110.68 168.177L111.8 174.507L111.055 181.214L112.548 183.79L113.619 188.638L114.292 189.97L114.648 190.324L118.518 188.291L121.505 184.939L129.716 181.586L136.064 181.214L143.903 178.233L148.756 177.49L150.353 178.684L151.461 177.382L156.615 180.357L160 180.651L158.834 185.31L154.727 186.429L152.116 187.546L149.875 191.27L148.382 196.112L148.756 201.7L149.501 206.541L147.261 211.756L142.783 217.716L139.423 222.559L133.076 224.05L130.091 227.774L128.225 231.498L124.843 232.999L122.048 231.433L120.392 231.282L117.343 232.759L115.699 233.694L111.718 235.565L102.125 236.732Z" stroke="black" stroke-opacity="0.2" stroke-width="4" mask="url(#path-1-inside-1_8895_6820)"/>
<path d="M102.125 236.732L99.1072 235.038L97.241 229.823L97.6153 225.725L93.5086 227.587L86.789 230.94L84.9228 235.038L81.9372 241.369L81.4126 247.468L78.8297 248.945L76.4088 249L75.7004 247.026L75.3061 241.665L74.2168 237.217L72.5712 237.527L70.8871 238.872L68.817 240.218L67.2332 240.654L65.083 240.626L62.8058 240.094L60.714 238.822L52.5676 230.777L50.7398 224.935L48.5913 218.41L42.4982 216.813L36.6941 215.449L34.8529 215.184L32.0495 214.41L30.6828 212.987L30.2401 210.894L31.9409 207.617L32.5741 205.154L32.813 203.344V199.848L32.5457 197.652L32.3636 197.219L27.6237 193.133L23.5171 184.939L19.4121 177.116L17.1717 174.137L14.4651 173.172L13.6013 174.364L11.9323 175.733L7.06885 176.245L6.97361 175.846L4.10665 175.626L1.12104 167.43L0 159.61L1.86789 155.139L2.613 146.573L3.24289 133.699L3.74408 133.854L3.73409 133.534H6.71965L13.0651 135.396L20.9041 133.164L22.3977 130.183L25.0107 122.733L25.3833 114.911L25.6088 109.731L25.3733 109.249L24.8286 106.535L24.9873 104.141L25.7141 101.382L23.898 98.9562L20.3711 94.3915L19.1431 93.543L17.4206 92.7144L15.775 91.3706L18.0923 83.4668L25.4919 81.2779L27.3647 82.1147L27.5502 82.5415L29.8625 81.3878L34.3434 76.5448L37.7015 72.0752L42.1824 69.8396L47.4084 66.4886L50.7682 59.7835L56.3668 57.9213L59.9405 55.3739L58.3867 52.7681L58.9481 50.6842L57.4862 43.3939L55.62 35.9434L53.3812 27.7494L51.4298 20.4491L50.4775 19.0653L48.9355 18.8502L48.1552 16.2012L45.168 12.4768L43.7178 11.1331L45.8279 5.22974L46.1102 4.6296L50.7682 5.02807L54.5006 2.42062L56.437 0.326732L56.457 0.361735L59.7266 0L65.3252 4.09773L71.298 5.21479L75.7773 4.46791L78.7628 2.60571H83.618L85.8567 2.97915L85.6496 6.30335L85.0498 6.26509L86.4966 9.43259L96.0013 28.1745L99.7271 32.439L100.942 31.5621L104.803 35.2048L105.733 36.3318L108.079 41.2482L108.629 43.2722L113.853 46.7464L118.332 54.9421L121.692 62.7626L123.558 70.213L128.41 76.5448L131.771 82.1314L131.392 83.8919L131.441 83.9502L130.276 88.0914L123.932 89.9552L119.366 90.5754L118.7 90.4537L100.688 77.3L99.1974 74.566L97.2845 73.4773L95.8877 74.0007L94.0165 78.1769L92.5997 84.7688L92.8186 87.0194L93.0559 88.7766L94.7984 100.595L95.4433 102.514L96.7014 105.243L98.1666 105.806L100.38 106.657L104.154 112.637L103.199 113.774L100.674 114.147L100.068 115.888L104.129 123.868L108.408 135.822L109.24 138.587L110.49 141.381L113.718 145.686L114.787 147.281V150.671L112.547 154.767L110.68 157.748L107.693 162.589L110.68 168.177L111.8 174.507L111.055 181.214L112.548 183.79L113.619 188.638L114.292 189.97L114.648 190.324L118.518 188.291L121.505 184.939L129.716 181.586L136.064 181.214L143.903 178.233L148.756 177.49L150.353 178.684L151.461 177.382L156.615 180.357L160 180.651L158.834 185.31L154.727 186.429L152.116 187.546L149.875 191.27L148.382 196.112L148.756 201.7L149.501 206.541L147.261 211.756L142.783 217.716L139.423 222.559L133.076 224.05L130.091 227.774L128.225 231.498L124.843 232.999L122.048 231.433L120.392 231.282L117.343 232.759L115.699 233.694L111.718 235.565L102.125 236.732Z" stroke="black" stroke-opacity="0.2" stroke-width="4" mask="url(#path-1-inside-1_8895_6820)"/>
</svg>
