<svg width="220" height="249" viewBox="0 0 220 249" fill="none" xmlns="http://www.w3.org/2000/svg">
<rect width="220" height="249" fill="white"/>
<path d="M103.143 35.1572L100.496 40.4661V47.1019V53.7376L105.79 59.0448L109.36 59.2341L109.517 60.2071L112.409 61.035L115.718 63.0269V69.6609L112.409 74.3065L109.762 80.9422L109.101 86.2494L107.114 91.5583L104.467 97.5289V104.165L108.439 107.482L113.071 111.464L112.796 116.707L114.019 117.454L121.258 122.86L125.348 129.724L127.014 133.796L128.008 136.392L128.759 138.101L130.076 140.045L132.573 141.433L135.215 142.189L142.437 146.541L145.52 151.238L154.773 170.064L154.785 170.734L157.127 173.082L159.098 175.849L160.282 183.755V186.916L160.069 186.966L160.282 188.101L162.647 193.24L166.196 199.959L169.744 207.074L172.9 215.375L174.08 222.49L171.322 226.442L168.167 230L163.829 234.346L161.194 235.229L160.114 237.739L156.278 238.689L153.447 236.206L148.813 234.879L143.517 239.524L138.223 241.514L133.265 244L132.778 241.667L132.379 240.046L129.331 238.143L128.957 232.889V227.58L124.985 224.926H121.676L113.071 226.916L108.439 225.589L107.114 219.617L101.82 216.3L97.8472 218.29L93.2149 220.944L89.2426 224.926L87.9191 227.58L84.6103 230.233L79.9762 232.225L75.7727 231.962L75.9245 231.364L75.6545 229.662L72.6298 223.438L65.7987 217.701L64.2916 217.155L59.4158 216.084L58.5017 215.796L56.1493 209.664V205.021L54.7217 202.975L54.7482 202.797L54.0811 189.934L53.9576 187.908L55.6182 187.288L56.257 184.8L55.9623 182.481L56.3929 178.356L61.2511 176.015L67.581 169.604L67.9534 166.699L67.0498 164.983L62.3452 163.824L56.3293 162.864L46.1912 150.786L45 140.667L45.3124 138.992L46.567 136.894L48.3459 135.385L50.2711 134.179L53.7299 132.67L56.3205 132.984H58.484L60.3052 130.281L61.4558 127.18L63.9757 114.79L63.3493 113.378L56.5393 110.047L56.0734 110.141L54.9599 108.952L53.5641 105.263L53.8711 105.019L53.0964 102.663L52.3641 101.332L51.0564 100.023L50.0012 98.0225L48.5029 91.6503L50.0012 79.5942L54.5523 74.0358L56.1934 74.2658L55.7646 61.7904L53.0752 58.0771L50.4864 48.9081L56.6946 39.9159L61.0905 35.0227L62.6822 33.5349L64.8157 33.4323L66.321 33.5367L72.5998 34.377L75.3915 36.2805L77.3909 35.9214L79.295 34.1647L85.5297 26.3419L86.2938 19.8919L86.2991 16.7607L87.2256 14.9262L89.4861 11.9577L90.7514 10.776L93.4284 8.85303L95.9079 7.21133L97.6867 6.43825L100.983 5.30959L102.072 5L103.819 9.1343L106.35 17.7479L106.642 19.9539L107.292 21.3868L107.985 22.4465L105.79 30.5134L103.143 35.1572Z" fill="#E9ECF2" stroke="#8F959D" stroke-width="2"/>
</svg>
