<svg width="206" height="249" viewBox="0 0 206 249" fill="none" xmlns="http://www.w3.org/2000/svg">
<mask id="path-1-inside-1_8895_6822" fill="white">
<path d="M59.5846 3.97594L61.1595 5.27614L65.7759 7.76144L73.9177 8.6835L78.0311 10.4783L80.9397 11.2441L83.2397 10.5769L87.3353 7.90941L90.5851 4.96239L97.2082 2.67436L97.8949 2.77852V7.93679L96.6696 14.979L93.9145 19.5687L89.9327 23.8556L88.096 25.9984L92.0764 30.5895L93.1579 32.4172L92.6329 34.8093L94.5272 37.0192L95.7526 43.4462L100.651 45.8945L106.164 49.8759L109.532 54.467L111.37 58.7526L115.965 60.8953L114.414 63.9931L114.793 64.0931L115.122 64.3452L113.208 66.0989L108.921 69.4651L110.452 71.9162L112.901 75.2824L115.046 77.4252L115.658 82.9342L115.965 86.6087L119.334 89.057L121.65 88.8256L121.783 89.057L125.456 87.8336L130.358 87.5267L137.096 85.6895L139.851 85.3839L143.526 89.6695L146.588 94.873L151.49 98.2406L157.001 100.077L160.37 100.689L161.099 103.124L161.741 103.459L161.901 106.506L163.738 112.015L164.658 116.301L167.414 116.913L171.088 114.465L173.54 112.322L175.848 109.593L176.422 109.69L177.213 107.119L179.663 106.199L184.257 108.037L191.301 108.649L197.121 110.485L201.126 110.311L201.244 110.146L206 111.097L205.389 119.668L205.082 126.097L199.263 132.525L194.363 138.034L190.076 143.239L188.239 146.607L183.951 151.503L179.051 153.648L178.438 157.933L178.131 161.605L179.358 167.117L178.438 172.933L177.52 178.442L175.682 183.034L172.313 188.543L171.395 194.054L169.864 198.032L165.883 200.789L164.351 203.237L165.697 204.582L165.689 204.832L167.469 207.612L168.882 209.164L170.427 209.556L173.141 213.621L174.152 219.874L173.368 221.389L172.198 223.128L171.857 224.365L172.28 230.875L172.848 231.945L173.888 233.426L174.254 234.698L174.45 236.554L174.473 237.775L174.107 242.783L171.354 244.286L171.661 246.998L171.626 248.512L167.72 249L164.045 248.083L160.37 243.798L160.982 233.083L160.524 228.812L159.577 228.468L158.155 228.827L157.245 229.596L155.896 231.16L154.645 231.419L153.344 230.651L151.534 228.752L149.395 226.947L143.289 225.25L143.17 226.605L139.709 228.676L134.085 231.301L125.91 229.112L124.692 228.676L122.863 227.561L122.644 226.119L123.407 224.806L123.699 215.843L120.286 211.118L115.549 205.151L114.265 204.365L112.632 204.466L111.754 206.268L112.364 207.636L113.152 208.979L113.257 211.368L112.225 214.724L110.764 216.987L109.224 217.054L108.196 215.81L102.191 213.437L95.9403 214.674L94.4216 214.699L90.984 213.889L89.9999 213.221L88.6922 211.652L86.4484 208.864L85.6822 207.186L86.1236 204.574L86.4169 203.156L86.3347 200.812L85.3848 199.094L85.0037 197.85L85.5643 196.383L87.2092 194.499L91.9106 192.03L95.3715 190.38L98.5076 188.946L99.3698 187.746L99.7522 186.03L100.385 184.971L104.619 180.506L105.595 179.816L106.895 179.05L107.878 177.202L109.431 172.139L109.876 169.876L110.016 162.221L109.82 160.775L109.431 159.528L107.318 155.464L105.741 152.494L105.091 151.48L101.742 148.206L98.3143 146.013L91.1293 143.508L78.4204 137.093L69.3835 131.232L67.3399 130.156L61.6392 128.063L57.5025 128.262L55.5986 129.033L48.8961 128.852L42.1523 128.655L38.9765 126.304L38.0198 125.094L38.3309 123.647L35.5731 119.056L31.5927 113.853L30.0616 107.73L27.3052 101.303L23.6304 94.5675L19.3443 91.7123L18.8934 90.049L16.969 86.0087L16.2055 85.0825L13.0378 82.0889L12.0414 82.8095L8.98476 79.3049L1.187 63.9026L0 61.2996L0.492084 61.331L0.634598 59.0239L6.78619 57.3742L10.768 57.0688L13.5231 57.6811L15.0706 58.969L15.1542 58.943L16.5865 61.9668L18.4246 63.4972L22.7107 60.4364L26.9982 57.0688L31.5927 53.3956L34.3491 49.7211L31.8997 43.9052L29.4489 40.2334L28.8362 38.0892L27.2476 35.7807L24.2431 35.0285L22.4051 33.8037L21.4867 28.907L22.2433 25.7326L21.7841 25.5709L23.0177 21.2538L24.1527 17.0943L24.5282 16.7039L25.6316 15.3379L26.3142 14.3652L27.2572 12.817L29.4188 8.37113L30.1014 6.55987L30.5935 4.75141L31.849 5.26243L41.0558 4.17187L42.4868 3.97594L46.7112 3.31696L48.8084 2.95525L50.7095 2.3949L52.1884 1.86055L53.444 0.831623L57.9014 0L59.5846 3.97594Z"/>
</mask>
<path d="M59.5846 3.97594L61.1595 5.27614L65.7759 7.76144L73.9177 8.6835L78.0311 10.4783L80.9397 11.2441L83.2397 10.5769L87.3353 7.90941L90.5851 4.96239L97.2082 2.67436L97.8949 2.77852V7.93679L96.6696 14.979L93.9145 19.5687L89.9327 23.8556L88.096 25.9984L92.0764 30.5895L93.1579 32.4172L92.6329 34.8093L94.5272 37.0192L95.7526 43.4462L100.651 45.8945L106.164 49.8759L109.532 54.467L111.37 58.7526L115.965 60.8953L114.414 63.9931L114.793 64.0931L115.122 64.3452L113.208 66.0989L108.921 69.4651L110.452 71.9162L112.901 75.2824L115.046 77.4252L115.658 82.9342L115.965 86.6087L119.334 89.057L121.65 88.8256L121.783 89.057L125.456 87.8336L130.358 87.5267L137.096 85.6895L139.851 85.3839L143.526 89.6695L146.588 94.873L151.49 98.2406L157.001 100.077L160.37 100.689L161.099 103.124L161.741 103.459L161.901 106.506L163.738 112.015L164.658 116.301L167.414 116.913L171.088 114.465L173.54 112.322L175.848 109.593L176.422 109.69L177.213 107.119L179.663 106.199L184.257 108.037L191.301 108.649L197.121 110.485L201.126 110.311L201.244 110.146L206 111.097L205.389 119.668L205.082 126.097L199.263 132.525L194.363 138.034L190.076 143.239L188.239 146.607L183.951 151.503L179.051 153.648L178.438 157.933L178.131 161.605L179.358 167.117L178.438 172.933L177.52 178.442L175.682 183.034L172.313 188.543L171.395 194.054L169.864 198.032L165.883 200.789L164.351 203.237L165.697 204.582L165.689 204.832L167.469 207.612L168.882 209.164L170.427 209.556L173.141 213.621L174.152 219.874L173.368 221.389L172.198 223.128L171.857 224.365L172.28 230.875L172.848 231.945L173.888 233.426L174.254 234.698L174.45 236.554L174.473 237.775L174.107 242.783L171.354 244.286L171.661 246.998L171.626 248.512L167.72 249L164.045 248.083L160.37 243.798L160.982 233.083L160.524 228.812L159.577 228.468L158.155 228.827L157.245 229.596L155.896 231.16L154.645 231.419L153.344 230.651L151.534 228.752L149.395 226.947L143.289 225.25L143.17 226.605L139.709 228.676L134.085 231.301L125.91 229.112L124.692 228.676L122.863 227.561L122.644 226.119L123.407 224.806L123.699 215.843L120.286 211.118L115.549 205.151L114.265 204.365L112.632 204.466L111.754 206.268L112.364 207.636L113.152 208.979L113.257 211.368L112.225 214.724L110.764 216.987L109.224 217.054L108.196 215.81L102.191 213.437L95.9403 214.674L94.4216 214.699L90.984 213.889L89.9999 213.221L88.6922 211.652L86.4484 208.864L85.6822 207.186L86.1236 204.574L86.4169 203.156L86.3347 200.812L85.3848 199.094L85.0037 197.85L85.5643 196.383L87.2092 194.499L91.9106 192.03L95.3715 190.38L98.5076 188.946L99.3698 187.746L99.7522 186.03L100.385 184.971L104.619 180.506L105.595 179.816L106.895 179.05L107.878 177.202L109.431 172.139L109.876 169.876L110.016 162.221L109.82 160.775L109.431 159.528L107.318 155.464L105.741 152.494L105.091 151.48L101.742 148.206L98.3143 146.013L91.1293 143.508L78.4204 137.093L69.3835 131.232L67.3399 130.156L61.6392 128.063L57.5025 128.262L55.5986 129.033L48.8961 128.852L42.1523 128.655L38.9765 126.304L38.0198 125.094L38.3309 123.647L35.5731 119.056L31.5927 113.853L30.0616 107.73L27.3052 101.303L23.6304 94.5675L19.3443 91.7123L18.8934 90.049L16.969 86.0087L16.2055 85.0825L13.0378 82.0889L12.0414 82.8095L8.98476 79.3049L1.187 63.9026L0 61.2996L0.492084 61.331L0.634598 59.0239L6.78619 57.3742L10.768 57.0688L13.5231 57.6811L15.0706 58.969L15.1542 58.943L16.5865 61.9668L18.4246 63.4972L22.7107 60.4364L26.9982 57.0688L31.5927 53.3956L34.3491 49.7211L31.8997 43.9052L29.4489 40.2334L28.8362 38.0892L27.2476 35.7807L24.2431 35.0285L22.4051 33.8037L21.4867 28.907L22.2433 25.7326L21.7841 25.5709L23.0177 21.2538L24.1527 17.0943L24.5282 16.7039L25.6316 15.3379L26.3142 14.3652L27.2572 12.817L29.4188 8.37113L30.1014 6.55987L30.5935 4.75141L31.849 5.26243L41.0558 4.17187L42.4868 3.97594L46.7112 3.31696L48.8084 2.95525L50.7095 2.3949L52.1884 1.86055L53.444 0.831623L57.9014 0L59.5846 3.97594Z" fill="#E9ECF2"/>
<path d="M59.5846 3.97594L61.1595 5.27614L65.7759 7.76144L73.9177 8.6835L78.0311 10.4783L80.9397 11.2441L83.2397 10.5769L87.3353 7.90941L90.5851 4.96239L97.2082 2.67436L97.8949 2.77852V7.93679L96.6696 14.979L93.9145 19.5687L89.9327 23.8556L88.096 25.9984L92.0764 30.5895L93.1579 32.4172L92.6329 34.8093L94.5272 37.0192L95.7526 43.4462L100.651 45.8945L106.164 49.8759L109.532 54.467L111.37 58.7526L115.965 60.8953L114.414 63.9931L114.793 64.0931L115.122 64.3452L113.208 66.0989L108.921 69.4651L110.452 71.9162L112.901 75.2824L115.046 77.4252L115.658 82.9342L115.965 86.6087L119.334 89.057L121.65 88.8256L121.783 89.057L125.456 87.8336L130.358 87.5267L137.096 85.6895L139.851 85.3839L143.526 89.6695L146.588 94.873L151.49 98.2406L157.001 100.077L160.37 100.689L161.099 103.124L161.741 103.459L161.901 106.506L163.738 112.015L164.658 116.301L167.414 116.913L171.088 114.465L173.54 112.322L175.848 109.593L176.422 109.69L177.213 107.119L179.663 106.199L184.257 108.037L191.301 108.649L197.121 110.485L201.126 110.311L201.244 110.146L206 111.097L205.389 119.668L205.082 126.097L199.263 132.525L194.363 138.034L190.076 143.239L188.239 146.607L183.951 151.503L179.051 153.648L178.438 157.933L178.131 161.605L179.358 167.117L178.438 172.933L177.52 178.442L175.682 183.034L172.313 188.543L171.395 194.054L169.864 198.032L165.883 200.789L164.351 203.237L165.697 204.582L165.689 204.832L167.469 207.612L168.882 209.164L170.427 209.556L173.141 213.621L174.152 219.874L173.368 221.389L172.198 223.128L171.857 224.365L172.28 230.875L172.848 231.945L173.888 233.426L174.254 234.698L174.45 236.554L174.473 237.775L174.107 242.783L171.354 244.286L171.661 246.998L171.626 248.512L167.72 249L164.045 248.083L160.37 243.798L160.982 233.083L160.524 228.812L159.577 228.468L158.155 228.827L157.245 229.596L155.896 231.16L154.645 231.419L153.344 230.651L151.534 228.752L149.395 226.947L143.289 225.25L143.17 226.605L139.709 228.676L134.085 231.301L125.91 229.112L124.692 228.676L122.863 227.561L122.644 226.119L123.407 224.806L123.699 215.843L120.286 211.118L115.549 205.151L114.265 204.365L112.632 204.466L111.754 206.268L112.364 207.636L113.152 208.979L113.257 211.368L112.225 214.724L110.764 216.987L109.224 217.054L108.196 215.81L102.191 213.437L95.9403 214.674L94.4216 214.699L90.984 213.889L89.9999 213.221L88.6922 211.652L86.4484 208.864L85.6822 207.186L86.1236 204.574L86.4169 203.156L86.3347 200.812L85.3848 199.094L85.0037 197.85L85.5643 196.383L87.2092 194.499L91.9106 192.03L95.3715 190.38L98.5076 188.946L99.3698 187.746L99.7522 186.03L100.385 184.971L104.619 180.506L105.595 179.816L106.895 179.05L107.878 177.202L109.431 172.139L109.876 169.876L110.016 162.221L109.82 160.775L109.431 159.528L107.318 155.464L105.741 152.494L105.091 151.48L101.742 148.206L98.3143 146.013L91.1293 143.508L78.4204 137.093L69.3835 131.232L67.3399 130.156L61.6392 128.063L57.5025 128.262L55.5986 129.033L48.8961 128.852L42.1523 128.655L38.9765 126.304L38.0198 125.094L38.3309 123.647L35.5731 119.056L31.5927 113.853L30.0616 107.73L27.3052 101.303L23.6304 94.5675L19.3443 91.7123L18.8934 90.049L16.969 86.0087L16.2055 85.0825L13.0378 82.0889L12.0414 82.8095L8.98476 79.3049L1.187 63.9026L0 61.2996L0.492084 61.331L0.634598 59.0239L6.78619 57.3742L10.768 57.0688L13.5231 57.6811L15.0706 58.969L15.1542 58.943L16.5865 61.9668L18.4246 63.4972L22.7107 60.4364L26.9982 57.0688L31.5927 53.3956L34.3491 49.7211L31.8997 43.9052L29.4489 40.2334L28.8362 38.0892L27.2476 35.7807L24.2431 35.0285L22.4051 33.8037L21.4867 28.907L22.2433 25.7326L21.7841 25.5709L23.0177 21.2538L24.1527 17.0943L24.5282 16.7039L25.6316 15.3379L26.3142 14.3652L27.2572 12.817L29.4188 8.37113L30.1014 6.55987L30.5935 4.75141L31.849 5.26243L41.0558 4.17187L42.4868 3.97594L46.7112 3.31696L48.8084 2.95525L50.7095 2.3949L52.1884 1.86055L53.444 0.831623L57.9014 0L59.5846 3.97594Z" stroke="#8F959D" stroke-width="4" mask="url(#path-1-inside-1_8895_6822)"/>
<path d="M59.5846 3.97594L61.1595 5.27614L65.7759 7.76144L73.9177 8.6835L78.0311 10.4783L80.9397 11.2441L83.2397 10.5769L87.3353 7.90941L90.5851 4.96239L97.2082 2.67436L97.8949 2.77852V7.93679L96.6696 14.979L93.9145 19.5687L89.9327 23.8556L88.096 25.9984L92.0764 30.5895L93.1579 32.4172L92.6329 34.8093L94.5272 37.0192L95.7526 43.4462L100.651 45.8945L106.164 49.8759L109.532 54.467L111.37 58.7526L115.965 60.8953L114.414 63.9931L114.793 64.0931L115.122 64.3452L113.208 66.0989L108.921 69.4651L110.452 71.9162L112.901 75.2824L115.046 77.4252L115.658 82.9342L115.965 86.6087L119.334 89.057L121.65 88.8256L121.783 89.057L125.456 87.8336L130.358 87.5267L137.096 85.6895L139.851 85.3839L143.526 89.6695L146.588 94.873L151.49 98.2406L157.001 100.077L160.37 100.689L161.099 103.124L161.741 103.459L161.901 106.506L163.738 112.015L164.658 116.301L167.414 116.913L171.088 114.465L173.54 112.322L175.848 109.593L176.422 109.69L177.213 107.119L179.663 106.199L184.257 108.037L191.301 108.649L197.121 110.485L201.126 110.311L201.244 110.146L206 111.097L205.389 119.668L205.082 126.097L199.263 132.525L194.363 138.034L190.076 143.239L188.239 146.607L183.951 151.503L179.051 153.648L178.438 157.933L178.131 161.605L179.358 167.117L178.438 172.933L177.52 178.442L175.682 183.034L172.313 188.543L171.395 194.054L169.864 198.032L165.883 200.789L164.351 203.237L165.697 204.582L165.689 204.832L167.469 207.612L168.882 209.164L170.427 209.556L173.141 213.621L174.152 219.874L173.368 221.389L172.198 223.128L171.857 224.365L172.28 230.875L172.848 231.945L173.888 233.426L174.254 234.698L174.45 236.554L174.473 237.775L174.107 242.783L171.354 244.286L171.661 246.998L171.626 248.512L167.72 249L164.045 248.083L160.37 243.798L160.982 233.083L160.524 228.812L159.577 228.468L158.155 228.827L157.245 229.596L155.896 231.16L154.645 231.419L153.344 230.651L151.534 228.752L149.395 226.947L143.289 225.25L143.17 226.605L139.709 228.676L134.085 231.301L125.91 229.112L124.692 228.676L122.863 227.561L122.644 226.119L123.407 224.806L123.699 215.843L120.286 211.118L115.549 205.151L114.265 204.365L112.632 204.466L111.754 206.268L112.364 207.636L113.152 208.979L113.257 211.368L112.225 214.724L110.764 216.987L109.224 217.054L108.196 215.81L102.191 213.437L95.9403 214.674L94.4216 214.699L90.984 213.889L89.9999 213.221L88.6922 211.652L86.4484 208.864L85.6822 207.186L86.1236 204.574L86.4169 203.156L86.3347 200.812L85.3848 199.094L85.0037 197.85L85.5643 196.383L87.2092 194.499L91.9106 192.03L95.3715 190.38L98.5076 188.946L99.3698 187.746L99.7522 186.03L100.385 184.971L104.619 180.506L105.595 179.816L106.895 179.05L107.878 177.202L109.431 172.139L109.876 169.876L110.016 162.221L109.82 160.775L109.431 159.528L107.318 155.464L105.741 152.494L105.091 151.48L101.742 148.206L98.3143 146.013L91.1293 143.508L78.4204 137.093L69.3835 131.232L67.3399 130.156L61.6392 128.063L57.5025 128.262L55.5986 129.033L48.8961 128.852L42.1523 128.655L38.9765 126.304L38.0198 125.094L38.3309 123.647L35.5731 119.056L31.5927 113.853L30.0616 107.73L27.3052 101.303L23.6304 94.5675L19.3443 91.7123L18.8934 90.049L16.969 86.0087L16.2055 85.0825L13.0378 82.0889L12.0414 82.8095L8.98476 79.3049L1.187 63.9026L0 61.2996L0.492084 61.331L0.634598 59.0239L6.78619 57.3742L10.768 57.0688L13.5231 57.6811L15.0706 58.969L15.1542 58.943L16.5865 61.9668L18.4246 63.4972L22.7107 60.4364L26.9982 57.0688L31.5927 53.3956L34.3491 49.7211L31.8997 43.9052L29.4489 40.2334L28.8362 38.0892L27.2476 35.7807L24.2431 35.0285L22.4051 33.8037L21.4867 28.907L22.2433 25.7326L21.7841 25.5709L23.0177 21.2538L24.1527 17.0943L24.5282 16.7039L25.6316 15.3379L26.3142 14.3652L27.2572 12.817L29.4188 8.37113L30.1014 6.55987L30.5935 4.75141L31.849 5.26243L41.0558 4.17187L42.4868 3.97594L46.7112 3.31696L48.8084 2.95525L50.7095 2.3949L52.1884 1.86055L53.444 0.831623L57.9014 0L59.5846 3.97594Z" stroke="black" stroke-opacity="0.2" stroke-width="4" mask="url(#path-1-inside-1_8895_6822)"/>
<path d="M59.5846 3.97594L61.1595 5.27614L65.7759 7.76144L73.9177 8.6835L78.0311 10.4783L80.9397 11.2441L83.2397 10.5769L87.3353 7.90941L90.5851 4.96239L97.2082 2.67436L97.8949 2.77852V7.93679L96.6696 14.979L93.9145 19.5687L89.9327 23.8556L88.096 25.9984L92.0764 30.5895L93.1579 32.4172L92.6329 34.8093L94.5272 37.0192L95.7526 43.4462L100.651 45.8945L106.164 49.8759L109.532 54.467L111.37 58.7526L115.965 60.8953L114.414 63.9931L114.793 64.0931L115.122 64.3452L113.208 66.0989L108.921 69.4651L110.452 71.9162L112.901 75.2824L115.046 77.4252L115.658 82.9342L115.965 86.6087L119.334 89.057L121.65 88.8256L121.783 89.057L125.456 87.8336L130.358 87.5267L137.096 85.6895L139.851 85.3839L143.526 89.6695L146.588 94.873L151.49 98.2406L157.001 100.077L160.37 100.689L161.099 103.124L161.741 103.459L161.901 106.506L163.738 112.015L164.658 116.301L167.414 116.913L171.088 114.465L173.54 112.322L175.848 109.593L176.422 109.69L177.213 107.119L179.663 106.199L184.257 108.037L191.301 108.649L197.121 110.485L201.126 110.311L201.244 110.146L206 111.097L205.389 119.668L205.082 126.097L199.263 132.525L194.363 138.034L190.076 143.239L188.239 146.607L183.951 151.503L179.051 153.648L178.438 157.933L178.131 161.605L179.358 167.117L178.438 172.933L177.52 178.442L175.682 183.034L172.313 188.543L171.395 194.054L169.864 198.032L165.883 200.789L164.351 203.237L165.697 204.582L165.689 204.832L167.469 207.612L168.882 209.164L170.427 209.556L173.141 213.621L174.152 219.874L173.368 221.389L172.198 223.128L171.857 224.365L172.28 230.875L172.848 231.945L173.888 233.426L174.254 234.698L174.45 236.554L174.473 237.775L174.107 242.783L171.354 244.286L171.661 246.998L171.626 248.512L167.72 249L164.045 248.083L160.37 243.798L160.982 233.083L160.524 228.812L159.577 228.468L158.155 228.827L157.245 229.596L155.896 231.16L154.645 231.419L153.344 230.651L151.534 228.752L149.395 226.947L143.289 225.25L143.17 226.605L139.709 228.676L134.085 231.301L125.91 229.112L124.692 228.676L122.863 227.561L122.644 226.119L123.407 224.806L123.699 215.843L120.286 211.118L115.549 205.151L114.265 204.365L112.632 204.466L111.754 206.268L112.364 207.636L113.152 208.979L113.257 211.368L112.225 214.724L110.764 216.987L109.224 217.054L108.196 215.81L102.191 213.437L95.9403 214.674L94.4216 214.699L90.984 213.889L89.9999 213.221L88.6922 211.652L86.4484 208.864L85.6822 207.186L86.1236 204.574L86.4169 203.156L86.3347 200.812L85.3848 199.094L85.0037 197.85L85.5643 196.383L87.2092 194.499L91.9106 192.03L95.3715 190.38L98.5076 188.946L99.3698 187.746L99.7522 186.03L100.385 184.971L104.619 180.506L105.595 179.816L106.895 179.05L107.878 177.202L109.431 172.139L109.876 169.876L110.016 162.221L109.82 160.775L109.431 159.528L107.318 155.464L105.741 152.494L105.091 151.48L101.742 148.206L98.3143 146.013L91.1293 143.508L78.4204 137.093L69.3835 131.232L67.3399 130.156L61.6392 128.063L57.5025 128.262L55.5986 129.033L48.8961 128.852L42.1523 128.655L38.9765 126.304L38.0198 125.094L38.3309 123.647L35.5731 119.056L31.5927 113.853L30.0616 107.73L27.3052 101.303L23.6304 94.5675L19.3443 91.7123L18.8934 90.049L16.969 86.0087L16.2055 85.0825L13.0378 82.0889L12.0414 82.8095L8.98476 79.3049L1.187 63.9026L0 61.2996L0.492084 61.331L0.634598 59.0239L6.78619 57.3742L10.768 57.0688L13.5231 57.6811L15.0706 58.969L15.1542 58.943L16.5865 61.9668L18.4246 63.4972L22.7107 60.4364L26.9982 57.0688L31.5927 53.3956L34.3491 49.7211L31.8997 43.9052L29.4489 40.2334L28.8362 38.0892L27.2476 35.7807L24.2431 35.0285L22.4051 33.8037L21.4867 28.907L22.2433 25.7326L21.7841 25.5709L23.0177 21.2538L24.1527 17.0943L24.5282 16.7039L25.6316 15.3379L26.3142 14.3652L27.2572 12.817L29.4188 8.37113L30.1014 6.55987L30.5935 4.75141L31.849 5.26243L41.0558 4.17187L42.4868 3.97594L46.7112 3.31696L48.8084 2.95525L50.7095 2.3949L52.1884 1.86055L53.444 0.831623L57.9014 0L59.5846 3.97594Z" stroke="black" stroke-opacity="0.2" stroke-width="4" mask="url(#path-1-inside-1_8895_6822)"/>
<path d="M59.5846 3.97594L61.1595 5.27614L65.7759 7.76144L73.9177 8.6835L78.0311 10.4783L80.9397 11.2441L83.2397 10.5769L87.3353 7.90941L90.5851 4.96239L97.2082 2.67436L97.8949 2.77852V7.93679L96.6696 14.979L93.9145 19.5687L89.9327 23.8556L88.096 25.9984L92.0764 30.5895L93.1579 32.4172L92.6329 34.8093L94.5272 37.0192L95.7526 43.4462L100.651 45.8945L106.164 49.8759L109.532 54.467L111.37 58.7526L115.965 60.8953L114.414 63.9931L114.793 64.0931L115.122 64.3452L113.208 66.0989L108.921 69.4651L110.452 71.9162L112.901 75.2824L115.046 77.4252L115.658 82.9342L115.965 86.6087L119.334 89.057L121.65 88.8256L121.783 89.057L125.456 87.8336L130.358 87.5267L137.096 85.6895L139.851 85.3839L143.526 89.6695L146.588 94.873L151.49 98.2406L157.001 100.077L160.37 100.689L161.099 103.124L161.741 103.459L161.901 106.506L163.738 112.015L164.658 116.301L167.414 116.913L171.088 114.465L173.54 112.322L175.848 109.593L176.422 109.69L177.213 107.119L179.663 106.199L184.257 108.037L191.301 108.649L197.121 110.485L201.126 110.311L201.244 110.146L206 111.097L205.389 119.668L205.082 126.097L199.263 132.525L194.363 138.034L190.076 143.239L188.239 146.607L183.951 151.503L179.051 153.648L178.438 157.933L178.131 161.605L179.358 167.117L178.438 172.933L177.52 178.442L175.682 183.034L172.313 188.543L171.395 194.054L169.864 198.032L165.883 200.789L164.351 203.237L165.697 204.582L165.689 204.832L167.469 207.612L168.882 209.164L170.427 209.556L173.141 213.621L174.152 219.874L173.368 221.389L172.198 223.128L171.857 224.365L172.28 230.875L172.848 231.945L173.888 233.426L174.254 234.698L174.45 236.554L174.473 237.775L174.107 242.783L171.354 244.286L171.661 246.998L171.626 248.512L167.72 249L164.045 248.083L160.37 243.798L160.982 233.083L160.524 228.812L159.577 228.468L158.155 228.827L157.245 229.596L155.896 231.16L154.645 231.419L153.344 230.651L151.534 228.752L149.395 226.947L143.289 225.25L143.17 226.605L139.709 228.676L134.085 231.301L125.91 229.112L124.692 228.676L122.863 227.561L122.644 226.119L123.407 224.806L123.699 215.843L120.286 211.118L115.549 205.151L114.265 204.365L112.632 204.466L111.754 206.268L112.364 207.636L113.152 208.979L113.257 211.368L112.225 214.724L110.764 216.987L109.224 217.054L108.196 215.81L102.191 213.437L95.9403 214.674L94.4216 214.699L90.984 213.889L89.9999 213.221L88.6922 211.652L86.4484 208.864L85.6822 207.186L86.1236 204.574L86.4169 203.156L86.3347 200.812L85.3848 199.094L85.0037 197.85L85.5643 196.383L87.2092 194.499L91.9106 192.03L95.3715 190.38L98.5076 188.946L99.3698 187.746L99.7522 186.03L100.385 184.971L104.619 180.506L105.595 179.816L106.895 179.05L107.878 177.202L109.431 172.139L109.876 169.876L110.016 162.221L109.82 160.775L109.431 159.528L107.318 155.464L105.741 152.494L105.091 151.48L101.742 148.206L98.3143 146.013L91.1293 143.508L78.4204 137.093L69.3835 131.232L67.3399 130.156L61.6392 128.063L57.5025 128.262L55.5986 129.033L48.8961 128.852L42.1523 128.655L38.9765 126.304L38.0198 125.094L38.3309 123.647L35.5731 119.056L31.5927 113.853L30.0616 107.73L27.3052 101.303L23.6304 94.5675L19.3443 91.7123L18.8934 90.049L16.969 86.0087L16.2055 85.0825L13.0378 82.0889L12.0414 82.8095L8.98476 79.3049L1.187 63.9026L0 61.2996L0.492084 61.331L0.634598 59.0239L6.78619 57.3742L10.768 57.0688L13.5231 57.6811L15.0706 58.969L15.1542 58.943L16.5865 61.9668L18.4246 63.4972L22.7107 60.4364L26.9982 57.0688L31.5927 53.3956L34.3491 49.7211L31.8997 43.9052L29.4489 40.2334L28.8362 38.0892L27.2476 35.7807L24.2431 35.0285L22.4051 33.8037L21.4867 28.907L22.2433 25.7326L21.7841 25.5709L23.0177 21.2538L24.1527 17.0943L24.5282 16.7039L25.6316 15.3379L26.3142 14.3652L27.2572 12.817L29.4188 8.37113L30.1014 6.55987L30.5935 4.75141L31.849 5.26243L41.0558 4.17187L42.4868 3.97594L46.7112 3.31696L48.8084 2.95525L50.7095 2.3949L52.1884 1.86055L53.444 0.831623L57.9014 0L59.5846 3.97594Z" stroke="black" stroke-opacity="0.2" stroke-width="4" mask="url(#path-1-inside-1_8895_6822)"/>
<path d="M59.5846 3.97594L61.1595 5.27614L65.7759 7.76144L73.9177 8.6835L78.0311 10.4783L80.9397 11.2441L83.2397 10.5769L87.3353 7.90941L90.5851 4.96239L97.2082 2.67436L97.8949 2.77852V7.93679L96.6696 14.979L93.9145 19.5687L89.9327 23.8556L88.096 25.9984L92.0764 30.5895L93.1579 32.4172L92.6329 34.8093L94.5272 37.0192L95.7526 43.4462L100.651 45.8945L106.164 49.8759L109.532 54.467L111.37 58.7526L115.965 60.8953L114.414 63.9931L114.793 64.0931L115.122 64.3452L113.208 66.0989L108.921 69.4651L110.452 71.9162L112.901 75.2824L115.046 77.4252L115.658 82.9342L115.965 86.6087L119.334 89.057L121.65 88.8256L121.783 89.057L125.456 87.8336L130.358 87.5267L137.096 85.6895L139.851 85.3839L143.526 89.6695L146.588 94.873L151.49 98.2406L157.001 100.077L160.37 100.689L161.099 103.124L161.741 103.459L161.901 106.506L163.738 112.015L164.658 116.301L167.414 116.913L171.088 114.465L173.54 112.322L175.848 109.593L176.422 109.69L177.213 107.119L179.663 106.199L184.257 108.037L191.301 108.649L197.121 110.485L201.126 110.311L201.244 110.146L206 111.097L205.389 119.668L205.082 126.097L199.263 132.525L194.363 138.034L190.076 143.239L188.239 146.607L183.951 151.503L179.051 153.648L178.438 157.933L178.131 161.605L179.358 167.117L178.438 172.933L177.52 178.442L175.682 183.034L172.313 188.543L171.395 194.054L169.864 198.032L165.883 200.789L164.351 203.237L165.697 204.582L165.689 204.832L167.469 207.612L168.882 209.164L170.427 209.556L173.141 213.621L174.152 219.874L173.368 221.389L172.198 223.128L171.857 224.365L172.28 230.875L172.848 231.945L173.888 233.426L174.254 234.698L174.45 236.554L174.473 237.775L174.107 242.783L171.354 244.286L171.661 246.998L171.626 248.512L167.72 249L164.045 248.083L160.37 243.798L160.982 233.083L160.524 228.812L159.577 228.468L158.155 228.827L157.245 229.596L155.896 231.16L154.645 231.419L153.344 230.651L151.534 228.752L149.395 226.947L143.289 225.25L143.17 226.605L139.709 228.676L134.085 231.301L125.91 229.112L124.692 228.676L122.863 227.561L122.644 226.119L123.407 224.806L123.699 215.843L120.286 211.118L115.549 205.151L114.265 204.365L112.632 204.466L111.754 206.268L112.364 207.636L113.152 208.979L113.257 211.368L112.225 214.724L110.764 216.987L109.224 217.054L108.196 215.81L102.191 213.437L95.9403 214.674L94.4216 214.699L90.984 213.889L89.9999 213.221L88.6922 211.652L86.4484 208.864L85.6822 207.186L86.1236 204.574L86.4169 203.156L86.3347 200.812L85.3848 199.094L85.0037 197.85L85.5643 196.383L87.2092 194.499L91.9106 192.03L95.3715 190.38L98.5076 188.946L99.3698 187.746L99.7522 186.03L100.385 184.971L104.619 180.506L105.595 179.816L106.895 179.05L107.878 177.202L109.431 172.139L109.876 169.876L110.016 162.221L109.82 160.775L109.431 159.528L107.318 155.464L105.741 152.494L105.091 151.48L101.742 148.206L98.3143 146.013L91.1293 143.508L78.4204 137.093L69.3835 131.232L67.3399 130.156L61.6392 128.063L57.5025 128.262L55.5986 129.033L48.8961 128.852L42.1523 128.655L38.9765 126.304L38.0198 125.094L38.3309 123.647L35.5731 119.056L31.5927 113.853L30.0616 107.73L27.3052 101.303L23.6304 94.5675L19.3443 91.7123L18.8934 90.049L16.969 86.0087L16.2055 85.0825L13.0378 82.0889L12.0414 82.8095L8.98476 79.3049L1.187 63.9026L0 61.2996L0.492084 61.331L0.634598 59.0239L6.78619 57.3742L10.768 57.0688L13.5231 57.6811L15.0706 58.969L15.1542 58.943L16.5865 61.9668L18.4246 63.4972L22.7107 60.4364L26.9982 57.0688L31.5927 53.3956L34.3491 49.7211L31.8997 43.9052L29.4489 40.2334L28.8362 38.0892L27.2476 35.7807L24.2431 35.0285L22.4051 33.8037L21.4867 28.907L22.2433 25.7326L21.7841 25.5709L23.0177 21.2538L24.1527 17.0943L24.5282 16.7039L25.6316 15.3379L26.3142 14.3652L27.2572 12.817L29.4188 8.37113L30.1014 6.55987L30.5935 4.75141L31.849 5.26243L41.0558 4.17187L42.4868 3.97594L46.7112 3.31696L48.8084 2.95525L50.7095 2.3949L52.1884 1.86055L53.444 0.831623L57.9014 0L59.5846 3.97594Z" stroke="black" stroke-opacity="0.2" stroke-width="4" mask="url(#path-1-inside-1_8895_6822)"/>
<path d="M59.5846 3.97594L61.1595 5.27614L65.7759 7.76144L73.9177 8.6835L78.0311 10.4783L80.9397 11.2441L83.2397 10.5769L87.3353 7.90941L90.5851 4.96239L97.2082 2.67436L97.8949 2.77852V7.93679L96.6696 14.979L93.9145 19.5687L89.9327 23.8556L88.096 25.9984L92.0764 30.5895L93.1579 32.4172L92.6329 34.8093L94.5272 37.0192L95.7526 43.4462L100.651 45.8945L106.164 49.8759L109.532 54.467L111.37 58.7526L115.965 60.8953L114.414 63.9931L114.793 64.0931L115.122 64.3452L113.208 66.0989L108.921 69.4651L110.452 71.9162L112.901 75.2824L115.046 77.4252L115.658 82.9342L115.965 86.6087L119.334 89.057L121.65 88.8256L121.783 89.057L125.456 87.8336L130.358 87.5267L137.096 85.6895L139.851 85.3839L143.526 89.6695L146.588 94.873L151.49 98.2406L157.001 100.077L160.37 100.689L161.099 103.124L161.741 103.459L161.901 106.506L163.738 112.015L164.658 116.301L167.414 116.913L171.088 114.465L173.54 112.322L175.848 109.593L176.422 109.69L177.213 107.119L179.663 106.199L184.257 108.037L191.301 108.649L197.121 110.485L201.126 110.311L201.244 110.146L206 111.097L205.389 119.668L205.082 126.097L199.263 132.525L194.363 138.034L190.076 143.239L188.239 146.607L183.951 151.503L179.051 153.648L178.438 157.933L178.131 161.605L179.358 167.117L178.438 172.933L177.52 178.442L175.682 183.034L172.313 188.543L171.395 194.054L169.864 198.032L165.883 200.789L164.351 203.237L165.697 204.582L165.689 204.832L167.469 207.612L168.882 209.164L170.427 209.556L173.141 213.621L174.152 219.874L173.368 221.389L172.198 223.128L171.857 224.365L172.28 230.875L172.848 231.945L173.888 233.426L174.254 234.698L174.45 236.554L174.473 237.775L174.107 242.783L171.354 244.286L171.661 246.998L171.626 248.512L167.72 249L164.045 248.083L160.37 243.798L160.982 233.083L160.524 228.812L159.577 228.468L158.155 228.827L157.245 229.596L155.896 231.16L154.645 231.419L153.344 230.651L151.534 228.752L149.395 226.947L143.289 225.25L143.17 226.605L139.709 228.676L134.085 231.301L125.91 229.112L124.692 228.676L122.863 227.561L122.644 226.119L123.407 224.806L123.699 215.843L120.286 211.118L115.549 205.151L114.265 204.365L112.632 204.466L111.754 206.268L112.364 207.636L113.152 208.979L113.257 211.368L112.225 214.724L110.764 216.987L109.224 217.054L108.196 215.81L102.191 213.437L95.9403 214.674L94.4216 214.699L90.984 213.889L89.9999 213.221L88.6922 211.652L86.4484 208.864L85.6822 207.186L86.1236 204.574L86.4169 203.156L86.3347 200.812L85.3848 199.094L85.0037 197.85L85.5643 196.383L87.2092 194.499L91.9106 192.03L95.3715 190.38L98.5076 188.946L99.3698 187.746L99.7522 186.03L100.385 184.971L104.619 180.506L105.595 179.816L106.895 179.05L107.878 177.202L109.431 172.139L109.876 169.876L110.016 162.221L109.82 160.775L109.431 159.528L107.318 155.464L105.741 152.494L105.091 151.48L101.742 148.206L98.3143 146.013L91.1293 143.508L78.4204 137.093L69.3835 131.232L67.3399 130.156L61.6392 128.063L57.5025 128.262L55.5986 129.033L48.8961 128.852L42.1523 128.655L38.9765 126.304L38.0198 125.094L38.3309 123.647L35.5731 119.056L31.5927 113.853L30.0616 107.73L27.3052 101.303L23.6304 94.5675L19.3443 91.7123L18.8934 90.049L16.969 86.0087L16.2055 85.0825L13.0378 82.0889L12.0414 82.8095L8.98476 79.3049L1.187 63.9026L0 61.2996L0.492084 61.331L0.634598 59.0239L6.78619 57.3742L10.768 57.0688L13.5231 57.6811L15.0706 58.969L15.1542 58.943L16.5865 61.9668L18.4246 63.4972L22.7107 60.4364L26.9982 57.0688L31.5927 53.3956L34.3491 49.7211L31.8997 43.9052L29.4489 40.2334L28.8362 38.0892L27.2476 35.7807L24.2431 35.0285L22.4051 33.8037L21.4867 28.907L22.2433 25.7326L21.7841 25.5709L23.0177 21.2538L24.1527 17.0943L24.5282 16.7039L25.6316 15.3379L26.3142 14.3652L27.2572 12.817L29.4188 8.37113L30.1014 6.55987L30.5935 4.75141L31.849 5.26243L41.0558 4.17187L42.4868 3.97594L46.7112 3.31696L48.8084 2.95525L50.7095 2.3949L52.1884 1.86055L53.444 0.831623L57.9014 0L59.5846 3.97594Z" stroke="black" stroke-opacity="0.2" stroke-width="4" mask="url(#path-1-inside-1_8895_6822)"/>
</svg>
