<svg width="220" height="249" viewBox="0 0 220 249" fill="none" xmlns="http://www.w3.org/2000/svg">
<rect width="220" height="249" fill="white"/>
<path d="M67.587 7.8482L69.1091 9.10663L73.5708 11.5121L81.4396 12.4045L85.4151 14.1416L88.2262 14.8829L90.4491 14.2371L94.4073 11.6553L97.5482 8.80296L103.949 6.58844L104.613 6.68925V11.6818L103.429 18.4977L100.766 22.94L96.9177 27.0892L95.1426 29.1631L98.9895 33.6067L100.035 35.3756L99.5274 37.6909L101.358 39.8298L102.542 46.0503L107.277 48.42L112.605 52.2735L115.86 56.7171L117.636 60.865L122.077 62.9389L120.579 65.9371L120.944 66.0339L121.262 66.2779L119.413 67.9752L115.269 71.2333L116.749 73.6056L119.116 76.8637L121.189 78.9376L121.78 84.2697L122.077 87.8261L125.333 90.1958L127.572 89.9717L127.7 90.1958L131.25 89.0117L135.988 88.7146L142.5 86.9364L145.163 86.6407L148.714 90.7885L151.674 95.8248L156.411 99.0843L161.738 100.861L164.994 101.454L165.699 103.81L166.319 104.135L166.474 107.084L168.249 112.416L169.138 116.564L171.802 117.157L175.352 114.787L177.722 112.713L179.953 110.072L180.508 110.166L181.272 107.677L183.639 106.787L188.08 108.566L194.887 109.158L200.512 110.935L204.383 110.767L204.497 110.608L209.094 111.528L208.503 119.824L208.206 126.046L202.583 132.267L197.847 137.599L193.703 142.637L191.928 145.896L187.784 150.636L183.048 152.711L182.456 156.859L182.16 160.413L183.345 165.747L182.456 171.376L181.569 176.709L179.792 181.153L176.536 186.485L175.649 191.819L174.169 195.67L170.322 198.338L168.841 200.707L170.142 202.01L170.134 202.251L171.855 204.941L173.22 206.444L174.713 206.823L177.336 210.757L178.314 216.81L177.556 218.276L176.425 219.959L176.095 221.156L176.504 227.458L177.053 228.493L178.058 229.927L178.412 231.157L178.601 232.954L178.624 234.136L178.27 238.982L175.609 240.437L175.906 243.063L175.872 244.528L172.097 245L168.545 244.113L164.994 239.965L165.585 229.594L165.142 225.461L164.227 225.128L162.853 225.475L161.973 226.219L160.67 227.734L159.46 227.984L158.203 227.24L156.453 225.402L154.387 223.656L148.485 222.013L148.37 223.324L145.025 225.329L139.59 227.87L131.689 225.751L130.511 225.329L128.744 224.25L128.532 222.854L129.27 221.583L129.552 212.908L126.254 208.335L121.675 202.56L120.434 201.799L118.856 201.897L118.007 203.641L118.597 204.965L119.358 206.265L119.46 208.577L118.463 211.825L117.051 214.016L115.562 214.081L114.568 212.877L108.765 210.58L102.724 211.777L101.256 211.801L97.9337 211.017L96.9826 210.37L95.7188 208.852L93.5502 206.153L92.8097 204.529L93.2363 202.002L93.5198 200.629L93.4403 198.36L92.5223 196.697L92.154 195.493L92.6958 194.073L94.2855 192.25L98.8292 189.86L102.174 188.264L105.205 186.875L106.038 185.714L106.408 184.054L107.02 183.028L111.112 178.707L112.055 178.039L113.311 177.297L114.261 175.508L115.762 170.609L116.192 168.418L116.328 161.009L116.138 159.609L115.762 158.402L113.72 154.469L112.196 151.594L111.568 150.613L108.331 147.444L105.018 145.322L98.0741 142.897L85.7913 136.688L77.0574 131.016L75.0823 129.975L69.5728 127.948L65.5747 128.141L63.7347 128.887L57.2568 128.712L50.7392 128.521L47.6698 126.246L46.7452 125.075L47.0459 123.675L44.3805 119.231L40.5335 114.195L39.0538 108.269L36.3898 102.048L32.8382 95.5292L28.6958 92.7657L28.26 91.1558L26.4001 87.2453L25.6622 86.3489L22.6007 83.4515L21.6377 84.149L18.6835 80.757L11.1472 65.8495L10 63.3301L10.4756 63.3605L10.6133 61.1275L16.5587 59.5309L20.407 59.2352L23.0697 59.8279L24.5653 61.0744L24.6461 61.0493L26.0304 63.9759L27.8069 65.4571L31.9493 62.4947L36.093 59.2352L40.5335 55.6801L43.1975 52.1236L40.8303 46.4946L38.4616 42.9407L37.8695 40.8655L36.3342 38.6311L33.4304 37.9031L31.6539 36.7176L30.7663 31.9783L31.4976 28.9059L31.0538 28.7494L32.2461 24.571L33.3429 20.5451L33.7059 20.1672L34.7723 18.8451L35.432 17.9036L36.3434 16.4052L38.4325 12.1022L39.0922 10.3491L39.5678 8.59876L40.7812 9.09336L49.6794 8.03783L51.0624 7.8482L55.1452 7.21039L57.172 6.8603L59.0094 6.31795L60.4388 5.80078L61.6522 4.8049L65.9603 4L67.587 7.8482Z" fill="#E9ECF2" stroke="#8F959D" stroke-width="2"/>
</svg>
