<svg width="169" height="249" viewBox="0 0 169 249" fill="none" xmlns="http://www.w3.org/2000/svg">
<mask id="path-1-inside-1_8895_6819" fill="white">
<path d="M46.1978 0L51.9296 2.08458H61.835L62.5768 4.68265L63.0224 4.61042L62.1989 9.38881V15.6471L60.6359 24.513L56.4647 31.8149L52.2959 37.5503L55.422 41.7264L58.667 41.5537L59.0869 43.0174L60.8832 43.965L63.3444 43.9371L66.5404 43.6266L71.1058 43.4282L71.9317 43.4819L75.7505 40.6806L80.9645 36.5092L87.2189 35.9886L90.345 39.1167L90.8676 43.811L89.3722 48.0011L90.1934 48.3419L90.191 50.779L88.698 54.2596L87.5642 55.9566L85.488 57.4857L82.9661 60.5576L85.3783 72.7639L82.1823 78.8682L82.6675 88.7658L85.6956 94.2049L95.8622 98.9669L96.4291 99.0509L98.685 102.746L107.025 107.441H113.186L113.921 108.288L117.971 106.399H125.268L127.711 107.149L126.831 125.175L125.791 137.168L123.182 143.429L124.748 154.38L128.917 165.855L132.92 166.163L133.053 166.721L139.844 166.005L142.174 164.088L143.38 162.419L147.16 163.771L150.288 167.942L156.02 178.895L161.754 190.368L168.372 196.09L168.627 196.697L169 199.771V204.666L168.666 207.201L167.782 210.649L165.407 215.238L164.637 215.547L164.421 214.862L155.273 216.272L150.757 218.534L141.374 223.749L133.557 233.659L130.428 243.047L128.114 249L127.755 248.619L122.569 239.819L115.225 229.055L113.926 227.459L112.265 225.577L108.751 222.337L98.7923 215.262L88.0891 199.059L86.2485 196.923L83.6217 194.874L81.2841 193.538L77.4395 191.687L67.0093 185.597L54.5611 178.23L45.1853 170.545L44.8797 166.717L44.3688 162.723L40.0553 152.15L31.6034 143.646L29.9983 142.397L26.8116 135.908L24.6048 127.437L18.2967 121.68L15.6839 120.032L8.1487 116.827L8.76691 93.9947L4.5001 91.273L0 89.772L1.57003 84.6153L5.80184 83.0444L8.47765 84.4006L11.3797 88.6397L14.8674 79.7319L15.7538 76.6459L18.4903 67.0214L19.2392 61.2766L20.5246 48.6735L18.9895 44.6444L14.1348 35.8649L13.323 35.0269L12.5881 33.9834L12.8378 29.2447L16.4887 26.077L20.6575 16.6906L27.4322 12.5168L34.7294 7.29953L39.9434 2.60747L46.1978 0Z"/>
</mask>
<path d="M46.1978 0L51.9296 2.08458H61.835L62.5768 4.68265L63.0224 4.61042L62.1989 9.38881V15.6471L60.6359 24.513L56.4647 31.8149L52.2959 37.5503L55.422 41.7264L58.667 41.5537L59.0869 43.0174L60.8832 43.965L63.3444 43.9371L66.5404 43.6266L71.1058 43.4282L71.9317 43.4819L75.7505 40.6806L80.9645 36.5092L87.2189 35.9886L90.345 39.1167L90.8676 43.811L89.3722 48.0011L90.1934 48.3419L90.191 50.779L88.698 54.2596L87.5642 55.9566L85.488 57.4857L82.9661 60.5576L85.3783 72.7639L82.1823 78.8682L82.6675 88.7658L85.6956 94.2049L95.8622 98.9669L96.4291 99.0509L98.685 102.746L107.025 107.441H113.186L113.921 108.288L117.971 106.399H125.268L127.711 107.149L126.831 125.175L125.791 137.168L123.182 143.429L124.748 154.38L128.917 165.855L132.92 166.163L133.053 166.721L139.844 166.005L142.174 164.088L143.38 162.419L147.16 163.771L150.288 167.942L156.02 178.895L161.754 190.368L168.372 196.09L168.627 196.697L169 199.771V204.666L168.666 207.201L167.782 210.649L165.407 215.238L164.637 215.547L164.421 214.862L155.273 216.272L150.757 218.534L141.374 223.749L133.557 233.659L130.428 243.047L128.114 249L127.755 248.619L122.569 239.819L115.225 229.055L113.926 227.459L112.265 225.577L108.751 222.337L98.7923 215.262L88.0891 199.059L86.2485 196.923L83.6217 194.874L81.2841 193.538L77.4395 191.687L67.0093 185.597L54.5611 178.23L45.1853 170.545L44.8797 166.717L44.3688 162.723L40.0553 152.15L31.6034 143.646L29.9983 142.397L26.8116 135.908L24.6048 127.437L18.2967 121.68L15.6839 120.032L8.1487 116.827L8.76691 93.9947L4.5001 91.273L0 89.772L1.57003 84.6153L5.80184 83.0444L8.47765 84.4006L11.3797 88.6397L14.8674 79.7319L15.7538 76.6459L18.4903 67.0214L19.2392 61.2766L20.5246 48.6735L18.9895 44.6444L14.1348 35.8649L13.323 35.0269L12.5881 33.9834L12.8378 29.2447L16.4887 26.077L20.6575 16.6906L27.4322 12.5168L34.7294 7.29953L39.9434 2.60747L46.1978 0Z" fill="#E9ECF2"/>
<path d="M46.1978 0L51.9296 2.08458H61.835L62.5768 4.68265L63.0224 4.61042L62.1989 9.38881V15.6471L60.6359 24.513L56.4647 31.8149L52.2959 37.5503L55.422 41.7264L58.667 41.5537L59.0869 43.0174L60.8832 43.965L63.3444 43.9371L66.5404 43.6266L71.1058 43.4282L71.9317 43.4819L75.7505 40.6806L80.9645 36.5092L87.2189 35.9886L90.345 39.1167L90.8676 43.811L89.3722 48.0011L90.1934 48.3419L90.191 50.779L88.698 54.2596L87.5642 55.9566L85.488 57.4857L82.9661 60.5576L85.3783 72.7639L82.1823 78.8682L82.6675 88.7658L85.6956 94.2049L95.8622 98.9669L96.4291 99.0509L98.685 102.746L107.025 107.441H113.186L113.921 108.288L117.971 106.399H125.268L127.711 107.149L126.831 125.175L125.791 137.168L123.182 143.429L124.748 154.38L128.917 165.855L132.92 166.163L133.053 166.721L139.844 166.005L142.174 164.088L143.38 162.419L147.16 163.771L150.288 167.942L156.02 178.895L161.754 190.368L168.372 196.09L168.627 196.697L169 199.771V204.666L168.666 207.201L167.782 210.649L165.407 215.238L164.637 215.547L164.421 214.862L155.273 216.272L150.757 218.534L141.374 223.749L133.557 233.659L130.428 243.047L128.114 249L127.755 248.619L122.569 239.819L115.225 229.055L113.926 227.459L112.265 225.577L108.751 222.337L98.7923 215.262L88.0891 199.059L86.2485 196.923L83.6217 194.874L81.2841 193.538L77.4395 191.687L67.0093 185.597L54.5611 178.23L45.1853 170.545L44.8797 166.717L44.3688 162.723L40.0553 152.15L31.6034 143.646L29.9983 142.397L26.8116 135.908L24.6048 127.437L18.2967 121.68L15.6839 120.032L8.1487 116.827L8.76691 93.9947L4.5001 91.273L0 89.772L1.57003 84.6153L5.80184 83.0444L8.47765 84.4006L11.3797 88.6397L14.8674 79.7319L15.7538 76.6459L18.4903 67.0214L19.2392 61.2766L20.5246 48.6735L18.9895 44.6444L14.1348 35.8649L13.323 35.0269L12.5881 33.9834L12.8378 29.2447L16.4887 26.077L20.6575 16.6906L27.4322 12.5168L34.7294 7.29953L39.9434 2.60747L46.1978 0Z" stroke="#8F959D" stroke-width="4" mask="url(#path-1-inside-1_8895_6819)"/>
<path d="M46.1978 0L51.9296 2.08458H61.835L62.5768 4.68265L63.0224 4.61042L62.1989 9.38881V15.6471L60.6359 24.513L56.4647 31.8149L52.2959 37.5503L55.422 41.7264L58.667 41.5537L59.0869 43.0174L60.8832 43.965L63.3444 43.9371L66.5404 43.6266L71.1058 43.4282L71.9317 43.4819L75.7505 40.6806L80.9645 36.5092L87.2189 35.9886L90.345 39.1167L90.8676 43.811L89.3722 48.0011L90.1934 48.3419L90.191 50.779L88.698 54.2596L87.5642 55.9566L85.488 57.4857L82.9661 60.5576L85.3783 72.7639L82.1823 78.8682L82.6675 88.7658L85.6956 94.2049L95.8622 98.9669L96.4291 99.0509L98.685 102.746L107.025 107.441H113.186L113.921 108.288L117.971 106.399H125.268L127.711 107.149L126.831 125.175L125.791 137.168L123.182 143.429L124.748 154.38L128.917 165.855L132.92 166.163L133.053 166.721L139.844 166.005L142.174 164.088L143.38 162.419L147.16 163.771L150.288 167.942L156.02 178.895L161.754 190.368L168.372 196.09L168.627 196.697L169 199.771V204.666L168.666 207.201L167.782 210.649L165.407 215.238L164.637 215.547L164.421 214.862L155.273 216.272L150.757 218.534L141.374 223.749L133.557 233.659L130.428 243.047L128.114 249L127.755 248.619L122.569 239.819L115.225 229.055L113.926 227.459L112.265 225.577L108.751 222.337L98.7923 215.262L88.0891 199.059L86.2485 196.923L83.6217 194.874L81.2841 193.538L77.4395 191.687L67.0093 185.597L54.5611 178.23L45.1853 170.545L44.8797 166.717L44.3688 162.723L40.0553 152.15L31.6034 143.646L29.9983 142.397L26.8116 135.908L24.6048 127.437L18.2967 121.68L15.6839 120.032L8.1487 116.827L8.76691 93.9947L4.5001 91.273L0 89.772L1.57003 84.6153L5.80184 83.0444L8.47765 84.4006L11.3797 88.6397L14.8674 79.7319L15.7538 76.6459L18.4903 67.0214L19.2392 61.2766L20.5246 48.6735L18.9895 44.6444L14.1348 35.8649L13.323 35.0269L12.5881 33.9834L12.8378 29.2447L16.4887 26.077L20.6575 16.6906L27.4322 12.5168L34.7294 7.29953L39.9434 2.60747L46.1978 0Z" stroke="black" stroke-opacity="0.2" stroke-width="4" mask="url(#path-1-inside-1_8895_6819)"/>
<path d="M46.1978 0L51.9296 2.08458H61.835L62.5768 4.68265L63.0224 4.61042L62.1989 9.38881V15.6471L60.6359 24.513L56.4647 31.8149L52.2959 37.5503L55.422 41.7264L58.667 41.5537L59.0869 43.0174L60.8832 43.965L63.3444 43.9371L66.5404 43.6266L71.1058 43.4282L71.9317 43.4819L75.7505 40.6806L80.9645 36.5092L87.2189 35.9886L90.345 39.1167L90.8676 43.811L89.3722 48.0011L90.1934 48.3419L90.191 50.779L88.698 54.2596L87.5642 55.9566L85.488 57.4857L82.9661 60.5576L85.3783 72.7639L82.1823 78.8682L82.6675 88.7658L85.6956 94.2049L95.8622 98.9669L96.4291 99.0509L98.685 102.746L107.025 107.441H113.186L113.921 108.288L117.971 106.399H125.268L127.711 107.149L126.831 125.175L125.791 137.168L123.182 143.429L124.748 154.38L128.917 165.855L132.92 166.163L133.053 166.721L139.844 166.005L142.174 164.088L143.38 162.419L147.16 163.771L150.288 167.942L156.02 178.895L161.754 190.368L168.372 196.09L168.627 196.697L169 199.771V204.666L168.666 207.201L167.782 210.649L165.407 215.238L164.637 215.547L164.421 214.862L155.273 216.272L150.757 218.534L141.374 223.749L133.557 233.659L130.428 243.047L128.114 249L127.755 248.619L122.569 239.819L115.225 229.055L113.926 227.459L112.265 225.577L108.751 222.337L98.7923 215.262L88.0891 199.059L86.2485 196.923L83.6217 194.874L81.2841 193.538L77.4395 191.687L67.0093 185.597L54.5611 178.23L45.1853 170.545L44.8797 166.717L44.3688 162.723L40.0553 152.15L31.6034 143.646L29.9983 142.397L26.8116 135.908L24.6048 127.437L18.2967 121.68L15.6839 120.032L8.1487 116.827L8.76691 93.9947L4.5001 91.273L0 89.772L1.57003 84.6153L5.80184 83.0444L8.47765 84.4006L11.3797 88.6397L14.8674 79.7319L15.7538 76.6459L18.4903 67.0214L19.2392 61.2766L20.5246 48.6735L18.9895 44.6444L14.1348 35.8649L13.323 35.0269L12.5881 33.9834L12.8378 29.2447L16.4887 26.077L20.6575 16.6906L27.4322 12.5168L34.7294 7.29953L39.9434 2.60747L46.1978 0Z" stroke="black" stroke-opacity="0.2" stroke-width="4" mask="url(#path-1-inside-1_8895_6819)"/>
<path d="M46.1978 0L51.9296 2.08458H61.835L62.5768 4.68265L63.0224 4.61042L62.1989 9.38881V15.6471L60.6359 24.513L56.4647 31.8149L52.2959 37.5503L55.422 41.7264L58.667 41.5537L59.0869 43.0174L60.8832 43.965L63.3444 43.9371L66.5404 43.6266L71.1058 43.4282L71.9317 43.4819L75.7505 40.6806L80.9645 36.5092L87.2189 35.9886L90.345 39.1167L90.8676 43.811L89.3722 48.0011L90.1934 48.3419L90.191 50.779L88.698 54.2596L87.5642 55.9566L85.488 57.4857L82.9661 60.5576L85.3783 72.7639L82.1823 78.8682L82.6675 88.7658L85.6956 94.2049L95.8622 98.9669L96.4291 99.0509L98.685 102.746L107.025 107.441H113.186L113.921 108.288L117.971 106.399H125.268L127.711 107.149L126.831 125.175L125.791 137.168L123.182 143.429L124.748 154.38L128.917 165.855L132.92 166.163L133.053 166.721L139.844 166.005L142.174 164.088L143.38 162.419L147.16 163.771L150.288 167.942L156.02 178.895L161.754 190.368L168.372 196.09L168.627 196.697L169 199.771V204.666L168.666 207.201L167.782 210.649L165.407 215.238L164.637 215.547L164.421 214.862L155.273 216.272L150.757 218.534L141.374 223.749L133.557 233.659L130.428 243.047L128.114 249L127.755 248.619L122.569 239.819L115.225 229.055L113.926 227.459L112.265 225.577L108.751 222.337L98.7923 215.262L88.0891 199.059L86.2485 196.923L83.6217 194.874L81.2841 193.538L77.4395 191.687L67.0093 185.597L54.5611 178.23L45.1853 170.545L44.8797 166.717L44.3688 162.723L40.0553 152.15L31.6034 143.646L29.9983 142.397L26.8116 135.908L24.6048 127.437L18.2967 121.68L15.6839 120.032L8.1487 116.827L8.76691 93.9947L4.5001 91.273L0 89.772L1.57003 84.6153L5.80184 83.0444L8.47765 84.4006L11.3797 88.6397L14.8674 79.7319L15.7538 76.6459L18.4903 67.0214L19.2392 61.2766L20.5246 48.6735L18.9895 44.6444L14.1348 35.8649L13.323 35.0269L12.5881 33.9834L12.8378 29.2447L16.4887 26.077L20.6575 16.6906L27.4322 12.5168L34.7294 7.29953L39.9434 2.60747L46.1978 0Z" stroke="black" stroke-opacity="0.2" stroke-width="4" mask="url(#path-1-inside-1_8895_6819)"/>
<path d="M46.1978 0L51.9296 2.08458H61.835L62.5768 4.68265L63.0224 4.61042L62.1989 9.38881V15.6471L60.6359 24.513L56.4647 31.8149L52.2959 37.5503L55.422 41.7264L58.667 41.5537L59.0869 43.0174L60.8832 43.965L63.3444 43.9371L66.5404 43.6266L71.1058 43.4282L71.9317 43.4819L75.7505 40.6806L80.9645 36.5092L87.2189 35.9886L90.345 39.1167L90.8676 43.811L89.3722 48.0011L90.1934 48.3419L90.191 50.779L88.698 54.2596L87.5642 55.9566L85.488 57.4857L82.9661 60.5576L85.3783 72.7639L82.1823 78.8682L82.6675 88.7658L85.6956 94.2049L95.8622 98.9669L96.4291 99.0509L98.685 102.746L107.025 107.441H113.186L113.921 108.288L117.971 106.399H125.268L127.711 107.149L126.831 125.175L125.791 137.168L123.182 143.429L124.748 154.38L128.917 165.855L132.92 166.163L133.053 166.721L139.844 166.005L142.174 164.088L143.38 162.419L147.16 163.771L150.288 167.942L156.02 178.895L161.754 190.368L168.372 196.09L168.627 196.697L169 199.771V204.666L168.666 207.201L167.782 210.649L165.407 215.238L164.637 215.547L164.421 214.862L155.273 216.272L150.757 218.534L141.374 223.749L133.557 233.659L130.428 243.047L128.114 249L127.755 248.619L122.569 239.819L115.225 229.055L113.926 227.459L112.265 225.577L108.751 222.337L98.7923 215.262L88.0891 199.059L86.2485 196.923L83.6217 194.874L81.2841 193.538L77.4395 191.687L67.0093 185.597L54.5611 178.23L45.1853 170.545L44.8797 166.717L44.3688 162.723L40.0553 152.15L31.6034 143.646L29.9983 142.397L26.8116 135.908L24.6048 127.437L18.2967 121.68L15.6839 120.032L8.1487 116.827L8.76691 93.9947L4.5001 91.273L0 89.772L1.57003 84.6153L5.80184 83.0444L8.47765 84.4006L11.3797 88.6397L14.8674 79.7319L15.7538 76.6459L18.4903 67.0214L19.2392 61.2766L20.5246 48.6735L18.9895 44.6444L14.1348 35.8649L13.323 35.0269L12.5881 33.9834L12.8378 29.2447L16.4887 26.077L20.6575 16.6906L27.4322 12.5168L34.7294 7.29953L39.9434 2.60747L46.1978 0Z" stroke="black" stroke-opacity="0.2" stroke-width="4" mask="url(#path-1-inside-1_8895_6819)"/>
<path d="M46.1978 0L51.9296 2.08458H61.835L62.5768 4.68265L63.0224 4.61042L62.1989 9.38881V15.6471L60.6359 24.513L56.4647 31.8149L52.2959 37.5503L55.422 41.7264L58.667 41.5537L59.0869 43.0174L60.8832 43.965L63.3444 43.9371L66.5404 43.6266L71.1058 43.4282L71.9317 43.4819L75.7505 40.6806L80.9645 36.5092L87.2189 35.9886L90.345 39.1167L90.8676 43.811L89.3722 48.0011L90.1934 48.3419L90.191 50.779L88.698 54.2596L87.5642 55.9566L85.488 57.4857L82.9661 60.5576L85.3783 72.7639L82.1823 78.8682L82.6675 88.7658L85.6956 94.2049L95.8622 98.9669L96.4291 99.0509L98.685 102.746L107.025 107.441H113.186L113.921 108.288L117.971 106.399H125.268L127.711 107.149L126.831 125.175L125.791 137.168L123.182 143.429L124.748 154.38L128.917 165.855L132.92 166.163L133.053 166.721L139.844 166.005L142.174 164.088L143.38 162.419L147.16 163.771L150.288 167.942L156.02 178.895L161.754 190.368L168.372 196.09L168.627 196.697L169 199.771V204.666L168.666 207.201L167.782 210.649L165.407 215.238L164.637 215.547L164.421 214.862L155.273 216.272L150.757 218.534L141.374 223.749L133.557 233.659L130.428 243.047L128.114 249L127.755 248.619L122.569 239.819L115.225 229.055L113.926 227.459L112.265 225.577L108.751 222.337L98.7923 215.262L88.0891 199.059L86.2485 196.923L83.6217 194.874L81.2841 193.538L77.4395 191.687L67.0093 185.597L54.5611 178.23L45.1853 170.545L44.8797 166.717L44.3688 162.723L40.0553 152.15L31.6034 143.646L29.9983 142.397L26.8116 135.908L24.6048 127.437L18.2967 121.68L15.6839 120.032L8.1487 116.827L8.76691 93.9947L4.5001 91.273L0 89.772L1.57003 84.6153L5.80184 83.0444L8.47765 84.4006L11.3797 88.6397L14.8674 79.7319L15.7538 76.6459L18.4903 67.0214L19.2392 61.2766L20.5246 48.6735L18.9895 44.6444L14.1348 35.8649L13.323 35.0269L12.5881 33.9834L12.8378 29.2447L16.4887 26.077L20.6575 16.6906L27.4322 12.5168L34.7294 7.29953L39.9434 2.60747L46.1978 0Z" stroke="black" stroke-opacity="0.2" stroke-width="4" mask="url(#path-1-inside-1_8895_6819)"/>
</svg>
