<svg width="220" height="249" viewBox="0 0 220 249" fill="none" xmlns="http://www.w3.org/2000/svg">
<rect width="220" height="249" fill="white"/>
<path d="M73.2843 5L78.7787 7.00086H88.2738L88.9849 9.49459L89.412 9.42526L88.6227 14.0118V20.0187L87.1243 28.5286L83.126 35.5372L79.1298 41.0422L82.1264 45.0507L85.237 44.8849L85.6395 46.2898L87.3614 47.1994L89.7206 47.1726L92.7843 46.8746L97.1606 46.6841L97.9522 46.7356L101.613 44.0469L106.611 40.043L112.606 39.5433L115.603 42.5457L116.104 47.0515L114.67 51.0734L115.458 51.4005L115.455 53.7397L114.024 57.0805L112.937 58.7094L110.947 60.177L108.53 63.1256L110.842 74.8417L107.778 80.7008L108.243 90.2009L111.146 95.4215L120.892 99.9923L121.435 100.073L123.597 103.62L131.592 108.126H137.498L138.202 108.939L142.084 107.126H149.079L151.421 107.846L150.578 125.147L149.58 136.66L147.08 142.669L148.581 153.18L152.577 164.194L156.414 164.49L156.542 165.026L163.051 164.338L165.285 162.498L166.442 160.896L170.064 162.193L173.063 166.198L178.557 176.71L184.054 187.723L190.398 193.215L190.642 193.797L191 196.748V201.447L190.68 203.88L189.833 207.189L187.556 211.594L186.818 211.89L186.61 211.233L177.842 212.587L173.513 214.758L164.518 219.763L157.025 229.275L154.026 238.286L151.808 244L151.463 243.635L146.492 235.188L139.452 224.856L138.207 223.324L136.615 221.518L133.247 218.408L123.7 211.617L113.44 196.065L111.676 194.014L109.158 192.047L106.917 190.766L103.232 188.989L93.2338 183.143L81.3012 176.072L72.3138 168.696L72.0208 165.021L71.5311 161.188L67.3962 151.04L59.2943 142.877L57.7558 141.679L54.7011 135.45L52.5856 127.319L46.5388 121.793L44.0342 120.211L36.8112 117.135L37.4038 95.2198L33.3137 92.6074L29 91.1667L30.505 86.2171L34.5615 84.7092L37.1265 86.011L39.9084 90.0799L43.2516 81.5298L44.1013 78.5677L46.7244 69.3298L47.4423 63.8157L48.6745 51.7187L47.203 47.8514L42.5494 39.4246L41.7712 38.6202L41.0667 37.6186L41.306 33.0702L44.8057 30.0297L48.8019 21.0203L55.296 17.0141L62.2909 12.0064L67.2889 7.50276L73.2843 5Z" fill="#E9ECF2" stroke="#8F959D" stroke-width="2"/>
</svg>
