<svg width="220" height="249" viewBox="0 0 220 249" fill="none" xmlns="http://www.w3.org/2000/svg">
<rect width="220" height="249" fill="white"/>
<path d="M104.939 59.8329L105.854 60.2619L109.111 60.0451L117.126 64.227L122.005 66.6666L127.231 69.1061L130.076 71.1386L133.123 70.8329L135.378 70.7767L138.258 71.0279L139.078 75.3408L139.65 78.2983L139.987 79.2888L144.655 80.9562H151.624L161.033 80.259L162.448 80.6645L164.839 79.9829L170.388 79.139L171.138 83.3958L172.88 88.6228L179.502 90.0173L182.637 88.2734L184.031 83.7436L184.379 77.4715V73.9853L184.24 71.0388L184.811 70.2339L186.199 67.4652L187.706 64.6201L196.231 67.2125L198.57 69.075L201.021 72.2633L201.297 72.7L201.456 77.2968L202.151 83.2211L205.891 84.2522L205.86 84.4191L208.772 86.7074L210.168 96.8135L209.6 103.034L209.727 103.118L209.167 105.177L208.39 107.239L205.93 112.301L204.857 114.064L204.081 115.171L202.825 116.726L202.398 117.171L201.106 121.907L199.703 126.822L200.225 127.006L199.364 130.62L200.409 136.195L202.501 137.589L205.919 138.446L207.727 141.074L208.424 143.515L211.213 147.695L214 154.317L210.864 158.5L205.636 162.682L200.757 166.516L195.88 170.001L193.789 168.259L192.159 164.816L192.064 164.846L190.303 163.379L187.168 162.682L182.637 163.03L175.637 164.908L175.669 164.425L173.579 164.075H169.046L166.259 165.818L162.078 166.516L156.502 165.471L151.276 161.637L148.224 161.976L146.377 158.822L148.837 158.151L147.792 153.621L143.958 150.137L134.549 148.045H129.333L128.815 147.94L127.58 147L124.444 147.349L114.889 147.006L105.975 148.393L102.141 150.832L101.445 158.85L101.263 158.954L100.747 160.243L94.8247 169.304L87.5053 175.925L79.4918 182.896L72.5218 190.215H67.2222L66.7137 188.728L66.8385 188.023L65.5175 185.161L65.1681 176.449L66.4876 169.592L66.1226 168.922L62.2578 161.7L62.4231 160.14L63.5055 158.503L62.9971 156.473L61.5763 155.357L61.3704 148.567H51.2655L49.3471 149.233L47.0934 148.204L45.1096 147.666L43.854 147.92L41.5083 146.477L35.1684 144.424L34.7114 143.236L29.4321 136.468L25.3988 132.515L24.8732 131.248L24.5675 126.706L24.3726 122.598L23.8142 120.375L22.2749 119.325L20.8135 119.559L18.4085 119.483L15.4873 118.246L13.2414 114.447L6.82349 101.399L6 93.1105L6.03743 91.2184L6.46321 87.8413L6.61918 86.5264L6.01559 85.0617L10.1455 84.4409L13.9791 85.486L15.2627 87.7353L15.9505 87.6401L17.0001 87.495L19.5548 89.3201L24.0856 88.6228L27.5698 85.1382L32.4484 85.8354L37.327 83.7436L38.7197 80.259L38.0241 77.1221L32.4484 77.4715L32.0476 73.7249H32.0538L32.7962 71.1979L34.8877 70.5006L37.327 68.4089L40.8112 68.7583L43.9476 71.1979L48.8262 70.1512L54.0525 69.1061L58.2355 67.016L65.5533 64.227L70.0825 61.7874H71.8247L74.6133 64.9258L76.7063 67.2796L78.1241 67.147L81.1934 67.4278L82.9777 67.381L84.8009 66.885L86.3028 66.3343L87.5053 64.227L90.2939 62.4846L95.8696 59.6972L100.399 59L102.383 59.7627L104.939 59.8329Z" fill="#E9ECF2" stroke="#8F959D" stroke-width="2"/>
</svg>
