<svg width="220" height="249" viewBox="0 0 220 249" fill="none" xmlns="http://www.w3.org/2000/svg">
<rect width="220" height="249" fill="white"/>
<path d="M167.987 98.3717L168.378 105.027L169.162 112.858L172.412 113.37L172.558 113.888L175.429 114.032L178.171 116.382L179.346 123.821L180.236 129.453H181.15L189.04 126.167L194.957 125.51L199.561 128.795L207.452 130.11L211.396 136.026L214.026 139.968L216 147.198L214.38 148.008L214.906 150.5L214.871 151.917L212.711 152.457L205.478 153.771L199.561 155.743L196.272 159.03L190.355 162.973L182.352 164.75L179.174 158.97L170.131 145.223L168.613 144.596L165.954 143.263L162.211 139.739L160.629 138.132L159.967 136.756L158.364 131.981L157.991 129.771L156.329 129.563L141.839 132.356L135.821 141.072L133.151 142.846L131.654 143.408L129.14 145.015L127.995 145.994L123.156 150.302L120.448 156.195L114.982 171.139L115.034 172.887L112.851 176.982L102.655 180.554L92.1891 183.969L90.7025 184.544L88.8722 186.38L86.9087 189.671L86.6072 192.492L87.0911 195.129L85.2187 199.619L82.7608 200.148H82.2069L82.3664 199.647L82.2682 196.983L77.5435 189.724L75.382 181.745L75.6624 179.897L75.5432 176.273L74.7789 173.331L74.1127 171.556L68.7306 165.482L62.6139 158.825L63.2626 156.957L63.1486 155.424L57.4527 144.007L45.1581 130.751L43.8257 129.479L42.1217 128.562L40.6245 127.958L34.8883 123.206L33.2263 121.779L31.6871 120.153L29.1714 116.475L24.9919 109.245L23.7665 104.475L22.9145 101.789L19.5677 95.8535L17.1362 93.0639L15.8581 91.7093L13.0935 87.2129L12.7078 84.6422L13.3319 82.4571L11.7716 77.7013L11.1896 76.203L9.31899 71.8538L8.48799 70.6061L4 66.164L5.97226 63.8842L16.4507 53.0584L19.4731 50.3651L21.1683 49.4609L28.5578 51.3026L31.0244 53.351L31.1471 55.3575L31.8098 68.0986L31.7835 68.2755L33.2018 70.3012V74.9011L35.5387 80.9746L36.4468 81.2602L41.2907 82.3204L42.7879 82.8618L49.5742 88.5446L52.5791 94.7093L52.8473 96.3951L52.6965 96.9873L56.8725 97.2484L61.4762 95.2753L64.7633 92.6468L66.0781 90.0183L70.0244 86.0739L74.6264 83.4454L78.5726 81.474L83.832 84.7596L85.1486 90.6755L89.7506 91.9897L98.2988 90.0183H101.586L105.532 92.6468V97.9056L105.904 103.11L108.931 104.995L109.328 106.601L109.812 108.912L114.738 106.45L119.997 104.478L125.258 99.8769L129.862 101.191L132.674 103.651L136.485 102.71L137.558 100.224L140.176 99.3494L144.485 95.044L147.619 91.5201L150.36 87.6054L149.187 80.5575L146.052 72.3357L142.527 65.2878L139.001 58.6325L136.652 53.542L136.44 52.417L141.219 51.3254L146.233 49.4942L148.494 49L148.864 50.0952L150.03 51.427L151.161 52.1227L154.248 57.5408L160.901 65.591L162.046 67.7131L161.618 69.8351L159.653 73.7165L159.967 77.6382L161.96 82.9249L163.136 85.3502L165.598 86.943L166.345 87.2987L166.813 94.0644L167.987 98.3717Z" fill="#E9ECF2" stroke="#8F959D" stroke-width="2"/>
</svg>
