<svg width="220" height="249" viewBox="0 0 220 249" fill="none" xmlns="http://www.w3.org/2000/svg">
<rect width="220" height="249" fill="white"/>
<path d="M197.279 173.488L198.815 165.537L198.39 164.76L193.892 156.386L194.084 154.577L195.344 152.68L194.752 150.325L193.099 149.032L192.859 141.159H181.099L178.866 141.931L176.244 140.738L173.935 140.114L172.474 140.409L169.744 138.736L162.365 136.356L161.833 134.977L155.689 127.13L150.995 122.547L150.384 121.078L150.028 115.811L149.801 111.048L149.151 108.47L147.36 107.253L145.659 107.524L142.86 107.436L139.46 106.002L136.846 101.598L129.377 86.4686L128.419 76.8576L128.462 74.6638L128.958 70.7481L129.139 69.2235L127.903 66.2339L124.567 64.0997L123.307 63.1466L122.351 60.9002L122.823 58.663L122.91 55.6372L122.738 53.7165L122.65 51.1338L122.07 48.8296L118.757 45.3227L117.646 43.7384L116.906 41.3094L116.668 38.9021L116.065 36.2995L115.29 34.424L113.257 31.8449L112.31 29.841L112.052 26.9345L111.25 24.2777L110.035 21.2157L108.683 19.7001L107.576 19.8502L105.563 19.1141L104.067 17.8788L103.259 16.526L102.555 12.717L100.827 11.5324L97.4384 12.301L95.4581 11.1056L94.5542 8.8032L94.6195 7.45033L91.4231 8.43605L79.5958 13.2108L78.111 14.4569L76.9911 16.9003L76.8713 19.5916L76.3885 21.8541L75.4736 23.708L74.0107 25.5057L70.5565 29.1157L56.5238 41.2009L50.4323 43.4345L43.7182 43.4779L42.3623 35.2812L43.2825 31.8666L42.8033 30.0996L37.5504 26.5674L36.4232 21.6516L37.1293 19.1213L39.1568 16.2945L42.807 13.8691L43.2117 8.61692L39.5615 7L34.6952 7.80667L32.2629 10.6371L29.0175 13.464L29.0447 13.6449L28.5873 13.8022L28.1444 18.2477L27.3294 25.2019L25.9826 28.5569L20 32.8559L25.1967 39.5297L28.62 43.5864L33.5481 51.5244L36.6701 57.9703L41.9793 77.2049L41.5763 80.0064L39.0224 80.2759L37.7501 82.8514L39.1295 86.398L42.7616 88.9572L45.3209 89.7404L46.8075 90.4367L51.7573 93.1966L60.3011 98.3801L65.7029 103.077L70.8088 110.624L75.7799 117.752L77.4874 120.592L76.3491 125.704L78.6258 132.673L79.7642 141.607L76.9182 146.718L80.9025 147.286L84.8868 149.558L87.7327 152.966L96.2704 162.621L101.393 167.165L105.815 176.205L108.64 183.414L117.421 200.25L120.111 203.298L126.504 212.381L127.063 217.343L127.666 219.966L128.655 223.598L129.755 225.195L130.831 226.332L133.316 228.488L135.382 230.423L137.351 232.83L143.622 240.712L146.75 240.971L146.748 241L149.589 238.546L152.832 231.273L158.103 228.039L163.781 223.997L167.838 220.362L172.704 218.342L177.164 219.957H184.871L185.448 221.97L185.809 221.912L185.559 219.553L190.427 217.533L192.454 213.088L194.482 210.259L196.916 205.815L199.755 202.985L198.537 199.35L199.348 194.095L201 190.569L199.771 189.744L199.078 187.726L199.223 186.908L197.686 183.589L197.279 173.488Z" fill="#E9ECF2" stroke="#8F959D" stroke-width="2"/>
</svg>
