<svg width="220" height="249" viewBox="0 0 220 249" fill="none" xmlns="http://www.w3.org/2000/svg">
<rect width="220" height="249" fill="white"/>
<path d="M77.1508 12.2221L80.2011 14.2608L81.8069 15.5069L82.4003 16.2506L84.4524 17.1323L84.9574 16.9429L85.709 16.4288L86.2554 16.2871L86.7715 16.487L87.384 17.2121L87.7944 17.8791L88.1239 18.6333L88.2345 19.2087L88.2636 19.7847L88.4502 20.5204L90.451 21.6978L91.1217 21.0964L92.4555 21.9929L96.7581 25.287L97.2267 25.9354L97.3806 26.1848L97.7032 27.6406L98.2088 29.5648L98.8096 31.5398L99.4914 32.276L100.613 33.4269L100.181 34.6154L99.6892 35.4389L100.415 36.9183L100.8 37.6069L101.466 38.183L105.098 39.1779L110.632 42.7423L111.346 44.2247L113.687 44.8701L114.721 44.5935L116.289 44.7315L118.873 47.1154L119.089 48.7259L119.214 49.5501L119.815 50.2208L120.951 51.7663L121.737 53.2846L120.951 53.9751L120.687 54.4417L120.145 56.906L120.591 57.3942L122.548 58.6997L125.7 60.1926L127.232 59.4576L128.336 58.4312L130.032 59.5523L131.149 61.5068L131.999 67.3327L131.482 68.7693L130.863 69.6009L130.059 69.9765L130.493 72.1426L130.772 72.6202L131.585 73.2619L133.454 74.2902L134.195 74.0569L135.261 74.0136L136.108 75.4206L136.65 76.8071L138.423 76.3765L141.89 75.0636L144.349 74.2029L148.025 75.1001L151.271 76.194L152.019 76.413L153.916 76.6097L158.072 74.2178L160.388 73.2111L161.73 73.4617L162.827 73.4301L163.312 71.9199L164.972 69.5718L167.256 67.6897L168.015 67.3945L168.278 67.8833L168.253 68.6598L168.512 69.4184L171.088 69.7246L172.58 69.6696L175.427 70.8953L176.761 72.6202L181.342 72.9772L183.636 71.7014L186.927 70.8185L190.025 69.4277L194.022 72.0516H196.471L198.84 74.1274L201.506 75.3135L203.089 76.7211L203.301 76.5912L203.832 76.4396L204.895 76.6729L206.915 78.4863L207.177 79.5128L211.874 78.5754V80.0579L210.907 83.3507L201.812 97.515L200.888 98.9535L197.759 103.793L196.132 106.305L194.952 108.109L193.582 110.263L196.654 111.572L198.758 112.354L199.474 112.356L200.038 112.111L201.504 111.22L201.963 110.862L203.131 110.475L203.673 110.533L204.164 110.775L206.502 112.67L207.889 114.41L208.397 115.395L208.665 116.209L208.881 116.892L209.097 117.393L209.441 117.959L211.61 119.752L212.131 120.103L212.989 120.684L213.831 121.565L213.825 122.286L214 122.96L213.729 123.504L213.227 124.276L212.241 124.945L207.469 124.806L205.938 123.72L204.737 122.631L204.542 122.113L204.817 121.291L204.78 120.637L204.241 119.73L201.359 119.528L200.412 120.125L199.496 120.783L197.276 121.199L196.18 120.278L192.572 119.94L191.309 120.542L190.73 120.974L189.762 122.66L189.667 123.424L187.458 126.11L186.486 126.107L184.918 127.502H181.955L179.289 128.984L175.439 129.577L171.588 131.06L167.737 130.763H163.886L161.516 132.839L158.85 135.211L155.888 137.287L152.037 138.769L147.889 141.439L143.742 145.886L139.892 147.369L136.929 152.113L136.04 156.561L135.152 162.195L131.597 165.16L128.338 170.497L131.005 177.021L132.189 181.172L128.338 185.027L124.191 187.102L117.674 190.068L115.008 191.55L113.823 197.778L112.53 198.147L112.556 198.378L113.072 198.763L114.538 201.034L114.912 203.313L114.058 203.967L108.967 204.634L108.984 206.852L108.142 209.084L107.49 209.123L107.239 208.831L106.751 208.459L106.674 208.417L106.621 207.576L104.826 206.193L103.031 204.672L100.406 204.396L98.4727 204.258L97.5067 203.152L96.1252 203.013L95.1585 203.29L94.6065 204.258L94.5688 204.433L94.4965 204.373L94.4236 204.325L93.3635 205.917L92.3968 206.884L91.8869 207.777L92.1113 208.97L92.2942 210.069L92.6972 215.309L92.602 217.641L92.4704 218.322L92.0012 219.017L91.173 219.598L90.7082 219.859L90.0493 221.399L88.53 222.229L85.0773 222.506L82.315 222.229L82.0492 221.918L81.7266 222.014L80.9341 221.538L77.8956 221.261L76.5154 222.92L75.2717 224.026L74.598 224.776L73.7154 224.677L72.0076 224.382L70.3572 225.626L69.7478 226.791V229.141L69.6099 230.799V232.405L68.6964 233.116L67.2785 233.471L67.2 233.404L66.5769 232.815L65.9687 232.27L65.1256 231.758H63.9747L60.4936 234.79L58.8809 236.507L58.3976 237.126L57.9285 237.509L56.9599 237.933L56.3523 236.329L56.1292 235.045L56.2138 234.752L56.4333 233.987L56.5507 232.852L56.7924 231.209L57.0637 230.59L57.1509 230.472L56.076 228.78L56.5396 225.299L57.6985 223.211L59.1807 221.833L58.8809 221.276L58.2622 219.962H56.4401L55.9889 218.381L54.3534 216.239L53.598 213.72L52.9688 209.438L50.8302 207.297L50.0755 205.03V203.015L50.1725 201.355L51.9038 200.777L51.9768 200.336L52.1257 199.745L54.6847 197.916V195.595L53.9893 190.025L55.2675 188.746L55.7589 188.592L56.8437 188.529L57.6138 188.706L58.3896 188.926L59.1158 189.219L59.8192 189.733L60.5158 190.262L60.7952 190.612L63.7262 190.489L66.0447 190.025L67.0368 189.628L67.0677 189.579L67.31 188.838L67.7488 186.775L67.6759 185.734L67.7056 184.839L67.8224 183.269L67.9837 181.391L68.1815 180.093L68.4306 178.831L68.4819 178.135L68.3904 177.335L68.1345 176.755L69.2904 175.406L69.5222 173.085L68.1308 171.229L65.8129 170.068L62.5673 170.764L60.8385 172.082L58.4557 171.581L57.6868 171.478L55.7367 171.492L54.5549 171.586L53.0622 172.621L50.5119 174.245L48.657 173.317L46.8027 170.997L44.2524 168.676L41.8684 168.437L41.3529 168.852L40.4171 169.5L39.4881 169.921L38.0213 170.143L36.7177 169.605L35.4024 168.685L34.8826 167.898L34.2886 166.711L34.0797 165.74L33.5302 164.172L33.1272 163.44L32.7019 162.678L30.0194 160.832L28.6929 160.412L27.9599 160.485L26.9338 160.525L25.6513 160.488L23.3427 160.32L22.6022 160.136L21.8333 159.917L21.1367 159.558L20.0451 158.35L19.5389 157.764L18.982 156.889L18.1834 156.248L16.8934 155.644L15.2443 155.121L13.6978 154.623L12.8696 154.118L11.367 153.002L11.1105 152.507L10.8465 152.163L9.25677 148.731L9.00026 147.962L8.72953 146.487L8.55029 146.398L6 144.309V142.453L7.70163 140.536L7.49024 139.307L7.43894 138.503L7.58543 136.974L7.95134 135.694L8.41307 134.561L8.89023 133.83L9.36617 133.208L9.91567 132.624L10.4108 132.225L11.0554 131.206L12.7447 127.645L12.9283 126.878L13.1483 125.38L13.0012 124.502L12.8294 123.918L12.8696 122.537L13.2577 117.933L13.5142 117.404L13.28 113.536L13.1483 112.943L12.9283 112.454L12.6353 112.016L11.6309 110.723L11.2718 110.008L11.1105 109.445L11.0517 108.788L11.1253 107.744L11.2755 106.63L10.1505 101.574L9.93792 100.899L9.05095 99.1138L8.0218 97.442L7.76097 96.6358L7.69545 95.8067L7.58543 93.1574L6.61934 88.9352L7.03593 88.8084L16.3946 85.6047L22.0823 83.657L26.8535 82.0155L30.5182 80.7533L36.9508 78.5333L43.7245 73.4957L52.4243 66.9534L54.9746 63.9421L60.1493 57.7883L61.7761 55.8486L64.2152 52.9178L65.2474 51.8505L65.8865 51.4372L66.1591 50.7529L68.006 43.6165L68.5851 41.2988L69.0468 39.5132L69.3695 38.2665L70.1532 35.2422L70.8202 35.9778L71.2782 36.4227L72.0477 36.7358L75.0449 36.4642L73.818 32.4066L73.041 30.199L73.2876 28.2482L73.4514 28.0929L73.7222 27.9815L74.1956 27.5496L74.318 25.7498L73.8396 24.7549L71.8005 23.2229L71.1651 23.2755L70.4907 22.7583L69.8596 22.04L69.3034 21.1113L68.9294 20.1182L68.6513 18.7719L68.5041 18.2107L68.0715 17.1286L65.6955 15.7581L64.2887 15.5453L64.518 13.8271L67.0714 14.0987L68.1049 14.804L69.5518 15.3429L71.5384 15.0008L72.7109 14.5664L73.224 14.1736L73.9286 14.246L74.8051 13.5505L75.0492 12.8254L75.357 12L77.1508 12.2221Z" fill="#E9ECF2" stroke="#8F959D" stroke-width="2"/>
</svg>
