<svg width="220" height="239" viewBox="0 0 220 239" fill="none" xmlns="http://www.w3.org/2000/svg">
<mask id="path-1-inside-1_8891_6803" fill="white">
<path d="M75.2556 0.234967L78.4819 2.39156L80.1804 3.70973L80.808 4.49644L82.9785 5.42911L83.5126 5.22883L84.3076 4.68494L84.8855 4.53506L85.4314 4.74646L86.0792 5.51354L86.5133 6.2191L86.8618 7.01694L86.9788 7.62563L87.0096 8.23497L87.207 9.01318L89.3232 10.2587L90.0325 9.62252L91.4434 10.5709L95.9942 14.0555L96.4897 14.7414L96.6525 15.0052L96.9938 16.5452L97.5285 18.5807L98.164 20.6699L98.8851 21.4488L100.071 22.6661L99.614 23.9234L99.0943 24.7946L99.8618 26.3595L100.269 27.088L100.974 27.6973L104.815 28.7497L110.668 32.5203L111.424 34.0885L113.9 34.7712L114.994 34.4786L116.652 34.6246L119.385 37.1464L119.613 38.8501L119.746 39.7219L120.381 40.4313L121.582 42.0663L122.415 43.6724L121.582 44.4029L121.303 44.8964L120.73 47.5033L121.202 48.0197L123.272 49.4007L126.606 50.98L128.226 50.2024L129.394 49.1166L131.187 50.3026L132.369 52.3701L133.268 58.533L132.722 60.0527L132.067 60.9324L131.216 61.3297L131.676 63.6211L131.97 64.1263L132.83 64.8051L134.807 65.8929L135.59 65.6461L136.719 65.6003L137.614 67.0886L138.187 68.5554L140.063 68.0998L143.73 66.711L146.33 65.8006L150.218 66.7496L153.652 67.9068L154.443 68.1385L156.45 68.3466L160.846 65.8163L163.295 64.7514L164.714 65.0165L165.875 64.9831L166.388 63.3854L168.144 60.9016L170.559 58.9106L171.362 58.5984L171.64 59.1155L171.613 59.9369L171.888 60.7393L174.613 61.0633L176.191 61.005L179.202 62.3016L180.613 64.1263L185.458 64.504L187.884 63.1544L191.365 62.2204L194.642 60.7491L198.869 63.5249H201.459L203.966 65.7207L206.786 66.9754L208.459 68.4644L208.683 68.327L209.246 68.1666L210.369 68.4133L212.506 70.3317L212.784 71.4175L217.752 70.4259V71.9941L216.729 75.4774L207.108 90.461L206.132 91.9827L202.822 97.1022L201.101 99.7595L199.853 101.667L198.404 103.946L201.654 105.331L203.878 106.158L204.636 106.16L205.233 105.901L206.783 104.959L207.268 104.58L208.504 104.171L209.078 104.232L209.597 104.488L212.07 106.492L213.537 108.334L214.074 109.375L214.357 110.236L214.586 110.959L214.814 111.488L215.178 112.087L217.473 113.985L218.024 114.356L218.93 114.97L219.822 115.902L219.815 116.665L220 117.378L219.714 117.953L219.182 118.77L218.139 119.478L213.092 119.33L211.473 118.182L210.202 117.03L209.996 116.481L210.287 115.612L210.249 114.92L209.678 113.961L206.63 113.747L205.628 114.379L204.659 115.074L202.311 115.515L201.151 114.541L197.335 114.183L196 114.82L195.388 115.277L194.364 117.061L194.263 117.868L191.927 120.71L190.899 120.706L189.24 122.182H186.106L183.287 123.75L179.214 124.377L175.141 125.946L171.068 125.632H166.994L164.488 127.828L161.668 130.337L158.535 132.533L154.462 134.101L150.075 136.925L145.689 141.629L141.616 143.198L138.483 148.217L137.543 152.922L136.603 158.882L132.843 162.019L129.396 167.664L132.216 174.565L133.47 178.956L129.396 183.035L125.01 185.23L118.117 188.367L115.297 189.935L114.044 196.523L112.676 196.913L112.703 197.158L113.249 197.565L114.8 199.967L115.195 202.378L114.292 203.07L108.908 203.775L108.925 206.122L108.034 208.483L107.345 208.524L107.079 208.215L106.564 207.822L106.482 207.778L106.426 206.887L104.527 205.425L102.629 203.816L99.8527 203.523L97.8077 203.377L96.7859 202.208L95.3247 202.061L94.3022 202.354L93.7184 203.377L93.6786 203.563L93.6021 203.5L93.5249 203.449L92.4037 205.133L91.3813 206.156L90.8419 207.1L91.0792 208.363L91.2727 209.525L91.699 215.068L91.5983 217.535L91.459 218.255L90.9628 218.991L90.0868 219.605L89.5952 219.881L88.8983 221.51L87.2913 222.388L83.6394 222.681L80.7178 222.388L80.4366 222.059L80.0954 222.16L79.2573 221.657L76.0434 221.364L74.5835 223.119L73.2682 224.289L72.5556 225.082L71.622 224.977L69.8157 224.666L68.0701 225.982L67.4255 227.214V229.7L67.2797 231.454V233.153L66.3135 233.905L64.8138 234.28L64.7307 234.21L64.0717 233.587L63.4284 233.009L62.5367 232.468H61.3194L57.6374 235.675L55.9318 237.492L55.4205 238.147L54.9243 238.552L53.8999 239L53.2572 237.304L53.0212 235.945L53.1108 235.636L53.3429 234.826L53.4671 233.625L53.7227 231.888L54.0097 231.232L54.1019 231.108L52.965 229.318L53.4553 225.636L54.6811 223.427L56.2488 221.969L55.9318 221.38L55.2774 219.99H53.3501L52.8728 218.317L51.143 216.052L50.3441 213.387L49.6786 208.857L47.4166 206.592L46.6183 204.194V202.063L46.7209 200.306L48.5521 199.696L48.6293 199.228L48.7868 198.604L51.4934 196.669V194.214L50.7579 188.322L52.1099 186.969L52.6296 186.806L53.777 186.739L54.5916 186.926L55.412 187.159L56.1802 187.469L56.9242 188.013L57.661 188.572L57.9565 188.942L61.0566 188.813L63.5088 188.322L64.5581 187.902L64.5908 187.85L64.8471 187.066L65.3113 184.884L65.2341 183.782L65.2655 182.835L65.3891 181.175L65.5597 179.188L65.7689 177.815L66.0324 176.48L66.0866 175.744L65.9899 174.898L65.7192 174.284L66.9417 172.856L67.1869 170.401L65.7153 168.438L63.2637 167.21L59.8308 167.946L58.0022 169.341L55.482 168.81L54.6687 168.702L52.6061 168.716L51.3561 168.816L49.7773 169.911L47.0799 171.629L45.1179 170.647L43.1566 168.192L40.4592 165.737L37.9377 165.485L37.3924 165.924L36.4027 166.609L35.4201 167.055L33.8687 167.289L32.4899 166.721L31.0987 165.747L30.5489 164.915L29.9206 163.659L29.6997 162.632L29.1185 160.973L28.6922 160.199L28.2424 159.393L25.4051 157.44L24.0021 156.995L23.2268 157.072L22.1415 157.115L20.785 157.076L18.3432 156.898L17.56 156.704L16.7467 156.472L16.0099 156.092L14.8554 154.814L14.32 154.195L13.7309 153.269L12.8863 152.591L11.5219 151.952L9.77764 151.399L8.14192 150.872L7.26589 150.338L5.6766 149.157L5.40529 148.634L5.12613 148.27L3.44466 144.639L3.17335 143.826L2.887 142.266L2.69742 142.171L0 139.961V137.998L1.7998 135.971L1.57621 134.67L1.52195 133.819L1.6769 132.203L2.06392 130.848L2.55228 129.649L3.05698 128.876L3.56038 128.219L4.14157 127.6L4.66523 127.179L5.3471 126.1L7.13383 122.333L7.32799 121.522L7.56073 119.937L7.40514 119.009L7.22339 118.391L7.26589 116.93L7.67645 112.06L7.94776 111.5L7.69998 107.408L7.56073 106.782L7.32799 106.264L7.01811 105.801L5.95575 104.433L5.57592 103.676L5.40529 103.081L5.34318 102.386L5.42098 101.281L5.57984 100.103L4.39 94.7545L4.16511 94.0405L3.22696 92.1522L2.13845 90.3837L1.86256 89.5309L1.79326 88.6539L1.6769 85.8513L0.655067 81.385L1.0957 81.2508L10.9943 77.8618L17.0102 75.8014L22.0566 74.065L25.9327 72.7298L32.7364 70.3814L39.9009 65.0525L49.1026 58.1317L51.8 54.9463L57.2733 48.4366L58.994 46.3847L61.5737 43.2843L62.6655 42.1553L63.3415 41.7181L63.6298 40.9942L65.5832 33.4452L66.1958 30.9934L66.6842 29.1045L67.0254 27.7857L67.8544 24.5864L68.5598 25.3647L69.0442 25.8352L69.8582 26.1664L73.0282 25.8791L71.7305 21.5869L70.9088 19.2516L71.1696 17.1879L71.3429 17.0237L71.6292 16.9058L72.13 16.449L72.2594 14.545L71.7534 13.4926L69.5967 11.872L68.9246 11.9277L68.2113 11.3805L67.5438 10.6206L66.9555 9.63823L66.5599 8.58775L66.2658 7.16355L66.1102 6.56991L65.6525 5.42518L63.1395 3.97546L61.6515 3.75031L61.8941 1.93275L64.5947 2.22008L65.6878 2.96621L67.2183 3.53629L69.3195 3.17434L70.5597 2.71488L71.1023 2.29927L71.8475 2.37585L72.7746 1.64019L73.0328 0.873108L73.3584 0L75.2556 0.234967Z"/>
</mask>
<path d="M75.2556 0.234967L78.4819 2.39156L80.1804 3.70973L80.808 4.49644L82.9785 5.42911L83.5126 5.22883L84.3076 4.68494L84.8855 4.53506L85.4314 4.74646L86.0792 5.51354L86.5133 6.2191L86.8618 7.01694L86.9788 7.62563L87.0096 8.23497L87.207 9.01318L89.3232 10.2587L90.0325 9.62252L91.4434 10.5709L95.9942 14.0555L96.4897 14.7414L96.6525 15.0052L96.9938 16.5452L97.5285 18.5807L98.164 20.6699L98.8851 21.4488L100.071 22.6661L99.614 23.9234L99.0943 24.7946L99.8618 26.3595L100.269 27.088L100.974 27.6973L104.815 28.7497L110.668 32.5203L111.424 34.0885L113.9 34.7712L114.994 34.4786L116.652 34.6246L119.385 37.1464L119.613 38.8501L119.746 39.7219L120.381 40.4313L121.582 42.0663L122.415 43.6724L121.582 44.4029L121.303 44.8964L120.73 47.5033L121.202 48.0197L123.272 49.4007L126.606 50.98L128.226 50.2024L129.394 49.1166L131.187 50.3026L132.369 52.3701L133.268 58.533L132.722 60.0527L132.067 60.9324L131.216 61.3297L131.676 63.6211L131.97 64.1263L132.83 64.8051L134.807 65.8929L135.59 65.6461L136.719 65.6003L137.614 67.0886L138.187 68.5554L140.063 68.0998L143.73 66.711L146.33 65.8006L150.218 66.7496L153.652 67.9068L154.443 68.1385L156.45 68.3466L160.846 65.8163L163.295 64.7514L164.714 65.0165L165.875 64.9831L166.388 63.3854L168.144 60.9016L170.559 58.9106L171.362 58.5984L171.64 59.1155L171.613 59.9369L171.888 60.7393L174.613 61.0633L176.191 61.005L179.202 62.3016L180.613 64.1263L185.458 64.504L187.884 63.1544L191.365 62.2204L194.642 60.7491L198.869 63.5249H201.459L203.966 65.7207L206.786 66.9754L208.459 68.4644L208.683 68.327L209.246 68.1666L210.369 68.4133L212.506 70.3317L212.784 71.4175L217.752 70.4259V71.9941L216.729 75.4774L207.108 90.461L206.132 91.9827L202.822 97.1022L201.101 99.7595L199.853 101.667L198.404 103.946L201.654 105.331L203.878 106.158L204.636 106.16L205.233 105.901L206.783 104.959L207.268 104.58L208.504 104.171L209.078 104.232L209.597 104.488L212.07 106.492L213.537 108.334L214.074 109.375L214.357 110.236L214.586 110.959L214.814 111.488L215.178 112.087L217.473 113.985L218.024 114.356L218.93 114.97L219.822 115.902L219.815 116.665L220 117.378L219.714 117.953L219.182 118.77L218.139 119.478L213.092 119.33L211.473 118.182L210.202 117.03L209.996 116.481L210.287 115.612L210.249 114.92L209.678 113.961L206.63 113.747L205.628 114.379L204.659 115.074L202.311 115.515L201.151 114.541L197.335 114.183L196 114.82L195.388 115.277L194.364 117.061L194.263 117.868L191.927 120.71L190.899 120.706L189.24 122.182H186.106L183.287 123.75L179.214 124.377L175.141 125.946L171.068 125.632H166.994L164.488 127.828L161.668 130.337L158.535 132.533L154.462 134.101L150.075 136.925L145.689 141.629L141.616 143.198L138.483 148.217L137.543 152.922L136.603 158.882L132.843 162.019L129.396 167.664L132.216 174.565L133.47 178.956L129.396 183.035L125.01 185.23L118.117 188.367L115.297 189.935L114.044 196.523L112.676 196.913L112.703 197.158L113.249 197.565L114.8 199.967L115.195 202.378L114.292 203.07L108.908 203.775L108.925 206.122L108.034 208.483L107.345 208.524L107.079 208.215L106.564 207.822L106.482 207.778L106.426 206.887L104.527 205.425L102.629 203.816L99.8527 203.523L97.8077 203.377L96.7859 202.208L95.3247 202.061L94.3022 202.354L93.7184 203.377L93.6786 203.563L93.6021 203.5L93.5249 203.449L92.4037 205.133L91.3813 206.156L90.8419 207.1L91.0792 208.363L91.2727 209.525L91.699 215.068L91.5983 217.535L91.459 218.255L90.9628 218.991L90.0868 219.605L89.5952 219.881L88.8983 221.51L87.2913 222.388L83.6394 222.681L80.7178 222.388L80.4366 222.059L80.0954 222.16L79.2573 221.657L76.0434 221.364L74.5835 223.119L73.2682 224.289L72.5556 225.082L71.622 224.977L69.8157 224.666L68.0701 225.982L67.4255 227.214V229.7L67.2797 231.454V233.153L66.3135 233.905L64.8138 234.28L64.7307 234.21L64.0717 233.587L63.4284 233.009L62.5367 232.468H61.3194L57.6374 235.675L55.9318 237.492L55.4205 238.147L54.9243 238.552L53.8999 239L53.2572 237.304L53.0212 235.945L53.1108 235.636L53.3429 234.826L53.4671 233.625L53.7227 231.888L54.0097 231.232L54.1019 231.108L52.965 229.318L53.4553 225.636L54.6811 223.427L56.2488 221.969L55.9318 221.38L55.2774 219.99H53.3501L52.8728 218.317L51.143 216.052L50.3441 213.387L49.6786 208.857L47.4166 206.592L46.6183 204.194V202.063L46.7209 200.306L48.5521 199.696L48.6293 199.228L48.7868 198.604L51.4934 196.669V194.214L50.7579 188.322L52.1099 186.969L52.6296 186.806L53.777 186.739L54.5916 186.926L55.412 187.159L56.1802 187.469L56.9242 188.013L57.661 188.572L57.9565 188.942L61.0566 188.813L63.5088 188.322L64.5581 187.902L64.5908 187.85L64.8471 187.066L65.3113 184.884L65.2341 183.782L65.2655 182.835L65.3891 181.175L65.5597 179.188L65.7689 177.815L66.0324 176.48L66.0866 175.744L65.9899 174.898L65.7192 174.284L66.9417 172.856L67.1869 170.401L65.7153 168.438L63.2637 167.21L59.8308 167.946L58.0022 169.341L55.482 168.81L54.6687 168.702L52.6061 168.716L51.3561 168.816L49.7773 169.911L47.0799 171.629L45.1179 170.647L43.1566 168.192L40.4592 165.737L37.9377 165.485L37.3924 165.924L36.4027 166.609L35.4201 167.055L33.8687 167.289L32.4899 166.721L31.0987 165.747L30.5489 164.915L29.9206 163.659L29.6997 162.632L29.1185 160.973L28.6922 160.199L28.2424 159.393L25.4051 157.44L24.0021 156.995L23.2268 157.072L22.1415 157.115L20.785 157.076L18.3432 156.898L17.56 156.704L16.7467 156.472L16.0099 156.092L14.8554 154.814L14.32 154.195L13.7309 153.269L12.8863 152.591L11.5219 151.952L9.77764 151.399L8.14192 150.872L7.26589 150.338L5.6766 149.157L5.40529 148.634L5.12613 148.27L3.44466 144.639L3.17335 143.826L2.887 142.266L2.69742 142.171L0 139.961V137.998L1.7998 135.971L1.57621 134.67L1.52195 133.819L1.6769 132.203L2.06392 130.848L2.55228 129.649L3.05698 128.876L3.56038 128.219L4.14157 127.6L4.66523 127.179L5.3471 126.1L7.13383 122.333L7.32799 121.522L7.56073 119.937L7.40514 119.009L7.22339 118.391L7.26589 116.93L7.67645 112.06L7.94776 111.5L7.69998 107.408L7.56073 106.782L7.32799 106.264L7.01811 105.801L5.95575 104.433L5.57592 103.676L5.40529 103.081L5.34318 102.386L5.42098 101.281L5.57984 100.103L4.39 94.7545L4.16511 94.0405L3.22696 92.1522L2.13845 90.3837L1.86256 89.5309L1.79326 88.6539L1.6769 85.8513L0.655067 81.385L1.0957 81.2508L10.9943 77.8618L17.0102 75.8014L22.0566 74.065L25.9327 72.7298L32.7364 70.3814L39.9009 65.0525L49.1026 58.1317L51.8 54.9463L57.2733 48.4366L58.994 46.3847L61.5737 43.2843L62.6655 42.1553L63.3415 41.7181L63.6298 40.9942L65.5832 33.4452L66.1958 30.9934L66.6842 29.1045L67.0254 27.7857L67.8544 24.5864L68.5598 25.3647L69.0442 25.8352L69.8582 26.1664L73.0282 25.8791L71.7305 21.5869L70.9088 19.2516L71.1696 17.1879L71.3429 17.0237L71.6292 16.9058L72.13 16.449L72.2594 14.545L71.7534 13.4926L69.5967 11.872L68.9246 11.9277L68.2113 11.3805L67.5438 10.6206L66.9555 9.63823L66.5599 8.58775L66.2658 7.16355L66.1102 6.56991L65.6525 5.42518L63.1395 3.97546L61.6515 3.75031L61.8941 1.93275L64.5947 2.22008L65.6878 2.96621L67.2183 3.53629L69.3195 3.17434L70.5597 2.71488L71.1023 2.29927L71.8475 2.37585L72.7746 1.64019L73.0328 0.873108L73.3584 0L75.2556 0.234967Z" fill="#E9ECF2"/>
<path d="M75.2556 0.234967L78.4819 2.39156L80.1804 3.70973L80.808 4.49644L82.9785 5.42911L83.5126 5.22883L84.3076 4.68494L84.8855 4.53506L85.4314 4.74646L86.0792 5.51354L86.5133 6.2191L86.8618 7.01694L86.9788 7.62563L87.0096 8.23497L87.207 9.01318L89.3232 10.2587L90.0325 9.62252L91.4434 10.5709L95.9942 14.0555L96.4897 14.7414L96.6525 15.0052L96.9938 16.5452L97.5285 18.5807L98.164 20.6699L98.8851 21.4488L100.071 22.6661L99.614 23.9234L99.0943 24.7946L99.8618 26.3595L100.269 27.088L100.974 27.6973L104.815 28.7497L110.668 32.5203L111.424 34.0885L113.9 34.7712L114.994 34.4786L116.652 34.6246L119.385 37.1464L119.613 38.8501L119.746 39.7219L120.381 40.4313L121.582 42.0663L122.415 43.6724L121.582 44.4029L121.303 44.8964L120.73 47.5033L121.202 48.0197L123.272 49.4007L126.606 50.98L128.226 50.2024L129.394 49.1166L131.187 50.3026L132.369 52.3701L133.268 58.533L132.722 60.0527L132.067 60.9324L131.216 61.3297L131.676 63.6211L131.97 64.1263L132.83 64.8051L134.807 65.8929L135.59 65.6461L136.719 65.6003L137.614 67.0886L138.187 68.5554L140.063 68.0998L143.73 66.711L146.33 65.8006L150.218 66.7496L153.652 67.9068L154.443 68.1385L156.45 68.3466L160.846 65.8163L163.295 64.7514L164.714 65.0165L165.875 64.9831L166.388 63.3854L168.144 60.9016L170.559 58.9106L171.362 58.5984L171.64 59.1155L171.613 59.9369L171.888 60.7393L174.613 61.0633L176.191 61.005L179.202 62.3016L180.613 64.1263L185.458 64.504L187.884 63.1544L191.365 62.2204L194.642 60.7491L198.869 63.5249H201.459L203.966 65.7207L206.786 66.9754L208.459 68.4644L208.683 68.327L209.246 68.1666L210.369 68.4133L212.506 70.3317L212.784 71.4175L217.752 70.4259V71.9941L216.729 75.4774L207.108 90.461L206.132 91.9827L202.822 97.1022L201.101 99.7595L199.853 101.667L198.404 103.946L201.654 105.331L203.878 106.158L204.636 106.16L205.233 105.901L206.783 104.959L207.268 104.58L208.504 104.171L209.078 104.232L209.597 104.488L212.07 106.492L213.537 108.334L214.074 109.375L214.357 110.236L214.586 110.959L214.814 111.488L215.178 112.087L217.473 113.985L218.024 114.356L218.93 114.97L219.822 115.902L219.815 116.665L220 117.378L219.714 117.953L219.182 118.77L218.139 119.478L213.092 119.33L211.473 118.182L210.202 117.03L209.996 116.481L210.287 115.612L210.249 114.92L209.678 113.961L206.63 113.747L205.628 114.379L204.659 115.074L202.311 115.515L201.151 114.541L197.335 114.183L196 114.82L195.388 115.277L194.364 117.061L194.263 117.868L191.927 120.71L190.899 120.706L189.24 122.182H186.106L183.287 123.75L179.214 124.377L175.141 125.946L171.068 125.632H166.994L164.488 127.828L161.668 130.337L158.535 132.533L154.462 134.101L150.075 136.925L145.689 141.629L141.616 143.198L138.483 148.217L137.543 152.922L136.603 158.882L132.843 162.019L129.396 167.664L132.216 174.565L133.47 178.956L129.396 183.035L125.01 185.23L118.117 188.367L115.297 189.935L114.044 196.523L112.676 196.913L112.703 197.158L113.249 197.565L114.8 199.967L115.195 202.378L114.292 203.07L108.908 203.775L108.925 206.122L108.034 208.483L107.345 208.524L107.079 208.215L106.564 207.822L106.482 207.778L106.426 206.887L104.527 205.425L102.629 203.816L99.8527 203.523L97.8077 203.377L96.7859 202.208L95.3247 202.061L94.3022 202.354L93.7184 203.377L93.6786 203.563L93.6021 203.5L93.5249 203.449L92.4037 205.133L91.3813 206.156L90.8419 207.1L91.0792 208.363L91.2727 209.525L91.699 215.068L91.5983 217.535L91.459 218.255L90.9628 218.991L90.0868 219.605L89.5952 219.881L88.8983 221.51L87.2913 222.388L83.6394 222.681L80.7178 222.388L80.4366 222.059L80.0954 222.16L79.2573 221.657L76.0434 221.364L74.5835 223.119L73.2682 224.289L72.5556 225.082L71.622 224.977L69.8157 224.666L68.0701 225.982L67.4255 227.214V229.7L67.2797 231.454V233.153L66.3135 233.905L64.8138 234.28L64.7307 234.21L64.0717 233.587L63.4284 233.009L62.5367 232.468H61.3194L57.6374 235.675L55.9318 237.492L55.4205 238.147L54.9243 238.552L53.8999 239L53.2572 237.304L53.0212 235.945L53.1108 235.636L53.3429 234.826L53.4671 233.625L53.7227 231.888L54.0097 231.232L54.1019 231.108L52.965 229.318L53.4553 225.636L54.6811 223.427L56.2488 221.969L55.9318 221.38L55.2774 219.99H53.3501L52.8728 218.317L51.143 216.052L50.3441 213.387L49.6786 208.857L47.4166 206.592L46.6183 204.194V202.063L46.7209 200.306L48.5521 199.696L48.6293 199.228L48.7868 198.604L51.4934 196.669V194.214L50.7579 188.322L52.1099 186.969L52.6296 186.806L53.777 186.739L54.5916 186.926L55.412 187.159L56.1802 187.469L56.9242 188.013L57.661 188.572L57.9565 188.942L61.0566 188.813L63.5088 188.322L64.5581 187.902L64.5908 187.85L64.8471 187.066L65.3113 184.884L65.2341 183.782L65.2655 182.835L65.3891 181.175L65.5597 179.188L65.7689 177.815L66.0324 176.48L66.0866 175.744L65.9899 174.898L65.7192 174.284L66.9417 172.856L67.1869 170.401L65.7153 168.438L63.2637 167.21L59.8308 167.946L58.0022 169.341L55.482 168.81L54.6687 168.702L52.6061 168.716L51.3561 168.816L49.7773 169.911L47.0799 171.629L45.1179 170.647L43.1566 168.192L40.4592 165.737L37.9377 165.485L37.3924 165.924L36.4027 166.609L35.4201 167.055L33.8687 167.289L32.4899 166.721L31.0987 165.747L30.5489 164.915L29.9206 163.659L29.6997 162.632L29.1185 160.973L28.6922 160.199L28.2424 159.393L25.4051 157.44L24.0021 156.995L23.2268 157.072L22.1415 157.115L20.785 157.076L18.3432 156.898L17.56 156.704L16.7467 156.472L16.0099 156.092L14.8554 154.814L14.32 154.195L13.7309 153.269L12.8863 152.591L11.5219 151.952L9.77764 151.399L8.14192 150.872L7.26589 150.338L5.6766 149.157L5.40529 148.634L5.12613 148.27L3.44466 144.639L3.17335 143.826L2.887 142.266L2.69742 142.171L0 139.961V137.998L1.7998 135.971L1.57621 134.67L1.52195 133.819L1.6769 132.203L2.06392 130.848L2.55228 129.649L3.05698 128.876L3.56038 128.219L4.14157 127.6L4.66523 127.179L5.3471 126.1L7.13383 122.333L7.32799 121.522L7.56073 119.937L7.40514 119.009L7.22339 118.391L7.26589 116.93L7.67645 112.06L7.94776 111.5L7.69998 107.408L7.56073 106.782L7.32799 106.264L7.01811 105.801L5.95575 104.433L5.57592 103.676L5.40529 103.081L5.34318 102.386L5.42098 101.281L5.57984 100.103L4.39 94.7545L4.16511 94.0405L3.22696 92.1522L2.13845 90.3837L1.86256 89.5309L1.79326 88.6539L1.6769 85.8513L0.655067 81.385L1.0957 81.2508L10.9943 77.8618L17.0102 75.8014L22.0566 74.065L25.9327 72.7298L32.7364 70.3814L39.9009 65.0525L49.1026 58.1317L51.8 54.9463L57.2733 48.4366L58.994 46.3847L61.5737 43.2843L62.6655 42.1553L63.3415 41.7181L63.6298 40.9942L65.5832 33.4452L66.1958 30.9934L66.6842 29.1045L67.0254 27.7857L67.8544 24.5864L68.5598 25.3647L69.0442 25.8352L69.8582 26.1664L73.0282 25.8791L71.7305 21.5869L70.9088 19.2516L71.1696 17.1879L71.3429 17.0237L71.6292 16.9058L72.13 16.449L72.2594 14.545L71.7534 13.4926L69.5967 11.872L68.9246 11.9277L68.2113 11.3805L67.5438 10.6206L66.9555 9.63823L66.5599 8.58775L66.2658 7.16355L66.1102 6.56991L65.6525 5.42518L63.1395 3.97546L61.6515 3.75031L61.8941 1.93275L64.5947 2.22008L65.6878 2.96621L67.2183 3.53629L69.3195 3.17434L70.5597 2.71488L71.1023 2.29927L71.8475 2.37585L72.7746 1.64019L73.0328 0.873108L73.3584 0L75.2556 0.234967Z" stroke="#8F959D" stroke-width="4" mask="url(#path-1-inside-1_8891_6803)"/>
<path d="M75.2556 0.234967L78.4819 2.39156L80.1804 3.70973L80.808 4.49644L82.9785 5.42911L83.5126 5.22883L84.3076 4.68494L84.8855 4.53506L85.4314 4.74646L86.0792 5.51354L86.5133 6.2191L86.8618 7.01694L86.9788 7.62563L87.0096 8.23497L87.207 9.01318L89.3232 10.2587L90.0325 9.62252L91.4434 10.5709L95.9942 14.0555L96.4897 14.7414L96.6525 15.0052L96.9938 16.5452L97.5285 18.5807L98.164 20.6699L98.8851 21.4488L100.071 22.6661L99.614 23.9234L99.0943 24.7946L99.8618 26.3595L100.269 27.088L100.974 27.6973L104.815 28.7497L110.668 32.5203L111.424 34.0885L113.9 34.7712L114.994 34.4786L116.652 34.6246L119.385 37.1464L119.613 38.8501L119.746 39.7219L120.381 40.4313L121.582 42.0663L122.415 43.6724L121.582 44.4029L121.303 44.8964L120.73 47.5033L121.202 48.0197L123.272 49.4007L126.606 50.98L128.226 50.2024L129.394 49.1166L131.187 50.3026L132.369 52.3701L133.268 58.533L132.722 60.0527L132.067 60.9324L131.216 61.3297L131.676 63.6211L131.97 64.1263L132.83 64.8051L134.807 65.8929L135.59 65.6461L136.719 65.6003L137.614 67.0886L138.187 68.5554L140.063 68.0998L143.73 66.711L146.33 65.8006L150.218 66.7496L153.652 67.9068L154.443 68.1385L156.45 68.3466L160.846 65.8163L163.295 64.7514L164.714 65.0165L165.875 64.9831L166.388 63.3854L168.144 60.9016L170.559 58.9106L171.362 58.5984L171.64 59.1155L171.613 59.9369L171.888 60.7393L174.613 61.0633L176.191 61.005L179.202 62.3016L180.613 64.1263L185.458 64.504L187.884 63.1544L191.365 62.2204L194.642 60.7491L198.869 63.5249H201.459L203.966 65.7207L206.786 66.9754L208.459 68.4644L208.683 68.327L209.246 68.1666L210.369 68.4133L212.506 70.3317L212.784 71.4175L217.752 70.4259V71.9941L216.729 75.4774L207.108 90.461L206.132 91.9827L202.822 97.1022L201.101 99.7595L199.853 101.667L198.404 103.946L201.654 105.331L203.878 106.158L204.636 106.16L205.233 105.901L206.783 104.959L207.268 104.58L208.504 104.171L209.078 104.232L209.597 104.488L212.07 106.492L213.537 108.334L214.074 109.375L214.357 110.236L214.586 110.959L214.814 111.488L215.178 112.087L217.473 113.985L218.024 114.356L218.93 114.97L219.822 115.902L219.815 116.665L220 117.378L219.714 117.953L219.182 118.77L218.139 119.478L213.092 119.33L211.473 118.182L210.202 117.03L209.996 116.481L210.287 115.612L210.249 114.92L209.678 113.961L206.63 113.747L205.628 114.379L204.659 115.074L202.311 115.515L201.151 114.541L197.335 114.183L196 114.82L195.388 115.277L194.364 117.061L194.263 117.868L191.927 120.71L190.899 120.706L189.24 122.182H186.106L183.287 123.75L179.214 124.377L175.141 125.946L171.068 125.632H166.994L164.488 127.828L161.668 130.337L158.535 132.533L154.462 134.101L150.075 136.925L145.689 141.629L141.616 143.198L138.483 148.217L137.543 152.922L136.603 158.882L132.843 162.019L129.396 167.664L132.216 174.565L133.47 178.956L129.396 183.035L125.01 185.23L118.117 188.367L115.297 189.935L114.044 196.523L112.676 196.913L112.703 197.158L113.249 197.565L114.8 199.967L115.195 202.378L114.292 203.07L108.908 203.775L108.925 206.122L108.034 208.483L107.345 208.524L107.079 208.215L106.564 207.822L106.482 207.778L106.426 206.887L104.527 205.425L102.629 203.816L99.8527 203.523L97.8077 203.377L96.7859 202.208L95.3247 202.061L94.3022 202.354L93.7184 203.377L93.6786 203.563L93.6021 203.5L93.5249 203.449L92.4037 205.133L91.3813 206.156L90.8419 207.1L91.0792 208.363L91.2727 209.525L91.699 215.068L91.5983 217.535L91.459 218.255L90.9628 218.991L90.0868 219.605L89.5952 219.881L88.8983 221.51L87.2913 222.388L83.6394 222.681L80.7178 222.388L80.4366 222.059L80.0954 222.16L79.2573 221.657L76.0434 221.364L74.5835 223.119L73.2682 224.289L72.5556 225.082L71.622 224.977L69.8157 224.666L68.0701 225.982L67.4255 227.214V229.7L67.2797 231.454V233.153L66.3135 233.905L64.8138 234.28L64.7307 234.21L64.0717 233.587L63.4284 233.009L62.5367 232.468H61.3194L57.6374 235.675L55.9318 237.492L55.4205 238.147L54.9243 238.552L53.8999 239L53.2572 237.304L53.0212 235.945L53.1108 235.636L53.3429 234.826L53.4671 233.625L53.7227 231.888L54.0097 231.232L54.1019 231.108L52.965 229.318L53.4553 225.636L54.6811 223.427L56.2488 221.969L55.9318 221.38L55.2774 219.99H53.3501L52.8728 218.317L51.143 216.052L50.3441 213.387L49.6786 208.857L47.4166 206.592L46.6183 204.194V202.063L46.7209 200.306L48.5521 199.696L48.6293 199.228L48.7868 198.604L51.4934 196.669V194.214L50.7579 188.322L52.1099 186.969L52.6296 186.806L53.777 186.739L54.5916 186.926L55.412 187.159L56.1802 187.469L56.9242 188.013L57.661 188.572L57.9565 188.942L61.0566 188.813L63.5088 188.322L64.5581 187.902L64.5908 187.85L64.8471 187.066L65.3113 184.884L65.2341 183.782L65.2655 182.835L65.3891 181.175L65.5597 179.188L65.7689 177.815L66.0324 176.48L66.0866 175.744L65.9899 174.898L65.7192 174.284L66.9417 172.856L67.1869 170.401L65.7153 168.438L63.2637 167.21L59.8308 167.946L58.0022 169.341L55.482 168.81L54.6687 168.702L52.6061 168.716L51.3561 168.816L49.7773 169.911L47.0799 171.629L45.1179 170.647L43.1566 168.192L40.4592 165.737L37.9377 165.485L37.3924 165.924L36.4027 166.609L35.4201 167.055L33.8687 167.289L32.4899 166.721L31.0987 165.747L30.5489 164.915L29.9206 163.659L29.6997 162.632L29.1185 160.973L28.6922 160.199L28.2424 159.393L25.4051 157.44L24.0021 156.995L23.2268 157.072L22.1415 157.115L20.785 157.076L18.3432 156.898L17.56 156.704L16.7467 156.472L16.0099 156.092L14.8554 154.814L14.32 154.195L13.7309 153.269L12.8863 152.591L11.5219 151.952L9.77764 151.399L8.14192 150.872L7.26589 150.338L5.6766 149.157L5.40529 148.634L5.12613 148.27L3.44466 144.639L3.17335 143.826L2.887 142.266L2.69742 142.171L0 139.961V137.998L1.7998 135.971L1.57621 134.67L1.52195 133.819L1.6769 132.203L2.06392 130.848L2.55228 129.649L3.05698 128.876L3.56038 128.219L4.14157 127.6L4.66523 127.179L5.3471 126.1L7.13383 122.333L7.32799 121.522L7.56073 119.937L7.40514 119.009L7.22339 118.391L7.26589 116.93L7.67645 112.06L7.94776 111.5L7.69998 107.408L7.56073 106.782L7.32799 106.264L7.01811 105.801L5.95575 104.433L5.57592 103.676L5.40529 103.081L5.34318 102.386L5.42098 101.281L5.57984 100.103L4.39 94.7545L4.16511 94.0405L3.22696 92.1522L2.13845 90.3837L1.86256 89.5309L1.79326 88.6539L1.6769 85.8513L0.655067 81.385L1.0957 81.2508L10.9943 77.8618L17.0102 75.8014L22.0566 74.065L25.9327 72.7298L32.7364 70.3814L39.9009 65.0525L49.1026 58.1317L51.8 54.9463L57.2733 48.4366L58.994 46.3847L61.5737 43.2843L62.6655 42.1553L63.3415 41.7181L63.6298 40.9942L65.5832 33.4452L66.1958 30.9934L66.6842 29.1045L67.0254 27.7857L67.8544 24.5864L68.5598 25.3647L69.0442 25.8352L69.8582 26.1664L73.0282 25.8791L71.7305 21.5869L70.9088 19.2516L71.1696 17.1879L71.3429 17.0237L71.6292 16.9058L72.13 16.449L72.2594 14.545L71.7534 13.4926L69.5967 11.872L68.9246 11.9277L68.2113 11.3805L67.5438 10.6206L66.9555 9.63823L66.5599 8.58775L66.2658 7.16355L66.1102 6.56991L65.6525 5.42518L63.1395 3.97546L61.6515 3.75031L61.8941 1.93275L64.5947 2.22008L65.6878 2.96621L67.2183 3.53629L69.3195 3.17434L70.5597 2.71488L71.1023 2.29927L71.8475 2.37585L72.7746 1.64019L73.0328 0.873108L73.3584 0L75.2556 0.234967Z" stroke="black" stroke-opacity="0.2" stroke-width="4" mask="url(#path-1-inside-1_8891_6803)"/>
<path d="M75.2556 0.234967L78.4819 2.39156L80.1804 3.70973L80.808 4.49644L82.9785 5.42911L83.5126 5.22883L84.3076 4.68494L84.8855 4.53506L85.4314 4.74646L86.0792 5.51354L86.5133 6.2191L86.8618 7.01694L86.9788 7.62563L87.0096 8.23497L87.207 9.01318L89.3232 10.2587L90.0325 9.62252L91.4434 10.5709L95.9942 14.0555L96.4897 14.7414L96.6525 15.0052L96.9938 16.5452L97.5285 18.5807L98.164 20.6699L98.8851 21.4488L100.071 22.6661L99.614 23.9234L99.0943 24.7946L99.8618 26.3595L100.269 27.088L100.974 27.6973L104.815 28.7497L110.668 32.5203L111.424 34.0885L113.9 34.7712L114.994 34.4786L116.652 34.6246L119.385 37.1464L119.613 38.8501L119.746 39.7219L120.381 40.4313L121.582 42.0663L122.415 43.6724L121.582 44.4029L121.303 44.8964L120.73 47.5033L121.202 48.0197L123.272 49.4007L126.606 50.98L128.226 50.2024L129.394 49.1166L131.187 50.3026L132.369 52.3701L133.268 58.533L132.722 60.0527L132.067 60.9324L131.216 61.3297L131.676 63.6211L131.97 64.1263L132.83 64.8051L134.807 65.8929L135.59 65.6461L136.719 65.6003L137.614 67.0886L138.187 68.5554L140.063 68.0998L143.73 66.711L146.33 65.8006L150.218 66.7496L153.652 67.9068L154.443 68.1385L156.45 68.3466L160.846 65.8163L163.295 64.7514L164.714 65.0165L165.875 64.9831L166.388 63.3854L168.144 60.9016L170.559 58.9106L171.362 58.5984L171.64 59.1155L171.613 59.9369L171.888 60.7393L174.613 61.0633L176.191 61.005L179.202 62.3016L180.613 64.1263L185.458 64.504L187.884 63.1544L191.365 62.2204L194.642 60.7491L198.869 63.5249H201.459L203.966 65.7207L206.786 66.9754L208.459 68.4644L208.683 68.327L209.246 68.1666L210.369 68.4133L212.506 70.3317L212.784 71.4175L217.752 70.4259V71.9941L216.729 75.4774L207.108 90.461L206.132 91.9827L202.822 97.1022L201.101 99.7595L199.853 101.667L198.404 103.946L201.654 105.331L203.878 106.158L204.636 106.16L205.233 105.901L206.783 104.959L207.268 104.58L208.504 104.171L209.078 104.232L209.597 104.488L212.07 106.492L213.537 108.334L214.074 109.375L214.357 110.236L214.586 110.959L214.814 111.488L215.178 112.087L217.473 113.985L218.024 114.356L218.93 114.97L219.822 115.902L219.815 116.665L220 117.378L219.714 117.953L219.182 118.77L218.139 119.478L213.092 119.33L211.473 118.182L210.202 117.03L209.996 116.481L210.287 115.612L210.249 114.92L209.678 113.961L206.63 113.747L205.628 114.379L204.659 115.074L202.311 115.515L201.151 114.541L197.335 114.183L196 114.82L195.388 115.277L194.364 117.061L194.263 117.868L191.927 120.71L190.899 120.706L189.24 122.182H186.106L183.287 123.75L179.214 124.377L175.141 125.946L171.068 125.632H166.994L164.488 127.828L161.668 130.337L158.535 132.533L154.462 134.101L150.075 136.925L145.689 141.629L141.616 143.198L138.483 148.217L137.543 152.922L136.603 158.882L132.843 162.019L129.396 167.664L132.216 174.565L133.47 178.956L129.396 183.035L125.01 185.23L118.117 188.367L115.297 189.935L114.044 196.523L112.676 196.913L112.703 197.158L113.249 197.565L114.8 199.967L115.195 202.378L114.292 203.07L108.908 203.775L108.925 206.122L108.034 208.483L107.345 208.524L107.079 208.215L106.564 207.822L106.482 207.778L106.426 206.887L104.527 205.425L102.629 203.816L99.8527 203.523L97.8077 203.377L96.7859 202.208L95.3247 202.061L94.3022 202.354L93.7184 203.377L93.6786 203.563L93.6021 203.5L93.5249 203.449L92.4037 205.133L91.3813 206.156L90.8419 207.1L91.0792 208.363L91.2727 209.525L91.699 215.068L91.5983 217.535L91.459 218.255L90.9628 218.991L90.0868 219.605L89.5952 219.881L88.8983 221.51L87.2913 222.388L83.6394 222.681L80.7178 222.388L80.4366 222.059L80.0954 222.16L79.2573 221.657L76.0434 221.364L74.5835 223.119L73.2682 224.289L72.5556 225.082L71.622 224.977L69.8157 224.666L68.0701 225.982L67.4255 227.214V229.7L67.2797 231.454V233.153L66.3135 233.905L64.8138 234.28L64.7307 234.21L64.0717 233.587L63.4284 233.009L62.5367 232.468H61.3194L57.6374 235.675L55.9318 237.492L55.4205 238.147L54.9243 238.552L53.8999 239L53.2572 237.304L53.0212 235.945L53.1108 235.636L53.3429 234.826L53.4671 233.625L53.7227 231.888L54.0097 231.232L54.1019 231.108L52.965 229.318L53.4553 225.636L54.6811 223.427L56.2488 221.969L55.9318 221.38L55.2774 219.99H53.3501L52.8728 218.317L51.143 216.052L50.3441 213.387L49.6786 208.857L47.4166 206.592L46.6183 204.194V202.063L46.7209 200.306L48.5521 199.696L48.6293 199.228L48.7868 198.604L51.4934 196.669V194.214L50.7579 188.322L52.1099 186.969L52.6296 186.806L53.777 186.739L54.5916 186.926L55.412 187.159L56.1802 187.469L56.9242 188.013L57.661 188.572L57.9565 188.942L61.0566 188.813L63.5088 188.322L64.5581 187.902L64.5908 187.85L64.8471 187.066L65.3113 184.884L65.2341 183.782L65.2655 182.835L65.3891 181.175L65.5597 179.188L65.7689 177.815L66.0324 176.48L66.0866 175.744L65.9899 174.898L65.7192 174.284L66.9417 172.856L67.1869 170.401L65.7153 168.438L63.2637 167.21L59.8308 167.946L58.0022 169.341L55.482 168.81L54.6687 168.702L52.6061 168.716L51.3561 168.816L49.7773 169.911L47.0799 171.629L45.1179 170.647L43.1566 168.192L40.4592 165.737L37.9377 165.485L37.3924 165.924L36.4027 166.609L35.4201 167.055L33.8687 167.289L32.4899 166.721L31.0987 165.747L30.5489 164.915L29.9206 163.659L29.6997 162.632L29.1185 160.973L28.6922 160.199L28.2424 159.393L25.4051 157.44L24.0021 156.995L23.2268 157.072L22.1415 157.115L20.785 157.076L18.3432 156.898L17.56 156.704L16.7467 156.472L16.0099 156.092L14.8554 154.814L14.32 154.195L13.7309 153.269L12.8863 152.591L11.5219 151.952L9.77764 151.399L8.14192 150.872L7.26589 150.338L5.6766 149.157L5.40529 148.634L5.12613 148.27L3.44466 144.639L3.17335 143.826L2.887 142.266L2.69742 142.171L0 139.961V137.998L1.7998 135.971L1.57621 134.67L1.52195 133.819L1.6769 132.203L2.06392 130.848L2.55228 129.649L3.05698 128.876L3.56038 128.219L4.14157 127.6L4.66523 127.179L5.3471 126.1L7.13383 122.333L7.32799 121.522L7.56073 119.937L7.40514 119.009L7.22339 118.391L7.26589 116.93L7.67645 112.06L7.94776 111.5L7.69998 107.408L7.56073 106.782L7.32799 106.264L7.01811 105.801L5.95575 104.433L5.57592 103.676L5.40529 103.081L5.34318 102.386L5.42098 101.281L5.57984 100.103L4.39 94.7545L4.16511 94.0405L3.22696 92.1522L2.13845 90.3837L1.86256 89.5309L1.79326 88.6539L1.6769 85.8513L0.655067 81.385L1.0957 81.2508L10.9943 77.8618L17.0102 75.8014L22.0566 74.065L25.9327 72.7298L32.7364 70.3814L39.9009 65.0525L49.1026 58.1317L51.8 54.9463L57.2733 48.4366L58.994 46.3847L61.5737 43.2843L62.6655 42.1553L63.3415 41.7181L63.6298 40.9942L65.5832 33.4452L66.1958 30.9934L66.6842 29.1045L67.0254 27.7857L67.8544 24.5864L68.5598 25.3647L69.0442 25.8352L69.8582 26.1664L73.0282 25.8791L71.7305 21.5869L70.9088 19.2516L71.1696 17.1879L71.3429 17.0237L71.6292 16.9058L72.13 16.449L72.2594 14.545L71.7534 13.4926L69.5967 11.872L68.9246 11.9277L68.2113 11.3805L67.5438 10.6206L66.9555 9.63823L66.5599 8.58775L66.2658 7.16355L66.1102 6.56991L65.6525 5.42518L63.1395 3.97546L61.6515 3.75031L61.8941 1.93275L64.5947 2.22008L65.6878 2.96621L67.2183 3.53629L69.3195 3.17434L70.5597 2.71488L71.1023 2.29927L71.8475 2.37585L72.7746 1.64019L73.0328 0.873108L73.3584 0L75.2556 0.234967Z" stroke="black" stroke-opacity="0.2" stroke-width="4" mask="url(#path-1-inside-1_8891_6803)"/>
<path d="M75.2556 0.234967L78.4819 2.39156L80.1804 3.70973L80.808 4.49644L82.9785 5.42911L83.5126 5.22883L84.3076 4.68494L84.8855 4.53506L85.4314 4.74646L86.0792 5.51354L86.5133 6.2191L86.8618 7.01694L86.9788 7.62563L87.0096 8.23497L87.207 9.01318L89.3232 10.2587L90.0325 9.62252L91.4434 10.5709L95.9942 14.0555L96.4897 14.7414L96.6525 15.0052L96.9938 16.5452L97.5285 18.5807L98.164 20.6699L98.8851 21.4488L100.071 22.6661L99.614 23.9234L99.0943 24.7946L99.8618 26.3595L100.269 27.088L100.974 27.6973L104.815 28.7497L110.668 32.5203L111.424 34.0885L113.9 34.7712L114.994 34.4786L116.652 34.6246L119.385 37.1464L119.613 38.8501L119.746 39.7219L120.381 40.4313L121.582 42.0663L122.415 43.6724L121.582 44.4029L121.303 44.8964L120.73 47.5033L121.202 48.0197L123.272 49.4007L126.606 50.98L128.226 50.2024L129.394 49.1166L131.187 50.3026L132.369 52.3701L133.268 58.533L132.722 60.0527L132.067 60.9324L131.216 61.3297L131.676 63.6211L131.97 64.1263L132.83 64.8051L134.807 65.8929L135.59 65.6461L136.719 65.6003L137.614 67.0886L138.187 68.5554L140.063 68.0998L143.73 66.711L146.33 65.8006L150.218 66.7496L153.652 67.9068L154.443 68.1385L156.45 68.3466L160.846 65.8163L163.295 64.7514L164.714 65.0165L165.875 64.9831L166.388 63.3854L168.144 60.9016L170.559 58.9106L171.362 58.5984L171.64 59.1155L171.613 59.9369L171.888 60.7393L174.613 61.0633L176.191 61.005L179.202 62.3016L180.613 64.1263L185.458 64.504L187.884 63.1544L191.365 62.2204L194.642 60.7491L198.869 63.5249H201.459L203.966 65.7207L206.786 66.9754L208.459 68.4644L208.683 68.327L209.246 68.1666L210.369 68.4133L212.506 70.3317L212.784 71.4175L217.752 70.4259V71.9941L216.729 75.4774L207.108 90.461L206.132 91.9827L202.822 97.1022L201.101 99.7595L199.853 101.667L198.404 103.946L201.654 105.331L203.878 106.158L204.636 106.16L205.233 105.901L206.783 104.959L207.268 104.58L208.504 104.171L209.078 104.232L209.597 104.488L212.07 106.492L213.537 108.334L214.074 109.375L214.357 110.236L214.586 110.959L214.814 111.488L215.178 112.087L217.473 113.985L218.024 114.356L218.93 114.97L219.822 115.902L219.815 116.665L220 117.378L219.714 117.953L219.182 118.77L218.139 119.478L213.092 119.33L211.473 118.182L210.202 117.03L209.996 116.481L210.287 115.612L210.249 114.92L209.678 113.961L206.63 113.747L205.628 114.379L204.659 115.074L202.311 115.515L201.151 114.541L197.335 114.183L196 114.82L195.388 115.277L194.364 117.061L194.263 117.868L191.927 120.71L190.899 120.706L189.24 122.182H186.106L183.287 123.75L179.214 124.377L175.141 125.946L171.068 125.632H166.994L164.488 127.828L161.668 130.337L158.535 132.533L154.462 134.101L150.075 136.925L145.689 141.629L141.616 143.198L138.483 148.217L137.543 152.922L136.603 158.882L132.843 162.019L129.396 167.664L132.216 174.565L133.47 178.956L129.396 183.035L125.01 185.23L118.117 188.367L115.297 189.935L114.044 196.523L112.676 196.913L112.703 197.158L113.249 197.565L114.8 199.967L115.195 202.378L114.292 203.07L108.908 203.775L108.925 206.122L108.034 208.483L107.345 208.524L107.079 208.215L106.564 207.822L106.482 207.778L106.426 206.887L104.527 205.425L102.629 203.816L99.8527 203.523L97.8077 203.377L96.7859 202.208L95.3247 202.061L94.3022 202.354L93.7184 203.377L93.6786 203.563L93.6021 203.5L93.5249 203.449L92.4037 205.133L91.3813 206.156L90.8419 207.1L91.0792 208.363L91.2727 209.525L91.699 215.068L91.5983 217.535L91.459 218.255L90.9628 218.991L90.0868 219.605L89.5952 219.881L88.8983 221.51L87.2913 222.388L83.6394 222.681L80.7178 222.388L80.4366 222.059L80.0954 222.16L79.2573 221.657L76.0434 221.364L74.5835 223.119L73.2682 224.289L72.5556 225.082L71.622 224.977L69.8157 224.666L68.0701 225.982L67.4255 227.214V229.7L67.2797 231.454V233.153L66.3135 233.905L64.8138 234.28L64.7307 234.21L64.0717 233.587L63.4284 233.009L62.5367 232.468H61.3194L57.6374 235.675L55.9318 237.492L55.4205 238.147L54.9243 238.552L53.8999 239L53.2572 237.304L53.0212 235.945L53.1108 235.636L53.3429 234.826L53.4671 233.625L53.7227 231.888L54.0097 231.232L54.1019 231.108L52.965 229.318L53.4553 225.636L54.6811 223.427L56.2488 221.969L55.9318 221.38L55.2774 219.99H53.3501L52.8728 218.317L51.143 216.052L50.3441 213.387L49.6786 208.857L47.4166 206.592L46.6183 204.194V202.063L46.7209 200.306L48.5521 199.696L48.6293 199.228L48.7868 198.604L51.4934 196.669V194.214L50.7579 188.322L52.1099 186.969L52.6296 186.806L53.777 186.739L54.5916 186.926L55.412 187.159L56.1802 187.469L56.9242 188.013L57.661 188.572L57.9565 188.942L61.0566 188.813L63.5088 188.322L64.5581 187.902L64.5908 187.85L64.8471 187.066L65.3113 184.884L65.2341 183.782L65.2655 182.835L65.3891 181.175L65.5597 179.188L65.7689 177.815L66.0324 176.48L66.0866 175.744L65.9899 174.898L65.7192 174.284L66.9417 172.856L67.1869 170.401L65.7153 168.438L63.2637 167.21L59.8308 167.946L58.0022 169.341L55.482 168.81L54.6687 168.702L52.6061 168.716L51.3561 168.816L49.7773 169.911L47.0799 171.629L45.1179 170.647L43.1566 168.192L40.4592 165.737L37.9377 165.485L37.3924 165.924L36.4027 166.609L35.4201 167.055L33.8687 167.289L32.4899 166.721L31.0987 165.747L30.5489 164.915L29.9206 163.659L29.6997 162.632L29.1185 160.973L28.6922 160.199L28.2424 159.393L25.4051 157.44L24.0021 156.995L23.2268 157.072L22.1415 157.115L20.785 157.076L18.3432 156.898L17.56 156.704L16.7467 156.472L16.0099 156.092L14.8554 154.814L14.32 154.195L13.7309 153.269L12.8863 152.591L11.5219 151.952L9.77764 151.399L8.14192 150.872L7.26589 150.338L5.6766 149.157L5.40529 148.634L5.12613 148.27L3.44466 144.639L3.17335 143.826L2.887 142.266L2.69742 142.171L0 139.961V137.998L1.7998 135.971L1.57621 134.67L1.52195 133.819L1.6769 132.203L2.06392 130.848L2.55228 129.649L3.05698 128.876L3.56038 128.219L4.14157 127.6L4.66523 127.179L5.3471 126.1L7.13383 122.333L7.32799 121.522L7.56073 119.937L7.40514 119.009L7.22339 118.391L7.26589 116.93L7.67645 112.06L7.94776 111.5L7.69998 107.408L7.56073 106.782L7.32799 106.264L7.01811 105.801L5.95575 104.433L5.57592 103.676L5.40529 103.081L5.34318 102.386L5.42098 101.281L5.57984 100.103L4.39 94.7545L4.16511 94.0405L3.22696 92.1522L2.13845 90.3837L1.86256 89.5309L1.79326 88.6539L1.6769 85.8513L0.655067 81.385L1.0957 81.2508L10.9943 77.8618L17.0102 75.8014L22.0566 74.065L25.9327 72.7298L32.7364 70.3814L39.9009 65.0525L49.1026 58.1317L51.8 54.9463L57.2733 48.4366L58.994 46.3847L61.5737 43.2843L62.6655 42.1553L63.3415 41.7181L63.6298 40.9942L65.5832 33.4452L66.1958 30.9934L66.6842 29.1045L67.0254 27.7857L67.8544 24.5864L68.5598 25.3647L69.0442 25.8352L69.8582 26.1664L73.0282 25.8791L71.7305 21.5869L70.9088 19.2516L71.1696 17.1879L71.3429 17.0237L71.6292 16.9058L72.13 16.449L72.2594 14.545L71.7534 13.4926L69.5967 11.872L68.9246 11.9277L68.2113 11.3805L67.5438 10.6206L66.9555 9.63823L66.5599 8.58775L66.2658 7.16355L66.1102 6.56991L65.6525 5.42518L63.1395 3.97546L61.6515 3.75031L61.8941 1.93275L64.5947 2.22008L65.6878 2.96621L67.2183 3.53629L69.3195 3.17434L70.5597 2.71488L71.1023 2.29927L71.8475 2.37585L72.7746 1.64019L73.0328 0.873108L73.3584 0L75.2556 0.234967Z" stroke="black" stroke-opacity="0.2" stroke-width="4" mask="url(#path-1-inside-1_8891_6803)"/>
<path d="M75.2556 0.234967L78.4819 2.39156L80.1804 3.70973L80.808 4.49644L82.9785 5.42911L83.5126 5.22883L84.3076 4.68494L84.8855 4.53506L85.4314 4.74646L86.0792 5.51354L86.5133 6.2191L86.8618 7.01694L86.9788 7.62563L87.0096 8.23497L87.207 9.01318L89.3232 10.2587L90.0325 9.62252L91.4434 10.5709L95.9942 14.0555L96.4897 14.7414L96.6525 15.0052L96.9938 16.5452L97.5285 18.5807L98.164 20.6699L98.8851 21.4488L100.071 22.6661L99.614 23.9234L99.0943 24.7946L99.8618 26.3595L100.269 27.088L100.974 27.6973L104.815 28.7497L110.668 32.5203L111.424 34.0885L113.9 34.7712L114.994 34.4786L116.652 34.6246L119.385 37.1464L119.613 38.8501L119.746 39.7219L120.381 40.4313L121.582 42.0663L122.415 43.6724L121.582 44.4029L121.303 44.8964L120.73 47.5033L121.202 48.0197L123.272 49.4007L126.606 50.98L128.226 50.2024L129.394 49.1166L131.187 50.3026L132.369 52.3701L133.268 58.533L132.722 60.0527L132.067 60.9324L131.216 61.3297L131.676 63.6211L131.97 64.1263L132.83 64.8051L134.807 65.8929L135.59 65.6461L136.719 65.6003L137.614 67.0886L138.187 68.5554L140.063 68.0998L143.73 66.711L146.33 65.8006L150.218 66.7496L153.652 67.9068L154.443 68.1385L156.45 68.3466L160.846 65.8163L163.295 64.7514L164.714 65.0165L165.875 64.9831L166.388 63.3854L168.144 60.9016L170.559 58.9106L171.362 58.5984L171.64 59.1155L171.613 59.9369L171.888 60.7393L174.613 61.0633L176.191 61.005L179.202 62.3016L180.613 64.1263L185.458 64.504L187.884 63.1544L191.365 62.2204L194.642 60.7491L198.869 63.5249H201.459L203.966 65.7207L206.786 66.9754L208.459 68.4644L208.683 68.327L209.246 68.1666L210.369 68.4133L212.506 70.3317L212.784 71.4175L217.752 70.4259V71.9941L216.729 75.4774L207.108 90.461L206.132 91.9827L202.822 97.1022L201.101 99.7595L199.853 101.667L198.404 103.946L201.654 105.331L203.878 106.158L204.636 106.16L205.233 105.901L206.783 104.959L207.268 104.58L208.504 104.171L209.078 104.232L209.597 104.488L212.07 106.492L213.537 108.334L214.074 109.375L214.357 110.236L214.586 110.959L214.814 111.488L215.178 112.087L217.473 113.985L218.024 114.356L218.93 114.97L219.822 115.902L219.815 116.665L220 117.378L219.714 117.953L219.182 118.77L218.139 119.478L213.092 119.33L211.473 118.182L210.202 117.03L209.996 116.481L210.287 115.612L210.249 114.92L209.678 113.961L206.63 113.747L205.628 114.379L204.659 115.074L202.311 115.515L201.151 114.541L197.335 114.183L196 114.82L195.388 115.277L194.364 117.061L194.263 117.868L191.927 120.71L190.899 120.706L189.24 122.182H186.106L183.287 123.75L179.214 124.377L175.141 125.946L171.068 125.632H166.994L164.488 127.828L161.668 130.337L158.535 132.533L154.462 134.101L150.075 136.925L145.689 141.629L141.616 143.198L138.483 148.217L137.543 152.922L136.603 158.882L132.843 162.019L129.396 167.664L132.216 174.565L133.47 178.956L129.396 183.035L125.01 185.23L118.117 188.367L115.297 189.935L114.044 196.523L112.676 196.913L112.703 197.158L113.249 197.565L114.8 199.967L115.195 202.378L114.292 203.07L108.908 203.775L108.925 206.122L108.034 208.483L107.345 208.524L107.079 208.215L106.564 207.822L106.482 207.778L106.426 206.887L104.527 205.425L102.629 203.816L99.8527 203.523L97.8077 203.377L96.7859 202.208L95.3247 202.061L94.3022 202.354L93.7184 203.377L93.6786 203.563L93.6021 203.5L93.5249 203.449L92.4037 205.133L91.3813 206.156L90.8419 207.1L91.0792 208.363L91.2727 209.525L91.699 215.068L91.5983 217.535L91.459 218.255L90.9628 218.991L90.0868 219.605L89.5952 219.881L88.8983 221.51L87.2913 222.388L83.6394 222.681L80.7178 222.388L80.4366 222.059L80.0954 222.16L79.2573 221.657L76.0434 221.364L74.5835 223.119L73.2682 224.289L72.5556 225.082L71.622 224.977L69.8157 224.666L68.0701 225.982L67.4255 227.214V229.7L67.2797 231.454V233.153L66.3135 233.905L64.8138 234.28L64.7307 234.21L64.0717 233.587L63.4284 233.009L62.5367 232.468H61.3194L57.6374 235.675L55.9318 237.492L55.4205 238.147L54.9243 238.552L53.8999 239L53.2572 237.304L53.0212 235.945L53.1108 235.636L53.3429 234.826L53.4671 233.625L53.7227 231.888L54.0097 231.232L54.1019 231.108L52.965 229.318L53.4553 225.636L54.6811 223.427L56.2488 221.969L55.9318 221.38L55.2774 219.99H53.3501L52.8728 218.317L51.143 216.052L50.3441 213.387L49.6786 208.857L47.4166 206.592L46.6183 204.194V202.063L46.7209 200.306L48.5521 199.696L48.6293 199.228L48.7868 198.604L51.4934 196.669V194.214L50.7579 188.322L52.1099 186.969L52.6296 186.806L53.777 186.739L54.5916 186.926L55.412 187.159L56.1802 187.469L56.9242 188.013L57.661 188.572L57.9565 188.942L61.0566 188.813L63.5088 188.322L64.5581 187.902L64.5908 187.85L64.8471 187.066L65.3113 184.884L65.2341 183.782L65.2655 182.835L65.3891 181.175L65.5597 179.188L65.7689 177.815L66.0324 176.48L66.0866 175.744L65.9899 174.898L65.7192 174.284L66.9417 172.856L67.1869 170.401L65.7153 168.438L63.2637 167.21L59.8308 167.946L58.0022 169.341L55.482 168.81L54.6687 168.702L52.6061 168.716L51.3561 168.816L49.7773 169.911L47.0799 171.629L45.1179 170.647L43.1566 168.192L40.4592 165.737L37.9377 165.485L37.3924 165.924L36.4027 166.609L35.4201 167.055L33.8687 167.289L32.4899 166.721L31.0987 165.747L30.5489 164.915L29.9206 163.659L29.6997 162.632L29.1185 160.973L28.6922 160.199L28.2424 159.393L25.4051 157.44L24.0021 156.995L23.2268 157.072L22.1415 157.115L20.785 157.076L18.3432 156.898L17.56 156.704L16.7467 156.472L16.0099 156.092L14.8554 154.814L14.32 154.195L13.7309 153.269L12.8863 152.591L11.5219 151.952L9.77764 151.399L8.14192 150.872L7.26589 150.338L5.6766 149.157L5.40529 148.634L5.12613 148.27L3.44466 144.639L3.17335 143.826L2.887 142.266L2.69742 142.171L0 139.961V137.998L1.7998 135.971L1.57621 134.67L1.52195 133.819L1.6769 132.203L2.06392 130.848L2.55228 129.649L3.05698 128.876L3.56038 128.219L4.14157 127.6L4.66523 127.179L5.3471 126.1L7.13383 122.333L7.32799 121.522L7.56073 119.937L7.40514 119.009L7.22339 118.391L7.26589 116.93L7.67645 112.06L7.94776 111.5L7.69998 107.408L7.56073 106.782L7.32799 106.264L7.01811 105.801L5.95575 104.433L5.57592 103.676L5.40529 103.081L5.34318 102.386L5.42098 101.281L5.57984 100.103L4.39 94.7545L4.16511 94.0405L3.22696 92.1522L2.13845 90.3837L1.86256 89.5309L1.79326 88.6539L1.6769 85.8513L0.655067 81.385L1.0957 81.2508L10.9943 77.8618L17.0102 75.8014L22.0566 74.065L25.9327 72.7298L32.7364 70.3814L39.9009 65.0525L49.1026 58.1317L51.8 54.9463L57.2733 48.4366L58.994 46.3847L61.5737 43.2843L62.6655 42.1553L63.3415 41.7181L63.6298 40.9942L65.5832 33.4452L66.1958 30.9934L66.6842 29.1045L67.0254 27.7857L67.8544 24.5864L68.5598 25.3647L69.0442 25.8352L69.8582 26.1664L73.0282 25.8791L71.7305 21.5869L70.9088 19.2516L71.1696 17.1879L71.3429 17.0237L71.6292 16.9058L72.13 16.449L72.2594 14.545L71.7534 13.4926L69.5967 11.872L68.9246 11.9277L68.2113 11.3805L67.5438 10.6206L66.9555 9.63823L66.5599 8.58775L66.2658 7.16355L66.1102 6.56991L65.6525 5.42518L63.1395 3.97546L61.6515 3.75031L61.8941 1.93275L64.5947 2.22008L65.6878 2.96621L67.2183 3.53629L69.3195 3.17434L70.5597 2.71488L71.1023 2.29927L71.8475 2.37585L72.7746 1.64019L73.0328 0.873108L73.3584 0L75.2556 0.234967Z" stroke="black" stroke-opacity="0.2" stroke-width="4" mask="url(#path-1-inside-1_8891_6803)"/>
<path d="M75.2556 0.234967L78.4819 2.39156L80.1804 3.70973L80.808 4.49644L82.9785 5.42911L83.5126 5.22883L84.3076 4.68494L84.8855 4.53506L85.4314 4.74646L86.0792 5.51354L86.5133 6.2191L86.8618 7.01694L86.9788 7.62563L87.0096 8.23497L87.207 9.01318L89.3232 10.2587L90.0325 9.62252L91.4434 10.5709L95.9942 14.0555L96.4897 14.7414L96.6525 15.0052L96.9938 16.5452L97.5285 18.5807L98.164 20.6699L98.8851 21.4488L100.071 22.6661L99.614 23.9234L99.0943 24.7946L99.8618 26.3595L100.269 27.088L100.974 27.6973L104.815 28.7497L110.668 32.5203L111.424 34.0885L113.9 34.7712L114.994 34.4786L116.652 34.6246L119.385 37.1464L119.613 38.8501L119.746 39.7219L120.381 40.4313L121.582 42.0663L122.415 43.6724L121.582 44.4029L121.303 44.8964L120.73 47.5033L121.202 48.0197L123.272 49.4007L126.606 50.98L128.226 50.2024L129.394 49.1166L131.187 50.3026L132.369 52.3701L133.268 58.533L132.722 60.0527L132.067 60.9324L131.216 61.3297L131.676 63.6211L131.97 64.1263L132.83 64.8051L134.807 65.8929L135.59 65.6461L136.719 65.6003L137.614 67.0886L138.187 68.5554L140.063 68.0998L143.73 66.711L146.33 65.8006L150.218 66.7496L153.652 67.9068L154.443 68.1385L156.45 68.3466L160.846 65.8163L163.295 64.7514L164.714 65.0165L165.875 64.9831L166.388 63.3854L168.144 60.9016L170.559 58.9106L171.362 58.5984L171.64 59.1155L171.613 59.9369L171.888 60.7393L174.613 61.0633L176.191 61.005L179.202 62.3016L180.613 64.1263L185.458 64.504L187.884 63.1544L191.365 62.2204L194.642 60.7491L198.869 63.5249H201.459L203.966 65.7207L206.786 66.9754L208.459 68.4644L208.683 68.327L209.246 68.1666L210.369 68.4133L212.506 70.3317L212.784 71.4175L217.752 70.4259V71.9941L216.729 75.4774L207.108 90.461L206.132 91.9827L202.822 97.1022L201.101 99.7595L199.853 101.667L198.404 103.946L201.654 105.331L203.878 106.158L204.636 106.16L205.233 105.901L206.783 104.959L207.268 104.58L208.504 104.171L209.078 104.232L209.597 104.488L212.07 106.492L213.537 108.334L214.074 109.375L214.357 110.236L214.586 110.959L214.814 111.488L215.178 112.087L217.473 113.985L218.024 114.356L218.93 114.97L219.822 115.902L219.815 116.665L220 117.378L219.714 117.953L219.182 118.77L218.139 119.478L213.092 119.33L211.473 118.182L210.202 117.03L209.996 116.481L210.287 115.612L210.249 114.92L209.678 113.961L206.63 113.747L205.628 114.379L204.659 115.074L202.311 115.515L201.151 114.541L197.335 114.183L196 114.82L195.388 115.277L194.364 117.061L194.263 117.868L191.927 120.71L190.899 120.706L189.24 122.182H186.106L183.287 123.75L179.214 124.377L175.141 125.946L171.068 125.632H166.994L164.488 127.828L161.668 130.337L158.535 132.533L154.462 134.101L150.075 136.925L145.689 141.629L141.616 143.198L138.483 148.217L137.543 152.922L136.603 158.882L132.843 162.019L129.396 167.664L132.216 174.565L133.47 178.956L129.396 183.035L125.01 185.23L118.117 188.367L115.297 189.935L114.044 196.523L112.676 196.913L112.703 197.158L113.249 197.565L114.8 199.967L115.195 202.378L114.292 203.07L108.908 203.775L108.925 206.122L108.034 208.483L107.345 208.524L107.079 208.215L106.564 207.822L106.482 207.778L106.426 206.887L104.527 205.425L102.629 203.816L99.8527 203.523L97.8077 203.377L96.7859 202.208L95.3247 202.061L94.3022 202.354L93.7184 203.377L93.6786 203.563L93.6021 203.5L93.5249 203.449L92.4037 205.133L91.3813 206.156L90.8419 207.1L91.0792 208.363L91.2727 209.525L91.699 215.068L91.5983 217.535L91.459 218.255L90.9628 218.991L90.0868 219.605L89.5952 219.881L88.8983 221.51L87.2913 222.388L83.6394 222.681L80.7178 222.388L80.4366 222.059L80.0954 222.16L79.2573 221.657L76.0434 221.364L74.5835 223.119L73.2682 224.289L72.5556 225.082L71.622 224.977L69.8157 224.666L68.0701 225.982L67.4255 227.214V229.7L67.2797 231.454V233.153L66.3135 233.905L64.8138 234.28L64.7307 234.21L64.0717 233.587L63.4284 233.009L62.5367 232.468H61.3194L57.6374 235.675L55.9318 237.492L55.4205 238.147L54.9243 238.552L53.8999 239L53.2572 237.304L53.0212 235.945L53.1108 235.636L53.3429 234.826L53.4671 233.625L53.7227 231.888L54.0097 231.232L54.1019 231.108L52.965 229.318L53.4553 225.636L54.6811 223.427L56.2488 221.969L55.9318 221.38L55.2774 219.99H53.3501L52.8728 218.317L51.143 216.052L50.3441 213.387L49.6786 208.857L47.4166 206.592L46.6183 204.194V202.063L46.7209 200.306L48.5521 199.696L48.6293 199.228L48.7868 198.604L51.4934 196.669V194.214L50.7579 188.322L52.1099 186.969L52.6296 186.806L53.777 186.739L54.5916 186.926L55.412 187.159L56.1802 187.469L56.9242 188.013L57.661 188.572L57.9565 188.942L61.0566 188.813L63.5088 188.322L64.5581 187.902L64.5908 187.85L64.8471 187.066L65.3113 184.884L65.2341 183.782L65.2655 182.835L65.3891 181.175L65.5597 179.188L65.7689 177.815L66.0324 176.48L66.0866 175.744L65.9899 174.898L65.7192 174.284L66.9417 172.856L67.1869 170.401L65.7153 168.438L63.2637 167.21L59.8308 167.946L58.0022 169.341L55.482 168.81L54.6687 168.702L52.6061 168.716L51.3561 168.816L49.7773 169.911L47.0799 171.629L45.1179 170.647L43.1566 168.192L40.4592 165.737L37.9377 165.485L37.3924 165.924L36.4027 166.609L35.4201 167.055L33.8687 167.289L32.4899 166.721L31.0987 165.747L30.5489 164.915L29.9206 163.659L29.6997 162.632L29.1185 160.973L28.6922 160.199L28.2424 159.393L25.4051 157.44L24.0021 156.995L23.2268 157.072L22.1415 157.115L20.785 157.076L18.3432 156.898L17.56 156.704L16.7467 156.472L16.0099 156.092L14.8554 154.814L14.32 154.195L13.7309 153.269L12.8863 152.591L11.5219 151.952L9.77764 151.399L8.14192 150.872L7.26589 150.338L5.6766 149.157L5.40529 148.634L5.12613 148.27L3.44466 144.639L3.17335 143.826L2.887 142.266L2.69742 142.171L0 139.961V137.998L1.7998 135.971L1.57621 134.67L1.52195 133.819L1.6769 132.203L2.06392 130.848L2.55228 129.649L3.05698 128.876L3.56038 128.219L4.14157 127.6L4.66523 127.179L5.3471 126.1L7.13383 122.333L7.32799 121.522L7.56073 119.937L7.40514 119.009L7.22339 118.391L7.26589 116.93L7.67645 112.06L7.94776 111.5L7.69998 107.408L7.56073 106.782L7.32799 106.264L7.01811 105.801L5.95575 104.433L5.57592 103.676L5.40529 103.081L5.34318 102.386L5.42098 101.281L5.57984 100.103L4.39 94.7545L4.16511 94.0405L3.22696 92.1522L2.13845 90.3837L1.86256 89.5309L1.79326 88.6539L1.6769 85.8513L0.655067 81.385L1.0957 81.2508L10.9943 77.8618L17.0102 75.8014L22.0566 74.065L25.9327 72.7298L32.7364 70.3814L39.9009 65.0525L49.1026 58.1317L51.8 54.9463L57.2733 48.4366L58.994 46.3847L61.5737 43.2843L62.6655 42.1553L63.3415 41.7181L63.6298 40.9942L65.5832 33.4452L66.1958 30.9934L66.6842 29.1045L67.0254 27.7857L67.8544 24.5864L68.5598 25.3647L69.0442 25.8352L69.8582 26.1664L73.0282 25.8791L71.7305 21.5869L70.9088 19.2516L71.1696 17.1879L71.3429 17.0237L71.6292 16.9058L72.13 16.449L72.2594 14.545L71.7534 13.4926L69.5967 11.872L68.9246 11.9277L68.2113 11.3805L67.5438 10.6206L66.9555 9.63823L66.5599 8.58775L66.2658 7.16355L66.1102 6.56991L65.6525 5.42518L63.1395 3.97546L61.6515 3.75031L61.8941 1.93275L64.5947 2.22008L65.6878 2.96621L67.2183 3.53629L69.3195 3.17434L70.5597 2.71488L71.1023 2.29927L71.8475 2.37585L72.7746 1.64019L73.0328 0.873108L73.3584 0L75.2556 0.234967Z" stroke="black" stroke-opacity="0.2" stroke-width="4" mask="url(#path-1-inside-1_8891_6803)"/>
</svg>
