<svg width="220" height="196" viewBox="0 0 220 196" fill="none" xmlns="http://www.w3.org/2000/svg">
<mask id="path-1-inside-1_8895_6823" fill="white">
<path d="M105.995 59.36L106.027 61.3552L108.921 59.1133L112.139 57.0282L113.718 58.0762L115.359 59.7021L116.183 60.9136L116.478 61.283L122.678 60.7678L130.083 59.6584L137.486 58.5477L142.03 58.1702L142.789 57.6905L144.567 56.6111L145.7 56.1041L147.098 55.7539L155.586 56.3822L158.049 58.5532L160.919 58.3774L162.228 58.068L166.886 57.8881L167.969 57.9045L167.916 57.9345L171.868 64.4966L175.83 71.0396L186.521 88.6597L188.51 91.936L190.501 95.2137L196.969 105.871L198.715 108.741L200.964 112.432L201.757 113.662L203.503 116.534L205.363 119.701L207.983 124.939L210.587 130.261L215.6 140.515L216.361 142.157L218.56 146.664L219.789 149.129L220 149.444L215.941 154.392L214.5 157.913L211.752 163.181L208.031 164.629L208.566 169.33L207.454 174.14L202.564 177.678L198.089 180.524L192.299 182.656L187.423 185.092L182.85 186.309L176.756 188.747L173.404 190.269L170.051 193.922L163.347 195.445L156.82 196L155.573 195.392L143.843 193.314L137.139 189.659L129.52 186.309L120.987 185.397L117.303 186.078L117.329 185.701L112.596 184.755L112.478 184.919L108.493 185.092L102.701 183.266L95.6918 182.656L91.1197 180.829L88.6823 181.743L87.8952 184.301L87.3237 184.205L85.0268 186.919L82.5866 189.051L78.9311 191.486L76.1881 190.877L75.2729 186.614L73.4452 181.134L73.2856 178.103L72.6472 177.769L71.9216 175.347L68.5689 174.738L63.0843 172.912L58.2067 169.562L55.1596 164.386L51.5027 160.123L48.7611 160.427L42.0558 162.255L37.1781 162.56L33.5227 163.777L33.3903 163.547L31.0852 163.777L27.7326 161.342L27.427 157.686L26.8187 152.206L24.684 150.075L22.2466 146.726L20.723 144.288L24.9896 140.94L26.8937 139.195L26.5663 138.945L26.1899 138.845L27.7326 135.764L23.1604 133.632L21.3314 129.369L17.9801 124.802L12.4941 120.842L7.61922 118.407L6.3998 112.013L4.51479 109.815L5.03719 107.436L3.961 105.618L0 101.051L1.82774 98.9192L5.79011 94.6549L8.53174 90.0894L9.75112 83.0843V77.9533L10.3772 78.0487L12.1463 76.5345L14.6451 72.9271L16.0323 67.9336L16.8657 64.6056L14.6451 62.6635L15.1989 59.8888L18.1437 59.5208L18.126 59.4963L22.4185 60.1668L26.2376 59.6748L26.52 59.9147L28.7514 60.2758H30.2873H31.9213L35.9642 59.9569L37.7101 59.6707L37.9993 59.5494L44.3527 59.8888L60.179 59.3341L62.6779 56.8373L66.287 53.5079L67.3986 50.1799L67.801 44.9479L68.1338 44.8784L68.2306 42.1336L70.1743 36.3089L72.118 33.8121L76.0054 29.9266L82.3916 27.4313L89.3329 20.2178L93.7835 15.9643V15.7967L97.1062 14.393L106.181 0L106.14 6.07419L106.156 12.9742L106.14 21.9145L106.092 37.7848L106.058 47.9639L105.995 55.6967V59.36Z"/>
</mask>
<path d="M105.995 59.36L106.027 61.3552L108.921 59.1133L112.139 57.0282L113.718 58.0762L115.359 59.7021L116.183 60.9136L116.478 61.283L122.678 60.7678L130.083 59.6584L137.486 58.5477L142.03 58.1702L142.789 57.6905L144.567 56.6111L145.7 56.1041L147.098 55.7539L155.586 56.3822L158.049 58.5532L160.919 58.3774L162.228 58.068L166.886 57.8881L167.969 57.9045L167.916 57.9345L171.868 64.4966L175.83 71.0396L186.521 88.6597L188.51 91.936L190.501 95.2137L196.969 105.871L198.715 108.741L200.964 112.432L201.757 113.662L203.503 116.534L205.363 119.701L207.983 124.939L210.587 130.261L215.6 140.515L216.361 142.157L218.56 146.664L219.789 149.129L220 149.444L215.941 154.392L214.5 157.913L211.752 163.181L208.031 164.629L208.566 169.33L207.454 174.14L202.564 177.678L198.089 180.524L192.299 182.656L187.423 185.092L182.85 186.309L176.756 188.747L173.404 190.269L170.051 193.922L163.347 195.445L156.82 196L155.573 195.392L143.843 193.314L137.139 189.659L129.52 186.309L120.987 185.397L117.303 186.078L117.329 185.701L112.596 184.755L112.478 184.919L108.493 185.092L102.701 183.266L95.6918 182.656L91.1197 180.829L88.6823 181.743L87.8952 184.301L87.3237 184.205L85.0268 186.919L82.5866 189.051L78.9311 191.486L76.1881 190.877L75.2729 186.614L73.4452 181.134L73.2856 178.103L72.6472 177.769L71.9216 175.347L68.5689 174.738L63.0843 172.912L58.2067 169.562L55.1596 164.386L51.5027 160.123L48.7611 160.427L42.0558 162.255L37.1781 162.56L33.5227 163.777L33.3903 163.547L31.0852 163.777L27.7326 161.342L27.427 157.686L26.8187 152.206L24.684 150.075L22.2466 146.726L20.723 144.288L24.9896 140.94L26.8937 139.195L26.5663 138.945L26.1899 138.845L27.7326 135.764L23.1604 133.632L21.3314 129.369L17.9801 124.802L12.4941 120.842L7.61922 118.407L6.3998 112.013L4.51479 109.815L5.03719 107.436L3.961 105.618L0 101.051L1.82774 98.9192L5.79011 94.6549L8.53174 90.0894L9.75112 83.0843V77.9533L10.3772 78.0487L12.1463 76.5345L14.6451 72.9271L16.0323 67.9336L16.8657 64.6056L14.6451 62.6635L15.1989 59.8888L18.1437 59.5208L18.126 59.4963L22.4185 60.1668L26.2376 59.6748L26.52 59.9147L28.7514 60.2758H30.2873H31.9213L35.9642 59.9569L37.7101 59.6707L37.9993 59.5494L44.3527 59.8888L60.179 59.3341L62.6779 56.8373L66.287 53.5079L67.3986 50.1799L67.801 44.9479L68.1338 44.8784L68.2306 42.1336L70.1743 36.3089L72.118 33.8121L76.0054 29.9266L82.3916 27.4313L89.3329 20.2178L93.7835 15.9643V15.7967L97.1062 14.393L106.181 0L106.14 6.07419L106.156 12.9742L106.14 21.9145L106.092 37.7848L106.058 47.9639L105.995 55.6967V59.36Z" fill="#E9ECF2"/>
<path d="M105.995 59.36L106.027 61.3552L108.921 59.1133L112.139 57.0282L113.718 58.0762L115.359 59.7021L116.183 60.9136L116.478 61.283L122.678 60.7678L130.083 59.6584L137.486 58.5477L142.03 58.1702L142.789 57.6905L144.567 56.6111L145.7 56.1041L147.098 55.7539L155.586 56.3822L158.049 58.5532L160.919 58.3774L162.228 58.068L166.886 57.8881L167.969 57.9045L167.916 57.9345L171.868 64.4966L175.83 71.0396L186.521 88.6597L188.51 91.936L190.501 95.2137L196.969 105.871L198.715 108.741L200.964 112.432L201.757 113.662L203.503 116.534L205.363 119.701L207.983 124.939L210.587 130.261L215.6 140.515L216.361 142.157L218.56 146.664L219.789 149.129L220 149.444L215.941 154.392L214.5 157.913L211.752 163.181L208.031 164.629L208.566 169.33L207.454 174.14L202.564 177.678L198.089 180.524L192.299 182.656L187.423 185.092L182.85 186.309L176.756 188.747L173.404 190.269L170.051 193.922L163.347 195.445L156.82 196L155.573 195.392L143.843 193.314L137.139 189.659L129.52 186.309L120.987 185.397L117.303 186.078L117.329 185.701L112.596 184.755L112.478 184.919L108.493 185.092L102.701 183.266L95.6918 182.656L91.1197 180.829L88.6823 181.743L87.8952 184.301L87.3237 184.205L85.0268 186.919L82.5866 189.051L78.9311 191.486L76.1881 190.877L75.2729 186.614L73.4452 181.134L73.2856 178.103L72.6472 177.769L71.9216 175.347L68.5689 174.738L63.0843 172.912L58.2067 169.562L55.1596 164.386L51.5027 160.123L48.7611 160.427L42.0558 162.255L37.1781 162.56L33.5227 163.777L33.3903 163.547L31.0852 163.777L27.7326 161.342L27.427 157.686L26.8187 152.206L24.684 150.075L22.2466 146.726L20.723 144.288L24.9896 140.94L26.8937 139.195L26.5663 138.945L26.1899 138.845L27.7326 135.764L23.1604 133.632L21.3314 129.369L17.9801 124.802L12.4941 120.842L7.61922 118.407L6.3998 112.013L4.51479 109.815L5.03719 107.436L3.961 105.618L0 101.051L1.82774 98.9192L5.79011 94.6549L8.53174 90.0894L9.75112 83.0843V77.9533L10.3772 78.0487L12.1463 76.5345L14.6451 72.9271L16.0323 67.9336L16.8657 64.6056L14.6451 62.6635L15.1989 59.8888L18.1437 59.5208L18.126 59.4963L22.4185 60.1668L26.2376 59.6748L26.52 59.9147L28.7514 60.2758H30.2873H31.9213L35.9642 59.9569L37.7101 59.6707L37.9993 59.5494L44.3527 59.8888L60.179 59.3341L62.6779 56.8373L66.287 53.5079L67.3986 50.1799L67.801 44.9479L68.1338 44.8784L68.2306 42.1336L70.1743 36.3089L72.118 33.8121L76.0054 29.9266L82.3916 27.4313L89.3329 20.2178L93.7835 15.9643V15.7967L97.1062 14.393L106.181 0L106.14 6.07419L106.156 12.9742L106.14 21.9145L106.092 37.7848L106.058 47.9639L105.995 55.6967V59.36Z" stroke="#8F959D" stroke-width="4" mask="url(#path-1-inside-1_8895_6823)"/>
<path d="M105.995 59.36L106.027 61.3552L108.921 59.1133L112.139 57.0282L113.718 58.0762L115.359 59.7021L116.183 60.9136L116.478 61.283L122.678 60.7678L130.083 59.6584L137.486 58.5477L142.03 58.1702L142.789 57.6905L144.567 56.6111L145.7 56.1041L147.098 55.7539L155.586 56.3822L158.049 58.5532L160.919 58.3774L162.228 58.068L166.886 57.8881L167.969 57.9045L167.916 57.9345L171.868 64.4966L175.83 71.0396L186.521 88.6597L188.51 91.936L190.501 95.2137L196.969 105.871L198.715 108.741L200.964 112.432L201.757 113.662L203.503 116.534L205.363 119.701L207.983 124.939L210.587 130.261L215.6 140.515L216.361 142.157L218.56 146.664L219.789 149.129L220 149.444L215.941 154.392L214.5 157.913L211.752 163.181L208.031 164.629L208.566 169.33L207.454 174.14L202.564 177.678L198.089 180.524L192.299 182.656L187.423 185.092L182.85 186.309L176.756 188.747L173.404 190.269L170.051 193.922L163.347 195.445L156.82 196L155.573 195.392L143.843 193.314L137.139 189.659L129.52 186.309L120.987 185.397L117.303 186.078L117.329 185.701L112.596 184.755L112.478 184.919L108.493 185.092L102.701 183.266L95.6918 182.656L91.1197 180.829L88.6823 181.743L87.8952 184.301L87.3237 184.205L85.0268 186.919L82.5866 189.051L78.9311 191.486L76.1881 190.877L75.2729 186.614L73.4452 181.134L73.2856 178.103L72.6472 177.769L71.9216 175.347L68.5689 174.738L63.0843 172.912L58.2067 169.562L55.1596 164.386L51.5027 160.123L48.7611 160.427L42.0558 162.255L37.1781 162.56L33.5227 163.777L33.3903 163.547L31.0852 163.777L27.7326 161.342L27.427 157.686L26.8187 152.206L24.684 150.075L22.2466 146.726L20.723 144.288L24.9896 140.94L26.8937 139.195L26.5663 138.945L26.1899 138.845L27.7326 135.764L23.1604 133.632L21.3314 129.369L17.9801 124.802L12.4941 120.842L7.61922 118.407L6.3998 112.013L4.51479 109.815L5.03719 107.436L3.961 105.618L0 101.051L1.82774 98.9192L5.79011 94.6549L8.53174 90.0894L9.75112 83.0843V77.9533L10.3772 78.0487L12.1463 76.5345L14.6451 72.9271L16.0323 67.9336L16.8657 64.6056L14.6451 62.6635L15.1989 59.8888L18.1437 59.5208L18.126 59.4963L22.4185 60.1668L26.2376 59.6748L26.52 59.9147L28.7514 60.2758H30.2873H31.9213L35.9642 59.9569L37.7101 59.6707L37.9993 59.5494L44.3527 59.8888L60.179 59.3341L62.6779 56.8373L66.287 53.5079L67.3986 50.1799L67.801 44.9479L68.1338 44.8784L68.2306 42.1336L70.1743 36.3089L72.118 33.8121L76.0054 29.9266L82.3916 27.4313L89.3329 20.2178L93.7835 15.9643V15.7967L97.1062 14.393L106.181 0L106.14 6.07419L106.156 12.9742L106.14 21.9145L106.092 37.7848L106.058 47.9639L105.995 55.6967V59.36Z" stroke="black" stroke-opacity="0.2" stroke-width="4" mask="url(#path-1-inside-1_8895_6823)"/>
<path d="M105.995 59.36L106.027 61.3552L108.921 59.1133L112.139 57.0282L113.718 58.0762L115.359 59.7021L116.183 60.9136L116.478 61.283L122.678 60.7678L130.083 59.6584L137.486 58.5477L142.03 58.1702L142.789 57.6905L144.567 56.6111L145.7 56.1041L147.098 55.7539L155.586 56.3822L158.049 58.5532L160.919 58.3774L162.228 58.068L166.886 57.8881L167.969 57.9045L167.916 57.9345L171.868 64.4966L175.83 71.0396L186.521 88.6597L188.51 91.936L190.501 95.2137L196.969 105.871L198.715 108.741L200.964 112.432L201.757 113.662L203.503 116.534L205.363 119.701L207.983 124.939L210.587 130.261L215.6 140.515L216.361 142.157L218.56 146.664L219.789 149.129L220 149.444L215.941 154.392L214.5 157.913L211.752 163.181L208.031 164.629L208.566 169.33L207.454 174.14L202.564 177.678L198.089 180.524L192.299 182.656L187.423 185.092L182.85 186.309L176.756 188.747L173.404 190.269L170.051 193.922L163.347 195.445L156.82 196L155.573 195.392L143.843 193.314L137.139 189.659L129.52 186.309L120.987 185.397L117.303 186.078L117.329 185.701L112.596 184.755L112.478 184.919L108.493 185.092L102.701 183.266L95.6918 182.656L91.1197 180.829L88.6823 181.743L87.8952 184.301L87.3237 184.205L85.0268 186.919L82.5866 189.051L78.9311 191.486L76.1881 190.877L75.2729 186.614L73.4452 181.134L73.2856 178.103L72.6472 177.769L71.9216 175.347L68.5689 174.738L63.0843 172.912L58.2067 169.562L55.1596 164.386L51.5027 160.123L48.7611 160.427L42.0558 162.255L37.1781 162.56L33.5227 163.777L33.3903 163.547L31.0852 163.777L27.7326 161.342L27.427 157.686L26.8187 152.206L24.684 150.075L22.2466 146.726L20.723 144.288L24.9896 140.94L26.8937 139.195L26.5663 138.945L26.1899 138.845L27.7326 135.764L23.1604 133.632L21.3314 129.369L17.9801 124.802L12.4941 120.842L7.61922 118.407L6.3998 112.013L4.51479 109.815L5.03719 107.436L3.961 105.618L0 101.051L1.82774 98.9192L5.79011 94.6549L8.53174 90.0894L9.75112 83.0843V77.9533L10.3772 78.0487L12.1463 76.5345L14.6451 72.9271L16.0323 67.9336L16.8657 64.6056L14.6451 62.6635L15.1989 59.8888L18.1437 59.5208L18.126 59.4963L22.4185 60.1668L26.2376 59.6748L26.52 59.9147L28.7514 60.2758H30.2873H31.9213L35.9642 59.9569L37.7101 59.6707L37.9993 59.5494L44.3527 59.8888L60.179 59.3341L62.6779 56.8373L66.287 53.5079L67.3986 50.1799L67.801 44.9479L68.1338 44.8784L68.2306 42.1336L70.1743 36.3089L72.118 33.8121L76.0054 29.9266L82.3916 27.4313L89.3329 20.2178L93.7835 15.9643V15.7967L97.1062 14.393L106.181 0L106.14 6.07419L106.156 12.9742L106.14 21.9145L106.092 37.7848L106.058 47.9639L105.995 55.6967V59.36Z" stroke="black" stroke-opacity="0.2" stroke-width="4" mask="url(#path-1-inside-1_8895_6823)"/>
<path d="M105.995 59.36L106.027 61.3552L108.921 59.1133L112.139 57.0282L113.718 58.0762L115.359 59.7021L116.183 60.9136L116.478 61.283L122.678 60.7678L130.083 59.6584L137.486 58.5477L142.03 58.1702L142.789 57.6905L144.567 56.6111L145.7 56.1041L147.098 55.7539L155.586 56.3822L158.049 58.5532L160.919 58.3774L162.228 58.068L166.886 57.8881L167.969 57.9045L167.916 57.9345L171.868 64.4966L175.83 71.0396L186.521 88.6597L188.51 91.936L190.501 95.2137L196.969 105.871L198.715 108.741L200.964 112.432L201.757 113.662L203.503 116.534L205.363 119.701L207.983 124.939L210.587 130.261L215.6 140.515L216.361 142.157L218.56 146.664L219.789 149.129L220 149.444L215.941 154.392L214.5 157.913L211.752 163.181L208.031 164.629L208.566 169.33L207.454 174.14L202.564 177.678L198.089 180.524L192.299 182.656L187.423 185.092L182.85 186.309L176.756 188.747L173.404 190.269L170.051 193.922L163.347 195.445L156.82 196L155.573 195.392L143.843 193.314L137.139 189.659L129.52 186.309L120.987 185.397L117.303 186.078L117.329 185.701L112.596 184.755L112.478 184.919L108.493 185.092L102.701 183.266L95.6918 182.656L91.1197 180.829L88.6823 181.743L87.8952 184.301L87.3237 184.205L85.0268 186.919L82.5866 189.051L78.9311 191.486L76.1881 190.877L75.2729 186.614L73.4452 181.134L73.2856 178.103L72.6472 177.769L71.9216 175.347L68.5689 174.738L63.0843 172.912L58.2067 169.562L55.1596 164.386L51.5027 160.123L48.7611 160.427L42.0558 162.255L37.1781 162.56L33.5227 163.777L33.3903 163.547L31.0852 163.777L27.7326 161.342L27.427 157.686L26.8187 152.206L24.684 150.075L22.2466 146.726L20.723 144.288L24.9896 140.94L26.8937 139.195L26.5663 138.945L26.1899 138.845L27.7326 135.764L23.1604 133.632L21.3314 129.369L17.9801 124.802L12.4941 120.842L7.61922 118.407L6.3998 112.013L4.51479 109.815L5.03719 107.436L3.961 105.618L0 101.051L1.82774 98.9192L5.79011 94.6549L8.53174 90.0894L9.75112 83.0843V77.9533L10.3772 78.0487L12.1463 76.5345L14.6451 72.9271L16.0323 67.9336L16.8657 64.6056L14.6451 62.6635L15.1989 59.8888L18.1437 59.5208L18.126 59.4963L22.4185 60.1668L26.2376 59.6748L26.52 59.9147L28.7514 60.2758H30.2873H31.9213L35.9642 59.9569L37.7101 59.6707L37.9993 59.5494L44.3527 59.8888L60.179 59.3341L62.6779 56.8373L66.287 53.5079L67.3986 50.1799L67.801 44.9479L68.1338 44.8784L68.2306 42.1336L70.1743 36.3089L72.118 33.8121L76.0054 29.9266L82.3916 27.4313L89.3329 20.2178L93.7835 15.9643V15.7967L97.1062 14.393L106.181 0L106.14 6.07419L106.156 12.9742L106.14 21.9145L106.092 37.7848L106.058 47.9639L105.995 55.6967V59.36Z" stroke="black" stroke-opacity="0.2" stroke-width="4" mask="url(#path-1-inside-1_8895_6823)"/>
<path d="M105.995 59.36L106.027 61.3552L108.921 59.1133L112.139 57.0282L113.718 58.0762L115.359 59.7021L116.183 60.9136L116.478 61.283L122.678 60.7678L130.083 59.6584L137.486 58.5477L142.03 58.1702L142.789 57.6905L144.567 56.6111L145.7 56.1041L147.098 55.7539L155.586 56.3822L158.049 58.5532L160.919 58.3774L162.228 58.068L166.886 57.8881L167.969 57.9045L167.916 57.9345L171.868 64.4966L175.83 71.0396L186.521 88.6597L188.51 91.936L190.501 95.2137L196.969 105.871L198.715 108.741L200.964 112.432L201.757 113.662L203.503 116.534L205.363 119.701L207.983 124.939L210.587 130.261L215.6 140.515L216.361 142.157L218.56 146.664L219.789 149.129L220 149.444L215.941 154.392L214.5 157.913L211.752 163.181L208.031 164.629L208.566 169.33L207.454 174.14L202.564 177.678L198.089 180.524L192.299 182.656L187.423 185.092L182.85 186.309L176.756 188.747L173.404 190.269L170.051 193.922L163.347 195.445L156.82 196L155.573 195.392L143.843 193.314L137.139 189.659L129.52 186.309L120.987 185.397L117.303 186.078L117.329 185.701L112.596 184.755L112.478 184.919L108.493 185.092L102.701 183.266L95.6918 182.656L91.1197 180.829L88.6823 181.743L87.8952 184.301L87.3237 184.205L85.0268 186.919L82.5866 189.051L78.9311 191.486L76.1881 190.877L75.2729 186.614L73.4452 181.134L73.2856 178.103L72.6472 177.769L71.9216 175.347L68.5689 174.738L63.0843 172.912L58.2067 169.562L55.1596 164.386L51.5027 160.123L48.7611 160.427L42.0558 162.255L37.1781 162.56L33.5227 163.777L33.3903 163.547L31.0852 163.777L27.7326 161.342L27.427 157.686L26.8187 152.206L24.684 150.075L22.2466 146.726L20.723 144.288L24.9896 140.94L26.8937 139.195L26.5663 138.945L26.1899 138.845L27.7326 135.764L23.1604 133.632L21.3314 129.369L17.9801 124.802L12.4941 120.842L7.61922 118.407L6.3998 112.013L4.51479 109.815L5.03719 107.436L3.961 105.618L0 101.051L1.82774 98.9192L5.79011 94.6549L8.53174 90.0894L9.75112 83.0843V77.9533L10.3772 78.0487L12.1463 76.5345L14.6451 72.9271L16.0323 67.9336L16.8657 64.6056L14.6451 62.6635L15.1989 59.8888L18.1437 59.5208L18.126 59.4963L22.4185 60.1668L26.2376 59.6748L26.52 59.9147L28.7514 60.2758H30.2873H31.9213L35.9642 59.9569L37.7101 59.6707L37.9993 59.5494L44.3527 59.8888L60.179 59.3341L62.6779 56.8373L66.287 53.5079L67.3986 50.1799L67.801 44.9479L68.1338 44.8784L68.2306 42.1336L70.1743 36.3089L72.118 33.8121L76.0054 29.9266L82.3916 27.4313L89.3329 20.2178L93.7835 15.9643V15.7967L97.1062 14.393L106.181 0L106.14 6.07419L106.156 12.9742L106.14 21.9145L106.092 37.7848L106.058 47.9639L105.995 55.6967V59.36Z" stroke="black" stroke-opacity="0.2" stroke-width="4" mask="url(#path-1-inside-1_8895_6823)"/>
<path d="M105.995 59.36L106.027 61.3552L108.921 59.1133L112.139 57.0282L113.718 58.0762L115.359 59.7021L116.183 60.9136L116.478 61.283L122.678 60.7678L130.083 59.6584L137.486 58.5477L142.03 58.1702L142.789 57.6905L144.567 56.6111L145.7 56.1041L147.098 55.7539L155.586 56.3822L158.049 58.5532L160.919 58.3774L162.228 58.068L166.886 57.8881L167.969 57.9045L167.916 57.9345L171.868 64.4966L175.83 71.0396L186.521 88.6597L188.51 91.936L190.501 95.2137L196.969 105.871L198.715 108.741L200.964 112.432L201.757 113.662L203.503 116.534L205.363 119.701L207.983 124.939L210.587 130.261L215.6 140.515L216.361 142.157L218.56 146.664L219.789 149.129L220 149.444L215.941 154.392L214.5 157.913L211.752 163.181L208.031 164.629L208.566 169.33L207.454 174.14L202.564 177.678L198.089 180.524L192.299 182.656L187.423 185.092L182.85 186.309L176.756 188.747L173.404 190.269L170.051 193.922L163.347 195.445L156.82 196L155.573 195.392L143.843 193.314L137.139 189.659L129.52 186.309L120.987 185.397L117.303 186.078L117.329 185.701L112.596 184.755L112.478 184.919L108.493 185.092L102.701 183.266L95.6918 182.656L91.1197 180.829L88.6823 181.743L87.8952 184.301L87.3237 184.205L85.0268 186.919L82.5866 189.051L78.9311 191.486L76.1881 190.877L75.2729 186.614L73.4452 181.134L73.2856 178.103L72.6472 177.769L71.9216 175.347L68.5689 174.738L63.0843 172.912L58.2067 169.562L55.1596 164.386L51.5027 160.123L48.7611 160.427L42.0558 162.255L37.1781 162.56L33.5227 163.777L33.3903 163.547L31.0852 163.777L27.7326 161.342L27.427 157.686L26.8187 152.206L24.684 150.075L22.2466 146.726L20.723 144.288L24.9896 140.94L26.8937 139.195L26.5663 138.945L26.1899 138.845L27.7326 135.764L23.1604 133.632L21.3314 129.369L17.9801 124.802L12.4941 120.842L7.61922 118.407L6.3998 112.013L4.51479 109.815L5.03719 107.436L3.961 105.618L0 101.051L1.82774 98.9192L5.79011 94.6549L8.53174 90.0894L9.75112 83.0843V77.9533L10.3772 78.0487L12.1463 76.5345L14.6451 72.9271L16.0323 67.9336L16.8657 64.6056L14.6451 62.6635L15.1989 59.8888L18.1437 59.5208L18.126 59.4963L22.4185 60.1668L26.2376 59.6748L26.52 59.9147L28.7514 60.2758H30.2873H31.9213L35.9642 59.9569L37.7101 59.6707L37.9993 59.5494L44.3527 59.8888L60.179 59.3341L62.6779 56.8373L66.287 53.5079L67.3986 50.1799L67.801 44.9479L68.1338 44.8784L68.2306 42.1336L70.1743 36.3089L72.118 33.8121L76.0054 29.9266L82.3916 27.4313L89.3329 20.2178L93.7835 15.9643V15.7967L97.1062 14.393L106.181 0L106.14 6.07419L106.156 12.9742L106.14 21.9145L106.092 37.7848L106.058 47.9639L105.995 55.6967V59.36Z" stroke="black" stroke-opacity="0.2" stroke-width="4" mask="url(#path-1-inside-1_8895_6823)"/>
</svg>
