<svg width="220" height="249" viewBox="0 0 220 249" fill="none" xmlns="http://www.w3.org/2000/svg">
<rect width="220" height="249" fill="white"/>
<path d="M106.214 87.3633L106.243 89.2578L108.98 87.1291L112.022 85.1492L113.515 86.1443L115.067 87.6881L115.846 88.8385L116.124 89.1892L121.987 88.7L128.988 87.6467L135.986 86.592L140.283 86.2336L141 85.7781L142.682 84.7532L143.752 84.2718L145.074 83.9393L153.099 84.5358L155.428 86.5972L158.142 86.4303L159.38 86.1365L163.783 85.9658H164.311L164.757 86.0097L168.493 92.2406L172.239 98.4533L182.347 115.184L184.227 118.295L186.11 121.407L192.225 131.526L193.876 134.252L196.002 137.756L196.752 138.924L198.402 141.651L200.161 144.658L202.639 149.631L205.101 154.685L209.84 164.421L210.559 165.98L212.638 170.26L213.8 172.601L214 172.899L210.162 177.598L208.8 180.941L206.202 185.943L202.684 187.318L203.189 191.782L202.138 196.349L197.515 199.708L193.284 202.41L187.81 204.435L183.199 206.748L178.877 207.903L173.115 210.218L169.945 211.664L166.775 215.132L160.437 216.579L154.266 217.105L153.088 216.528L141.997 214.555L135.659 211.084L128.455 207.903L120.388 207.038L116.904 207.685L116.929 207.326L112.454 206.428L112.343 206.583L108.575 206.748L103.099 205.014L96.4722 204.435L92.1495 202.7L89.845 203.568L89.101 205.997L88.5606 205.905L86.389 208.483L84.0819 210.507L80.6258 212.819L78.0324 212.241L77.1671 208.193L75.4391 202.99L75.2882 200.112L74.6846 199.795L73.9986 197.495L70.8288 196.917L65.6434 195.183L61.0318 192.002L58.1509 187.087L54.6935 183.04L52.1014 183.328L45.7618 185.063L41.1502 185.353L37.6942 186.509L37.5691 186.29L35.3897 186.509L32.2199 184.196L31.931 180.726L31.3558 175.522L29.3376 173.499L27.0332 170.319L25.5927 168.004L29.6265 164.825L31.4267 163.168L31.1173 162.93L30.7613 162.836L32.2199 159.91L27.8972 157.886L26.1679 153.838L22.9993 149.502L17.8126 145.741L13.2036 143.429L12.0507 137.359L10.2685 135.271L10.7624 133.012L9.74495 131.286L6 126.949L7.72804 124.925L11.4743 120.876L14.0664 116.541L15.2192 109.89V105.018L15.8112 105.109L17.4838 103.671L19.8463 100.245L21.1578 95.5041L21.9457 92.3441L19.8463 90.5001L20.3699 87.8654L23.1541 87.516L23.1373 87.4927L27.1956 88.1294L30.8065 87.6622L31.0734 87.89L33.1832 88.2329H34.6352H36.1802L40.0025 87.9301L41.6532 87.6583L41.9266 87.5432L47.9335 87.8654L62.8965 87.3387L65.2591 84.968L68.6713 81.8067L69.7223 78.6466L70.1028 73.6788L70.4174 73.6128L70.509 71.0066L72.3466 65.4759L74.1843 63.1052L77.8596 59.4159L83.8975 57.0465L90.4602 50.1971L94.6681 46.1584V45.9992L97.8095 44.6664L106.389 31L106.35 36.7675L106.366 43.3193L106.35 51.8082L106.305 66.8773L106.273 76.5425L106.214 83.8849V87.3633Z" fill="#E9ECF2" stroke="#8F959D" stroke-width="2"/>
</svg>
