<svg width="206" height="249" viewBox="0 0 206 249" fill="none" xmlns="http://www.w3.org/2000/svg">
<mask id="path-1-inside-1_8895_6825" fill="white">
<path d="M103.282 2.09574L103.888 2.81266L111.45 1.48024L121.763 0.790926L130.018 1.48024L132.227 3.6928L133.061 3.45276L152.897 8.73643L155.452 12.0938L161.346 28.8189L162.657 40.7897L161.964 43.8148L161.78 47.5166L166.418 61.6169L167.639 65.0573L181.6 79.9607L190.704 88.7187L194.714 90.405L202.384 91.719L206 95.6643L195.139 106.124L194.656 116.301L193.966 127.302L190.101 131.943L190.476 132.577L186.404 132.804L179.529 134.863L177.697 130.29L175.401 129.847V125.24L174.026 115.614L167.836 112.174L162.721 113.571L161.856 113.106L155.178 113.297L150.983 115.664L146.6 121.233L143.39 131.201L142.842 134.992L145.031 140.168L145.982 142.808L145.871 146.827L138.463 155.97L130.178 165.611L127.294 167.433L122.717 169.2L118.298 170.378L116.146 171.972L113.503 175.979L108.905 184.601L102.552 197.141L98.1387 205.961L95.6335 209.552V215.999L88.7579 231.81L81.196 238.688L69.5038 243.498L60.5662 249H54.7801L54.5984 248.871L53.2843 247.292L52.1455 244.901L49.0524 242.532L37.0833 235.602L29.8568 223.308L28.4719 212.959L27.4316 205.81L24.2554 192.845L21.7563 191.553L12.8894 183.46L11.9415 182.17L11.7846 179.548L5.26285 175.637L0 173.421L13.1942 169.541L21.547 163.694L28.0409 160.715L31.7927 146.446L25.5542 137.916L23.1074 135.583L18.6909 126.009L17.5984 121.575L17.5029 118.144L18.3247 115.285L19.8973 113.051L28.3979 105.985L32.8853 104.373L36.0461 102.868L37.3203 95.7227L36.0461 87.5924L48.7447 70.2549L56.559 66.5375L55.0632 63.3586L51.6255 61.2968L46.8119 56.4839L44.0604 52.3604L46.8119 47.5444H53.0012L58.501 50.2954L68.8144 57.8595L77.7582 60.6105L82.6702 58.6442L81.5345 55.2438V51.8065L83.1042 48.6122L85.9849 45.8919L88.9056 43.1715L92.2973 39.091L94.2886 35.8229L95.3288 28.8929L95.5843 25.2677L95.7658 19.7194L95.4919 12.9617L95.5289 6.32083L96.4152 0.501677L99.9977 0L103.282 2.09574Z"/>
</mask>
<path d="M103.282 2.09574L103.888 2.81266L111.45 1.48024L121.763 0.790926L130.018 1.48024L132.227 3.6928L133.061 3.45276L152.897 8.73643L155.452 12.0938L161.346 28.8189L162.657 40.7897L161.964 43.8148L161.78 47.5166L166.418 61.6169L167.639 65.0573L181.6 79.9607L190.704 88.7187L194.714 90.405L202.384 91.719L206 95.6643L195.139 106.124L194.656 116.301L193.966 127.302L190.101 131.943L190.476 132.577L186.404 132.804L179.529 134.863L177.697 130.29L175.401 129.847V125.24L174.026 115.614L167.836 112.174L162.721 113.571L161.856 113.106L155.178 113.297L150.983 115.664L146.6 121.233L143.39 131.201L142.842 134.992L145.031 140.168L145.982 142.808L145.871 146.827L138.463 155.97L130.178 165.611L127.294 167.433L122.717 169.2L118.298 170.378L116.146 171.972L113.503 175.979L108.905 184.601L102.552 197.141L98.1387 205.961L95.6335 209.552V215.999L88.7579 231.81L81.196 238.688L69.5038 243.498L60.5662 249H54.7801L54.5984 248.871L53.2843 247.292L52.1455 244.901L49.0524 242.532L37.0833 235.602L29.8568 223.308L28.4719 212.959L27.4316 205.81L24.2554 192.845L21.7563 191.553L12.8894 183.46L11.9415 182.17L11.7846 179.548L5.26285 175.637L0 173.421L13.1942 169.541L21.547 163.694L28.0409 160.715L31.7927 146.446L25.5542 137.916L23.1074 135.583L18.6909 126.009L17.5984 121.575L17.5029 118.144L18.3247 115.285L19.8973 113.051L28.3979 105.985L32.8853 104.373L36.0461 102.868L37.3203 95.7227L36.0461 87.5924L48.7447 70.2549L56.559 66.5375L55.0632 63.3586L51.6255 61.2968L46.8119 56.4839L44.0604 52.3604L46.8119 47.5444H53.0012L58.501 50.2954L68.8144 57.8595L77.7582 60.6105L82.6702 58.6442L81.5345 55.2438V51.8065L83.1042 48.6122L85.9849 45.8919L88.9056 43.1715L92.2973 39.091L94.2886 35.8229L95.3288 28.8929L95.5843 25.2677L95.7658 19.7194L95.4919 12.9617L95.5289 6.32083L96.4152 0.501677L99.9977 0L103.282 2.09574Z" fill="#E9ECF2"/>
<path d="M103.282 2.09574L103.888 2.81266L111.45 1.48024L121.763 0.790926L130.018 1.48024L132.227 3.6928L133.061 3.45276L152.897 8.73643L155.452 12.0938L161.346 28.8189L162.657 40.7897L161.964 43.8148L161.78 47.5166L166.418 61.6169L167.639 65.0573L181.6 79.9607L190.704 88.7187L194.714 90.405L202.384 91.719L206 95.6643L195.139 106.124L194.656 116.301L193.966 127.302L190.101 131.943L190.476 132.577L186.404 132.804L179.529 134.863L177.697 130.29L175.401 129.847V125.24L174.026 115.614L167.836 112.174L162.721 113.571L161.856 113.106L155.178 113.297L150.983 115.664L146.6 121.233L143.39 131.201L142.842 134.992L145.031 140.168L145.982 142.808L145.871 146.827L138.463 155.97L130.178 165.611L127.294 167.433L122.717 169.2L118.298 170.378L116.146 171.972L113.503 175.979L108.905 184.601L102.552 197.141L98.1387 205.961L95.6335 209.552V215.999L88.7579 231.81L81.196 238.688L69.5038 243.498L60.5662 249H54.7801L54.5984 248.871L53.2843 247.292L52.1455 244.901L49.0524 242.532L37.0833 235.602L29.8568 223.308L28.4719 212.959L27.4316 205.81L24.2554 192.845L21.7563 191.553L12.8894 183.46L11.9415 182.17L11.7846 179.548L5.26285 175.637L0 173.421L13.1942 169.541L21.547 163.694L28.0409 160.715L31.7927 146.446L25.5542 137.916L23.1074 135.583L18.6909 126.009L17.5984 121.575L17.5029 118.144L18.3247 115.285L19.8973 113.051L28.3979 105.985L32.8853 104.373L36.0461 102.868L37.3203 95.7227L36.0461 87.5924L48.7447 70.2549L56.559 66.5375L55.0632 63.3586L51.6255 61.2968L46.8119 56.4839L44.0604 52.3604L46.8119 47.5444H53.0012L58.501 50.2954L68.8144 57.8595L77.7582 60.6105L82.6702 58.6442L81.5345 55.2438V51.8065L83.1042 48.6122L85.9849 45.8919L88.9056 43.1715L92.2973 39.091L94.2886 35.8229L95.3288 28.8929L95.5843 25.2677L95.7658 19.7194L95.4919 12.9617L95.5289 6.32083L96.4152 0.501677L99.9977 0L103.282 2.09574Z" stroke="#8F959D" stroke-width="4" mask="url(#path-1-inside-1_8895_6825)"/>
<path d="M103.282 2.09574L103.888 2.81266L111.45 1.48024L121.763 0.790926L130.018 1.48024L132.227 3.6928L133.061 3.45276L152.897 8.73643L155.452 12.0938L161.346 28.8189L162.657 40.7897L161.964 43.8148L161.78 47.5166L166.418 61.6169L167.639 65.0573L181.6 79.9607L190.704 88.7187L194.714 90.405L202.384 91.719L206 95.6643L195.139 106.124L194.656 116.301L193.966 127.302L190.101 131.943L190.476 132.577L186.404 132.804L179.529 134.863L177.697 130.29L175.401 129.847V125.24L174.026 115.614L167.836 112.174L162.721 113.571L161.856 113.106L155.178 113.297L150.983 115.664L146.6 121.233L143.39 131.201L142.842 134.992L145.031 140.168L145.982 142.808L145.871 146.827L138.463 155.97L130.178 165.611L127.294 167.433L122.717 169.2L118.298 170.378L116.146 171.972L113.503 175.979L108.905 184.601L102.552 197.141L98.1387 205.961L95.6335 209.552V215.999L88.7579 231.81L81.196 238.688L69.5038 243.498L60.5662 249H54.7801L54.5984 248.871L53.2843 247.292L52.1455 244.901L49.0524 242.532L37.0833 235.602L29.8568 223.308L28.4719 212.959L27.4316 205.81L24.2554 192.845L21.7563 191.553L12.8894 183.46L11.9415 182.17L11.7846 179.548L5.26285 175.637L0 173.421L13.1942 169.541L21.547 163.694L28.0409 160.715L31.7927 146.446L25.5542 137.916L23.1074 135.583L18.6909 126.009L17.5984 121.575L17.5029 118.144L18.3247 115.285L19.8973 113.051L28.3979 105.985L32.8853 104.373L36.0461 102.868L37.3203 95.7227L36.0461 87.5924L48.7447 70.2549L56.559 66.5375L55.0632 63.3586L51.6255 61.2968L46.8119 56.4839L44.0604 52.3604L46.8119 47.5444H53.0012L58.501 50.2954L68.8144 57.8595L77.7582 60.6105L82.6702 58.6442L81.5345 55.2438V51.8065L83.1042 48.6122L85.9849 45.8919L88.9056 43.1715L92.2973 39.091L94.2886 35.8229L95.3288 28.8929L95.5843 25.2677L95.7658 19.7194L95.4919 12.9617L95.5289 6.32083L96.4152 0.501677L99.9977 0L103.282 2.09574Z" stroke="black" stroke-opacity="0.2" stroke-width="4" mask="url(#path-1-inside-1_8895_6825)"/>
<path d="M103.282 2.09574L103.888 2.81266L111.45 1.48024L121.763 0.790926L130.018 1.48024L132.227 3.6928L133.061 3.45276L152.897 8.73643L155.452 12.0938L161.346 28.8189L162.657 40.7897L161.964 43.8148L161.78 47.5166L166.418 61.6169L167.639 65.0573L181.6 79.9607L190.704 88.7187L194.714 90.405L202.384 91.719L206 95.6643L195.139 106.124L194.656 116.301L193.966 127.302L190.101 131.943L190.476 132.577L186.404 132.804L179.529 134.863L177.697 130.29L175.401 129.847V125.24L174.026 115.614L167.836 112.174L162.721 113.571L161.856 113.106L155.178 113.297L150.983 115.664L146.6 121.233L143.39 131.201L142.842 134.992L145.031 140.168L145.982 142.808L145.871 146.827L138.463 155.97L130.178 165.611L127.294 167.433L122.717 169.2L118.298 170.378L116.146 171.972L113.503 175.979L108.905 184.601L102.552 197.141L98.1387 205.961L95.6335 209.552V215.999L88.7579 231.81L81.196 238.688L69.5038 243.498L60.5662 249H54.7801L54.5984 248.871L53.2843 247.292L52.1455 244.901L49.0524 242.532L37.0833 235.602L29.8568 223.308L28.4719 212.959L27.4316 205.81L24.2554 192.845L21.7563 191.553L12.8894 183.46L11.9415 182.17L11.7846 179.548L5.26285 175.637L0 173.421L13.1942 169.541L21.547 163.694L28.0409 160.715L31.7927 146.446L25.5542 137.916L23.1074 135.583L18.6909 126.009L17.5984 121.575L17.5029 118.144L18.3247 115.285L19.8973 113.051L28.3979 105.985L32.8853 104.373L36.0461 102.868L37.3203 95.7227L36.0461 87.5924L48.7447 70.2549L56.559 66.5375L55.0632 63.3586L51.6255 61.2968L46.8119 56.4839L44.0604 52.3604L46.8119 47.5444H53.0012L58.501 50.2954L68.8144 57.8595L77.7582 60.6105L82.6702 58.6442L81.5345 55.2438V51.8065L83.1042 48.6122L85.9849 45.8919L88.9056 43.1715L92.2973 39.091L94.2886 35.8229L95.3288 28.8929L95.5843 25.2677L95.7658 19.7194L95.4919 12.9617L95.5289 6.32083L96.4152 0.501677L99.9977 0L103.282 2.09574Z" stroke="black" stroke-opacity="0.2" stroke-width="4" mask="url(#path-1-inside-1_8895_6825)"/>
<path d="M103.282 2.09574L103.888 2.81266L111.45 1.48024L121.763 0.790926L130.018 1.48024L132.227 3.6928L133.061 3.45276L152.897 8.73643L155.452 12.0938L161.346 28.8189L162.657 40.7897L161.964 43.8148L161.78 47.5166L166.418 61.6169L167.639 65.0573L181.6 79.9607L190.704 88.7187L194.714 90.405L202.384 91.719L206 95.6643L195.139 106.124L194.656 116.301L193.966 127.302L190.101 131.943L190.476 132.577L186.404 132.804L179.529 134.863L177.697 130.29L175.401 129.847V125.24L174.026 115.614L167.836 112.174L162.721 113.571L161.856 113.106L155.178 113.297L150.983 115.664L146.6 121.233L143.39 131.201L142.842 134.992L145.031 140.168L145.982 142.808L145.871 146.827L138.463 155.97L130.178 165.611L127.294 167.433L122.717 169.2L118.298 170.378L116.146 171.972L113.503 175.979L108.905 184.601L102.552 197.141L98.1387 205.961L95.6335 209.552V215.999L88.7579 231.81L81.196 238.688L69.5038 243.498L60.5662 249H54.7801L54.5984 248.871L53.2843 247.292L52.1455 244.901L49.0524 242.532L37.0833 235.602L29.8568 223.308L28.4719 212.959L27.4316 205.81L24.2554 192.845L21.7563 191.553L12.8894 183.46L11.9415 182.17L11.7846 179.548L5.26285 175.637L0 173.421L13.1942 169.541L21.547 163.694L28.0409 160.715L31.7927 146.446L25.5542 137.916L23.1074 135.583L18.6909 126.009L17.5984 121.575L17.5029 118.144L18.3247 115.285L19.8973 113.051L28.3979 105.985L32.8853 104.373L36.0461 102.868L37.3203 95.7227L36.0461 87.5924L48.7447 70.2549L56.559 66.5375L55.0632 63.3586L51.6255 61.2968L46.8119 56.4839L44.0604 52.3604L46.8119 47.5444H53.0012L58.501 50.2954L68.8144 57.8595L77.7582 60.6105L82.6702 58.6442L81.5345 55.2438V51.8065L83.1042 48.6122L85.9849 45.8919L88.9056 43.1715L92.2973 39.091L94.2886 35.8229L95.3288 28.8929L95.5843 25.2677L95.7658 19.7194L95.4919 12.9617L95.5289 6.32083L96.4152 0.501677L99.9977 0L103.282 2.09574Z" stroke="black" stroke-opacity="0.2" stroke-width="4" mask="url(#path-1-inside-1_8895_6825)"/>
<path d="M103.282 2.09574L103.888 2.81266L111.45 1.48024L121.763 0.790926L130.018 1.48024L132.227 3.6928L133.061 3.45276L152.897 8.73643L155.452 12.0938L161.346 28.8189L162.657 40.7897L161.964 43.8148L161.78 47.5166L166.418 61.6169L167.639 65.0573L181.6 79.9607L190.704 88.7187L194.714 90.405L202.384 91.719L206 95.6643L195.139 106.124L194.656 116.301L193.966 127.302L190.101 131.943L190.476 132.577L186.404 132.804L179.529 134.863L177.697 130.29L175.401 129.847V125.24L174.026 115.614L167.836 112.174L162.721 113.571L161.856 113.106L155.178 113.297L150.983 115.664L146.6 121.233L143.39 131.201L142.842 134.992L145.031 140.168L145.982 142.808L145.871 146.827L138.463 155.97L130.178 165.611L127.294 167.433L122.717 169.2L118.298 170.378L116.146 171.972L113.503 175.979L108.905 184.601L102.552 197.141L98.1387 205.961L95.6335 209.552V215.999L88.7579 231.81L81.196 238.688L69.5038 243.498L60.5662 249H54.7801L54.5984 248.871L53.2843 247.292L52.1455 244.901L49.0524 242.532L37.0833 235.602L29.8568 223.308L28.4719 212.959L27.4316 205.81L24.2554 192.845L21.7563 191.553L12.8894 183.46L11.9415 182.17L11.7846 179.548L5.26285 175.637L0 173.421L13.1942 169.541L21.547 163.694L28.0409 160.715L31.7927 146.446L25.5542 137.916L23.1074 135.583L18.6909 126.009L17.5984 121.575L17.5029 118.144L18.3247 115.285L19.8973 113.051L28.3979 105.985L32.8853 104.373L36.0461 102.868L37.3203 95.7227L36.0461 87.5924L48.7447 70.2549L56.559 66.5375L55.0632 63.3586L51.6255 61.2968L46.8119 56.4839L44.0604 52.3604L46.8119 47.5444H53.0012L58.501 50.2954L68.8144 57.8595L77.7582 60.6105L82.6702 58.6442L81.5345 55.2438V51.8065L83.1042 48.6122L85.9849 45.8919L88.9056 43.1715L92.2973 39.091L94.2886 35.8229L95.3288 28.8929L95.5843 25.2677L95.7658 19.7194L95.4919 12.9617L95.5289 6.32083L96.4152 0.501677L99.9977 0L103.282 2.09574Z" stroke="black" stroke-opacity="0.2" stroke-width="4" mask="url(#path-1-inside-1_8895_6825)"/>
<path d="M103.282 2.09574L103.888 2.81266L111.45 1.48024L121.763 0.790926L130.018 1.48024L132.227 3.6928L133.061 3.45276L152.897 8.73643L155.452 12.0938L161.346 28.8189L162.657 40.7897L161.964 43.8148L161.78 47.5166L166.418 61.6169L167.639 65.0573L181.6 79.9607L190.704 88.7187L194.714 90.405L202.384 91.719L206 95.6643L195.139 106.124L194.656 116.301L193.966 127.302L190.101 131.943L190.476 132.577L186.404 132.804L179.529 134.863L177.697 130.29L175.401 129.847V125.24L174.026 115.614L167.836 112.174L162.721 113.571L161.856 113.106L155.178 113.297L150.983 115.664L146.6 121.233L143.39 131.201L142.842 134.992L145.031 140.168L145.982 142.808L145.871 146.827L138.463 155.97L130.178 165.611L127.294 167.433L122.717 169.2L118.298 170.378L116.146 171.972L113.503 175.979L108.905 184.601L102.552 197.141L98.1387 205.961L95.6335 209.552V215.999L88.7579 231.81L81.196 238.688L69.5038 243.498L60.5662 249H54.7801L54.5984 248.871L53.2843 247.292L52.1455 244.901L49.0524 242.532L37.0833 235.602L29.8568 223.308L28.4719 212.959L27.4316 205.81L24.2554 192.845L21.7563 191.553L12.8894 183.46L11.9415 182.17L11.7846 179.548L5.26285 175.637L0 173.421L13.1942 169.541L21.547 163.694L28.0409 160.715L31.7927 146.446L25.5542 137.916L23.1074 135.583L18.6909 126.009L17.5984 121.575L17.5029 118.144L18.3247 115.285L19.8973 113.051L28.3979 105.985L32.8853 104.373L36.0461 102.868L37.3203 95.7227L36.0461 87.5924L48.7447 70.2549L56.559 66.5375L55.0632 63.3586L51.6255 61.2968L46.8119 56.4839L44.0604 52.3604L46.8119 47.5444H53.0012L58.501 50.2954L68.8144 57.8595L77.7582 60.6105L82.6702 58.6442L81.5345 55.2438V51.8065L83.1042 48.6122L85.9849 45.8919L88.9056 43.1715L92.2973 39.091L94.2886 35.8229L95.3288 28.8929L95.5843 25.2677L95.7658 19.7194L95.4919 12.9617L95.5289 6.32083L96.4152 0.501677L99.9977 0L103.282 2.09574Z" stroke="black" stroke-opacity="0.2" stroke-width="4" mask="url(#path-1-inside-1_8895_6825)"/>
</svg>
