<svg width="220" height="145" viewBox="0 0 220 145" fill="none" xmlns="http://www.w3.org/2000/svg">
<mask id="path-1-inside-1_8892_6813" fill="white">
<path d="M32.8767 143.003L31.2561 140.17L26.416 138.853L21.2017 139.635L20.6228 138.232L17.0035 135.913L15.6369 134.878L14.5992 132.437L15.1112 130.006L15.2057 126.719L15.0186 124.632L14.9241 121.825L14.294 119.322L10.7003 115.511L9.4952 113.79L8.69178 111.151L8.43383 108.535L7.78007 105.708L6.93925 103.67L4.73382 100.867L3.70593 98.6901L3.42631 95.5321L2.55595 92.6454L1.23858 89.3185L0 87.9252L7.49848 86.1664L13.2169 82.2145L19.8174 77.8245L26.416 75.6294L32.5755 76.0676L36.9745 80.4597L40.9364 82.2145L49.2954 83.091L53.6945 84.4096L61.6144 86.6066L67.7738 87.0428L68.1696 85.8598L68.6087 85.6653L69.9733 81.7763L71.2927 75.1893L75.6917 73.4324L77.8912 69.9208L79.8249 69.7596L82.7314 68.1639L86.6913 61.5789L91.0904 55.432L95.4914 52.3585L101.21 47.5282L107.96 41.3539L109.019 41.2772L110.723 40.9884L115.728 36.9894L121.007 33.0395L125.409 29.5278L130.688 29.966L132.828 31.713L133.624 31.5067L135.528 34.358L139.488 37.4296L143.887 34.358L145.519 31.9115L147.014 32.0668L148.286 29.5278L150.927 28.2112L155.326 25.1358L160.605 24.6976L163.244 22.0623L166.323 18.5506L168.084 12.4038L172.483 7.57351L177.323 1.86485L179.194 0L179.524 3.62168L183.043 8.45195L187.442 11.5234L189.203 17.234L191.841 22.5005L191.339 29.7931L191.792 30.9997L193.413 35.4959L196.681 36.9894L198.442 43.5764L198.881 51.0419L204.16 58.0652L208.12 61.1406L213.841 62.0171L213.399 68.6021L211.2 73.4324L210.32 79.1411L212.519 84.8497L216.479 88.8016L218.679 90.1182L220 93.6299L219.561 97.5798L216.973 98.8728L217.243 99.2089L216.845 100.997L214.112 101.988L211.545 102.813L206.76 105.285L200.899 111.08L198.282 114.118L197.233 115.511L191.511 120.436L188.165 121.955L184.53 121.639L181.683 121.709L177.835 122.095L174.243 119.534L167.645 116.461L161.485 113.387L151.366 108.119L147.254 108.392L146.098 107.851L142.871 107.763L140.366 106.802L134.648 107.68L127.608 111.192L124.087 113.387L122.569 116.042L120.673 116.736L118.371 117.361L116.118 117.42L112.243 117.066L110.453 117.233L107.81 114.268L104.29 110.314H102.09L96.3716 113.387L87.1324 116.901L81.8512 119.534L75.2526 120.851L69.0931 122.169L65.1332 119.096L60.7341 118.656L57.6544 121.291L55.0138 122.169L54.0765 125.353H54.0686L54.5747 130.073L61.6144 129.633L62.4926 133.585L60.7341 137.975L54.5747 140.61L48.4152 139.732L44.0161 144.122L38.2958 145L35.0703 142.701L33.7451 142.884L32.8767 143.003Z"/>
</mask>
<path d="M32.8767 143.003L31.2561 140.17L26.416 138.853L21.2017 139.635L20.6228 138.232L17.0035 135.913L15.6369 134.878L14.5992 132.437L15.1112 130.006L15.2057 126.719L15.0186 124.632L14.9241 121.825L14.294 119.322L10.7003 115.511L9.4952 113.79L8.69178 111.151L8.43383 108.535L7.78007 105.708L6.93925 103.67L4.73382 100.867L3.70593 98.6901L3.42631 95.5321L2.55595 92.6454L1.23858 89.3185L0 87.9252L7.49848 86.1664L13.2169 82.2145L19.8174 77.8245L26.416 75.6294L32.5755 76.0676L36.9745 80.4597L40.9364 82.2145L49.2954 83.091L53.6945 84.4096L61.6144 86.6066L67.7738 87.0428L68.1696 85.8598L68.6087 85.6653L69.9733 81.7763L71.2927 75.1893L75.6917 73.4324L77.8912 69.9208L79.8249 69.7596L82.7314 68.1639L86.6913 61.5789L91.0904 55.432L95.4914 52.3585L101.21 47.5282L107.96 41.3539L109.019 41.2772L110.723 40.9884L115.728 36.9894L121.007 33.0395L125.409 29.5278L130.688 29.966L132.828 31.713L133.624 31.5067L135.528 34.358L139.488 37.4296L143.887 34.358L145.519 31.9115L147.014 32.0668L148.286 29.5278L150.927 28.2112L155.326 25.1358L160.605 24.6976L163.244 22.0623L166.323 18.5506L168.084 12.4038L172.483 7.57351L177.323 1.86485L179.194 0L179.524 3.62168L183.043 8.45195L187.442 11.5234L189.203 17.234L191.841 22.5005L191.339 29.7931L191.792 30.9997L193.413 35.4959L196.681 36.9894L198.442 43.5764L198.881 51.0419L204.16 58.0652L208.12 61.1406L213.841 62.0171L213.399 68.6021L211.2 73.4324L210.32 79.1411L212.519 84.8497L216.479 88.8016L218.679 90.1182L220 93.6299L219.561 97.5798L216.973 98.8728L217.243 99.2089L216.845 100.997L214.112 101.988L211.545 102.813L206.76 105.285L200.899 111.08L198.282 114.118L197.233 115.511L191.511 120.436L188.165 121.955L184.53 121.639L181.683 121.709L177.835 122.095L174.243 119.534L167.645 116.461L161.485 113.387L151.366 108.119L147.254 108.392L146.098 107.851L142.871 107.763L140.366 106.802L134.648 107.68L127.608 111.192L124.087 113.387L122.569 116.042L120.673 116.736L118.371 117.361L116.118 117.42L112.243 117.066L110.453 117.233L107.81 114.268L104.29 110.314H102.09L96.3716 113.387L87.1324 116.901L81.8512 119.534L75.2526 120.851L69.0931 122.169L65.1332 119.096L60.7341 118.656L57.6544 121.291L55.0138 122.169L54.0765 125.353H54.0686L54.5747 130.073L61.6144 129.633L62.4926 133.585L60.7341 137.975L54.5747 140.61L48.4152 139.732L44.0161 144.122L38.2958 145L35.0703 142.701L33.7451 142.884L32.8767 143.003Z" fill="#E9ECF2"/>
<path d="M32.8767 143.003L31.2561 140.17L26.416 138.853L21.2017 139.635L20.6228 138.232L17.0035 135.913L15.6369 134.878L14.5992 132.437L15.1112 130.006L15.2057 126.719L15.0186 124.632L14.9241 121.825L14.294 119.322L10.7003 115.511L9.4952 113.79L8.69178 111.151L8.43383 108.535L7.78007 105.708L6.93925 103.67L4.73382 100.867L3.70593 98.6901L3.42631 95.5321L2.55595 92.6454L1.23858 89.3185L0 87.9252L7.49848 86.1664L13.2169 82.2145L19.8174 77.8245L26.416 75.6294L32.5755 76.0676L36.9745 80.4597L40.9364 82.2145L49.2954 83.091L53.6945 84.4096L61.6144 86.6066L67.7738 87.0428L68.1696 85.8598L68.6087 85.6653L69.9733 81.7763L71.2927 75.1893L75.6917 73.4324L77.8912 69.9208L79.8249 69.7596L82.7314 68.1639L86.6913 61.5789L91.0904 55.432L95.4914 52.3585L101.21 47.5282L107.96 41.3539L109.019 41.2772L110.723 40.9884L115.728 36.9894L121.007 33.0395L125.409 29.5278L130.688 29.966L132.828 31.713L133.624 31.5067L135.528 34.358L139.488 37.4296L143.887 34.358L145.519 31.9115L147.014 32.0668L148.286 29.5278L150.927 28.2112L155.326 25.1358L160.605 24.6976L163.244 22.0623L166.323 18.5506L168.084 12.4038L172.483 7.57351L177.323 1.86485L179.194 0L179.524 3.62168L183.043 8.45195L187.442 11.5234L189.203 17.234L191.841 22.5005L191.339 29.7931L191.792 30.9997L193.413 35.4959L196.681 36.9894L198.442 43.5764L198.881 51.0419L204.16 58.0652L208.12 61.1406L213.841 62.0171L213.399 68.6021L211.2 73.4324L210.32 79.1411L212.519 84.8497L216.479 88.8016L218.679 90.1182L220 93.6299L219.561 97.5798L216.973 98.8728L217.243 99.2089L216.845 100.997L214.112 101.988L211.545 102.813L206.76 105.285L200.899 111.08L198.282 114.118L197.233 115.511L191.511 120.436L188.165 121.955L184.53 121.639L181.683 121.709L177.835 122.095L174.243 119.534L167.645 116.461L161.485 113.387L151.366 108.119L147.254 108.392L146.098 107.851L142.871 107.763L140.366 106.802L134.648 107.68L127.608 111.192L124.087 113.387L122.569 116.042L120.673 116.736L118.371 117.361L116.118 117.42L112.243 117.066L110.453 117.233L107.81 114.268L104.29 110.314H102.09L96.3716 113.387L87.1324 116.901L81.8512 119.534L75.2526 120.851L69.0931 122.169L65.1332 119.096L60.7341 118.656L57.6544 121.291L55.0138 122.169L54.0765 125.353H54.0686L54.5747 130.073L61.6144 129.633L62.4926 133.585L60.7341 137.975L54.5747 140.61L48.4152 139.732L44.0161 144.122L38.2958 145L35.0703 142.701L33.7451 142.884L32.8767 143.003Z" stroke="#8F959D" stroke-width="4" mask="url(#path-1-inside-1_8892_6813)"/>
<path d="M32.8767 143.003L31.2561 140.17L26.416 138.853L21.2017 139.635L20.6228 138.232L17.0035 135.913L15.6369 134.878L14.5992 132.437L15.1112 130.006L15.2057 126.719L15.0186 124.632L14.9241 121.825L14.294 119.322L10.7003 115.511L9.4952 113.79L8.69178 111.151L8.43383 108.535L7.78007 105.708L6.93925 103.67L4.73382 100.867L3.70593 98.6901L3.42631 95.5321L2.55595 92.6454L1.23858 89.3185L0 87.9252L7.49848 86.1664L13.2169 82.2145L19.8174 77.8245L26.416 75.6294L32.5755 76.0676L36.9745 80.4597L40.9364 82.2145L49.2954 83.091L53.6945 84.4096L61.6144 86.6066L67.7738 87.0428L68.1696 85.8598L68.6087 85.6653L69.9733 81.7763L71.2927 75.1893L75.6917 73.4324L77.8912 69.9208L79.8249 69.7596L82.7314 68.1639L86.6913 61.5789L91.0904 55.432L95.4914 52.3585L101.21 47.5282L107.96 41.3539L109.019 41.2772L110.723 40.9884L115.728 36.9894L121.007 33.0395L125.409 29.5278L130.688 29.966L132.828 31.713L133.624 31.5067L135.528 34.358L139.488 37.4296L143.887 34.358L145.519 31.9115L147.014 32.0668L148.286 29.5278L150.927 28.2112L155.326 25.1358L160.605 24.6976L163.244 22.0623L166.323 18.5506L168.084 12.4038L172.483 7.57351L177.323 1.86485L179.194 0L179.524 3.62168L183.043 8.45195L187.442 11.5234L189.203 17.234L191.841 22.5005L191.339 29.7931L191.792 30.9997L193.413 35.4959L196.681 36.9894L198.442 43.5764L198.881 51.0419L204.16 58.0652L208.12 61.1406L213.841 62.0171L213.399 68.6021L211.2 73.4324L210.32 79.1411L212.519 84.8497L216.479 88.8016L218.679 90.1182L220 93.6299L219.561 97.5798L216.973 98.8728L217.243 99.2089L216.845 100.997L214.112 101.988L211.545 102.813L206.76 105.285L200.899 111.08L198.282 114.118L197.233 115.511L191.511 120.436L188.165 121.955L184.53 121.639L181.683 121.709L177.835 122.095L174.243 119.534L167.645 116.461L161.485 113.387L151.366 108.119L147.254 108.392L146.098 107.851L142.871 107.763L140.366 106.802L134.648 107.68L127.608 111.192L124.087 113.387L122.569 116.042L120.673 116.736L118.371 117.361L116.118 117.42L112.243 117.066L110.453 117.233L107.81 114.268L104.29 110.314H102.09L96.3716 113.387L87.1324 116.901L81.8512 119.534L75.2526 120.851L69.0931 122.169L65.1332 119.096L60.7341 118.656L57.6544 121.291L55.0138 122.169L54.0765 125.353H54.0686L54.5747 130.073L61.6144 129.633L62.4926 133.585L60.7341 137.975L54.5747 140.61L48.4152 139.732L44.0161 144.122L38.2958 145L35.0703 142.701L33.7451 142.884L32.8767 143.003Z" stroke="black" stroke-opacity="0.2" stroke-width="4" mask="url(#path-1-inside-1_8892_6813)"/>
<path d="M32.8767 143.003L31.2561 140.17L26.416 138.853L21.2017 139.635L20.6228 138.232L17.0035 135.913L15.6369 134.878L14.5992 132.437L15.1112 130.006L15.2057 126.719L15.0186 124.632L14.9241 121.825L14.294 119.322L10.7003 115.511L9.4952 113.79L8.69178 111.151L8.43383 108.535L7.78007 105.708L6.93925 103.67L4.73382 100.867L3.70593 98.6901L3.42631 95.5321L2.55595 92.6454L1.23858 89.3185L0 87.9252L7.49848 86.1664L13.2169 82.2145L19.8174 77.8245L26.416 75.6294L32.5755 76.0676L36.9745 80.4597L40.9364 82.2145L49.2954 83.091L53.6945 84.4096L61.6144 86.6066L67.7738 87.0428L68.1696 85.8598L68.6087 85.6653L69.9733 81.7763L71.2927 75.1893L75.6917 73.4324L77.8912 69.9208L79.8249 69.7596L82.7314 68.1639L86.6913 61.5789L91.0904 55.432L95.4914 52.3585L101.21 47.5282L107.96 41.3539L109.019 41.2772L110.723 40.9884L115.728 36.9894L121.007 33.0395L125.409 29.5278L130.688 29.966L132.828 31.713L133.624 31.5067L135.528 34.358L139.488 37.4296L143.887 34.358L145.519 31.9115L147.014 32.0668L148.286 29.5278L150.927 28.2112L155.326 25.1358L160.605 24.6976L163.244 22.0623L166.323 18.5506L168.084 12.4038L172.483 7.57351L177.323 1.86485L179.194 0L179.524 3.62168L183.043 8.45195L187.442 11.5234L189.203 17.234L191.841 22.5005L191.339 29.7931L191.792 30.9997L193.413 35.4959L196.681 36.9894L198.442 43.5764L198.881 51.0419L204.16 58.0652L208.12 61.1406L213.841 62.0171L213.399 68.6021L211.2 73.4324L210.32 79.1411L212.519 84.8497L216.479 88.8016L218.679 90.1182L220 93.6299L219.561 97.5798L216.973 98.8728L217.243 99.2089L216.845 100.997L214.112 101.988L211.545 102.813L206.76 105.285L200.899 111.08L198.282 114.118L197.233 115.511L191.511 120.436L188.165 121.955L184.53 121.639L181.683 121.709L177.835 122.095L174.243 119.534L167.645 116.461L161.485 113.387L151.366 108.119L147.254 108.392L146.098 107.851L142.871 107.763L140.366 106.802L134.648 107.68L127.608 111.192L124.087 113.387L122.569 116.042L120.673 116.736L118.371 117.361L116.118 117.42L112.243 117.066L110.453 117.233L107.81 114.268L104.29 110.314H102.09L96.3716 113.387L87.1324 116.901L81.8512 119.534L75.2526 120.851L69.0931 122.169L65.1332 119.096L60.7341 118.656L57.6544 121.291L55.0138 122.169L54.0765 125.353H54.0686L54.5747 130.073L61.6144 129.633L62.4926 133.585L60.7341 137.975L54.5747 140.61L48.4152 139.732L44.0161 144.122L38.2958 145L35.0703 142.701L33.7451 142.884L32.8767 143.003Z" stroke="black" stroke-opacity="0.2" stroke-width="4" mask="url(#path-1-inside-1_8892_6813)"/>
<path d="M32.8767 143.003L31.2561 140.17L26.416 138.853L21.2017 139.635L20.6228 138.232L17.0035 135.913L15.6369 134.878L14.5992 132.437L15.1112 130.006L15.2057 126.719L15.0186 124.632L14.9241 121.825L14.294 119.322L10.7003 115.511L9.4952 113.79L8.69178 111.151L8.43383 108.535L7.78007 105.708L6.93925 103.67L4.73382 100.867L3.70593 98.6901L3.42631 95.5321L2.55595 92.6454L1.23858 89.3185L0 87.9252L7.49848 86.1664L13.2169 82.2145L19.8174 77.8245L26.416 75.6294L32.5755 76.0676L36.9745 80.4597L40.9364 82.2145L49.2954 83.091L53.6945 84.4096L61.6144 86.6066L67.7738 87.0428L68.1696 85.8598L68.6087 85.6653L69.9733 81.7763L71.2927 75.1893L75.6917 73.4324L77.8912 69.9208L79.8249 69.7596L82.7314 68.1639L86.6913 61.5789L91.0904 55.432L95.4914 52.3585L101.21 47.5282L107.96 41.3539L109.019 41.2772L110.723 40.9884L115.728 36.9894L121.007 33.0395L125.409 29.5278L130.688 29.966L132.828 31.713L133.624 31.5067L135.528 34.358L139.488 37.4296L143.887 34.358L145.519 31.9115L147.014 32.0668L148.286 29.5278L150.927 28.2112L155.326 25.1358L160.605 24.6976L163.244 22.0623L166.323 18.5506L168.084 12.4038L172.483 7.57351L177.323 1.86485L179.194 0L179.524 3.62168L183.043 8.45195L187.442 11.5234L189.203 17.234L191.841 22.5005L191.339 29.7931L191.792 30.9997L193.413 35.4959L196.681 36.9894L198.442 43.5764L198.881 51.0419L204.16 58.0652L208.12 61.1406L213.841 62.0171L213.399 68.6021L211.2 73.4324L210.32 79.1411L212.519 84.8497L216.479 88.8016L218.679 90.1182L220 93.6299L219.561 97.5798L216.973 98.8728L217.243 99.2089L216.845 100.997L214.112 101.988L211.545 102.813L206.76 105.285L200.899 111.08L198.282 114.118L197.233 115.511L191.511 120.436L188.165 121.955L184.53 121.639L181.683 121.709L177.835 122.095L174.243 119.534L167.645 116.461L161.485 113.387L151.366 108.119L147.254 108.392L146.098 107.851L142.871 107.763L140.366 106.802L134.648 107.68L127.608 111.192L124.087 113.387L122.569 116.042L120.673 116.736L118.371 117.361L116.118 117.42L112.243 117.066L110.453 117.233L107.81 114.268L104.29 110.314H102.09L96.3716 113.387L87.1324 116.901L81.8512 119.534L75.2526 120.851L69.0931 122.169L65.1332 119.096L60.7341 118.656L57.6544 121.291L55.0138 122.169L54.0765 125.353H54.0686L54.5747 130.073L61.6144 129.633L62.4926 133.585L60.7341 137.975L54.5747 140.61L48.4152 139.732L44.0161 144.122L38.2958 145L35.0703 142.701L33.7451 142.884L32.8767 143.003Z" stroke="black" stroke-opacity="0.2" stroke-width="4" mask="url(#path-1-inside-1_8892_6813)"/>
<path d="M32.8767 143.003L31.2561 140.17L26.416 138.853L21.2017 139.635L20.6228 138.232L17.0035 135.913L15.6369 134.878L14.5992 132.437L15.1112 130.006L15.2057 126.719L15.0186 124.632L14.9241 121.825L14.294 119.322L10.7003 115.511L9.4952 113.79L8.69178 111.151L8.43383 108.535L7.78007 105.708L6.93925 103.67L4.73382 100.867L3.70593 98.6901L3.42631 95.5321L2.55595 92.6454L1.23858 89.3185L0 87.9252L7.49848 86.1664L13.2169 82.2145L19.8174 77.8245L26.416 75.6294L32.5755 76.0676L36.9745 80.4597L40.9364 82.2145L49.2954 83.091L53.6945 84.4096L61.6144 86.6066L67.7738 87.0428L68.1696 85.8598L68.6087 85.6653L69.9733 81.7763L71.2927 75.1893L75.6917 73.4324L77.8912 69.9208L79.8249 69.7596L82.7314 68.1639L86.6913 61.5789L91.0904 55.432L95.4914 52.3585L101.21 47.5282L107.96 41.3539L109.019 41.2772L110.723 40.9884L115.728 36.9894L121.007 33.0395L125.409 29.5278L130.688 29.966L132.828 31.713L133.624 31.5067L135.528 34.358L139.488 37.4296L143.887 34.358L145.519 31.9115L147.014 32.0668L148.286 29.5278L150.927 28.2112L155.326 25.1358L160.605 24.6976L163.244 22.0623L166.323 18.5506L168.084 12.4038L172.483 7.57351L177.323 1.86485L179.194 0L179.524 3.62168L183.043 8.45195L187.442 11.5234L189.203 17.234L191.841 22.5005L191.339 29.7931L191.792 30.9997L193.413 35.4959L196.681 36.9894L198.442 43.5764L198.881 51.0419L204.16 58.0652L208.12 61.1406L213.841 62.0171L213.399 68.6021L211.2 73.4324L210.32 79.1411L212.519 84.8497L216.479 88.8016L218.679 90.1182L220 93.6299L219.561 97.5798L216.973 98.8728L217.243 99.2089L216.845 100.997L214.112 101.988L211.545 102.813L206.76 105.285L200.899 111.08L198.282 114.118L197.233 115.511L191.511 120.436L188.165 121.955L184.53 121.639L181.683 121.709L177.835 122.095L174.243 119.534L167.645 116.461L161.485 113.387L151.366 108.119L147.254 108.392L146.098 107.851L142.871 107.763L140.366 106.802L134.648 107.68L127.608 111.192L124.087 113.387L122.569 116.042L120.673 116.736L118.371 117.361L116.118 117.42L112.243 117.066L110.453 117.233L107.81 114.268L104.29 110.314H102.09L96.3716 113.387L87.1324 116.901L81.8512 119.534L75.2526 120.851L69.0931 122.169L65.1332 119.096L60.7341 118.656L57.6544 121.291L55.0138 122.169L54.0765 125.353H54.0686L54.5747 130.073L61.6144 129.633L62.4926 133.585L60.7341 137.975L54.5747 140.61L48.4152 139.732L44.0161 144.122L38.2958 145L35.0703 142.701L33.7451 142.884L32.8767 143.003Z" stroke="black" stroke-opacity="0.2" stroke-width="4" mask="url(#path-1-inside-1_8892_6813)"/>
<path d="M32.8767 143.003L31.2561 140.17L26.416 138.853L21.2017 139.635L20.6228 138.232L17.0035 135.913L15.6369 134.878L14.5992 132.437L15.1112 130.006L15.2057 126.719L15.0186 124.632L14.9241 121.825L14.294 119.322L10.7003 115.511L9.4952 113.79L8.69178 111.151L8.43383 108.535L7.78007 105.708L6.93925 103.67L4.73382 100.867L3.70593 98.6901L3.42631 95.5321L2.55595 92.6454L1.23858 89.3185L0 87.9252L7.49848 86.1664L13.2169 82.2145L19.8174 77.8245L26.416 75.6294L32.5755 76.0676L36.9745 80.4597L40.9364 82.2145L49.2954 83.091L53.6945 84.4096L61.6144 86.6066L67.7738 87.0428L68.1696 85.8598L68.6087 85.6653L69.9733 81.7763L71.2927 75.1893L75.6917 73.4324L77.8912 69.9208L79.8249 69.7596L82.7314 68.1639L86.6913 61.5789L91.0904 55.432L95.4914 52.3585L101.21 47.5282L107.96 41.3539L109.019 41.2772L110.723 40.9884L115.728 36.9894L121.007 33.0395L125.409 29.5278L130.688 29.966L132.828 31.713L133.624 31.5067L135.528 34.358L139.488 37.4296L143.887 34.358L145.519 31.9115L147.014 32.0668L148.286 29.5278L150.927 28.2112L155.326 25.1358L160.605 24.6976L163.244 22.0623L166.323 18.5506L168.084 12.4038L172.483 7.57351L177.323 1.86485L179.194 0L179.524 3.62168L183.043 8.45195L187.442 11.5234L189.203 17.234L191.841 22.5005L191.339 29.7931L191.792 30.9997L193.413 35.4959L196.681 36.9894L198.442 43.5764L198.881 51.0419L204.16 58.0652L208.12 61.1406L213.841 62.0171L213.399 68.6021L211.2 73.4324L210.32 79.1411L212.519 84.8497L216.479 88.8016L218.679 90.1182L220 93.6299L219.561 97.5798L216.973 98.8728L217.243 99.2089L216.845 100.997L214.112 101.988L211.545 102.813L206.76 105.285L200.899 111.08L198.282 114.118L197.233 115.511L191.511 120.436L188.165 121.955L184.53 121.639L181.683 121.709L177.835 122.095L174.243 119.534L167.645 116.461L161.485 113.387L151.366 108.119L147.254 108.392L146.098 107.851L142.871 107.763L140.366 106.802L134.648 107.68L127.608 111.192L124.087 113.387L122.569 116.042L120.673 116.736L118.371 117.361L116.118 117.42L112.243 117.066L110.453 117.233L107.81 114.268L104.29 110.314H102.09L96.3716 113.387L87.1324 116.901L81.8512 119.534L75.2526 120.851L69.0931 122.169L65.1332 119.096L60.7341 118.656L57.6544 121.291L55.0138 122.169L54.0765 125.353H54.0686L54.5747 130.073L61.6144 129.633L62.4926 133.585L60.7341 137.975L54.5747 140.61L48.4152 139.732L44.0161 144.122L38.2958 145L35.0703 142.701L33.7451 142.884L32.8767 143.003Z" stroke="black" stroke-opacity="0.2" stroke-width="4" mask="url(#path-1-inside-1_8892_6813)"/>
</svg>
