<svg width="220" height="249" viewBox="0 0 220 249" fill="none" xmlns="http://www.w3.org/2000/svg">
<rect width="220" height="249" fill="white"/>
<path d="M37.0835 191.485L35.5513 188.8L30.9751 187.553L26.0453 188.294L25.4979 186.965L22.076 184.768L20.784 183.787L19.8029 181.474L20.2869 179.171L20.3763 176.056L20.1994 174.079L20.11 171.421L19.5143 169.049L16.1167 165.439L14.9773 163.808L14.2177 161.307L13.9738 158.829L13.3557 156.15L12.5607 154.219L10.4756 151.564L9.50378 149.502L9.23942 146.51L8.41653 143.775L7.17102 140.623L6 139.303L13.0895 137.636L18.4959 133.892L24.7364 129.733L30.9751 127.653L36.7986 128.068L40.9577 132.23L44.7035 133.892L52.6066 134.723L56.7657 135.972L64.2536 138.053L70.077 138.467L70.4513 137.346L70.8664 137.161L72.1566 133.477L73.404 127.236L77.5631 125.572L79.6426 122.245L81.4708 122.092L84.2188 120.58L87.9627 114.341L92.1218 108.518L96.2828 105.606L101.689 101.029L108.071 95.1797L109.073 95.1071L110.683 94.8335L115.416 91.0447L120.407 87.3025L124.568 83.9754L129.559 84.3906L131.583 86.0458L132.335 85.8502L134.135 88.5517L137.879 91.4617L142.039 88.5517L143.582 86.2338L144.995 86.3809L146.198 83.9754L148.694 82.728L152.853 79.8143L157.845 79.3991L160.339 76.9024L163.251 73.5754L164.915 67.7517L169.075 63.1753L173.651 57.7668L175.419 56L175.732 59.4313L179.059 64.0076L183.218 66.9176L184.883 72.328L187.377 77.3176L186.903 84.2267L187.331 85.3699L188.863 89.6297L191.953 91.0447L193.618 97.2854L194.033 104.358L199.024 111.012L202.768 113.926L208.177 114.757L207.759 120.995L205.68 125.572L204.848 130.98L206.927 136.389L210.671 140.133L212.751 141.38L214 144.707L213.585 148.45L211.139 149.675L211.394 149.993L211.018 151.687L208.433 152.626L206.006 153.408L201.482 155.75L195.941 161.24L193.467 164.119L192.475 165.439L187.065 170.104L183.901 171.543L180.465 171.244L177.773 171.311L174.135 171.676L170.739 169.25L164.5 166.338L158.677 163.426L149.109 158.434L145.222 158.693L144.129 158.181L141.078 158.097L138.71 157.187L133.303 158.019L126.648 161.346L123.319 163.426L121.883 165.941L120.091 166.598L117.914 167.19L115.784 167.246L112.121 166.911L110.428 167.069L107.93 164.26L104.601 160.514H102.521L97.115 163.426L88.3797 166.755L83.3866 169.25L77.1479 170.497L71.3244 171.746L67.5805 168.834L63.4214 168.417L60.5096 170.914L58.013 171.746L57.1269 174.762H57.1194L57.5979 179.234L64.2536 178.817L65.0839 182.562L63.4214 186.721L57.5979 189.217L51.7744 188.385L47.6153 192.545L42.2069 193.377L39.1574 191.198L37.9045 191.372L37.0835 191.485Z" fill="#E9ECF2" stroke="#8F959D" stroke-width="2"/>
</svg>
