<svg width="220" height="234" viewBox="0 0 220 234" fill="none" xmlns="http://www.w3.org/2000/svg">
<mask id="path-1-inside-1_8891_6805" fill="white">
<path d="M26.7874 205.687L25.0792 202.504L22.291 196.127L23.8846 189.747L27.8649 184.964L34.6311 185.361L39.4071 183.768L41.3041 179.97L41.3662 179.987L42.6062 179.867L43.3898 177.388L46.1756 174.995L49.3604 166.225L48.5624 155.859L44.582 146.689L37.0203 134.729L29.8551 130.343L21.4954 126.356L12.7391 119.18L13.5347 113.597L17.116 107.617L20.0762 106.038L21.4572 98.8855L24.0566 97.6627L27.8554 98.1006L29.7237 97.5191L26.2714 94.0613L22.291 86.885L11.9435 78.9117L0 65.7554L0.398992 56.5857L3.58376 39.8423L6.36954 26.686L10.2257 21.455L11.4943 18.1121L13.4057 15.1162L27.7216 1.97657L30.72 0L32.9849 6.80789L39.591 12.2207H53.1042L67.8167 11.3162L75.9232 8.31067L76.8072 5.94885L78.04 5.73349L83.9891 0.492965L85.5325 3.19695L87.6349 5.90576L93.6389 13.1229L96.0424 18.8348L96.6445 23.2138L92.7143 29.0646L92.5853 31.9121L94.37 34.4941L99.8818 37.5308L101.836 38.2391L105.093 36.911L107.587 35.5805L114.926 29.9834L118.58 26.6214L120.498 24.5467L123.367 24.25L129.07 25.4536L134.477 29.0598L143.785 32.6707L152.193 35.6762L157.296 40.1893L160.225 38.1194L160.471 38.2606L163.721 38.5789L167.144 37.4949L170.508 38.6841L181.018 38.9857L186.592 40.6918L188.666 42.5368L190.649 48.6794L191.101 52.6732L197.59 67.5333L198.266 70.692L206.37 79.7253L214.514 87.7177L220 87.6435L217.845 89.656L211.894 96.2748L203.488 108.438L206.993 120.841L210.634 125.863L211.215 142.738L208.993 142.427L202.831 149.946L200.803 166.254L202.831 174.873L204.26 177.579L206.031 179.35L207.022 181.15L208.071 184.337L199.826 190.855L197.645 192.157L196.137 188.898L188.819 186.122L185.768 186.838L185.347 186.929L182.521 183.567L180.041 179.056L177.341 177.024L173.736 175.897L169.557 174.036L167.574 168.202L162.643 159.051L151.216 149.903L148.805 148.103L146.851 146.902L145.646 148.955L145.792 151.183L144.01 153.794L143.334 161.913L141.308 165.521L135.003 173.418L130.272 177.024L124.643 181.537L122.768 183.296L113.536 186.151L109.924 187.68L108.067 188.984L105.771 191.167L101.38 196.113L95.6984 203.325L93.2423 208.13L92.1959 212.1L88.6336 217.785L83.3081 225.639L80.6729 229.24L79.6264 229.949L79.0029 229.554L74.4371 230.413L66.4764 234L58.1167 228.42L48.9614 220.844L43.7864 216.857L42.0471 213.081L32.5692 209.109L26.7874 205.687Z"/>
</mask>
<path d="M26.7874 205.687L25.0792 202.504L22.291 196.127L23.8846 189.747L27.8649 184.964L34.6311 185.361L39.4071 183.768L41.3041 179.97L41.3662 179.987L42.6062 179.867L43.3898 177.388L46.1756 174.995L49.3604 166.225L48.5624 155.859L44.582 146.689L37.0203 134.729L29.8551 130.343L21.4954 126.356L12.7391 119.18L13.5347 113.597L17.116 107.617L20.0762 106.038L21.4572 98.8855L24.0566 97.6627L27.8554 98.1006L29.7237 97.5191L26.2714 94.0613L22.291 86.885L11.9435 78.9117L0 65.7554L0.398992 56.5857L3.58376 39.8423L6.36954 26.686L10.2257 21.455L11.4943 18.1121L13.4057 15.1162L27.7216 1.97657L30.72 0L32.9849 6.80789L39.591 12.2207H53.1042L67.8167 11.3162L75.9232 8.31067L76.8072 5.94885L78.04 5.73349L83.9891 0.492965L85.5325 3.19695L87.6349 5.90576L93.6389 13.1229L96.0424 18.8348L96.6445 23.2138L92.7143 29.0646L92.5853 31.9121L94.37 34.4941L99.8818 37.5308L101.836 38.2391L105.093 36.911L107.587 35.5805L114.926 29.9834L118.58 26.6214L120.498 24.5467L123.367 24.25L129.07 25.4536L134.477 29.0598L143.785 32.6707L152.193 35.6762L157.296 40.1893L160.225 38.1194L160.471 38.2606L163.721 38.5789L167.144 37.4949L170.508 38.6841L181.018 38.9857L186.592 40.6918L188.666 42.5368L190.649 48.6794L191.101 52.6732L197.59 67.5333L198.266 70.692L206.37 79.7253L214.514 87.7177L220 87.6435L217.845 89.656L211.894 96.2748L203.488 108.438L206.993 120.841L210.634 125.863L211.215 142.738L208.993 142.427L202.831 149.946L200.803 166.254L202.831 174.873L204.26 177.579L206.031 179.35L207.022 181.15L208.071 184.337L199.826 190.855L197.645 192.157L196.137 188.898L188.819 186.122L185.768 186.838L185.347 186.929L182.521 183.567L180.041 179.056L177.341 177.024L173.736 175.897L169.557 174.036L167.574 168.202L162.643 159.051L151.216 149.903L148.805 148.103L146.851 146.902L145.646 148.955L145.792 151.183L144.01 153.794L143.334 161.913L141.308 165.521L135.003 173.418L130.272 177.024L124.643 181.537L122.768 183.296L113.536 186.151L109.924 187.68L108.067 188.984L105.771 191.167L101.38 196.113L95.6984 203.325L93.2423 208.13L92.1959 212.1L88.6336 217.785L83.3081 225.639L80.6729 229.24L79.6264 229.949L79.0029 229.554L74.4371 230.413L66.4764 234L58.1167 228.42L48.9614 220.844L43.7864 216.857L42.0471 213.081L32.5692 209.109L26.7874 205.687Z" fill="#E9ECF2"/>
<path d="M26.7874 205.687L25.0792 202.504L22.291 196.127L23.8846 189.747L27.8649 184.964L34.6311 185.361L39.4071 183.768L41.3041 179.97L41.3662 179.987L42.6062 179.867L43.3898 177.388L46.1756 174.995L49.3604 166.225L48.5624 155.859L44.582 146.689L37.0203 134.729L29.8551 130.343L21.4954 126.356L12.7391 119.18L13.5347 113.597L17.116 107.617L20.0762 106.038L21.4572 98.8855L24.0566 97.6627L27.8554 98.1006L29.7237 97.5191L26.2714 94.0613L22.291 86.885L11.9435 78.9117L0 65.7554L0.398992 56.5857L3.58376 39.8423L6.36954 26.686L10.2257 21.455L11.4943 18.1121L13.4057 15.1162L27.7216 1.97657L30.72 0L32.9849 6.80789L39.591 12.2207H53.1042L67.8167 11.3162L75.9232 8.31067L76.8072 5.94885L78.04 5.73349L83.9891 0.492965L85.5325 3.19695L87.6349 5.90576L93.6389 13.1229L96.0424 18.8348L96.6445 23.2138L92.7143 29.0646L92.5853 31.9121L94.37 34.4941L99.8818 37.5308L101.836 38.2391L105.093 36.911L107.587 35.5805L114.926 29.9834L118.58 26.6214L120.498 24.5467L123.367 24.25L129.07 25.4536L134.477 29.0598L143.785 32.6707L152.193 35.6762L157.296 40.1893L160.225 38.1194L160.471 38.2606L163.721 38.5789L167.144 37.4949L170.508 38.6841L181.018 38.9857L186.592 40.6918L188.666 42.5368L190.649 48.6794L191.101 52.6732L197.59 67.5333L198.266 70.692L206.37 79.7253L214.514 87.7177L220 87.6435L217.845 89.656L211.894 96.2748L203.488 108.438L206.993 120.841L210.634 125.863L211.215 142.738L208.993 142.427L202.831 149.946L200.803 166.254L202.831 174.873L204.26 177.579L206.031 179.35L207.022 181.15L208.071 184.337L199.826 190.855L197.645 192.157L196.137 188.898L188.819 186.122L185.768 186.838L185.347 186.929L182.521 183.567L180.041 179.056L177.341 177.024L173.736 175.897L169.557 174.036L167.574 168.202L162.643 159.051L151.216 149.903L148.805 148.103L146.851 146.902L145.646 148.955L145.792 151.183L144.01 153.794L143.334 161.913L141.308 165.521L135.003 173.418L130.272 177.024L124.643 181.537L122.768 183.296L113.536 186.151L109.924 187.68L108.067 188.984L105.771 191.167L101.38 196.113L95.6984 203.325L93.2423 208.13L92.1959 212.1L88.6336 217.785L83.3081 225.639L80.6729 229.24L79.6264 229.949L79.0029 229.554L74.4371 230.413L66.4764 234L58.1167 228.42L48.9614 220.844L43.7864 216.857L42.0471 213.081L32.5692 209.109L26.7874 205.687Z" stroke="#8F959D" stroke-width="4" mask="url(#path-1-inside-1_8891_6805)"/>
<path d="M26.7874 205.687L25.0792 202.504L22.291 196.127L23.8846 189.747L27.8649 184.964L34.6311 185.361L39.4071 183.768L41.3041 179.97L41.3662 179.987L42.6062 179.867L43.3898 177.388L46.1756 174.995L49.3604 166.225L48.5624 155.859L44.582 146.689L37.0203 134.729L29.8551 130.343L21.4954 126.356L12.7391 119.18L13.5347 113.597L17.116 107.617L20.0762 106.038L21.4572 98.8855L24.0566 97.6627L27.8554 98.1006L29.7237 97.5191L26.2714 94.0613L22.291 86.885L11.9435 78.9117L0 65.7554L0.398992 56.5857L3.58376 39.8423L6.36954 26.686L10.2257 21.455L11.4943 18.1121L13.4057 15.1162L27.7216 1.97657L30.72 0L32.9849 6.80789L39.591 12.2207H53.1042L67.8167 11.3162L75.9232 8.31067L76.8072 5.94885L78.04 5.73349L83.9891 0.492965L85.5325 3.19695L87.6349 5.90576L93.6389 13.1229L96.0424 18.8348L96.6445 23.2138L92.7143 29.0646L92.5853 31.9121L94.37 34.4941L99.8818 37.5308L101.836 38.2391L105.093 36.911L107.587 35.5805L114.926 29.9834L118.58 26.6214L120.498 24.5467L123.367 24.25L129.07 25.4536L134.477 29.0598L143.785 32.6707L152.193 35.6762L157.296 40.1893L160.225 38.1194L160.471 38.2606L163.721 38.5789L167.144 37.4949L170.508 38.6841L181.018 38.9857L186.592 40.6918L188.666 42.5368L190.649 48.6794L191.101 52.6732L197.59 67.5333L198.266 70.692L206.37 79.7253L214.514 87.7177L220 87.6435L217.845 89.656L211.894 96.2748L203.488 108.438L206.993 120.841L210.634 125.863L211.215 142.738L208.993 142.427L202.831 149.946L200.803 166.254L202.831 174.873L204.26 177.579L206.031 179.35L207.022 181.15L208.071 184.337L199.826 190.855L197.645 192.157L196.137 188.898L188.819 186.122L185.768 186.838L185.347 186.929L182.521 183.567L180.041 179.056L177.341 177.024L173.736 175.897L169.557 174.036L167.574 168.202L162.643 159.051L151.216 149.903L148.805 148.103L146.851 146.902L145.646 148.955L145.792 151.183L144.01 153.794L143.334 161.913L141.308 165.521L135.003 173.418L130.272 177.024L124.643 181.537L122.768 183.296L113.536 186.151L109.924 187.68L108.067 188.984L105.771 191.167L101.38 196.113L95.6984 203.325L93.2423 208.13L92.1959 212.1L88.6336 217.785L83.3081 225.639L80.6729 229.24L79.6264 229.949L79.0029 229.554L74.4371 230.413L66.4764 234L58.1167 228.42L48.9614 220.844L43.7864 216.857L42.0471 213.081L32.5692 209.109L26.7874 205.687Z" stroke="black" stroke-opacity="0.2" stroke-width="4" mask="url(#path-1-inside-1_8891_6805)"/>
<path d="M26.7874 205.687L25.0792 202.504L22.291 196.127L23.8846 189.747L27.8649 184.964L34.6311 185.361L39.4071 183.768L41.3041 179.97L41.3662 179.987L42.6062 179.867L43.3898 177.388L46.1756 174.995L49.3604 166.225L48.5624 155.859L44.582 146.689L37.0203 134.729L29.8551 130.343L21.4954 126.356L12.7391 119.18L13.5347 113.597L17.116 107.617L20.0762 106.038L21.4572 98.8855L24.0566 97.6627L27.8554 98.1006L29.7237 97.5191L26.2714 94.0613L22.291 86.885L11.9435 78.9117L0 65.7554L0.398992 56.5857L3.58376 39.8423L6.36954 26.686L10.2257 21.455L11.4943 18.1121L13.4057 15.1162L27.7216 1.97657L30.72 0L32.9849 6.80789L39.591 12.2207H53.1042L67.8167 11.3162L75.9232 8.31067L76.8072 5.94885L78.04 5.73349L83.9891 0.492965L85.5325 3.19695L87.6349 5.90576L93.6389 13.1229L96.0424 18.8348L96.6445 23.2138L92.7143 29.0646L92.5853 31.9121L94.37 34.4941L99.8818 37.5308L101.836 38.2391L105.093 36.911L107.587 35.5805L114.926 29.9834L118.58 26.6214L120.498 24.5467L123.367 24.25L129.07 25.4536L134.477 29.0598L143.785 32.6707L152.193 35.6762L157.296 40.1893L160.225 38.1194L160.471 38.2606L163.721 38.5789L167.144 37.4949L170.508 38.6841L181.018 38.9857L186.592 40.6918L188.666 42.5368L190.649 48.6794L191.101 52.6732L197.59 67.5333L198.266 70.692L206.37 79.7253L214.514 87.7177L220 87.6435L217.845 89.656L211.894 96.2748L203.488 108.438L206.993 120.841L210.634 125.863L211.215 142.738L208.993 142.427L202.831 149.946L200.803 166.254L202.831 174.873L204.26 177.579L206.031 179.35L207.022 181.15L208.071 184.337L199.826 190.855L197.645 192.157L196.137 188.898L188.819 186.122L185.768 186.838L185.347 186.929L182.521 183.567L180.041 179.056L177.341 177.024L173.736 175.897L169.557 174.036L167.574 168.202L162.643 159.051L151.216 149.903L148.805 148.103L146.851 146.902L145.646 148.955L145.792 151.183L144.01 153.794L143.334 161.913L141.308 165.521L135.003 173.418L130.272 177.024L124.643 181.537L122.768 183.296L113.536 186.151L109.924 187.68L108.067 188.984L105.771 191.167L101.38 196.113L95.6984 203.325L93.2423 208.13L92.1959 212.1L88.6336 217.785L83.3081 225.639L80.6729 229.24L79.6264 229.949L79.0029 229.554L74.4371 230.413L66.4764 234L58.1167 228.42L48.9614 220.844L43.7864 216.857L42.0471 213.081L32.5692 209.109L26.7874 205.687Z" stroke="black" stroke-opacity="0.2" stroke-width="4" mask="url(#path-1-inside-1_8891_6805)"/>
<path d="M26.7874 205.687L25.0792 202.504L22.291 196.127L23.8846 189.747L27.8649 184.964L34.6311 185.361L39.4071 183.768L41.3041 179.97L41.3662 179.987L42.6062 179.867L43.3898 177.388L46.1756 174.995L49.3604 166.225L48.5624 155.859L44.582 146.689L37.0203 134.729L29.8551 130.343L21.4954 126.356L12.7391 119.18L13.5347 113.597L17.116 107.617L20.0762 106.038L21.4572 98.8855L24.0566 97.6627L27.8554 98.1006L29.7237 97.5191L26.2714 94.0613L22.291 86.885L11.9435 78.9117L0 65.7554L0.398992 56.5857L3.58376 39.8423L6.36954 26.686L10.2257 21.455L11.4943 18.1121L13.4057 15.1162L27.7216 1.97657L30.72 0L32.9849 6.80789L39.591 12.2207H53.1042L67.8167 11.3162L75.9232 8.31067L76.8072 5.94885L78.04 5.73349L83.9891 0.492965L85.5325 3.19695L87.6349 5.90576L93.6389 13.1229L96.0424 18.8348L96.6445 23.2138L92.7143 29.0646L92.5853 31.9121L94.37 34.4941L99.8818 37.5308L101.836 38.2391L105.093 36.911L107.587 35.5805L114.926 29.9834L118.58 26.6214L120.498 24.5467L123.367 24.25L129.07 25.4536L134.477 29.0598L143.785 32.6707L152.193 35.6762L157.296 40.1893L160.225 38.1194L160.471 38.2606L163.721 38.5789L167.144 37.4949L170.508 38.6841L181.018 38.9857L186.592 40.6918L188.666 42.5368L190.649 48.6794L191.101 52.6732L197.59 67.5333L198.266 70.692L206.37 79.7253L214.514 87.7177L220 87.6435L217.845 89.656L211.894 96.2748L203.488 108.438L206.993 120.841L210.634 125.863L211.215 142.738L208.993 142.427L202.831 149.946L200.803 166.254L202.831 174.873L204.26 177.579L206.031 179.35L207.022 181.15L208.071 184.337L199.826 190.855L197.645 192.157L196.137 188.898L188.819 186.122L185.768 186.838L185.347 186.929L182.521 183.567L180.041 179.056L177.341 177.024L173.736 175.897L169.557 174.036L167.574 168.202L162.643 159.051L151.216 149.903L148.805 148.103L146.851 146.902L145.646 148.955L145.792 151.183L144.01 153.794L143.334 161.913L141.308 165.521L135.003 173.418L130.272 177.024L124.643 181.537L122.768 183.296L113.536 186.151L109.924 187.68L108.067 188.984L105.771 191.167L101.38 196.113L95.6984 203.325L93.2423 208.13L92.1959 212.1L88.6336 217.785L83.3081 225.639L80.6729 229.24L79.6264 229.949L79.0029 229.554L74.4371 230.413L66.4764 234L58.1167 228.42L48.9614 220.844L43.7864 216.857L42.0471 213.081L32.5692 209.109L26.7874 205.687Z" stroke="black" stroke-opacity="0.2" stroke-width="4" mask="url(#path-1-inside-1_8891_6805)"/>
<path d="M26.7874 205.687L25.0792 202.504L22.291 196.127L23.8846 189.747L27.8649 184.964L34.6311 185.361L39.4071 183.768L41.3041 179.97L41.3662 179.987L42.6062 179.867L43.3898 177.388L46.1756 174.995L49.3604 166.225L48.5624 155.859L44.582 146.689L37.0203 134.729L29.8551 130.343L21.4954 126.356L12.7391 119.18L13.5347 113.597L17.116 107.617L20.0762 106.038L21.4572 98.8855L24.0566 97.6627L27.8554 98.1006L29.7237 97.5191L26.2714 94.0613L22.291 86.885L11.9435 78.9117L0 65.7554L0.398992 56.5857L3.58376 39.8423L6.36954 26.686L10.2257 21.455L11.4943 18.1121L13.4057 15.1162L27.7216 1.97657L30.72 0L32.9849 6.80789L39.591 12.2207H53.1042L67.8167 11.3162L75.9232 8.31067L76.8072 5.94885L78.04 5.73349L83.9891 0.492965L85.5325 3.19695L87.6349 5.90576L93.6389 13.1229L96.0424 18.8348L96.6445 23.2138L92.7143 29.0646L92.5853 31.9121L94.37 34.4941L99.8818 37.5308L101.836 38.2391L105.093 36.911L107.587 35.5805L114.926 29.9834L118.58 26.6214L120.498 24.5467L123.367 24.25L129.07 25.4536L134.477 29.0598L143.785 32.6707L152.193 35.6762L157.296 40.1893L160.225 38.1194L160.471 38.2606L163.721 38.5789L167.144 37.4949L170.508 38.6841L181.018 38.9857L186.592 40.6918L188.666 42.5368L190.649 48.6794L191.101 52.6732L197.59 67.5333L198.266 70.692L206.37 79.7253L214.514 87.7177L220 87.6435L217.845 89.656L211.894 96.2748L203.488 108.438L206.993 120.841L210.634 125.863L211.215 142.738L208.993 142.427L202.831 149.946L200.803 166.254L202.831 174.873L204.26 177.579L206.031 179.35L207.022 181.15L208.071 184.337L199.826 190.855L197.645 192.157L196.137 188.898L188.819 186.122L185.768 186.838L185.347 186.929L182.521 183.567L180.041 179.056L177.341 177.024L173.736 175.897L169.557 174.036L167.574 168.202L162.643 159.051L151.216 149.903L148.805 148.103L146.851 146.902L145.646 148.955L145.792 151.183L144.01 153.794L143.334 161.913L141.308 165.521L135.003 173.418L130.272 177.024L124.643 181.537L122.768 183.296L113.536 186.151L109.924 187.68L108.067 188.984L105.771 191.167L101.38 196.113L95.6984 203.325L93.2423 208.13L92.1959 212.1L88.6336 217.785L83.3081 225.639L80.6729 229.24L79.6264 229.949L79.0029 229.554L74.4371 230.413L66.4764 234L58.1167 228.42L48.9614 220.844L43.7864 216.857L42.0471 213.081L32.5692 209.109L26.7874 205.687Z" stroke="black" stroke-opacity="0.2" stroke-width="4" mask="url(#path-1-inside-1_8891_6805)"/>
<path d="M26.7874 205.687L25.0792 202.504L22.291 196.127L23.8846 189.747L27.8649 184.964L34.6311 185.361L39.4071 183.768L41.3041 179.97L41.3662 179.987L42.6062 179.867L43.3898 177.388L46.1756 174.995L49.3604 166.225L48.5624 155.859L44.582 146.689L37.0203 134.729L29.8551 130.343L21.4954 126.356L12.7391 119.18L13.5347 113.597L17.116 107.617L20.0762 106.038L21.4572 98.8855L24.0566 97.6627L27.8554 98.1006L29.7237 97.5191L26.2714 94.0613L22.291 86.885L11.9435 78.9117L0 65.7554L0.398992 56.5857L3.58376 39.8423L6.36954 26.686L10.2257 21.455L11.4943 18.1121L13.4057 15.1162L27.7216 1.97657L30.72 0L32.9849 6.80789L39.591 12.2207H53.1042L67.8167 11.3162L75.9232 8.31067L76.8072 5.94885L78.04 5.73349L83.9891 0.492965L85.5325 3.19695L87.6349 5.90576L93.6389 13.1229L96.0424 18.8348L96.6445 23.2138L92.7143 29.0646L92.5853 31.9121L94.37 34.4941L99.8818 37.5308L101.836 38.2391L105.093 36.911L107.587 35.5805L114.926 29.9834L118.58 26.6214L120.498 24.5467L123.367 24.25L129.07 25.4536L134.477 29.0598L143.785 32.6707L152.193 35.6762L157.296 40.1893L160.225 38.1194L160.471 38.2606L163.721 38.5789L167.144 37.4949L170.508 38.6841L181.018 38.9857L186.592 40.6918L188.666 42.5368L190.649 48.6794L191.101 52.6732L197.59 67.5333L198.266 70.692L206.37 79.7253L214.514 87.7177L220 87.6435L217.845 89.656L211.894 96.2748L203.488 108.438L206.993 120.841L210.634 125.863L211.215 142.738L208.993 142.427L202.831 149.946L200.803 166.254L202.831 174.873L204.26 177.579L206.031 179.35L207.022 181.15L208.071 184.337L199.826 190.855L197.645 192.157L196.137 188.898L188.819 186.122L185.768 186.838L185.347 186.929L182.521 183.567L180.041 179.056L177.341 177.024L173.736 175.897L169.557 174.036L167.574 168.202L162.643 159.051L151.216 149.903L148.805 148.103L146.851 146.902L145.646 148.955L145.792 151.183L144.01 153.794L143.334 161.913L141.308 165.521L135.003 173.418L130.272 177.024L124.643 181.537L122.768 183.296L113.536 186.151L109.924 187.68L108.067 188.984L105.771 191.167L101.38 196.113L95.6984 203.325L93.2423 208.13L92.1959 212.1L88.6336 217.785L83.3081 225.639L80.6729 229.24L79.6264 229.949L79.0029 229.554L74.4371 230.413L66.4764 234L58.1167 228.42L48.9614 220.844L43.7864 216.857L42.0471 213.081L32.5692 209.109L26.7874 205.687Z" stroke="black" stroke-opacity="0.2" stroke-width="4" mask="url(#path-1-inside-1_8891_6805)"/>
</svg>
