<svg width="125" height="249" viewBox="0 0 125 249" fill="none" xmlns="http://www.w3.org/2000/svg">
<mask id="path-1-inside-1_8895_6829" fill="white">
<path d="M103.398 176.439L114.589 183.97L116.549 186.428L117.146 186.437L117.755 188.014L119.195 191.19V196.391L118.829 198.476L118.718 198.523L116.335 201.573L115.937 205.839L116.453 209.328L117.427 210.514L117.533 212.097L115.426 213.628L112.294 215.224L107.655 219.029L100.574 227.522L96.9303 234.784L95.8607 235.892L92.6147 237.317L88.977 239.2L85.6073 242.348L84.1718 244.07L82.1203 248.235L80.9773 248.584L79.0225 249L77.8924 248.952L72.1607 246.016L67.4869 243.584L62.2616 239.765L61.3286 238.722L55.6755 229.098L57.294 227.148L57.5827 222.527L57.785 218.252L62.3325 213.859L60.8184 212.201L57.6071 211.649L55.9281 210.941L52.1164 207.262L46.2713 201.001L45.7597 199.556L43.8178 193.633L43.8951 192.078L44.185 190.807L43.6361 185.779L41.1684 178.753L40.0989 177.343L31.7938 175.123L31.4446 175.224L30.5193 174.295L27.0633 174.005L22.7452 174.295L19.5791 174.854L19.3252 174.553L17.9503 173.673L16.4503 173.884L16.9877 172.034L17.2931 170.393L16.6591 169.103L14.5239 167.499L11.6258 162.654L12.033 160.414L13.466 158.108L13.7108 156.851L13.3126 155.687L12.5807 154.824L11.5034 153.954L10.1426 152.959L9.02799 151.741L7.43525 149.575L6.76518 143.804L6.87215 139.191L6.5835 136.631L9.17232 135.213L9.51637 130.488L9.49447 129.337L9.31019 127.585L8.96614 126.385L7.98808 124.988L7.45459 123.978L7.05643 117.836L7.37728 116.668L8.47776 115.028L9.21483 113.598L8.26383 107.698L5.71237 103.863L4.26013 103.493L2.93157 102.029L1.2577 99.4059L1.2654 99.1706L0 97.9012L1.44068 95.5911L5.18278 92.9903L6.62216 89.2364L7.4855 84.0372L10.6529 78.8393L12.3809 74.5062L13.2443 69.3084L14.109 63.821L12.9556 58.6205L13.2443 55.1561L13.8203 51.1126L18.4271 49.0896L22.4578 44.4695L24.1846 41.2921L28.2153 36.3812L32.8221 31.1834L38.2922 25.1181L38.5809 19.0528L39.1311 11.3239L42.6116 10.6776L50.6732 11.5424L57.8713 14.7198L64.2048 18.1868L75.2868 20.158L76.4646 20.7346L82.6306 20.2085L88.9641 18.7633L92.1315 15.2989L95.2989 13.855L101.056 11.5424L105.376 10.388L109.983 8.07799L115.453 6.05494L119.681 3.35581L124.3 0L123.601 5.61287L123.951 11.5772L125 14.0334L123.251 21.752L120.424 26.425L120.445 30.1208L120.346 33.1664L119.36 36.5117L116.944 40.7945L114.761 44.5044L117.435 49.2085L118.121 51.9374L119.581 59.1L120.362 60.2777L121.66 61.3132L122.671 62.0202L122.202 66.4851L123.251 70.3451L119.405 71.7477L116.607 73.8534L115.557 80.5198L112.06 84.73L108.561 88.5887L104.366 93.8512L100.868 98.7634L98.4199 104.026L98.5887 105.891L98.148 106.333L97.2356 115.647L101.988 122.157L107.336 126.653L108.818 128.311L110.673 130.575L110.341 132.099L108.872 132.604L107.434 132.51L103.456 136.221L99.9237 142.587L99.5835 143.318L95.5399 152.812L103.398 176.439Z"/>
</mask>
<path d="M103.398 176.439L114.589 183.97L116.549 186.428L117.146 186.437L117.755 188.014L119.195 191.19V196.391L118.829 198.476L118.718 198.523L116.335 201.573L115.937 205.839L116.453 209.328L117.427 210.514L117.533 212.097L115.426 213.628L112.294 215.224L107.655 219.029L100.574 227.522L96.9303 234.784L95.8607 235.892L92.6147 237.317L88.977 239.2L85.6073 242.348L84.1718 244.07L82.1203 248.235L80.9773 248.584L79.0225 249L77.8924 248.952L72.1607 246.016L67.4869 243.584L62.2616 239.765L61.3286 238.722L55.6755 229.098L57.294 227.148L57.5827 222.527L57.785 218.252L62.3325 213.859L60.8184 212.201L57.6071 211.649L55.9281 210.941L52.1164 207.262L46.2713 201.001L45.7597 199.556L43.8178 193.633L43.8951 192.078L44.185 190.807L43.6361 185.779L41.1684 178.753L40.0989 177.343L31.7938 175.123L31.4446 175.224L30.5193 174.295L27.0633 174.005L22.7452 174.295L19.5791 174.854L19.3252 174.553L17.9503 173.673L16.4503 173.884L16.9877 172.034L17.2931 170.393L16.6591 169.103L14.5239 167.499L11.6258 162.654L12.033 160.414L13.466 158.108L13.7108 156.851L13.3126 155.687L12.5807 154.824L11.5034 153.954L10.1426 152.959L9.02799 151.741L7.43525 149.575L6.76518 143.804L6.87215 139.191L6.5835 136.631L9.17232 135.213L9.51637 130.488L9.49447 129.337L9.31019 127.585L8.96614 126.385L7.98808 124.988L7.45459 123.978L7.05643 117.836L7.37728 116.668L8.47776 115.028L9.21483 113.598L8.26383 107.698L5.71237 103.863L4.26013 103.493L2.93157 102.029L1.2577 99.4059L1.2654 99.1706L0 97.9012L1.44068 95.5911L5.18278 92.9903L6.62216 89.2364L7.4855 84.0372L10.6529 78.8393L12.3809 74.5062L13.2443 69.3084L14.109 63.821L12.9556 58.6205L13.2443 55.1561L13.8203 51.1126L18.4271 49.0896L22.4578 44.4695L24.1846 41.2921L28.2153 36.3812L32.8221 31.1834L38.2922 25.1181L38.5809 19.0528L39.1311 11.3239L42.6116 10.6776L50.6732 11.5424L57.8713 14.7198L64.2048 18.1868L75.2868 20.158L76.4646 20.7346L82.6306 20.2085L88.9641 18.7633L92.1315 15.2989L95.2989 13.855L101.056 11.5424L105.376 10.388L109.983 8.07799L115.453 6.05494L119.681 3.35581L124.3 0L123.601 5.61287L123.951 11.5772L125 14.0334L123.251 21.752L120.424 26.425L120.445 30.1208L120.346 33.1664L119.36 36.5117L116.944 40.7945L114.761 44.5044L117.435 49.2085L118.121 51.9374L119.581 59.1L120.362 60.2777L121.66 61.3132L122.671 62.0202L122.202 66.4851L123.251 70.3451L119.405 71.7477L116.607 73.8534L115.557 80.5198L112.06 84.73L108.561 88.5887L104.366 93.8512L100.868 98.7634L98.4199 104.026L98.5887 105.891L98.148 106.333L97.2356 115.647L101.988 122.157L107.336 126.653L108.818 128.311L110.673 130.575L110.341 132.099L108.872 132.604L107.434 132.51L103.456 136.221L99.9237 142.587L99.5835 143.318L95.5399 152.812L103.398 176.439Z" fill="#E9ECF2"/>
<path d="M103.398 176.439L114.589 183.97L116.549 186.428L117.146 186.437L117.755 188.014L119.195 191.19V196.391L118.829 198.476L118.718 198.523L116.335 201.573L115.937 205.839L116.453 209.328L117.427 210.514L117.533 212.097L115.426 213.628L112.294 215.224L107.655 219.029L100.574 227.522L96.9303 234.784L95.8607 235.892L92.6147 237.317L88.977 239.2L85.6073 242.348L84.1718 244.07L82.1203 248.235L80.9773 248.584L79.0225 249L77.8924 248.952L72.1607 246.016L67.4869 243.584L62.2616 239.765L61.3286 238.722L55.6755 229.098L57.294 227.148L57.5827 222.527L57.785 218.252L62.3325 213.859L60.8184 212.201L57.6071 211.649L55.9281 210.941L52.1164 207.262L46.2713 201.001L45.7597 199.556L43.8178 193.633L43.8951 192.078L44.185 190.807L43.6361 185.779L41.1684 178.753L40.0989 177.343L31.7938 175.123L31.4446 175.224L30.5193 174.295L27.0633 174.005L22.7452 174.295L19.5791 174.854L19.3252 174.553L17.9503 173.673L16.4503 173.884L16.9877 172.034L17.2931 170.393L16.6591 169.103L14.5239 167.499L11.6258 162.654L12.033 160.414L13.466 158.108L13.7108 156.851L13.3126 155.687L12.5807 154.824L11.5034 153.954L10.1426 152.959L9.02799 151.741L7.43525 149.575L6.76518 143.804L6.87215 139.191L6.5835 136.631L9.17232 135.213L9.51637 130.488L9.49447 129.337L9.31019 127.585L8.96614 126.385L7.98808 124.988L7.45459 123.978L7.05643 117.836L7.37728 116.668L8.47776 115.028L9.21483 113.598L8.26383 107.698L5.71237 103.863L4.26013 103.493L2.93157 102.029L1.2577 99.4059L1.2654 99.1706L0 97.9012L1.44068 95.5911L5.18278 92.9903L6.62216 89.2364L7.4855 84.0372L10.6529 78.8393L12.3809 74.5062L13.2443 69.3084L14.109 63.821L12.9556 58.6205L13.2443 55.1561L13.8203 51.1126L18.4271 49.0896L22.4578 44.4695L24.1846 41.2921L28.2153 36.3812L32.8221 31.1834L38.2922 25.1181L38.5809 19.0528L39.1311 11.3239L42.6116 10.6776L50.6732 11.5424L57.8713 14.7198L64.2048 18.1868L75.2868 20.158L76.4646 20.7346L82.6306 20.2085L88.9641 18.7633L92.1315 15.2989L95.2989 13.855L101.056 11.5424L105.376 10.388L109.983 8.07799L115.453 6.05494L119.681 3.35581L124.3 0L123.601 5.61287L123.951 11.5772L125 14.0334L123.251 21.752L120.424 26.425L120.445 30.1208L120.346 33.1664L119.36 36.5117L116.944 40.7945L114.761 44.5044L117.435 49.2085L118.121 51.9374L119.581 59.1L120.362 60.2777L121.66 61.3132L122.671 62.0202L122.202 66.4851L123.251 70.3451L119.405 71.7477L116.607 73.8534L115.557 80.5198L112.06 84.73L108.561 88.5887L104.366 93.8512L100.868 98.7634L98.4199 104.026L98.5887 105.891L98.148 106.333L97.2356 115.647L101.988 122.157L107.336 126.653L108.818 128.311L110.673 130.575L110.341 132.099L108.872 132.604L107.434 132.51L103.456 136.221L99.9237 142.587L99.5835 143.318L95.5399 152.812L103.398 176.439Z" stroke="#8F959D" stroke-width="4" mask="url(#path-1-inside-1_8895_6829)"/>
<path d="M103.398 176.439L114.589 183.97L116.549 186.428L117.146 186.437L117.755 188.014L119.195 191.19V196.391L118.829 198.476L118.718 198.523L116.335 201.573L115.937 205.839L116.453 209.328L117.427 210.514L117.533 212.097L115.426 213.628L112.294 215.224L107.655 219.029L100.574 227.522L96.9303 234.784L95.8607 235.892L92.6147 237.317L88.977 239.2L85.6073 242.348L84.1718 244.07L82.1203 248.235L80.9773 248.584L79.0225 249L77.8924 248.952L72.1607 246.016L67.4869 243.584L62.2616 239.765L61.3286 238.722L55.6755 229.098L57.294 227.148L57.5827 222.527L57.785 218.252L62.3325 213.859L60.8184 212.201L57.6071 211.649L55.9281 210.941L52.1164 207.262L46.2713 201.001L45.7597 199.556L43.8178 193.633L43.8951 192.078L44.185 190.807L43.6361 185.779L41.1684 178.753L40.0989 177.343L31.7938 175.123L31.4446 175.224L30.5193 174.295L27.0633 174.005L22.7452 174.295L19.5791 174.854L19.3252 174.553L17.9503 173.673L16.4503 173.884L16.9877 172.034L17.2931 170.393L16.6591 169.103L14.5239 167.499L11.6258 162.654L12.033 160.414L13.466 158.108L13.7108 156.851L13.3126 155.687L12.5807 154.824L11.5034 153.954L10.1426 152.959L9.02799 151.741L7.43525 149.575L6.76518 143.804L6.87215 139.191L6.5835 136.631L9.17232 135.213L9.51637 130.488L9.49447 129.337L9.31019 127.585L8.96614 126.385L7.98808 124.988L7.45459 123.978L7.05643 117.836L7.37728 116.668L8.47776 115.028L9.21483 113.598L8.26383 107.698L5.71237 103.863L4.26013 103.493L2.93157 102.029L1.2577 99.4059L1.2654 99.1706L0 97.9012L1.44068 95.5911L5.18278 92.9903L6.62216 89.2364L7.4855 84.0372L10.6529 78.8393L12.3809 74.5062L13.2443 69.3084L14.109 63.821L12.9556 58.6205L13.2443 55.1561L13.8203 51.1126L18.4271 49.0896L22.4578 44.4695L24.1846 41.2921L28.2153 36.3812L32.8221 31.1834L38.2922 25.1181L38.5809 19.0528L39.1311 11.3239L42.6116 10.6776L50.6732 11.5424L57.8713 14.7198L64.2048 18.1868L75.2868 20.158L76.4646 20.7346L82.6306 20.2085L88.9641 18.7633L92.1315 15.2989L95.2989 13.855L101.056 11.5424L105.376 10.388L109.983 8.07799L115.453 6.05494L119.681 3.35581L124.3 0L123.601 5.61287L123.951 11.5772L125 14.0334L123.251 21.752L120.424 26.425L120.445 30.1208L120.346 33.1664L119.36 36.5117L116.944 40.7945L114.761 44.5044L117.435 49.2085L118.121 51.9374L119.581 59.1L120.362 60.2777L121.66 61.3132L122.671 62.0202L122.202 66.4851L123.251 70.3451L119.405 71.7477L116.607 73.8534L115.557 80.5198L112.06 84.73L108.561 88.5887L104.366 93.8512L100.868 98.7634L98.4199 104.026L98.5887 105.891L98.148 106.333L97.2356 115.647L101.988 122.157L107.336 126.653L108.818 128.311L110.673 130.575L110.341 132.099L108.872 132.604L107.434 132.51L103.456 136.221L99.9237 142.587L99.5835 143.318L95.5399 152.812L103.398 176.439Z" stroke="black" stroke-opacity="0.2" stroke-width="4" mask="url(#path-1-inside-1_8895_6829)"/>
<path d="M103.398 176.439L114.589 183.97L116.549 186.428L117.146 186.437L117.755 188.014L119.195 191.19V196.391L118.829 198.476L118.718 198.523L116.335 201.573L115.937 205.839L116.453 209.328L117.427 210.514L117.533 212.097L115.426 213.628L112.294 215.224L107.655 219.029L100.574 227.522L96.9303 234.784L95.8607 235.892L92.6147 237.317L88.977 239.2L85.6073 242.348L84.1718 244.07L82.1203 248.235L80.9773 248.584L79.0225 249L77.8924 248.952L72.1607 246.016L67.4869 243.584L62.2616 239.765L61.3286 238.722L55.6755 229.098L57.294 227.148L57.5827 222.527L57.785 218.252L62.3325 213.859L60.8184 212.201L57.6071 211.649L55.9281 210.941L52.1164 207.262L46.2713 201.001L45.7597 199.556L43.8178 193.633L43.8951 192.078L44.185 190.807L43.6361 185.779L41.1684 178.753L40.0989 177.343L31.7938 175.123L31.4446 175.224L30.5193 174.295L27.0633 174.005L22.7452 174.295L19.5791 174.854L19.3252 174.553L17.9503 173.673L16.4503 173.884L16.9877 172.034L17.2931 170.393L16.6591 169.103L14.5239 167.499L11.6258 162.654L12.033 160.414L13.466 158.108L13.7108 156.851L13.3126 155.687L12.5807 154.824L11.5034 153.954L10.1426 152.959L9.02799 151.741L7.43525 149.575L6.76518 143.804L6.87215 139.191L6.5835 136.631L9.17232 135.213L9.51637 130.488L9.49447 129.337L9.31019 127.585L8.96614 126.385L7.98808 124.988L7.45459 123.978L7.05643 117.836L7.37728 116.668L8.47776 115.028L9.21483 113.598L8.26383 107.698L5.71237 103.863L4.26013 103.493L2.93157 102.029L1.2577 99.4059L1.2654 99.1706L0 97.9012L1.44068 95.5911L5.18278 92.9903L6.62216 89.2364L7.4855 84.0372L10.6529 78.8393L12.3809 74.5062L13.2443 69.3084L14.109 63.821L12.9556 58.6205L13.2443 55.1561L13.8203 51.1126L18.4271 49.0896L22.4578 44.4695L24.1846 41.2921L28.2153 36.3812L32.8221 31.1834L38.2922 25.1181L38.5809 19.0528L39.1311 11.3239L42.6116 10.6776L50.6732 11.5424L57.8713 14.7198L64.2048 18.1868L75.2868 20.158L76.4646 20.7346L82.6306 20.2085L88.9641 18.7633L92.1315 15.2989L95.2989 13.855L101.056 11.5424L105.376 10.388L109.983 8.07799L115.453 6.05494L119.681 3.35581L124.3 0L123.601 5.61287L123.951 11.5772L125 14.0334L123.251 21.752L120.424 26.425L120.445 30.1208L120.346 33.1664L119.36 36.5117L116.944 40.7945L114.761 44.5044L117.435 49.2085L118.121 51.9374L119.581 59.1L120.362 60.2777L121.66 61.3132L122.671 62.0202L122.202 66.4851L123.251 70.3451L119.405 71.7477L116.607 73.8534L115.557 80.5198L112.06 84.73L108.561 88.5887L104.366 93.8512L100.868 98.7634L98.4199 104.026L98.5887 105.891L98.148 106.333L97.2356 115.647L101.988 122.157L107.336 126.653L108.818 128.311L110.673 130.575L110.341 132.099L108.872 132.604L107.434 132.51L103.456 136.221L99.9237 142.587L99.5835 143.318L95.5399 152.812L103.398 176.439Z" stroke="black" stroke-opacity="0.2" stroke-width="4" mask="url(#path-1-inside-1_8895_6829)"/>
<path d="M103.398 176.439L114.589 183.97L116.549 186.428L117.146 186.437L117.755 188.014L119.195 191.19V196.391L118.829 198.476L118.718 198.523L116.335 201.573L115.937 205.839L116.453 209.328L117.427 210.514L117.533 212.097L115.426 213.628L112.294 215.224L107.655 219.029L100.574 227.522L96.9303 234.784L95.8607 235.892L92.6147 237.317L88.977 239.2L85.6073 242.348L84.1718 244.07L82.1203 248.235L80.9773 248.584L79.0225 249L77.8924 248.952L72.1607 246.016L67.4869 243.584L62.2616 239.765L61.3286 238.722L55.6755 229.098L57.294 227.148L57.5827 222.527L57.785 218.252L62.3325 213.859L60.8184 212.201L57.6071 211.649L55.9281 210.941L52.1164 207.262L46.2713 201.001L45.7597 199.556L43.8178 193.633L43.8951 192.078L44.185 190.807L43.6361 185.779L41.1684 178.753L40.0989 177.343L31.7938 175.123L31.4446 175.224L30.5193 174.295L27.0633 174.005L22.7452 174.295L19.5791 174.854L19.3252 174.553L17.9503 173.673L16.4503 173.884L16.9877 172.034L17.2931 170.393L16.6591 169.103L14.5239 167.499L11.6258 162.654L12.033 160.414L13.466 158.108L13.7108 156.851L13.3126 155.687L12.5807 154.824L11.5034 153.954L10.1426 152.959L9.02799 151.741L7.43525 149.575L6.76518 143.804L6.87215 139.191L6.5835 136.631L9.17232 135.213L9.51637 130.488L9.49447 129.337L9.31019 127.585L8.96614 126.385L7.98808 124.988L7.45459 123.978L7.05643 117.836L7.37728 116.668L8.47776 115.028L9.21483 113.598L8.26383 107.698L5.71237 103.863L4.26013 103.493L2.93157 102.029L1.2577 99.4059L1.2654 99.1706L0 97.9012L1.44068 95.5911L5.18278 92.9903L6.62216 89.2364L7.4855 84.0372L10.6529 78.8393L12.3809 74.5062L13.2443 69.3084L14.109 63.821L12.9556 58.6205L13.2443 55.1561L13.8203 51.1126L18.4271 49.0896L22.4578 44.4695L24.1846 41.2921L28.2153 36.3812L32.8221 31.1834L38.2922 25.1181L38.5809 19.0528L39.1311 11.3239L42.6116 10.6776L50.6732 11.5424L57.8713 14.7198L64.2048 18.1868L75.2868 20.158L76.4646 20.7346L82.6306 20.2085L88.9641 18.7633L92.1315 15.2989L95.2989 13.855L101.056 11.5424L105.376 10.388L109.983 8.07799L115.453 6.05494L119.681 3.35581L124.3 0L123.601 5.61287L123.951 11.5772L125 14.0334L123.251 21.752L120.424 26.425L120.445 30.1208L120.346 33.1664L119.36 36.5117L116.944 40.7945L114.761 44.5044L117.435 49.2085L118.121 51.9374L119.581 59.1L120.362 60.2777L121.66 61.3132L122.671 62.0202L122.202 66.4851L123.251 70.3451L119.405 71.7477L116.607 73.8534L115.557 80.5198L112.06 84.73L108.561 88.5887L104.366 93.8512L100.868 98.7634L98.4199 104.026L98.5887 105.891L98.148 106.333L97.2356 115.647L101.988 122.157L107.336 126.653L108.818 128.311L110.673 130.575L110.341 132.099L108.872 132.604L107.434 132.51L103.456 136.221L99.9237 142.587L99.5835 143.318L95.5399 152.812L103.398 176.439Z" stroke="black" stroke-opacity="0.2" stroke-width="4" mask="url(#path-1-inside-1_8895_6829)"/>
<path d="M103.398 176.439L114.589 183.97L116.549 186.428L117.146 186.437L117.755 188.014L119.195 191.19V196.391L118.829 198.476L118.718 198.523L116.335 201.573L115.937 205.839L116.453 209.328L117.427 210.514L117.533 212.097L115.426 213.628L112.294 215.224L107.655 219.029L100.574 227.522L96.9303 234.784L95.8607 235.892L92.6147 237.317L88.977 239.2L85.6073 242.348L84.1718 244.07L82.1203 248.235L80.9773 248.584L79.0225 249L77.8924 248.952L72.1607 246.016L67.4869 243.584L62.2616 239.765L61.3286 238.722L55.6755 229.098L57.294 227.148L57.5827 222.527L57.785 218.252L62.3325 213.859L60.8184 212.201L57.6071 211.649L55.9281 210.941L52.1164 207.262L46.2713 201.001L45.7597 199.556L43.8178 193.633L43.8951 192.078L44.185 190.807L43.6361 185.779L41.1684 178.753L40.0989 177.343L31.7938 175.123L31.4446 175.224L30.5193 174.295L27.0633 174.005L22.7452 174.295L19.5791 174.854L19.3252 174.553L17.9503 173.673L16.4503 173.884L16.9877 172.034L17.2931 170.393L16.6591 169.103L14.5239 167.499L11.6258 162.654L12.033 160.414L13.466 158.108L13.7108 156.851L13.3126 155.687L12.5807 154.824L11.5034 153.954L10.1426 152.959L9.02799 151.741L7.43525 149.575L6.76518 143.804L6.87215 139.191L6.5835 136.631L9.17232 135.213L9.51637 130.488L9.49447 129.337L9.31019 127.585L8.96614 126.385L7.98808 124.988L7.45459 123.978L7.05643 117.836L7.37728 116.668L8.47776 115.028L9.21483 113.598L8.26383 107.698L5.71237 103.863L4.26013 103.493L2.93157 102.029L1.2577 99.4059L1.2654 99.1706L0 97.9012L1.44068 95.5911L5.18278 92.9903L6.62216 89.2364L7.4855 84.0372L10.6529 78.8393L12.3809 74.5062L13.2443 69.3084L14.109 63.821L12.9556 58.6205L13.2443 55.1561L13.8203 51.1126L18.4271 49.0896L22.4578 44.4695L24.1846 41.2921L28.2153 36.3812L32.8221 31.1834L38.2922 25.1181L38.5809 19.0528L39.1311 11.3239L42.6116 10.6776L50.6732 11.5424L57.8713 14.7198L64.2048 18.1868L75.2868 20.158L76.4646 20.7346L82.6306 20.2085L88.9641 18.7633L92.1315 15.2989L95.2989 13.855L101.056 11.5424L105.376 10.388L109.983 8.07799L115.453 6.05494L119.681 3.35581L124.3 0L123.601 5.61287L123.951 11.5772L125 14.0334L123.251 21.752L120.424 26.425L120.445 30.1208L120.346 33.1664L119.36 36.5117L116.944 40.7945L114.761 44.5044L117.435 49.2085L118.121 51.9374L119.581 59.1L120.362 60.2777L121.66 61.3132L122.671 62.0202L122.202 66.4851L123.251 70.3451L119.405 71.7477L116.607 73.8534L115.557 80.5198L112.06 84.73L108.561 88.5887L104.366 93.8512L100.868 98.7634L98.4199 104.026L98.5887 105.891L98.148 106.333L97.2356 115.647L101.988 122.157L107.336 126.653L108.818 128.311L110.673 130.575L110.341 132.099L108.872 132.604L107.434 132.51L103.456 136.221L99.9237 142.587L99.5835 143.318L95.5399 152.812L103.398 176.439Z" stroke="black" stroke-opacity="0.2" stroke-width="4" mask="url(#path-1-inside-1_8895_6829)"/>
<path d="M103.398 176.439L114.589 183.97L116.549 186.428L117.146 186.437L117.755 188.014L119.195 191.19V196.391L118.829 198.476L118.718 198.523L116.335 201.573L115.937 205.839L116.453 209.328L117.427 210.514L117.533 212.097L115.426 213.628L112.294 215.224L107.655 219.029L100.574 227.522L96.9303 234.784L95.8607 235.892L92.6147 237.317L88.977 239.2L85.6073 242.348L84.1718 244.07L82.1203 248.235L80.9773 248.584L79.0225 249L77.8924 248.952L72.1607 246.016L67.4869 243.584L62.2616 239.765L61.3286 238.722L55.6755 229.098L57.294 227.148L57.5827 222.527L57.785 218.252L62.3325 213.859L60.8184 212.201L57.6071 211.649L55.9281 210.941L52.1164 207.262L46.2713 201.001L45.7597 199.556L43.8178 193.633L43.8951 192.078L44.185 190.807L43.6361 185.779L41.1684 178.753L40.0989 177.343L31.7938 175.123L31.4446 175.224L30.5193 174.295L27.0633 174.005L22.7452 174.295L19.5791 174.854L19.3252 174.553L17.9503 173.673L16.4503 173.884L16.9877 172.034L17.2931 170.393L16.6591 169.103L14.5239 167.499L11.6258 162.654L12.033 160.414L13.466 158.108L13.7108 156.851L13.3126 155.687L12.5807 154.824L11.5034 153.954L10.1426 152.959L9.02799 151.741L7.43525 149.575L6.76518 143.804L6.87215 139.191L6.5835 136.631L9.17232 135.213L9.51637 130.488L9.49447 129.337L9.31019 127.585L8.96614 126.385L7.98808 124.988L7.45459 123.978L7.05643 117.836L7.37728 116.668L8.47776 115.028L9.21483 113.598L8.26383 107.698L5.71237 103.863L4.26013 103.493L2.93157 102.029L1.2577 99.4059L1.2654 99.1706L0 97.9012L1.44068 95.5911L5.18278 92.9903L6.62216 89.2364L7.4855 84.0372L10.6529 78.8393L12.3809 74.5062L13.2443 69.3084L14.109 63.821L12.9556 58.6205L13.2443 55.1561L13.8203 51.1126L18.4271 49.0896L22.4578 44.4695L24.1846 41.2921L28.2153 36.3812L32.8221 31.1834L38.2922 25.1181L38.5809 19.0528L39.1311 11.3239L42.6116 10.6776L50.6732 11.5424L57.8713 14.7198L64.2048 18.1868L75.2868 20.158L76.4646 20.7346L82.6306 20.2085L88.9641 18.7633L92.1315 15.2989L95.2989 13.855L101.056 11.5424L105.376 10.388L109.983 8.07799L115.453 6.05494L119.681 3.35581L124.3 0L123.601 5.61287L123.951 11.5772L125 14.0334L123.251 21.752L120.424 26.425L120.445 30.1208L120.346 33.1664L119.36 36.5117L116.944 40.7945L114.761 44.5044L117.435 49.2085L118.121 51.9374L119.581 59.1L120.362 60.2777L121.66 61.3132L122.671 62.0202L122.202 66.4851L123.251 70.3451L119.405 71.7477L116.607 73.8534L115.557 80.5198L112.06 84.73L108.561 88.5887L104.366 93.8512L100.868 98.7634L98.4199 104.026L98.5887 105.891L98.148 106.333L97.2356 115.647L101.988 122.157L107.336 126.653L108.818 128.311L110.673 130.575L110.341 132.099L108.872 132.604L107.434 132.51L103.456 136.221L99.9237 142.587L99.5835 143.318L95.5399 152.812L103.398 176.439Z" stroke="black" stroke-opacity="0.2" stroke-width="4" mask="url(#path-1-inside-1_8895_6829)"/>
</svg>
