<svg width="220" height="249" viewBox="0 0 220 249" fill="none" xmlns="http://www.w3.org/2000/svg">
<rect width="220" height="249" fill="white"/>
<path d="M127.757 171.943L129.966 173.114L135.672 174.256L136.434 176.541L133.77 179.587L132.248 183.776L135.292 186.823L140.237 184.538H142.9L145.563 188.727L149.749 189.489L154.695 187.585L156.977 183.396L159.691 181.724L160.147 182.06L162.048 184.438L162.627 184.447L163.218 185.973L164.614 189.047V194.081L164.259 196.099L164.152 196.145L161.841 199.097L161.454 203.225L161.954 206.602L162.899 207.751L163.002 209.282L160.958 210.765L157.921 212.309L153.421 215.992L146.553 224.212L143.018 231.241L141.981 232.313L138.833 233.692L135.304 235.515L132.036 238.562L130.643 240.228L128.653 244.259L127.545 244.597L125.649 245L124.553 244.954L118.993 242.112L114.46 239.758L109.391 236.062L108.486 235.052L103.003 225.737L104.573 223.851L104.853 219.378L105.049 215.24L109.46 210.988L107.991 209.384L104.877 208.849L103.248 208.164L99.5508 204.603L93.8813 198.544L93.3851 197.145L91.5015 191.412L91.5765 189.907L91.8577 188.677L91.3253 183.81L88.9317 177.01L87.8943 175.645L79.8387 173.497L79.5 173.594L78.6025 172.695L75.2503 172.415L71.0619 172.695L67.9909 173.237L67.7447 172.945L66.4111 172.093L64.9562 172.297L65.4774 170.507L65.7736 168.919L65.1587 167.67L63.0876 166.118L60.2766 161.428L60.6716 159.26L62.0614 157.028L62.2989 155.812L61.9127 154.685L61.2027 153.85L60.1578 153.008L58.8379 152.045L57.7568 150.866L56.2119 148.769L55.562 143.184L55.6657 138.719L55.3857 136.241L57.8968 134.869L58.2305 130.296L58.2093 129.181L58.0305 127.486L57.6968 126.325L56.7481 124.972L56.2307 123.995L55.8445 118.05L56.1557 116.92L57.2231 115.332L57.938 113.948L57.0156 108.238L54.5408 104.526L53.1322 104.168L51.8435 102.751L50.2199 100.212L50.2274 99.9844L49 98.7558L50.3974 96.5199L54.0271 94.0027L55.4232 90.3693L56.2606 85.3372L59.3329 80.3063L61.009 76.1125L61.8464 71.0816L62.6851 65.7705L61.5664 60.7371L61.8464 57.384L62.4052 53.4705L66.8735 51.5124L70.7832 47.0408L72.4581 43.9654L76.3677 39.2124L80.8361 34.1815L86.1419 28.3111L86.4219 22.4407L86.9556 14.9601L90.3316 14.3345L98.151 15.1715L105.133 18.2469L111.276 21.6024L122.025 23.5104L123.168 24.0685L129.148 23.5592L135.292 22.1604L138.364 18.8074L141.436 17.4098L147.021 15.1715L151.21 14.0542L155.679 11.8185L160.985 9.86041L165.085 7.24799L169.566 4L168.888 9.43254L169.228 15.2053L170.245 17.5825L168.549 25.0531L165.807 29.576L165.827 33.153L165.73 36.1008L164.774 39.3387L162.431 43.4838L160.313 47.0746L162.907 51.6275L163.573 54.2687L164.989 61.2012L165.747 62.3411L167.005 63.3433L167.986 64.0276L167.531 68.3491L168.549 72.085L164.818 73.4426L162.104 75.4806L161.086 81.9328L157.694 86.0078L154.3 89.7425L150.23 94.8359L146.838 99.5903L144.463 104.684L144.627 106.489L144.2 106.917L143.315 115.932L147.924 122.232L153.111 126.584L154.549 128.189L156.349 130.38L156.026 131.855L154.601 132.344L153.206 132.253L149.348 135.845L145.922 142.005L145.592 142.714L143.662 141.885L141.38 139.981L136.053 139.601L134.15 135.792L131.107 135.03H127.302L126.161 130.461L121.976 127.034L118.172 125.892L113.607 124.748L109.802 123.605H105.617L101.433 123.986L100.671 126.271L101.433 128.556H104.857L108.28 128.937L112.845 128.556L115.128 129.699L115.889 135.03L112.845 136.935L110.944 138.839L111.704 142.647L114.367 144.17V149.121L112.085 149.502L110.944 152.929L108.28 154.072L104.475 155.595L105.617 159.784L106.379 163.973L107.52 167.4L110.562 167.021H112.845L115.508 169.306L117.412 170.066L118.933 167.021L120.454 166.258L121.595 169.306L123.118 172.351H127.684L127.757 171.943Z" fill="#E9ECF2" stroke="#8F959D" stroke-width="2"/>
</svg>
