<svg width="175" height="249" viewBox="0 0 175 249" fill="none" xmlns="http://www.w3.org/2000/svg">
<mask id="path-1-inside-1_8891_6809" fill="white">
<path d="M51.6573 22.4255L55.2632 22.5281L58.148 22.4151L60.209 22.21L63.9383 23.3922L71.4802 28.5783L72.6758 30.7202L73.8089 32.7769L75.3538 37.1823L75.9411 39.9101L77.6111 43.2464L79.0726 45.4578L82.7706 48.043L86.4356 49.5538L90.5594 48.9314L93.1713 47.7475L95.8023 45.9272L97.2516 44.7607L103.954 45.4317L111.124 51.953L116.338 58.4726L121.553 61.0821L128.723 56.5167L132.92 53.6081L136.242 53.3439L141.723 53.3056L143.887 53.5942L150.586 55.0042L155.446 51.3011L164.572 49.3435L171.088 52.605L175 57.8206L174.348 64.3419L171.099 68.1337L171.818 69.7644L172.075 72.0107L171.931 73.9683L171.231 77.5114L170.675 81.1606L170.221 86.4371L169.893 90.8478L169.809 93.3635L170.014 96.2895L168.78 102.086L168.099 104.169L168.012 104.306L165.223 105.422L158.705 106.726L150.463 107.07L149.679 106.086L147.72 104.601L145.743 103.157L143.701 102.333L141.52 101.714L139.355 101.218L136.305 101.396L134.923 101.828L131.329 105.422L133.285 121.072V127.594L126.09 132.735L125.671 134.393L125.466 135.635L120.599 137.257L120.326 141.923V147.584L122.448 153.954L128.46 159.971L130.229 172.003L132.353 179.081L136.951 185.098L138.22 189.542H143.343L145.082 193.234L145.925 194.799L141.758 198.671L138.5 204.538L137.196 214.319L137.667 215.062L130.678 217.581L124.159 224.101L126.114 240.403L127.505 245.965L126.229 248.025L124.919 249L121.169 248.55L119.24 245.959L114.449 233.882L111.604 228.996L109.241 228.151L105.859 225.413L105.727 226.293L102.651 224.754L100.042 228.014L97.4358 233.231L94.1774 231.274L88.9623 229.318L81.7923 231.926L76.5789 230.622L70.0605 231.926L67.1914 232.246L67.5459 233.591H64.5899H59.9309H56.968L56.2937 231.868L54.8827 230.949L52.7087 231.051L51.8068 231.446L47.8985 225.406L51.1586 222.145L57.0236 220.189L64.1937 218.885L66.3347 218.349L66.3694 216.943L65.8481 214.471L67.4538 213.667L65.4971 206.494L62.8904 202.583L58.9804 196.713L51.1586 195.409L46.5952 192.15L40.7302 192.801L32.9084 196.061H32.003L31.1202 190.474L29.9559 183.093L27.238 180.762L24.3915 180.619L24.2473 180.105L21.0254 179.597L20.2486 171.828L19.8611 165.225L18.6968 160.951L18.2328 154.239L17.4925 153.886L15.0527 152.305L13.8866 149.899L11.9108 144.654L11.5997 140.763L13.5478 136.912L13.9718 134.807L12.837 132.702L6.24211 124.715L3.18187 119.339L2.06102 118.649L0.905378 117.328L0 114.647L0.123381 111.883L1.37981 108.292L2.57539 105.725L3.54507 98.3271L7.48812 94.989L11.3999 94.3371L19.2216 94.989L24.435 98.9007L28.3467 96.9449L32.2567 92.3812V89.158L32.9067 88.7859L33.6904 87.096L34.422 84.1805L35.0389 82.0768L36.2241 79.7176L37.6665 77.9652L39.4181 76.6474L42.1586 74.9471L44.8487 72.7426L46.4457 69.7123L45.2501 64.8826L43.8356 61.442L42.925 59.3001L41.0829 56.3081L37.4458 52.4989L30.797 50.1571L27.9105 49.4443L24.6574 48.6863L21.2948 48.0013L19.2268 47.4798L17.2666 46.6313L14.196 43.1942L6.49062 28.4757L5.39756 26.1078L4.37922 23.4339L5.04826 7.85824L5.46011 5.69723L6.32553 4.20556L7.99554 1.99412L9.84803 0.452039L10.776 0L11.4972 1.38912L15.7217 4.52546L18.0503 5.94411L22.3983 7.34362L27.0347 8.81445L30.6614 10.5113L32.9067 12.3124L34.4724 14.7707L35.8957 16.4171L38.9646 19.8108L40.9231 20.8209L43.0849 21.4363L45.1667 21.9526L51.6573 22.4255Z"/>
</mask>
<path d="M51.6573 22.4255L55.2632 22.5281L58.148 22.4151L60.209 22.21L63.9383 23.3922L71.4802 28.5783L72.6758 30.7202L73.8089 32.7769L75.3538 37.1823L75.9411 39.9101L77.6111 43.2464L79.0726 45.4578L82.7706 48.043L86.4356 49.5538L90.5594 48.9314L93.1713 47.7475L95.8023 45.9272L97.2516 44.7607L103.954 45.4317L111.124 51.953L116.338 58.4726L121.553 61.0821L128.723 56.5167L132.92 53.6081L136.242 53.3439L141.723 53.3056L143.887 53.5942L150.586 55.0042L155.446 51.3011L164.572 49.3435L171.088 52.605L175 57.8206L174.348 64.3419L171.099 68.1337L171.818 69.7644L172.075 72.0107L171.931 73.9683L171.231 77.5114L170.675 81.1606L170.221 86.4371L169.893 90.8478L169.809 93.3635L170.014 96.2895L168.78 102.086L168.099 104.169L168.012 104.306L165.223 105.422L158.705 106.726L150.463 107.07L149.679 106.086L147.72 104.601L145.743 103.157L143.701 102.333L141.52 101.714L139.355 101.218L136.305 101.396L134.923 101.828L131.329 105.422L133.285 121.072V127.594L126.09 132.735L125.671 134.393L125.466 135.635L120.599 137.257L120.326 141.923V147.584L122.448 153.954L128.46 159.971L130.229 172.003L132.353 179.081L136.951 185.098L138.22 189.542H143.343L145.082 193.234L145.925 194.799L141.758 198.671L138.5 204.538L137.196 214.319L137.667 215.062L130.678 217.581L124.159 224.101L126.114 240.403L127.505 245.965L126.229 248.025L124.919 249L121.169 248.55L119.24 245.959L114.449 233.882L111.604 228.996L109.241 228.151L105.859 225.413L105.727 226.293L102.651 224.754L100.042 228.014L97.4358 233.231L94.1774 231.274L88.9623 229.318L81.7923 231.926L76.5789 230.622L70.0605 231.926L67.1914 232.246L67.5459 233.591H64.5899H59.9309H56.968L56.2937 231.868L54.8827 230.949L52.7087 231.051L51.8068 231.446L47.8985 225.406L51.1586 222.145L57.0236 220.189L64.1937 218.885L66.3347 218.349L66.3694 216.943L65.8481 214.471L67.4538 213.667L65.4971 206.494L62.8904 202.583L58.9804 196.713L51.1586 195.409L46.5952 192.15L40.7302 192.801L32.9084 196.061H32.003L31.1202 190.474L29.9559 183.093L27.238 180.762L24.3915 180.619L24.2473 180.105L21.0254 179.597L20.2486 171.828L19.8611 165.225L18.6968 160.951L18.2328 154.239L17.4925 153.886L15.0527 152.305L13.8866 149.899L11.9108 144.654L11.5997 140.763L13.5478 136.912L13.9718 134.807L12.837 132.702L6.24211 124.715L3.18187 119.339L2.06102 118.649L0.905378 117.328L0 114.647L0.123381 111.883L1.37981 108.292L2.57539 105.725L3.54507 98.3271L7.48812 94.989L11.3999 94.3371L19.2216 94.989L24.435 98.9007L28.3467 96.9449L32.2567 92.3812V89.158L32.9067 88.7859L33.6904 87.096L34.422 84.1805L35.0389 82.0768L36.2241 79.7176L37.6665 77.9652L39.4181 76.6474L42.1586 74.9471L44.8487 72.7426L46.4457 69.7123L45.2501 64.8826L43.8356 61.442L42.925 59.3001L41.0829 56.3081L37.4458 52.4989L30.797 50.1571L27.9105 49.4443L24.6574 48.6863L21.2948 48.0013L19.2268 47.4798L17.2666 46.6313L14.196 43.1942L6.49062 28.4757L5.39756 26.1078L4.37922 23.4339L5.04826 7.85824L5.46011 5.69723L6.32553 4.20556L7.99554 1.99412L9.84803 0.452039L10.776 0L11.4972 1.38912L15.7217 4.52546L18.0503 5.94411L22.3983 7.34362L27.0347 8.81445L30.6614 10.5113L32.9067 12.3124L34.4724 14.7707L35.8957 16.4171L38.9646 19.8108L40.9231 20.8209L43.0849 21.4363L45.1667 21.9526L51.6573 22.4255Z" fill="#E9ECF2"/>
<path d="M51.6573 22.4255L55.2632 22.5281L58.148 22.4151L60.209 22.21L63.9383 23.3922L71.4802 28.5783L72.6758 30.7202L73.8089 32.7769L75.3538 37.1823L75.9411 39.9101L77.6111 43.2464L79.0726 45.4578L82.7706 48.043L86.4356 49.5538L90.5594 48.9314L93.1713 47.7475L95.8023 45.9272L97.2516 44.7607L103.954 45.4317L111.124 51.953L116.338 58.4726L121.553 61.0821L128.723 56.5167L132.92 53.6081L136.242 53.3439L141.723 53.3056L143.887 53.5942L150.586 55.0042L155.446 51.3011L164.572 49.3435L171.088 52.605L175 57.8206L174.348 64.3419L171.099 68.1337L171.818 69.7644L172.075 72.0107L171.931 73.9683L171.231 77.5114L170.675 81.1606L170.221 86.4371L169.893 90.8478L169.809 93.3635L170.014 96.2895L168.78 102.086L168.099 104.169L168.012 104.306L165.223 105.422L158.705 106.726L150.463 107.07L149.679 106.086L147.72 104.601L145.743 103.157L143.701 102.333L141.52 101.714L139.355 101.218L136.305 101.396L134.923 101.828L131.329 105.422L133.285 121.072V127.594L126.09 132.735L125.671 134.393L125.466 135.635L120.599 137.257L120.326 141.923V147.584L122.448 153.954L128.46 159.971L130.229 172.003L132.353 179.081L136.951 185.098L138.22 189.542H143.343L145.082 193.234L145.925 194.799L141.758 198.671L138.5 204.538L137.196 214.319L137.667 215.062L130.678 217.581L124.159 224.101L126.114 240.403L127.505 245.965L126.229 248.025L124.919 249L121.169 248.55L119.24 245.959L114.449 233.882L111.604 228.996L109.241 228.151L105.859 225.413L105.727 226.293L102.651 224.754L100.042 228.014L97.4358 233.231L94.1774 231.274L88.9623 229.318L81.7923 231.926L76.5789 230.622L70.0605 231.926L67.1914 232.246L67.5459 233.591H64.5899H59.9309H56.968L56.2937 231.868L54.8827 230.949L52.7087 231.051L51.8068 231.446L47.8985 225.406L51.1586 222.145L57.0236 220.189L64.1937 218.885L66.3347 218.349L66.3694 216.943L65.8481 214.471L67.4538 213.667L65.4971 206.494L62.8904 202.583L58.9804 196.713L51.1586 195.409L46.5952 192.15L40.7302 192.801L32.9084 196.061H32.003L31.1202 190.474L29.9559 183.093L27.238 180.762L24.3915 180.619L24.2473 180.105L21.0254 179.597L20.2486 171.828L19.8611 165.225L18.6968 160.951L18.2328 154.239L17.4925 153.886L15.0527 152.305L13.8866 149.899L11.9108 144.654L11.5997 140.763L13.5478 136.912L13.9718 134.807L12.837 132.702L6.24211 124.715L3.18187 119.339L2.06102 118.649L0.905378 117.328L0 114.647L0.123381 111.883L1.37981 108.292L2.57539 105.725L3.54507 98.3271L7.48812 94.989L11.3999 94.3371L19.2216 94.989L24.435 98.9007L28.3467 96.9449L32.2567 92.3812V89.158L32.9067 88.7859L33.6904 87.096L34.422 84.1805L35.0389 82.0768L36.2241 79.7176L37.6665 77.9652L39.4181 76.6474L42.1586 74.9471L44.8487 72.7426L46.4457 69.7123L45.2501 64.8826L43.8356 61.442L42.925 59.3001L41.0829 56.3081L37.4458 52.4989L30.797 50.1571L27.9105 49.4443L24.6574 48.6863L21.2948 48.0013L19.2268 47.4798L17.2666 46.6313L14.196 43.1942L6.49062 28.4757L5.39756 26.1078L4.37922 23.4339L5.04826 7.85824L5.46011 5.69723L6.32553 4.20556L7.99554 1.99412L9.84803 0.452039L10.776 0L11.4972 1.38912L15.7217 4.52546L18.0503 5.94411L22.3983 7.34362L27.0347 8.81445L30.6614 10.5113L32.9067 12.3124L34.4724 14.7707L35.8957 16.4171L38.9646 19.8108L40.9231 20.8209L43.0849 21.4363L45.1667 21.9526L51.6573 22.4255Z" stroke="#8F959D" stroke-width="4" mask="url(#path-1-inside-1_8891_6809)"/>
<path d="M51.6573 22.4255L55.2632 22.5281L58.148 22.4151L60.209 22.21L63.9383 23.3922L71.4802 28.5783L72.6758 30.7202L73.8089 32.7769L75.3538 37.1823L75.9411 39.9101L77.6111 43.2464L79.0726 45.4578L82.7706 48.043L86.4356 49.5538L90.5594 48.9314L93.1713 47.7475L95.8023 45.9272L97.2516 44.7607L103.954 45.4317L111.124 51.953L116.338 58.4726L121.553 61.0821L128.723 56.5167L132.92 53.6081L136.242 53.3439L141.723 53.3056L143.887 53.5942L150.586 55.0042L155.446 51.3011L164.572 49.3435L171.088 52.605L175 57.8206L174.348 64.3419L171.099 68.1337L171.818 69.7644L172.075 72.0107L171.931 73.9683L171.231 77.5114L170.675 81.1606L170.221 86.4371L169.893 90.8478L169.809 93.3635L170.014 96.2895L168.78 102.086L168.099 104.169L168.012 104.306L165.223 105.422L158.705 106.726L150.463 107.07L149.679 106.086L147.72 104.601L145.743 103.157L143.701 102.333L141.52 101.714L139.355 101.218L136.305 101.396L134.923 101.828L131.329 105.422L133.285 121.072V127.594L126.09 132.735L125.671 134.393L125.466 135.635L120.599 137.257L120.326 141.923V147.584L122.448 153.954L128.46 159.971L130.229 172.003L132.353 179.081L136.951 185.098L138.22 189.542H143.343L145.082 193.234L145.925 194.799L141.758 198.671L138.5 204.538L137.196 214.319L137.667 215.062L130.678 217.581L124.159 224.101L126.114 240.403L127.505 245.965L126.229 248.025L124.919 249L121.169 248.55L119.24 245.959L114.449 233.882L111.604 228.996L109.241 228.151L105.859 225.413L105.727 226.293L102.651 224.754L100.042 228.014L97.4358 233.231L94.1774 231.274L88.9623 229.318L81.7923 231.926L76.5789 230.622L70.0605 231.926L67.1914 232.246L67.5459 233.591H64.5899H59.9309H56.968L56.2937 231.868L54.8827 230.949L52.7087 231.051L51.8068 231.446L47.8985 225.406L51.1586 222.145L57.0236 220.189L64.1937 218.885L66.3347 218.349L66.3694 216.943L65.8481 214.471L67.4538 213.667L65.4971 206.494L62.8904 202.583L58.9804 196.713L51.1586 195.409L46.5952 192.15L40.7302 192.801L32.9084 196.061H32.003L31.1202 190.474L29.9559 183.093L27.238 180.762L24.3915 180.619L24.2473 180.105L21.0254 179.597L20.2486 171.828L19.8611 165.225L18.6968 160.951L18.2328 154.239L17.4925 153.886L15.0527 152.305L13.8866 149.899L11.9108 144.654L11.5997 140.763L13.5478 136.912L13.9718 134.807L12.837 132.702L6.24211 124.715L3.18187 119.339L2.06102 118.649L0.905378 117.328L0 114.647L0.123381 111.883L1.37981 108.292L2.57539 105.725L3.54507 98.3271L7.48812 94.989L11.3999 94.3371L19.2216 94.989L24.435 98.9007L28.3467 96.9449L32.2567 92.3812V89.158L32.9067 88.7859L33.6904 87.096L34.422 84.1805L35.0389 82.0768L36.2241 79.7176L37.6665 77.9652L39.4181 76.6474L42.1586 74.9471L44.8487 72.7426L46.4457 69.7123L45.2501 64.8826L43.8356 61.442L42.925 59.3001L41.0829 56.3081L37.4458 52.4989L30.797 50.1571L27.9105 49.4443L24.6574 48.6863L21.2948 48.0013L19.2268 47.4798L17.2666 46.6313L14.196 43.1942L6.49062 28.4757L5.39756 26.1078L4.37922 23.4339L5.04826 7.85824L5.46011 5.69723L6.32553 4.20556L7.99554 1.99412L9.84803 0.452039L10.776 0L11.4972 1.38912L15.7217 4.52546L18.0503 5.94411L22.3983 7.34362L27.0347 8.81445L30.6614 10.5113L32.9067 12.3124L34.4724 14.7707L35.8957 16.4171L38.9646 19.8108L40.9231 20.8209L43.0849 21.4363L45.1667 21.9526L51.6573 22.4255Z" stroke="black" stroke-opacity="0.2" stroke-width="4" mask="url(#path-1-inside-1_8891_6809)"/>
<path d="M51.6573 22.4255L55.2632 22.5281L58.148 22.4151L60.209 22.21L63.9383 23.3922L71.4802 28.5783L72.6758 30.7202L73.8089 32.7769L75.3538 37.1823L75.9411 39.9101L77.6111 43.2464L79.0726 45.4578L82.7706 48.043L86.4356 49.5538L90.5594 48.9314L93.1713 47.7475L95.8023 45.9272L97.2516 44.7607L103.954 45.4317L111.124 51.953L116.338 58.4726L121.553 61.0821L128.723 56.5167L132.92 53.6081L136.242 53.3439L141.723 53.3056L143.887 53.5942L150.586 55.0042L155.446 51.3011L164.572 49.3435L171.088 52.605L175 57.8206L174.348 64.3419L171.099 68.1337L171.818 69.7644L172.075 72.0107L171.931 73.9683L171.231 77.5114L170.675 81.1606L170.221 86.4371L169.893 90.8478L169.809 93.3635L170.014 96.2895L168.78 102.086L168.099 104.169L168.012 104.306L165.223 105.422L158.705 106.726L150.463 107.07L149.679 106.086L147.72 104.601L145.743 103.157L143.701 102.333L141.52 101.714L139.355 101.218L136.305 101.396L134.923 101.828L131.329 105.422L133.285 121.072V127.594L126.09 132.735L125.671 134.393L125.466 135.635L120.599 137.257L120.326 141.923V147.584L122.448 153.954L128.46 159.971L130.229 172.003L132.353 179.081L136.951 185.098L138.22 189.542H143.343L145.082 193.234L145.925 194.799L141.758 198.671L138.5 204.538L137.196 214.319L137.667 215.062L130.678 217.581L124.159 224.101L126.114 240.403L127.505 245.965L126.229 248.025L124.919 249L121.169 248.55L119.24 245.959L114.449 233.882L111.604 228.996L109.241 228.151L105.859 225.413L105.727 226.293L102.651 224.754L100.042 228.014L97.4358 233.231L94.1774 231.274L88.9623 229.318L81.7923 231.926L76.5789 230.622L70.0605 231.926L67.1914 232.246L67.5459 233.591H64.5899H59.9309H56.968L56.2937 231.868L54.8827 230.949L52.7087 231.051L51.8068 231.446L47.8985 225.406L51.1586 222.145L57.0236 220.189L64.1937 218.885L66.3347 218.349L66.3694 216.943L65.8481 214.471L67.4538 213.667L65.4971 206.494L62.8904 202.583L58.9804 196.713L51.1586 195.409L46.5952 192.15L40.7302 192.801L32.9084 196.061H32.003L31.1202 190.474L29.9559 183.093L27.238 180.762L24.3915 180.619L24.2473 180.105L21.0254 179.597L20.2486 171.828L19.8611 165.225L18.6968 160.951L18.2328 154.239L17.4925 153.886L15.0527 152.305L13.8866 149.899L11.9108 144.654L11.5997 140.763L13.5478 136.912L13.9718 134.807L12.837 132.702L6.24211 124.715L3.18187 119.339L2.06102 118.649L0.905378 117.328L0 114.647L0.123381 111.883L1.37981 108.292L2.57539 105.725L3.54507 98.3271L7.48812 94.989L11.3999 94.3371L19.2216 94.989L24.435 98.9007L28.3467 96.9449L32.2567 92.3812V89.158L32.9067 88.7859L33.6904 87.096L34.422 84.1805L35.0389 82.0768L36.2241 79.7176L37.6665 77.9652L39.4181 76.6474L42.1586 74.9471L44.8487 72.7426L46.4457 69.7123L45.2501 64.8826L43.8356 61.442L42.925 59.3001L41.0829 56.3081L37.4458 52.4989L30.797 50.1571L27.9105 49.4443L24.6574 48.6863L21.2948 48.0013L19.2268 47.4798L17.2666 46.6313L14.196 43.1942L6.49062 28.4757L5.39756 26.1078L4.37922 23.4339L5.04826 7.85824L5.46011 5.69723L6.32553 4.20556L7.99554 1.99412L9.84803 0.452039L10.776 0L11.4972 1.38912L15.7217 4.52546L18.0503 5.94411L22.3983 7.34362L27.0347 8.81445L30.6614 10.5113L32.9067 12.3124L34.4724 14.7707L35.8957 16.4171L38.9646 19.8108L40.9231 20.8209L43.0849 21.4363L45.1667 21.9526L51.6573 22.4255Z" stroke="black" stroke-opacity="0.2" stroke-width="4" mask="url(#path-1-inside-1_8891_6809)"/>
<path d="M51.6573 22.4255L55.2632 22.5281L58.148 22.4151L60.209 22.21L63.9383 23.3922L71.4802 28.5783L72.6758 30.7202L73.8089 32.7769L75.3538 37.1823L75.9411 39.9101L77.6111 43.2464L79.0726 45.4578L82.7706 48.043L86.4356 49.5538L90.5594 48.9314L93.1713 47.7475L95.8023 45.9272L97.2516 44.7607L103.954 45.4317L111.124 51.953L116.338 58.4726L121.553 61.0821L128.723 56.5167L132.92 53.6081L136.242 53.3439L141.723 53.3056L143.887 53.5942L150.586 55.0042L155.446 51.3011L164.572 49.3435L171.088 52.605L175 57.8206L174.348 64.3419L171.099 68.1337L171.818 69.7644L172.075 72.0107L171.931 73.9683L171.231 77.5114L170.675 81.1606L170.221 86.4371L169.893 90.8478L169.809 93.3635L170.014 96.2895L168.78 102.086L168.099 104.169L168.012 104.306L165.223 105.422L158.705 106.726L150.463 107.07L149.679 106.086L147.72 104.601L145.743 103.157L143.701 102.333L141.52 101.714L139.355 101.218L136.305 101.396L134.923 101.828L131.329 105.422L133.285 121.072V127.594L126.09 132.735L125.671 134.393L125.466 135.635L120.599 137.257L120.326 141.923V147.584L122.448 153.954L128.46 159.971L130.229 172.003L132.353 179.081L136.951 185.098L138.22 189.542H143.343L145.082 193.234L145.925 194.799L141.758 198.671L138.5 204.538L137.196 214.319L137.667 215.062L130.678 217.581L124.159 224.101L126.114 240.403L127.505 245.965L126.229 248.025L124.919 249L121.169 248.55L119.24 245.959L114.449 233.882L111.604 228.996L109.241 228.151L105.859 225.413L105.727 226.293L102.651 224.754L100.042 228.014L97.4358 233.231L94.1774 231.274L88.9623 229.318L81.7923 231.926L76.5789 230.622L70.0605 231.926L67.1914 232.246L67.5459 233.591H64.5899H59.9309H56.968L56.2937 231.868L54.8827 230.949L52.7087 231.051L51.8068 231.446L47.8985 225.406L51.1586 222.145L57.0236 220.189L64.1937 218.885L66.3347 218.349L66.3694 216.943L65.8481 214.471L67.4538 213.667L65.4971 206.494L62.8904 202.583L58.9804 196.713L51.1586 195.409L46.5952 192.15L40.7302 192.801L32.9084 196.061H32.003L31.1202 190.474L29.9559 183.093L27.238 180.762L24.3915 180.619L24.2473 180.105L21.0254 179.597L20.2486 171.828L19.8611 165.225L18.6968 160.951L18.2328 154.239L17.4925 153.886L15.0527 152.305L13.8866 149.899L11.9108 144.654L11.5997 140.763L13.5478 136.912L13.9718 134.807L12.837 132.702L6.24211 124.715L3.18187 119.339L2.06102 118.649L0.905378 117.328L0 114.647L0.123381 111.883L1.37981 108.292L2.57539 105.725L3.54507 98.3271L7.48812 94.989L11.3999 94.3371L19.2216 94.989L24.435 98.9007L28.3467 96.9449L32.2567 92.3812V89.158L32.9067 88.7859L33.6904 87.096L34.422 84.1805L35.0389 82.0768L36.2241 79.7176L37.6665 77.9652L39.4181 76.6474L42.1586 74.9471L44.8487 72.7426L46.4457 69.7123L45.2501 64.8826L43.8356 61.442L42.925 59.3001L41.0829 56.3081L37.4458 52.4989L30.797 50.1571L27.9105 49.4443L24.6574 48.6863L21.2948 48.0013L19.2268 47.4798L17.2666 46.6313L14.196 43.1942L6.49062 28.4757L5.39756 26.1078L4.37922 23.4339L5.04826 7.85824L5.46011 5.69723L6.32553 4.20556L7.99554 1.99412L9.84803 0.452039L10.776 0L11.4972 1.38912L15.7217 4.52546L18.0503 5.94411L22.3983 7.34362L27.0347 8.81445L30.6614 10.5113L32.9067 12.3124L34.4724 14.7707L35.8957 16.4171L38.9646 19.8108L40.9231 20.8209L43.0849 21.4363L45.1667 21.9526L51.6573 22.4255Z" stroke="black" stroke-opacity="0.2" stroke-width="4" mask="url(#path-1-inside-1_8891_6809)"/>
<path d="M51.6573 22.4255L55.2632 22.5281L58.148 22.4151L60.209 22.21L63.9383 23.3922L71.4802 28.5783L72.6758 30.7202L73.8089 32.7769L75.3538 37.1823L75.9411 39.9101L77.6111 43.2464L79.0726 45.4578L82.7706 48.043L86.4356 49.5538L90.5594 48.9314L93.1713 47.7475L95.8023 45.9272L97.2516 44.7607L103.954 45.4317L111.124 51.953L116.338 58.4726L121.553 61.0821L128.723 56.5167L132.92 53.6081L136.242 53.3439L141.723 53.3056L143.887 53.5942L150.586 55.0042L155.446 51.3011L164.572 49.3435L171.088 52.605L175 57.8206L174.348 64.3419L171.099 68.1337L171.818 69.7644L172.075 72.0107L171.931 73.9683L171.231 77.5114L170.675 81.1606L170.221 86.4371L169.893 90.8478L169.809 93.3635L170.014 96.2895L168.78 102.086L168.099 104.169L168.012 104.306L165.223 105.422L158.705 106.726L150.463 107.07L149.679 106.086L147.72 104.601L145.743 103.157L143.701 102.333L141.52 101.714L139.355 101.218L136.305 101.396L134.923 101.828L131.329 105.422L133.285 121.072V127.594L126.09 132.735L125.671 134.393L125.466 135.635L120.599 137.257L120.326 141.923V147.584L122.448 153.954L128.46 159.971L130.229 172.003L132.353 179.081L136.951 185.098L138.22 189.542H143.343L145.082 193.234L145.925 194.799L141.758 198.671L138.5 204.538L137.196 214.319L137.667 215.062L130.678 217.581L124.159 224.101L126.114 240.403L127.505 245.965L126.229 248.025L124.919 249L121.169 248.55L119.24 245.959L114.449 233.882L111.604 228.996L109.241 228.151L105.859 225.413L105.727 226.293L102.651 224.754L100.042 228.014L97.4358 233.231L94.1774 231.274L88.9623 229.318L81.7923 231.926L76.5789 230.622L70.0605 231.926L67.1914 232.246L67.5459 233.591H64.5899H59.9309H56.968L56.2937 231.868L54.8827 230.949L52.7087 231.051L51.8068 231.446L47.8985 225.406L51.1586 222.145L57.0236 220.189L64.1937 218.885L66.3347 218.349L66.3694 216.943L65.8481 214.471L67.4538 213.667L65.4971 206.494L62.8904 202.583L58.9804 196.713L51.1586 195.409L46.5952 192.15L40.7302 192.801L32.9084 196.061H32.003L31.1202 190.474L29.9559 183.093L27.238 180.762L24.3915 180.619L24.2473 180.105L21.0254 179.597L20.2486 171.828L19.8611 165.225L18.6968 160.951L18.2328 154.239L17.4925 153.886L15.0527 152.305L13.8866 149.899L11.9108 144.654L11.5997 140.763L13.5478 136.912L13.9718 134.807L12.837 132.702L6.24211 124.715L3.18187 119.339L2.06102 118.649L0.905378 117.328L0 114.647L0.123381 111.883L1.37981 108.292L2.57539 105.725L3.54507 98.3271L7.48812 94.989L11.3999 94.3371L19.2216 94.989L24.435 98.9007L28.3467 96.9449L32.2567 92.3812V89.158L32.9067 88.7859L33.6904 87.096L34.422 84.1805L35.0389 82.0768L36.2241 79.7176L37.6665 77.9652L39.4181 76.6474L42.1586 74.9471L44.8487 72.7426L46.4457 69.7123L45.2501 64.8826L43.8356 61.442L42.925 59.3001L41.0829 56.3081L37.4458 52.4989L30.797 50.1571L27.9105 49.4443L24.6574 48.6863L21.2948 48.0013L19.2268 47.4798L17.2666 46.6313L14.196 43.1942L6.49062 28.4757L5.39756 26.1078L4.37922 23.4339L5.04826 7.85824L5.46011 5.69723L6.32553 4.20556L7.99554 1.99412L9.84803 0.452039L10.776 0L11.4972 1.38912L15.7217 4.52546L18.0503 5.94411L22.3983 7.34362L27.0347 8.81445L30.6614 10.5113L32.9067 12.3124L34.4724 14.7707L35.8957 16.4171L38.9646 19.8108L40.9231 20.8209L43.0849 21.4363L45.1667 21.9526L51.6573 22.4255Z" stroke="black" stroke-opacity="0.2" stroke-width="4" mask="url(#path-1-inside-1_8891_6809)"/>
<path d="M51.6573 22.4255L55.2632 22.5281L58.148 22.4151L60.209 22.21L63.9383 23.3922L71.4802 28.5783L72.6758 30.7202L73.8089 32.7769L75.3538 37.1823L75.9411 39.9101L77.6111 43.2464L79.0726 45.4578L82.7706 48.043L86.4356 49.5538L90.5594 48.9314L93.1713 47.7475L95.8023 45.9272L97.2516 44.7607L103.954 45.4317L111.124 51.953L116.338 58.4726L121.553 61.0821L128.723 56.5167L132.92 53.6081L136.242 53.3439L141.723 53.3056L143.887 53.5942L150.586 55.0042L155.446 51.3011L164.572 49.3435L171.088 52.605L175 57.8206L174.348 64.3419L171.099 68.1337L171.818 69.7644L172.075 72.0107L171.931 73.9683L171.231 77.5114L170.675 81.1606L170.221 86.4371L169.893 90.8478L169.809 93.3635L170.014 96.2895L168.78 102.086L168.099 104.169L168.012 104.306L165.223 105.422L158.705 106.726L150.463 107.07L149.679 106.086L147.72 104.601L145.743 103.157L143.701 102.333L141.52 101.714L139.355 101.218L136.305 101.396L134.923 101.828L131.329 105.422L133.285 121.072V127.594L126.09 132.735L125.671 134.393L125.466 135.635L120.599 137.257L120.326 141.923V147.584L122.448 153.954L128.46 159.971L130.229 172.003L132.353 179.081L136.951 185.098L138.22 189.542H143.343L145.082 193.234L145.925 194.799L141.758 198.671L138.5 204.538L137.196 214.319L137.667 215.062L130.678 217.581L124.159 224.101L126.114 240.403L127.505 245.965L126.229 248.025L124.919 249L121.169 248.55L119.24 245.959L114.449 233.882L111.604 228.996L109.241 228.151L105.859 225.413L105.727 226.293L102.651 224.754L100.042 228.014L97.4358 233.231L94.1774 231.274L88.9623 229.318L81.7923 231.926L76.5789 230.622L70.0605 231.926L67.1914 232.246L67.5459 233.591H64.5899H59.9309H56.968L56.2937 231.868L54.8827 230.949L52.7087 231.051L51.8068 231.446L47.8985 225.406L51.1586 222.145L57.0236 220.189L64.1937 218.885L66.3347 218.349L66.3694 216.943L65.8481 214.471L67.4538 213.667L65.4971 206.494L62.8904 202.583L58.9804 196.713L51.1586 195.409L46.5952 192.15L40.7302 192.801L32.9084 196.061H32.003L31.1202 190.474L29.9559 183.093L27.238 180.762L24.3915 180.619L24.2473 180.105L21.0254 179.597L20.2486 171.828L19.8611 165.225L18.6968 160.951L18.2328 154.239L17.4925 153.886L15.0527 152.305L13.8866 149.899L11.9108 144.654L11.5997 140.763L13.5478 136.912L13.9718 134.807L12.837 132.702L6.24211 124.715L3.18187 119.339L2.06102 118.649L0.905378 117.328L0 114.647L0.123381 111.883L1.37981 108.292L2.57539 105.725L3.54507 98.3271L7.48812 94.989L11.3999 94.3371L19.2216 94.989L24.435 98.9007L28.3467 96.9449L32.2567 92.3812V89.158L32.9067 88.7859L33.6904 87.096L34.422 84.1805L35.0389 82.0768L36.2241 79.7176L37.6665 77.9652L39.4181 76.6474L42.1586 74.9471L44.8487 72.7426L46.4457 69.7123L45.2501 64.8826L43.8356 61.442L42.925 59.3001L41.0829 56.3081L37.4458 52.4989L30.797 50.1571L27.9105 49.4443L24.6574 48.6863L21.2948 48.0013L19.2268 47.4798L17.2666 46.6313L14.196 43.1942L6.49062 28.4757L5.39756 26.1078L4.37922 23.4339L5.04826 7.85824L5.46011 5.69723L6.32553 4.20556L7.99554 1.99412L9.84803 0.452039L10.776 0L11.4972 1.38912L15.7217 4.52546L18.0503 5.94411L22.3983 7.34362L27.0347 8.81445L30.6614 10.5113L32.9067 12.3124L34.4724 14.7707L35.8957 16.4171L38.9646 19.8108L40.9231 20.8209L43.0849 21.4363L45.1667 21.9526L51.6573 22.4255Z" stroke="black" stroke-opacity="0.2" stroke-width="4" mask="url(#path-1-inside-1_8891_6809)"/>
</svg>
