<svg width="220" height="249" viewBox="0 0 220 249" fill="none" xmlns="http://www.w3.org/2000/svg">
<rect width="220" height="249" fill="white"/>
<path d="M74.8862 25.705L78.3685 25.8043L81.1543 25.6949L83.1447 25.4964L86.7461 26.6406L94.0295 31.6601L95.1841 33.7332L96.2783 35.7238L97.7702 39.9877L98.3374 42.6279L99.9502 45.8569L101.362 47.9973L104.933 50.4995L108.472 51.9617L112.454 51.3593L114.977 50.2134L117.518 48.4517L118.917 47.3226L125.39 47.9721L132.314 54.2838L137.349 60.5939L142.385 63.1197L149.309 58.7009L153.362 55.8858L156.571 55.63L161.864 55.593L163.953 55.8723L170.423 57.237L175.117 53.6528L183.929 51.7581L190.222 54.9148L194 59.9629L193.371 66.2747L190.232 69.9447L190.927 71.523L191.176 73.6971L191.036 75.5918L190.36 79.0211L189.823 82.5531L189.385 87.66L189.068 91.929L188.987 94.3639L189.185 97.1958L187.994 102.806L187.336 104.822L187.252 104.955L184.558 106.035L178.263 107.297L170.304 107.63L169.547 106.678L167.656 105.241L165.746 103.842L163.774 103.045L161.668 102.446L159.577 101.966L156.631 102.138L155.297 102.557L151.827 106.035L153.715 121.183V127.494L146.767 132.47L146.363 134.075L146.165 135.277L141.464 136.847L141.2 141.363V146.842L143.249 153.007L149.056 158.831L150.764 170.477L152.815 177.327L157.256 183.151L158.481 187.452H163.428L165.108 191.026L165.922 192.54L161.898 196.288L158.751 201.967L157.492 211.434L157.947 212.152L151.197 214.59L144.903 220.901L146.79 236.679L148.133 242.062L146.901 244.056L145.636 245L142.014 244.564L140.152 242.057L135.525 230.367L132.777 225.639L130.495 224.821L127.229 222.171L127.102 223.022L124.131 221.533L121.612 224.688L119.095 229.738L115.948 227.843L110.912 225.95L103.988 228.474L98.9533 227.212L92.6584 228.474L89.8877 228.784L90.23 230.086H87.3754H82.8762H80.0148L79.3637 228.419L78.001 227.529L75.9015 227.628L75.0306 228.01L71.2563 222.164L74.4046 219.007L80.0685 217.114L86.9928 215.852L89.0603 215.334L89.0939 213.973L88.5904 211.58L90.1411 210.803L88.2514 203.86L85.7341 200.074L81.9582 194.393L74.4046 193.131L69.9976 189.976L64.3337 190.607L56.7801 193.762H55.9058L55.0533 188.354L53.9289 181.211L51.3041 178.954L48.5552 178.816L48.416 178.318L45.3046 177.827L44.5544 170.307L44.1802 163.916L43.0558 159.78L42.6077 153.283L41.8928 152.942L39.5366 151.412L38.4105 149.083L36.5024 144.007L36.202 140.241L38.0833 136.514L38.4927 134.476L37.3969 132.438L31.0281 124.708L28.0728 119.505L26.9904 118.837L25.8743 117.558L25 114.963L25.1192 112.288L26.3325 108.813L27.4871 106.328L28.4235 99.168L32.2314 95.9372L36.009 95.3062L43.5626 95.9372L48.5972 99.7232L52.3748 97.8302L56.1508 93.4131V90.2935L56.7784 89.9333L57.5353 88.2978L58.2418 85.4759L58.8376 83.4398L59.9821 81.1564L61.375 79.4603L63.0667 78.1848L65.7132 76.5391L68.311 74.4055L69.8533 71.4725L68.6987 66.798L67.3327 63.468L66.4533 61.3949L64.6744 58.499L61.1619 54.8122L54.7411 52.5456L51.9536 51.8557L48.812 51.1221L45.5647 50.4591L43.5676 49.9543L41.6746 49.1331L38.7092 45.8065L31.2681 31.5608L30.2125 29.269L29.2291 26.681L29.8752 11.6058L30.2729 9.51419L31.1087 8.07044L32.7214 5.93005L34.5104 4.43752L35.4065 4L36.103 5.34449L40.1827 8.38006L42.4315 9.75313L46.6304 11.1077L51.1078 12.5313L54.6102 14.1736L56.7784 15.9168L58.2905 18.2961L59.665 19.8897L62.6286 23.1743L64.52 24.1519L66.6077 24.7476L68.6181 25.2473L74.8862 25.705Z" fill="#E9ECF2" stroke="#8F959D" stroke-width="2"/>
</svg>
