<svg width="220" height="249" viewBox="0 0 220 249" fill="none" xmlns="http://www.w3.org/2000/svg">
<rect width="220" height="249" fill="white"/>
<path d="M112.908 20L118.87 23.3252L120.195 32.6287V37.0813L122.407 37.5095L124.171 41.9294L130.794 39.9395L134.717 39.7195L147.362 61.2502L149.508 63.6505L161.53 72.4367L172.283 78.0341L185.471 84.7887L188.071 84.8989L192.568 83.9411L195.198 83.138L203.47 84.1998L210.71 91.1389L214.825 95.2523L214.893 101.608L215 111.971L198.513 126.821L191.691 132.928L190.71 132.856L189.085 135.301L180.475 136.628L177.163 141.282L178.486 150.586L181.139 157.23L184.451 171.849L185.112 185.141L179.811 197.101L173.188 209.063L160.602 221.026L140.729 225.011L119.531 226.341L106.285 229L102.973 225.678L101.461 222.834L100.37 223.816L99.1129 222.477L85.4927 210.571L80.0405 206.88L76.8237 205.53L71.7984 204.551L69.48 203.225L59.7229 194.483L38.2787 174.939L35.0085 170.005L30.5288 166.302L23.0931 161.864L13.1078 158.804L4 152.246H9.57379L18.1835 146.928L29.4466 142.279L36.731 135.631L43.3544 120.349V114.118L45.7677 110.647L50.0192 102.123L56.1385 90.0028L60.5678 81.6689L63.1146 77.7963L65.187 76.2556L69.4444 75.1165L73.853 73.4092L76.631 71.6484L84.6122 62.33L91.7484 53.4934L91.8551 49.6089L90.939 47.057L88.8311 42.0543L89.3588 38.39L92.451 28.7562L96.6729 23.3728L100.714 21.0856L107.147 20.9011L107.981 21.3503L112.908 20Z" fill="#E9ECF2" stroke="#8F959D" stroke-width="2"/>
</svg>
