<svg width="220" height="217" viewBox="0 0 220 217" fill="none" xmlns="http://www.w3.org/2000/svg">
<path d="M100.951 209.854L100.539 210.222L99.8973 209.542L99.8635 209.506L99.8264 209.473L85.6253 197.112L85.5788 197.071L85.5277 197.037L79.8429 193.204L79.7608 193.149L79.6696 193.111L76.3156 191.709L76.221 191.669L76.1203 191.65L71.0423 190.665L68.8599 189.422L58.7717 180.422L58.7654 180.416L36.5046 160.213L33.1637 155.193L33.0814 155.069L32.9667 154.975L28.2959 151.13L28.2369 151.081L28.1712 151.042L20.4184 146.435L20.3148 146.373L20.1995 146.338L9.94541 143.208L3.11064 138.308H5.81153H6.09445L6.33544 138.159L15.2434 132.68L26.9121 127.884L27.0746 127.818L27.2045 127.699L34.7997 120.797L34.9585 120.653L35.0441 120.456L41.9499 104.589L42.033 104.399V104.19V98.0354L44.3692 94.6895L44.4108 94.6299L44.4434 94.5648L48.874 85.7186L48.8763 85.7142L55.2496 73.144L59.8409 64.5415L62.3731 60.7072L64.2386 59.3262L68.4934 58.1925L68.5454 58.1786L68.5957 58.1592L73.1924 56.3865L73.2836 56.3514L73.3663 56.2992L76.2627 54.4711L76.3894 54.3911L76.4871 54.2775L84.8088 44.6024L84.8182 44.5914L84.8273 44.5802L92.2679 35.4053L92.4814 35.142L92.4908 34.803L92.6021 30.7698L92.6073 30.5809L92.5432 30.4031L91.5881 27.7536L91.5789 27.728L91.5683 27.703L89.4791 22.7656L89.9773 19.3204L93.1205 9.56904L97.289 4.27592L101.115 2.11968L107.309 1.94284L107.943 2.28302L108.294 2.47168L108.679 2.36668L113.424 1.07192L118.85 4.08562L120.152 13.1833V17.7351V18.5607L120.962 18.717L122.732 19.0583L124.369 23.1408L124.709 23.9886L125.584 23.7268L132.376 21.6946L135.74 21.5067L148.615 43.3372L148.666 43.4231L148.732 43.4974L150.971 45.9895L151.041 46.0679L151.126 46.1299L163.661 55.2524L163.722 55.2968L163.789 55.3316L175.001 61.1434L175.007 61.1464L188.757 68.1595L188.951 68.2586L189.169 68.2678L191.88 68.3822L192.006 68.3875L192.13 68.3613L196.819 67.3669L196.861 67.3579L196.903 67.3454L199.439 66.5739L207.525 67.6075L214.821 74.5706L214.836 74.5853L218.822 78.5528L218.889 84.7425V84.743L218.995 95.049L202.144 110.164L202.142 110.166L195.347 116.222L194.746 116.179L194.165 116.137L193.842 116.621L192.392 118.793L183.851 120.103L183.434 120.167L183.189 120.51L179.736 125.343L179.503 125.669L179.56 126.066L180.938 135.726L180.955 135.845L181 135.957L183.737 142.782L187.153 157.798L187.827 171.274L182.415 183.433L175.605 195.68L162.804 207.796L142.432 211.865L120.397 213.241L120.329 213.245L120.263 213.259L106.976 215.915L104.007 212.948L102.5 210.127L101.9 209.003L100.951 209.854Z" fill="#E9ECF2"/>
<path d="M100.951 209.854L100.539 210.222L99.8973 209.542L99.8635 209.506L99.8264 209.473L85.6253 197.112L85.5788 197.071L85.5277 197.037L79.8429 193.204L79.7608 193.149L79.6696 193.111L76.3156 191.709L76.221 191.669L76.1203 191.65L71.0423 190.665L68.8599 189.422L58.7717 180.422L58.7654 180.416L36.5046 160.213L33.1637 155.193L33.0814 155.069L32.9667 154.975L28.2959 151.13L28.2369 151.081L28.1712 151.042L20.4184 146.435L20.3148 146.373L20.1995 146.338L9.94541 143.208L3.11064 138.308H5.81153H6.09445L6.33544 138.159L15.2434 132.68L26.9121 127.884L27.0746 127.818L27.2045 127.699L34.7997 120.797L34.9585 120.653L35.0441 120.456L41.9499 104.589L42.033 104.399V104.19V98.0354L44.3692 94.6895L44.4108 94.6299L44.4434 94.5648L48.874 85.7186L48.8763 85.7142L55.2496 73.144L59.8409 64.5415L62.3731 60.7072L64.2386 59.3262L68.4934 58.1925L68.5454 58.1786L68.5957 58.1592L73.1924 56.3865L73.2836 56.3514L73.3663 56.2992L76.2627 54.4711L76.3894 54.3911L76.4871 54.2775L84.8088 44.6024L84.8182 44.5914L84.8273 44.5802L92.2679 35.4053L92.4814 35.142L92.4908 34.803L92.6021 30.7698L92.6073 30.5809L92.5432 30.4031L91.5881 27.7536L91.5789 27.728L91.5683 27.703L89.4791 22.7656L89.9773 19.3204L93.1205 9.56904L97.289 4.27592L101.115 2.11968L107.309 1.94284L107.943 2.28302L108.294 2.47168L108.679 2.36668L113.424 1.07192L118.85 4.08562L120.152 13.1833V17.7351V18.5607L120.962 18.717L122.732 19.0583L124.369 23.1408L124.709 23.9886L125.584 23.7268L132.376 21.6946L135.74 21.5067L148.615 43.3372L148.666 43.4231L148.732 43.4974L150.971 45.9895L151.041 46.0679L151.126 46.1299L163.661 55.2524L163.722 55.2968L163.789 55.3316L175.001 61.1434L175.007 61.1464L188.757 68.1595L188.951 68.2586L189.169 68.2678L191.88 68.3822L192.006 68.3875L192.13 68.3613L196.819 67.3669L196.861 67.3579L196.903 67.3454L199.439 66.5739L207.525 67.6075L214.821 74.5706L214.836 74.5853L218.822 78.5528L218.889 84.7425V84.743L218.995 95.049L202.144 110.164L202.142 110.166L195.347 116.222L194.746 116.179L194.165 116.137L193.842 116.621L192.392 118.793L183.851 120.103L183.434 120.167L183.189 120.51L179.736 125.343L179.503 125.669L179.56 126.066L180.938 135.726L180.955 135.845L181 135.957L183.737 142.782L187.153 157.798L187.827 171.274L182.415 183.433L175.605 195.68L162.804 207.796L142.432 211.865L120.397 213.241L120.329 213.245L120.263 213.259L106.976 215.915L104.007 212.948L102.5 210.127L101.9 209.003L100.951 209.854Z" stroke="#8F959D" stroke-width="2"/>
<path d="M100.951 209.854L100.539 210.222L99.8973 209.542L99.8635 209.506L99.8264 209.473L85.6253 197.112L85.5788 197.071L85.5277 197.037L79.8429 193.204L79.7608 193.149L79.6696 193.111L76.3156 191.709L76.221 191.669L76.1203 191.65L71.0423 190.665L68.8599 189.422L58.7717 180.422L58.7654 180.416L36.5046 160.213L33.1637 155.193L33.0814 155.069L32.9667 154.975L28.2959 151.13L28.2369 151.081L28.1712 151.042L20.4184 146.435L20.3148 146.373L20.1995 146.338L9.94541 143.208L3.11064 138.308H5.81153H6.09445L6.33544 138.159L15.2434 132.68L26.9121 127.884L27.0746 127.818L27.2045 127.699L34.7997 120.797L34.9585 120.653L35.0441 120.456L41.9499 104.589L42.033 104.399V104.19V98.0354L44.3692 94.6895L44.4108 94.6299L44.4434 94.5648L48.874 85.7186L48.8763 85.7142L55.2496 73.144L59.8409 64.5415L62.3731 60.7072L64.2386 59.3262L68.4934 58.1925L68.5454 58.1786L68.5957 58.1592L73.1924 56.3865L73.2836 56.3514L73.3663 56.2992L76.2627 54.4711L76.3894 54.3911L76.4871 54.2775L84.8088 44.6024L84.8182 44.5914L84.8273 44.5802L92.2679 35.4053L92.4814 35.142L92.4908 34.803L92.6021 30.7698L92.6073 30.5809L92.5432 30.4031L91.5881 27.7536L91.5789 27.728L91.5683 27.703L89.4791 22.7656L89.9773 19.3204L93.1205 9.56904L97.289 4.27592L101.115 2.11968L107.309 1.94284L107.943 2.28302L108.294 2.47168L108.679 2.36668L113.424 1.07192L118.85 4.08562L120.152 13.1833V17.7351V18.5607L120.962 18.717L122.732 19.0583L124.369 23.1408L124.709 23.9886L125.584 23.7268L132.376 21.6946L135.74 21.5067L148.615 43.3372L148.666 43.4231L148.732 43.4974L150.971 45.9895L151.041 46.0679L151.126 46.1299L163.661 55.2524L163.722 55.2968L163.789 55.3316L175.001 61.1434L175.007 61.1464L188.757 68.1595L188.951 68.2586L189.169 68.2678L191.88 68.3822L192.006 68.3875L192.13 68.3613L196.819 67.3669L196.861 67.3579L196.903 67.3454L199.439 66.5739L207.525 67.6075L214.821 74.5706L214.836 74.5853L218.822 78.5528L218.889 84.7425V84.743L218.995 95.049L202.144 110.164L202.142 110.166L195.347 116.222L194.746 116.179L194.165 116.137L193.842 116.621L192.392 118.793L183.851 120.103L183.434 120.167L183.189 120.51L179.736 125.343L179.503 125.669L179.56 126.066L180.938 135.726L180.955 135.845L181 135.957L183.737 142.782L187.153 157.798L187.827 171.274L182.415 183.433L175.605 195.68L162.804 207.796L142.432 211.865L120.397 213.241L120.329 213.245L120.263 213.259L106.976 215.915L104.007 212.948L102.5 210.127L101.9 209.003L100.951 209.854Z" stroke="black" stroke-opacity="0.2" stroke-width="2"/>
<path d="M100.951 209.854L100.539 210.222L99.8973 209.542L99.8635 209.506L99.8264 209.473L85.6253 197.112L85.5788 197.071L85.5277 197.037L79.8429 193.204L79.7608 193.149L79.6696 193.111L76.3156 191.709L76.221 191.669L76.1203 191.65L71.0423 190.665L68.8599 189.422L58.7717 180.422L58.7654 180.416L36.5046 160.213L33.1637 155.193L33.0814 155.069L32.9667 154.975L28.2959 151.13L28.2369 151.081L28.1712 151.042L20.4184 146.435L20.3148 146.373L20.1995 146.338L9.94541 143.208L3.11064 138.308H5.81153H6.09445L6.33544 138.159L15.2434 132.68L26.9121 127.884L27.0746 127.818L27.2045 127.699L34.7997 120.797L34.9585 120.653L35.0441 120.456L41.9499 104.589L42.033 104.399V104.19V98.0354L44.3692 94.6895L44.4108 94.6299L44.4434 94.5648L48.874 85.7186L48.8763 85.7142L55.2496 73.144L59.8409 64.5415L62.3731 60.7072L64.2386 59.3262L68.4934 58.1925L68.5454 58.1786L68.5957 58.1592L73.1924 56.3865L73.2836 56.3514L73.3663 56.2992L76.2627 54.4711L76.3894 54.3911L76.4871 54.2775L84.8088 44.6024L84.8182 44.5914L84.8273 44.5802L92.2679 35.4053L92.4814 35.142L92.4908 34.803L92.6021 30.7698L92.6073 30.5809L92.5432 30.4031L91.5881 27.7536L91.5789 27.728L91.5683 27.703L89.4791 22.7656L89.9773 19.3204L93.1205 9.56904L97.289 4.27592L101.115 2.11968L107.309 1.94284L107.943 2.28302L108.294 2.47168L108.679 2.36668L113.424 1.07192L118.85 4.08562L120.152 13.1833V17.7351V18.5607L120.962 18.717L122.732 19.0583L124.369 23.1408L124.709 23.9886L125.584 23.7268L132.376 21.6946L135.74 21.5067L148.615 43.3372L148.666 43.4231L148.732 43.4974L150.971 45.9895L151.041 46.0679L151.126 46.1299L163.661 55.2524L163.722 55.2968L163.789 55.3316L175.001 61.1434L175.007 61.1464L188.757 68.1595L188.951 68.2586L189.169 68.2678L191.88 68.3822L192.006 68.3875L192.13 68.3613L196.819 67.3669L196.861 67.3579L196.903 67.3454L199.439 66.5739L207.525 67.6075L214.821 74.5706L214.836 74.5853L218.822 78.5528L218.889 84.7425V84.743L218.995 95.049L202.144 110.164L202.142 110.166L195.347 116.222L194.746 116.179L194.165 116.137L193.842 116.621L192.392 118.793L183.851 120.103L183.434 120.167L183.189 120.51L179.736 125.343L179.503 125.669L179.56 126.066L180.938 135.726L180.955 135.845L181 135.957L183.737 142.782L187.153 157.798L187.827 171.274L182.415 183.433L175.605 195.68L162.804 207.796L142.432 211.865L120.397 213.241L120.329 213.245L120.263 213.259L106.976 215.915L104.007 212.948L102.5 210.127L101.9 209.003L100.951 209.854Z" stroke="black" stroke-opacity="0.2" stroke-width="2"/>
<path d="M100.951 209.854L100.539 210.222L99.8973 209.542L99.8635 209.506L99.8264 209.473L85.6253 197.112L85.5788 197.071L85.5277 197.037L79.8429 193.204L79.7608 193.149L79.6696 193.111L76.3156 191.709L76.221 191.669L76.1203 191.65L71.0423 190.665L68.8599 189.422L58.7717 180.422L58.7654 180.416L36.5046 160.213L33.1637 155.193L33.0814 155.069L32.9667 154.975L28.2959 151.13L28.2369 151.081L28.1712 151.042L20.4184 146.435L20.3148 146.373L20.1995 146.338L9.94541 143.208L3.11064 138.308H5.81153H6.09445L6.33544 138.159L15.2434 132.68L26.9121 127.884L27.0746 127.818L27.2045 127.699L34.7997 120.797L34.9585 120.653L35.0441 120.456L41.9499 104.589L42.033 104.399V104.19V98.0354L44.3692 94.6895L44.4108 94.6299L44.4434 94.5648L48.874 85.7186L48.8763 85.7142L55.2496 73.144L59.8409 64.5415L62.3731 60.7072L64.2386 59.3262L68.4934 58.1925L68.5454 58.1786L68.5957 58.1592L73.1924 56.3865L73.2836 56.3514L73.3663 56.2992L76.2627 54.4711L76.3894 54.3911L76.4871 54.2775L84.8088 44.6024L84.8182 44.5914L84.8273 44.5802L92.2679 35.4053L92.4814 35.142L92.4908 34.803L92.6021 30.7698L92.6073 30.5809L92.5432 30.4031L91.5881 27.7536L91.5789 27.728L91.5683 27.703L89.4791 22.7656L89.9773 19.3204L93.1205 9.56904L97.289 4.27592L101.115 2.11968L107.309 1.94284L107.943 2.28302L108.294 2.47168L108.679 2.36668L113.424 1.07192L118.85 4.08562L120.152 13.1833V17.7351V18.5607L120.962 18.717L122.732 19.0583L124.369 23.1408L124.709 23.9886L125.584 23.7268L132.376 21.6946L135.74 21.5067L148.615 43.3372L148.666 43.4231L148.732 43.4974L150.971 45.9895L151.041 46.0679L151.126 46.1299L163.661 55.2524L163.722 55.2968L163.789 55.3316L175.001 61.1434L175.007 61.1464L188.757 68.1595L188.951 68.2586L189.169 68.2678L191.88 68.3822L192.006 68.3875L192.13 68.3613L196.819 67.3669L196.861 67.3579L196.903 67.3454L199.439 66.5739L207.525 67.6075L214.821 74.5706L214.836 74.5853L218.822 78.5528L218.889 84.7425V84.743L218.995 95.049L202.144 110.164L202.142 110.166L195.347 116.222L194.746 116.179L194.165 116.137L193.842 116.621L192.392 118.793L183.851 120.103L183.434 120.167L183.189 120.51L179.736 125.343L179.503 125.669L179.56 126.066L180.938 135.726L180.955 135.845L181 135.957L183.737 142.782L187.153 157.798L187.827 171.274L182.415 183.433L175.605 195.68L162.804 207.796L142.432 211.865L120.397 213.241L120.329 213.245L120.263 213.259L106.976 215.915L104.007 212.948L102.5 210.127L101.9 209.003L100.951 209.854Z" stroke="black" stroke-opacity="0.2" stroke-width="2"/>
<path d="M100.951 209.854L100.539 210.222L99.8973 209.542L99.8635 209.506L99.8264 209.473L85.6253 197.112L85.5788 197.071L85.5277 197.037L79.8429 193.204L79.7608 193.149L79.6696 193.111L76.3156 191.709L76.221 191.669L76.1203 191.65L71.0423 190.665L68.8599 189.422L58.7717 180.422L58.7654 180.416L36.5046 160.213L33.1637 155.193L33.0814 155.069L32.9667 154.975L28.2959 151.13L28.2369 151.081L28.1712 151.042L20.4184 146.435L20.3148 146.373L20.1995 146.338L9.94541 143.208L3.11064 138.308H5.81153H6.09445L6.33544 138.159L15.2434 132.68L26.9121 127.884L27.0746 127.818L27.2045 127.699L34.7997 120.797L34.9585 120.653L35.0441 120.456L41.9499 104.589L42.033 104.399V104.19V98.0354L44.3692 94.6895L44.4108 94.6299L44.4434 94.5648L48.874 85.7186L48.8763 85.7142L55.2496 73.144L59.8409 64.5415L62.3731 60.7072L64.2386 59.3262L68.4934 58.1925L68.5454 58.1786L68.5957 58.1592L73.1924 56.3865L73.2836 56.3514L73.3663 56.2992L76.2627 54.4711L76.3894 54.3911L76.4871 54.2775L84.8088 44.6024L84.8182 44.5914L84.8273 44.5802L92.2679 35.4053L92.4814 35.142L92.4908 34.803L92.6021 30.7698L92.6073 30.5809L92.5432 30.4031L91.5881 27.7536L91.5789 27.728L91.5683 27.703L89.4791 22.7656L89.9773 19.3204L93.1205 9.56904L97.289 4.27592L101.115 2.11968L107.309 1.94284L107.943 2.28302L108.294 2.47168L108.679 2.36668L113.424 1.07192L118.85 4.08562L120.152 13.1833V17.7351V18.5607L120.962 18.717L122.732 19.0583L124.369 23.1408L124.709 23.9886L125.584 23.7268L132.376 21.6946L135.74 21.5067L148.615 43.3372L148.666 43.4231L148.732 43.4974L150.971 45.9895L151.041 46.0679L151.126 46.1299L163.661 55.2524L163.722 55.2968L163.789 55.3316L175.001 61.1434L175.007 61.1464L188.757 68.1595L188.951 68.2586L189.169 68.2678L191.88 68.3822L192.006 68.3875L192.13 68.3613L196.819 67.3669L196.861 67.3579L196.903 67.3454L199.439 66.5739L207.525 67.6075L214.821 74.5706L214.836 74.5853L218.822 78.5528L218.889 84.7425V84.743L218.995 95.049L202.144 110.164L202.142 110.166L195.347 116.222L194.746 116.179L194.165 116.137L193.842 116.621L192.392 118.793L183.851 120.103L183.434 120.167L183.189 120.51L179.736 125.343L179.503 125.669L179.56 126.066L180.938 135.726L180.955 135.845L181 135.957L183.737 142.782L187.153 157.798L187.827 171.274L182.415 183.433L175.605 195.68L162.804 207.796L142.432 211.865L120.397 213.241L120.329 213.245L120.263 213.259L106.976 215.915L104.007 212.948L102.5 210.127L101.9 209.003L100.951 209.854Z" stroke="black" stroke-opacity="0.2" stroke-width="2"/>
<path d="M100.951 209.854L100.539 210.222L99.8973 209.542L99.8635 209.506L99.8264 209.473L85.6253 197.112L85.5788 197.071L85.5277 197.037L79.8429 193.204L79.7608 193.149L79.6696 193.111L76.3156 191.709L76.221 191.669L76.1203 191.65L71.0423 190.665L68.8599 189.422L58.7717 180.422L58.7654 180.416L36.5046 160.213L33.1637 155.193L33.0814 155.069L32.9667 154.975L28.2959 151.13L28.2369 151.081L28.1712 151.042L20.4184 146.435L20.3148 146.373L20.1995 146.338L9.94541 143.208L3.11064 138.308H5.81153H6.09445L6.33544 138.159L15.2434 132.68L26.9121 127.884L27.0746 127.818L27.2045 127.699L34.7997 120.797L34.9585 120.653L35.0441 120.456L41.9499 104.589L42.033 104.399V104.19V98.0354L44.3692 94.6895L44.4108 94.6299L44.4434 94.5648L48.874 85.7186L48.8763 85.7142L55.2496 73.144L59.8409 64.5415L62.3731 60.7072L64.2386 59.3262L68.4934 58.1925L68.5454 58.1786L68.5957 58.1592L73.1924 56.3865L73.2836 56.3514L73.3663 56.2992L76.2627 54.4711L76.3894 54.3911L76.4871 54.2775L84.8088 44.6024L84.8182 44.5914L84.8273 44.5802L92.2679 35.4053L92.4814 35.142L92.4908 34.803L92.6021 30.7698L92.6073 30.5809L92.5432 30.4031L91.5881 27.7536L91.5789 27.728L91.5683 27.703L89.4791 22.7656L89.9773 19.3204L93.1205 9.56904L97.289 4.27592L101.115 2.11968L107.309 1.94284L107.943 2.28302L108.294 2.47168L108.679 2.36668L113.424 1.07192L118.85 4.08562L120.152 13.1833V17.7351V18.5607L120.962 18.717L122.732 19.0583L124.369 23.1408L124.709 23.9886L125.584 23.7268L132.376 21.6946L135.74 21.5067L148.615 43.3372L148.666 43.4231L148.732 43.4974L150.971 45.9895L151.041 46.0679L151.126 46.1299L163.661 55.2524L163.722 55.2968L163.789 55.3316L175.001 61.1434L175.007 61.1464L188.757 68.1595L188.951 68.2586L189.169 68.2678L191.88 68.3822L192.006 68.3875L192.13 68.3613L196.819 67.3669L196.861 67.3579L196.903 67.3454L199.439 66.5739L207.525 67.6075L214.821 74.5706L214.836 74.5853L218.822 78.5528L218.889 84.7425V84.743L218.995 95.049L202.144 110.164L202.142 110.166L195.347 116.222L194.746 116.179L194.165 116.137L193.842 116.621L192.392 118.793L183.851 120.103L183.434 120.167L183.189 120.51L179.736 125.343L179.503 125.669L179.56 126.066L180.938 135.726L180.955 135.845L181 135.957L183.737 142.782L187.153 157.798L187.827 171.274L182.415 183.433L175.605 195.68L162.804 207.796L142.432 211.865L120.397 213.241L120.329 213.245L120.263 213.259L106.976 215.915L104.007 212.948L102.5 210.127L101.9 209.003L100.951 209.854Z" stroke="black" stroke-opacity="0.2" stroke-width="2"/>
</svg>
