<svg width="220" height="249" viewBox="0 0 220 249" fill="none" xmlns="http://www.w3.org/2000/svg">
<rect width="220" height="249" fill="white"/>
<path d="M183.885 160.165L175.887 156.642L168.323 156.402L157.346 158.158L148.529 173.904L148.643 175.135L146.17 176.703L141.033 180.739L118.818 200.293L115.878 200.806L113.771 206.432L94.4439 213.593L59.3671 215.748H27.1497L11.3999 202.852L6 186.633L12.6474 182.261L22.5017 162.833L30.1687 152.098L41.8173 143.82L55.9038 135.389L60.4607 129.888L62.3462 119.66L64.7157 111.919L68.0936 104.987L71.8074 100.38L94.9736 85.3358L112.398 76.2544L124.081 69.6985L134.96 55.2014L137.319 50.692L141.09 43.07L148.164 40.1569L162.382 39.9231L168.391 39.5925L173.728 38.2472L178.49 34.7126L178.992 34L191.09 37.6998L199.68 40.5674L203.257 56.3301L207.552 72.0928L212.565 87.1372L214 111.497L209.699 129.409L204.693 143.022L194.667 153.768L183.885 160.165Z" fill="#E9ECF2" stroke="#8F959D" stroke-width="2"/>
</svg>
