<svg width="20" height="20" viewBox="0 0 20 20" fill="none" xmlns="http://www.w3.org/2000/svg">
<path d="M3.81303 15.3546L4.28133 14.6653H4.28133L3.81303 15.3546ZM3.20607 14.5453L2.42764 14.8428H2.42764L3.20607 14.5453ZM16.9432 13.1493L17.7766 13.1517L16.9432 13.1493ZM16.7922 14.5453L17.5706 14.8428L17.5706 14.8428L16.7922 14.5453ZM16.1852 15.3546L16.6535 16.0439L16.1852 15.3546ZM16.1852 4.64715L16.6535 3.95784V3.95784L16.1852 4.64715ZM16.7922 5.45644L17.5706 5.15897V5.15897L16.7922 5.45644ZM3.81303 4.64715L4.28133 5.33646L4.28133 5.33646L3.81303 4.64715ZM3.20607 5.45644L3.9845 5.75391H3.9845L3.20607 5.45644ZM16.6665 12.7543L16.521 13.5748L16.5211 13.5748L16.6665 12.7543ZM16.6664 7.24747L16.8118 8.06801L16.6664 7.24747ZM16.9428 6.85226L16.1094 6.85684V6.85684L16.9428 6.85226ZM16.863 7.19097L17.4016 7.82685L17.4016 7.82685L16.863 7.19097ZM16.928 7.09134L16.1392 6.82253L16.1392 6.82256L16.928 7.09134ZM16.9279 12.9099L17.7162 12.6396L17.7162 12.6396L16.9279 12.9099ZM16.863 12.8106L16.3251 13.4471L16.3251 13.4471L16.863 12.8106ZM13.6102 4.44531C13.6102 3.98508 13.2371 3.61198 12.7769 3.61198C12.3167 3.61198 11.9436 3.98508 11.9436 4.44531H13.6102ZM11.9436 15.5564C11.9436 16.0167 12.3167 16.3898 12.7769 16.3898C13.2371 16.3898 13.6102 16.0167 13.6102 15.5564H11.9436ZM5.83247 7.31568C5.37223 7.31568 4.99913 7.68878 4.99913 8.14902C4.99913 8.60925 5.37223 8.98235 5.83247 8.98235V7.31568ZM9.99913 8.98235C10.4594 8.98235 10.8325 8.60925 10.8325 8.14902C10.8325 7.68878 10.4594 7.31568 9.99913 7.31568V8.98235ZM5.83247 11.0194C5.37223 11.0194 4.99913 11.3925 4.99913 11.8527C4.99913 12.313 5.37223 12.6861 5.83247 12.6861V11.0194ZM9.99913 12.6861C10.4594 12.6861 10.8325 12.313 10.8325 11.8527C10.8325 11.3925 10.4594 11.0194 9.99913 11.0194V12.6861ZM5.27691 5.27865H14.7214V3.61198H5.27691V5.27865ZM14.7214 14.7231H5.27691V16.3898H14.7214V14.7231ZM5.27691 14.7231C4.86972 14.7231 4.63103 14.7219 4.45494 14.7028C4.37484 14.694 4.33075 14.6836 4.30736 14.6762C4.28774 14.6701 4.28256 14.6661 4.28133 14.6653L3.34474 16.0439C3.64739 16.2495 3.96774 16.3262 4.27444 16.3596C4.56155 16.3909 4.90624 16.3898 5.27691 16.3898V14.7231ZM2.22135 12.7786C2.22135 13.7554 2.2088 14.2701 2.42764 14.8428L3.9845 14.2478C3.90057 14.0282 3.88802 13.8761 3.88802 12.7786H2.22135ZM4.28133 14.6653C4.18506 14.5999 4.06807 14.4665 3.9845 14.2478L2.42764 14.8428C2.61038 15.321 2.91834 15.7542 3.34474 16.0439L4.28133 14.6653ZM16.1099 13.1468C16.1076 13.9184 16.0832 14.0662 16.0138 14.2478L17.5706 14.8428C17.7646 14.3352 17.7744 13.8887 17.7766 13.1517L16.1099 13.1468ZM14.7214 16.3898C15.092 16.3898 15.4367 16.3909 15.7238 16.3596C16.0305 16.3262 16.3509 16.2495 16.6535 16.0439L15.7169 14.6653C15.7157 14.6661 15.7105 14.6701 15.6909 14.6762C15.6675 14.6836 15.6234 14.694 15.5433 14.7028C15.3672 14.7219 15.1285 14.7231 14.7214 14.7231V16.3898ZM16.0138 14.2478C15.9302 14.4665 15.8132 14.5999 15.7169 14.6653L16.6535 16.0439C17.0799 15.7542 17.3879 15.321 17.5706 14.8428L16.0138 14.2478ZM14.7214 5.27865C15.1285 5.27865 15.3672 5.27979 15.5433 5.29897C15.6234 5.3077 15.6675 5.31818 15.6909 5.32552C15.7105 5.33169 15.7157 5.33562 15.7169 5.33646L16.6535 3.95784C16.3509 3.75223 16.0305 3.67552 15.7238 3.64211C15.4367 3.61083 15.092 3.61198 14.7214 3.61198V5.27865ZM15.7169 5.33646C15.8132 5.40186 15.9302 5.53523 16.0138 5.75392L17.5706 5.15897C17.3879 4.68075 17.0799 4.24753 16.6535 3.95784L15.7169 5.33646ZM5.27691 3.61198C4.90624 3.61198 4.56155 3.61083 4.27444 3.64211C3.96774 3.67552 3.64739 3.75224 3.34474 3.95784L4.28133 5.33646C4.28256 5.33562 4.28774 5.33169 4.30736 5.32552C4.33075 5.31818 4.37484 5.3077 4.45494 5.29897C4.63103 5.27979 4.86972 5.27865 5.27691 5.27865V3.61198ZM3.88802 7.22309C3.88802 6.12561 3.90057 5.97354 3.9845 5.75391L2.42764 5.15897C2.2088 5.73161 2.22135 6.2463 2.22135 7.22309H3.88802ZM3.34474 3.95784C2.91834 4.24753 2.61038 4.68075 2.42764 5.15897L3.9845 5.75391C4.06807 5.53523 4.18506 5.40186 4.28133 5.33646L3.34474 3.95784ZM16.8119 11.9337C16.3404 11.8502 15.6936 11.1801 15.6936 10.0009H14.0269C14.0269 11.6393 14.9534 13.297 16.521 13.5748L16.8119 11.9337ZM15.6936 10.0009C15.6936 8.82166 16.3403 8.15159 16.8118 8.06801L16.5209 6.42693C14.9533 6.70482 14.0269 8.36246 14.0269 10.0009H15.6936ZM17.7761 6.84768C17.7723 6.16779 17.7579 5.64906 17.5706 5.15897L16.0138 5.75391C16.076 5.91676 16.1055 6.13165 16.1094 6.85684L17.7761 6.84768ZM3.88802 12.7786V7.22309H2.22135V12.7786H3.88802ZM16.8118 8.06801C16.8525 8.0608 16.9335 8.04711 17.0059 8.02806C17.0798 8.00859 17.2442 7.96019 17.4016 7.82685L16.3244 6.5551C16.4495 6.44911 16.5704 6.41924 16.5815 6.41632C16.5918 6.41362 16.5942 6.41347 16.5806 6.41611C16.5672 6.4187 16.5502 6.42174 16.5209 6.42693L16.8118 8.06801ZM16.1094 6.85684C16.1096 6.89018 16.1097 6.91368 16.1097 6.9334C16.1096 6.95321 16.1093 6.96125 16.1092 6.96299C16.1091 6.96487 16.1096 6.95134 16.1129 6.92897C16.1165 6.9053 16.1238 6.86782 16.1392 6.82253L17.7168 7.36015C17.7621 7.22705 17.7708 7.10802 17.774 7.04209C17.7771 6.97692 17.7764 6.9028 17.7761 6.84768L16.1094 6.85684ZM17.4016 7.82685C17.565 7.68851 17.6608 7.5243 17.7168 7.36012L16.1392 6.82256C16.1479 6.79709 16.1669 6.74888 16.2034 6.69286C16.2417 6.6341 16.2852 6.58834 16.3244 6.5551L17.4016 7.82685ZM17.7766 13.1517C17.7767 13.0964 17.7772 13.0223 17.774 12.9573C17.7707 12.8917 17.7618 12.7726 17.7162 12.6396L16.1397 13.1802C16.1241 13.1348 16.1167 13.0973 16.1132 13.0737C16.1098 13.0515 16.1093 13.0381 16.1094 13.0401C16.1095 13.0419 16.1098 13.0501 16.1099 13.07C16.1101 13.0898 16.11 13.1134 16.1099 13.1468L17.7766 13.1517ZM16.5211 13.5748C16.5503 13.58 16.5674 13.5831 16.5808 13.5857C16.5944 13.5883 16.592 13.5882 16.5818 13.5855C16.5711 13.5827 16.4503 13.5529 16.3251 13.4471L17.4009 12.1742C17.2435 12.0411 17.0791 11.9929 17.0056 11.9736C16.9334 11.9546 16.8526 11.9409 16.8119 11.9337L16.5211 13.5748ZM17.7162 12.6396C17.66 12.4757 17.5641 12.3121 17.4009 12.1742L16.3251 13.4471C16.2863 13.4143 16.2426 13.3687 16.204 13.3097C16.1673 13.2535 16.1482 13.2052 16.1397 13.1802L17.7162 12.6396ZM11.9436 4.44531V15.5564H13.6102V4.44531H11.9436ZM5.83247 8.98235H9.99913V7.31568H5.83247V8.98235ZM5.83247 12.6861H9.99913V11.0194H5.83247V12.6861Z" fill="#B3B8BF"/>
</svg>
