<svg width="56" height="56" viewBox="0 0 56 56" fill="none" xmlns="http://www.w3.org/2000/svg">
<path id="Ellipse 27" d="M36.639 5.60993C39.5795 6.74438 42.2677 8.44689 44.5502 10.6203C46.8327 12.7936 48.6648 15.3953 49.9419 18.2767C51.2189 21.1581 51.9159 24.2628 51.9931 27.4136C52.0703 30.5644 51.5261 33.6995 50.3916 36.64C49.2572 39.5805 47.5547 42.2687 45.3813 44.5512C43.2079 46.8337 40.6063 48.6658 37.7249 49.9429C34.8435 51.2199 31.7387 51.9169 28.5879 51.9941C25.4372 52.0713 22.302 51.5271 19.3616 50.3926C16.4211 49.2582 13.7329 47.5557 11.4503 45.3823C9.16784 43.2089 7.33576 40.6073 6.05871 37.7259C4.78166 34.8444 4.08465 31.7397 4.00748 28.5889C3.93031 25.4382 4.47448 22.303 5.60894 19.3626C6.74339 16.4221 8.4459 13.7338 10.6193 11.4513C12.7926 9.16883 15.3943 7.33675 18.2757 6.0597C21.1571 4.78265 24.2618 4.08564 27.4126 4.00847C30.5634 3.9313 33.6985 4.47548 36.639 5.60993L36.639 5.60993Z" stroke="url(#paint0_angular_10058_2054)" stroke-width="8" stroke-linecap="round"/>
<defs>
<radialGradient id="paint0_angular_10058_2054" cx="0" cy="0" r="1" gradientUnits="userSpaceOnUse" gradientTransform="translate(28.0003 28.0013) rotate(21.0969) scale(24)">
<stop stop-color="white"/>
<stop offset="1" stop-color="#0050F5"/>
</radialGradient>
</defs>
</svg>
