<svg width="97" height="249" viewBox="0 0 97 249" fill="none" xmlns="http://www.w3.org/2000/svg">
<mask id="path-1-inside-1_8891_6808" fill="white">
<path d="M58.7836 246.21L56.9174 246.619L52.7799 248.136L49.0114 249V246.406L48.0407 239.919L46.4248 237.648L44.505 235.722L44.4949 235.172L36.9101 219.723L34.3828 215.869L28.4616 212.298L26.2959 211.678L24.2489 210.539L23.1697 208.944L22.5534 207.541L21.739 205.412L20.3733 202.07L17.02 196.438L11.0857 192.002L10.0832 191.389L10.3089 187.086L6.51142 183.819L3.25498 181.097V175.652L5.42497 170.753L7.05391 166.396L7.59641 162.041L9.7664 156.596L12.4789 152.784V147.341L9.7664 145.706L7.39532 145.027L7.26657 144.228L4.33998 144.073L0 139.718V134.273V128.828L2.16999 124.472L4.33998 120.661L6.13962 114.042L5.57108 113.172L5.03871 111.996L4.79857 110.186L2.72405 103.118L1.29186 99.7257L2.86004 99.087L3.89875 97.8778L4.91865 92.8609L4.76096 89.4061L3.69332 86.1646L3.5472 84.6302L3.57325 82.5819L4.35155 82.1856L5.45969 80.8153L10.2713 69.5259L10.6141 68.1382L10.7689 66.5269L10.7762 64.2551L10.889 62.3099L11.6774 59.4313L12.2431 58.2482L16.2576 53.2952L19.0785 50.4181L19.4995 49.8433L20.408 47.9663L21.0764 45.8251L22.0731 41.0449L22.4073 37.2794L22.1845 35.2369L22.3552 33.9174L23.3245 30.1156L23.7021 28.7786L24.7306 27.6826L26.4637 27.1005L27.8193 27.237L28.9332 28.1457L29.4569 29.8151L29.276 33.8317L29.8258 34.0118L33.8735 31.0736L34.5433 29.8238L33.8866 27.4301L32.5108 26.1541L31.7542 24.1886L32.6989 22.5714L34.2164 21.3288L36.3444 20.0949L37.888 18.9743L40.9246 15.232L42.9484 11.5898L49.6841 4.42602L53.7463 1.08872L56.7944 0L59.0555 9.90594L59.313 16.1218L59.4664 18.067L60.0769 19.9585L62.4856 23.8808L64.5615 28.0688L65.0592 29.6525L67.6921 41.5153L67.3406 44.1282L67.1684 46.5785L67.3059 48.1202L67.6834 49.4397L68.5239 51.1192L70.8733 54.1517L71.5605 55.1795L72.0755 56.3277L72.3836 57.7169L72.9319 66.7925L72.3316 68.0351L71.423 78.8353L71.329 82.0753L71.7312 83.4471L72.0755 85.5055L71.5605 89.0199L71.1308 90.8214L67.1771 99.1741L65.6682 101.566L64.5095 102.501L63.2234 103.873L62.1094 105.332L60.9926 107.048L59.912 109.706L59.0555 112.709L58.7127 116.295L58.8313 118.182L59.3275 121.066L55.3449 125.562V129.917L61.3138 134.817L61.7333 135.028L62.367 138.489L62.9673 140.292L66.6881 148.345L67.3059 149.152L66.5333 149.53L64.9912 150.817L63.601 152.664L62.8805 153.909L62.5377 155.714L61.9807 168.719L62.8284 170.952L63.7384 172.929L70.1529 185.218L72.7091 188.088L74.341 188.796L76.0625 189.232L78.8618 189.804L81.5699 190.437L83.9728 191.032L89.5077 192.987L92.5356 196.168L94.0691 198.666L94.8271 200.454L96.0047 203.327L97 207.36L95.6705 209.89L93.4311 211.731L91.1497 213.15L89.6915 214.251L88.4907 215.714L87.5041 217.684L86.9905 219.44L86.3815 221.875L85.7291 223.286L85.188 223.596V226.288L81.933 230.098L78.6766 231.731L74.3366 228.465L67.8252 227.921L64.5688 228.465L61.2863 231.252L60.4791 237.429L59.4838 239.573L58.4378 242.571L58.3351 244.879L58.7836 246.21Z"/>
</mask>
<path d="M58.7836 246.21L56.9174 246.619L52.7799 248.136L49.0114 249V246.406L48.0407 239.919L46.4248 237.648L44.505 235.722L44.4949 235.172L36.9101 219.723L34.3828 215.869L28.4616 212.298L26.2959 211.678L24.2489 210.539L23.1697 208.944L22.5534 207.541L21.739 205.412L20.3733 202.07L17.02 196.438L11.0857 192.002L10.0832 191.389L10.3089 187.086L6.51142 183.819L3.25498 181.097V175.652L5.42497 170.753L7.05391 166.396L7.59641 162.041L9.7664 156.596L12.4789 152.784V147.341L9.7664 145.706L7.39532 145.027L7.26657 144.228L4.33998 144.073L0 139.718V134.273V128.828L2.16999 124.472L4.33998 120.661L6.13962 114.042L5.57108 113.172L5.03871 111.996L4.79857 110.186L2.72405 103.118L1.29186 99.7257L2.86004 99.087L3.89875 97.8778L4.91865 92.8609L4.76096 89.4061L3.69332 86.1646L3.5472 84.6302L3.57325 82.5819L4.35155 82.1856L5.45969 80.8153L10.2713 69.5259L10.6141 68.1382L10.7689 66.5269L10.7762 64.2551L10.889 62.3099L11.6774 59.4313L12.2431 58.2482L16.2576 53.2952L19.0785 50.4181L19.4995 49.8433L20.408 47.9663L21.0764 45.8251L22.0731 41.0449L22.4073 37.2794L22.1845 35.2369L22.3552 33.9174L23.3245 30.1156L23.7021 28.7786L24.7306 27.6826L26.4637 27.1005L27.8193 27.237L28.9332 28.1457L29.4569 29.8151L29.276 33.8317L29.8258 34.0118L33.8735 31.0736L34.5433 29.8238L33.8866 27.4301L32.5108 26.1541L31.7542 24.1886L32.6989 22.5714L34.2164 21.3288L36.3444 20.0949L37.888 18.9743L40.9246 15.232L42.9484 11.5898L49.6841 4.42602L53.7463 1.08872L56.7944 0L59.0555 9.90594L59.313 16.1218L59.4664 18.067L60.0769 19.9585L62.4856 23.8808L64.5615 28.0688L65.0592 29.6525L67.6921 41.5153L67.3406 44.1282L67.1684 46.5785L67.3059 48.1202L67.6834 49.4397L68.5239 51.1192L70.8733 54.1517L71.5605 55.1795L72.0755 56.3277L72.3836 57.7169L72.9319 66.7925L72.3316 68.0351L71.423 78.8353L71.329 82.0753L71.7312 83.4471L72.0755 85.5055L71.5605 89.0199L71.1308 90.8214L67.1771 99.1741L65.6682 101.566L64.5095 102.501L63.2234 103.873L62.1094 105.332L60.9926 107.048L59.912 109.706L59.0555 112.709L58.7127 116.295L58.8313 118.182L59.3275 121.066L55.3449 125.562V129.917L61.3138 134.817L61.7333 135.028L62.367 138.489L62.9673 140.292L66.6881 148.345L67.3059 149.152L66.5333 149.53L64.9912 150.817L63.601 152.664L62.8805 153.909L62.5377 155.714L61.9807 168.719L62.8284 170.952L63.7384 172.929L70.1529 185.218L72.7091 188.088L74.341 188.796L76.0625 189.232L78.8618 189.804L81.5699 190.437L83.9728 191.032L89.5077 192.987L92.5356 196.168L94.0691 198.666L94.8271 200.454L96.0047 203.327L97 207.36L95.6705 209.89L93.4311 211.731L91.1497 213.15L89.6915 214.251L88.4907 215.714L87.5041 217.684L86.9905 219.44L86.3815 221.875L85.7291 223.286L85.188 223.596V226.288L81.933 230.098L78.6766 231.731L74.3366 228.465L67.8252 227.921L64.5688 228.465L61.2863 231.252L60.4791 237.429L59.4838 239.573L58.4378 242.571L58.3351 244.879L58.7836 246.21Z" fill="#E9ECF2"/>
<path d="M58.7836 246.21L56.9174 246.619L52.7799 248.136L49.0114 249V246.406L48.0407 239.919L46.4248 237.648L44.505 235.722L44.4949 235.172L36.9101 219.723L34.3828 215.869L28.4616 212.298L26.2959 211.678L24.2489 210.539L23.1697 208.944L22.5534 207.541L21.739 205.412L20.3733 202.07L17.02 196.438L11.0857 192.002L10.0832 191.389L10.3089 187.086L6.51142 183.819L3.25498 181.097V175.652L5.42497 170.753L7.05391 166.396L7.59641 162.041L9.7664 156.596L12.4789 152.784V147.341L9.7664 145.706L7.39532 145.027L7.26657 144.228L4.33998 144.073L0 139.718V134.273V128.828L2.16999 124.472L4.33998 120.661L6.13962 114.042L5.57108 113.172L5.03871 111.996L4.79857 110.186L2.72405 103.118L1.29186 99.7257L2.86004 99.087L3.89875 97.8778L4.91865 92.8609L4.76096 89.4061L3.69332 86.1646L3.5472 84.6302L3.57325 82.5819L4.35155 82.1856L5.45969 80.8153L10.2713 69.5259L10.6141 68.1382L10.7689 66.5269L10.7762 64.2551L10.889 62.3099L11.6774 59.4313L12.2431 58.2482L16.2576 53.2952L19.0785 50.4181L19.4995 49.8433L20.408 47.9663L21.0764 45.8251L22.0731 41.0449L22.4073 37.2794L22.1845 35.2369L22.3552 33.9174L23.3245 30.1156L23.7021 28.7786L24.7306 27.6826L26.4637 27.1005L27.8193 27.237L28.9332 28.1457L29.4569 29.8151L29.276 33.8317L29.8258 34.0118L33.8735 31.0736L34.5433 29.8238L33.8866 27.4301L32.5108 26.1541L31.7542 24.1886L32.6989 22.5714L34.2164 21.3288L36.3444 20.0949L37.888 18.9743L40.9246 15.232L42.9484 11.5898L49.6841 4.42602L53.7463 1.08872L56.7944 0L59.0555 9.90594L59.313 16.1218L59.4664 18.067L60.0769 19.9585L62.4856 23.8808L64.5615 28.0688L65.0592 29.6525L67.6921 41.5153L67.3406 44.1282L67.1684 46.5785L67.3059 48.1202L67.6834 49.4397L68.5239 51.1192L70.8733 54.1517L71.5605 55.1795L72.0755 56.3277L72.3836 57.7169L72.9319 66.7925L72.3316 68.0351L71.423 78.8353L71.329 82.0753L71.7312 83.4471L72.0755 85.5055L71.5605 89.0199L71.1308 90.8214L67.1771 99.1741L65.6682 101.566L64.5095 102.501L63.2234 103.873L62.1094 105.332L60.9926 107.048L59.912 109.706L59.0555 112.709L58.7127 116.295L58.8313 118.182L59.3275 121.066L55.3449 125.562V129.917L61.3138 134.817L61.7333 135.028L62.367 138.489L62.9673 140.292L66.6881 148.345L67.3059 149.152L66.5333 149.53L64.9912 150.817L63.601 152.664L62.8805 153.909L62.5377 155.714L61.9807 168.719L62.8284 170.952L63.7384 172.929L70.1529 185.218L72.7091 188.088L74.341 188.796L76.0625 189.232L78.8618 189.804L81.5699 190.437L83.9728 191.032L89.5077 192.987L92.5356 196.168L94.0691 198.666L94.8271 200.454L96.0047 203.327L97 207.36L95.6705 209.89L93.4311 211.731L91.1497 213.15L89.6915 214.251L88.4907 215.714L87.5041 217.684L86.9905 219.44L86.3815 221.875L85.7291 223.286L85.188 223.596V226.288L81.933 230.098L78.6766 231.731L74.3366 228.465L67.8252 227.921L64.5688 228.465L61.2863 231.252L60.4791 237.429L59.4838 239.573L58.4378 242.571L58.3351 244.879L58.7836 246.21Z" stroke="#8F959D" stroke-width="4" mask="url(#path-1-inside-1_8891_6808)"/>
<path d="M58.7836 246.21L56.9174 246.619L52.7799 248.136L49.0114 249V246.406L48.0407 239.919L46.4248 237.648L44.505 235.722L44.4949 235.172L36.9101 219.723L34.3828 215.869L28.4616 212.298L26.2959 211.678L24.2489 210.539L23.1697 208.944L22.5534 207.541L21.739 205.412L20.3733 202.07L17.02 196.438L11.0857 192.002L10.0832 191.389L10.3089 187.086L6.51142 183.819L3.25498 181.097V175.652L5.42497 170.753L7.05391 166.396L7.59641 162.041L9.7664 156.596L12.4789 152.784V147.341L9.7664 145.706L7.39532 145.027L7.26657 144.228L4.33998 144.073L0 139.718V134.273V128.828L2.16999 124.472L4.33998 120.661L6.13962 114.042L5.57108 113.172L5.03871 111.996L4.79857 110.186L2.72405 103.118L1.29186 99.7257L2.86004 99.087L3.89875 97.8778L4.91865 92.8609L4.76096 89.4061L3.69332 86.1646L3.5472 84.6302L3.57325 82.5819L4.35155 82.1856L5.45969 80.8153L10.2713 69.5259L10.6141 68.1382L10.7689 66.5269L10.7762 64.2551L10.889 62.3099L11.6774 59.4313L12.2431 58.2482L16.2576 53.2952L19.0785 50.4181L19.4995 49.8433L20.408 47.9663L21.0764 45.8251L22.0731 41.0449L22.4073 37.2794L22.1845 35.2369L22.3552 33.9174L23.3245 30.1156L23.7021 28.7786L24.7306 27.6826L26.4637 27.1005L27.8193 27.237L28.9332 28.1457L29.4569 29.8151L29.276 33.8317L29.8258 34.0118L33.8735 31.0736L34.5433 29.8238L33.8866 27.4301L32.5108 26.1541L31.7542 24.1886L32.6989 22.5714L34.2164 21.3288L36.3444 20.0949L37.888 18.9743L40.9246 15.232L42.9484 11.5898L49.6841 4.42602L53.7463 1.08872L56.7944 0L59.0555 9.90594L59.313 16.1218L59.4664 18.067L60.0769 19.9585L62.4856 23.8808L64.5615 28.0688L65.0592 29.6525L67.6921 41.5153L67.3406 44.1282L67.1684 46.5785L67.3059 48.1202L67.6834 49.4397L68.5239 51.1192L70.8733 54.1517L71.5605 55.1795L72.0755 56.3277L72.3836 57.7169L72.9319 66.7925L72.3316 68.0351L71.423 78.8353L71.329 82.0753L71.7312 83.4471L72.0755 85.5055L71.5605 89.0199L71.1308 90.8214L67.1771 99.1741L65.6682 101.566L64.5095 102.501L63.2234 103.873L62.1094 105.332L60.9926 107.048L59.912 109.706L59.0555 112.709L58.7127 116.295L58.8313 118.182L59.3275 121.066L55.3449 125.562V129.917L61.3138 134.817L61.7333 135.028L62.367 138.489L62.9673 140.292L66.6881 148.345L67.3059 149.152L66.5333 149.53L64.9912 150.817L63.601 152.664L62.8805 153.909L62.5377 155.714L61.9807 168.719L62.8284 170.952L63.7384 172.929L70.1529 185.218L72.7091 188.088L74.341 188.796L76.0625 189.232L78.8618 189.804L81.5699 190.437L83.9728 191.032L89.5077 192.987L92.5356 196.168L94.0691 198.666L94.8271 200.454L96.0047 203.327L97 207.36L95.6705 209.89L93.4311 211.731L91.1497 213.15L89.6915 214.251L88.4907 215.714L87.5041 217.684L86.9905 219.44L86.3815 221.875L85.7291 223.286L85.188 223.596V226.288L81.933 230.098L78.6766 231.731L74.3366 228.465L67.8252 227.921L64.5688 228.465L61.2863 231.252L60.4791 237.429L59.4838 239.573L58.4378 242.571L58.3351 244.879L58.7836 246.21Z" stroke="black" stroke-opacity="0.2" stroke-width="4" mask="url(#path-1-inside-1_8891_6808)"/>
<path d="M58.7836 246.21L56.9174 246.619L52.7799 248.136L49.0114 249V246.406L48.0407 239.919L46.4248 237.648L44.505 235.722L44.4949 235.172L36.9101 219.723L34.3828 215.869L28.4616 212.298L26.2959 211.678L24.2489 210.539L23.1697 208.944L22.5534 207.541L21.739 205.412L20.3733 202.07L17.02 196.438L11.0857 192.002L10.0832 191.389L10.3089 187.086L6.51142 183.819L3.25498 181.097V175.652L5.42497 170.753L7.05391 166.396L7.59641 162.041L9.7664 156.596L12.4789 152.784V147.341L9.7664 145.706L7.39532 145.027L7.26657 144.228L4.33998 144.073L0 139.718V134.273V128.828L2.16999 124.472L4.33998 120.661L6.13962 114.042L5.57108 113.172L5.03871 111.996L4.79857 110.186L2.72405 103.118L1.29186 99.7257L2.86004 99.087L3.89875 97.8778L4.91865 92.8609L4.76096 89.4061L3.69332 86.1646L3.5472 84.6302L3.57325 82.5819L4.35155 82.1856L5.45969 80.8153L10.2713 69.5259L10.6141 68.1382L10.7689 66.5269L10.7762 64.2551L10.889 62.3099L11.6774 59.4313L12.2431 58.2482L16.2576 53.2952L19.0785 50.4181L19.4995 49.8433L20.408 47.9663L21.0764 45.8251L22.0731 41.0449L22.4073 37.2794L22.1845 35.2369L22.3552 33.9174L23.3245 30.1156L23.7021 28.7786L24.7306 27.6826L26.4637 27.1005L27.8193 27.237L28.9332 28.1457L29.4569 29.8151L29.276 33.8317L29.8258 34.0118L33.8735 31.0736L34.5433 29.8238L33.8866 27.4301L32.5108 26.1541L31.7542 24.1886L32.6989 22.5714L34.2164 21.3288L36.3444 20.0949L37.888 18.9743L40.9246 15.232L42.9484 11.5898L49.6841 4.42602L53.7463 1.08872L56.7944 0L59.0555 9.90594L59.313 16.1218L59.4664 18.067L60.0769 19.9585L62.4856 23.8808L64.5615 28.0688L65.0592 29.6525L67.6921 41.5153L67.3406 44.1282L67.1684 46.5785L67.3059 48.1202L67.6834 49.4397L68.5239 51.1192L70.8733 54.1517L71.5605 55.1795L72.0755 56.3277L72.3836 57.7169L72.9319 66.7925L72.3316 68.0351L71.423 78.8353L71.329 82.0753L71.7312 83.4471L72.0755 85.5055L71.5605 89.0199L71.1308 90.8214L67.1771 99.1741L65.6682 101.566L64.5095 102.501L63.2234 103.873L62.1094 105.332L60.9926 107.048L59.912 109.706L59.0555 112.709L58.7127 116.295L58.8313 118.182L59.3275 121.066L55.3449 125.562V129.917L61.3138 134.817L61.7333 135.028L62.367 138.489L62.9673 140.292L66.6881 148.345L67.3059 149.152L66.5333 149.53L64.9912 150.817L63.601 152.664L62.8805 153.909L62.5377 155.714L61.9807 168.719L62.8284 170.952L63.7384 172.929L70.1529 185.218L72.7091 188.088L74.341 188.796L76.0625 189.232L78.8618 189.804L81.5699 190.437L83.9728 191.032L89.5077 192.987L92.5356 196.168L94.0691 198.666L94.8271 200.454L96.0047 203.327L97 207.36L95.6705 209.89L93.4311 211.731L91.1497 213.15L89.6915 214.251L88.4907 215.714L87.5041 217.684L86.9905 219.44L86.3815 221.875L85.7291 223.286L85.188 223.596V226.288L81.933 230.098L78.6766 231.731L74.3366 228.465L67.8252 227.921L64.5688 228.465L61.2863 231.252L60.4791 237.429L59.4838 239.573L58.4378 242.571L58.3351 244.879L58.7836 246.21Z" stroke="black" stroke-opacity="0.2" stroke-width="4" mask="url(#path-1-inside-1_8891_6808)"/>
<path d="M58.7836 246.21L56.9174 246.619L52.7799 248.136L49.0114 249V246.406L48.0407 239.919L46.4248 237.648L44.505 235.722L44.4949 235.172L36.9101 219.723L34.3828 215.869L28.4616 212.298L26.2959 211.678L24.2489 210.539L23.1697 208.944L22.5534 207.541L21.739 205.412L20.3733 202.07L17.02 196.438L11.0857 192.002L10.0832 191.389L10.3089 187.086L6.51142 183.819L3.25498 181.097V175.652L5.42497 170.753L7.05391 166.396L7.59641 162.041L9.7664 156.596L12.4789 152.784V147.341L9.7664 145.706L7.39532 145.027L7.26657 144.228L4.33998 144.073L0 139.718V134.273V128.828L2.16999 124.472L4.33998 120.661L6.13962 114.042L5.57108 113.172L5.03871 111.996L4.79857 110.186L2.72405 103.118L1.29186 99.7257L2.86004 99.087L3.89875 97.8778L4.91865 92.8609L4.76096 89.4061L3.69332 86.1646L3.5472 84.6302L3.57325 82.5819L4.35155 82.1856L5.45969 80.8153L10.2713 69.5259L10.6141 68.1382L10.7689 66.5269L10.7762 64.2551L10.889 62.3099L11.6774 59.4313L12.2431 58.2482L16.2576 53.2952L19.0785 50.4181L19.4995 49.8433L20.408 47.9663L21.0764 45.8251L22.0731 41.0449L22.4073 37.2794L22.1845 35.2369L22.3552 33.9174L23.3245 30.1156L23.7021 28.7786L24.7306 27.6826L26.4637 27.1005L27.8193 27.237L28.9332 28.1457L29.4569 29.8151L29.276 33.8317L29.8258 34.0118L33.8735 31.0736L34.5433 29.8238L33.8866 27.4301L32.5108 26.1541L31.7542 24.1886L32.6989 22.5714L34.2164 21.3288L36.3444 20.0949L37.888 18.9743L40.9246 15.232L42.9484 11.5898L49.6841 4.42602L53.7463 1.08872L56.7944 0L59.0555 9.90594L59.313 16.1218L59.4664 18.067L60.0769 19.9585L62.4856 23.8808L64.5615 28.0688L65.0592 29.6525L67.6921 41.5153L67.3406 44.1282L67.1684 46.5785L67.3059 48.1202L67.6834 49.4397L68.5239 51.1192L70.8733 54.1517L71.5605 55.1795L72.0755 56.3277L72.3836 57.7169L72.9319 66.7925L72.3316 68.0351L71.423 78.8353L71.329 82.0753L71.7312 83.4471L72.0755 85.5055L71.5605 89.0199L71.1308 90.8214L67.1771 99.1741L65.6682 101.566L64.5095 102.501L63.2234 103.873L62.1094 105.332L60.9926 107.048L59.912 109.706L59.0555 112.709L58.7127 116.295L58.8313 118.182L59.3275 121.066L55.3449 125.562V129.917L61.3138 134.817L61.7333 135.028L62.367 138.489L62.9673 140.292L66.6881 148.345L67.3059 149.152L66.5333 149.53L64.9912 150.817L63.601 152.664L62.8805 153.909L62.5377 155.714L61.9807 168.719L62.8284 170.952L63.7384 172.929L70.1529 185.218L72.7091 188.088L74.341 188.796L76.0625 189.232L78.8618 189.804L81.5699 190.437L83.9728 191.032L89.5077 192.987L92.5356 196.168L94.0691 198.666L94.8271 200.454L96.0047 203.327L97 207.36L95.6705 209.89L93.4311 211.731L91.1497 213.15L89.6915 214.251L88.4907 215.714L87.5041 217.684L86.9905 219.44L86.3815 221.875L85.7291 223.286L85.188 223.596V226.288L81.933 230.098L78.6766 231.731L74.3366 228.465L67.8252 227.921L64.5688 228.465L61.2863 231.252L60.4791 237.429L59.4838 239.573L58.4378 242.571L58.3351 244.879L58.7836 246.21Z" stroke="black" stroke-opacity="0.2" stroke-width="4" mask="url(#path-1-inside-1_8891_6808)"/>
<path d="M58.7836 246.21L56.9174 246.619L52.7799 248.136L49.0114 249V246.406L48.0407 239.919L46.4248 237.648L44.505 235.722L44.4949 235.172L36.9101 219.723L34.3828 215.869L28.4616 212.298L26.2959 211.678L24.2489 210.539L23.1697 208.944L22.5534 207.541L21.739 205.412L20.3733 202.07L17.02 196.438L11.0857 192.002L10.0832 191.389L10.3089 187.086L6.51142 183.819L3.25498 181.097V175.652L5.42497 170.753L7.05391 166.396L7.59641 162.041L9.7664 156.596L12.4789 152.784V147.341L9.7664 145.706L7.39532 145.027L7.26657 144.228L4.33998 144.073L0 139.718V134.273V128.828L2.16999 124.472L4.33998 120.661L6.13962 114.042L5.57108 113.172L5.03871 111.996L4.79857 110.186L2.72405 103.118L1.29186 99.7257L2.86004 99.087L3.89875 97.8778L4.91865 92.8609L4.76096 89.4061L3.69332 86.1646L3.5472 84.6302L3.57325 82.5819L4.35155 82.1856L5.45969 80.8153L10.2713 69.5259L10.6141 68.1382L10.7689 66.5269L10.7762 64.2551L10.889 62.3099L11.6774 59.4313L12.2431 58.2482L16.2576 53.2952L19.0785 50.4181L19.4995 49.8433L20.408 47.9663L21.0764 45.8251L22.0731 41.0449L22.4073 37.2794L22.1845 35.2369L22.3552 33.9174L23.3245 30.1156L23.7021 28.7786L24.7306 27.6826L26.4637 27.1005L27.8193 27.237L28.9332 28.1457L29.4569 29.8151L29.276 33.8317L29.8258 34.0118L33.8735 31.0736L34.5433 29.8238L33.8866 27.4301L32.5108 26.1541L31.7542 24.1886L32.6989 22.5714L34.2164 21.3288L36.3444 20.0949L37.888 18.9743L40.9246 15.232L42.9484 11.5898L49.6841 4.42602L53.7463 1.08872L56.7944 0L59.0555 9.90594L59.313 16.1218L59.4664 18.067L60.0769 19.9585L62.4856 23.8808L64.5615 28.0688L65.0592 29.6525L67.6921 41.5153L67.3406 44.1282L67.1684 46.5785L67.3059 48.1202L67.6834 49.4397L68.5239 51.1192L70.8733 54.1517L71.5605 55.1795L72.0755 56.3277L72.3836 57.7169L72.9319 66.7925L72.3316 68.0351L71.423 78.8353L71.329 82.0753L71.7312 83.4471L72.0755 85.5055L71.5605 89.0199L71.1308 90.8214L67.1771 99.1741L65.6682 101.566L64.5095 102.501L63.2234 103.873L62.1094 105.332L60.9926 107.048L59.912 109.706L59.0555 112.709L58.7127 116.295L58.8313 118.182L59.3275 121.066L55.3449 125.562V129.917L61.3138 134.817L61.7333 135.028L62.367 138.489L62.9673 140.292L66.6881 148.345L67.3059 149.152L66.5333 149.53L64.9912 150.817L63.601 152.664L62.8805 153.909L62.5377 155.714L61.9807 168.719L62.8284 170.952L63.7384 172.929L70.1529 185.218L72.7091 188.088L74.341 188.796L76.0625 189.232L78.8618 189.804L81.5699 190.437L83.9728 191.032L89.5077 192.987L92.5356 196.168L94.0691 198.666L94.8271 200.454L96.0047 203.327L97 207.36L95.6705 209.89L93.4311 211.731L91.1497 213.15L89.6915 214.251L88.4907 215.714L87.5041 217.684L86.9905 219.44L86.3815 221.875L85.7291 223.286L85.188 223.596V226.288L81.933 230.098L78.6766 231.731L74.3366 228.465L67.8252 227.921L64.5688 228.465L61.2863 231.252L60.4791 237.429L59.4838 239.573L58.4378 242.571L58.3351 244.879L58.7836 246.21Z" stroke="black" stroke-opacity="0.2" stroke-width="4" mask="url(#path-1-inside-1_8891_6808)"/>
<path d="M58.7836 246.21L56.9174 246.619L52.7799 248.136L49.0114 249V246.406L48.0407 239.919L46.4248 237.648L44.505 235.722L44.4949 235.172L36.9101 219.723L34.3828 215.869L28.4616 212.298L26.2959 211.678L24.2489 210.539L23.1697 208.944L22.5534 207.541L21.739 205.412L20.3733 202.07L17.02 196.438L11.0857 192.002L10.0832 191.389L10.3089 187.086L6.51142 183.819L3.25498 181.097V175.652L5.42497 170.753L7.05391 166.396L7.59641 162.041L9.7664 156.596L12.4789 152.784V147.341L9.7664 145.706L7.39532 145.027L7.26657 144.228L4.33998 144.073L0 139.718V134.273V128.828L2.16999 124.472L4.33998 120.661L6.13962 114.042L5.57108 113.172L5.03871 111.996L4.79857 110.186L2.72405 103.118L1.29186 99.7257L2.86004 99.087L3.89875 97.8778L4.91865 92.8609L4.76096 89.4061L3.69332 86.1646L3.5472 84.6302L3.57325 82.5819L4.35155 82.1856L5.45969 80.8153L10.2713 69.5259L10.6141 68.1382L10.7689 66.5269L10.7762 64.2551L10.889 62.3099L11.6774 59.4313L12.2431 58.2482L16.2576 53.2952L19.0785 50.4181L19.4995 49.8433L20.408 47.9663L21.0764 45.8251L22.0731 41.0449L22.4073 37.2794L22.1845 35.2369L22.3552 33.9174L23.3245 30.1156L23.7021 28.7786L24.7306 27.6826L26.4637 27.1005L27.8193 27.237L28.9332 28.1457L29.4569 29.8151L29.276 33.8317L29.8258 34.0118L33.8735 31.0736L34.5433 29.8238L33.8866 27.4301L32.5108 26.1541L31.7542 24.1886L32.6989 22.5714L34.2164 21.3288L36.3444 20.0949L37.888 18.9743L40.9246 15.232L42.9484 11.5898L49.6841 4.42602L53.7463 1.08872L56.7944 0L59.0555 9.90594L59.313 16.1218L59.4664 18.067L60.0769 19.9585L62.4856 23.8808L64.5615 28.0688L65.0592 29.6525L67.6921 41.5153L67.3406 44.1282L67.1684 46.5785L67.3059 48.1202L67.6834 49.4397L68.5239 51.1192L70.8733 54.1517L71.5605 55.1795L72.0755 56.3277L72.3836 57.7169L72.9319 66.7925L72.3316 68.0351L71.423 78.8353L71.329 82.0753L71.7312 83.4471L72.0755 85.5055L71.5605 89.0199L71.1308 90.8214L67.1771 99.1741L65.6682 101.566L64.5095 102.501L63.2234 103.873L62.1094 105.332L60.9926 107.048L59.912 109.706L59.0555 112.709L58.7127 116.295L58.8313 118.182L59.3275 121.066L55.3449 125.562V129.917L61.3138 134.817L61.7333 135.028L62.367 138.489L62.9673 140.292L66.6881 148.345L67.3059 149.152L66.5333 149.53L64.9912 150.817L63.601 152.664L62.8805 153.909L62.5377 155.714L61.9807 168.719L62.8284 170.952L63.7384 172.929L70.1529 185.218L72.7091 188.088L74.341 188.796L76.0625 189.232L78.8618 189.804L81.5699 190.437L83.9728 191.032L89.5077 192.987L92.5356 196.168L94.0691 198.666L94.8271 200.454L96.0047 203.327L97 207.36L95.6705 209.89L93.4311 211.731L91.1497 213.15L89.6915 214.251L88.4907 215.714L87.5041 217.684L86.9905 219.44L86.3815 221.875L85.7291 223.286L85.188 223.596V226.288L81.933 230.098L78.6766 231.731L74.3366 228.465L67.8252 227.921L64.5688 228.465L61.2863 231.252L60.4791 237.429L59.4838 239.573L58.4378 242.571L58.3351 244.879L58.7836 246.21Z" stroke="black" stroke-opacity="0.2" stroke-width="4" mask="url(#path-1-inside-1_8891_6808)"/>
</svg>
