<svg width="134" height="249" viewBox="0 0 134 249" fill="none" xmlns="http://www.w3.org/2000/svg">
<mask id="path-1-inside-1_8891_6807" fill="white">
<path d="M60.3592 31.419L57.6113 36.9501V43.8634V50.7768L63.1071 56.3061L66.8131 56.5033L66.9762 57.517L69.9788 58.3795L73.4137 60.4548V67.3664L69.9788 72.2063L67.2308 79.1197L66.5439 84.649L64.4811 90.18L61.7331 96.4004V103.314L65.8569 106.77L70.6657 110.918L70.38 116.381L71.6495 117.159L79.1642 122.791L83.4106 129.943L85.14 134.185L86.1714 136.889L86.9518 138.67L88.3184 140.695L90.9106 142.142L93.6531 142.929L101.151 147.463L104.352 152.356L113.957 171.97L113.969 172.669L116.4 175.115L118.447 177.997L119.676 186.234V189.528L119.454 189.579L119.676 190.762L122.131 196.117L125.815 203.117L129.499 210.529L132.774 219.177L134 226.59L131.137 230.707L127.861 234.414L123.358 238.942L120.623 239.862L119.502 242.477L115.519 243.467L112.581 240.879L107.77 239.497L102.272 244.337L96.7766 246.41L91.6288 249L91.1231 246.569L90.7091 244.881L87.5454 242.898L87.157 237.424V231.893L83.0333 229.128H79.5984L70.6657 231.201L65.8569 229.819L64.4811 223.597L58.9852 220.141L54.8615 222.215L50.0526 224.979L45.9289 229.128L44.5549 231.893L41.12 234.657L36.3093 236.733L31.9456 236.458L32.1031 235.835L31.8229 234.062L28.6829 227.578L21.5914 221.601L20.0269 221.031L14.9652 219.916L14.0163 219.616L11.5743 213.228V208.39L10.0922 206.259L10.1197 206.073L9.42723 192.672L9.299 190.561L11.0229 189.915L11.686 187.323L11.3801 184.907L11.8271 180.609L16.8705 178.17L23.4417 171.491L23.8282 168.465L22.8903 166.677L18.0063 165.47L11.7611 164.469L1.23657 151.886L0 141.344L0.324259 139.598L1.62677 137.413L3.47339 135.84L5.47206 134.584L9.06268 133.011L11.752 133.339H13.998L15.8885 130.523L17.083 127.292L19.699 114.383L19.0486 112.913L11.9791 109.442L11.4955 109.54L10.3395 108.301L8.89047 104.458L9.20923 104.204L8.40501 101.749L7.64475 100.363L6.28727 98.9992L5.19177 96.9147L3.63643 90.2759L5.19177 77.7153L9.91636 71.9243L11.6201 72.1639L11.1749 59.1665L8.38302 55.2979L5.69554 45.7452L12.1404 36.3769L16.7038 31.2789L18.3562 29.7289L20.571 29.622L22.1337 29.7307L28.6518 30.6062L31.5499 32.5893L33.6255 32.2152L35.6022 30.385L42.0745 22.2349L42.8677 15.515L42.8732 12.2528L43.835 10.3415L46.1817 7.24883L47.4952 6.01765L50.2743 4.01424L52.8482 2.30385L54.6948 1.49843L58.1169 0.322545L59.2472 0L61.0608 4.30729L63.6878 13.2812L63.9919 15.5796L64.6661 17.0724L65.3861 18.1764L63.1071 26.5809L60.3592 31.419Z"/>
</mask>
<path d="M60.3592 31.419L57.6113 36.9501V43.8634V50.7768L63.1071 56.3061L66.8131 56.5033L66.9762 57.517L69.9788 58.3795L73.4137 60.4548V67.3664L69.9788 72.2063L67.2308 79.1197L66.5439 84.649L64.4811 90.18L61.7331 96.4004V103.314L65.8569 106.77L70.6657 110.918L70.38 116.381L71.6495 117.159L79.1642 122.791L83.4106 129.943L85.14 134.185L86.1714 136.889L86.9518 138.67L88.3184 140.695L90.9106 142.142L93.6531 142.929L101.151 147.463L104.352 152.356L113.957 171.97L113.969 172.669L116.4 175.115L118.447 177.997L119.676 186.234V189.528L119.454 189.579L119.676 190.762L122.131 196.117L125.815 203.117L129.499 210.529L132.774 219.177L134 226.59L131.137 230.707L127.861 234.414L123.358 238.942L120.623 239.862L119.502 242.477L115.519 243.467L112.581 240.879L107.77 239.497L102.272 244.337L96.7766 246.41L91.6288 249L91.1231 246.569L90.7091 244.881L87.5454 242.898L87.157 237.424V231.893L83.0333 229.128H79.5984L70.6657 231.201L65.8569 229.819L64.4811 223.597L58.9852 220.141L54.8615 222.215L50.0526 224.979L45.9289 229.128L44.5549 231.893L41.12 234.657L36.3093 236.733L31.9456 236.458L32.1031 235.835L31.8229 234.062L28.6829 227.578L21.5914 221.601L20.0269 221.031L14.9652 219.916L14.0163 219.616L11.5743 213.228V208.39L10.0922 206.259L10.1197 206.073L9.42723 192.672L9.299 190.561L11.0229 189.915L11.686 187.323L11.3801 184.907L11.8271 180.609L16.8705 178.17L23.4417 171.491L23.8282 168.465L22.8903 166.677L18.0063 165.47L11.7611 164.469L1.23657 151.886L0 141.344L0.324259 139.598L1.62677 137.413L3.47339 135.84L5.47206 134.584L9.06268 133.011L11.752 133.339H13.998L15.8885 130.523L17.083 127.292L19.699 114.383L19.0486 112.913L11.9791 109.442L11.4955 109.54L10.3395 108.301L8.89047 104.458L9.20923 104.204L8.40501 101.749L7.64475 100.363L6.28727 98.9992L5.19177 96.9147L3.63643 90.2759L5.19177 77.7153L9.91636 71.9243L11.6201 72.1639L11.1749 59.1665L8.38302 55.2979L5.69554 45.7452L12.1404 36.3769L16.7038 31.2789L18.3562 29.7289L20.571 29.622L22.1337 29.7307L28.6518 30.6062L31.5499 32.5893L33.6255 32.2152L35.6022 30.385L42.0745 22.2349L42.8677 15.515L42.8732 12.2528L43.835 10.3415L46.1817 7.24883L47.4952 6.01765L50.2743 4.01424L52.8482 2.30385L54.6948 1.49843L58.1169 0.322545L59.2472 0L61.0608 4.30729L63.6878 13.2812L63.9919 15.5796L64.6661 17.0724L65.3861 18.1764L63.1071 26.5809L60.3592 31.419Z" fill="#E9ECF2"/>
<path d="M60.3592 31.419L57.6113 36.9501V43.8634V50.7768L63.1071 56.3061L66.8131 56.5033L66.9762 57.517L69.9788 58.3795L73.4137 60.4548V67.3664L69.9788 72.2063L67.2308 79.1197L66.5439 84.649L64.4811 90.18L61.7331 96.4004V103.314L65.8569 106.77L70.6657 110.918L70.38 116.381L71.6495 117.159L79.1642 122.791L83.4106 129.943L85.14 134.185L86.1714 136.889L86.9518 138.67L88.3184 140.695L90.9106 142.142L93.6531 142.929L101.151 147.463L104.352 152.356L113.957 171.97L113.969 172.669L116.4 175.115L118.447 177.997L119.676 186.234V189.528L119.454 189.579L119.676 190.762L122.131 196.117L125.815 203.117L129.499 210.529L132.774 219.177L134 226.59L131.137 230.707L127.861 234.414L123.358 238.942L120.623 239.862L119.502 242.477L115.519 243.467L112.581 240.879L107.77 239.497L102.272 244.337L96.7766 246.41L91.6288 249L91.1231 246.569L90.7091 244.881L87.5454 242.898L87.157 237.424V231.893L83.0333 229.128H79.5984L70.6657 231.201L65.8569 229.819L64.4811 223.597L58.9852 220.141L54.8615 222.215L50.0526 224.979L45.9289 229.128L44.5549 231.893L41.12 234.657L36.3093 236.733L31.9456 236.458L32.1031 235.835L31.8229 234.062L28.6829 227.578L21.5914 221.601L20.0269 221.031L14.9652 219.916L14.0163 219.616L11.5743 213.228V208.39L10.0922 206.259L10.1197 206.073L9.42723 192.672L9.299 190.561L11.0229 189.915L11.686 187.323L11.3801 184.907L11.8271 180.609L16.8705 178.17L23.4417 171.491L23.8282 168.465L22.8903 166.677L18.0063 165.47L11.7611 164.469L1.23657 151.886L0 141.344L0.324259 139.598L1.62677 137.413L3.47339 135.84L5.47206 134.584L9.06268 133.011L11.752 133.339H13.998L15.8885 130.523L17.083 127.292L19.699 114.383L19.0486 112.913L11.9791 109.442L11.4955 109.54L10.3395 108.301L8.89047 104.458L9.20923 104.204L8.40501 101.749L7.64475 100.363L6.28727 98.9992L5.19177 96.9147L3.63643 90.2759L5.19177 77.7153L9.91636 71.9243L11.6201 72.1639L11.1749 59.1665L8.38302 55.2979L5.69554 45.7452L12.1404 36.3769L16.7038 31.2789L18.3562 29.7289L20.571 29.622L22.1337 29.7307L28.6518 30.6062L31.5499 32.5893L33.6255 32.2152L35.6022 30.385L42.0745 22.2349L42.8677 15.515L42.8732 12.2528L43.835 10.3415L46.1817 7.24883L47.4952 6.01765L50.2743 4.01424L52.8482 2.30385L54.6948 1.49843L58.1169 0.322545L59.2472 0L61.0608 4.30729L63.6878 13.2812L63.9919 15.5796L64.6661 17.0724L65.3861 18.1764L63.1071 26.5809L60.3592 31.419Z" stroke="#8F959D" stroke-width="4" mask="url(#path-1-inside-1_8891_6807)"/>
<path d="M60.3592 31.419L57.6113 36.9501V43.8634V50.7768L63.1071 56.3061L66.8131 56.5033L66.9762 57.517L69.9788 58.3795L73.4137 60.4548V67.3664L69.9788 72.2063L67.2308 79.1197L66.5439 84.649L64.4811 90.18L61.7331 96.4004V103.314L65.8569 106.77L70.6657 110.918L70.38 116.381L71.6495 117.159L79.1642 122.791L83.4106 129.943L85.14 134.185L86.1714 136.889L86.9518 138.67L88.3184 140.695L90.9106 142.142L93.6531 142.929L101.151 147.463L104.352 152.356L113.957 171.97L113.969 172.669L116.4 175.115L118.447 177.997L119.676 186.234V189.528L119.454 189.579L119.676 190.762L122.131 196.117L125.815 203.117L129.499 210.529L132.774 219.177L134 226.59L131.137 230.707L127.861 234.414L123.358 238.942L120.623 239.862L119.502 242.477L115.519 243.467L112.581 240.879L107.77 239.497L102.272 244.337L96.7766 246.41L91.6288 249L91.1231 246.569L90.7091 244.881L87.5454 242.898L87.157 237.424V231.893L83.0333 229.128H79.5984L70.6657 231.201L65.8569 229.819L64.4811 223.597L58.9852 220.141L54.8615 222.215L50.0526 224.979L45.9289 229.128L44.5549 231.893L41.12 234.657L36.3093 236.733L31.9456 236.458L32.1031 235.835L31.8229 234.062L28.6829 227.578L21.5914 221.601L20.0269 221.031L14.9652 219.916L14.0163 219.616L11.5743 213.228V208.39L10.0922 206.259L10.1197 206.073L9.42723 192.672L9.299 190.561L11.0229 189.915L11.686 187.323L11.3801 184.907L11.8271 180.609L16.8705 178.17L23.4417 171.491L23.8282 168.465L22.8903 166.677L18.0063 165.47L11.7611 164.469L1.23657 151.886L0 141.344L0.324259 139.598L1.62677 137.413L3.47339 135.84L5.47206 134.584L9.06268 133.011L11.752 133.339H13.998L15.8885 130.523L17.083 127.292L19.699 114.383L19.0486 112.913L11.9791 109.442L11.4955 109.54L10.3395 108.301L8.89047 104.458L9.20923 104.204L8.40501 101.749L7.64475 100.363L6.28727 98.9992L5.19177 96.9147L3.63643 90.2759L5.19177 77.7153L9.91636 71.9243L11.6201 72.1639L11.1749 59.1665L8.38302 55.2979L5.69554 45.7452L12.1404 36.3769L16.7038 31.2789L18.3562 29.7289L20.571 29.622L22.1337 29.7307L28.6518 30.6062L31.5499 32.5893L33.6255 32.2152L35.6022 30.385L42.0745 22.2349L42.8677 15.515L42.8732 12.2528L43.835 10.3415L46.1817 7.24883L47.4952 6.01765L50.2743 4.01424L52.8482 2.30385L54.6948 1.49843L58.1169 0.322545L59.2472 0L61.0608 4.30729L63.6878 13.2812L63.9919 15.5796L64.6661 17.0724L65.3861 18.1764L63.1071 26.5809L60.3592 31.419Z" stroke="black" stroke-opacity="0.2" stroke-width="4" mask="url(#path-1-inside-1_8891_6807)"/>
<path d="M60.3592 31.419L57.6113 36.9501V43.8634V50.7768L63.1071 56.3061L66.8131 56.5033L66.9762 57.517L69.9788 58.3795L73.4137 60.4548V67.3664L69.9788 72.2063L67.2308 79.1197L66.5439 84.649L64.4811 90.18L61.7331 96.4004V103.314L65.8569 106.77L70.6657 110.918L70.38 116.381L71.6495 117.159L79.1642 122.791L83.4106 129.943L85.14 134.185L86.1714 136.889L86.9518 138.67L88.3184 140.695L90.9106 142.142L93.6531 142.929L101.151 147.463L104.352 152.356L113.957 171.97L113.969 172.669L116.4 175.115L118.447 177.997L119.676 186.234V189.528L119.454 189.579L119.676 190.762L122.131 196.117L125.815 203.117L129.499 210.529L132.774 219.177L134 226.59L131.137 230.707L127.861 234.414L123.358 238.942L120.623 239.862L119.502 242.477L115.519 243.467L112.581 240.879L107.77 239.497L102.272 244.337L96.7766 246.41L91.6288 249L91.1231 246.569L90.7091 244.881L87.5454 242.898L87.157 237.424V231.893L83.0333 229.128H79.5984L70.6657 231.201L65.8569 229.819L64.4811 223.597L58.9852 220.141L54.8615 222.215L50.0526 224.979L45.9289 229.128L44.5549 231.893L41.12 234.657L36.3093 236.733L31.9456 236.458L32.1031 235.835L31.8229 234.062L28.6829 227.578L21.5914 221.601L20.0269 221.031L14.9652 219.916L14.0163 219.616L11.5743 213.228V208.39L10.0922 206.259L10.1197 206.073L9.42723 192.672L9.299 190.561L11.0229 189.915L11.686 187.323L11.3801 184.907L11.8271 180.609L16.8705 178.17L23.4417 171.491L23.8282 168.465L22.8903 166.677L18.0063 165.47L11.7611 164.469L1.23657 151.886L0 141.344L0.324259 139.598L1.62677 137.413L3.47339 135.84L5.47206 134.584L9.06268 133.011L11.752 133.339H13.998L15.8885 130.523L17.083 127.292L19.699 114.383L19.0486 112.913L11.9791 109.442L11.4955 109.54L10.3395 108.301L8.89047 104.458L9.20923 104.204L8.40501 101.749L7.64475 100.363L6.28727 98.9992L5.19177 96.9147L3.63643 90.2759L5.19177 77.7153L9.91636 71.9243L11.6201 72.1639L11.1749 59.1665L8.38302 55.2979L5.69554 45.7452L12.1404 36.3769L16.7038 31.2789L18.3562 29.7289L20.571 29.622L22.1337 29.7307L28.6518 30.6062L31.5499 32.5893L33.6255 32.2152L35.6022 30.385L42.0745 22.2349L42.8677 15.515L42.8732 12.2528L43.835 10.3415L46.1817 7.24883L47.4952 6.01765L50.2743 4.01424L52.8482 2.30385L54.6948 1.49843L58.1169 0.322545L59.2472 0L61.0608 4.30729L63.6878 13.2812L63.9919 15.5796L64.6661 17.0724L65.3861 18.1764L63.1071 26.5809L60.3592 31.419Z" stroke="black" stroke-opacity="0.2" stroke-width="4" mask="url(#path-1-inside-1_8891_6807)"/>
<path d="M60.3592 31.419L57.6113 36.9501V43.8634V50.7768L63.1071 56.3061L66.8131 56.5033L66.9762 57.517L69.9788 58.3795L73.4137 60.4548V67.3664L69.9788 72.2063L67.2308 79.1197L66.5439 84.649L64.4811 90.18L61.7331 96.4004V103.314L65.8569 106.77L70.6657 110.918L70.38 116.381L71.6495 117.159L79.1642 122.791L83.4106 129.943L85.14 134.185L86.1714 136.889L86.9518 138.67L88.3184 140.695L90.9106 142.142L93.6531 142.929L101.151 147.463L104.352 152.356L113.957 171.97L113.969 172.669L116.4 175.115L118.447 177.997L119.676 186.234V189.528L119.454 189.579L119.676 190.762L122.131 196.117L125.815 203.117L129.499 210.529L132.774 219.177L134 226.59L131.137 230.707L127.861 234.414L123.358 238.942L120.623 239.862L119.502 242.477L115.519 243.467L112.581 240.879L107.77 239.497L102.272 244.337L96.7766 246.41L91.6288 249L91.1231 246.569L90.7091 244.881L87.5454 242.898L87.157 237.424V231.893L83.0333 229.128H79.5984L70.6657 231.201L65.8569 229.819L64.4811 223.597L58.9852 220.141L54.8615 222.215L50.0526 224.979L45.9289 229.128L44.5549 231.893L41.12 234.657L36.3093 236.733L31.9456 236.458L32.1031 235.835L31.8229 234.062L28.6829 227.578L21.5914 221.601L20.0269 221.031L14.9652 219.916L14.0163 219.616L11.5743 213.228V208.39L10.0922 206.259L10.1197 206.073L9.42723 192.672L9.299 190.561L11.0229 189.915L11.686 187.323L11.3801 184.907L11.8271 180.609L16.8705 178.17L23.4417 171.491L23.8282 168.465L22.8903 166.677L18.0063 165.47L11.7611 164.469L1.23657 151.886L0 141.344L0.324259 139.598L1.62677 137.413L3.47339 135.84L5.47206 134.584L9.06268 133.011L11.752 133.339H13.998L15.8885 130.523L17.083 127.292L19.699 114.383L19.0486 112.913L11.9791 109.442L11.4955 109.54L10.3395 108.301L8.89047 104.458L9.20923 104.204L8.40501 101.749L7.64475 100.363L6.28727 98.9992L5.19177 96.9147L3.63643 90.2759L5.19177 77.7153L9.91636 71.9243L11.6201 72.1639L11.1749 59.1665L8.38302 55.2979L5.69554 45.7452L12.1404 36.3769L16.7038 31.2789L18.3562 29.7289L20.571 29.622L22.1337 29.7307L28.6518 30.6062L31.5499 32.5893L33.6255 32.2152L35.6022 30.385L42.0745 22.2349L42.8677 15.515L42.8732 12.2528L43.835 10.3415L46.1817 7.24883L47.4952 6.01765L50.2743 4.01424L52.8482 2.30385L54.6948 1.49843L58.1169 0.322545L59.2472 0L61.0608 4.30729L63.6878 13.2812L63.9919 15.5796L64.6661 17.0724L65.3861 18.1764L63.1071 26.5809L60.3592 31.419Z" stroke="black" stroke-opacity="0.2" stroke-width="4" mask="url(#path-1-inside-1_8891_6807)"/>
<path d="M60.3592 31.419L57.6113 36.9501V43.8634V50.7768L63.1071 56.3061L66.8131 56.5033L66.9762 57.517L69.9788 58.3795L73.4137 60.4548V67.3664L69.9788 72.2063L67.2308 79.1197L66.5439 84.649L64.4811 90.18L61.7331 96.4004V103.314L65.8569 106.77L70.6657 110.918L70.38 116.381L71.6495 117.159L79.1642 122.791L83.4106 129.943L85.14 134.185L86.1714 136.889L86.9518 138.67L88.3184 140.695L90.9106 142.142L93.6531 142.929L101.151 147.463L104.352 152.356L113.957 171.97L113.969 172.669L116.4 175.115L118.447 177.997L119.676 186.234V189.528L119.454 189.579L119.676 190.762L122.131 196.117L125.815 203.117L129.499 210.529L132.774 219.177L134 226.59L131.137 230.707L127.861 234.414L123.358 238.942L120.623 239.862L119.502 242.477L115.519 243.467L112.581 240.879L107.77 239.497L102.272 244.337L96.7766 246.41L91.6288 249L91.1231 246.569L90.7091 244.881L87.5454 242.898L87.157 237.424V231.893L83.0333 229.128H79.5984L70.6657 231.201L65.8569 229.819L64.4811 223.597L58.9852 220.141L54.8615 222.215L50.0526 224.979L45.9289 229.128L44.5549 231.893L41.12 234.657L36.3093 236.733L31.9456 236.458L32.1031 235.835L31.8229 234.062L28.6829 227.578L21.5914 221.601L20.0269 221.031L14.9652 219.916L14.0163 219.616L11.5743 213.228V208.39L10.0922 206.259L10.1197 206.073L9.42723 192.672L9.299 190.561L11.0229 189.915L11.686 187.323L11.3801 184.907L11.8271 180.609L16.8705 178.17L23.4417 171.491L23.8282 168.465L22.8903 166.677L18.0063 165.47L11.7611 164.469L1.23657 151.886L0 141.344L0.324259 139.598L1.62677 137.413L3.47339 135.84L5.47206 134.584L9.06268 133.011L11.752 133.339H13.998L15.8885 130.523L17.083 127.292L19.699 114.383L19.0486 112.913L11.9791 109.442L11.4955 109.54L10.3395 108.301L8.89047 104.458L9.20923 104.204L8.40501 101.749L7.64475 100.363L6.28727 98.9992L5.19177 96.9147L3.63643 90.2759L5.19177 77.7153L9.91636 71.9243L11.6201 72.1639L11.1749 59.1665L8.38302 55.2979L5.69554 45.7452L12.1404 36.3769L16.7038 31.2789L18.3562 29.7289L20.571 29.622L22.1337 29.7307L28.6518 30.6062L31.5499 32.5893L33.6255 32.2152L35.6022 30.385L42.0745 22.2349L42.8677 15.515L42.8732 12.2528L43.835 10.3415L46.1817 7.24883L47.4952 6.01765L50.2743 4.01424L52.8482 2.30385L54.6948 1.49843L58.1169 0.322545L59.2472 0L61.0608 4.30729L63.6878 13.2812L63.9919 15.5796L64.6661 17.0724L65.3861 18.1764L63.1071 26.5809L60.3592 31.419Z" stroke="black" stroke-opacity="0.2" stroke-width="4" mask="url(#path-1-inside-1_8891_6807)"/>
<path d="M60.3592 31.419L57.6113 36.9501V43.8634V50.7768L63.1071 56.3061L66.8131 56.5033L66.9762 57.517L69.9788 58.3795L73.4137 60.4548V67.3664L69.9788 72.2063L67.2308 79.1197L66.5439 84.649L64.4811 90.18L61.7331 96.4004V103.314L65.8569 106.77L70.6657 110.918L70.38 116.381L71.6495 117.159L79.1642 122.791L83.4106 129.943L85.14 134.185L86.1714 136.889L86.9518 138.67L88.3184 140.695L90.9106 142.142L93.6531 142.929L101.151 147.463L104.352 152.356L113.957 171.97L113.969 172.669L116.4 175.115L118.447 177.997L119.676 186.234V189.528L119.454 189.579L119.676 190.762L122.131 196.117L125.815 203.117L129.499 210.529L132.774 219.177L134 226.59L131.137 230.707L127.861 234.414L123.358 238.942L120.623 239.862L119.502 242.477L115.519 243.467L112.581 240.879L107.77 239.497L102.272 244.337L96.7766 246.41L91.6288 249L91.1231 246.569L90.7091 244.881L87.5454 242.898L87.157 237.424V231.893L83.0333 229.128H79.5984L70.6657 231.201L65.8569 229.819L64.4811 223.597L58.9852 220.141L54.8615 222.215L50.0526 224.979L45.9289 229.128L44.5549 231.893L41.12 234.657L36.3093 236.733L31.9456 236.458L32.1031 235.835L31.8229 234.062L28.6829 227.578L21.5914 221.601L20.0269 221.031L14.9652 219.916L14.0163 219.616L11.5743 213.228V208.39L10.0922 206.259L10.1197 206.073L9.42723 192.672L9.299 190.561L11.0229 189.915L11.686 187.323L11.3801 184.907L11.8271 180.609L16.8705 178.17L23.4417 171.491L23.8282 168.465L22.8903 166.677L18.0063 165.47L11.7611 164.469L1.23657 151.886L0 141.344L0.324259 139.598L1.62677 137.413L3.47339 135.84L5.47206 134.584L9.06268 133.011L11.752 133.339H13.998L15.8885 130.523L17.083 127.292L19.699 114.383L19.0486 112.913L11.9791 109.442L11.4955 109.54L10.3395 108.301L8.89047 104.458L9.20923 104.204L8.40501 101.749L7.64475 100.363L6.28727 98.9992L5.19177 96.9147L3.63643 90.2759L5.19177 77.7153L9.91636 71.9243L11.6201 72.1639L11.1749 59.1665L8.38302 55.2979L5.69554 45.7452L12.1404 36.3769L16.7038 31.2789L18.3562 29.7289L20.571 29.622L22.1337 29.7307L28.6518 30.6062L31.5499 32.5893L33.6255 32.2152L35.6022 30.385L42.0745 22.2349L42.8677 15.515L42.8732 12.2528L43.835 10.3415L46.1817 7.24883L47.4952 6.01765L50.2743 4.01424L52.8482 2.30385L54.6948 1.49843L58.1169 0.322545L59.2472 0L61.0608 4.30729L63.6878 13.2812L63.9919 15.5796L64.6661 17.0724L65.3861 18.1764L63.1071 26.5809L60.3592 31.419Z" stroke="black" stroke-opacity="0.2" stroke-width="4" mask="url(#path-1-inside-1_8891_6807)"/>
</svg>
