<svg width="182" height="249" viewBox="0 0 182 249" fill="none" xmlns="http://www.w3.org/2000/svg">
<mask id="path-1-inside-1_8895_6818" fill="white">
<path d="M182 117.078L176.125 121.278L166.921 124.348L161.398 135.401L152.806 140.926L145.44 144.611L139.919 151.98L132.552 159.964L128.751 161.866L128.446 161.162L125.367 159.782L113.202 163.391L109.393 176.421L112.098 178.636L114.93 180.002L116.949 181.401L122.747 188.926L125.732 192.925L124.538 197.474L124.277 201.42L125.172 205.894L125.559 206.689L125.189 215.228L124.576 228.123L120.28 240.406L117.825 245.32L104.938 249L94.5061 245.93H89.5979L89.6143 246.458L85.9146 245.32H77.3231L72.555 247.543L71.6898 246.546H64.436L54.6168 241.019L51.9607 236.668L51.2933 236.569L39.3235 230.962L35.7584 224.559L35.1871 212.906L38.95 205.719L36.11 191.347L39.0791 187.731L41.5236 185.93L42.8584 183.932L44.6163 179.834L44.619 176.965L43.6522 176.564L45.4128 171.63L44.7975 166.104L41.1171 162.421L33.7533 163.034L27.6146 167.945L23.1184 171.243L22.1461 171.18L16.7709 171.413L13.0081 171.779L10.1103 171.812L7.99547 170.696L7.50105 168.973L3.68052 169.176L0 164.259L4.90824 157.507L9.81919 148.91L11.6595 138.471V131.103L12.629 125.477L12.651 125.474L12.2719 121.89L19.6384 118.821L22.7064 112.065L25.7744 107.767L29.4576 101.014L33.7533 96.7126L31.9104 91.1884L33.1381 83.2043L35.6375 77.8449L33.7781 76.5917L33.6243 76.1438H42.9573L55.232 63.2483L69.3442 50.9659L82.2342 39.299L92.6631 23.3337L93.5722 21.0635L93.8936 20.8794L95.1185 6.75284L101.87 2.45431L117.57 0.0109875L134.395 0.615633L139.919 0L142.094 1.65726L143.006 1.84145H152.191L168.761 5.52703L175.512 11.6668L177.353 19.6481L173.021 20.8299L176.24 26.3295L173.057 29.7814L166.921 34.0799L159.263 33.423L158.799 34.4124L155.33 44.1444L157.714 46.3595L162.625 52.4994L163.908 56.8666L166.443 57.2212L168.009 59.5024L171.217 71.5374L174.897 85.0458L177.965 97.3283L180.368 109.347L179.446 112.782L182 117.078Z"/>
</mask>
<path d="M182 117.078L176.125 121.278L166.921 124.348L161.398 135.401L152.806 140.926L145.44 144.611L139.919 151.98L132.552 159.964L128.751 161.866L128.446 161.162L125.367 159.782L113.202 163.391L109.393 176.421L112.098 178.636L114.93 180.002L116.949 181.401L122.747 188.926L125.732 192.925L124.538 197.474L124.277 201.42L125.172 205.894L125.559 206.689L125.189 215.228L124.576 228.123L120.28 240.406L117.825 245.32L104.938 249L94.5061 245.93H89.5979L89.6143 246.458L85.9146 245.32H77.3231L72.555 247.543L71.6898 246.546H64.436L54.6168 241.019L51.9607 236.668L51.2933 236.569L39.3235 230.962L35.7584 224.559L35.1871 212.906L38.95 205.719L36.11 191.347L39.0791 187.731L41.5236 185.93L42.8584 183.932L44.6163 179.834L44.619 176.965L43.6522 176.564L45.4128 171.63L44.7975 166.104L41.1171 162.421L33.7533 163.034L27.6146 167.945L23.1184 171.243L22.1461 171.18L16.7709 171.413L13.0081 171.779L10.1103 171.812L7.99547 170.696L7.50105 168.973L3.68052 169.176L0 164.259L4.90824 157.507L9.81919 148.91L11.6595 138.471V131.103L12.629 125.477L12.651 125.474L12.2719 121.89L19.6384 118.821L22.7064 112.065L25.7744 107.767L29.4576 101.014L33.7533 96.7126L31.9104 91.1884L33.1381 83.2043L35.6375 77.8449L33.7781 76.5917L33.6243 76.1438H42.9573L55.232 63.2483L69.3442 50.9659L82.2342 39.299L92.6631 23.3337L93.5722 21.0635L93.8936 20.8794L95.1185 6.75284L101.87 2.45431L117.57 0.0109875L134.395 0.615633L139.919 0L142.094 1.65726L143.006 1.84145H152.191L168.761 5.52703L175.512 11.6668L177.353 19.6481L173.021 20.8299L176.24 26.3295L173.057 29.7814L166.921 34.0799L159.263 33.423L158.799 34.4124L155.33 44.1444L157.714 46.3595L162.625 52.4994L163.908 56.8666L166.443 57.2212L168.009 59.5024L171.217 71.5374L174.897 85.0458L177.965 97.3283L180.368 109.347L179.446 112.782L182 117.078Z" fill="#E9ECF2"/>
<path d="M182 117.078L176.125 121.278L166.921 124.348L161.398 135.401L152.806 140.926L145.44 144.611L139.919 151.98L132.552 159.964L128.751 161.866L128.446 161.162L125.367 159.782L113.202 163.391L109.393 176.421L112.098 178.636L114.93 180.002L116.949 181.401L122.747 188.926L125.732 192.925L124.538 197.474L124.277 201.42L125.172 205.894L125.559 206.689L125.189 215.228L124.576 228.123L120.28 240.406L117.825 245.32L104.938 249L94.5061 245.93H89.5979L89.6143 246.458L85.9146 245.32H77.3231L72.555 247.543L71.6898 246.546H64.436L54.6168 241.019L51.9607 236.668L51.2933 236.569L39.3235 230.962L35.7584 224.559L35.1871 212.906L38.95 205.719L36.11 191.347L39.0791 187.731L41.5236 185.93L42.8584 183.932L44.6163 179.834L44.619 176.965L43.6522 176.564L45.4128 171.63L44.7975 166.104L41.1171 162.421L33.7533 163.034L27.6146 167.945L23.1184 171.243L22.1461 171.18L16.7709 171.413L13.0081 171.779L10.1103 171.812L7.99547 170.696L7.50105 168.973L3.68052 169.176L0 164.259L4.90824 157.507L9.81919 148.91L11.6595 138.471V131.103L12.629 125.477L12.651 125.474L12.2719 121.89L19.6384 118.821L22.7064 112.065L25.7744 107.767L29.4576 101.014L33.7533 96.7126L31.9104 91.1884L33.1381 83.2043L35.6375 77.8449L33.7781 76.5917L33.6243 76.1438H42.9573L55.232 63.2483L69.3442 50.9659L82.2342 39.299L92.6631 23.3337L93.5722 21.0635L93.8936 20.8794L95.1185 6.75284L101.87 2.45431L117.57 0.0109875L134.395 0.615633L139.919 0L142.094 1.65726L143.006 1.84145H152.191L168.761 5.52703L175.512 11.6668L177.353 19.6481L173.021 20.8299L176.24 26.3295L173.057 29.7814L166.921 34.0799L159.263 33.423L158.799 34.4124L155.33 44.1444L157.714 46.3595L162.625 52.4994L163.908 56.8666L166.443 57.2212L168.009 59.5024L171.217 71.5374L174.897 85.0458L177.965 97.3283L180.368 109.347L179.446 112.782L182 117.078Z" stroke="#8F959D" stroke-width="4" mask="url(#path-1-inside-1_8895_6818)"/>
<path d="M182 117.078L176.125 121.278L166.921 124.348L161.398 135.401L152.806 140.926L145.44 144.611L139.919 151.98L132.552 159.964L128.751 161.866L128.446 161.162L125.367 159.782L113.202 163.391L109.393 176.421L112.098 178.636L114.93 180.002L116.949 181.401L122.747 188.926L125.732 192.925L124.538 197.474L124.277 201.42L125.172 205.894L125.559 206.689L125.189 215.228L124.576 228.123L120.28 240.406L117.825 245.32L104.938 249L94.5061 245.93H89.5979L89.6143 246.458L85.9146 245.32H77.3231L72.555 247.543L71.6898 246.546H64.436L54.6168 241.019L51.9607 236.668L51.2933 236.569L39.3235 230.962L35.7584 224.559L35.1871 212.906L38.95 205.719L36.11 191.347L39.0791 187.731L41.5236 185.93L42.8584 183.932L44.6163 179.834L44.619 176.965L43.6522 176.564L45.4128 171.63L44.7975 166.104L41.1171 162.421L33.7533 163.034L27.6146 167.945L23.1184 171.243L22.1461 171.18L16.7709 171.413L13.0081 171.779L10.1103 171.812L7.99547 170.696L7.50105 168.973L3.68052 169.176L0 164.259L4.90824 157.507L9.81919 148.91L11.6595 138.471V131.103L12.629 125.477L12.651 125.474L12.2719 121.89L19.6384 118.821L22.7064 112.065L25.7744 107.767L29.4576 101.014L33.7533 96.7126L31.9104 91.1884L33.1381 83.2043L35.6375 77.8449L33.7781 76.5917L33.6243 76.1438H42.9573L55.232 63.2483L69.3442 50.9659L82.2342 39.299L92.6631 23.3337L93.5722 21.0635L93.8936 20.8794L95.1185 6.75284L101.87 2.45431L117.57 0.0109875L134.395 0.615633L139.919 0L142.094 1.65726L143.006 1.84145H152.191L168.761 5.52703L175.512 11.6668L177.353 19.6481L173.021 20.8299L176.24 26.3295L173.057 29.7814L166.921 34.0799L159.263 33.423L158.799 34.4124L155.33 44.1444L157.714 46.3595L162.625 52.4994L163.908 56.8666L166.443 57.2212L168.009 59.5024L171.217 71.5374L174.897 85.0458L177.965 97.3283L180.368 109.347L179.446 112.782L182 117.078Z" stroke="black" stroke-opacity="0.2" stroke-width="4" mask="url(#path-1-inside-1_8895_6818)"/>
<path d="M182 117.078L176.125 121.278L166.921 124.348L161.398 135.401L152.806 140.926L145.44 144.611L139.919 151.98L132.552 159.964L128.751 161.866L128.446 161.162L125.367 159.782L113.202 163.391L109.393 176.421L112.098 178.636L114.93 180.002L116.949 181.401L122.747 188.926L125.732 192.925L124.538 197.474L124.277 201.42L125.172 205.894L125.559 206.689L125.189 215.228L124.576 228.123L120.28 240.406L117.825 245.32L104.938 249L94.5061 245.93H89.5979L89.6143 246.458L85.9146 245.32H77.3231L72.555 247.543L71.6898 246.546H64.436L54.6168 241.019L51.9607 236.668L51.2933 236.569L39.3235 230.962L35.7584 224.559L35.1871 212.906L38.95 205.719L36.11 191.347L39.0791 187.731L41.5236 185.93L42.8584 183.932L44.6163 179.834L44.619 176.965L43.6522 176.564L45.4128 171.63L44.7975 166.104L41.1171 162.421L33.7533 163.034L27.6146 167.945L23.1184 171.243L22.1461 171.18L16.7709 171.413L13.0081 171.779L10.1103 171.812L7.99547 170.696L7.50105 168.973L3.68052 169.176L0 164.259L4.90824 157.507L9.81919 148.91L11.6595 138.471V131.103L12.629 125.477L12.651 125.474L12.2719 121.89L19.6384 118.821L22.7064 112.065L25.7744 107.767L29.4576 101.014L33.7533 96.7126L31.9104 91.1884L33.1381 83.2043L35.6375 77.8449L33.7781 76.5917L33.6243 76.1438H42.9573L55.232 63.2483L69.3442 50.9659L82.2342 39.299L92.6631 23.3337L93.5722 21.0635L93.8936 20.8794L95.1185 6.75284L101.87 2.45431L117.57 0.0109875L134.395 0.615633L139.919 0L142.094 1.65726L143.006 1.84145H152.191L168.761 5.52703L175.512 11.6668L177.353 19.6481L173.021 20.8299L176.24 26.3295L173.057 29.7814L166.921 34.0799L159.263 33.423L158.799 34.4124L155.33 44.1444L157.714 46.3595L162.625 52.4994L163.908 56.8666L166.443 57.2212L168.009 59.5024L171.217 71.5374L174.897 85.0458L177.965 97.3283L180.368 109.347L179.446 112.782L182 117.078Z" stroke="black" stroke-opacity="0.2" stroke-width="4" mask="url(#path-1-inside-1_8895_6818)"/>
<path d="M182 117.078L176.125 121.278L166.921 124.348L161.398 135.401L152.806 140.926L145.44 144.611L139.919 151.98L132.552 159.964L128.751 161.866L128.446 161.162L125.367 159.782L113.202 163.391L109.393 176.421L112.098 178.636L114.93 180.002L116.949 181.401L122.747 188.926L125.732 192.925L124.538 197.474L124.277 201.42L125.172 205.894L125.559 206.689L125.189 215.228L124.576 228.123L120.28 240.406L117.825 245.32L104.938 249L94.5061 245.93H89.5979L89.6143 246.458L85.9146 245.32H77.3231L72.555 247.543L71.6898 246.546H64.436L54.6168 241.019L51.9607 236.668L51.2933 236.569L39.3235 230.962L35.7584 224.559L35.1871 212.906L38.95 205.719L36.11 191.347L39.0791 187.731L41.5236 185.93L42.8584 183.932L44.6163 179.834L44.619 176.965L43.6522 176.564L45.4128 171.63L44.7975 166.104L41.1171 162.421L33.7533 163.034L27.6146 167.945L23.1184 171.243L22.1461 171.18L16.7709 171.413L13.0081 171.779L10.1103 171.812L7.99547 170.696L7.50105 168.973L3.68052 169.176L0 164.259L4.90824 157.507L9.81919 148.91L11.6595 138.471V131.103L12.629 125.477L12.651 125.474L12.2719 121.89L19.6384 118.821L22.7064 112.065L25.7744 107.767L29.4576 101.014L33.7533 96.7126L31.9104 91.1884L33.1381 83.2043L35.6375 77.8449L33.7781 76.5917L33.6243 76.1438H42.9573L55.232 63.2483L69.3442 50.9659L82.2342 39.299L92.6631 23.3337L93.5722 21.0635L93.8936 20.8794L95.1185 6.75284L101.87 2.45431L117.57 0.0109875L134.395 0.615633L139.919 0L142.094 1.65726L143.006 1.84145H152.191L168.761 5.52703L175.512 11.6668L177.353 19.6481L173.021 20.8299L176.24 26.3295L173.057 29.7814L166.921 34.0799L159.263 33.423L158.799 34.4124L155.33 44.1444L157.714 46.3595L162.625 52.4994L163.908 56.8666L166.443 57.2212L168.009 59.5024L171.217 71.5374L174.897 85.0458L177.965 97.3283L180.368 109.347L179.446 112.782L182 117.078Z" stroke="black" stroke-opacity="0.2" stroke-width="4" mask="url(#path-1-inside-1_8895_6818)"/>
<path d="M182 117.078L176.125 121.278L166.921 124.348L161.398 135.401L152.806 140.926L145.44 144.611L139.919 151.98L132.552 159.964L128.751 161.866L128.446 161.162L125.367 159.782L113.202 163.391L109.393 176.421L112.098 178.636L114.93 180.002L116.949 181.401L122.747 188.926L125.732 192.925L124.538 197.474L124.277 201.42L125.172 205.894L125.559 206.689L125.189 215.228L124.576 228.123L120.28 240.406L117.825 245.32L104.938 249L94.5061 245.93H89.5979L89.6143 246.458L85.9146 245.32H77.3231L72.555 247.543L71.6898 246.546H64.436L54.6168 241.019L51.9607 236.668L51.2933 236.569L39.3235 230.962L35.7584 224.559L35.1871 212.906L38.95 205.719L36.11 191.347L39.0791 187.731L41.5236 185.93L42.8584 183.932L44.6163 179.834L44.619 176.965L43.6522 176.564L45.4128 171.63L44.7975 166.104L41.1171 162.421L33.7533 163.034L27.6146 167.945L23.1184 171.243L22.1461 171.18L16.7709 171.413L13.0081 171.779L10.1103 171.812L7.99547 170.696L7.50105 168.973L3.68052 169.176L0 164.259L4.90824 157.507L9.81919 148.91L11.6595 138.471V131.103L12.629 125.477L12.651 125.474L12.2719 121.89L19.6384 118.821L22.7064 112.065L25.7744 107.767L29.4576 101.014L33.7533 96.7126L31.9104 91.1884L33.1381 83.2043L35.6375 77.8449L33.7781 76.5917L33.6243 76.1438H42.9573L55.232 63.2483L69.3442 50.9659L82.2342 39.299L92.6631 23.3337L93.5722 21.0635L93.8936 20.8794L95.1185 6.75284L101.87 2.45431L117.57 0.0109875L134.395 0.615633L139.919 0L142.094 1.65726L143.006 1.84145H152.191L168.761 5.52703L175.512 11.6668L177.353 19.6481L173.021 20.8299L176.24 26.3295L173.057 29.7814L166.921 34.0799L159.263 33.423L158.799 34.4124L155.33 44.1444L157.714 46.3595L162.625 52.4994L163.908 56.8666L166.443 57.2212L168.009 59.5024L171.217 71.5374L174.897 85.0458L177.965 97.3283L180.368 109.347L179.446 112.782L182 117.078Z" stroke="black" stroke-opacity="0.2" stroke-width="4" mask="url(#path-1-inside-1_8895_6818)"/>
<path d="M182 117.078L176.125 121.278L166.921 124.348L161.398 135.401L152.806 140.926L145.44 144.611L139.919 151.98L132.552 159.964L128.751 161.866L128.446 161.162L125.367 159.782L113.202 163.391L109.393 176.421L112.098 178.636L114.93 180.002L116.949 181.401L122.747 188.926L125.732 192.925L124.538 197.474L124.277 201.42L125.172 205.894L125.559 206.689L125.189 215.228L124.576 228.123L120.28 240.406L117.825 245.32L104.938 249L94.5061 245.93H89.5979L89.6143 246.458L85.9146 245.32H77.3231L72.555 247.543L71.6898 246.546H64.436L54.6168 241.019L51.9607 236.668L51.2933 236.569L39.3235 230.962L35.7584 224.559L35.1871 212.906L38.95 205.719L36.11 191.347L39.0791 187.731L41.5236 185.93L42.8584 183.932L44.6163 179.834L44.619 176.965L43.6522 176.564L45.4128 171.63L44.7975 166.104L41.1171 162.421L33.7533 163.034L27.6146 167.945L23.1184 171.243L22.1461 171.18L16.7709 171.413L13.0081 171.779L10.1103 171.812L7.99547 170.696L7.50105 168.973L3.68052 169.176L0 164.259L4.90824 157.507L9.81919 148.91L11.6595 138.471V131.103L12.629 125.477L12.651 125.474L12.2719 121.89L19.6384 118.821L22.7064 112.065L25.7744 107.767L29.4576 101.014L33.7533 96.7126L31.9104 91.1884L33.1381 83.2043L35.6375 77.8449L33.7781 76.5917L33.6243 76.1438H42.9573L55.232 63.2483L69.3442 50.9659L82.2342 39.299L92.6631 23.3337L93.5722 21.0635L93.8936 20.8794L95.1185 6.75284L101.87 2.45431L117.57 0.0109875L134.395 0.615633L139.919 0L142.094 1.65726L143.006 1.84145H152.191L168.761 5.52703L175.512 11.6668L177.353 19.6481L173.021 20.8299L176.24 26.3295L173.057 29.7814L166.921 34.0799L159.263 33.423L158.799 34.4124L155.33 44.1444L157.714 46.3595L162.625 52.4994L163.908 56.8666L166.443 57.2212L168.009 59.5024L171.217 71.5374L174.897 85.0458L177.965 97.3283L180.368 109.347L179.446 112.782L182 117.078Z" stroke="black" stroke-opacity="0.2" stroke-width="4" mask="url(#path-1-inside-1_8895_6818)"/>
</svg>
