<svg width="220" height="174" viewBox="0 0 220 174" fill="none" xmlns="http://www.w3.org/2000/svg">
<mask id="path-1-inside-1_8892_6811" fill="white">
<path d="M5.23347 40.7527L5.51382 30.3562L0 26.9642V20.3353L0.674758 16.0201L3.80362 15.3248L10.1118 11.1198L14.3154 17.6123L15.2854 17.1881L17.6237 17.0778L19.1414 18.0665L19.8666 19.9185H23.0534H28.0645H31.2438L30.8625 18.472L33.9484 18.1281L40.9594 16.7265L46.5666 18.1281L54.2785 15.3248L59.8877 17.4273L63.3922 19.5317L66.1959 13.9232L69.0014 10.419L72.3097 12.073L72.4517 11.1273L76.089 14.0708L78.631 14.9791L81.6907 20.2306L86.8438 33.2137L88.9185 35.9984L92.952 36.4824L94.3613 35.434L95.7332 33.2193L94.2379 27.2408L92.1352 9.7163L99.1461 2.70801L106.664 0L109.407 4.3134L109.144 4.66849L108.323 6.53925L107.593 11.5011L107.237 14.9286L106.574 17.2423L106.318 18.1244L106.993 22.0042L108.83 26.8483L108.922 26.8091L108.664 33.2791L107.402 40.8462L109.852 50.0056L114.286 59.9013L115.604 61.3272L116.811 64.0016L117.207 66.2256L118.686 67.5189L119.938 70.025L124.115 77.5416L127.455 83.3875L130.796 87.9793L134.977 89.2857L136.493 88.4914L140.216 85.5255L147.995 81.4681L152.511 82.5521L158.776 80.8813L162.951 77.123L166.293 73.7833L165.875 65.4313L170.052 60.4208L171.063 53.0874L171.699 52.194L176.732 51.2334L182.579 50.3999L184.668 54.575H188.425L190.515 50.8167L190.932 45.3895L193.855 37.4542L195.575 30.9225L196.382 30.3674L202.847 27.7304L204.642 27.2856L207.346 27.0838L211.778 27.3959L214.836 27.7734L216.31 28.5415L218.282 30.4627L219.469 33.1857L220 35.8806L219.759 37.9476L215.946 40.422L211.247 49.5589L209.976 55.5954L211.395 61.673V70.025L214.737 74.2001L216.406 80.4646L213.064 84.6396L211.395 89.2333L211.499 90.3808L209.724 92.1544L205.129 97.5834L200.954 102.177L199.283 108.023L196.36 111.363L193.855 113.869L188.844 114.286L184.668 117.21L182.162 118.463L180.955 120.877L179.536 120.73L177.986 123.056L173.811 125.977L170.052 123.056L168.245 120.345L167.49 120.541L165.458 118.879L160.447 118.463L156.269 121.802L151.258 125.559L146.507 129.362L144.89 129.637L143.885 129.709L137.478 135.581L132.05 140.175L127.872 143.098L123.697 148.944L119.938 155.207L117.179 156.724L115.344 156.877L113.256 160.217L109.08 161.888L107.828 168.152L106.533 171.851L106.116 172.036L105.74 173.161L99.8938 172.746L92.3763 170.657L88.2007 169.403L80.2664 168.569L76.5058 166.9L72.3302 162.723L66.4837 162.306L60.2204 164.394L53.9552 168.569L48.5273 172.327L41.4098 174L41.193 173.759L40.0528 173.914L37.98 173.153L36.4399 171.877L35.6081 170.479L34.8829 166.543L33.1035 165.319L29.6139 166.113L27.5748 164.878L26.644 162.499L26.7112 161.101V160.649L28.9 158.965L30.1523 156.042L31.4045 151.031L29.7354 145.602L33.0755 142.263L35.9988 138.504L35.5801 128.902L34.3297 123.056L30.569 116.792L25.558 113.869L21.4161 111.796L18.876 112.198L20.1302 105.517L20.9656 101.34L24.8235 100.661L29.4682 90.1435L32.5933 83.1371L33.0232 82.5409L38.922 82.1334L43.0976 81.2981L45.6041 78.3752L46.0209 71.6958L39.7575 67.5189L29.3168 61.673L21.3825 56.2458L12.4351 52.0913L10.2109 49.2805L5.9325 42.0049L5.23347 40.7527Z"/>
</mask>
<path d="M5.23347 40.7527L5.51382 30.3562L0 26.9642V20.3353L0.674758 16.0201L3.80362 15.3248L10.1118 11.1198L14.3154 17.6123L15.2854 17.1881L17.6237 17.0778L19.1414 18.0665L19.8666 19.9185H23.0534H28.0645H31.2438L30.8625 18.472L33.9484 18.1281L40.9594 16.7265L46.5666 18.1281L54.2785 15.3248L59.8877 17.4273L63.3922 19.5317L66.1959 13.9232L69.0014 10.419L72.3097 12.073L72.4517 11.1273L76.089 14.0708L78.631 14.9791L81.6907 20.2306L86.8438 33.2137L88.9185 35.9984L92.952 36.4824L94.3613 35.434L95.7332 33.2193L94.2379 27.2408L92.1352 9.7163L99.1461 2.70801L106.664 0L109.407 4.3134L109.144 4.66849L108.323 6.53925L107.593 11.5011L107.237 14.9286L106.574 17.2423L106.318 18.1244L106.993 22.0042L108.83 26.8483L108.922 26.8091L108.664 33.2791L107.402 40.8462L109.852 50.0056L114.286 59.9013L115.604 61.3272L116.811 64.0016L117.207 66.2256L118.686 67.5189L119.938 70.025L124.115 77.5416L127.455 83.3875L130.796 87.9793L134.977 89.2857L136.493 88.4914L140.216 85.5255L147.995 81.4681L152.511 82.5521L158.776 80.8813L162.951 77.123L166.293 73.7833L165.875 65.4313L170.052 60.4208L171.063 53.0874L171.699 52.194L176.732 51.2334L182.579 50.3999L184.668 54.575H188.425L190.515 50.8167L190.932 45.3895L193.855 37.4542L195.575 30.9225L196.382 30.3674L202.847 27.7304L204.642 27.2856L207.346 27.0838L211.778 27.3959L214.836 27.7734L216.31 28.5415L218.282 30.4627L219.469 33.1857L220 35.8806L219.759 37.9476L215.946 40.422L211.247 49.5589L209.976 55.5954L211.395 61.673V70.025L214.737 74.2001L216.406 80.4646L213.064 84.6396L211.395 89.2333L211.499 90.3808L209.724 92.1544L205.129 97.5834L200.954 102.177L199.283 108.023L196.36 111.363L193.855 113.869L188.844 114.286L184.668 117.21L182.162 118.463L180.955 120.877L179.536 120.73L177.986 123.056L173.811 125.977L170.052 123.056L168.245 120.345L167.49 120.541L165.458 118.879L160.447 118.463L156.269 121.802L151.258 125.559L146.507 129.362L144.89 129.637L143.885 129.709L137.478 135.581L132.05 140.175L127.872 143.098L123.697 148.944L119.938 155.207L117.179 156.724L115.344 156.877L113.256 160.217L109.08 161.888L107.828 168.152L106.533 171.851L106.116 172.036L105.74 173.161L99.8938 172.746L92.3763 170.657L88.2007 169.403L80.2664 168.569L76.5058 166.9L72.3302 162.723L66.4837 162.306L60.2204 164.394L53.9552 168.569L48.5273 172.327L41.4098 174L41.193 173.759L40.0528 173.914L37.98 173.153L36.4399 171.877L35.6081 170.479L34.8829 166.543L33.1035 165.319L29.6139 166.113L27.5748 164.878L26.644 162.499L26.7112 161.101V160.649L28.9 158.965L30.1523 156.042L31.4045 151.031L29.7354 145.602L33.0755 142.263L35.9988 138.504L35.5801 128.902L34.3297 123.056L30.569 116.792L25.558 113.869L21.4161 111.796L18.876 112.198L20.1302 105.517L20.9656 101.34L24.8235 100.661L29.4682 90.1435L32.5933 83.1371L33.0232 82.5409L38.922 82.1334L43.0976 81.2981L45.6041 78.3752L46.0209 71.6958L39.7575 67.5189L29.3168 61.673L21.3825 56.2458L12.4351 52.0913L10.2109 49.2805L5.9325 42.0049L5.23347 40.7527Z" fill="#E9ECF2"/>
<path d="M5.23347 40.7527L5.51382 30.3562L0 26.9642V20.3353L0.674758 16.0201L3.80362 15.3248L10.1118 11.1198L14.3154 17.6123L15.2854 17.1881L17.6237 17.0778L19.1414 18.0665L19.8666 19.9185H23.0534H28.0645H31.2438L30.8625 18.472L33.9484 18.1281L40.9594 16.7265L46.5666 18.1281L54.2785 15.3248L59.8877 17.4273L63.3922 19.5317L66.1959 13.9232L69.0014 10.419L72.3097 12.073L72.4517 11.1273L76.089 14.0708L78.631 14.9791L81.6907 20.2306L86.8438 33.2137L88.9185 35.9984L92.952 36.4824L94.3613 35.434L95.7332 33.2193L94.2379 27.2408L92.1352 9.7163L99.1461 2.70801L106.664 0L109.407 4.3134L109.144 4.66849L108.323 6.53925L107.593 11.5011L107.237 14.9286L106.574 17.2423L106.318 18.1244L106.993 22.0042L108.83 26.8483L108.922 26.8091L108.664 33.2791L107.402 40.8462L109.852 50.0056L114.286 59.9013L115.604 61.3272L116.811 64.0016L117.207 66.2256L118.686 67.5189L119.938 70.025L124.115 77.5416L127.455 83.3875L130.796 87.9793L134.977 89.2857L136.493 88.4914L140.216 85.5255L147.995 81.4681L152.511 82.5521L158.776 80.8813L162.951 77.123L166.293 73.7833L165.875 65.4313L170.052 60.4208L171.063 53.0874L171.699 52.194L176.732 51.2334L182.579 50.3999L184.668 54.575H188.425L190.515 50.8167L190.932 45.3895L193.855 37.4542L195.575 30.9225L196.382 30.3674L202.847 27.7304L204.642 27.2856L207.346 27.0838L211.778 27.3959L214.836 27.7734L216.31 28.5415L218.282 30.4627L219.469 33.1857L220 35.8806L219.759 37.9476L215.946 40.422L211.247 49.5589L209.976 55.5954L211.395 61.673V70.025L214.737 74.2001L216.406 80.4646L213.064 84.6396L211.395 89.2333L211.499 90.3808L209.724 92.1544L205.129 97.5834L200.954 102.177L199.283 108.023L196.36 111.363L193.855 113.869L188.844 114.286L184.668 117.21L182.162 118.463L180.955 120.877L179.536 120.73L177.986 123.056L173.811 125.977L170.052 123.056L168.245 120.345L167.49 120.541L165.458 118.879L160.447 118.463L156.269 121.802L151.258 125.559L146.507 129.362L144.89 129.637L143.885 129.709L137.478 135.581L132.05 140.175L127.872 143.098L123.697 148.944L119.938 155.207L117.179 156.724L115.344 156.877L113.256 160.217L109.08 161.888L107.828 168.152L106.533 171.851L106.116 172.036L105.74 173.161L99.8938 172.746L92.3763 170.657L88.2007 169.403L80.2664 168.569L76.5058 166.9L72.3302 162.723L66.4837 162.306L60.2204 164.394L53.9552 168.569L48.5273 172.327L41.4098 174L41.193 173.759L40.0528 173.914L37.98 173.153L36.4399 171.877L35.6081 170.479L34.8829 166.543L33.1035 165.319L29.6139 166.113L27.5748 164.878L26.644 162.499L26.7112 161.101V160.649L28.9 158.965L30.1523 156.042L31.4045 151.031L29.7354 145.602L33.0755 142.263L35.9988 138.504L35.5801 128.902L34.3297 123.056L30.569 116.792L25.558 113.869L21.4161 111.796L18.876 112.198L20.1302 105.517L20.9656 101.34L24.8235 100.661L29.4682 90.1435L32.5933 83.1371L33.0232 82.5409L38.922 82.1334L43.0976 81.2981L45.6041 78.3752L46.0209 71.6958L39.7575 67.5189L29.3168 61.673L21.3825 56.2458L12.4351 52.0913L10.2109 49.2805L5.9325 42.0049L5.23347 40.7527Z" stroke="#8F959D" stroke-width="4" mask="url(#path-1-inside-1_8892_6811)"/>
<path d="M5.23347 40.7527L5.51382 30.3562L0 26.9642V20.3353L0.674758 16.0201L3.80362 15.3248L10.1118 11.1198L14.3154 17.6123L15.2854 17.1881L17.6237 17.0778L19.1414 18.0665L19.8666 19.9185H23.0534H28.0645H31.2438L30.8625 18.472L33.9484 18.1281L40.9594 16.7265L46.5666 18.1281L54.2785 15.3248L59.8877 17.4273L63.3922 19.5317L66.1959 13.9232L69.0014 10.419L72.3097 12.073L72.4517 11.1273L76.089 14.0708L78.631 14.9791L81.6907 20.2306L86.8438 33.2137L88.9185 35.9984L92.952 36.4824L94.3613 35.434L95.7332 33.2193L94.2379 27.2408L92.1352 9.7163L99.1461 2.70801L106.664 0L109.407 4.3134L109.144 4.66849L108.323 6.53925L107.593 11.5011L107.237 14.9286L106.574 17.2423L106.318 18.1244L106.993 22.0042L108.83 26.8483L108.922 26.8091L108.664 33.2791L107.402 40.8462L109.852 50.0056L114.286 59.9013L115.604 61.3272L116.811 64.0016L117.207 66.2256L118.686 67.5189L119.938 70.025L124.115 77.5416L127.455 83.3875L130.796 87.9793L134.977 89.2857L136.493 88.4914L140.216 85.5255L147.995 81.4681L152.511 82.5521L158.776 80.8813L162.951 77.123L166.293 73.7833L165.875 65.4313L170.052 60.4208L171.063 53.0874L171.699 52.194L176.732 51.2334L182.579 50.3999L184.668 54.575H188.425L190.515 50.8167L190.932 45.3895L193.855 37.4542L195.575 30.9225L196.382 30.3674L202.847 27.7304L204.642 27.2856L207.346 27.0838L211.778 27.3959L214.836 27.7734L216.31 28.5415L218.282 30.4627L219.469 33.1857L220 35.8806L219.759 37.9476L215.946 40.422L211.247 49.5589L209.976 55.5954L211.395 61.673V70.025L214.737 74.2001L216.406 80.4646L213.064 84.6396L211.395 89.2333L211.499 90.3808L209.724 92.1544L205.129 97.5834L200.954 102.177L199.283 108.023L196.36 111.363L193.855 113.869L188.844 114.286L184.668 117.21L182.162 118.463L180.955 120.877L179.536 120.73L177.986 123.056L173.811 125.977L170.052 123.056L168.245 120.345L167.49 120.541L165.458 118.879L160.447 118.463L156.269 121.802L151.258 125.559L146.507 129.362L144.89 129.637L143.885 129.709L137.478 135.581L132.05 140.175L127.872 143.098L123.697 148.944L119.938 155.207L117.179 156.724L115.344 156.877L113.256 160.217L109.08 161.888L107.828 168.152L106.533 171.851L106.116 172.036L105.74 173.161L99.8938 172.746L92.3763 170.657L88.2007 169.403L80.2664 168.569L76.5058 166.9L72.3302 162.723L66.4837 162.306L60.2204 164.394L53.9552 168.569L48.5273 172.327L41.4098 174L41.193 173.759L40.0528 173.914L37.98 173.153L36.4399 171.877L35.6081 170.479L34.8829 166.543L33.1035 165.319L29.6139 166.113L27.5748 164.878L26.644 162.499L26.7112 161.101V160.649L28.9 158.965L30.1523 156.042L31.4045 151.031L29.7354 145.602L33.0755 142.263L35.9988 138.504L35.5801 128.902L34.3297 123.056L30.569 116.792L25.558 113.869L21.4161 111.796L18.876 112.198L20.1302 105.517L20.9656 101.34L24.8235 100.661L29.4682 90.1435L32.5933 83.1371L33.0232 82.5409L38.922 82.1334L43.0976 81.2981L45.6041 78.3752L46.0209 71.6958L39.7575 67.5189L29.3168 61.673L21.3825 56.2458L12.4351 52.0913L10.2109 49.2805L5.9325 42.0049L5.23347 40.7527Z" stroke="black" stroke-opacity="0.2" stroke-width="4" mask="url(#path-1-inside-1_8892_6811)"/>
<path d="M5.23347 40.7527L5.51382 30.3562L0 26.9642V20.3353L0.674758 16.0201L3.80362 15.3248L10.1118 11.1198L14.3154 17.6123L15.2854 17.1881L17.6237 17.0778L19.1414 18.0665L19.8666 19.9185H23.0534H28.0645H31.2438L30.8625 18.472L33.9484 18.1281L40.9594 16.7265L46.5666 18.1281L54.2785 15.3248L59.8877 17.4273L63.3922 19.5317L66.1959 13.9232L69.0014 10.419L72.3097 12.073L72.4517 11.1273L76.089 14.0708L78.631 14.9791L81.6907 20.2306L86.8438 33.2137L88.9185 35.9984L92.952 36.4824L94.3613 35.434L95.7332 33.2193L94.2379 27.2408L92.1352 9.7163L99.1461 2.70801L106.664 0L109.407 4.3134L109.144 4.66849L108.323 6.53925L107.593 11.5011L107.237 14.9286L106.574 17.2423L106.318 18.1244L106.993 22.0042L108.83 26.8483L108.922 26.8091L108.664 33.2791L107.402 40.8462L109.852 50.0056L114.286 59.9013L115.604 61.3272L116.811 64.0016L117.207 66.2256L118.686 67.5189L119.938 70.025L124.115 77.5416L127.455 83.3875L130.796 87.9793L134.977 89.2857L136.493 88.4914L140.216 85.5255L147.995 81.4681L152.511 82.5521L158.776 80.8813L162.951 77.123L166.293 73.7833L165.875 65.4313L170.052 60.4208L171.063 53.0874L171.699 52.194L176.732 51.2334L182.579 50.3999L184.668 54.575H188.425L190.515 50.8167L190.932 45.3895L193.855 37.4542L195.575 30.9225L196.382 30.3674L202.847 27.7304L204.642 27.2856L207.346 27.0838L211.778 27.3959L214.836 27.7734L216.31 28.5415L218.282 30.4627L219.469 33.1857L220 35.8806L219.759 37.9476L215.946 40.422L211.247 49.5589L209.976 55.5954L211.395 61.673V70.025L214.737 74.2001L216.406 80.4646L213.064 84.6396L211.395 89.2333L211.499 90.3808L209.724 92.1544L205.129 97.5834L200.954 102.177L199.283 108.023L196.36 111.363L193.855 113.869L188.844 114.286L184.668 117.21L182.162 118.463L180.955 120.877L179.536 120.73L177.986 123.056L173.811 125.977L170.052 123.056L168.245 120.345L167.49 120.541L165.458 118.879L160.447 118.463L156.269 121.802L151.258 125.559L146.507 129.362L144.89 129.637L143.885 129.709L137.478 135.581L132.05 140.175L127.872 143.098L123.697 148.944L119.938 155.207L117.179 156.724L115.344 156.877L113.256 160.217L109.08 161.888L107.828 168.152L106.533 171.851L106.116 172.036L105.74 173.161L99.8938 172.746L92.3763 170.657L88.2007 169.403L80.2664 168.569L76.5058 166.9L72.3302 162.723L66.4837 162.306L60.2204 164.394L53.9552 168.569L48.5273 172.327L41.4098 174L41.193 173.759L40.0528 173.914L37.98 173.153L36.4399 171.877L35.6081 170.479L34.8829 166.543L33.1035 165.319L29.6139 166.113L27.5748 164.878L26.644 162.499L26.7112 161.101V160.649L28.9 158.965L30.1523 156.042L31.4045 151.031L29.7354 145.602L33.0755 142.263L35.9988 138.504L35.5801 128.902L34.3297 123.056L30.569 116.792L25.558 113.869L21.4161 111.796L18.876 112.198L20.1302 105.517L20.9656 101.34L24.8235 100.661L29.4682 90.1435L32.5933 83.1371L33.0232 82.5409L38.922 82.1334L43.0976 81.2981L45.6041 78.3752L46.0209 71.6958L39.7575 67.5189L29.3168 61.673L21.3825 56.2458L12.4351 52.0913L10.2109 49.2805L5.9325 42.0049L5.23347 40.7527Z" stroke="black" stroke-opacity="0.2" stroke-width="4" mask="url(#path-1-inside-1_8892_6811)"/>
<path d="M5.23347 40.7527L5.51382 30.3562L0 26.9642V20.3353L0.674758 16.0201L3.80362 15.3248L10.1118 11.1198L14.3154 17.6123L15.2854 17.1881L17.6237 17.0778L19.1414 18.0665L19.8666 19.9185H23.0534H28.0645H31.2438L30.8625 18.472L33.9484 18.1281L40.9594 16.7265L46.5666 18.1281L54.2785 15.3248L59.8877 17.4273L63.3922 19.5317L66.1959 13.9232L69.0014 10.419L72.3097 12.073L72.4517 11.1273L76.089 14.0708L78.631 14.9791L81.6907 20.2306L86.8438 33.2137L88.9185 35.9984L92.952 36.4824L94.3613 35.434L95.7332 33.2193L94.2379 27.2408L92.1352 9.7163L99.1461 2.70801L106.664 0L109.407 4.3134L109.144 4.66849L108.323 6.53925L107.593 11.5011L107.237 14.9286L106.574 17.2423L106.318 18.1244L106.993 22.0042L108.83 26.8483L108.922 26.8091L108.664 33.2791L107.402 40.8462L109.852 50.0056L114.286 59.9013L115.604 61.3272L116.811 64.0016L117.207 66.2256L118.686 67.5189L119.938 70.025L124.115 77.5416L127.455 83.3875L130.796 87.9793L134.977 89.2857L136.493 88.4914L140.216 85.5255L147.995 81.4681L152.511 82.5521L158.776 80.8813L162.951 77.123L166.293 73.7833L165.875 65.4313L170.052 60.4208L171.063 53.0874L171.699 52.194L176.732 51.2334L182.579 50.3999L184.668 54.575H188.425L190.515 50.8167L190.932 45.3895L193.855 37.4542L195.575 30.9225L196.382 30.3674L202.847 27.7304L204.642 27.2856L207.346 27.0838L211.778 27.3959L214.836 27.7734L216.31 28.5415L218.282 30.4627L219.469 33.1857L220 35.8806L219.759 37.9476L215.946 40.422L211.247 49.5589L209.976 55.5954L211.395 61.673V70.025L214.737 74.2001L216.406 80.4646L213.064 84.6396L211.395 89.2333L211.499 90.3808L209.724 92.1544L205.129 97.5834L200.954 102.177L199.283 108.023L196.36 111.363L193.855 113.869L188.844 114.286L184.668 117.21L182.162 118.463L180.955 120.877L179.536 120.73L177.986 123.056L173.811 125.977L170.052 123.056L168.245 120.345L167.49 120.541L165.458 118.879L160.447 118.463L156.269 121.802L151.258 125.559L146.507 129.362L144.89 129.637L143.885 129.709L137.478 135.581L132.05 140.175L127.872 143.098L123.697 148.944L119.938 155.207L117.179 156.724L115.344 156.877L113.256 160.217L109.08 161.888L107.828 168.152L106.533 171.851L106.116 172.036L105.74 173.161L99.8938 172.746L92.3763 170.657L88.2007 169.403L80.2664 168.569L76.5058 166.9L72.3302 162.723L66.4837 162.306L60.2204 164.394L53.9552 168.569L48.5273 172.327L41.4098 174L41.193 173.759L40.0528 173.914L37.98 173.153L36.4399 171.877L35.6081 170.479L34.8829 166.543L33.1035 165.319L29.6139 166.113L27.5748 164.878L26.644 162.499L26.7112 161.101V160.649L28.9 158.965L30.1523 156.042L31.4045 151.031L29.7354 145.602L33.0755 142.263L35.9988 138.504L35.5801 128.902L34.3297 123.056L30.569 116.792L25.558 113.869L21.4161 111.796L18.876 112.198L20.1302 105.517L20.9656 101.34L24.8235 100.661L29.4682 90.1435L32.5933 83.1371L33.0232 82.5409L38.922 82.1334L43.0976 81.2981L45.6041 78.3752L46.0209 71.6958L39.7575 67.5189L29.3168 61.673L21.3825 56.2458L12.4351 52.0913L10.2109 49.2805L5.9325 42.0049L5.23347 40.7527Z" stroke="black" stroke-opacity="0.2" stroke-width="4" mask="url(#path-1-inside-1_8892_6811)"/>
<path d="M5.23347 40.7527L5.51382 30.3562L0 26.9642V20.3353L0.674758 16.0201L3.80362 15.3248L10.1118 11.1198L14.3154 17.6123L15.2854 17.1881L17.6237 17.0778L19.1414 18.0665L19.8666 19.9185H23.0534H28.0645H31.2438L30.8625 18.472L33.9484 18.1281L40.9594 16.7265L46.5666 18.1281L54.2785 15.3248L59.8877 17.4273L63.3922 19.5317L66.1959 13.9232L69.0014 10.419L72.3097 12.073L72.4517 11.1273L76.089 14.0708L78.631 14.9791L81.6907 20.2306L86.8438 33.2137L88.9185 35.9984L92.952 36.4824L94.3613 35.434L95.7332 33.2193L94.2379 27.2408L92.1352 9.7163L99.1461 2.70801L106.664 0L109.407 4.3134L109.144 4.66849L108.323 6.53925L107.593 11.5011L107.237 14.9286L106.574 17.2423L106.318 18.1244L106.993 22.0042L108.83 26.8483L108.922 26.8091L108.664 33.2791L107.402 40.8462L109.852 50.0056L114.286 59.9013L115.604 61.3272L116.811 64.0016L117.207 66.2256L118.686 67.5189L119.938 70.025L124.115 77.5416L127.455 83.3875L130.796 87.9793L134.977 89.2857L136.493 88.4914L140.216 85.5255L147.995 81.4681L152.511 82.5521L158.776 80.8813L162.951 77.123L166.293 73.7833L165.875 65.4313L170.052 60.4208L171.063 53.0874L171.699 52.194L176.732 51.2334L182.579 50.3999L184.668 54.575H188.425L190.515 50.8167L190.932 45.3895L193.855 37.4542L195.575 30.9225L196.382 30.3674L202.847 27.7304L204.642 27.2856L207.346 27.0838L211.778 27.3959L214.836 27.7734L216.31 28.5415L218.282 30.4627L219.469 33.1857L220 35.8806L219.759 37.9476L215.946 40.422L211.247 49.5589L209.976 55.5954L211.395 61.673V70.025L214.737 74.2001L216.406 80.4646L213.064 84.6396L211.395 89.2333L211.499 90.3808L209.724 92.1544L205.129 97.5834L200.954 102.177L199.283 108.023L196.36 111.363L193.855 113.869L188.844 114.286L184.668 117.21L182.162 118.463L180.955 120.877L179.536 120.73L177.986 123.056L173.811 125.977L170.052 123.056L168.245 120.345L167.49 120.541L165.458 118.879L160.447 118.463L156.269 121.802L151.258 125.559L146.507 129.362L144.89 129.637L143.885 129.709L137.478 135.581L132.05 140.175L127.872 143.098L123.697 148.944L119.938 155.207L117.179 156.724L115.344 156.877L113.256 160.217L109.08 161.888L107.828 168.152L106.533 171.851L106.116 172.036L105.74 173.161L99.8938 172.746L92.3763 170.657L88.2007 169.403L80.2664 168.569L76.5058 166.9L72.3302 162.723L66.4837 162.306L60.2204 164.394L53.9552 168.569L48.5273 172.327L41.4098 174L41.193 173.759L40.0528 173.914L37.98 173.153L36.4399 171.877L35.6081 170.479L34.8829 166.543L33.1035 165.319L29.6139 166.113L27.5748 164.878L26.644 162.499L26.7112 161.101V160.649L28.9 158.965L30.1523 156.042L31.4045 151.031L29.7354 145.602L33.0755 142.263L35.9988 138.504L35.5801 128.902L34.3297 123.056L30.569 116.792L25.558 113.869L21.4161 111.796L18.876 112.198L20.1302 105.517L20.9656 101.34L24.8235 100.661L29.4682 90.1435L32.5933 83.1371L33.0232 82.5409L38.922 82.1334L43.0976 81.2981L45.6041 78.3752L46.0209 71.6958L39.7575 67.5189L29.3168 61.673L21.3825 56.2458L12.4351 52.0913L10.2109 49.2805L5.9325 42.0049L5.23347 40.7527Z" stroke="black" stroke-opacity="0.2" stroke-width="4" mask="url(#path-1-inside-1_8892_6811)"/>
<path d="M5.23347 40.7527L5.51382 30.3562L0 26.9642V20.3353L0.674758 16.0201L3.80362 15.3248L10.1118 11.1198L14.3154 17.6123L15.2854 17.1881L17.6237 17.0778L19.1414 18.0665L19.8666 19.9185H23.0534H28.0645H31.2438L30.8625 18.472L33.9484 18.1281L40.9594 16.7265L46.5666 18.1281L54.2785 15.3248L59.8877 17.4273L63.3922 19.5317L66.1959 13.9232L69.0014 10.419L72.3097 12.073L72.4517 11.1273L76.089 14.0708L78.631 14.9791L81.6907 20.2306L86.8438 33.2137L88.9185 35.9984L92.952 36.4824L94.3613 35.434L95.7332 33.2193L94.2379 27.2408L92.1352 9.7163L99.1461 2.70801L106.664 0L109.407 4.3134L109.144 4.66849L108.323 6.53925L107.593 11.5011L107.237 14.9286L106.574 17.2423L106.318 18.1244L106.993 22.0042L108.83 26.8483L108.922 26.8091L108.664 33.2791L107.402 40.8462L109.852 50.0056L114.286 59.9013L115.604 61.3272L116.811 64.0016L117.207 66.2256L118.686 67.5189L119.938 70.025L124.115 77.5416L127.455 83.3875L130.796 87.9793L134.977 89.2857L136.493 88.4914L140.216 85.5255L147.995 81.4681L152.511 82.5521L158.776 80.8813L162.951 77.123L166.293 73.7833L165.875 65.4313L170.052 60.4208L171.063 53.0874L171.699 52.194L176.732 51.2334L182.579 50.3999L184.668 54.575H188.425L190.515 50.8167L190.932 45.3895L193.855 37.4542L195.575 30.9225L196.382 30.3674L202.847 27.7304L204.642 27.2856L207.346 27.0838L211.778 27.3959L214.836 27.7734L216.31 28.5415L218.282 30.4627L219.469 33.1857L220 35.8806L219.759 37.9476L215.946 40.422L211.247 49.5589L209.976 55.5954L211.395 61.673V70.025L214.737 74.2001L216.406 80.4646L213.064 84.6396L211.395 89.2333L211.499 90.3808L209.724 92.1544L205.129 97.5834L200.954 102.177L199.283 108.023L196.36 111.363L193.855 113.869L188.844 114.286L184.668 117.21L182.162 118.463L180.955 120.877L179.536 120.73L177.986 123.056L173.811 125.977L170.052 123.056L168.245 120.345L167.49 120.541L165.458 118.879L160.447 118.463L156.269 121.802L151.258 125.559L146.507 129.362L144.89 129.637L143.885 129.709L137.478 135.581L132.05 140.175L127.872 143.098L123.697 148.944L119.938 155.207L117.179 156.724L115.344 156.877L113.256 160.217L109.08 161.888L107.828 168.152L106.533 171.851L106.116 172.036L105.74 173.161L99.8938 172.746L92.3763 170.657L88.2007 169.403L80.2664 168.569L76.5058 166.9L72.3302 162.723L66.4837 162.306L60.2204 164.394L53.9552 168.569L48.5273 172.327L41.4098 174L41.193 173.759L40.0528 173.914L37.98 173.153L36.4399 171.877L35.6081 170.479L34.8829 166.543L33.1035 165.319L29.6139 166.113L27.5748 164.878L26.644 162.499L26.7112 161.101V160.649L28.9 158.965L30.1523 156.042L31.4045 151.031L29.7354 145.602L33.0755 142.263L35.9988 138.504L35.5801 128.902L34.3297 123.056L30.569 116.792L25.558 113.869L21.4161 111.796L18.876 112.198L20.1302 105.517L20.9656 101.34L24.8235 100.661L29.4682 90.1435L32.5933 83.1371L33.0232 82.5409L38.922 82.1334L43.0976 81.2981L45.6041 78.3752L46.0209 71.6958L39.7575 67.5189L29.3168 61.673L21.3825 56.2458L12.4351 52.0913L10.2109 49.2805L5.9325 42.0049L5.23347 40.7527Z" stroke="black" stroke-opacity="0.2" stroke-width="4" mask="url(#path-1-inside-1_8892_6811)"/>
</svg>
