<svg width="220" height="138" viewBox="0 0 220 138" fill="none" xmlns="http://www.w3.org/2000/svg">
<mask id="path-1-inside-1_8892_6814" fill="white">
<path d="M104.647 0.876018L105.615 1.32714L109.06 1.0991L117.537 5.49727L122.697 8.06299L128.225 10.6287L131.234 12.7663L134.457 12.4448L136.843 12.3857L139.888 12.6498L140.756 17.1858L141.361 20.2962L141.717 21.3379L146.655 23.0916H154.025L163.977 22.3583L165.473 22.7848L168.002 22.0679L173.872 21.1804L174.665 25.6573L176.508 31.1546L183.512 32.6212L186.828 30.7871L188.303 26.0231L188.67 19.4267V15.7602L188.524 12.6613L189.127 11.8148L190.596 8.90296L192.189 5.91069L201.206 8.63717L203.68 10.5959L206.272 13.9491L206.564 14.4084L206.732 19.243L207.468 25.4736L211.424 26.5579L211.391 26.7335L214.47 29.1401L215.947 39.7688L215.346 46.3111L215.48 46.3997L214.888 48.5651L214.066 50.7339L211.465 56.0573L210.33 57.9111L209.508 59.0758L208.18 60.7114L207.728 61.1789L206.363 66.1594L204.878 71.3286L205.431 71.5222L204.52 75.3232L205.625 81.1864L207.837 82.653L211.453 83.5536L213.365 86.3178L214.103 88.8852L217.052 93.2818L220 100.246L216.683 104.645L211.153 109.044L205.993 113.076L200.835 116.741L198.623 114.908L196.899 111.288L196.798 111.319L194.936 109.777L191.62 109.044L186.828 109.409L179.424 111.385L179.457 110.876L177.247 110.509H172.453L169.505 112.341L165.082 113.076L159.185 111.977L153.657 107.945L150.429 108.3L148.476 104.983L151.077 104.278L149.972 99.514L145.917 95.8491L135.965 93.6492H130.449L129.901 93.5393L128.595 92.5501L125.277 92.9176L115.172 92.5566L105.742 94.0151L101.688 96.5808L100.952 105.013L100.759 105.123L100.213 106.478L93.9492 116.008L86.2075 122.971L77.7318 130.303L70.3596 138H64.7542L64.2164 136.437L64.3484 135.695L62.9512 132.685L62.5817 123.523L63.9772 116.311L63.5912 115.606L59.5035 108.01L59.6783 106.37L60.8232 104.649L60.2854 102.513L58.7826 101.34L58.5648 94.1988H47.8769L45.8479 94.8993L43.4642 93.8166L41.3659 93.2506L40.0379 93.518L37.5569 92.0005L30.8512 89.8416L30.3679 88.5916L24.7839 81.4735L20.518 77.3164L19.9621 75.9844L19.6387 71.2072L19.4325 66.8862L18.842 64.5485L17.2138 63.4444L15.6681 63.6905L13.1244 63.6101L10.0346 62.3092L7.6592 58.3146L0.871 44.5919L0 35.8743L0.0395943 33.8844L0.489933 30.3327L0.654905 28.9498L0.0164871 27.4093L4.3847 26.7565L8.43946 27.8556L9.79709 30.2212L10.5246 30.1211L11.6348 29.9685L14.3368 31.8879L19.129 31.1546L22.8143 27.4897L27.9743 28.223L33.1343 26.0231L34.6074 22.3583L33.8717 19.0592L27.9743 19.4267L27.5503 15.4863H27.5569L28.3421 12.8286L30.5543 12.0953L33.1343 9.89543L36.8195 10.2629L40.1369 12.8286L45.2969 11.7279L50.8248 10.6287L55.2491 8.43046L62.9891 5.49727L67.7796 2.93154H69.6222L72.5718 6.2322L74.7855 8.70772L76.2851 8.56829L79.5315 8.86356L81.4187 8.81435L83.3471 8.29269L84.9357 7.7136L86.2075 5.49727L89.1571 3.66483L95.0544 0.733286L99.8449 0L101.943 0.802174L104.647 0.876018Z"/>
</mask>
<path d="M104.647 0.876018L105.615 1.32714L109.06 1.0991L117.537 5.49727L122.697 8.06299L128.225 10.6287L131.234 12.7663L134.457 12.4448L136.843 12.3857L139.888 12.6498L140.756 17.1858L141.361 20.2962L141.717 21.3379L146.655 23.0916H154.025L163.977 22.3583L165.473 22.7848L168.002 22.0679L173.872 21.1804L174.665 25.6573L176.508 31.1546L183.512 32.6212L186.828 30.7871L188.303 26.0231L188.67 19.4267V15.7602L188.524 12.6613L189.127 11.8148L190.596 8.90296L192.189 5.91069L201.206 8.63717L203.68 10.5959L206.272 13.9491L206.564 14.4084L206.732 19.243L207.468 25.4736L211.424 26.5579L211.391 26.7335L214.47 29.1401L215.947 39.7688L215.346 46.3111L215.48 46.3997L214.888 48.5651L214.066 50.7339L211.465 56.0573L210.33 57.9111L209.508 59.0758L208.18 60.7114L207.728 61.1789L206.363 66.1594L204.878 71.3286L205.431 71.5222L204.52 75.3232L205.625 81.1864L207.837 82.653L211.453 83.5536L213.365 86.3178L214.103 88.8852L217.052 93.2818L220 100.246L216.683 104.645L211.153 109.044L205.993 113.076L200.835 116.741L198.623 114.908L196.899 111.288L196.798 111.319L194.936 109.777L191.62 109.044L186.828 109.409L179.424 111.385L179.457 110.876L177.247 110.509H172.453L169.505 112.341L165.082 113.076L159.185 111.977L153.657 107.945L150.429 108.3L148.476 104.983L151.077 104.278L149.972 99.514L145.917 95.8491L135.965 93.6492H130.449L129.901 93.5393L128.595 92.5501L125.277 92.9176L115.172 92.5566L105.742 94.0151L101.688 96.5808L100.952 105.013L100.759 105.123L100.213 106.478L93.9492 116.008L86.2075 122.971L77.7318 130.303L70.3596 138H64.7542L64.2164 136.437L64.3484 135.695L62.9512 132.685L62.5817 123.523L63.9772 116.311L63.5912 115.606L59.5035 108.01L59.6783 106.37L60.8232 104.649L60.2854 102.513L58.7826 101.34L58.5648 94.1988H47.8769L45.8479 94.8993L43.4642 93.8166L41.3659 93.2506L40.0379 93.518L37.5569 92.0005L30.8512 89.8416L30.3679 88.5916L24.7839 81.4735L20.518 77.3164L19.9621 75.9844L19.6387 71.2072L19.4325 66.8862L18.842 64.5485L17.2138 63.4444L15.6681 63.6905L13.1244 63.6101L10.0346 62.3092L7.6592 58.3146L0.871 44.5919L0 35.8743L0.0395943 33.8844L0.489933 30.3327L0.654905 28.9498L0.0164871 27.4093L4.3847 26.7565L8.43946 27.8556L9.79709 30.2212L10.5246 30.1211L11.6348 29.9685L14.3368 31.8879L19.129 31.1546L22.8143 27.4897L27.9743 28.223L33.1343 26.0231L34.6074 22.3583L33.8717 19.0592L27.9743 19.4267L27.5503 15.4863H27.5569L28.3421 12.8286L30.5543 12.0953L33.1343 9.89543L36.8195 10.2629L40.1369 12.8286L45.2969 11.7279L50.8248 10.6287L55.2491 8.43046L62.9891 5.49727L67.7796 2.93154H69.6222L72.5718 6.2322L74.7855 8.70772L76.2851 8.56829L79.5315 8.86356L81.4187 8.81435L83.3471 8.29269L84.9357 7.7136L86.2075 5.49727L89.1571 3.66483L95.0544 0.733286L99.8449 0L101.943 0.802174L104.647 0.876018Z" fill="#E9ECF2"/>
<path d="M104.647 0.876018L105.615 1.32714L109.06 1.0991L117.537 5.49727L122.697 8.06299L128.225 10.6287L131.234 12.7663L134.457 12.4448L136.843 12.3857L139.888 12.6498L140.756 17.1858L141.361 20.2962L141.717 21.3379L146.655 23.0916H154.025L163.977 22.3583L165.473 22.7848L168.002 22.0679L173.872 21.1804L174.665 25.6573L176.508 31.1546L183.512 32.6212L186.828 30.7871L188.303 26.0231L188.67 19.4267V15.7602L188.524 12.6613L189.127 11.8148L190.596 8.90296L192.189 5.91069L201.206 8.63717L203.68 10.5959L206.272 13.9491L206.564 14.4084L206.732 19.243L207.468 25.4736L211.424 26.5579L211.391 26.7335L214.47 29.1401L215.947 39.7688L215.346 46.3111L215.48 46.3997L214.888 48.5651L214.066 50.7339L211.465 56.0573L210.33 57.9111L209.508 59.0758L208.18 60.7114L207.728 61.1789L206.363 66.1594L204.878 71.3286L205.431 71.5222L204.52 75.3232L205.625 81.1864L207.837 82.653L211.453 83.5536L213.365 86.3178L214.103 88.8852L217.052 93.2818L220 100.246L216.683 104.645L211.153 109.044L205.993 113.076L200.835 116.741L198.623 114.908L196.899 111.288L196.798 111.319L194.936 109.777L191.62 109.044L186.828 109.409L179.424 111.385L179.457 110.876L177.247 110.509H172.453L169.505 112.341L165.082 113.076L159.185 111.977L153.657 107.945L150.429 108.3L148.476 104.983L151.077 104.278L149.972 99.514L145.917 95.8491L135.965 93.6492H130.449L129.901 93.5393L128.595 92.5501L125.277 92.9176L115.172 92.5566L105.742 94.0151L101.688 96.5808L100.952 105.013L100.759 105.123L100.213 106.478L93.9492 116.008L86.2075 122.971L77.7318 130.303L70.3596 138H64.7542L64.2164 136.437L64.3484 135.695L62.9512 132.685L62.5817 123.523L63.9772 116.311L63.5912 115.606L59.5035 108.01L59.6783 106.37L60.8232 104.649L60.2854 102.513L58.7826 101.34L58.5648 94.1988H47.8769L45.8479 94.8993L43.4642 93.8166L41.3659 93.2506L40.0379 93.518L37.5569 92.0005L30.8512 89.8416L30.3679 88.5916L24.7839 81.4735L20.518 77.3164L19.9621 75.9844L19.6387 71.2072L19.4325 66.8862L18.842 64.5485L17.2138 63.4444L15.6681 63.6905L13.1244 63.6101L10.0346 62.3092L7.6592 58.3146L0.871 44.5919L0 35.8743L0.0395943 33.8844L0.489933 30.3327L0.654905 28.9498L0.0164871 27.4093L4.3847 26.7565L8.43946 27.8556L9.79709 30.2212L10.5246 30.1211L11.6348 29.9685L14.3368 31.8879L19.129 31.1546L22.8143 27.4897L27.9743 28.223L33.1343 26.0231L34.6074 22.3583L33.8717 19.0592L27.9743 19.4267L27.5503 15.4863H27.5569L28.3421 12.8286L30.5543 12.0953L33.1343 9.89543L36.8195 10.2629L40.1369 12.8286L45.2969 11.7279L50.8248 10.6287L55.2491 8.43046L62.9891 5.49727L67.7796 2.93154H69.6222L72.5718 6.2322L74.7855 8.70772L76.2851 8.56829L79.5315 8.86356L81.4187 8.81435L83.3471 8.29269L84.9357 7.7136L86.2075 5.49727L89.1571 3.66483L95.0544 0.733286L99.8449 0L101.943 0.802174L104.647 0.876018Z" stroke="#8F959D" stroke-width="4" mask="url(#path-1-inside-1_8892_6814)"/>
<path d="M104.647 0.876018L105.615 1.32714L109.06 1.0991L117.537 5.49727L122.697 8.06299L128.225 10.6287L131.234 12.7663L134.457 12.4448L136.843 12.3857L139.888 12.6498L140.756 17.1858L141.361 20.2962L141.717 21.3379L146.655 23.0916H154.025L163.977 22.3583L165.473 22.7848L168.002 22.0679L173.872 21.1804L174.665 25.6573L176.508 31.1546L183.512 32.6212L186.828 30.7871L188.303 26.0231L188.67 19.4267V15.7602L188.524 12.6613L189.127 11.8148L190.596 8.90296L192.189 5.91069L201.206 8.63717L203.68 10.5959L206.272 13.9491L206.564 14.4084L206.732 19.243L207.468 25.4736L211.424 26.5579L211.391 26.7335L214.47 29.1401L215.947 39.7688L215.346 46.3111L215.48 46.3997L214.888 48.5651L214.066 50.7339L211.465 56.0573L210.33 57.9111L209.508 59.0758L208.18 60.7114L207.728 61.1789L206.363 66.1594L204.878 71.3286L205.431 71.5222L204.52 75.3232L205.625 81.1864L207.837 82.653L211.453 83.5536L213.365 86.3178L214.103 88.8852L217.052 93.2818L220 100.246L216.683 104.645L211.153 109.044L205.993 113.076L200.835 116.741L198.623 114.908L196.899 111.288L196.798 111.319L194.936 109.777L191.62 109.044L186.828 109.409L179.424 111.385L179.457 110.876L177.247 110.509H172.453L169.505 112.341L165.082 113.076L159.185 111.977L153.657 107.945L150.429 108.3L148.476 104.983L151.077 104.278L149.972 99.514L145.917 95.8491L135.965 93.6492H130.449L129.901 93.5393L128.595 92.5501L125.277 92.9176L115.172 92.5566L105.742 94.0151L101.688 96.5808L100.952 105.013L100.759 105.123L100.213 106.478L93.9492 116.008L86.2075 122.971L77.7318 130.303L70.3596 138H64.7542L64.2164 136.437L64.3484 135.695L62.9512 132.685L62.5817 123.523L63.9772 116.311L63.5912 115.606L59.5035 108.01L59.6783 106.37L60.8232 104.649L60.2854 102.513L58.7826 101.34L58.5648 94.1988H47.8769L45.8479 94.8993L43.4642 93.8166L41.3659 93.2506L40.0379 93.518L37.5569 92.0005L30.8512 89.8416L30.3679 88.5916L24.7839 81.4735L20.518 77.3164L19.9621 75.9844L19.6387 71.2072L19.4325 66.8862L18.842 64.5485L17.2138 63.4444L15.6681 63.6905L13.1244 63.6101L10.0346 62.3092L7.6592 58.3146L0.871 44.5919L0 35.8743L0.0395943 33.8844L0.489933 30.3327L0.654905 28.9498L0.0164871 27.4093L4.3847 26.7565L8.43946 27.8556L9.79709 30.2212L10.5246 30.1211L11.6348 29.9685L14.3368 31.8879L19.129 31.1546L22.8143 27.4897L27.9743 28.223L33.1343 26.0231L34.6074 22.3583L33.8717 19.0592L27.9743 19.4267L27.5503 15.4863H27.5569L28.3421 12.8286L30.5543 12.0953L33.1343 9.89543L36.8195 10.2629L40.1369 12.8286L45.2969 11.7279L50.8248 10.6287L55.2491 8.43046L62.9891 5.49727L67.7796 2.93154H69.6222L72.5718 6.2322L74.7855 8.70772L76.2851 8.56829L79.5315 8.86356L81.4187 8.81435L83.3471 8.29269L84.9357 7.7136L86.2075 5.49727L89.1571 3.66483L95.0544 0.733286L99.8449 0L101.943 0.802174L104.647 0.876018Z" stroke="black" stroke-opacity="0.2" stroke-width="4" mask="url(#path-1-inside-1_8892_6814)"/>
<path d="M104.647 0.876018L105.615 1.32714L109.06 1.0991L117.537 5.49727L122.697 8.06299L128.225 10.6287L131.234 12.7663L134.457 12.4448L136.843 12.3857L139.888 12.6498L140.756 17.1858L141.361 20.2962L141.717 21.3379L146.655 23.0916H154.025L163.977 22.3583L165.473 22.7848L168.002 22.0679L173.872 21.1804L174.665 25.6573L176.508 31.1546L183.512 32.6212L186.828 30.7871L188.303 26.0231L188.67 19.4267V15.7602L188.524 12.6613L189.127 11.8148L190.596 8.90296L192.189 5.91069L201.206 8.63717L203.68 10.5959L206.272 13.9491L206.564 14.4084L206.732 19.243L207.468 25.4736L211.424 26.5579L211.391 26.7335L214.47 29.1401L215.947 39.7688L215.346 46.3111L215.48 46.3997L214.888 48.5651L214.066 50.7339L211.465 56.0573L210.33 57.9111L209.508 59.0758L208.18 60.7114L207.728 61.1789L206.363 66.1594L204.878 71.3286L205.431 71.5222L204.52 75.3232L205.625 81.1864L207.837 82.653L211.453 83.5536L213.365 86.3178L214.103 88.8852L217.052 93.2818L220 100.246L216.683 104.645L211.153 109.044L205.993 113.076L200.835 116.741L198.623 114.908L196.899 111.288L196.798 111.319L194.936 109.777L191.62 109.044L186.828 109.409L179.424 111.385L179.457 110.876L177.247 110.509H172.453L169.505 112.341L165.082 113.076L159.185 111.977L153.657 107.945L150.429 108.3L148.476 104.983L151.077 104.278L149.972 99.514L145.917 95.8491L135.965 93.6492H130.449L129.901 93.5393L128.595 92.5501L125.277 92.9176L115.172 92.5566L105.742 94.0151L101.688 96.5808L100.952 105.013L100.759 105.123L100.213 106.478L93.9492 116.008L86.2075 122.971L77.7318 130.303L70.3596 138H64.7542L64.2164 136.437L64.3484 135.695L62.9512 132.685L62.5817 123.523L63.9772 116.311L63.5912 115.606L59.5035 108.01L59.6783 106.37L60.8232 104.649L60.2854 102.513L58.7826 101.34L58.5648 94.1988H47.8769L45.8479 94.8993L43.4642 93.8166L41.3659 93.2506L40.0379 93.518L37.5569 92.0005L30.8512 89.8416L30.3679 88.5916L24.7839 81.4735L20.518 77.3164L19.9621 75.9844L19.6387 71.2072L19.4325 66.8862L18.842 64.5485L17.2138 63.4444L15.6681 63.6905L13.1244 63.6101L10.0346 62.3092L7.6592 58.3146L0.871 44.5919L0 35.8743L0.0395943 33.8844L0.489933 30.3327L0.654905 28.9498L0.0164871 27.4093L4.3847 26.7565L8.43946 27.8556L9.79709 30.2212L10.5246 30.1211L11.6348 29.9685L14.3368 31.8879L19.129 31.1546L22.8143 27.4897L27.9743 28.223L33.1343 26.0231L34.6074 22.3583L33.8717 19.0592L27.9743 19.4267L27.5503 15.4863H27.5569L28.3421 12.8286L30.5543 12.0953L33.1343 9.89543L36.8195 10.2629L40.1369 12.8286L45.2969 11.7279L50.8248 10.6287L55.2491 8.43046L62.9891 5.49727L67.7796 2.93154H69.6222L72.5718 6.2322L74.7855 8.70772L76.2851 8.56829L79.5315 8.86356L81.4187 8.81435L83.3471 8.29269L84.9357 7.7136L86.2075 5.49727L89.1571 3.66483L95.0544 0.733286L99.8449 0L101.943 0.802174L104.647 0.876018Z" stroke="black" stroke-opacity="0.2" stroke-width="4" mask="url(#path-1-inside-1_8892_6814)"/>
<path d="M104.647 0.876018L105.615 1.32714L109.06 1.0991L117.537 5.49727L122.697 8.06299L128.225 10.6287L131.234 12.7663L134.457 12.4448L136.843 12.3857L139.888 12.6498L140.756 17.1858L141.361 20.2962L141.717 21.3379L146.655 23.0916H154.025L163.977 22.3583L165.473 22.7848L168.002 22.0679L173.872 21.1804L174.665 25.6573L176.508 31.1546L183.512 32.6212L186.828 30.7871L188.303 26.0231L188.67 19.4267V15.7602L188.524 12.6613L189.127 11.8148L190.596 8.90296L192.189 5.91069L201.206 8.63717L203.68 10.5959L206.272 13.9491L206.564 14.4084L206.732 19.243L207.468 25.4736L211.424 26.5579L211.391 26.7335L214.47 29.1401L215.947 39.7688L215.346 46.3111L215.48 46.3997L214.888 48.5651L214.066 50.7339L211.465 56.0573L210.33 57.9111L209.508 59.0758L208.18 60.7114L207.728 61.1789L206.363 66.1594L204.878 71.3286L205.431 71.5222L204.52 75.3232L205.625 81.1864L207.837 82.653L211.453 83.5536L213.365 86.3178L214.103 88.8852L217.052 93.2818L220 100.246L216.683 104.645L211.153 109.044L205.993 113.076L200.835 116.741L198.623 114.908L196.899 111.288L196.798 111.319L194.936 109.777L191.62 109.044L186.828 109.409L179.424 111.385L179.457 110.876L177.247 110.509H172.453L169.505 112.341L165.082 113.076L159.185 111.977L153.657 107.945L150.429 108.3L148.476 104.983L151.077 104.278L149.972 99.514L145.917 95.8491L135.965 93.6492H130.449L129.901 93.5393L128.595 92.5501L125.277 92.9176L115.172 92.5566L105.742 94.0151L101.688 96.5808L100.952 105.013L100.759 105.123L100.213 106.478L93.9492 116.008L86.2075 122.971L77.7318 130.303L70.3596 138H64.7542L64.2164 136.437L64.3484 135.695L62.9512 132.685L62.5817 123.523L63.9772 116.311L63.5912 115.606L59.5035 108.01L59.6783 106.37L60.8232 104.649L60.2854 102.513L58.7826 101.34L58.5648 94.1988H47.8769L45.8479 94.8993L43.4642 93.8166L41.3659 93.2506L40.0379 93.518L37.5569 92.0005L30.8512 89.8416L30.3679 88.5916L24.7839 81.4735L20.518 77.3164L19.9621 75.9844L19.6387 71.2072L19.4325 66.8862L18.842 64.5485L17.2138 63.4444L15.6681 63.6905L13.1244 63.6101L10.0346 62.3092L7.6592 58.3146L0.871 44.5919L0 35.8743L0.0395943 33.8844L0.489933 30.3327L0.654905 28.9498L0.0164871 27.4093L4.3847 26.7565L8.43946 27.8556L9.79709 30.2212L10.5246 30.1211L11.6348 29.9685L14.3368 31.8879L19.129 31.1546L22.8143 27.4897L27.9743 28.223L33.1343 26.0231L34.6074 22.3583L33.8717 19.0592L27.9743 19.4267L27.5503 15.4863H27.5569L28.3421 12.8286L30.5543 12.0953L33.1343 9.89543L36.8195 10.2629L40.1369 12.8286L45.2969 11.7279L50.8248 10.6287L55.2491 8.43046L62.9891 5.49727L67.7796 2.93154H69.6222L72.5718 6.2322L74.7855 8.70772L76.2851 8.56829L79.5315 8.86356L81.4187 8.81435L83.3471 8.29269L84.9357 7.7136L86.2075 5.49727L89.1571 3.66483L95.0544 0.733286L99.8449 0L101.943 0.802174L104.647 0.876018Z" stroke="black" stroke-opacity="0.2" stroke-width="4" mask="url(#path-1-inside-1_8892_6814)"/>
<path d="M104.647 0.876018L105.615 1.32714L109.06 1.0991L117.537 5.49727L122.697 8.06299L128.225 10.6287L131.234 12.7663L134.457 12.4448L136.843 12.3857L139.888 12.6498L140.756 17.1858L141.361 20.2962L141.717 21.3379L146.655 23.0916H154.025L163.977 22.3583L165.473 22.7848L168.002 22.0679L173.872 21.1804L174.665 25.6573L176.508 31.1546L183.512 32.6212L186.828 30.7871L188.303 26.0231L188.67 19.4267V15.7602L188.524 12.6613L189.127 11.8148L190.596 8.90296L192.189 5.91069L201.206 8.63717L203.68 10.5959L206.272 13.9491L206.564 14.4084L206.732 19.243L207.468 25.4736L211.424 26.5579L211.391 26.7335L214.47 29.1401L215.947 39.7688L215.346 46.3111L215.48 46.3997L214.888 48.5651L214.066 50.7339L211.465 56.0573L210.33 57.9111L209.508 59.0758L208.18 60.7114L207.728 61.1789L206.363 66.1594L204.878 71.3286L205.431 71.5222L204.52 75.3232L205.625 81.1864L207.837 82.653L211.453 83.5536L213.365 86.3178L214.103 88.8852L217.052 93.2818L220 100.246L216.683 104.645L211.153 109.044L205.993 113.076L200.835 116.741L198.623 114.908L196.899 111.288L196.798 111.319L194.936 109.777L191.62 109.044L186.828 109.409L179.424 111.385L179.457 110.876L177.247 110.509H172.453L169.505 112.341L165.082 113.076L159.185 111.977L153.657 107.945L150.429 108.3L148.476 104.983L151.077 104.278L149.972 99.514L145.917 95.8491L135.965 93.6492H130.449L129.901 93.5393L128.595 92.5501L125.277 92.9176L115.172 92.5566L105.742 94.0151L101.688 96.5808L100.952 105.013L100.759 105.123L100.213 106.478L93.9492 116.008L86.2075 122.971L77.7318 130.303L70.3596 138H64.7542L64.2164 136.437L64.3484 135.695L62.9512 132.685L62.5817 123.523L63.9772 116.311L63.5912 115.606L59.5035 108.01L59.6783 106.37L60.8232 104.649L60.2854 102.513L58.7826 101.34L58.5648 94.1988H47.8769L45.8479 94.8993L43.4642 93.8166L41.3659 93.2506L40.0379 93.518L37.5569 92.0005L30.8512 89.8416L30.3679 88.5916L24.7839 81.4735L20.518 77.3164L19.9621 75.9844L19.6387 71.2072L19.4325 66.8862L18.842 64.5485L17.2138 63.4444L15.6681 63.6905L13.1244 63.6101L10.0346 62.3092L7.6592 58.3146L0.871 44.5919L0 35.8743L0.0395943 33.8844L0.489933 30.3327L0.654905 28.9498L0.0164871 27.4093L4.3847 26.7565L8.43946 27.8556L9.79709 30.2212L10.5246 30.1211L11.6348 29.9685L14.3368 31.8879L19.129 31.1546L22.8143 27.4897L27.9743 28.223L33.1343 26.0231L34.6074 22.3583L33.8717 19.0592L27.9743 19.4267L27.5503 15.4863H27.5569L28.3421 12.8286L30.5543 12.0953L33.1343 9.89543L36.8195 10.2629L40.1369 12.8286L45.2969 11.7279L50.8248 10.6287L55.2491 8.43046L62.9891 5.49727L67.7796 2.93154H69.6222L72.5718 6.2322L74.7855 8.70772L76.2851 8.56829L79.5315 8.86356L81.4187 8.81435L83.3471 8.29269L84.9357 7.7136L86.2075 5.49727L89.1571 3.66483L95.0544 0.733286L99.8449 0L101.943 0.802174L104.647 0.876018Z" stroke="black" stroke-opacity="0.2" stroke-width="4" mask="url(#path-1-inside-1_8892_6814)"/>
<path d="M104.647 0.876018L105.615 1.32714L109.06 1.0991L117.537 5.49727L122.697 8.06299L128.225 10.6287L131.234 12.7663L134.457 12.4448L136.843 12.3857L139.888 12.6498L140.756 17.1858L141.361 20.2962L141.717 21.3379L146.655 23.0916H154.025L163.977 22.3583L165.473 22.7848L168.002 22.0679L173.872 21.1804L174.665 25.6573L176.508 31.1546L183.512 32.6212L186.828 30.7871L188.303 26.0231L188.67 19.4267V15.7602L188.524 12.6613L189.127 11.8148L190.596 8.90296L192.189 5.91069L201.206 8.63717L203.68 10.5959L206.272 13.9491L206.564 14.4084L206.732 19.243L207.468 25.4736L211.424 26.5579L211.391 26.7335L214.47 29.1401L215.947 39.7688L215.346 46.3111L215.48 46.3997L214.888 48.5651L214.066 50.7339L211.465 56.0573L210.33 57.9111L209.508 59.0758L208.18 60.7114L207.728 61.1789L206.363 66.1594L204.878 71.3286L205.431 71.5222L204.52 75.3232L205.625 81.1864L207.837 82.653L211.453 83.5536L213.365 86.3178L214.103 88.8852L217.052 93.2818L220 100.246L216.683 104.645L211.153 109.044L205.993 113.076L200.835 116.741L198.623 114.908L196.899 111.288L196.798 111.319L194.936 109.777L191.62 109.044L186.828 109.409L179.424 111.385L179.457 110.876L177.247 110.509H172.453L169.505 112.341L165.082 113.076L159.185 111.977L153.657 107.945L150.429 108.3L148.476 104.983L151.077 104.278L149.972 99.514L145.917 95.8491L135.965 93.6492H130.449L129.901 93.5393L128.595 92.5501L125.277 92.9176L115.172 92.5566L105.742 94.0151L101.688 96.5808L100.952 105.013L100.759 105.123L100.213 106.478L93.9492 116.008L86.2075 122.971L77.7318 130.303L70.3596 138H64.7542L64.2164 136.437L64.3484 135.695L62.9512 132.685L62.5817 123.523L63.9772 116.311L63.5912 115.606L59.5035 108.01L59.6783 106.37L60.8232 104.649L60.2854 102.513L58.7826 101.34L58.5648 94.1988H47.8769L45.8479 94.8993L43.4642 93.8166L41.3659 93.2506L40.0379 93.518L37.5569 92.0005L30.8512 89.8416L30.3679 88.5916L24.7839 81.4735L20.518 77.3164L19.9621 75.9844L19.6387 71.2072L19.4325 66.8862L18.842 64.5485L17.2138 63.4444L15.6681 63.6905L13.1244 63.6101L10.0346 62.3092L7.6592 58.3146L0.871 44.5919L0 35.8743L0.0395943 33.8844L0.489933 30.3327L0.654905 28.9498L0.0164871 27.4093L4.3847 26.7565L8.43946 27.8556L9.79709 30.2212L10.5246 30.1211L11.6348 29.9685L14.3368 31.8879L19.129 31.1546L22.8143 27.4897L27.9743 28.223L33.1343 26.0231L34.6074 22.3583L33.8717 19.0592L27.9743 19.4267L27.5503 15.4863H27.5569L28.3421 12.8286L30.5543 12.0953L33.1343 9.89543L36.8195 10.2629L40.1369 12.8286L45.2969 11.7279L50.8248 10.6287L55.2491 8.43046L62.9891 5.49727L67.7796 2.93154H69.6222L72.5718 6.2322L74.7855 8.70772L76.2851 8.56829L79.5315 8.86356L81.4187 8.81435L83.3471 8.29269L84.9357 7.7136L86.2075 5.49727L89.1571 3.66483L95.0544 0.733286L99.8449 0L101.943 0.802174L104.647 0.876018Z" stroke="black" stroke-opacity="0.2" stroke-width="4" mask="url(#path-1-inside-1_8892_6814)"/>
</svg>
