<svg width="220" height="249" viewBox="0 0 220 249" fill="none" xmlns="http://www.w3.org/2000/svg">
<path d="M152.579 55.1318L152.627 55.2185L152.691 55.2942L156.91 60.3055L157.298 60.766L157.886 60.6389L158.513 60.5034L158.522 60.5015L158.53 60.4995L162.783 59.5027L173.03 63.3873L175.107 67.8748L175.574 68.8823L176.527 68.3137L179.78 66.3734L179.837 66.3398L179.888 66.2992L190.494 57.9216L192.829 64.0819L192.899 64.2672L193.034 64.4117L195.283 66.8086L195.663 67.2144L196.209 67.1048L196.818 66.9825L209.937 73.3904L210.925 75.6118L205.916 100.204L203.661 106.272L200.348 111.182H196.571L191.4 110.555L191.13 110.522L190.881 110.631L183.897 113.673L183.829 113.703L183.766 113.742L179.878 116.174L179.817 116.213L179.762 116.259L176.17 119.302L176.044 119.409L175.959 119.551L173.425 123.781L173.333 123.935L173.3 124.111L172.669 127.489L172.642 127.639L172.659 127.79L175.065 148.192L175.1 148.489L175.292 148.718L195.763 173.068L196.003 173.354L196.371 173.413L208.477 175.343L217.501 177.562L218.968 180.344L218.299 185.552L205.877 198.114L196.223 202.758L195.72 203L195.662 203.555L194.793 211.873L194.781 211.988L194.796 212.103L195.366 216.589L194.254 220.913L191.933 221.78L187.366 217.981L187.19 217.835L186.968 217.78L171.949 214.031L171.575 213.938L171.236 214.119L167.79 215.96L167.685 216.016L167.595 216.096L161.452 221.578L161.425 221.603L161.399 221.629L140.101 243.665L140.082 243.685L140.064 243.706L137.667 246.48L137.554 244.516L137.552 244.483L137.548 244.451L136.871 238.99L136.844 238.773L136.729 238.587L134.32 234.689L134.284 234.63L134.24 234.577L121.017 218.577L120.931 218.473L120.82 218.395L117.364 215.973L117.34 215.957L117.316 215.942L111.835 212.548L103.586 204.013L101.579 201.193L99.1534 192.414L99.139 192.362L99.1191 192.312L96.5001 185.71L96.4141 185.493L96.2413 185.337L75.4959 166.576L75.4221 166.509L75.3365 166.458L71.3207 164.068L71.2647 164.035L71.2049 164.009L63.66 160.76L44.7761 151.814L24.2083 140.468L12.8661 133.305L8.34229 128.354L8.28221 128.288L8.21146 128.234L4.61967 125.487L4.58144 125.458L4.54057 125.433L1.83645 123.75L2.12104 123.557L2.26494 123.46L2.36756 123.32L6.29786 117.952L6.30845 117.937L6.31851 117.923L14.261 106.216L14.2712 106.201L14.2808 106.186L19.5937 97.7115L19.6745 97.5825L19.7133 97.4353L21.2465 91.6224L24.816 84.6433L33.2108 73.9928L39.7123 66.674L43.0523 63.5012L45.6734 61.6609L50.9168 59.4428L64.6373 55.2025L64.8576 55.1344L65.0258 54.9767L67.7947 52.3816L76.15 45.6865L83.1955 40.3189L83.2938 40.2441L83.3708 40.1476L92.7743 28.3773L92.825 28.3137L92.8648 28.2429L95.8865 22.8642L95.9931 22.6744L96.0112 22.4574L96.9977 10.6184L99.507 6.94502L99.7017 6.66004L99.6791 6.31564L99.4818 3.30149L100.605 1.38695L102.613 2.6225L106.159 5.26431L123.029 18.7623L130.248 32.1489L133.178 40.7656L133.319 41.1794L133.718 41.3572L139.951 44.1321L140.004 44.1557L140.059 44.173L145.268 45.8015L148.988 48.597L152.579 55.1318Z" fill="#E9ECF2"/>
<path d="M152.579 55.1318L152.627 55.2185L152.691 55.2942L156.91 60.3055L157.298 60.766L157.886 60.6389L158.513 60.5034L158.522 60.5015L158.53 60.4995L162.783 59.5027L173.03 63.3873L175.107 67.8748L175.574 68.8823L176.527 68.3137L179.78 66.3734L179.837 66.3398L179.888 66.2992L190.494 57.9216L192.829 64.0819L192.899 64.2672L193.034 64.4117L195.283 66.8086L195.663 67.2144L196.209 67.1048L196.818 66.9825L209.937 73.3904L210.925 75.6118L205.916 100.204L203.661 106.272L200.348 111.182H196.571L191.4 110.555L191.13 110.522L190.881 110.631L183.897 113.673L183.829 113.703L183.766 113.742L179.878 116.174L179.817 116.213L179.762 116.259L176.17 119.302L176.044 119.409L175.959 119.551L173.425 123.781L173.333 123.935L173.3 124.111L172.669 127.489L172.642 127.639L172.659 127.79L175.065 148.192L175.1 148.489L175.292 148.718L195.763 173.068L196.003 173.354L196.371 173.413L208.477 175.343L217.501 177.562L218.968 180.344L218.299 185.552L205.877 198.114L196.223 202.758L195.72 203L195.662 203.555L194.793 211.873L194.781 211.988L194.796 212.103L195.366 216.589L194.254 220.913L191.933 221.78L187.366 217.981L187.19 217.835L186.968 217.78L171.949 214.031L171.575 213.938L171.236 214.119L167.79 215.96L167.685 216.016L167.595 216.096L161.452 221.578L161.425 221.603L161.399 221.629L140.101 243.665L140.082 243.685L140.064 243.706L137.667 246.48L137.554 244.516L137.552 244.483L137.548 244.451L136.871 238.99L136.844 238.773L136.729 238.587L134.32 234.689L134.284 234.63L134.24 234.577L121.017 218.577L120.931 218.473L120.82 218.395L117.364 215.973L117.34 215.957L117.316 215.942L111.835 212.548L103.586 204.013L101.579 201.193L99.1534 192.414L99.139 192.362L99.1191 192.312L96.5001 185.71L96.4141 185.493L96.2413 185.337L75.4959 166.576L75.4221 166.509L75.3365 166.458L71.3207 164.068L71.2647 164.035L71.2049 164.009L63.66 160.76L44.7761 151.814L24.2083 140.468L12.8661 133.305L8.34229 128.354L8.28221 128.288L8.21146 128.234L4.61967 125.487L4.58144 125.458L4.54057 125.433L1.83645 123.75L2.12104 123.557L2.26494 123.46L2.36756 123.32L6.29786 117.952L6.30845 117.937L6.31851 117.923L14.261 106.216L14.2712 106.201L14.2808 106.186L19.5937 97.7115L19.6745 97.5825L19.7133 97.4353L21.2465 91.6224L24.816 84.6433L33.2108 73.9928L39.7123 66.674L43.0523 63.5012L45.6734 61.6609L50.9168 59.4428L64.6373 55.2025L64.8576 55.1344L65.0258 54.9767L67.7947 52.3816L76.15 45.6865L83.1955 40.3189L83.2938 40.2441L83.3708 40.1476L92.7743 28.3773L92.825 28.3137L92.8648 28.2429L95.8865 22.8642L95.9931 22.6744L96.0112 22.4574L96.9977 10.6184L99.507 6.94502L99.7017 6.66004L99.6791 6.31564L99.4818 3.30149L100.605 1.38695L102.613 2.6225L106.159 5.26431L123.029 18.7623L130.248 32.1489L133.178 40.7656L133.319 41.1794L133.718 41.3572L139.951 44.1321L140.004 44.1557L140.059 44.173L145.268 45.8015L148.988 48.597L152.579 55.1318Z" stroke="#8F959D" stroke-width="2"/>
<path d="M152.579 55.1318L152.627 55.2185L152.691 55.2942L156.91 60.3055L157.298 60.766L157.886 60.6389L158.513 60.5034L158.522 60.5015L158.53 60.4995L162.783 59.5027L173.03 63.3873L175.107 67.8748L175.574 68.8823L176.527 68.3137L179.78 66.3734L179.837 66.3398L179.888 66.2992L190.494 57.9216L192.829 64.0819L192.899 64.2672L193.034 64.4117L195.283 66.8086L195.663 67.2144L196.209 67.1048L196.818 66.9825L209.937 73.3904L210.925 75.6118L205.916 100.204L203.661 106.272L200.348 111.182H196.571L191.4 110.555L191.13 110.522L190.881 110.631L183.897 113.673L183.829 113.703L183.766 113.742L179.878 116.174L179.817 116.213L179.762 116.259L176.17 119.302L176.044 119.409L175.959 119.551L173.425 123.781L173.333 123.935L173.3 124.111L172.669 127.489L172.642 127.639L172.659 127.79L175.065 148.192L175.1 148.489L175.292 148.718L195.763 173.068L196.003 173.354L196.371 173.413L208.477 175.343L217.501 177.562L218.968 180.344L218.299 185.552L205.877 198.114L196.223 202.758L195.72 203L195.662 203.555L194.793 211.873L194.781 211.988L194.796 212.103L195.366 216.589L194.254 220.913L191.933 221.78L187.366 217.981L187.19 217.835L186.968 217.78L171.949 214.031L171.575 213.938L171.236 214.119L167.79 215.96L167.685 216.016L167.595 216.096L161.452 221.578L161.425 221.603L161.399 221.629L140.101 243.665L140.082 243.685L140.064 243.706L137.667 246.48L137.554 244.516L137.552 244.483L137.548 244.451L136.871 238.99L136.844 238.773L136.729 238.587L134.32 234.689L134.284 234.63L134.24 234.577L121.017 218.577L120.931 218.473L120.82 218.395L117.364 215.973L117.34 215.957L117.316 215.942L111.835 212.548L103.586 204.013L101.579 201.193L99.1534 192.414L99.139 192.362L99.1191 192.312L96.5001 185.71L96.4141 185.493L96.2413 185.337L75.4959 166.576L75.4221 166.509L75.3365 166.458L71.3207 164.068L71.2647 164.035L71.2049 164.009L63.66 160.76L44.7761 151.814L24.2083 140.468L12.8661 133.305L8.34229 128.354L8.28221 128.288L8.21146 128.234L4.61967 125.487L4.58144 125.458L4.54057 125.433L1.83645 123.75L2.12104 123.557L2.26494 123.46L2.36756 123.32L6.29786 117.952L6.30845 117.937L6.31851 117.923L14.261 106.216L14.2712 106.201L14.2808 106.186L19.5937 97.7115L19.6745 97.5825L19.7133 97.4353L21.2465 91.6224L24.816 84.6433L33.2108 73.9928L39.7123 66.674L43.0523 63.5012L45.6734 61.6609L50.9168 59.4428L64.6373 55.2025L64.8576 55.1344L65.0258 54.9767L67.7947 52.3816L76.15 45.6865L83.1955 40.3189L83.2938 40.2441L83.3708 40.1476L92.7743 28.3773L92.825 28.3137L92.8648 28.2429L95.8865 22.8642L95.9931 22.6744L96.0112 22.4574L96.9977 10.6184L99.507 6.94502L99.7017 6.66004L99.6791 6.31564L99.4818 3.30149L100.605 1.38695L102.613 2.6225L106.159 5.26431L123.029 18.7623L130.248 32.1489L133.178 40.7656L133.319 41.1794L133.718 41.3572L139.951 44.1321L140.004 44.1557L140.059 44.173L145.268 45.8015L148.988 48.597L152.579 55.1318Z" stroke="black" stroke-opacity="0.2" stroke-width="2"/>
<path d="M152.579 55.1318L152.627 55.2185L152.691 55.2942L156.91 60.3055L157.298 60.766L157.886 60.6389L158.513 60.5034L158.522 60.5015L158.53 60.4995L162.783 59.5027L173.03 63.3873L175.107 67.8748L175.574 68.8823L176.527 68.3137L179.78 66.3734L179.837 66.3398L179.888 66.2992L190.494 57.9216L192.829 64.0819L192.899 64.2672L193.034 64.4117L195.283 66.8086L195.663 67.2144L196.209 67.1048L196.818 66.9825L209.937 73.3904L210.925 75.6118L205.916 100.204L203.661 106.272L200.348 111.182H196.571L191.4 110.555L191.13 110.522L190.881 110.631L183.897 113.673L183.829 113.703L183.766 113.742L179.878 116.174L179.817 116.213L179.762 116.259L176.17 119.302L176.044 119.409L175.959 119.551L173.425 123.781L173.333 123.935L173.3 124.111L172.669 127.489L172.642 127.639L172.659 127.79L175.065 148.192L175.1 148.489L175.292 148.718L195.763 173.068L196.003 173.354L196.371 173.413L208.477 175.343L217.501 177.562L218.968 180.344L218.299 185.552L205.877 198.114L196.223 202.758L195.72 203L195.662 203.555L194.793 211.873L194.781 211.988L194.796 212.103L195.366 216.589L194.254 220.913L191.933 221.78L187.366 217.981L187.19 217.835L186.968 217.78L171.949 214.031L171.575 213.938L171.236 214.119L167.79 215.96L167.685 216.016L167.595 216.096L161.452 221.578L161.425 221.603L161.399 221.629L140.101 243.665L140.082 243.685L140.064 243.706L137.667 246.48L137.554 244.516L137.552 244.483L137.548 244.451L136.871 238.99L136.844 238.773L136.729 238.587L134.32 234.689L134.284 234.63L134.24 234.577L121.017 218.577L120.931 218.473L120.82 218.395L117.364 215.973L117.34 215.957L117.316 215.942L111.835 212.548L103.586 204.013L101.579 201.193L99.1534 192.414L99.139 192.362L99.1191 192.312L96.5001 185.71L96.4141 185.493L96.2413 185.337L75.4959 166.576L75.4221 166.509L75.3365 166.458L71.3207 164.068L71.2647 164.035L71.2049 164.009L63.66 160.76L44.7761 151.814L24.2083 140.468L12.8661 133.305L8.34229 128.354L8.28221 128.288L8.21146 128.234L4.61967 125.487L4.58144 125.458L4.54057 125.433L1.83645 123.75L2.12104 123.557L2.26494 123.46L2.36756 123.32L6.29786 117.952L6.30845 117.937L6.31851 117.923L14.261 106.216L14.2712 106.201L14.2808 106.186L19.5937 97.7115L19.6745 97.5825L19.7133 97.4353L21.2465 91.6224L24.816 84.6433L33.2108 73.9928L39.7123 66.674L43.0523 63.5012L45.6734 61.6609L50.9168 59.4428L64.6373 55.2025L64.8576 55.1344L65.0258 54.9767L67.7947 52.3816L76.15 45.6865L83.1955 40.3189L83.2938 40.2441L83.3708 40.1476L92.7743 28.3773L92.825 28.3137L92.8648 28.2429L95.8865 22.8642L95.9931 22.6744L96.0112 22.4574L96.9977 10.6184L99.507 6.94502L99.7017 6.66004L99.6791 6.31564L99.4818 3.30149L100.605 1.38695L102.613 2.6225L106.159 5.26431L123.029 18.7623L130.248 32.1489L133.178 40.7656L133.319 41.1794L133.718 41.3572L139.951 44.1321L140.004 44.1557L140.059 44.173L145.268 45.8015L148.988 48.597L152.579 55.1318Z" stroke="black" stroke-opacity="0.2" stroke-width="2"/>
<path d="M152.579 55.1318L152.627 55.2185L152.691 55.2942L156.91 60.3055L157.298 60.766L157.886 60.6389L158.513 60.5034L158.522 60.5015L158.53 60.4995L162.783 59.5027L173.03 63.3873L175.107 67.8748L175.574 68.8823L176.527 68.3137L179.78 66.3734L179.837 66.3398L179.888 66.2992L190.494 57.9216L192.829 64.0819L192.899 64.2672L193.034 64.4117L195.283 66.8086L195.663 67.2144L196.209 67.1048L196.818 66.9825L209.937 73.3904L210.925 75.6118L205.916 100.204L203.661 106.272L200.348 111.182H196.571L191.4 110.555L191.13 110.522L190.881 110.631L183.897 113.673L183.829 113.703L183.766 113.742L179.878 116.174L179.817 116.213L179.762 116.259L176.17 119.302L176.044 119.409L175.959 119.551L173.425 123.781L173.333 123.935L173.3 124.111L172.669 127.489L172.642 127.639L172.659 127.79L175.065 148.192L175.1 148.489L175.292 148.718L195.763 173.068L196.003 173.354L196.371 173.413L208.477 175.343L217.501 177.562L218.968 180.344L218.299 185.552L205.877 198.114L196.223 202.758L195.72 203L195.662 203.555L194.793 211.873L194.781 211.988L194.796 212.103L195.366 216.589L194.254 220.913L191.933 221.78L187.366 217.981L187.19 217.835L186.968 217.78L171.949 214.031L171.575 213.938L171.236 214.119L167.79 215.96L167.685 216.016L167.595 216.096L161.452 221.578L161.425 221.603L161.399 221.629L140.101 243.665L140.082 243.685L140.064 243.706L137.667 246.48L137.554 244.516L137.552 244.483L137.548 244.451L136.871 238.99L136.844 238.773L136.729 238.587L134.32 234.689L134.284 234.63L134.24 234.577L121.017 218.577L120.931 218.473L120.82 218.395L117.364 215.973L117.34 215.957L117.316 215.942L111.835 212.548L103.586 204.013L101.579 201.193L99.1534 192.414L99.139 192.362L99.1191 192.312L96.5001 185.71L96.4141 185.493L96.2413 185.337L75.4959 166.576L75.4221 166.509L75.3365 166.458L71.3207 164.068L71.2647 164.035L71.2049 164.009L63.66 160.76L44.7761 151.814L24.2083 140.468L12.8661 133.305L8.34229 128.354L8.28221 128.288L8.21146 128.234L4.61967 125.487L4.58144 125.458L4.54057 125.433L1.83645 123.75L2.12104 123.557L2.26494 123.46L2.36756 123.32L6.29786 117.952L6.30845 117.937L6.31851 117.923L14.261 106.216L14.2712 106.201L14.2808 106.186L19.5937 97.7115L19.6745 97.5825L19.7133 97.4353L21.2465 91.6224L24.816 84.6433L33.2108 73.9928L39.7123 66.674L43.0523 63.5012L45.6734 61.6609L50.9168 59.4428L64.6373 55.2025L64.8576 55.1344L65.0258 54.9767L67.7947 52.3816L76.15 45.6865L83.1955 40.3189L83.2938 40.2441L83.3708 40.1476L92.7743 28.3773L92.825 28.3137L92.8648 28.2429L95.8865 22.8642L95.9931 22.6744L96.0112 22.4574L96.9977 10.6184L99.507 6.94502L99.7017 6.66004L99.6791 6.31564L99.4818 3.30149L100.605 1.38695L102.613 2.6225L106.159 5.26431L123.029 18.7623L130.248 32.1489L133.178 40.7656L133.319 41.1794L133.718 41.3572L139.951 44.1321L140.004 44.1557L140.059 44.173L145.268 45.8015L148.988 48.597L152.579 55.1318Z" stroke="black" stroke-opacity="0.2" stroke-width="2"/>
<path d="M152.579 55.1318L152.627 55.2185L152.691 55.2942L156.91 60.3055L157.298 60.766L157.886 60.6389L158.513 60.5034L158.522 60.5015L158.53 60.4995L162.783 59.5027L173.03 63.3873L175.107 67.8748L175.574 68.8823L176.527 68.3137L179.78 66.3734L179.837 66.3398L179.888 66.2992L190.494 57.9216L192.829 64.0819L192.899 64.2672L193.034 64.4117L195.283 66.8086L195.663 67.2144L196.209 67.1048L196.818 66.9825L209.937 73.3904L210.925 75.6118L205.916 100.204L203.661 106.272L200.348 111.182H196.571L191.4 110.555L191.13 110.522L190.881 110.631L183.897 113.673L183.829 113.703L183.766 113.742L179.878 116.174L179.817 116.213L179.762 116.259L176.17 119.302L176.044 119.409L175.959 119.551L173.425 123.781L173.333 123.935L173.3 124.111L172.669 127.489L172.642 127.639L172.659 127.79L175.065 148.192L175.1 148.489L175.292 148.718L195.763 173.068L196.003 173.354L196.371 173.413L208.477 175.343L217.501 177.562L218.968 180.344L218.299 185.552L205.877 198.114L196.223 202.758L195.72 203L195.662 203.555L194.793 211.873L194.781 211.988L194.796 212.103L195.366 216.589L194.254 220.913L191.933 221.78L187.366 217.981L187.19 217.835L186.968 217.78L171.949 214.031L171.575 213.938L171.236 214.119L167.79 215.96L167.685 216.016L167.595 216.096L161.452 221.578L161.425 221.603L161.399 221.629L140.101 243.665L140.082 243.685L140.064 243.706L137.667 246.48L137.554 244.516L137.552 244.483L137.548 244.451L136.871 238.99L136.844 238.773L136.729 238.587L134.32 234.689L134.284 234.63L134.24 234.577L121.017 218.577L120.931 218.473L120.82 218.395L117.364 215.973L117.34 215.957L117.316 215.942L111.835 212.548L103.586 204.013L101.579 201.193L99.1534 192.414L99.139 192.362L99.1191 192.312L96.5001 185.71L96.4141 185.493L96.2413 185.337L75.4959 166.576L75.4221 166.509L75.3365 166.458L71.3207 164.068L71.2647 164.035L71.2049 164.009L63.66 160.76L44.7761 151.814L24.2083 140.468L12.8661 133.305L8.34229 128.354L8.28221 128.288L8.21146 128.234L4.61967 125.487L4.58144 125.458L4.54057 125.433L1.83645 123.75L2.12104 123.557L2.26494 123.46L2.36756 123.32L6.29786 117.952L6.30845 117.937L6.31851 117.923L14.261 106.216L14.2712 106.201L14.2808 106.186L19.5937 97.7115L19.6745 97.5825L19.7133 97.4353L21.2465 91.6224L24.816 84.6433L33.2108 73.9928L39.7123 66.674L43.0523 63.5012L45.6734 61.6609L50.9168 59.4428L64.6373 55.2025L64.8576 55.1344L65.0258 54.9767L67.7947 52.3816L76.15 45.6865L83.1955 40.3189L83.2938 40.2441L83.3708 40.1476L92.7743 28.3773L92.825 28.3137L92.8648 28.2429L95.8865 22.8642L95.9931 22.6744L96.0112 22.4574L96.9977 10.6184L99.507 6.94502L99.7017 6.66004L99.6791 6.31564L99.4818 3.30149L100.605 1.38695L102.613 2.6225L106.159 5.26431L123.029 18.7623L130.248 32.1489L133.178 40.7656L133.319 41.1794L133.718 41.3572L139.951 44.1321L140.004 44.1557L140.059 44.173L145.268 45.8015L148.988 48.597L152.579 55.1318Z" stroke="black" stroke-opacity="0.2" stroke-width="2"/>
<path d="M152.579 55.1318L152.627 55.2185L152.691 55.2942L156.91 60.3055L157.298 60.766L157.886 60.6389L158.513 60.5034L158.522 60.5015L158.53 60.4995L162.783 59.5027L173.03 63.3873L175.107 67.8748L175.574 68.8823L176.527 68.3137L179.78 66.3734L179.837 66.3398L179.888 66.2992L190.494 57.9216L192.829 64.0819L192.899 64.2672L193.034 64.4117L195.283 66.8086L195.663 67.2144L196.209 67.1048L196.818 66.9825L209.937 73.3904L210.925 75.6118L205.916 100.204L203.661 106.272L200.348 111.182H196.571L191.4 110.555L191.13 110.522L190.881 110.631L183.897 113.673L183.829 113.703L183.766 113.742L179.878 116.174L179.817 116.213L179.762 116.259L176.17 119.302L176.044 119.409L175.959 119.551L173.425 123.781L173.333 123.935L173.3 124.111L172.669 127.489L172.642 127.639L172.659 127.79L175.065 148.192L175.1 148.489L175.292 148.718L195.763 173.068L196.003 173.354L196.371 173.413L208.477 175.343L217.501 177.562L218.968 180.344L218.299 185.552L205.877 198.114L196.223 202.758L195.72 203L195.662 203.555L194.793 211.873L194.781 211.988L194.796 212.103L195.366 216.589L194.254 220.913L191.933 221.78L187.366 217.981L187.19 217.835L186.968 217.78L171.949 214.031L171.575 213.938L171.236 214.119L167.79 215.96L167.685 216.016L167.595 216.096L161.452 221.578L161.425 221.603L161.399 221.629L140.101 243.665L140.082 243.685L140.064 243.706L137.667 246.48L137.554 244.516L137.552 244.483L137.548 244.451L136.871 238.99L136.844 238.773L136.729 238.587L134.32 234.689L134.284 234.63L134.24 234.577L121.017 218.577L120.931 218.473L120.82 218.395L117.364 215.973L117.34 215.957L117.316 215.942L111.835 212.548L103.586 204.013L101.579 201.193L99.1534 192.414L99.139 192.362L99.1191 192.312L96.5001 185.71L96.4141 185.493L96.2413 185.337L75.4959 166.576L75.4221 166.509L75.3365 166.458L71.3207 164.068L71.2647 164.035L71.2049 164.009L63.66 160.76L44.7761 151.814L24.2083 140.468L12.8661 133.305L8.34229 128.354L8.28221 128.288L8.21146 128.234L4.61967 125.487L4.58144 125.458L4.54057 125.433L1.83645 123.75L2.12104 123.557L2.26494 123.46L2.36756 123.32L6.29786 117.952L6.30845 117.937L6.31851 117.923L14.261 106.216L14.2712 106.201L14.2808 106.186L19.5937 97.7115L19.6745 97.5825L19.7133 97.4353L21.2465 91.6224L24.816 84.6433L33.2108 73.9928L39.7123 66.674L43.0523 63.5012L45.6734 61.6609L50.9168 59.4428L64.6373 55.2025L64.8576 55.1344L65.0258 54.9767L67.7947 52.3816L76.15 45.6865L83.1955 40.3189L83.2938 40.2441L83.3708 40.1476L92.7743 28.3773L92.825 28.3137L92.8648 28.2429L95.8865 22.8642L95.9931 22.6744L96.0112 22.4574L96.9977 10.6184L99.507 6.94502L99.7017 6.66004L99.6791 6.31564L99.4818 3.30149L100.605 1.38695L102.613 2.6225L106.159 5.26431L123.029 18.7623L130.248 32.1489L133.178 40.7656L133.319 41.1794L133.718 41.3572L139.951 44.1321L140.004 44.1557L140.059 44.173L145.268 45.8015L148.988 48.597L152.579 55.1318Z" stroke="black" stroke-opacity="0.2" stroke-width="2"/>
</svg>
