<svg width="192" height="249" viewBox="0 0 192 249" fill="none" xmlns="http://www.w3.org/2000/svg">
<mask id="path-1-inside-1_8892_6816" fill="white">
<path d="M189.682 168.7L188.053 177.16L188.484 187.909L190.115 191.441L189.961 192.311L190.696 194.458L192 195.336L190.248 199.089L189.387 204.68L190.679 208.548L187.668 211.56L185.086 216.288L182.935 219.298L180.784 224.029L175.62 226.179L175.886 228.688L175.503 228.75L174.891 226.608H166.715L161.984 224.889L156.822 227.039L152.519 230.907L146.496 235.209L140.905 238.65L137.464 246.388L134.451 249L134.453 248.969L131.135 248.694L124.483 240.307L122.394 237.745L120.203 235.686L117.567 233.392L116.425 232.181L115.258 230.482L114.209 226.617L113.57 223.827L112.976 218.546L106.195 208.881L103.342 205.638L94.0264 187.722L91.0305 180.051L90.4968 175.615L84.6257 169.753L78.7547 163.89L70.9266 156.074L68.9696 152.165L65.0555 150.211L63.0985 149.508L59.1845 148.257L61.1415 142.395V134.578L58.2843 126.37L59.1845 120.899L57.2275 115.036L53.8966 110.267L48.4804 102.236L42.7503 97.2378L33.6873 91.722L28.4367 88.7852L26.8597 88.0443L24.1449 87.2109L20.2921 84.4876L18.8288 80.7136L20.1785 77.9731L22.8876 77.6863L23.315 74.7052L17.6832 54.2376L14.3714 47.3785L9.14388 38.9317L5.51252 34.6149L0 27.5134L6.34623 22.9387L7.77487 19.3686L8.6394 11.9688L9.10921 7.23826L9.59442 7.07081L9.56554 6.87835L13.0082 3.8703L15.5883 0.858376L20.7504 0L24.6224 1.72057L24.193 7.30944L20.321 9.89027L18.1703 12.8983L17.4213 15.5908L18.617 20.8217L24.1892 24.5803L24.6975 26.4606L23.7213 30.0941L25.1596 38.8162L32.2818 38.7701L38.7435 36.3932L53.629 23.5334L57.2931 19.692L58.845 17.779L59.8154 15.8063L60.3276 13.3987L60.4546 10.535L61.6426 7.93494L63.2176 6.60894L75.7637 1.5281L79.1544 0.479199L79.0851 1.91879L80.044 4.36876L82.1446 5.64085L85.7394 4.82294L87.5724 6.08352L88.3194 10.1366L89.1763 11.5762L90.7628 12.8906L92.8981 13.6739L94.0726 13.5142L95.5071 15.127L96.7952 18.3852L97.6462 21.2124L97.9196 24.3051L98.9247 26.4375L101.081 29.1819L101.903 31.1777L102.543 33.9471L102.795 36.5087L103.58 39.0934L104.759 40.7792L108.273 44.511L108.889 46.9628L108.981 49.7111L109.164 51.7549L109.072 54.9747L108.571 57.3554L109.586 59.7457L110.922 60.7599L114.461 63.0309L115.772 66.2122L115.58 67.8346L115.054 72.0012L115.008 74.3357L116.024 84.5627L123.948 100.662L126.72 105.348L130.327 106.874L133.296 106.968L135.1 106.68L137 107.975L137.689 110.717L137.93 115.787L138.307 121.391L138.956 122.954L143.936 127.83L150.453 136.181L151.017 137.648L158.844 140.18L161.74 141.96L163.29 141.647L165.739 142.311L168.521 143.581L170.89 142.759H183.364L183.619 151.137L185.373 152.513L186 155.019L184.664 157.037L184.46 158.962L189.231 167.873L189.682 168.7Z"/>
</mask>
<path d="M189.682 168.7L188.053 177.16L188.484 187.909L190.115 191.441L189.961 192.311L190.696 194.458L192 195.336L190.248 199.089L189.387 204.68L190.679 208.548L187.668 211.56L185.086 216.288L182.935 219.298L180.784 224.029L175.62 226.179L175.886 228.688L175.503 228.75L174.891 226.608H166.715L161.984 224.889L156.822 227.039L152.519 230.907L146.496 235.209L140.905 238.65L137.464 246.388L134.451 249L134.453 248.969L131.135 248.694L124.483 240.307L122.394 237.745L120.203 235.686L117.567 233.392L116.425 232.181L115.258 230.482L114.209 226.617L113.57 223.827L112.976 218.546L106.195 208.881L103.342 205.638L94.0264 187.722L91.0305 180.051L90.4968 175.615L84.6257 169.753L78.7547 163.89L70.9266 156.074L68.9696 152.165L65.0555 150.211L63.0985 149.508L59.1845 148.257L61.1415 142.395V134.578L58.2843 126.37L59.1845 120.899L57.2275 115.036L53.8966 110.267L48.4804 102.236L42.7503 97.2378L33.6873 91.722L28.4367 88.7852L26.8597 88.0443L24.1449 87.2109L20.2921 84.4876L18.8288 80.7136L20.1785 77.9731L22.8876 77.6863L23.315 74.7052L17.6832 54.2376L14.3714 47.3785L9.14388 38.9317L5.51252 34.6149L0 27.5134L6.34623 22.9387L7.77487 19.3686L8.6394 11.9688L9.10921 7.23826L9.59442 7.07081L9.56554 6.87835L13.0082 3.8703L15.5883 0.858376L20.7504 0L24.6224 1.72057L24.193 7.30944L20.321 9.89027L18.1703 12.8983L17.4213 15.5908L18.617 20.8217L24.1892 24.5803L24.6975 26.4606L23.7213 30.0941L25.1596 38.8162L32.2818 38.7701L38.7435 36.3932L53.629 23.5334L57.2931 19.692L58.845 17.779L59.8154 15.8063L60.3276 13.3987L60.4546 10.535L61.6426 7.93494L63.2176 6.60894L75.7637 1.5281L79.1544 0.479199L79.0851 1.91879L80.044 4.36876L82.1446 5.64085L85.7394 4.82294L87.5724 6.08352L88.3194 10.1366L89.1763 11.5762L90.7628 12.8906L92.8981 13.6739L94.0726 13.5142L95.5071 15.127L96.7952 18.3852L97.6462 21.2124L97.9196 24.3051L98.9247 26.4375L101.081 29.1819L101.903 31.1777L102.543 33.9471L102.795 36.5087L103.58 39.0934L104.759 40.7792L108.273 44.511L108.889 46.9628L108.981 49.7111L109.164 51.7549L109.072 54.9747L108.571 57.3554L109.586 59.7457L110.922 60.7599L114.461 63.0309L115.772 66.2122L115.58 67.8346L115.054 72.0012L115.008 74.3357L116.024 84.5627L123.948 100.662L126.72 105.348L130.327 106.874L133.296 106.968L135.1 106.68L137 107.975L137.689 110.717L137.93 115.787L138.307 121.391L138.956 122.954L143.936 127.83L150.453 136.181L151.017 137.648L158.844 140.18L161.74 141.96L163.29 141.647L165.739 142.311L168.521 143.581L170.89 142.759H183.364L183.619 151.137L185.373 152.513L186 155.019L184.664 157.037L184.46 158.962L189.231 167.873L189.682 168.7Z" fill="#E9ECF2"/>
<path d="M189.682 168.7L188.053 177.16L188.484 187.909L190.115 191.441L189.961 192.311L190.696 194.458L192 195.336L190.248 199.089L189.387 204.68L190.679 208.548L187.668 211.56L185.086 216.288L182.935 219.298L180.784 224.029L175.62 226.179L175.886 228.688L175.503 228.75L174.891 226.608H166.715L161.984 224.889L156.822 227.039L152.519 230.907L146.496 235.209L140.905 238.65L137.464 246.388L134.451 249L134.453 248.969L131.135 248.694L124.483 240.307L122.394 237.745L120.203 235.686L117.567 233.392L116.425 232.181L115.258 230.482L114.209 226.617L113.57 223.827L112.976 218.546L106.195 208.881L103.342 205.638L94.0264 187.722L91.0305 180.051L90.4968 175.615L84.6257 169.753L78.7547 163.89L70.9266 156.074L68.9696 152.165L65.0555 150.211L63.0985 149.508L59.1845 148.257L61.1415 142.395V134.578L58.2843 126.37L59.1845 120.899L57.2275 115.036L53.8966 110.267L48.4804 102.236L42.7503 97.2378L33.6873 91.722L28.4367 88.7852L26.8597 88.0443L24.1449 87.2109L20.2921 84.4876L18.8288 80.7136L20.1785 77.9731L22.8876 77.6863L23.315 74.7052L17.6832 54.2376L14.3714 47.3785L9.14388 38.9317L5.51252 34.6149L0 27.5134L6.34623 22.9387L7.77487 19.3686L8.6394 11.9688L9.10921 7.23826L9.59442 7.07081L9.56554 6.87835L13.0082 3.8703L15.5883 0.858376L20.7504 0L24.6224 1.72057L24.193 7.30944L20.321 9.89027L18.1703 12.8983L17.4213 15.5908L18.617 20.8217L24.1892 24.5803L24.6975 26.4606L23.7213 30.0941L25.1596 38.8162L32.2818 38.7701L38.7435 36.3932L53.629 23.5334L57.2931 19.692L58.845 17.779L59.8154 15.8063L60.3276 13.3987L60.4546 10.535L61.6426 7.93494L63.2176 6.60894L75.7637 1.5281L79.1544 0.479199L79.0851 1.91879L80.044 4.36876L82.1446 5.64085L85.7394 4.82294L87.5724 6.08352L88.3194 10.1366L89.1763 11.5762L90.7628 12.8906L92.8981 13.6739L94.0726 13.5142L95.5071 15.127L96.7952 18.3852L97.6462 21.2124L97.9196 24.3051L98.9247 26.4375L101.081 29.1819L101.903 31.1777L102.543 33.9471L102.795 36.5087L103.58 39.0934L104.759 40.7792L108.273 44.511L108.889 46.9628L108.981 49.7111L109.164 51.7549L109.072 54.9747L108.571 57.3554L109.586 59.7457L110.922 60.7599L114.461 63.0309L115.772 66.2122L115.58 67.8346L115.054 72.0012L115.008 74.3357L116.024 84.5627L123.948 100.662L126.72 105.348L130.327 106.874L133.296 106.968L135.1 106.68L137 107.975L137.689 110.717L137.93 115.787L138.307 121.391L138.956 122.954L143.936 127.83L150.453 136.181L151.017 137.648L158.844 140.18L161.74 141.96L163.29 141.647L165.739 142.311L168.521 143.581L170.89 142.759H183.364L183.619 151.137L185.373 152.513L186 155.019L184.664 157.037L184.46 158.962L189.231 167.873L189.682 168.7Z" stroke="#8F959D" stroke-width="4" mask="url(#path-1-inside-1_8892_6816)"/>
<path d="M189.682 168.7L188.053 177.16L188.484 187.909L190.115 191.441L189.961 192.311L190.696 194.458L192 195.336L190.248 199.089L189.387 204.68L190.679 208.548L187.668 211.56L185.086 216.288L182.935 219.298L180.784 224.029L175.62 226.179L175.886 228.688L175.503 228.75L174.891 226.608H166.715L161.984 224.889L156.822 227.039L152.519 230.907L146.496 235.209L140.905 238.65L137.464 246.388L134.451 249L134.453 248.969L131.135 248.694L124.483 240.307L122.394 237.745L120.203 235.686L117.567 233.392L116.425 232.181L115.258 230.482L114.209 226.617L113.57 223.827L112.976 218.546L106.195 208.881L103.342 205.638L94.0264 187.722L91.0305 180.051L90.4968 175.615L84.6257 169.753L78.7547 163.89L70.9266 156.074L68.9696 152.165L65.0555 150.211L63.0985 149.508L59.1845 148.257L61.1415 142.395V134.578L58.2843 126.37L59.1845 120.899L57.2275 115.036L53.8966 110.267L48.4804 102.236L42.7503 97.2378L33.6873 91.722L28.4367 88.7852L26.8597 88.0443L24.1449 87.2109L20.2921 84.4876L18.8288 80.7136L20.1785 77.9731L22.8876 77.6863L23.315 74.7052L17.6832 54.2376L14.3714 47.3785L9.14388 38.9317L5.51252 34.6149L0 27.5134L6.34623 22.9387L7.77487 19.3686L8.6394 11.9688L9.10921 7.23826L9.59442 7.07081L9.56554 6.87835L13.0082 3.8703L15.5883 0.858376L20.7504 0L24.6224 1.72057L24.193 7.30944L20.321 9.89027L18.1703 12.8983L17.4213 15.5908L18.617 20.8217L24.1892 24.5803L24.6975 26.4606L23.7213 30.0941L25.1596 38.8162L32.2818 38.7701L38.7435 36.3932L53.629 23.5334L57.2931 19.692L58.845 17.779L59.8154 15.8063L60.3276 13.3987L60.4546 10.535L61.6426 7.93494L63.2176 6.60894L75.7637 1.5281L79.1544 0.479199L79.0851 1.91879L80.044 4.36876L82.1446 5.64085L85.7394 4.82294L87.5724 6.08352L88.3194 10.1366L89.1763 11.5762L90.7628 12.8906L92.8981 13.6739L94.0726 13.5142L95.5071 15.127L96.7952 18.3852L97.6462 21.2124L97.9196 24.3051L98.9247 26.4375L101.081 29.1819L101.903 31.1777L102.543 33.9471L102.795 36.5087L103.58 39.0934L104.759 40.7792L108.273 44.511L108.889 46.9628L108.981 49.7111L109.164 51.7549L109.072 54.9747L108.571 57.3554L109.586 59.7457L110.922 60.7599L114.461 63.0309L115.772 66.2122L115.58 67.8346L115.054 72.0012L115.008 74.3357L116.024 84.5627L123.948 100.662L126.72 105.348L130.327 106.874L133.296 106.968L135.1 106.68L137 107.975L137.689 110.717L137.93 115.787L138.307 121.391L138.956 122.954L143.936 127.83L150.453 136.181L151.017 137.648L158.844 140.18L161.74 141.96L163.29 141.647L165.739 142.311L168.521 143.581L170.89 142.759H183.364L183.619 151.137L185.373 152.513L186 155.019L184.664 157.037L184.46 158.962L189.231 167.873L189.682 168.7Z" stroke="black" stroke-opacity="0.2" stroke-width="4" mask="url(#path-1-inside-1_8892_6816)"/>
<path d="M189.682 168.7L188.053 177.16L188.484 187.909L190.115 191.441L189.961 192.311L190.696 194.458L192 195.336L190.248 199.089L189.387 204.68L190.679 208.548L187.668 211.56L185.086 216.288L182.935 219.298L180.784 224.029L175.62 226.179L175.886 228.688L175.503 228.75L174.891 226.608H166.715L161.984 224.889L156.822 227.039L152.519 230.907L146.496 235.209L140.905 238.65L137.464 246.388L134.451 249L134.453 248.969L131.135 248.694L124.483 240.307L122.394 237.745L120.203 235.686L117.567 233.392L116.425 232.181L115.258 230.482L114.209 226.617L113.57 223.827L112.976 218.546L106.195 208.881L103.342 205.638L94.0264 187.722L91.0305 180.051L90.4968 175.615L84.6257 169.753L78.7547 163.89L70.9266 156.074L68.9696 152.165L65.0555 150.211L63.0985 149.508L59.1845 148.257L61.1415 142.395V134.578L58.2843 126.37L59.1845 120.899L57.2275 115.036L53.8966 110.267L48.4804 102.236L42.7503 97.2378L33.6873 91.722L28.4367 88.7852L26.8597 88.0443L24.1449 87.2109L20.2921 84.4876L18.8288 80.7136L20.1785 77.9731L22.8876 77.6863L23.315 74.7052L17.6832 54.2376L14.3714 47.3785L9.14388 38.9317L5.51252 34.6149L0 27.5134L6.34623 22.9387L7.77487 19.3686L8.6394 11.9688L9.10921 7.23826L9.59442 7.07081L9.56554 6.87835L13.0082 3.8703L15.5883 0.858376L20.7504 0L24.6224 1.72057L24.193 7.30944L20.321 9.89027L18.1703 12.8983L17.4213 15.5908L18.617 20.8217L24.1892 24.5803L24.6975 26.4606L23.7213 30.0941L25.1596 38.8162L32.2818 38.7701L38.7435 36.3932L53.629 23.5334L57.2931 19.692L58.845 17.779L59.8154 15.8063L60.3276 13.3987L60.4546 10.535L61.6426 7.93494L63.2176 6.60894L75.7637 1.5281L79.1544 0.479199L79.0851 1.91879L80.044 4.36876L82.1446 5.64085L85.7394 4.82294L87.5724 6.08352L88.3194 10.1366L89.1763 11.5762L90.7628 12.8906L92.8981 13.6739L94.0726 13.5142L95.5071 15.127L96.7952 18.3852L97.6462 21.2124L97.9196 24.3051L98.9247 26.4375L101.081 29.1819L101.903 31.1777L102.543 33.9471L102.795 36.5087L103.58 39.0934L104.759 40.7792L108.273 44.511L108.889 46.9628L108.981 49.7111L109.164 51.7549L109.072 54.9747L108.571 57.3554L109.586 59.7457L110.922 60.7599L114.461 63.0309L115.772 66.2122L115.58 67.8346L115.054 72.0012L115.008 74.3357L116.024 84.5627L123.948 100.662L126.72 105.348L130.327 106.874L133.296 106.968L135.1 106.68L137 107.975L137.689 110.717L137.93 115.787L138.307 121.391L138.956 122.954L143.936 127.83L150.453 136.181L151.017 137.648L158.844 140.18L161.74 141.96L163.29 141.647L165.739 142.311L168.521 143.581L170.89 142.759H183.364L183.619 151.137L185.373 152.513L186 155.019L184.664 157.037L184.46 158.962L189.231 167.873L189.682 168.7Z" stroke="black" stroke-opacity="0.2" stroke-width="4" mask="url(#path-1-inside-1_8892_6816)"/>
<path d="M189.682 168.7L188.053 177.16L188.484 187.909L190.115 191.441L189.961 192.311L190.696 194.458L192 195.336L190.248 199.089L189.387 204.68L190.679 208.548L187.668 211.56L185.086 216.288L182.935 219.298L180.784 224.029L175.62 226.179L175.886 228.688L175.503 228.75L174.891 226.608H166.715L161.984 224.889L156.822 227.039L152.519 230.907L146.496 235.209L140.905 238.65L137.464 246.388L134.451 249L134.453 248.969L131.135 248.694L124.483 240.307L122.394 237.745L120.203 235.686L117.567 233.392L116.425 232.181L115.258 230.482L114.209 226.617L113.57 223.827L112.976 218.546L106.195 208.881L103.342 205.638L94.0264 187.722L91.0305 180.051L90.4968 175.615L84.6257 169.753L78.7547 163.89L70.9266 156.074L68.9696 152.165L65.0555 150.211L63.0985 149.508L59.1845 148.257L61.1415 142.395V134.578L58.2843 126.37L59.1845 120.899L57.2275 115.036L53.8966 110.267L48.4804 102.236L42.7503 97.2378L33.6873 91.722L28.4367 88.7852L26.8597 88.0443L24.1449 87.2109L20.2921 84.4876L18.8288 80.7136L20.1785 77.9731L22.8876 77.6863L23.315 74.7052L17.6832 54.2376L14.3714 47.3785L9.14388 38.9317L5.51252 34.6149L0 27.5134L6.34623 22.9387L7.77487 19.3686L8.6394 11.9688L9.10921 7.23826L9.59442 7.07081L9.56554 6.87835L13.0082 3.8703L15.5883 0.858376L20.7504 0L24.6224 1.72057L24.193 7.30944L20.321 9.89027L18.1703 12.8983L17.4213 15.5908L18.617 20.8217L24.1892 24.5803L24.6975 26.4606L23.7213 30.0941L25.1596 38.8162L32.2818 38.7701L38.7435 36.3932L53.629 23.5334L57.2931 19.692L58.845 17.779L59.8154 15.8063L60.3276 13.3987L60.4546 10.535L61.6426 7.93494L63.2176 6.60894L75.7637 1.5281L79.1544 0.479199L79.0851 1.91879L80.044 4.36876L82.1446 5.64085L85.7394 4.82294L87.5724 6.08352L88.3194 10.1366L89.1763 11.5762L90.7628 12.8906L92.8981 13.6739L94.0726 13.5142L95.5071 15.127L96.7952 18.3852L97.6462 21.2124L97.9196 24.3051L98.9247 26.4375L101.081 29.1819L101.903 31.1777L102.543 33.9471L102.795 36.5087L103.58 39.0934L104.759 40.7792L108.273 44.511L108.889 46.9628L108.981 49.7111L109.164 51.7549L109.072 54.9747L108.571 57.3554L109.586 59.7457L110.922 60.7599L114.461 63.0309L115.772 66.2122L115.58 67.8346L115.054 72.0012L115.008 74.3357L116.024 84.5627L123.948 100.662L126.72 105.348L130.327 106.874L133.296 106.968L135.1 106.68L137 107.975L137.689 110.717L137.93 115.787L138.307 121.391L138.956 122.954L143.936 127.83L150.453 136.181L151.017 137.648L158.844 140.18L161.74 141.96L163.29 141.647L165.739 142.311L168.521 143.581L170.89 142.759H183.364L183.619 151.137L185.373 152.513L186 155.019L184.664 157.037L184.46 158.962L189.231 167.873L189.682 168.7Z" stroke="black" stroke-opacity="0.2" stroke-width="4" mask="url(#path-1-inside-1_8892_6816)"/>
<path d="M189.682 168.7L188.053 177.16L188.484 187.909L190.115 191.441L189.961 192.311L190.696 194.458L192 195.336L190.248 199.089L189.387 204.68L190.679 208.548L187.668 211.56L185.086 216.288L182.935 219.298L180.784 224.029L175.62 226.179L175.886 228.688L175.503 228.75L174.891 226.608H166.715L161.984 224.889L156.822 227.039L152.519 230.907L146.496 235.209L140.905 238.65L137.464 246.388L134.451 249L134.453 248.969L131.135 248.694L124.483 240.307L122.394 237.745L120.203 235.686L117.567 233.392L116.425 232.181L115.258 230.482L114.209 226.617L113.57 223.827L112.976 218.546L106.195 208.881L103.342 205.638L94.0264 187.722L91.0305 180.051L90.4968 175.615L84.6257 169.753L78.7547 163.89L70.9266 156.074L68.9696 152.165L65.0555 150.211L63.0985 149.508L59.1845 148.257L61.1415 142.395V134.578L58.2843 126.37L59.1845 120.899L57.2275 115.036L53.8966 110.267L48.4804 102.236L42.7503 97.2378L33.6873 91.722L28.4367 88.7852L26.8597 88.0443L24.1449 87.2109L20.2921 84.4876L18.8288 80.7136L20.1785 77.9731L22.8876 77.6863L23.315 74.7052L17.6832 54.2376L14.3714 47.3785L9.14388 38.9317L5.51252 34.6149L0 27.5134L6.34623 22.9387L7.77487 19.3686L8.6394 11.9688L9.10921 7.23826L9.59442 7.07081L9.56554 6.87835L13.0082 3.8703L15.5883 0.858376L20.7504 0L24.6224 1.72057L24.193 7.30944L20.321 9.89027L18.1703 12.8983L17.4213 15.5908L18.617 20.8217L24.1892 24.5803L24.6975 26.4606L23.7213 30.0941L25.1596 38.8162L32.2818 38.7701L38.7435 36.3932L53.629 23.5334L57.2931 19.692L58.845 17.779L59.8154 15.8063L60.3276 13.3987L60.4546 10.535L61.6426 7.93494L63.2176 6.60894L75.7637 1.5281L79.1544 0.479199L79.0851 1.91879L80.044 4.36876L82.1446 5.64085L85.7394 4.82294L87.5724 6.08352L88.3194 10.1366L89.1763 11.5762L90.7628 12.8906L92.8981 13.6739L94.0726 13.5142L95.5071 15.127L96.7952 18.3852L97.6462 21.2124L97.9196 24.3051L98.9247 26.4375L101.081 29.1819L101.903 31.1777L102.543 33.9471L102.795 36.5087L103.58 39.0934L104.759 40.7792L108.273 44.511L108.889 46.9628L108.981 49.7111L109.164 51.7549L109.072 54.9747L108.571 57.3554L109.586 59.7457L110.922 60.7599L114.461 63.0309L115.772 66.2122L115.58 67.8346L115.054 72.0012L115.008 74.3357L116.024 84.5627L123.948 100.662L126.72 105.348L130.327 106.874L133.296 106.968L135.1 106.68L137 107.975L137.689 110.717L137.93 115.787L138.307 121.391L138.956 122.954L143.936 127.83L150.453 136.181L151.017 137.648L158.844 140.18L161.74 141.96L163.29 141.647L165.739 142.311L168.521 143.581L170.89 142.759H183.364L183.619 151.137L185.373 152.513L186 155.019L184.664 157.037L184.46 158.962L189.231 167.873L189.682 168.7Z" stroke="black" stroke-opacity="0.2" stroke-width="4" mask="url(#path-1-inside-1_8892_6816)"/>
<path d="M189.682 168.7L188.053 177.16L188.484 187.909L190.115 191.441L189.961 192.311L190.696 194.458L192 195.336L190.248 199.089L189.387 204.68L190.679 208.548L187.668 211.56L185.086 216.288L182.935 219.298L180.784 224.029L175.62 226.179L175.886 228.688L175.503 228.75L174.891 226.608H166.715L161.984 224.889L156.822 227.039L152.519 230.907L146.496 235.209L140.905 238.65L137.464 246.388L134.451 249L134.453 248.969L131.135 248.694L124.483 240.307L122.394 237.745L120.203 235.686L117.567 233.392L116.425 232.181L115.258 230.482L114.209 226.617L113.57 223.827L112.976 218.546L106.195 208.881L103.342 205.638L94.0264 187.722L91.0305 180.051L90.4968 175.615L84.6257 169.753L78.7547 163.89L70.9266 156.074L68.9696 152.165L65.0555 150.211L63.0985 149.508L59.1845 148.257L61.1415 142.395V134.578L58.2843 126.37L59.1845 120.899L57.2275 115.036L53.8966 110.267L48.4804 102.236L42.7503 97.2378L33.6873 91.722L28.4367 88.7852L26.8597 88.0443L24.1449 87.2109L20.2921 84.4876L18.8288 80.7136L20.1785 77.9731L22.8876 77.6863L23.315 74.7052L17.6832 54.2376L14.3714 47.3785L9.14388 38.9317L5.51252 34.6149L0 27.5134L6.34623 22.9387L7.77487 19.3686L8.6394 11.9688L9.10921 7.23826L9.59442 7.07081L9.56554 6.87835L13.0082 3.8703L15.5883 0.858376L20.7504 0L24.6224 1.72057L24.193 7.30944L20.321 9.89027L18.1703 12.8983L17.4213 15.5908L18.617 20.8217L24.1892 24.5803L24.6975 26.4606L23.7213 30.0941L25.1596 38.8162L32.2818 38.7701L38.7435 36.3932L53.629 23.5334L57.2931 19.692L58.845 17.779L59.8154 15.8063L60.3276 13.3987L60.4546 10.535L61.6426 7.93494L63.2176 6.60894L75.7637 1.5281L79.1544 0.479199L79.0851 1.91879L80.044 4.36876L82.1446 5.64085L85.7394 4.82294L87.5724 6.08352L88.3194 10.1366L89.1763 11.5762L90.7628 12.8906L92.8981 13.6739L94.0726 13.5142L95.5071 15.127L96.7952 18.3852L97.6462 21.2124L97.9196 24.3051L98.9247 26.4375L101.081 29.1819L101.903 31.1777L102.543 33.9471L102.795 36.5087L103.58 39.0934L104.759 40.7792L108.273 44.511L108.889 46.9628L108.981 49.7111L109.164 51.7549L109.072 54.9747L108.571 57.3554L109.586 59.7457L110.922 60.7599L114.461 63.0309L115.772 66.2122L115.58 67.8346L115.054 72.0012L115.008 74.3357L116.024 84.5627L123.948 100.662L126.72 105.348L130.327 106.874L133.296 106.968L135.1 106.68L137 107.975L137.689 110.717L137.93 115.787L138.307 121.391L138.956 122.954L143.936 127.83L150.453 136.181L151.017 137.648L158.844 140.18L161.74 141.96L163.29 141.647L165.739 142.311L168.521 143.581L170.89 142.759H183.364L183.619 151.137L185.373 152.513L186 155.019L184.664 157.037L184.46 158.962L189.231 167.873L189.682 168.7Z" stroke="black" stroke-opacity="0.2" stroke-width="4" mask="url(#path-1-inside-1_8892_6816)"/>
</svg>
