<svg width="220" height="190" viewBox="0 0 220 190" fill="none" xmlns="http://www.w3.org/2000/svg">
<path d="M180.088 127.293L179.912 127.217L179.72 127.211L171.719 126.96L171.624 126.957L171.531 126.972L159.922 128.808L159.445 128.883L159.208 129.303L149.881 145.763L149.727 146.036L149.756 146.349L149.819 147.023L147.726 148.335L147.684 148.362L147.644 148.392L142.21 152.612L142.188 152.629L142.167 152.647L118.881 172.905L116.048 173.394L115.485 173.491L115.282 174.025L113.215 179.48L93.3399 186.758L56.4155 189H22.7238L6.5664 175.925L1.19524 159.98L7.57596 155.831L7.79908 155.686L7.92058 155.449L18.3087 135.207L26.2752 124.182L38.4265 115.648L53.2921 106.853L53.4394 106.766L53.5493 106.635L58.3691 100.884L58.5376 100.683L58.5858 100.425L60.5693 89.7903L63.0351 81.8279L66.5226 74.7538L70.2782 70.1499L94.6069 54.534L112.994 45.062L113.008 45.055L113.021 45.0475L125.378 38.1939L125.562 38.0918L125.69 37.9242L137.197 22.7688L137.246 22.7038L137.284 22.6317L139.779 17.9176L139.784 17.9076L139.789 17.8975L143.609 10.2661L150.569 7.43327L165.42 7.19196L165.439 7.19165L165.458 7.19062L171.814 6.84497L171.909 6.8398L172.002 6.81678L177.647 5.41035L177.838 5.36275L177.997 5.2463L183.033 1.55125L183.163 1.456L183.256 1.32481L183.37 1.16505L195.467 4.8214L204.005 7.63863L207.663 23.5678L207.668 23.5889L207.673 23.6098L212.216 40.0883L212.223 40.1153L212.232 40.1419L217.491 55.7428L218.993 80.9254L214.493 99.4475L209.289 113.434L198.923 124.416L188.08 130.773L180.088 127.293Z" fill="#E9ECF2"/>
<path d="M180.088 127.293L179.912 127.217L179.72 127.211L171.719 126.96L171.624 126.957L171.531 126.972L159.922 128.808L159.445 128.883L159.208 129.303L149.881 145.763L149.727 146.036L149.756 146.349L149.819 147.023L147.726 148.335L147.684 148.362L147.644 148.392L142.21 152.612L142.188 152.629L142.167 152.647L118.881 172.905L116.048 173.394L115.485 173.491L115.282 174.025L113.215 179.48L93.3399 186.758L56.4155 189H22.7238L6.5664 175.925L1.19524 159.98L7.57596 155.831L7.79908 155.686L7.92058 155.449L18.3087 135.207L26.2752 124.182L38.4265 115.648L53.2921 106.853L53.4394 106.766L53.5493 106.635L58.3691 100.884L58.5376 100.683L58.5858 100.425L60.5693 89.7903L63.0351 81.8279L66.5226 74.7538L70.2782 70.1499L94.6069 54.534L112.994 45.062L113.008 45.055L113.021 45.0475L125.378 38.1939L125.562 38.0918L125.69 37.9242L137.197 22.7688L137.246 22.7038L137.284 22.6317L139.779 17.9176L139.784 17.9076L139.789 17.8975L143.609 10.2661L150.569 7.43327L165.42 7.19196L165.439 7.19165L165.458 7.19062L171.814 6.84497L171.909 6.8398L172.002 6.81678L177.647 5.41035L177.838 5.36275L177.997 5.2463L183.033 1.55125L183.163 1.456L183.256 1.32481L183.37 1.16505L195.467 4.8214L204.005 7.63863L207.663 23.5678L207.668 23.5889L207.673 23.6098L212.216 40.0883L212.223 40.1153L212.232 40.1419L217.491 55.7428L218.993 80.9254L214.493 99.4475L209.289 113.434L198.923 124.416L188.08 130.773L180.088 127.293Z" stroke="#8F959D" stroke-width="2"/>
<path d="M180.088 127.293L179.912 127.217L179.72 127.211L171.719 126.96L171.624 126.957L171.531 126.972L159.922 128.808L159.445 128.883L159.208 129.303L149.881 145.763L149.727 146.036L149.756 146.349L149.819 147.023L147.726 148.335L147.684 148.362L147.644 148.392L142.21 152.612L142.188 152.629L142.167 152.647L118.881 172.905L116.048 173.394L115.485 173.491L115.282 174.025L113.215 179.48L93.3399 186.758L56.4155 189H22.7238L6.5664 175.925L1.19524 159.98L7.57596 155.831L7.79908 155.686L7.92058 155.449L18.3087 135.207L26.2752 124.182L38.4265 115.648L53.2921 106.853L53.4394 106.766L53.5493 106.635L58.3691 100.884L58.5376 100.683L58.5858 100.425L60.5693 89.7903L63.0351 81.8279L66.5226 74.7538L70.2782 70.1499L94.6069 54.534L112.994 45.062L113.008 45.055L113.021 45.0475L125.378 38.1939L125.562 38.0918L125.69 37.9242L137.197 22.7688L137.246 22.7038L137.284 22.6317L139.779 17.9176L139.784 17.9076L139.789 17.8975L143.609 10.2661L150.569 7.43327L165.42 7.19196L165.439 7.19165L165.458 7.19062L171.814 6.84497L171.909 6.8398L172.002 6.81678L177.647 5.41035L177.838 5.36275L177.997 5.2463L183.033 1.55125L183.163 1.456L183.256 1.32481L183.37 1.16505L195.467 4.8214L204.005 7.63863L207.663 23.5678L207.668 23.5889L207.673 23.6098L212.216 40.0883L212.223 40.1153L212.232 40.1419L217.491 55.7428L218.993 80.9254L214.493 99.4475L209.289 113.434L198.923 124.416L188.08 130.773L180.088 127.293Z" stroke="black" stroke-opacity="0.2" stroke-width="2"/>
<path d="M180.088 127.293L179.912 127.217L179.72 127.211L171.719 126.96L171.624 126.957L171.531 126.972L159.922 128.808L159.445 128.883L159.208 129.303L149.881 145.763L149.727 146.036L149.756 146.349L149.819 147.023L147.726 148.335L147.684 148.362L147.644 148.392L142.21 152.612L142.188 152.629L142.167 152.647L118.881 172.905L116.048 173.394L115.485 173.491L115.282 174.025L113.215 179.48L93.3399 186.758L56.4155 189H22.7238L6.5664 175.925L1.19524 159.98L7.57596 155.831L7.79908 155.686L7.92058 155.449L18.3087 135.207L26.2752 124.182L38.4265 115.648L53.2921 106.853L53.4394 106.766L53.5493 106.635L58.3691 100.884L58.5376 100.683L58.5858 100.425L60.5693 89.7903L63.0351 81.8279L66.5226 74.7538L70.2782 70.1499L94.6069 54.534L112.994 45.062L113.008 45.055L113.021 45.0475L125.378 38.1939L125.562 38.0918L125.69 37.9242L137.197 22.7688L137.246 22.7038L137.284 22.6317L139.779 17.9176L139.784 17.9076L139.789 17.8975L143.609 10.2661L150.569 7.43327L165.42 7.19196L165.439 7.19165L165.458 7.19062L171.814 6.84497L171.909 6.8398L172.002 6.81678L177.647 5.41035L177.838 5.36275L177.997 5.2463L183.033 1.55125L183.163 1.456L183.256 1.32481L183.37 1.16505L195.467 4.8214L204.005 7.63863L207.663 23.5678L207.668 23.5889L207.673 23.6098L212.216 40.0883L212.223 40.1153L212.232 40.1419L217.491 55.7428L218.993 80.9254L214.493 99.4475L209.289 113.434L198.923 124.416L188.08 130.773L180.088 127.293Z" stroke="black" stroke-opacity="0.2" stroke-width="2"/>
<path d="M180.088 127.293L179.912 127.217L179.72 127.211L171.719 126.96L171.624 126.957L171.531 126.972L159.922 128.808L159.445 128.883L159.208 129.303L149.881 145.763L149.727 146.036L149.756 146.349L149.819 147.023L147.726 148.335L147.684 148.362L147.644 148.392L142.21 152.612L142.188 152.629L142.167 152.647L118.881 172.905L116.048 173.394L115.485 173.491L115.282 174.025L113.215 179.48L93.3399 186.758L56.4155 189H22.7238L6.5664 175.925L1.19524 159.98L7.57596 155.831L7.79908 155.686L7.92058 155.449L18.3087 135.207L26.2752 124.182L38.4265 115.648L53.2921 106.853L53.4394 106.766L53.5493 106.635L58.3691 100.884L58.5376 100.683L58.5858 100.425L60.5693 89.7903L63.0351 81.8279L66.5226 74.7538L70.2782 70.1499L94.6069 54.534L112.994 45.062L113.008 45.055L113.021 45.0475L125.378 38.1939L125.562 38.0918L125.69 37.9242L137.197 22.7688L137.246 22.7038L137.284 22.6317L139.779 17.9176L139.784 17.9076L139.789 17.8975L143.609 10.2661L150.569 7.43327L165.42 7.19196L165.439 7.19165L165.458 7.19062L171.814 6.84497L171.909 6.8398L172.002 6.81678L177.647 5.41035L177.838 5.36275L177.997 5.2463L183.033 1.55125L183.163 1.456L183.256 1.32481L183.37 1.16505L195.467 4.8214L204.005 7.63863L207.663 23.5678L207.668 23.5889L207.673 23.6098L212.216 40.0883L212.223 40.1153L212.232 40.1419L217.491 55.7428L218.993 80.9254L214.493 99.4475L209.289 113.434L198.923 124.416L188.08 130.773L180.088 127.293Z" stroke="black" stroke-opacity="0.2" stroke-width="2"/>
<path d="M180.088 127.293L179.912 127.217L179.72 127.211L171.719 126.96L171.624 126.957L171.531 126.972L159.922 128.808L159.445 128.883L159.208 129.303L149.881 145.763L149.727 146.036L149.756 146.349L149.819 147.023L147.726 148.335L147.684 148.362L147.644 148.392L142.21 152.612L142.188 152.629L142.167 152.647L118.881 172.905L116.048 173.394L115.485 173.491L115.282 174.025L113.215 179.48L93.3399 186.758L56.4155 189H22.7238L6.5664 175.925L1.19524 159.98L7.57596 155.831L7.79908 155.686L7.92058 155.449L18.3087 135.207L26.2752 124.182L38.4265 115.648L53.2921 106.853L53.4394 106.766L53.5493 106.635L58.3691 100.884L58.5376 100.683L58.5858 100.425L60.5693 89.7903L63.0351 81.8279L66.5226 74.7538L70.2782 70.1499L94.6069 54.534L112.994 45.062L113.008 45.055L113.021 45.0475L125.378 38.1939L125.562 38.0918L125.69 37.9242L137.197 22.7688L137.246 22.7038L137.284 22.6317L139.779 17.9176L139.784 17.9076L139.789 17.8975L143.609 10.2661L150.569 7.43327L165.42 7.19196L165.439 7.19165L165.458 7.19062L171.814 6.84497L171.909 6.8398L172.002 6.81678L177.647 5.41035L177.838 5.36275L177.997 5.2463L183.033 1.55125L183.163 1.456L183.256 1.32481L183.37 1.16505L195.467 4.8214L204.005 7.63863L207.663 23.5678L207.668 23.5889L207.673 23.6098L212.216 40.0883L212.223 40.1153L212.232 40.1419L217.491 55.7428L218.993 80.9254L214.493 99.4475L209.289 113.434L198.923 124.416L188.08 130.773L180.088 127.293Z" stroke="black" stroke-opacity="0.2" stroke-width="2"/>
<path d="M180.088 127.293L179.912 127.217L179.72 127.211L171.719 126.96L171.624 126.957L171.531 126.972L159.922 128.808L159.445 128.883L159.208 129.303L149.881 145.763L149.727 146.036L149.756 146.349L149.819 147.023L147.726 148.335L147.684 148.362L147.644 148.392L142.21 152.612L142.188 152.629L142.167 152.647L118.881 172.905L116.048 173.394L115.485 173.491L115.282 174.025L113.215 179.48L93.3399 186.758L56.4155 189H22.7238L6.5664 175.925L1.19524 159.98L7.57596 155.831L7.79908 155.686L7.92058 155.449L18.3087 135.207L26.2752 124.182L38.4265 115.648L53.2921 106.853L53.4394 106.766L53.5493 106.635L58.3691 100.884L58.5376 100.683L58.5858 100.425L60.5693 89.7903L63.0351 81.8279L66.5226 74.7538L70.2782 70.1499L94.6069 54.534L112.994 45.062L113.008 45.055L113.021 45.0475L125.378 38.1939L125.562 38.0918L125.69 37.9242L137.197 22.7688L137.246 22.7038L137.284 22.6317L139.779 17.9176L139.784 17.9076L139.789 17.8975L143.609 10.2661L150.569 7.43327L165.42 7.19196L165.439 7.19165L165.458 7.19062L171.814 6.84497L171.909 6.8398L172.002 6.81678L177.647 5.41035L177.838 5.36275L177.997 5.2463L183.033 1.55125L183.163 1.456L183.256 1.32481L183.37 1.16505L195.467 4.8214L204.005 7.63863L207.663 23.5678L207.668 23.5889L207.673 23.6098L212.216 40.0883L212.223 40.1153L212.232 40.1419L217.491 55.7428L218.993 80.9254L214.493 99.4475L209.289 113.434L198.923 124.416L188.08 130.773L180.088 127.293Z" stroke="black" stroke-opacity="0.2" stroke-width="2"/>
</svg>
