<svg width="220" height="172" viewBox="0 0 220 172" fill="none" xmlns="http://www.w3.org/2000/svg">
<mask id="path-1-inside-1_8892_6812" fill="white">
<path d="M68.4222 2.16107L72.511 2.59347L75.3074 4.97123L78.1048 7.13325L78.1867 8.44886L78.307 8.51463L79.0668 9.09505L79.4578 9.5526L78.8405 9.61935L78.7413 10.6099L79.9922 11.4399L81.7034 12.8774L84.4546 15.614L85.014 16.6191L85.4146 17.3553L86.2649 17.9473L89.1249 18.994L90.267 19.3045L90.9873 19.7988L91.5169 20.9151L91.3349 22.6892L90.2179 24.0716L88.0955 23.7949L88.3026 26.9079L88.9449 27.6963L90.8554 28.3928L93.2474 29.7499L95.5488 34.0885L97.1522 39.3848L97.78 41.6068L98.1171 43.6624L100.361 45.5806L103.398 47.734L105.825 54.0315L108.799 57.0138L110.129 57.2363L111.174 57.5062L112.476 58.0885L113.184 58.6709L113.766 59.5357L114.199 60.6656L114.577 61.8419L115.023 62.5451L117.617 66.4861L119.797 67.645L121.582 70.0595L122.044 72.4421L122.169 73.3021L122.125 74.283L121.872 75.4883L121.416 76.4808L119.064 79.7253L115.125 83.5589L113.538 84.8513L112.515 85.7054L111.784 87.1932L120.823 87.6121L125.709 87.6701L126.577 87.646L131.133 87.705L136.192 89.0796L144.606 90.6389L145.863 91.0143L148.746 92.7013L150.761 97.8496L150.549 99.3325L150.07 100.913L150.439 102.104L151.828 102.879L153.73 103.946L154.368 105.249L154.943 107.427L154.221 110.236L153.501 112.237L155.225 112.33H158.994L160.718 112.318H161.996H164.007H175.858L183.371 112.307L187.117 112.296L190.062 111.942L194.829 109.311L195.713 107.551L196.551 106.461L201.672 104.672L202.848 103.668L203.506 102.301L207.098 98.3932L208.674 97.3756L211.323 95.7117L216.906 90.9388L219.155 88.86L220 88.5533L219.529 90.7792L219.624 92.9258L219.064 96.7952L218.881 103.029L218.168 103.752L217.637 104.885L217.499 107.794L217.511 109.988L217.506 110.691L211.099 120.907L208.754 121.904V122.023L205.611 125.042L200.711 130.162L196.202 131.933L193.459 134.691L192.086 136.463L190.713 140.598L190.645 142.546L190.41 142.595L190.126 146.309L189.341 148.671L186.793 151.035L185.029 152.807L173.856 153.2L169.37 152.96L169.166 153.046L167.934 153.249L165.079 153.475H163.926H162.842L161.266 153.219L161.067 153.049L158.37 153.398L155.34 152.922L155.353 152.939L153.274 153.2L152.883 155.17L154.45 156.548L153.862 158.911L152.883 162.455L151.118 165.016L149.869 166.09L148.945 165.949L144.293 167.565L142.009 169.645L139.132 171.529L137.516 172L135.472 171.459L132.583 170.192L126.862 169.541L123.62 167.785L122.513 166.867L121.33 164.061L118.199 164.648L117.317 165.375L116.278 165.752L114.942 166.148L113.469 166.403L110.501 166.867L109.495 167.007L103.027 167.777L102.145 167.416L102.067 167.363L102.418 163.506L101.556 157.238L99.7579 155.819L99.7772 155.716L97.468 155.076L97.0385 151.402L96.9403 148.551L96.7699 148.281L95.2571 146.302L93.8126 145.148L88.5491 143.541L87.6188 145.305L86.7618 147.022L86.4094 147.521L86.4951 149.348V151.511L86.2803 155.4L85.4194 158.209L83.4839 159.291L79.3952 158.426L78.3195 155.185L77.8563 152.545L74.4301 153.068L72.9539 153.491L72.0805 153.239L66.271 153.672H61.9685L59.0863 152.637L58.8783 152.023L58.5249 150.189L58.0184 147.514L59.6545 146.767L62.4528 144.342L62.9661 143.657L64.2458 142.161L67.1116 139.308L69.4516 138.091L70.7073 137.685L72.0439 137.198L72.2384 136.317L72.1065 136.152L73.3718 135.515L73.5866 133.571L72.9404 131.842L71.8648 131.194L69.9283 129.249L68.8527 126.439L69.2831 123.629L70.3597 121.251L70.5745 118.009L67.7771 117.578L65.8405 116.064L63.2588 112.607L63.0441 108.932L62.1832 105.689L60.5847 104.954L59.7922 102.741L59.5707 102.147L59.8163 98.5567L58.5259 95.9642L57.665 93.1531L55.5137 91.6411L53.7929 89.2634L53.5772 86.8866L54.4381 84.5088L56.1589 82.3478L55.299 79.1052L53.5772 76.9442V72.621L52.8463 69.4752L53.5011 66.3507L55.922 61.6213L57.8865 60.3405L58.0107 59.2706L57.7372 57.8757L57.1257 56.4663L56.1098 55.4718L55.35 55.0743L53.7746 54.8788L51.4914 54.7173L50.098 54.8218L49.1736 55.052L45.8427 56.4169L45.4267 56.7042L44.5408 60.0851L43.0347 64.1925L42.82 67.0017L41.7434 68.947H39.8078L38.7313 66.786L35.7191 67.2174L33.1259 67.7146L32.7985 68.177L32.2775 71.9729L30.1253 74.5664L30.341 78.8895L28.6192 80.6181L26.4679 82.5635L23.2401 83.4283L20.9136 82.8672L16.9057 84.9673L14.9875 86.5025L14.2066 86.9137L12.0524 86.2375L10.3316 83.8607L8.6108 80.8348L6.45858 76.9442L5.81338 75.6469L5.0517 74.9775L4.84754 73.8264L4.22547 72.4421L3.54658 71.704L1.26243 66.5819L0 61.8409L0.649987 57.9241L0.782876 54.5741L2.24466 53.9337L2.97555 53.334L3.72858 52.3666L6.24094 49.6813L11.6643 44.9412H13.4574L14.7708 45.7412L15.7184 46.5944L16.6891 47.5153L16.8114 47.6198L19.0204 47.0646L20.4437 45.9531V43.4428L20.6584 40.8493V37.1753L21.6079 35.3548L24.179 33.4094L26.8397 33.8699L28.2147 34.0247L29.2644 32.8532L31.2019 31.1236L33.3522 28.5301L38.0861 28.9625L39.3206 29.7064L39.8232 29.5565L40.2373 30.0431L44.5408 30.4755L49.9199 30.0431L52.2869 28.7458L53.3134 26.3381L54.0375 25.9299L55.3279 25.0215L56.0588 23.9342L56.2639 22.8701L56.4122 19.2242L55.7843 11.0317L55.4993 9.31365L55.1497 7.44765L55.9442 6.05176L57.4503 4.53978L59.1017 2.05078L59.2153 2.12624L59.328 2.21911L59.3868 1.94533L60.2467 0.432398L61.7528 0L63.905 0.216686L65.4101 1.94533L68.4222 2.16107Z"/>
</mask>
<path d="M68.4222 2.16107L72.511 2.59347L75.3074 4.97123L78.1048 7.13325L78.1867 8.44886L78.307 8.51463L79.0668 9.09505L79.4578 9.5526L78.8405 9.61935L78.7413 10.6099L79.9922 11.4399L81.7034 12.8774L84.4546 15.614L85.014 16.6191L85.4146 17.3553L86.2649 17.9473L89.1249 18.994L90.267 19.3045L90.9873 19.7988L91.5169 20.9151L91.3349 22.6892L90.2179 24.0716L88.0955 23.7949L88.3026 26.9079L88.9449 27.6963L90.8554 28.3928L93.2474 29.7499L95.5488 34.0885L97.1522 39.3848L97.78 41.6068L98.1171 43.6624L100.361 45.5806L103.398 47.734L105.825 54.0315L108.799 57.0138L110.129 57.2363L111.174 57.5062L112.476 58.0885L113.184 58.6709L113.766 59.5357L114.199 60.6656L114.577 61.8419L115.023 62.5451L117.617 66.4861L119.797 67.645L121.582 70.0595L122.044 72.4421L122.169 73.3021L122.125 74.283L121.872 75.4883L121.416 76.4808L119.064 79.7253L115.125 83.5589L113.538 84.8513L112.515 85.7054L111.784 87.1932L120.823 87.6121L125.709 87.6701L126.577 87.646L131.133 87.705L136.192 89.0796L144.606 90.6389L145.863 91.0143L148.746 92.7013L150.761 97.8496L150.549 99.3325L150.07 100.913L150.439 102.104L151.828 102.879L153.73 103.946L154.368 105.249L154.943 107.427L154.221 110.236L153.501 112.237L155.225 112.33H158.994L160.718 112.318H161.996H164.007H175.858L183.371 112.307L187.117 112.296L190.062 111.942L194.829 109.311L195.713 107.551L196.551 106.461L201.672 104.672L202.848 103.668L203.506 102.301L207.098 98.3932L208.674 97.3756L211.323 95.7117L216.906 90.9388L219.155 88.86L220 88.5533L219.529 90.7792L219.624 92.9258L219.064 96.7952L218.881 103.029L218.168 103.752L217.637 104.885L217.499 107.794L217.511 109.988L217.506 110.691L211.099 120.907L208.754 121.904V122.023L205.611 125.042L200.711 130.162L196.202 131.933L193.459 134.691L192.086 136.463L190.713 140.598L190.645 142.546L190.41 142.595L190.126 146.309L189.341 148.671L186.793 151.035L185.029 152.807L173.856 153.2L169.37 152.96L169.166 153.046L167.934 153.249L165.079 153.475H163.926H162.842L161.266 153.219L161.067 153.049L158.37 153.398L155.34 152.922L155.353 152.939L153.274 153.2L152.883 155.17L154.45 156.548L153.862 158.911L152.883 162.455L151.118 165.016L149.869 166.09L148.945 165.949L144.293 167.565L142.009 169.645L139.132 171.529L137.516 172L135.472 171.459L132.583 170.192L126.862 169.541L123.62 167.785L122.513 166.867L121.33 164.061L118.199 164.648L117.317 165.375L116.278 165.752L114.942 166.148L113.469 166.403L110.501 166.867L109.495 167.007L103.027 167.777L102.145 167.416L102.067 167.363L102.418 163.506L101.556 157.238L99.7579 155.819L99.7772 155.716L97.468 155.076L97.0385 151.402L96.9403 148.551L96.7699 148.281L95.2571 146.302L93.8126 145.148L88.5491 143.541L87.6188 145.305L86.7618 147.022L86.4094 147.521L86.4951 149.348V151.511L86.2803 155.4L85.4194 158.209L83.4839 159.291L79.3952 158.426L78.3195 155.185L77.8563 152.545L74.4301 153.068L72.9539 153.491L72.0805 153.239L66.271 153.672H61.9685L59.0863 152.637L58.8783 152.023L58.5249 150.189L58.0184 147.514L59.6545 146.767L62.4528 144.342L62.9661 143.657L64.2458 142.161L67.1116 139.308L69.4516 138.091L70.7073 137.685L72.0439 137.198L72.2384 136.317L72.1065 136.152L73.3718 135.515L73.5866 133.571L72.9404 131.842L71.8648 131.194L69.9283 129.249L68.8527 126.439L69.2831 123.629L70.3597 121.251L70.5745 118.009L67.7771 117.578L65.8405 116.064L63.2588 112.607L63.0441 108.932L62.1832 105.689L60.5847 104.954L59.7922 102.741L59.5707 102.147L59.8163 98.5567L58.5259 95.9642L57.665 93.1531L55.5137 91.6411L53.7929 89.2634L53.5772 86.8866L54.4381 84.5088L56.1589 82.3478L55.299 79.1052L53.5772 76.9442V72.621L52.8463 69.4752L53.5011 66.3507L55.922 61.6213L57.8865 60.3405L58.0107 59.2706L57.7372 57.8757L57.1257 56.4663L56.1098 55.4718L55.35 55.0743L53.7746 54.8788L51.4914 54.7173L50.098 54.8218L49.1736 55.052L45.8427 56.4169L45.4267 56.7042L44.5408 60.0851L43.0347 64.1925L42.82 67.0017L41.7434 68.947H39.8078L38.7313 66.786L35.7191 67.2174L33.1259 67.7146L32.7985 68.177L32.2775 71.9729L30.1253 74.5664L30.341 78.8895L28.6192 80.6181L26.4679 82.5635L23.2401 83.4283L20.9136 82.8672L16.9057 84.9673L14.9875 86.5025L14.2066 86.9137L12.0524 86.2375L10.3316 83.8607L8.6108 80.8348L6.45858 76.9442L5.81338 75.6469L5.0517 74.9775L4.84754 73.8264L4.22547 72.4421L3.54658 71.704L1.26243 66.5819L0 61.8409L0.649987 57.9241L0.782876 54.5741L2.24466 53.9337L2.97555 53.334L3.72858 52.3666L6.24094 49.6813L11.6643 44.9412H13.4574L14.7708 45.7412L15.7184 46.5944L16.6891 47.5153L16.8114 47.6198L19.0204 47.0646L20.4437 45.9531V43.4428L20.6584 40.8493V37.1753L21.6079 35.3548L24.179 33.4094L26.8397 33.8699L28.2147 34.0247L29.2644 32.8532L31.2019 31.1236L33.3522 28.5301L38.0861 28.9625L39.3206 29.7064L39.8232 29.5565L40.2373 30.0431L44.5408 30.4755L49.9199 30.0431L52.2869 28.7458L53.3134 26.3381L54.0375 25.9299L55.3279 25.0215L56.0588 23.9342L56.2639 22.8701L56.4122 19.2242L55.7843 11.0317L55.4993 9.31365L55.1497 7.44765L55.9442 6.05176L57.4503 4.53978L59.1017 2.05078L59.2153 2.12624L59.328 2.21911L59.3868 1.94533L60.2467 0.432398L61.7528 0L63.905 0.216686L65.4101 1.94533L68.4222 2.16107Z" fill="#E9ECF2"/>
<path d="M68.4222 2.16107L72.511 2.59347L75.3074 4.97123L78.1048 7.13325L78.1867 8.44886L78.307 8.51463L79.0668 9.09505L79.4578 9.5526L78.8405 9.61935L78.7413 10.6099L79.9922 11.4399L81.7034 12.8774L84.4546 15.614L85.014 16.6191L85.4146 17.3553L86.2649 17.9473L89.1249 18.994L90.267 19.3045L90.9873 19.7988L91.5169 20.9151L91.3349 22.6892L90.2179 24.0716L88.0955 23.7949L88.3026 26.9079L88.9449 27.6963L90.8554 28.3928L93.2474 29.7499L95.5488 34.0885L97.1522 39.3848L97.78 41.6068L98.1171 43.6624L100.361 45.5806L103.398 47.734L105.825 54.0315L108.799 57.0138L110.129 57.2363L111.174 57.5062L112.476 58.0885L113.184 58.6709L113.766 59.5357L114.199 60.6656L114.577 61.8419L115.023 62.5451L117.617 66.4861L119.797 67.645L121.582 70.0595L122.044 72.4421L122.169 73.3021L122.125 74.283L121.872 75.4883L121.416 76.4808L119.064 79.7253L115.125 83.5589L113.538 84.8513L112.515 85.7054L111.784 87.1932L120.823 87.6121L125.709 87.6701L126.577 87.646L131.133 87.705L136.192 89.0796L144.606 90.6389L145.863 91.0143L148.746 92.7013L150.761 97.8496L150.549 99.3325L150.07 100.913L150.439 102.104L151.828 102.879L153.73 103.946L154.368 105.249L154.943 107.427L154.221 110.236L153.501 112.237L155.225 112.33H158.994L160.718 112.318H161.996H164.007H175.858L183.371 112.307L187.117 112.296L190.062 111.942L194.829 109.311L195.713 107.551L196.551 106.461L201.672 104.672L202.848 103.668L203.506 102.301L207.098 98.3932L208.674 97.3756L211.323 95.7117L216.906 90.9388L219.155 88.86L220 88.5533L219.529 90.7792L219.624 92.9258L219.064 96.7952L218.881 103.029L218.168 103.752L217.637 104.885L217.499 107.794L217.511 109.988L217.506 110.691L211.099 120.907L208.754 121.904V122.023L205.611 125.042L200.711 130.162L196.202 131.933L193.459 134.691L192.086 136.463L190.713 140.598L190.645 142.546L190.41 142.595L190.126 146.309L189.341 148.671L186.793 151.035L185.029 152.807L173.856 153.2L169.37 152.96L169.166 153.046L167.934 153.249L165.079 153.475H163.926H162.842L161.266 153.219L161.067 153.049L158.37 153.398L155.34 152.922L155.353 152.939L153.274 153.2L152.883 155.17L154.45 156.548L153.862 158.911L152.883 162.455L151.118 165.016L149.869 166.09L148.945 165.949L144.293 167.565L142.009 169.645L139.132 171.529L137.516 172L135.472 171.459L132.583 170.192L126.862 169.541L123.62 167.785L122.513 166.867L121.33 164.061L118.199 164.648L117.317 165.375L116.278 165.752L114.942 166.148L113.469 166.403L110.501 166.867L109.495 167.007L103.027 167.777L102.145 167.416L102.067 167.363L102.418 163.506L101.556 157.238L99.7579 155.819L99.7772 155.716L97.468 155.076L97.0385 151.402L96.9403 148.551L96.7699 148.281L95.2571 146.302L93.8126 145.148L88.5491 143.541L87.6188 145.305L86.7618 147.022L86.4094 147.521L86.4951 149.348V151.511L86.2803 155.4L85.4194 158.209L83.4839 159.291L79.3952 158.426L78.3195 155.185L77.8563 152.545L74.4301 153.068L72.9539 153.491L72.0805 153.239L66.271 153.672H61.9685L59.0863 152.637L58.8783 152.023L58.5249 150.189L58.0184 147.514L59.6545 146.767L62.4528 144.342L62.9661 143.657L64.2458 142.161L67.1116 139.308L69.4516 138.091L70.7073 137.685L72.0439 137.198L72.2384 136.317L72.1065 136.152L73.3718 135.515L73.5866 133.571L72.9404 131.842L71.8648 131.194L69.9283 129.249L68.8527 126.439L69.2831 123.629L70.3597 121.251L70.5745 118.009L67.7771 117.578L65.8405 116.064L63.2588 112.607L63.0441 108.932L62.1832 105.689L60.5847 104.954L59.7922 102.741L59.5707 102.147L59.8163 98.5567L58.5259 95.9642L57.665 93.1531L55.5137 91.6411L53.7929 89.2634L53.5772 86.8866L54.4381 84.5088L56.1589 82.3478L55.299 79.1052L53.5772 76.9442V72.621L52.8463 69.4752L53.5011 66.3507L55.922 61.6213L57.8865 60.3405L58.0107 59.2706L57.7372 57.8757L57.1257 56.4663L56.1098 55.4718L55.35 55.0743L53.7746 54.8788L51.4914 54.7173L50.098 54.8218L49.1736 55.052L45.8427 56.4169L45.4267 56.7042L44.5408 60.0851L43.0347 64.1925L42.82 67.0017L41.7434 68.947H39.8078L38.7313 66.786L35.7191 67.2174L33.1259 67.7146L32.7985 68.177L32.2775 71.9729L30.1253 74.5664L30.341 78.8895L28.6192 80.6181L26.4679 82.5635L23.2401 83.4283L20.9136 82.8672L16.9057 84.9673L14.9875 86.5025L14.2066 86.9137L12.0524 86.2375L10.3316 83.8607L8.6108 80.8348L6.45858 76.9442L5.81338 75.6469L5.0517 74.9775L4.84754 73.8264L4.22547 72.4421L3.54658 71.704L1.26243 66.5819L0 61.8409L0.649987 57.9241L0.782876 54.5741L2.24466 53.9337L2.97555 53.334L3.72858 52.3666L6.24094 49.6813L11.6643 44.9412H13.4574L14.7708 45.7412L15.7184 46.5944L16.6891 47.5153L16.8114 47.6198L19.0204 47.0646L20.4437 45.9531V43.4428L20.6584 40.8493V37.1753L21.6079 35.3548L24.179 33.4094L26.8397 33.8699L28.2147 34.0247L29.2644 32.8532L31.2019 31.1236L33.3522 28.5301L38.0861 28.9625L39.3206 29.7064L39.8232 29.5565L40.2373 30.0431L44.5408 30.4755L49.9199 30.0431L52.2869 28.7458L53.3134 26.3381L54.0375 25.9299L55.3279 25.0215L56.0588 23.9342L56.2639 22.8701L56.4122 19.2242L55.7843 11.0317L55.4993 9.31365L55.1497 7.44765L55.9442 6.05176L57.4503 4.53978L59.1017 2.05078L59.2153 2.12624L59.328 2.21911L59.3868 1.94533L60.2467 0.432398L61.7528 0L63.905 0.216686L65.4101 1.94533L68.4222 2.16107Z" stroke="#8F959D" stroke-width="4" mask="url(#path-1-inside-1_8892_6812)"/>
<path d="M68.4222 2.16107L72.511 2.59347L75.3074 4.97123L78.1048 7.13325L78.1867 8.44886L78.307 8.51463L79.0668 9.09505L79.4578 9.5526L78.8405 9.61935L78.7413 10.6099L79.9922 11.4399L81.7034 12.8774L84.4546 15.614L85.014 16.6191L85.4146 17.3553L86.2649 17.9473L89.1249 18.994L90.267 19.3045L90.9873 19.7988L91.5169 20.9151L91.3349 22.6892L90.2179 24.0716L88.0955 23.7949L88.3026 26.9079L88.9449 27.6963L90.8554 28.3928L93.2474 29.7499L95.5488 34.0885L97.1522 39.3848L97.78 41.6068L98.1171 43.6624L100.361 45.5806L103.398 47.734L105.825 54.0315L108.799 57.0138L110.129 57.2363L111.174 57.5062L112.476 58.0885L113.184 58.6709L113.766 59.5357L114.199 60.6656L114.577 61.8419L115.023 62.5451L117.617 66.4861L119.797 67.645L121.582 70.0595L122.044 72.4421L122.169 73.3021L122.125 74.283L121.872 75.4883L121.416 76.4808L119.064 79.7253L115.125 83.5589L113.538 84.8513L112.515 85.7054L111.784 87.1932L120.823 87.6121L125.709 87.6701L126.577 87.646L131.133 87.705L136.192 89.0796L144.606 90.6389L145.863 91.0143L148.746 92.7013L150.761 97.8496L150.549 99.3325L150.07 100.913L150.439 102.104L151.828 102.879L153.73 103.946L154.368 105.249L154.943 107.427L154.221 110.236L153.501 112.237L155.225 112.33H158.994L160.718 112.318H161.996H164.007H175.858L183.371 112.307L187.117 112.296L190.062 111.942L194.829 109.311L195.713 107.551L196.551 106.461L201.672 104.672L202.848 103.668L203.506 102.301L207.098 98.3932L208.674 97.3756L211.323 95.7117L216.906 90.9388L219.155 88.86L220 88.5533L219.529 90.7792L219.624 92.9258L219.064 96.7952L218.881 103.029L218.168 103.752L217.637 104.885L217.499 107.794L217.511 109.988L217.506 110.691L211.099 120.907L208.754 121.904V122.023L205.611 125.042L200.711 130.162L196.202 131.933L193.459 134.691L192.086 136.463L190.713 140.598L190.645 142.546L190.41 142.595L190.126 146.309L189.341 148.671L186.793 151.035L185.029 152.807L173.856 153.2L169.37 152.96L169.166 153.046L167.934 153.249L165.079 153.475H163.926H162.842L161.266 153.219L161.067 153.049L158.37 153.398L155.34 152.922L155.353 152.939L153.274 153.2L152.883 155.17L154.45 156.548L153.862 158.911L152.883 162.455L151.118 165.016L149.869 166.09L148.945 165.949L144.293 167.565L142.009 169.645L139.132 171.529L137.516 172L135.472 171.459L132.583 170.192L126.862 169.541L123.62 167.785L122.513 166.867L121.33 164.061L118.199 164.648L117.317 165.375L116.278 165.752L114.942 166.148L113.469 166.403L110.501 166.867L109.495 167.007L103.027 167.777L102.145 167.416L102.067 167.363L102.418 163.506L101.556 157.238L99.7579 155.819L99.7772 155.716L97.468 155.076L97.0385 151.402L96.9403 148.551L96.7699 148.281L95.2571 146.302L93.8126 145.148L88.5491 143.541L87.6188 145.305L86.7618 147.022L86.4094 147.521L86.4951 149.348V151.511L86.2803 155.4L85.4194 158.209L83.4839 159.291L79.3952 158.426L78.3195 155.185L77.8563 152.545L74.4301 153.068L72.9539 153.491L72.0805 153.239L66.271 153.672H61.9685L59.0863 152.637L58.8783 152.023L58.5249 150.189L58.0184 147.514L59.6545 146.767L62.4528 144.342L62.9661 143.657L64.2458 142.161L67.1116 139.308L69.4516 138.091L70.7073 137.685L72.0439 137.198L72.2384 136.317L72.1065 136.152L73.3718 135.515L73.5866 133.571L72.9404 131.842L71.8648 131.194L69.9283 129.249L68.8527 126.439L69.2831 123.629L70.3597 121.251L70.5745 118.009L67.7771 117.578L65.8405 116.064L63.2588 112.607L63.0441 108.932L62.1832 105.689L60.5847 104.954L59.7922 102.741L59.5707 102.147L59.8163 98.5567L58.5259 95.9642L57.665 93.1531L55.5137 91.6411L53.7929 89.2634L53.5772 86.8866L54.4381 84.5088L56.1589 82.3478L55.299 79.1052L53.5772 76.9442V72.621L52.8463 69.4752L53.5011 66.3507L55.922 61.6213L57.8865 60.3405L58.0107 59.2706L57.7372 57.8757L57.1257 56.4663L56.1098 55.4718L55.35 55.0743L53.7746 54.8788L51.4914 54.7173L50.098 54.8218L49.1736 55.052L45.8427 56.4169L45.4267 56.7042L44.5408 60.0851L43.0347 64.1925L42.82 67.0017L41.7434 68.947H39.8078L38.7313 66.786L35.7191 67.2174L33.1259 67.7146L32.7985 68.177L32.2775 71.9729L30.1253 74.5664L30.341 78.8895L28.6192 80.6181L26.4679 82.5635L23.2401 83.4283L20.9136 82.8672L16.9057 84.9673L14.9875 86.5025L14.2066 86.9137L12.0524 86.2375L10.3316 83.8607L8.6108 80.8348L6.45858 76.9442L5.81338 75.6469L5.0517 74.9775L4.84754 73.8264L4.22547 72.4421L3.54658 71.704L1.26243 66.5819L0 61.8409L0.649987 57.9241L0.782876 54.5741L2.24466 53.9337L2.97555 53.334L3.72858 52.3666L6.24094 49.6813L11.6643 44.9412H13.4574L14.7708 45.7412L15.7184 46.5944L16.6891 47.5153L16.8114 47.6198L19.0204 47.0646L20.4437 45.9531V43.4428L20.6584 40.8493V37.1753L21.6079 35.3548L24.179 33.4094L26.8397 33.8699L28.2147 34.0247L29.2644 32.8532L31.2019 31.1236L33.3522 28.5301L38.0861 28.9625L39.3206 29.7064L39.8232 29.5565L40.2373 30.0431L44.5408 30.4755L49.9199 30.0431L52.2869 28.7458L53.3134 26.3381L54.0375 25.9299L55.3279 25.0215L56.0588 23.9342L56.2639 22.8701L56.4122 19.2242L55.7843 11.0317L55.4993 9.31365L55.1497 7.44765L55.9442 6.05176L57.4503 4.53978L59.1017 2.05078L59.2153 2.12624L59.328 2.21911L59.3868 1.94533L60.2467 0.432398L61.7528 0L63.905 0.216686L65.4101 1.94533L68.4222 2.16107Z" stroke="black" stroke-opacity="0.2" stroke-width="4" mask="url(#path-1-inside-1_8892_6812)"/>
<path d="M68.4222 2.16107L72.511 2.59347L75.3074 4.97123L78.1048 7.13325L78.1867 8.44886L78.307 8.51463L79.0668 9.09505L79.4578 9.5526L78.8405 9.61935L78.7413 10.6099L79.9922 11.4399L81.7034 12.8774L84.4546 15.614L85.014 16.6191L85.4146 17.3553L86.2649 17.9473L89.1249 18.994L90.267 19.3045L90.9873 19.7988L91.5169 20.9151L91.3349 22.6892L90.2179 24.0716L88.0955 23.7949L88.3026 26.9079L88.9449 27.6963L90.8554 28.3928L93.2474 29.7499L95.5488 34.0885L97.1522 39.3848L97.78 41.6068L98.1171 43.6624L100.361 45.5806L103.398 47.734L105.825 54.0315L108.799 57.0138L110.129 57.2363L111.174 57.5062L112.476 58.0885L113.184 58.6709L113.766 59.5357L114.199 60.6656L114.577 61.8419L115.023 62.5451L117.617 66.4861L119.797 67.645L121.582 70.0595L122.044 72.4421L122.169 73.3021L122.125 74.283L121.872 75.4883L121.416 76.4808L119.064 79.7253L115.125 83.5589L113.538 84.8513L112.515 85.7054L111.784 87.1932L120.823 87.6121L125.709 87.6701L126.577 87.646L131.133 87.705L136.192 89.0796L144.606 90.6389L145.863 91.0143L148.746 92.7013L150.761 97.8496L150.549 99.3325L150.07 100.913L150.439 102.104L151.828 102.879L153.73 103.946L154.368 105.249L154.943 107.427L154.221 110.236L153.501 112.237L155.225 112.33H158.994L160.718 112.318H161.996H164.007H175.858L183.371 112.307L187.117 112.296L190.062 111.942L194.829 109.311L195.713 107.551L196.551 106.461L201.672 104.672L202.848 103.668L203.506 102.301L207.098 98.3932L208.674 97.3756L211.323 95.7117L216.906 90.9388L219.155 88.86L220 88.5533L219.529 90.7792L219.624 92.9258L219.064 96.7952L218.881 103.029L218.168 103.752L217.637 104.885L217.499 107.794L217.511 109.988L217.506 110.691L211.099 120.907L208.754 121.904V122.023L205.611 125.042L200.711 130.162L196.202 131.933L193.459 134.691L192.086 136.463L190.713 140.598L190.645 142.546L190.41 142.595L190.126 146.309L189.341 148.671L186.793 151.035L185.029 152.807L173.856 153.2L169.37 152.96L169.166 153.046L167.934 153.249L165.079 153.475H163.926H162.842L161.266 153.219L161.067 153.049L158.37 153.398L155.34 152.922L155.353 152.939L153.274 153.2L152.883 155.17L154.45 156.548L153.862 158.911L152.883 162.455L151.118 165.016L149.869 166.09L148.945 165.949L144.293 167.565L142.009 169.645L139.132 171.529L137.516 172L135.472 171.459L132.583 170.192L126.862 169.541L123.62 167.785L122.513 166.867L121.33 164.061L118.199 164.648L117.317 165.375L116.278 165.752L114.942 166.148L113.469 166.403L110.501 166.867L109.495 167.007L103.027 167.777L102.145 167.416L102.067 167.363L102.418 163.506L101.556 157.238L99.7579 155.819L99.7772 155.716L97.468 155.076L97.0385 151.402L96.9403 148.551L96.7699 148.281L95.2571 146.302L93.8126 145.148L88.5491 143.541L87.6188 145.305L86.7618 147.022L86.4094 147.521L86.4951 149.348V151.511L86.2803 155.4L85.4194 158.209L83.4839 159.291L79.3952 158.426L78.3195 155.185L77.8563 152.545L74.4301 153.068L72.9539 153.491L72.0805 153.239L66.271 153.672H61.9685L59.0863 152.637L58.8783 152.023L58.5249 150.189L58.0184 147.514L59.6545 146.767L62.4528 144.342L62.9661 143.657L64.2458 142.161L67.1116 139.308L69.4516 138.091L70.7073 137.685L72.0439 137.198L72.2384 136.317L72.1065 136.152L73.3718 135.515L73.5866 133.571L72.9404 131.842L71.8648 131.194L69.9283 129.249L68.8527 126.439L69.2831 123.629L70.3597 121.251L70.5745 118.009L67.7771 117.578L65.8405 116.064L63.2588 112.607L63.0441 108.932L62.1832 105.689L60.5847 104.954L59.7922 102.741L59.5707 102.147L59.8163 98.5567L58.5259 95.9642L57.665 93.1531L55.5137 91.6411L53.7929 89.2634L53.5772 86.8866L54.4381 84.5088L56.1589 82.3478L55.299 79.1052L53.5772 76.9442V72.621L52.8463 69.4752L53.5011 66.3507L55.922 61.6213L57.8865 60.3405L58.0107 59.2706L57.7372 57.8757L57.1257 56.4663L56.1098 55.4718L55.35 55.0743L53.7746 54.8788L51.4914 54.7173L50.098 54.8218L49.1736 55.052L45.8427 56.4169L45.4267 56.7042L44.5408 60.0851L43.0347 64.1925L42.82 67.0017L41.7434 68.947H39.8078L38.7313 66.786L35.7191 67.2174L33.1259 67.7146L32.7985 68.177L32.2775 71.9729L30.1253 74.5664L30.341 78.8895L28.6192 80.6181L26.4679 82.5635L23.2401 83.4283L20.9136 82.8672L16.9057 84.9673L14.9875 86.5025L14.2066 86.9137L12.0524 86.2375L10.3316 83.8607L8.6108 80.8348L6.45858 76.9442L5.81338 75.6469L5.0517 74.9775L4.84754 73.8264L4.22547 72.4421L3.54658 71.704L1.26243 66.5819L0 61.8409L0.649987 57.9241L0.782876 54.5741L2.24466 53.9337L2.97555 53.334L3.72858 52.3666L6.24094 49.6813L11.6643 44.9412H13.4574L14.7708 45.7412L15.7184 46.5944L16.6891 47.5153L16.8114 47.6198L19.0204 47.0646L20.4437 45.9531V43.4428L20.6584 40.8493V37.1753L21.6079 35.3548L24.179 33.4094L26.8397 33.8699L28.2147 34.0247L29.2644 32.8532L31.2019 31.1236L33.3522 28.5301L38.0861 28.9625L39.3206 29.7064L39.8232 29.5565L40.2373 30.0431L44.5408 30.4755L49.9199 30.0431L52.2869 28.7458L53.3134 26.3381L54.0375 25.9299L55.3279 25.0215L56.0588 23.9342L56.2639 22.8701L56.4122 19.2242L55.7843 11.0317L55.4993 9.31365L55.1497 7.44765L55.9442 6.05176L57.4503 4.53978L59.1017 2.05078L59.2153 2.12624L59.328 2.21911L59.3868 1.94533L60.2467 0.432398L61.7528 0L63.905 0.216686L65.4101 1.94533L68.4222 2.16107Z" stroke="black" stroke-opacity="0.2" stroke-width="4" mask="url(#path-1-inside-1_8892_6812)"/>
<path d="M68.4222 2.16107L72.511 2.59347L75.3074 4.97123L78.1048 7.13325L78.1867 8.44886L78.307 8.51463L79.0668 9.09505L79.4578 9.5526L78.8405 9.61935L78.7413 10.6099L79.9922 11.4399L81.7034 12.8774L84.4546 15.614L85.014 16.6191L85.4146 17.3553L86.2649 17.9473L89.1249 18.994L90.267 19.3045L90.9873 19.7988L91.5169 20.9151L91.3349 22.6892L90.2179 24.0716L88.0955 23.7949L88.3026 26.9079L88.9449 27.6963L90.8554 28.3928L93.2474 29.7499L95.5488 34.0885L97.1522 39.3848L97.78 41.6068L98.1171 43.6624L100.361 45.5806L103.398 47.734L105.825 54.0315L108.799 57.0138L110.129 57.2363L111.174 57.5062L112.476 58.0885L113.184 58.6709L113.766 59.5357L114.199 60.6656L114.577 61.8419L115.023 62.5451L117.617 66.4861L119.797 67.645L121.582 70.0595L122.044 72.4421L122.169 73.3021L122.125 74.283L121.872 75.4883L121.416 76.4808L119.064 79.7253L115.125 83.5589L113.538 84.8513L112.515 85.7054L111.784 87.1932L120.823 87.6121L125.709 87.6701L126.577 87.646L131.133 87.705L136.192 89.0796L144.606 90.6389L145.863 91.0143L148.746 92.7013L150.761 97.8496L150.549 99.3325L150.07 100.913L150.439 102.104L151.828 102.879L153.73 103.946L154.368 105.249L154.943 107.427L154.221 110.236L153.501 112.237L155.225 112.33H158.994L160.718 112.318H161.996H164.007H175.858L183.371 112.307L187.117 112.296L190.062 111.942L194.829 109.311L195.713 107.551L196.551 106.461L201.672 104.672L202.848 103.668L203.506 102.301L207.098 98.3932L208.674 97.3756L211.323 95.7117L216.906 90.9388L219.155 88.86L220 88.5533L219.529 90.7792L219.624 92.9258L219.064 96.7952L218.881 103.029L218.168 103.752L217.637 104.885L217.499 107.794L217.511 109.988L217.506 110.691L211.099 120.907L208.754 121.904V122.023L205.611 125.042L200.711 130.162L196.202 131.933L193.459 134.691L192.086 136.463L190.713 140.598L190.645 142.546L190.41 142.595L190.126 146.309L189.341 148.671L186.793 151.035L185.029 152.807L173.856 153.2L169.37 152.96L169.166 153.046L167.934 153.249L165.079 153.475H163.926H162.842L161.266 153.219L161.067 153.049L158.37 153.398L155.34 152.922L155.353 152.939L153.274 153.2L152.883 155.17L154.45 156.548L153.862 158.911L152.883 162.455L151.118 165.016L149.869 166.09L148.945 165.949L144.293 167.565L142.009 169.645L139.132 171.529L137.516 172L135.472 171.459L132.583 170.192L126.862 169.541L123.62 167.785L122.513 166.867L121.33 164.061L118.199 164.648L117.317 165.375L116.278 165.752L114.942 166.148L113.469 166.403L110.501 166.867L109.495 167.007L103.027 167.777L102.145 167.416L102.067 167.363L102.418 163.506L101.556 157.238L99.7579 155.819L99.7772 155.716L97.468 155.076L97.0385 151.402L96.9403 148.551L96.7699 148.281L95.2571 146.302L93.8126 145.148L88.5491 143.541L87.6188 145.305L86.7618 147.022L86.4094 147.521L86.4951 149.348V151.511L86.2803 155.4L85.4194 158.209L83.4839 159.291L79.3952 158.426L78.3195 155.185L77.8563 152.545L74.4301 153.068L72.9539 153.491L72.0805 153.239L66.271 153.672H61.9685L59.0863 152.637L58.8783 152.023L58.5249 150.189L58.0184 147.514L59.6545 146.767L62.4528 144.342L62.9661 143.657L64.2458 142.161L67.1116 139.308L69.4516 138.091L70.7073 137.685L72.0439 137.198L72.2384 136.317L72.1065 136.152L73.3718 135.515L73.5866 133.571L72.9404 131.842L71.8648 131.194L69.9283 129.249L68.8527 126.439L69.2831 123.629L70.3597 121.251L70.5745 118.009L67.7771 117.578L65.8405 116.064L63.2588 112.607L63.0441 108.932L62.1832 105.689L60.5847 104.954L59.7922 102.741L59.5707 102.147L59.8163 98.5567L58.5259 95.9642L57.665 93.1531L55.5137 91.6411L53.7929 89.2634L53.5772 86.8866L54.4381 84.5088L56.1589 82.3478L55.299 79.1052L53.5772 76.9442V72.621L52.8463 69.4752L53.5011 66.3507L55.922 61.6213L57.8865 60.3405L58.0107 59.2706L57.7372 57.8757L57.1257 56.4663L56.1098 55.4718L55.35 55.0743L53.7746 54.8788L51.4914 54.7173L50.098 54.8218L49.1736 55.052L45.8427 56.4169L45.4267 56.7042L44.5408 60.0851L43.0347 64.1925L42.82 67.0017L41.7434 68.947H39.8078L38.7313 66.786L35.7191 67.2174L33.1259 67.7146L32.7985 68.177L32.2775 71.9729L30.1253 74.5664L30.341 78.8895L28.6192 80.6181L26.4679 82.5635L23.2401 83.4283L20.9136 82.8672L16.9057 84.9673L14.9875 86.5025L14.2066 86.9137L12.0524 86.2375L10.3316 83.8607L8.6108 80.8348L6.45858 76.9442L5.81338 75.6469L5.0517 74.9775L4.84754 73.8264L4.22547 72.4421L3.54658 71.704L1.26243 66.5819L0 61.8409L0.649987 57.9241L0.782876 54.5741L2.24466 53.9337L2.97555 53.334L3.72858 52.3666L6.24094 49.6813L11.6643 44.9412H13.4574L14.7708 45.7412L15.7184 46.5944L16.6891 47.5153L16.8114 47.6198L19.0204 47.0646L20.4437 45.9531V43.4428L20.6584 40.8493V37.1753L21.6079 35.3548L24.179 33.4094L26.8397 33.8699L28.2147 34.0247L29.2644 32.8532L31.2019 31.1236L33.3522 28.5301L38.0861 28.9625L39.3206 29.7064L39.8232 29.5565L40.2373 30.0431L44.5408 30.4755L49.9199 30.0431L52.2869 28.7458L53.3134 26.3381L54.0375 25.9299L55.3279 25.0215L56.0588 23.9342L56.2639 22.8701L56.4122 19.2242L55.7843 11.0317L55.4993 9.31365L55.1497 7.44765L55.9442 6.05176L57.4503 4.53978L59.1017 2.05078L59.2153 2.12624L59.328 2.21911L59.3868 1.94533L60.2467 0.432398L61.7528 0L63.905 0.216686L65.4101 1.94533L68.4222 2.16107Z" stroke="black" stroke-opacity="0.2" stroke-width="4" mask="url(#path-1-inside-1_8892_6812)"/>
<path d="M68.4222 2.16107L72.511 2.59347L75.3074 4.97123L78.1048 7.13325L78.1867 8.44886L78.307 8.51463L79.0668 9.09505L79.4578 9.5526L78.8405 9.61935L78.7413 10.6099L79.9922 11.4399L81.7034 12.8774L84.4546 15.614L85.014 16.6191L85.4146 17.3553L86.2649 17.9473L89.1249 18.994L90.267 19.3045L90.9873 19.7988L91.5169 20.9151L91.3349 22.6892L90.2179 24.0716L88.0955 23.7949L88.3026 26.9079L88.9449 27.6963L90.8554 28.3928L93.2474 29.7499L95.5488 34.0885L97.1522 39.3848L97.78 41.6068L98.1171 43.6624L100.361 45.5806L103.398 47.734L105.825 54.0315L108.799 57.0138L110.129 57.2363L111.174 57.5062L112.476 58.0885L113.184 58.6709L113.766 59.5357L114.199 60.6656L114.577 61.8419L115.023 62.5451L117.617 66.4861L119.797 67.645L121.582 70.0595L122.044 72.4421L122.169 73.3021L122.125 74.283L121.872 75.4883L121.416 76.4808L119.064 79.7253L115.125 83.5589L113.538 84.8513L112.515 85.7054L111.784 87.1932L120.823 87.6121L125.709 87.6701L126.577 87.646L131.133 87.705L136.192 89.0796L144.606 90.6389L145.863 91.0143L148.746 92.7013L150.761 97.8496L150.549 99.3325L150.07 100.913L150.439 102.104L151.828 102.879L153.73 103.946L154.368 105.249L154.943 107.427L154.221 110.236L153.501 112.237L155.225 112.33H158.994L160.718 112.318H161.996H164.007H175.858L183.371 112.307L187.117 112.296L190.062 111.942L194.829 109.311L195.713 107.551L196.551 106.461L201.672 104.672L202.848 103.668L203.506 102.301L207.098 98.3932L208.674 97.3756L211.323 95.7117L216.906 90.9388L219.155 88.86L220 88.5533L219.529 90.7792L219.624 92.9258L219.064 96.7952L218.881 103.029L218.168 103.752L217.637 104.885L217.499 107.794L217.511 109.988L217.506 110.691L211.099 120.907L208.754 121.904V122.023L205.611 125.042L200.711 130.162L196.202 131.933L193.459 134.691L192.086 136.463L190.713 140.598L190.645 142.546L190.41 142.595L190.126 146.309L189.341 148.671L186.793 151.035L185.029 152.807L173.856 153.2L169.37 152.96L169.166 153.046L167.934 153.249L165.079 153.475H163.926H162.842L161.266 153.219L161.067 153.049L158.37 153.398L155.34 152.922L155.353 152.939L153.274 153.2L152.883 155.17L154.45 156.548L153.862 158.911L152.883 162.455L151.118 165.016L149.869 166.09L148.945 165.949L144.293 167.565L142.009 169.645L139.132 171.529L137.516 172L135.472 171.459L132.583 170.192L126.862 169.541L123.62 167.785L122.513 166.867L121.33 164.061L118.199 164.648L117.317 165.375L116.278 165.752L114.942 166.148L113.469 166.403L110.501 166.867L109.495 167.007L103.027 167.777L102.145 167.416L102.067 167.363L102.418 163.506L101.556 157.238L99.7579 155.819L99.7772 155.716L97.468 155.076L97.0385 151.402L96.9403 148.551L96.7699 148.281L95.2571 146.302L93.8126 145.148L88.5491 143.541L87.6188 145.305L86.7618 147.022L86.4094 147.521L86.4951 149.348V151.511L86.2803 155.4L85.4194 158.209L83.4839 159.291L79.3952 158.426L78.3195 155.185L77.8563 152.545L74.4301 153.068L72.9539 153.491L72.0805 153.239L66.271 153.672H61.9685L59.0863 152.637L58.8783 152.023L58.5249 150.189L58.0184 147.514L59.6545 146.767L62.4528 144.342L62.9661 143.657L64.2458 142.161L67.1116 139.308L69.4516 138.091L70.7073 137.685L72.0439 137.198L72.2384 136.317L72.1065 136.152L73.3718 135.515L73.5866 133.571L72.9404 131.842L71.8648 131.194L69.9283 129.249L68.8527 126.439L69.2831 123.629L70.3597 121.251L70.5745 118.009L67.7771 117.578L65.8405 116.064L63.2588 112.607L63.0441 108.932L62.1832 105.689L60.5847 104.954L59.7922 102.741L59.5707 102.147L59.8163 98.5567L58.5259 95.9642L57.665 93.1531L55.5137 91.6411L53.7929 89.2634L53.5772 86.8866L54.4381 84.5088L56.1589 82.3478L55.299 79.1052L53.5772 76.9442V72.621L52.8463 69.4752L53.5011 66.3507L55.922 61.6213L57.8865 60.3405L58.0107 59.2706L57.7372 57.8757L57.1257 56.4663L56.1098 55.4718L55.35 55.0743L53.7746 54.8788L51.4914 54.7173L50.098 54.8218L49.1736 55.052L45.8427 56.4169L45.4267 56.7042L44.5408 60.0851L43.0347 64.1925L42.82 67.0017L41.7434 68.947H39.8078L38.7313 66.786L35.7191 67.2174L33.1259 67.7146L32.7985 68.177L32.2775 71.9729L30.1253 74.5664L30.341 78.8895L28.6192 80.6181L26.4679 82.5635L23.2401 83.4283L20.9136 82.8672L16.9057 84.9673L14.9875 86.5025L14.2066 86.9137L12.0524 86.2375L10.3316 83.8607L8.6108 80.8348L6.45858 76.9442L5.81338 75.6469L5.0517 74.9775L4.84754 73.8264L4.22547 72.4421L3.54658 71.704L1.26243 66.5819L0 61.8409L0.649987 57.9241L0.782876 54.5741L2.24466 53.9337L2.97555 53.334L3.72858 52.3666L6.24094 49.6813L11.6643 44.9412H13.4574L14.7708 45.7412L15.7184 46.5944L16.6891 47.5153L16.8114 47.6198L19.0204 47.0646L20.4437 45.9531V43.4428L20.6584 40.8493V37.1753L21.6079 35.3548L24.179 33.4094L26.8397 33.8699L28.2147 34.0247L29.2644 32.8532L31.2019 31.1236L33.3522 28.5301L38.0861 28.9625L39.3206 29.7064L39.8232 29.5565L40.2373 30.0431L44.5408 30.4755L49.9199 30.0431L52.2869 28.7458L53.3134 26.3381L54.0375 25.9299L55.3279 25.0215L56.0588 23.9342L56.2639 22.8701L56.4122 19.2242L55.7843 11.0317L55.4993 9.31365L55.1497 7.44765L55.9442 6.05176L57.4503 4.53978L59.1017 2.05078L59.2153 2.12624L59.328 2.21911L59.3868 1.94533L60.2467 0.432398L61.7528 0L63.905 0.216686L65.4101 1.94533L68.4222 2.16107Z" stroke="black" stroke-opacity="0.2" stroke-width="4" mask="url(#path-1-inside-1_8892_6812)"/>
<path d="M68.4222 2.16107L72.511 2.59347L75.3074 4.97123L78.1048 7.13325L78.1867 8.44886L78.307 8.51463L79.0668 9.09505L79.4578 9.5526L78.8405 9.61935L78.7413 10.6099L79.9922 11.4399L81.7034 12.8774L84.4546 15.614L85.014 16.6191L85.4146 17.3553L86.2649 17.9473L89.1249 18.994L90.267 19.3045L90.9873 19.7988L91.5169 20.9151L91.3349 22.6892L90.2179 24.0716L88.0955 23.7949L88.3026 26.9079L88.9449 27.6963L90.8554 28.3928L93.2474 29.7499L95.5488 34.0885L97.1522 39.3848L97.78 41.6068L98.1171 43.6624L100.361 45.5806L103.398 47.734L105.825 54.0315L108.799 57.0138L110.129 57.2363L111.174 57.5062L112.476 58.0885L113.184 58.6709L113.766 59.5357L114.199 60.6656L114.577 61.8419L115.023 62.5451L117.617 66.4861L119.797 67.645L121.582 70.0595L122.044 72.4421L122.169 73.3021L122.125 74.283L121.872 75.4883L121.416 76.4808L119.064 79.7253L115.125 83.5589L113.538 84.8513L112.515 85.7054L111.784 87.1932L120.823 87.6121L125.709 87.6701L126.577 87.646L131.133 87.705L136.192 89.0796L144.606 90.6389L145.863 91.0143L148.746 92.7013L150.761 97.8496L150.549 99.3325L150.07 100.913L150.439 102.104L151.828 102.879L153.73 103.946L154.368 105.249L154.943 107.427L154.221 110.236L153.501 112.237L155.225 112.33H158.994L160.718 112.318H161.996H164.007H175.858L183.371 112.307L187.117 112.296L190.062 111.942L194.829 109.311L195.713 107.551L196.551 106.461L201.672 104.672L202.848 103.668L203.506 102.301L207.098 98.3932L208.674 97.3756L211.323 95.7117L216.906 90.9388L219.155 88.86L220 88.5533L219.529 90.7792L219.624 92.9258L219.064 96.7952L218.881 103.029L218.168 103.752L217.637 104.885L217.499 107.794L217.511 109.988L217.506 110.691L211.099 120.907L208.754 121.904V122.023L205.611 125.042L200.711 130.162L196.202 131.933L193.459 134.691L192.086 136.463L190.713 140.598L190.645 142.546L190.41 142.595L190.126 146.309L189.341 148.671L186.793 151.035L185.029 152.807L173.856 153.2L169.37 152.96L169.166 153.046L167.934 153.249L165.079 153.475H163.926H162.842L161.266 153.219L161.067 153.049L158.37 153.398L155.34 152.922L155.353 152.939L153.274 153.2L152.883 155.17L154.45 156.548L153.862 158.911L152.883 162.455L151.118 165.016L149.869 166.09L148.945 165.949L144.293 167.565L142.009 169.645L139.132 171.529L137.516 172L135.472 171.459L132.583 170.192L126.862 169.541L123.62 167.785L122.513 166.867L121.33 164.061L118.199 164.648L117.317 165.375L116.278 165.752L114.942 166.148L113.469 166.403L110.501 166.867L109.495 167.007L103.027 167.777L102.145 167.416L102.067 167.363L102.418 163.506L101.556 157.238L99.7579 155.819L99.7772 155.716L97.468 155.076L97.0385 151.402L96.9403 148.551L96.7699 148.281L95.2571 146.302L93.8126 145.148L88.5491 143.541L87.6188 145.305L86.7618 147.022L86.4094 147.521L86.4951 149.348V151.511L86.2803 155.4L85.4194 158.209L83.4839 159.291L79.3952 158.426L78.3195 155.185L77.8563 152.545L74.4301 153.068L72.9539 153.491L72.0805 153.239L66.271 153.672H61.9685L59.0863 152.637L58.8783 152.023L58.5249 150.189L58.0184 147.514L59.6545 146.767L62.4528 144.342L62.9661 143.657L64.2458 142.161L67.1116 139.308L69.4516 138.091L70.7073 137.685L72.0439 137.198L72.2384 136.317L72.1065 136.152L73.3718 135.515L73.5866 133.571L72.9404 131.842L71.8648 131.194L69.9283 129.249L68.8527 126.439L69.2831 123.629L70.3597 121.251L70.5745 118.009L67.7771 117.578L65.8405 116.064L63.2588 112.607L63.0441 108.932L62.1832 105.689L60.5847 104.954L59.7922 102.741L59.5707 102.147L59.8163 98.5567L58.5259 95.9642L57.665 93.1531L55.5137 91.6411L53.7929 89.2634L53.5772 86.8866L54.4381 84.5088L56.1589 82.3478L55.299 79.1052L53.5772 76.9442V72.621L52.8463 69.4752L53.5011 66.3507L55.922 61.6213L57.8865 60.3405L58.0107 59.2706L57.7372 57.8757L57.1257 56.4663L56.1098 55.4718L55.35 55.0743L53.7746 54.8788L51.4914 54.7173L50.098 54.8218L49.1736 55.052L45.8427 56.4169L45.4267 56.7042L44.5408 60.0851L43.0347 64.1925L42.82 67.0017L41.7434 68.947H39.8078L38.7313 66.786L35.7191 67.2174L33.1259 67.7146L32.7985 68.177L32.2775 71.9729L30.1253 74.5664L30.341 78.8895L28.6192 80.6181L26.4679 82.5635L23.2401 83.4283L20.9136 82.8672L16.9057 84.9673L14.9875 86.5025L14.2066 86.9137L12.0524 86.2375L10.3316 83.8607L8.6108 80.8348L6.45858 76.9442L5.81338 75.6469L5.0517 74.9775L4.84754 73.8264L4.22547 72.4421L3.54658 71.704L1.26243 66.5819L0 61.8409L0.649987 57.9241L0.782876 54.5741L2.24466 53.9337L2.97555 53.334L3.72858 52.3666L6.24094 49.6813L11.6643 44.9412H13.4574L14.7708 45.7412L15.7184 46.5944L16.6891 47.5153L16.8114 47.6198L19.0204 47.0646L20.4437 45.9531V43.4428L20.6584 40.8493V37.1753L21.6079 35.3548L24.179 33.4094L26.8397 33.8699L28.2147 34.0247L29.2644 32.8532L31.2019 31.1236L33.3522 28.5301L38.0861 28.9625L39.3206 29.7064L39.8232 29.5565L40.2373 30.0431L44.5408 30.4755L49.9199 30.0431L52.2869 28.7458L53.3134 26.3381L54.0375 25.9299L55.3279 25.0215L56.0588 23.9342L56.2639 22.8701L56.4122 19.2242L55.7843 11.0317L55.4993 9.31365L55.1497 7.44765L55.9442 6.05176L57.4503 4.53978L59.1017 2.05078L59.2153 2.12624L59.328 2.21911L59.3868 1.94533L60.2467 0.432398L61.7528 0L63.905 0.216686L65.4101 1.94533L68.4222 2.16107Z" stroke="black" stroke-opacity="0.2" stroke-width="4" mask="url(#path-1-inside-1_8892_6812)"/>
</svg>
