<svg width="18" height="18" viewBox="0 0 18 18" fill="none" xmlns="http://www.w3.org/2000/svg">
<g id="icon">
<path id="Subtract" fill-rule="evenodd" clip-rule="evenodd" d="M17.3333 8.99935C17.3333 13.6017 13.6023 17.3327 8.99996 17.3327C4.39759 17.3327 0.666626 13.6017 0.666626 8.99935C0.666626 4.39698 4.39759 0.666016 8.99996 0.666016C13.6023 0.666016 17.3333 4.39698 17.3333 8.99935ZM12.9225 7.92194C13.248 7.5965 13.248 7.06886 12.9225 6.74343C12.5971 6.41799 12.0695 6.41799 11.744 6.74343L8.16663 10.3208L6.25588 8.41009C5.93044 8.08466 5.40281 8.08466 5.07737 8.41009C4.75193 8.73553 4.75193 9.26317 5.07737 9.5886L7.28274 11.794C7.7709 12.2821 8.56235 12.2821 9.05051 11.794L12.9225 7.92194Z" fill="#43B748"/>
</g>
</svg>
