<svg width="20" height="20" viewBox="0 0 20 20" fill="none" xmlns="http://www.w3.org/2000/svg">
<path d="M7.5 17.5007H4.16667C3.24619 17.5007 2.5 16.7545 2.5 15.834V13.334C2.5 12.4135 3.24619 11.6673 4.16667 11.6673H5.83333C6.75381 11.6673 7.5 12.4135 7.5 13.334V17.5007ZM7.5 17.5007V8.33398C7.5 7.41351 8.24619 6.66732 9.16667 6.66732H10.8333C11.7538 6.66732 12.5 7.41351 12.5 8.33398V17.5007M7.5 17.5007H12.5M12.5 17.5007V5.00065C12.5 4.08018 13.2462 3.33398 14.1667 3.33398H15.8333C16.7538 3.33398 17.5 4.08018 17.5 5.00065V15.834C17.5 16.7545 16.7538 17.5007 15.8333 17.5007H12.5Z" stroke="#B3B8BF" stroke-width="1.67"/>
</svg>
