<svg width="117" height="20" viewBox="0 0 117 20" fill="none" xmlns="http://www.w3.org/2000/svg">
<path d="M12.6832 17L15.7714 17C16.2395 17 16.6883 16.8156 17.0193 16.4874C17.3502 16.1592 17.5361 15.7141 17.5361 15.25L17.5361 4.75C17.5361 4.28587 17.3502 3.84075 17.0193 3.51256C16.6883 3.18438 16.2395 3 15.7714 3L12.6832 3M12.4639 10L2.46387 10M2.46387 10L6.28483 14M2.46387 10L6.28483 6" stroke="#0050F5" stroke-width="2" stroke-linecap="round" stroke-linejoin="round"/>
<path d="M28.776 14.108C27.92 14.108 27.188 13.932 26.58 13.58C25.972 13.228 25.504 12.728 25.176 12.08C24.856 11.424 24.696 10.652 24.696 9.764C24.696 8.876 24.856 8.108 25.176 7.46C25.504 6.812 25.972 6.312 26.58 5.96C27.188 5.608 27.92 5.432 28.776 5.432C29.352 5.432 29.888 5.524 30.384 5.708C30.888 5.884 31.308 6.14 31.644 6.476L31.212 7.472C30.844 7.144 30.464 6.908 30.072 6.764C29.688 6.612 29.268 6.536 28.812 6.536C27.9 6.536 27.204 6.816 26.724 7.376C26.244 7.936 26.004 8.732 26.004 9.764C26.004 10.796 26.244 11.596 26.724 12.164C27.204 12.724 27.9 13.004 28.812 13.004C29.268 13.004 29.688 12.932 30.072 12.788C30.464 12.636 30.844 12.396 31.212 12.068L31.644 13.064C31.308 13.392 30.888 13.648 30.384 13.832C29.888 14.016 29.352 14.108 28.776 14.108ZM35.5875 14.108C34.6275 14.108 33.8715 13.84 33.3195 13.304C32.7675 12.76 32.4915 12.02 32.4915 11.084C32.4915 10.484 32.6115 9.956 32.8515 9.5C33.0995 9.036 33.4395 8.676 33.8715 8.42C34.3035 8.164 34.7995 8.036 35.3595 8.036C36.1675 8.036 36.8035 8.296 37.2675 8.816C37.7315 9.328 37.9635 10.036 37.9635 10.94V11.348H33.6675C33.7555 12.564 34.3995 13.172 35.5995 13.172C35.9355 13.172 36.2635 13.12 36.5835 13.016C36.9115 12.912 37.2195 12.74 37.5075 12.5L37.8675 13.34C37.6035 13.58 37.2635 13.768 36.8475 13.904C36.4315 14.04 36.0115 14.108 35.5875 14.108ZM35.4075 8.888C34.9035 8.888 34.5035 9.044 34.2075 9.356C33.9115 9.668 33.7315 10.084 33.6675 10.604H36.9435C36.9195 10.06 36.7755 9.64 36.5115 9.344C36.2475 9.04 35.8795 8.888 35.4075 8.888ZM39.5848 14V8.144H40.7608V9.188C41.0648 8.492 41.6968 8.104 42.6568 8.024L43.0528 8L43.1368 9.032L42.4048 9.104C41.3408 9.208 40.8088 9.756 40.8088 10.748V14H39.5848ZM44.3614 14V8.144H45.5374V9.188C45.8414 8.492 46.4734 8.104 47.4334 8.024L47.8294 8L47.9134 9.032L47.1814 9.104C46.1174 9.208 45.5854 9.756 45.5854 10.748V14H44.3614ZM50.9513 14.108C50.5433 14.108 50.1793 14.028 49.8593 13.868C49.5393 13.708 49.2833 13.492 49.0913 13.22C48.9073 12.948 48.8153 12.64 48.8153 12.296C48.8153 11.864 48.9233 11.524 49.1393 11.276C49.3633 11.028 49.7273 10.848 50.2313 10.736C50.7433 10.624 51.4313 10.568 52.2953 10.568H52.7033V10.256C52.7033 9.8 52.6073 9.472 52.4153 9.272C52.2233 9.072 51.9073 8.972 51.4673 8.972C51.1313 8.972 50.7953 9.024 50.4593 9.128C50.1233 9.224 49.7793 9.38 49.4273 9.596L49.0553 8.744C49.3593 8.528 49.7393 8.356 50.1953 8.228C50.6513 8.1 51.0873 8.036 51.5033 8.036C52.3033 8.036 52.8953 8.228 53.2793 8.612C53.6633 8.988 53.8553 9.58 53.8553 10.388V14H52.7153V13.028C52.5713 13.364 52.3473 13.628 52.0433 13.82C51.7393 14.012 51.3753 14.108 50.9513 14.108ZM51.1913 13.244C51.6233 13.244 51.9833 13.092 52.2713 12.788C52.5593 12.484 52.7033 12.1 52.7033 11.636V11.312H52.3073C51.7233 11.312 51.2633 11.34 50.9273 11.396C50.5993 11.452 50.3633 11.548 50.2193 11.684C50.0833 11.812 50.0153 11.992 50.0153 12.224C50.0153 12.528 50.1193 12.776 50.3273 12.968C50.5353 13.152 50.8233 13.244 51.1913 13.244ZM55.8247 14V8.144H57.0007V9.188C57.3047 8.492 57.9367 8.104 58.8967 8.024L59.2927 8L59.3767 9.032L58.6447 9.104C57.5807 9.208 57.0487 9.756 57.0487 10.748V14H55.8247ZM66.1056 14.108C65.6256 14.108 65.1776 14.048 64.7616 13.928C64.3456 13.8 63.9976 13.624 63.7176 13.4L64.0656 12.584C64.3616 12.792 64.6856 12.952 65.0376 13.064C65.3976 13.176 65.7576 13.232 66.1176 13.232C66.5416 13.232 66.8616 13.156 67.0776 13.004C67.2936 12.852 67.4016 12.648 67.4016 12.392C67.4016 12.184 67.3296 12.024 67.1856 11.912C67.0416 11.792 66.8256 11.7 66.5376 11.636L65.3976 11.408C64.3896 11.2 63.8856 10.68 63.8856 9.848C63.8856 9.296 64.1056 8.856 64.5456 8.528C64.9856 8.2 65.5616 8.036 66.2736 8.036C66.6816 8.036 67.0696 8.096 67.4376 8.216C67.8136 8.336 68.1256 8.516 68.3736 8.756L68.0256 9.572C67.7856 9.364 67.5096 9.204 67.1976 9.092C66.8856 8.98 66.5776 8.924 66.2736 8.924C65.8576 8.924 65.5416 9.004 65.3256 9.164C65.1096 9.316 65.0016 9.524 65.0016 9.788C65.0016 10.188 65.2656 10.444 65.7936 10.556L66.9336 10.784C67.4536 10.888 67.8456 11.064 68.1096 11.312C68.3816 11.56 68.5176 11.896 68.5176 12.32C68.5176 12.88 68.2976 13.32 67.8576 13.64C67.4176 13.952 66.8336 14.108 66.1056 14.108ZM72.9141 14.108C71.9541 14.108 71.1981 13.84 70.6461 13.304C70.0941 12.76 69.8181 12.02 69.8181 11.084C69.8181 10.484 69.9381 9.956 70.1781 9.5C70.4261 9.036 70.7661 8.676 71.1981 8.42C71.6301 8.164 72.1261 8.036 72.6861 8.036C73.4941 8.036 74.1301 8.296 74.5941 8.816C75.0581 9.328 75.2901 10.036 75.2901 10.94V11.348H70.9941C71.0821 12.564 71.7261 13.172 72.9261 13.172C73.2621 13.172 73.5901 13.12 73.9101 13.016C74.2381 12.912 74.5461 12.74 74.8341 12.5L75.1941 13.34C74.9301 13.58 74.5901 13.768 74.1741 13.904C73.7581 14.04 73.3381 14.108 72.9141 14.108ZM72.7341 8.888C72.2301 8.888 71.8301 9.044 71.5341 9.356C71.2381 9.668 71.0581 10.084 70.9941 10.604H74.2701C74.2461 10.06 74.1021 9.64 73.8381 9.344C73.5741 9.04 73.2061 8.888 72.7341 8.888ZM78.9634 14.108C78.4834 14.108 78.0354 14.048 77.6194 13.928C77.2034 13.8 76.8554 13.624 76.5754 13.4L76.9234 12.584C77.2194 12.792 77.5434 12.952 77.8954 13.064C78.2554 13.176 78.6154 13.232 78.9754 13.232C79.3994 13.232 79.7194 13.156 79.9354 13.004C80.1514 12.852 80.2594 12.648 80.2594 12.392C80.2594 12.184 80.1874 12.024 80.0434 11.912C79.8994 11.792 79.6834 11.7 79.3954 11.636L78.2554 11.408C77.2474 11.2 76.7434 10.68 76.7434 9.848C76.7434 9.296 76.9634 8.856 77.4034 8.528C77.8434 8.2 78.4194 8.036 79.1314 8.036C79.5394 8.036 79.9274 8.096 80.2954 8.216C80.6714 8.336 80.9834 8.516 81.2314 8.756L80.8834 9.572C80.6434 9.364 80.3674 9.204 80.0554 9.092C79.7434 8.98 79.4354 8.924 79.1314 8.924C78.7154 8.924 78.3994 9.004 78.1834 9.164C77.9674 9.316 77.8594 9.524 77.8594 9.788C77.8594 10.188 78.1234 10.444 78.6514 10.556L79.7914 10.784C80.3114 10.888 80.7034 11.064 80.9674 11.312C81.2394 11.56 81.3754 11.896 81.3754 12.32C81.3754 12.88 81.1554 13.32 80.7154 13.64C80.2754 13.952 79.6914 14.108 78.9634 14.108ZM82.9159 6.788V5.528H84.3319V6.788H82.9159ZM83.0239 14V8.144H84.2359V14H83.0239ZM88.7858 14.108C88.1938 14.108 87.6818 13.984 87.2498 13.736C86.8178 13.488 86.4818 13.14 86.2418 12.692C86.0098 12.236 85.8938 11.696 85.8938 11.072C85.8938 10.448 86.0098 9.912 86.2418 9.464C86.4818 9.008 86.8178 8.656 87.2498 8.408C87.6818 8.16 88.1938 8.036 88.7858 8.036C89.3618 8.036 89.8658 8.16 90.2978 8.408C90.7298 8.656 91.0658 9.008 91.3058 9.464C91.5458 9.912 91.6658 10.448 91.6658 11.072C91.6658 11.696 91.5458 12.236 91.3058 12.692C91.0658 13.14 90.7298 13.488 90.2978 13.736C89.8658 13.984 89.3618 14.108 88.7858 14.108ZM88.7858 13.172C89.2818 13.172 89.6818 12.992 89.9858 12.632C90.2898 12.272 90.4418 11.752 90.4418 11.072C90.4418 10.392 90.2898 9.876 89.9858 9.524C89.6818 9.164 89.2818 8.984 88.7858 8.984C88.2818 8.984 87.8778 9.164 87.5738 9.524C87.2698 9.876 87.1178 10.392 87.1178 11.072C87.1178 11.752 87.2698 12.272 87.5738 12.632C87.8778 12.992 88.2818 13.172 88.7858 13.172ZM88.3658 7.364L89.6018 4.94H90.8378L89.2058 7.364H88.3658ZM93.327 14V8.144H94.503V9.116C94.703 8.764 94.975 8.496 95.319 8.312C95.671 8.128 96.063 8.036 96.495 8.036C97.879 8.036 98.571 8.82 98.571 10.388V14H97.359V10.46C97.359 9.956 97.259 9.588 97.059 9.356C96.867 9.124 96.563 9.008 96.147 9.008C95.659 9.008 95.267 9.164 94.971 9.476C94.683 9.78 94.539 10.184 94.539 10.688V14H93.327Z" fill="#0050F5"/>
</svg>
