<svg width="220" height="249" viewBox="0 0 220 249" fill="none" xmlns="http://www.w3.org/2000/svg">
<rect width="220" height="249" fill="white"/>
<path d="M137.286 39.2847L140.999 46.0224L146.921 44.7108L146.181 49.4279V56.6742L152.223 60.3822L151.916 71.7471L152.682 73.1159L157.37 81.0691L159.808 84.1417L169.612 88.6831L178.307 94.6158L189.748 101.006L196.611 105.572L196.154 112.874L193.408 116.069L188.832 116.982L182.368 117.427L181.897 118.079L178.473 125.738L173.383 137.236L169.155 137.977L168.24 142.543L166.866 149.847L169.649 149.408L174.188 151.673L179.679 154.868L183.8 161.716L185.17 168.107L185.629 178.603L182.426 182.712L178.765 186.362L180.594 192.297L179.222 197.774L177.85 200.969L175.452 202.81V203.305L171.845 204.418L158.499 209.811L156.823 211.219L155.56 213.979L155.425 217.019L154.88 219.575L153.847 221.669L152.197 223.699L148.299 227.777L132.465 241.428L125.591 243.951L118.015 244L116.485 234.741L117.523 230.884L116.983 228.888L111.055 224.898L109.783 219.346L110.58 216.488L112.868 213.295L116.987 210.555L117.443 204.622L113.325 202.796L107.833 203.707L105.089 206.904L101.427 210.097L101.457 210.302L100.941 210.479L100.442 215.501L99.522 223.356L98.0022 227.146L91.2515 232.002L91.2044 231.142L89.4184 226.833L87.0015 223.773L81.3056 215.403L75.964 206.4L66.5875 185.833L61.1496 171.951L59.6667 166.846L60.6151 162.621L60.5065 160.117L52.3999 150.039L49.0061 144.576L46.9415 136.192L46.6015 127.763L43.5907 122.057L39.607 119.176L37.1308 111.008L36.5225 105.351L31.7892 100.453L26.0994 96.3094L24 87.2919H24.6472L27.5188 86.6749L29.7062 81.4408L29.1409 78.3663L29.4932 75.0771L31.7871 71.2405L33.9254 69.0994L35.6622 68.4293L47.8898 64.4476L59.8019 60.2841L62.3519 55.5098L62.2904 53.4709L68.6766 36.0487L71.841 29.1783L77.494 24.1567L78.8314 23.0147L81.7685 21.1413L83.5176 20.4856L86.637 18.418L93.6683 8.25644L110.596 5L112.538 5.24315L112.974 7.81927L114.846 13.3863L115.621 14.99L117.468 16.8634L121.841 20.9717L124.948 22.5264L126.722 23.2578L137.286 39.2847Z" fill="#E9ECF2" stroke="#8F959D" stroke-width="2"/>
</svg>
