<svg width="220" height="249" viewBox="0 0 220 249" fill="none" xmlns="http://www.w3.org/2000/svg">
<rect width="220" height="249" fill="white"/>
<path d="M197.837 117.316L192.161 121.381L183.268 124.352L177.932 135.051L169.632 140.398L162.515 143.965L157.181 151.097L150.064 158.824L146.391 160.665L146.097 159.984L143.122 158.649L131.369 162.141L127.688 174.753L130.302 176.897L133.038 178.219L134.989 179.573L140.59 186.856L143.475 190.726L142.32 195.129L142.068 198.949L142.933 203.279L143.308 204.048L142.949 212.313L142.358 224.794L138.207 236.682L135.835 241.438L123.384 245L113.306 242.029H108.564L108.58 242.539L105.005 241.438H96.7047L92.098 243.59L91.2621 242.625H84.254L74.7673 237.275L72.2012 233.064L71.5564 232.968L59.9919 227.542L56.5475 221.344L55.9955 210.065L59.631 203.109L56.8872 189.2L59.7557 185.699L62.1175 183.957L63.4071 182.023L65.1054 178.057L65.1081 175.279L64.174 174.891L65.875 170.116L65.2805 164.767L61.7247 161.202L54.6103 161.796L48.6795 166.549L44.3355 169.741L43.3962 169.68L38.203 169.906L34.5676 170.26L31.768 170.292L29.7247 169.212L29.247 167.544L25.5559 167.741L22 162.982L26.742 156.446L31.4867 148.126L33.2646 138.022V130.891L34.2014 125.446L34.2226 125.443L33.8564 121.974L40.9734 119.003L43.9375 112.465L46.9016 108.304L50.4601 101.768L54.6103 97.6054L52.8298 92.2586L54.0159 84.531L56.4307 79.3439L54.6342 78.1309L54.4856 77.6974H63.5026L75.3616 65.2163L88.9959 53.3284L101.449 42.0364L111.525 26.584L112.404 24.3868L112.714 24.2085L113.898 10.5359L120.42 6.37546L135.588 4.01063L151.844 4.59585L157.181 4L159.282 5.60402L160.163 5.78228H169.037L185.046 9.34945L191.569 15.292L193.347 23.0168L189.162 24.1606L192.272 29.4835L189.197 32.8246L183.268 36.985L175.87 36.3492L175.422 37.3068L172.07 46.7261L174.374 48.8701L179.118 54.8127L180.357 59.0395L182.807 59.3828L184.319 61.5907L187.419 73.239L190.975 86.3134L193.939 98.2012L196.261 109.834L195.369 113.159L197.837 117.316Z" fill="#E9ECF2" stroke="#8F959D" stroke-width="2"/>
</svg>
