<svg width="220" height="249" viewBox="0 0 220 249" fill="none" xmlns="http://www.w3.org/2000/svg">
<rect width="220" height="249" fill="white"/>
<path d="M10.948 80.5572L11.2131 70.7207L6 67.5115V61.2397L6.63795 57.157L9.59615 56.4992L15.5603 52.5208L19.5346 58.6634L20.4517 58.2621L22.6624 58.1577L24.0973 59.0931L24.783 60.8454H27.796H32.5337H35.5396L35.1791 59.4768L38.0966 59.1515L44.7252 57.8253L50.0266 59.1515L57.3179 56.4992L62.6211 58.4884L65.9345 60.4794L68.5852 55.173L71.2377 51.8577L74.3655 53.4225L74.4998 52.5278L77.9387 55.3127L80.342 56.1721L83.2348 61.1407L88.1068 73.4243L90.0684 76.0589L93.8819 76.5168L95.2143 75.5249L96.5114 73.4296L95.0977 67.7732L93.1096 51.1928L99.7382 44.5621L106.846 42L109.44 46.081L109.191 46.417L108.415 48.1869L107.724 52.8815L107.388 56.1243L106.761 58.3133L106.519 59.1479L107.157 62.8187L108.894 67.4018L108.98 67.3647L108.736 73.4862L107.544 80.6456L109.86 89.3115L114.052 98.674L115.298 100.023L116.439 102.553L116.814 104.658L118.212 105.881L119.396 108.252L123.345 115.364L126.503 120.895L129.661 125.239L133.614 126.475L135.048 125.724L138.568 122.918L145.923 119.079L150.192 120.104L156.115 118.524L160.063 114.968L163.223 111.808L162.827 103.906L166.777 99.1656L167.733 92.2272L168.333 91.382L173.092 90.4732L178.62 89.6846L180.596 93.6347H184.148L186.123 90.0789L186.517 84.9441L189.281 77.4363L190.907 71.2565L191.67 70.7314L197.783 68.2364L199.479 67.8156L202.036 67.6246L206.226 67.9199L209.117 68.2771L210.512 69.0038L212.376 70.8215L213.498 73.3978L214 75.9475L213.772 77.9031L210.167 80.2442L205.724 88.8889L204.523 94.6002L205.864 100.35V108.252L209.024 112.202L210.602 118.129L207.442 122.08L205.864 126.426L205.963 127.511L204.284 129.189L199.941 134.326L195.993 138.672L194.413 144.203L191.649 147.363L189.281 149.734L184.543 150.128L180.596 152.896L178.226 154.08L177.084 156.365L175.743 156.225L174.278 158.426L170.33 161.19L166.777 158.426L165.068 155.861L164.354 156.047L162.433 154.475L157.695 154.08L153.746 157.24L149.008 160.794L144.516 164.392L142.987 164.652L142.037 164.721L135.979 170.277L130.847 174.623L126.897 177.389L122.95 182.919L119.396 188.845L116.788 190.28L115.052 190.425L113.078 193.585L109.131 195.166L107.947 201.093L106.722 204.592L106.328 204.767L105.973 205.832L100.445 205.439L93.3376 203.462L89.3898 202.276L81.8883 201.487L78.3328 199.908L74.385 195.956L68.8573 195.562L62.9356 197.537L57.0122 201.487L51.8804 205.043L45.1511 206.626L44.9461 206.398L43.8681 206.544L41.9084 205.825L40.4523 204.617L39.6659 203.294L38.9802 199.571L37.2979 198.412L33.9986 199.164L32.0707 197.995L31.1907 195.744L31.2543 194.422V193.994L33.3236 192.401L34.5076 189.635L35.6916 184.895L34.1135 179.758L37.2714 176.598L40.0352 173.042L39.6394 163.957L38.4572 158.426L34.9016 152.5L30.1639 149.734L26.248 147.773L23.8464 148.153L25.0322 141.832L25.8221 137.88L29.4695 137.238L33.8608 127.287L36.8155 120.658L37.2219 120.094L42.799 119.708L46.7468 118.918L49.1166 116.153L49.5106 109.833L43.5889 105.881L33.7177 100.35L26.2161 95.2155L17.7568 91.2848L15.6539 88.6254L11.6089 81.7419L10.948 80.5572Z" fill="#E9ECF2" stroke="#8F959D" stroke-width="2"/>
</svg>
