<svg width="220" height="249" viewBox="0 0 220 249" fill="none" xmlns="http://www.w3.org/2000/svg">
<g id="Lamb">
<g id="PE-LAM">
<path d="M152.588 54.0224L152.638 54.1095L152.704 54.1849L156.923 59.0015L157.307 59.4403L157.878 59.3217L158.505 59.1914L158.514 59.1897L158.522 59.1879L162.786 58.2273L173.042 61.9642L175.114 66.2669L175.58 67.2349L176.512 66.7006L179.766 64.8357L179.822 64.8036L179.873 64.7646L190.499 56.6973L192.833 62.6175L192.907 62.8049L193.048 62.9491L195.296 65.2528L195.673 65.6384L196.202 65.5362L196.823 65.4163L209.949 71.5782L210.921 73.6815L205.918 97.2884L203.668 103.109L200.36 107.822H196.569L191.396 107.219L191.136 107.188L190.894 107.289L183.91 110.214L183.843 110.242L183.781 110.279L179.893 112.617L179.832 112.654L179.777 112.698L176.185 115.623L176.056 115.728L175.968 115.869L173.434 119.935L173.337 120.092L173.302 120.273L172.671 123.52L172.641 123.675L172.66 123.832L175.065 143.441L175.103 143.746L175.305 143.978L195.776 167.382L196.016 167.656L196.377 167.712L208.485 169.567L217.513 171.701L218.965 174.349L218.303 179.309L205.892 191.372L196.237 195.836L195.724 196.073L195.663 196.635L194.793 204.63L194.78 204.75L194.796 204.869L195.365 209.166L194.262 213.288L191.928 214.126L187.351 210.467L187.176 210.328L186.959 210.276L171.94 206.673L171.58 206.586L171.25 206.755L167.805 208.524L167.7 208.578L167.61 208.655L161.467 213.924L161.439 213.948L161.413 213.974L140.115 235.153L140.096 235.173L140.077 235.194L137.666 237.876L137.553 236.008L137.551 235.974L137.547 235.94L136.87 230.691L136.841 230.468L136.719 230.279L134.311 226.532L134.273 226.473L134.228 226.42L121.004 211.042L120.917 210.939L120.805 210.864L117.348 208.536L117.325 208.521L117.301 208.507L111.82 205.245L103.573 197.044L101.574 194.343L99.1506 185.915L99.1352 185.862L99.1139 185.81L96.4949 179.465L96.4048 179.246L96.2265 179.091L75.4812 161.059L75.407 160.995L75.3216 160.946L71.3058 158.649L71.2506 158.618L71.1918 158.593L63.6466 155.47L44.7619 146.872L24.1934 135.967L12.8514 129.082L8.32881 124.324L8.2677 124.26L8.19624 124.207L4.60445 121.568L4.56623 121.54L4.52553 121.515L1.88899 119.938L2.10583 119.797L2.25115 119.703L2.35619 119.565L6.28648 114.406L6.29748 114.391L6.30795 114.376L14.2505 103.125L14.2611 103.11L14.2711 103.095L19.584 94.9495L19.6694 94.8186L19.7107 94.6678L21.2421 89.0876L24.8063 82.3896L33.198 72.1568L39.6985 65.1236L43.0373 62.0752L45.6589 60.3061L50.905 58.1731L64.6267 54.0972L64.8434 54.0329L65.0113 53.8816L67.7798 51.3877L76.1348 44.9531L83.1803 39.7941L83.2798 39.7213L83.3586 39.6265L92.762 28.3136L92.8147 28.2502L92.8563 28.179L95.878 23.0094L95.9915 22.8152L96.0109 22.5911L96.9958 11.2306L99.4964 7.71227L99.7032 7.42123L99.6789 7.06501L99.4832 4.19088L100.599 2.36279L102.628 3.56282L106.174 6.10199L123.041 19.0726L130.254 31.9284L133.182 40.2053L133.329 40.6186L133.732 40.7911L139.964 43.4582L140.016 43.4803L140.07 43.4965L145.282 45.0627L149 47.7481L152.588 54.0224Z" fill="#E9ECF2"/>
<path d="M152.588 54.0224L152.638 54.1095L152.704 54.1849L156.923 59.0015L157.307 59.4403L157.878 59.3217L158.505 59.1914L158.514 59.1897L158.522 59.1879L162.786 58.2273L173.042 61.9642L175.114 66.2669L175.58 67.2349L176.512 66.7006L179.766 64.8357L179.822 64.8036L179.873 64.7646L190.499 56.6973L192.833 62.6175L192.907 62.8049L193.048 62.9491L195.296 65.2528L195.673 65.6384L196.202 65.5362L196.823 65.4163L209.949 71.5782L210.921 73.6815L205.918 97.2884L203.668 103.109L200.36 107.822H196.569L191.396 107.219L191.136 107.188L190.894 107.289L183.91 110.214L183.843 110.242L183.781 110.279L179.893 112.617L179.832 112.654L179.777 112.698L176.185 115.623L176.056 115.728L175.968 115.869L173.434 119.935L173.337 120.092L173.302 120.273L172.671 123.52L172.641 123.675L172.66 123.832L175.065 143.441L175.103 143.746L175.305 143.978L195.776 167.382L196.016 167.656L196.377 167.712L208.485 169.567L217.513 171.701L218.965 174.349L218.303 179.309L205.892 191.372L196.237 195.836L195.724 196.073L195.663 196.635L194.793 204.63L194.78 204.75L194.796 204.869L195.365 209.166L194.262 213.288L191.928 214.126L187.351 210.467L187.176 210.328L186.959 210.276L171.94 206.673L171.58 206.586L171.25 206.755L167.805 208.524L167.7 208.578L167.61 208.655L161.467 213.924L161.439 213.948L161.413 213.974L140.115 235.153L140.096 235.173L140.077 235.194L137.666 237.876L137.553 236.008L137.551 235.974L137.547 235.94L136.87 230.691L136.841 230.468L136.719 230.279L134.311 226.532L134.273 226.473L134.228 226.42L121.004 211.042L120.917 210.939L120.805 210.864L117.348 208.536L117.325 208.521L117.301 208.507L111.82 205.245L103.573 197.044L101.574 194.343L99.1506 185.915L99.1352 185.862L99.1139 185.81L96.4949 179.465L96.4048 179.246L96.2265 179.091L75.4812 161.059L75.407 160.995L75.3216 160.946L71.3058 158.649L71.2506 158.618L71.1918 158.593L63.6466 155.47L44.7619 146.872L24.1934 135.967L12.8514 129.082L8.32881 124.324L8.2677 124.26L8.19624 124.207L4.60445 121.568L4.56623 121.54L4.52553 121.515L1.88899 119.938L2.10583 119.797L2.25115 119.703L2.35619 119.565L6.28648 114.406L6.29748 114.391L6.30795 114.376L14.2505 103.125L14.2611 103.11L14.2711 103.095L19.584 94.9495L19.6694 94.8186L19.7107 94.6678L21.2421 89.0876L24.8063 82.3896L33.198 72.1568L39.6985 65.1236L43.0373 62.0752L45.6589 60.3061L50.905 58.1731L64.6267 54.0972L64.8434 54.0329L65.0113 53.8816L67.7798 51.3877L76.1348 44.9531L83.1803 39.7941L83.2798 39.7213L83.3586 39.6265L92.762 28.3136L92.8147 28.2502L92.8563 28.179L95.878 23.0094L95.9915 22.8152L96.0109 22.5911L96.9958 11.2306L99.4964 7.71227L99.7032 7.42123L99.6789 7.06501L99.4832 4.19088L100.599 2.36279L102.628 3.56282L106.174 6.10199L123.041 19.0726L130.254 31.9284L133.182 40.2053L133.329 40.6186L133.732 40.7911L139.964 43.4582L140.016 43.4803L140.07 43.4965L145.282 45.0627L149 47.7481L152.588 54.0224Z" stroke="#8F959D" stroke-width="2"/>
<path d="M152.588 54.0224L152.638 54.1095L152.704 54.1849L156.923 59.0015L157.307 59.4403L157.878 59.3217L158.505 59.1914L158.514 59.1897L158.522 59.1879L162.786 58.2273L173.042 61.9642L175.114 66.2669L175.58 67.2349L176.512 66.7006L179.766 64.8357L179.822 64.8036L179.873 64.7646L190.499 56.6973L192.833 62.6175L192.907 62.8049L193.048 62.9491L195.296 65.2528L195.673 65.6384L196.202 65.5362L196.823 65.4163L209.949 71.5782L210.921 73.6815L205.918 97.2884L203.668 103.109L200.36 107.822H196.569L191.396 107.219L191.136 107.188L190.894 107.289L183.91 110.214L183.843 110.242L183.781 110.279L179.893 112.617L179.832 112.654L179.777 112.698L176.185 115.623L176.056 115.728L175.968 115.869L173.434 119.935L173.337 120.092L173.302 120.273L172.671 123.52L172.641 123.675L172.66 123.832L175.065 143.441L175.103 143.746L175.305 143.978L195.776 167.382L196.016 167.656L196.377 167.712L208.485 169.567L217.513 171.701L218.965 174.349L218.303 179.309L205.892 191.372L196.237 195.836L195.724 196.073L195.663 196.635L194.793 204.63L194.78 204.75L194.796 204.869L195.365 209.166L194.262 213.288L191.928 214.126L187.351 210.467L187.176 210.328L186.959 210.276L171.94 206.673L171.58 206.586L171.25 206.755L167.805 208.524L167.7 208.578L167.61 208.655L161.467 213.924L161.439 213.948L161.413 213.974L140.115 235.153L140.096 235.173L140.077 235.194L137.666 237.876L137.553 236.008L137.551 235.974L137.547 235.94L136.87 230.691L136.841 230.468L136.719 230.279L134.311 226.532L134.273 226.473L134.228 226.42L121.004 211.042L120.917 210.939L120.805 210.864L117.348 208.536L117.325 208.521L117.301 208.507L111.82 205.245L103.573 197.044L101.574 194.343L99.1506 185.915L99.1352 185.862L99.1139 185.81L96.4949 179.465L96.4048 179.246L96.2265 179.091L75.4812 161.059L75.407 160.995L75.3216 160.946L71.3058 158.649L71.2506 158.618L71.1918 158.593L63.6466 155.47L44.7619 146.872L24.1934 135.967L12.8514 129.082L8.32881 124.324L8.2677 124.26L8.19624 124.207L4.60445 121.568L4.56623 121.54L4.52553 121.515L1.88899 119.938L2.10583 119.797L2.25115 119.703L2.35619 119.565L6.28648 114.406L6.29748 114.391L6.30795 114.376L14.2505 103.125L14.2611 103.11L14.2711 103.095L19.584 94.9495L19.6694 94.8186L19.7107 94.6678L21.2421 89.0876L24.8063 82.3896L33.198 72.1568L39.6985 65.1236L43.0373 62.0752L45.6589 60.3061L50.905 58.1731L64.6267 54.0972L64.8434 54.0329L65.0113 53.8816L67.7798 51.3877L76.1348 44.9531L83.1803 39.7941L83.2798 39.7213L83.3586 39.6265L92.762 28.3136L92.8147 28.2502L92.8563 28.179L95.878 23.0094L95.9915 22.8152L96.0109 22.5911L96.9958 11.2306L99.4964 7.71227L99.7032 7.42123L99.6789 7.06501L99.4832 4.19088L100.599 2.36279L102.628 3.56282L106.174 6.10199L123.041 19.0726L130.254 31.9284L133.182 40.2053L133.329 40.6186L133.732 40.7911L139.964 43.4582L140.016 43.4803L140.07 43.4965L145.282 45.0627L149 47.7481L152.588 54.0224Z" stroke="black" stroke-opacity="0.2" stroke-width="2"/>
<path d="M152.588 54.0224L152.638 54.1095L152.704 54.1849L156.923 59.0015L157.307 59.4403L157.878 59.3217L158.505 59.1914L158.514 59.1897L158.522 59.1879L162.786 58.2273L173.042 61.9642L175.114 66.2669L175.58 67.2349L176.512 66.7006L179.766 64.8357L179.822 64.8036L179.873 64.7646L190.499 56.6973L192.833 62.6175L192.907 62.8049L193.048 62.9491L195.296 65.2528L195.673 65.6384L196.202 65.5362L196.823 65.4163L209.949 71.5782L210.921 73.6815L205.918 97.2884L203.668 103.109L200.36 107.822H196.569L191.396 107.219L191.136 107.188L190.894 107.289L183.91 110.214L183.843 110.242L183.781 110.279L179.893 112.617L179.832 112.654L179.777 112.698L176.185 115.623L176.056 115.728L175.968 115.869L173.434 119.935L173.337 120.092L173.302 120.273L172.671 123.52L172.641 123.675L172.66 123.832L175.065 143.441L175.103 143.746L175.305 143.978L195.776 167.382L196.016 167.656L196.377 167.712L208.485 169.567L217.513 171.701L218.965 174.349L218.303 179.309L205.892 191.372L196.237 195.836L195.724 196.073L195.663 196.635L194.793 204.63L194.78 204.75L194.796 204.869L195.365 209.166L194.262 213.288L191.928 214.126L187.351 210.467L187.176 210.328L186.959 210.276L171.94 206.673L171.58 206.586L171.25 206.755L167.805 208.524L167.7 208.578L167.61 208.655L161.467 213.924L161.439 213.948L161.413 213.974L140.115 235.153L140.096 235.173L140.077 235.194L137.666 237.876L137.553 236.008L137.551 235.974L137.547 235.94L136.87 230.691L136.841 230.468L136.719 230.279L134.311 226.532L134.273 226.473L134.228 226.42L121.004 211.042L120.917 210.939L120.805 210.864L117.348 208.536L117.325 208.521L117.301 208.507L111.82 205.245L103.573 197.044L101.574 194.343L99.1506 185.915L99.1352 185.862L99.1139 185.81L96.4949 179.465L96.4048 179.246L96.2265 179.091L75.4812 161.059L75.407 160.995L75.3216 160.946L71.3058 158.649L71.2506 158.618L71.1918 158.593L63.6466 155.47L44.7619 146.872L24.1934 135.967L12.8514 129.082L8.32881 124.324L8.2677 124.26L8.19624 124.207L4.60445 121.568L4.56623 121.54L4.52553 121.515L1.88899 119.938L2.10583 119.797L2.25115 119.703L2.35619 119.565L6.28648 114.406L6.29748 114.391L6.30795 114.376L14.2505 103.125L14.2611 103.11L14.2711 103.095L19.584 94.9495L19.6694 94.8186L19.7107 94.6678L21.2421 89.0876L24.8063 82.3896L33.198 72.1568L39.6985 65.1236L43.0373 62.0752L45.6589 60.3061L50.905 58.1731L64.6267 54.0972L64.8434 54.0329L65.0113 53.8816L67.7798 51.3877L76.1348 44.9531L83.1803 39.7941L83.2798 39.7213L83.3586 39.6265L92.762 28.3136L92.8147 28.2502L92.8563 28.179L95.878 23.0094L95.9915 22.8152L96.0109 22.5911L96.9958 11.2306L99.4964 7.71227L99.7032 7.42123L99.6789 7.06501L99.4832 4.19088L100.599 2.36279L102.628 3.56282L106.174 6.10199L123.041 19.0726L130.254 31.9284L133.182 40.2053L133.329 40.6186L133.732 40.7911L139.964 43.4582L140.016 43.4803L140.07 43.4965L145.282 45.0627L149 47.7481L152.588 54.0224Z" stroke="black" stroke-opacity="0.2" stroke-width="2"/>
<path d="M152.588 54.0224L152.638 54.1095L152.704 54.1849L156.923 59.0015L157.307 59.4403L157.878 59.3217L158.505 59.1914L158.514 59.1897L158.522 59.1879L162.786 58.2273L173.042 61.9642L175.114 66.2669L175.58 67.2349L176.512 66.7006L179.766 64.8357L179.822 64.8036L179.873 64.7646L190.499 56.6973L192.833 62.6175L192.907 62.8049L193.048 62.9491L195.296 65.2528L195.673 65.6384L196.202 65.5362L196.823 65.4163L209.949 71.5782L210.921 73.6815L205.918 97.2884L203.668 103.109L200.36 107.822H196.569L191.396 107.219L191.136 107.188L190.894 107.289L183.91 110.214L183.843 110.242L183.781 110.279L179.893 112.617L179.832 112.654L179.777 112.698L176.185 115.623L176.056 115.728L175.968 115.869L173.434 119.935L173.337 120.092L173.302 120.273L172.671 123.52L172.641 123.675L172.66 123.832L175.065 143.441L175.103 143.746L175.305 143.978L195.776 167.382L196.016 167.656L196.377 167.712L208.485 169.567L217.513 171.701L218.965 174.349L218.303 179.309L205.892 191.372L196.237 195.836L195.724 196.073L195.663 196.635L194.793 204.63L194.78 204.75L194.796 204.869L195.365 209.166L194.262 213.288L191.928 214.126L187.351 210.467L187.176 210.328L186.959 210.276L171.94 206.673L171.58 206.586L171.25 206.755L167.805 208.524L167.7 208.578L167.61 208.655L161.467 213.924L161.439 213.948L161.413 213.974L140.115 235.153L140.096 235.173L140.077 235.194L137.666 237.876L137.553 236.008L137.551 235.974L137.547 235.94L136.87 230.691L136.841 230.468L136.719 230.279L134.311 226.532L134.273 226.473L134.228 226.42L121.004 211.042L120.917 210.939L120.805 210.864L117.348 208.536L117.325 208.521L117.301 208.507L111.82 205.245L103.573 197.044L101.574 194.343L99.1506 185.915L99.1352 185.862L99.1139 185.81L96.4949 179.465L96.4048 179.246L96.2265 179.091L75.4812 161.059L75.407 160.995L75.3216 160.946L71.3058 158.649L71.2506 158.618L71.1918 158.593L63.6466 155.47L44.7619 146.872L24.1934 135.967L12.8514 129.082L8.32881 124.324L8.2677 124.26L8.19624 124.207L4.60445 121.568L4.56623 121.54L4.52553 121.515L1.88899 119.938L2.10583 119.797L2.25115 119.703L2.35619 119.565L6.28648 114.406L6.29748 114.391L6.30795 114.376L14.2505 103.125L14.2611 103.11L14.2711 103.095L19.584 94.9495L19.6694 94.8186L19.7107 94.6678L21.2421 89.0876L24.8063 82.3896L33.198 72.1568L39.6985 65.1236L43.0373 62.0752L45.6589 60.3061L50.905 58.1731L64.6267 54.0972L64.8434 54.0329L65.0113 53.8816L67.7798 51.3877L76.1348 44.9531L83.1803 39.7941L83.2798 39.7213L83.3586 39.6265L92.762 28.3136L92.8147 28.2502L92.8563 28.179L95.878 23.0094L95.9915 22.8152L96.0109 22.5911L96.9958 11.2306L99.4964 7.71227L99.7032 7.42123L99.6789 7.06501L99.4832 4.19088L100.599 2.36279L102.628 3.56282L106.174 6.10199L123.041 19.0726L130.254 31.9284L133.182 40.2053L133.329 40.6186L133.732 40.7911L139.964 43.4582L140.016 43.4803L140.07 43.4965L145.282 45.0627L149 47.7481L152.588 54.0224Z" stroke="black" stroke-opacity="0.2" stroke-width="2"/>
<path d="M152.588 54.0224L152.638 54.1095L152.704 54.1849L156.923 59.0015L157.307 59.4403L157.878 59.3217L158.505 59.1914L158.514 59.1897L158.522 59.1879L162.786 58.2273L173.042 61.9642L175.114 66.2669L175.58 67.2349L176.512 66.7006L179.766 64.8357L179.822 64.8036L179.873 64.7646L190.499 56.6973L192.833 62.6175L192.907 62.8049L193.048 62.9491L195.296 65.2528L195.673 65.6384L196.202 65.5362L196.823 65.4163L209.949 71.5782L210.921 73.6815L205.918 97.2884L203.668 103.109L200.36 107.822H196.569L191.396 107.219L191.136 107.188L190.894 107.289L183.91 110.214L183.843 110.242L183.781 110.279L179.893 112.617L179.832 112.654L179.777 112.698L176.185 115.623L176.056 115.728L175.968 115.869L173.434 119.935L173.337 120.092L173.302 120.273L172.671 123.52L172.641 123.675L172.66 123.832L175.065 143.441L175.103 143.746L175.305 143.978L195.776 167.382L196.016 167.656L196.377 167.712L208.485 169.567L217.513 171.701L218.965 174.349L218.303 179.309L205.892 191.372L196.237 195.836L195.724 196.073L195.663 196.635L194.793 204.63L194.78 204.75L194.796 204.869L195.365 209.166L194.262 213.288L191.928 214.126L187.351 210.467L187.176 210.328L186.959 210.276L171.94 206.673L171.58 206.586L171.25 206.755L167.805 208.524L167.7 208.578L167.61 208.655L161.467 213.924L161.439 213.948L161.413 213.974L140.115 235.153L140.096 235.173L140.077 235.194L137.666 237.876L137.553 236.008L137.551 235.974L137.547 235.94L136.87 230.691L136.841 230.468L136.719 230.279L134.311 226.532L134.273 226.473L134.228 226.42L121.004 211.042L120.917 210.939L120.805 210.864L117.348 208.536L117.325 208.521L117.301 208.507L111.82 205.245L103.573 197.044L101.574 194.343L99.1506 185.915L99.1352 185.862L99.1139 185.81L96.4949 179.465L96.4048 179.246L96.2265 179.091L75.4812 161.059L75.407 160.995L75.3216 160.946L71.3058 158.649L71.2506 158.618L71.1918 158.593L63.6466 155.47L44.7619 146.872L24.1934 135.967L12.8514 129.082L8.32881 124.324L8.2677 124.26L8.19624 124.207L4.60445 121.568L4.56623 121.54L4.52553 121.515L1.88899 119.938L2.10583 119.797L2.25115 119.703L2.35619 119.565L6.28648 114.406L6.29748 114.391L6.30795 114.376L14.2505 103.125L14.2611 103.11L14.2711 103.095L19.584 94.9495L19.6694 94.8186L19.7107 94.6678L21.2421 89.0876L24.8063 82.3896L33.198 72.1568L39.6985 65.1236L43.0373 62.0752L45.6589 60.3061L50.905 58.1731L64.6267 54.0972L64.8434 54.0329L65.0113 53.8816L67.7798 51.3877L76.1348 44.9531L83.1803 39.7941L83.2798 39.7213L83.3586 39.6265L92.762 28.3136L92.8147 28.2502L92.8563 28.179L95.878 23.0094L95.9915 22.8152L96.0109 22.5911L96.9958 11.2306L99.4964 7.71227L99.7032 7.42123L99.6789 7.06501L99.4832 4.19088L100.599 2.36279L102.628 3.56282L106.174 6.10199L123.041 19.0726L130.254 31.9284L133.182 40.2053L133.329 40.6186L133.732 40.7911L139.964 43.4582L140.016 43.4803L140.07 43.4965L145.282 45.0627L149 47.7481L152.588 54.0224Z" stroke="black" stroke-opacity="0.2" stroke-width="2"/>
<path d="M152.588 54.0224L152.638 54.1095L152.704 54.1849L156.923 59.0015L157.307 59.4403L157.878 59.3217L158.505 59.1914L158.514 59.1897L158.522 59.1879L162.786 58.2273L173.042 61.9642L175.114 66.2669L175.58 67.2349L176.512 66.7006L179.766 64.8357L179.822 64.8036L179.873 64.7646L190.499 56.6973L192.833 62.6175L192.907 62.8049L193.048 62.9491L195.296 65.2528L195.673 65.6384L196.202 65.5362L196.823 65.4163L209.949 71.5782L210.921 73.6815L205.918 97.2884L203.668 103.109L200.36 107.822H196.569L191.396 107.219L191.136 107.188L190.894 107.289L183.91 110.214L183.843 110.242L183.781 110.279L179.893 112.617L179.832 112.654L179.777 112.698L176.185 115.623L176.056 115.728L175.968 115.869L173.434 119.935L173.337 120.092L173.302 120.273L172.671 123.52L172.641 123.675L172.66 123.832L175.065 143.441L175.103 143.746L175.305 143.978L195.776 167.382L196.016 167.656L196.377 167.712L208.485 169.567L217.513 171.701L218.965 174.349L218.303 179.309L205.892 191.372L196.237 195.836L195.724 196.073L195.663 196.635L194.793 204.63L194.78 204.75L194.796 204.869L195.365 209.166L194.262 213.288L191.928 214.126L187.351 210.467L187.176 210.328L186.959 210.276L171.94 206.673L171.58 206.586L171.25 206.755L167.805 208.524L167.7 208.578L167.61 208.655L161.467 213.924L161.439 213.948L161.413 213.974L140.115 235.153L140.096 235.173L140.077 235.194L137.666 237.876L137.553 236.008L137.551 235.974L137.547 235.94L136.87 230.691L136.841 230.468L136.719 230.279L134.311 226.532L134.273 226.473L134.228 226.42L121.004 211.042L120.917 210.939L120.805 210.864L117.348 208.536L117.325 208.521L117.301 208.507L111.82 205.245L103.573 197.044L101.574 194.343L99.1506 185.915L99.1352 185.862L99.1139 185.81L96.4949 179.465L96.4048 179.246L96.2265 179.091L75.4812 161.059L75.407 160.995L75.3216 160.946L71.3058 158.649L71.2506 158.618L71.1918 158.593L63.6466 155.47L44.7619 146.872L24.1934 135.967L12.8514 129.082L8.32881 124.324L8.2677 124.26L8.19624 124.207L4.60445 121.568L4.56623 121.54L4.52553 121.515L1.88899 119.938L2.10583 119.797L2.25115 119.703L2.35619 119.565L6.28648 114.406L6.29748 114.391L6.30795 114.376L14.2505 103.125L14.2611 103.11L14.2711 103.095L19.584 94.9495L19.6694 94.8186L19.7107 94.6678L21.2421 89.0876L24.8063 82.3896L33.198 72.1568L39.6985 65.1236L43.0373 62.0752L45.6589 60.3061L50.905 58.1731L64.6267 54.0972L64.8434 54.0329L65.0113 53.8816L67.7798 51.3877L76.1348 44.9531L83.1803 39.7941L83.2798 39.7213L83.3586 39.6265L92.762 28.3136L92.8147 28.2502L92.8563 28.179L95.878 23.0094L95.9915 22.8152L96.0109 22.5911L96.9958 11.2306L99.4964 7.71227L99.7032 7.42123L99.6789 7.06501L99.4832 4.19088L100.599 2.36279L102.628 3.56282L106.174 6.10199L123.041 19.0726L130.254 31.9284L133.182 40.2053L133.329 40.6186L133.732 40.7911L139.964 43.4582L140.016 43.4803L140.07 43.4965L145.282 45.0627L149 47.7481L152.588 54.0224Z" stroke="black" stroke-opacity="0.2" stroke-width="2"/>
</g>
</g>
</svg>
