<svg width="220" height="249" viewBox="0 0 220 249" fill="none" xmlns="http://www.w3.org/2000/svg">
<rect width="220" height="249" fill="white"/>
<path d="M151.086 58.606L155.074 63.3382L155.667 63.2103L159.969 62.2032L170.288 66.1102L172.414 70.6975L175.49 68.8653L186.53 60.1553L189.195 67.1779L191.32 69.4412L192.21 69.2627L205.211 75.6048L206.406 78.2926L201.596 101.883L199.399 107.787L195.922 112.933H191.792L186.847 112.334L180.244 115.207L176.568 117.504L173.172 120.377L170.777 124.372L170.181 127.561L172.455 146.827L191.809 169.821L203.294 171.65L212.275 173.856L214 177.123L213.289 182.653L201.205 194.859L191.93 199.315L191.108 207.17L191.671 211.585L190.451 216.321L187.281 217.503L182.541 213.566L168.341 210.026L165.083 211.764L159.275 216.94L139.139 237.749L135.349 242.13L135.107 237.951L134.467 232.794L132.189 229.113L119.687 214.003L116.419 211.717L111.137 208.449L103.207 200.255L101.172 197.399L98.8337 188.948L96.3576 182.714L76.7438 164.998L72.947 162.741L65.7982 159.666L47.9025 151.199L28.4066 140.458L17.552 133.61L13.1893 128.841L9.79339 126.248L6 123.89L7.47558 122.893L11.1915 117.824L18.7008 106.77L23.7239 98.7673L25.1994 93.1796L28.6627 86.4165L36.6739 76.265L42.866 69.3031L46.1035 66.2314L48.7212 64.3958L53.815 62.2436L66.8324 58.2254L69.477 55.7499L77.4142 49.3976L84.0846 44.3219L92.9752 33.2072L95.832 28.1281L96.7854 16.7001L99.2986 13.0255L99.0931 9.88984L100.791 7L103.547 8.69417L106.946 11.2236L123.06 24.0999L130.013 36.9795L132.809 45.1909L138.701 47.8113L143.782 49.3976L147.592 52.2572L151.086 58.606Z" fill="#E9ECF2" stroke="#8F959D" stroke-width="2"/>
</svg>
