<svg width="220" height="249" viewBox="0 0 220 249" fill="none" xmlns="http://www.w3.org/2000/svg">
<rect width="220" height="249" fill="white"/>
<path d="M109.85 6.0284L110.437 6.72229L117.747 5.43268L127.718 4.76551L135.698 5.43268L137.835 7.57416L138.641 7.34183L157.818 12.4557L160.287 15.7052L165.985 31.893L167.253 43.4792L166.583 46.4071L166.405 49.99L170.889 63.6372L172.07 66.9671L185.567 81.3917L194.368 89.8683L198.245 91.5004L205.66 92.7722L209.156 96.5907L198.656 106.714L198.189 116.564L197.522 127.212L193.785 131.703L194.148 132.317L190.212 132.537L183.564 134.53L181.794 130.104L179.574 129.675V125.216L178.244 115.9L172.261 112.57L167.315 113.922L166.479 113.472L160.023 113.657L155.967 115.947L151.73 121.338L148.627 130.986L148.097 134.655L150.212 139.665L151.132 142.22L151.025 146.11L143.863 154.959L135.853 164.29L133.065 166.054L128.64 167.763L124.368 168.904L122.288 170.447L119.732 174.325L115.287 182.67L109.145 194.807L104.878 203.344L102.456 206.82V213.059L95.8092 228.362L88.4985 235.019L77.1948 239.675L68.5541 245H62.9602L62.7846 244.875L61.514 243.347L60.4131 241.033L57.4228 238.739L45.8513 232.032L38.8649 220.133L37.526 210.117L36.5202 203.198L33.4496 190.65L31.0335 189.399L22.4612 181.565L21.5448 180.317L21.3931 177.78L15.088 173.994L10 171.85L22.7558 168.094L30.8312 162.435L37.1094 159.552L40.7365 145.741L34.7052 137.485L32.3397 135.227L28.0699 125.961L27.0137 121.669L26.9215 118.348L27.7159 115.581L29.2363 113.419L37.4545 106.58L41.7927 105.02L44.8486 103.563L46.0804 96.6473L44.8486 88.7781L57.1253 71.9977L64.68 68.3998L63.2339 65.323L59.9104 63.3275L55.2567 58.6691L52.5967 54.6781L55.2567 50.0169H61.2404L66.5575 52.6795L76.5283 60.0005L85.175 62.6632L89.9237 60.7601L88.8258 57.4689V54.142L90.3433 51.0503L93.1283 48.4175L95.952 45.7844L99.231 41.8351L101.156 38.6719L102.162 31.9646L102.409 28.4559L102.584 23.0859L102.32 16.5453L102.355 10.1178L103.212 4.48556L106.676 4L109.85 6.0284Z" fill="#E9ECF2" stroke="#8F959D" stroke-width="2"/>
</svg>
