<svg width="220" height="249" viewBox="0 0 220 249" fill="none" xmlns="http://www.w3.org/2000/svg">
<rect width="220" height="249" fill="white"/>
<path d="M30.4481 208.139L28.8252 205.119L26.1765 199.069L27.6904 193.017L31.4717 188.479L37.8995 188.856L42.4367 187.344L44.2389 183.741L44.2979 183.757L45.4758 183.643L46.2203 181.291L48.8668 179.021L51.8923 170.701L51.1342 160.866L47.3529 152.167L40.1692 140.82L33.3624 136.659L25.4206 132.877L17.1021 126.068L17.8579 120.772L21.2602 115.098L24.0724 113.6L25.3843 106.814L27.8538 105.654L31.4626 106.07L33.2375 105.518L29.9578 102.238L26.1765 95.4293L16.3463 87.865L5 75.3833L5.37904 66.6838L8.40457 50.7991L11.0511 38.3175L14.7144 33.3548L15.9196 30.1833L17.7354 27.341L31.3355 14.8752L34.184 13L36.3357 19.4588L42.6115 24.594H55.449L69.4259 23.7359L77.127 20.8845L77.9668 18.6438L79.138 18.4395L84.7896 13.4677L86.2558 16.033L88.2532 18.6029L93.957 25.4499L96.2403 30.8689L96.8123 35.0234L93.0786 40.5741L92.956 43.2756L94.6515 45.7252L99.8877 48.6061L101.744 49.2781L104.838 48.0181L107.208 46.7559L114.18 41.4458L117.651 38.2562L119.473 36.2879L122.199 36.0064L127.617 37.1483L132.753 40.5695L141.596 43.9953L149.583 46.8467L154.431 51.1283L157.214 49.1646L157.448 49.2985L160.535 49.6005L163.787 48.572L166.983 49.7003L176.967 49.9864L182.263 51.6051L184.233 53.3554L186.117 59.183L186.546 62.972L192.71 77.0701L193.352 80.0668L201.051 88.6368L208.789 96.2193L214 96.149L211.953 98.0582L206.299 104.338L198.314 115.877L201.644 127.644L205.103 132.409L205.654 148.418L203.543 148.123L197.69 155.256L195.763 170.728L197.69 178.905L199.047 181.473L200.729 183.153L201.671 184.86L202.667 187.884L194.835 194.068L192.762 195.303L191.33 192.211L184.378 189.577L181.479 190.256L181.08 190.343L178.395 187.153L176.039 182.874L173.474 180.946L170.049 179.877L166.079 178.111L164.196 172.576L159.511 163.895L148.655 155.215L146.365 153.508L144.508 152.369L143.364 154.316L143.503 156.43L141.809 158.907L141.167 166.61L139.242 170.033L133.253 177.525L128.759 180.946L123.411 185.228L121.629 186.896L112.859 189.605L109.427 191.055L107.664 192.293L105.483 194.363L101.311 199.056L95.9135 205.898L93.5802 210.457L92.5861 214.223L89.2019 219.617L84.1427 227.068L81.6392 230.485L80.6451 231.157L80.0527 230.782L75.7153 231.597L68.1526 235L60.2108 229.706L51.5133 222.518L46.5971 218.736L44.9447 215.154L35.9408 211.385L30.4481 208.139Z" fill="#E9ECF2" stroke="#8F959D" stroke-width="2"/>
</svg>
