<svg width="220" height="249" viewBox="0 0 220 249" fill="none" xmlns="http://www.w3.org/2000/svg">
<rect width="220" height="249" fill="white"/>
<path d="M70.6901 45.036L74.5558 45.4433L77.1997 47.6834L79.8445 49.7203L79.9219 50.9597L80.0357 51.0217L80.7541 51.5685L81.1237 51.9996L80.5401 52.0624L80.4463 52.9956L81.629 53.7776L83.2468 55.1319L85.848 57.71L86.3769 58.6569L86.7556 59.3505L87.5596 59.9082L90.2636 60.8943L91.3433 61.1868L92.0244 61.6526L92.5251 62.7042L92.353 64.3756L91.2969 65.678L89.2903 65.4173L89.4861 68.35L90.0933 69.0928L91.8996 69.749L94.1611 71.0276L96.3371 75.115L97.853 80.1046L98.4466 82.1979L98.7652 84.1346L100.887 85.9418L103.758 87.9704L106.052 93.9033L108.865 96.713L110.122 96.9226L111.11 97.1769L112.341 97.7255L113.01 98.2741L113.561 99.0889L113.97 100.153L114.327 101.262L114.749 101.924L117.202 105.637L119.263 106.729L120.95 109.003L121.387 111.248L121.505 112.058L121.463 112.982L121.225 114.118L120.793 115.053L118.57 118.11L114.845 121.721L113.345 122.939L112.378 123.744L111.687 125.145L120.232 125.54L124.852 125.594L125.673 125.572L129.98 125.627L134.763 126.922L142.718 128.391L143.906 128.745L146.632 130.334L148.538 135.185L148.338 136.582L147.884 138.071L148.233 139.193L149.547 139.923L151.345 140.928L151.948 142.155L152.492 144.208L151.809 146.853L151.128 148.739L152.759 148.827H156.321L157.952 148.816H159.16H161.061H172.266L179.369 148.805L182.91 148.795L185.695 148.461L190.202 145.982L191.038 144.325L191.83 143.297L196.672 141.612L197.783 140.666L198.406 139.379L201.802 135.697L203.291 134.738L205.796 133.171L211.075 128.674L213.202 126.715L214 126.427L213.555 128.524L213.645 130.546L213.115 134.191L212.942 140.064L212.268 140.746L211.766 141.813L211.636 144.553L211.647 146.62L211.642 147.283L205.585 156.907L203.367 157.846V157.958L200.396 160.803L195.763 165.626L191.5 167.295L188.907 169.893L187.608 171.563L186.311 175.458L186.246 177.293L186.024 177.34L185.756 180.839L185.014 183.064L182.605 185.29L180.937 186.96L170.373 187.331L166.132 187.104L165.939 187.185L164.774 187.377L162.075 187.59H160.984H159.959L158.47 187.348L158.281 187.188L155.732 187.517L152.867 187.069L152.879 187.085L150.913 187.331L150.544 189.186L152.026 190.485L151.469 192.711L150.544 196.05L148.876 198.462L147.695 199.475L146.821 199.342L142.422 200.864L140.263 202.824L137.543 204.598L136.015 205.042L134.083 204.533L131.352 203.339L125.943 202.725L122.877 201.071L121.83 200.206L120.712 197.563L117.751 198.116L116.917 198.8L115.935 199.156L114.672 199.528L113.279 199.769L110.473 200.206L109.523 200.338L103.408 201.063L102.574 200.723L102.5 200.674L102.831 197.04L102.016 191.135L100.317 189.798L100.335 189.7L98.1516 189.098L97.7455 185.637L97.6527 182.951L97.4915 182.696L96.0612 180.832L94.6956 179.745L89.7191 178.23L88.8396 179.893L88.0294 181.51L87.6961 181.98L87.7772 183.702V185.739L87.5741 189.403L86.7602 192.05L84.9302 193.069L81.0645 192.254L80.0476 189.2L79.6096 186.713L76.3703 187.206L74.9746 187.604L74.1489 187.367L68.6562 187.775H64.5884L61.8634 186.801L61.6668 186.222L61.3327 184.494L60.8538 181.974L62.4006 181.27L65.0463 178.986L65.5316 178.34L66.7415 176.931L69.451 174.243L71.6634 173.097L72.8506 172.714L74.1143 172.255L74.2982 171.425L74.1734 171.269L75.3697 170.67L75.5728 168.838L74.9619 167.209L73.9449 166.599L72.114 164.766L71.0971 162.119L71.504 159.471L72.5219 157.231L72.7249 154.177L70.0801 153.771L68.2492 152.344L65.8083 149.087L65.6053 145.625L64.7914 142.57L63.2801 141.878L62.5308 139.792L62.3214 139.233L62.5535 135.851L61.3336 133.408L60.5196 130.76L58.4857 129.336L56.8588 127.095L56.6548 124.856L57.4687 122.616L59.0957 120.58L58.2827 117.525L56.6548 115.489V111.417L55.9638 108.453L56.5829 105.509L58.8717 101.054L60.729 99.8471L60.8465 98.8392L60.5879 97.525L60.0098 96.1972L59.0493 95.2603L58.3309 94.8857L56.8415 94.7016L54.6828 94.5494L53.3654 94.6479L52.4914 94.8648L49.3422 96.1507L48.9489 96.4214L48.1113 99.6065L46.6874 103.476L46.4843 106.123L45.4665 107.955H43.6365L42.6186 105.919L39.7708 106.326L37.319 106.794L37.0094 107.23L36.5169 110.806L34.4821 113.249L34.686 117.322L33.0582 118.951L31.0242 120.783L27.9725 121.598L25.7728 121.07L21.9836 123.048L20.17 124.494L19.4317 124.882L17.395 124.245L15.7681 122.006L14.1411 119.155L12.1063 115.489L11.4963 114.267L10.7761 113.637L10.5831 112.552L9.99499 111.248L9.35313 110.553L7.19357 105.727L6 101.261L6.61453 97.5706L6.74017 94.4146L8.12222 93.8113L8.81324 93.2462L9.5252 92.3349L11.9005 89.805L17.0281 85.3394H18.7233L19.9652 86.0931L20.861 86.8969L21.7788 87.7645L21.8944 87.8629L23.9829 87.3398L25.3285 86.2926V83.9277L25.5316 81.4844V78.0231L26.4293 76.3079L28.8601 74.4752L31.3757 74.909L32.6758 75.0548L33.6681 73.9512L35.4999 72.3217L37.533 69.8784L42.0086 70.2857L43.1758 70.9866L43.6511 70.8453L44.0426 71.3037L48.1113 71.7111L53.197 71.3037L55.4348 70.0816L56.4054 67.8132L57.09 67.4287L58.31 66.5729L59.001 65.5486L59.195 64.5461L59.3352 61.1112L58.7415 53.393L58.4721 51.7744L58.1416 50.0165L58.8927 48.7014L60.3166 47.2769L61.878 44.9321L61.9854 45.0031L62.0919 45.0906L62.1475 44.8327L62.9605 43.4074L64.3844 43L66.4193 43.2041L67.8423 44.8327L70.6901 45.036Z" fill="#E9ECF2" stroke="#8F959D" stroke-width="2"/>
</svg>
